<svg xmlns="http://www.w3.org/2000/svg" width="300" height="300"><path d="M207.3 297.2c49.6 0 90-40.3 90-90V92.8c0-49.6-40.4-90-90-90H92.7c-49.6 0-90 40.4-90 90v114.6c0 49.6 40.4 90 90 90h114.6zM84.6 142c-30 0-54.5-24.5-54.5-54.6C30 57.4 54.6 33 84.7 33c30 0 54.5 24.3 54.5 54.4 0 30-24.3 54.5-54.4 54.5zm0 130C54.6 272 30 248 30 217.7c0-30 24.5-54.4 54.6-54.4 30 0 54.5 24.3 54.5 54.4 0 30.2-24.3 54.5-54.4 54.5zM216 142c-30.2 0-54.6-24.5-54.6-54.6 0-30 24.4-54.5 54.5-54.5 30 0 54.4 24.3 54.4 54.4 0 30-24.4 54.5-54.5 54.5zm0 130c-30.2 0-54.6-24.2-54.6-54.4 0-30 24.4-54.4 54.5-54.4 30 0 54.4 24.3 54.4 54.4 0 30.2-24.4 54.5-54.5 54.5z" fill="#fff"/></svg>