<svg xmlns="http://www.w3.org/2000/svg" width="300" height="300"><path d="M207.6 297.2c49.5 0 89.8-40.3 89.8-90V92.8c0-49.6-40.3-90-89.8-90H93c-49.6 0-90 40.4-90 90v114.6c0 49.6 40.4 90 90 90h114.6zM78.8 110C58 110 41 93.2 41 72.3 41 51.5 58 34.6 79 34.6c21 0 37.8 17 37.8 37.7 0 21-17 37.7-37.8 37.7zm71.2 77.7c-20.8 0-37.7-17-37.7-37.7 0-20.8 17-37.7 37.7-37.7 20.8 0 37.7 17 37.7 37.7 0 20.8-17 37.7-37.7 37.7zm-71.7 75.5c-20.8 0-37.7-17-37.7-37.7 0-21 17-37.8 37.7-37.8 21 0 37.7 17 37.7 37.8 0 20.8-16.8 37.7-37.7 37.7zm147.2 0c-21 0-37.8-17-37.8-37.7 0-21 17-37.8 37.8-37.8 20.8 0 37.7 17 37.7 37.8 0 20.8-17 37.7-37.7 37.7zm0-151c-21 0-37.8-17-37.8-37.7 0-21 17-37.7 37.8-37.7 20.8 0 37.7 16.8 37.7 37.7 0 20.8-17 37.7-37.7 37.7z" fill="#fff"/></svg>