<svg xmlns="http://www.w3.org/2000/svg" width="300" height="300"><path d="M207.3 297.2c49.6 0 90-40.3 90-90V92.8c0-49.6-40.4-90-90-90H92.7c-49.6 0-90 40.4-90 90v114.6c0 49.6 40.4 90 90 90h114.6zM84.6 106.7c-20.4 0-37-16.5-37-37 0-20.3 16.6-36.8 37-36.8s37 16.4 37 36.8-16.6 37-37 37zm0 80.2c-20.4 0-37-16.6-37-37s16.6-37 37-37 37 16.6 37 37-16.6 37-37 37zm132-80.3c-20.3 0-36.8-16.5-36.8-37 0-20.3 16.5-36.8 37-36.8 20.3 0 36.8 16.4 36.8 36.8s-16.5 37-37 37zm0 80.2c-20.3 0-36.8-16.6-36.8-37s16.5-37 37-37c20.3 0 36.8 16.6 36.8 37s-16.5 37-37 37zm0 85c-20.3 0-36.8-16.4-36.8-36.8s16.5-37 37-37c20.3 0 36.8 16.6 36.8 37s-16.5 37-37 37zm-132 0c-20.4 0-37-16.4-37-36.8s16.6-37 37-37 37 16.6 37 37-16.6 37-37 37z" fill="#fff"/></svg>