<svg width="47" height="47" viewBox="0 0 47 47" fill="none" xmlns="http://www.w3.org/2000/svg">
<rect width="46.5" height="46.5" rx="9.1378" fill="#EF5DA8" fill-opacity="0.1"/>
<path d="M37 27.0975C37 27.84 36.8039 28.4587 36.4117 28.9537C36.0194 29.4487 35.4752 29.6962 34.7788 29.6962C34.4175 29.6962 34.0759 29.616 33.7542 29.4556C33.4325 29.2952 33.1725 29.121 32.9742 28.9331C32.7758 28.7452 32.5268 28.571 32.2272 28.4106C31.9275 28.2502 31.6146 28.17 31.2885 28.17C30.3189 28.17 29.8341 28.7383 29.8341 29.875C29.8341 30.2325 29.9046 30.7596 30.0457 31.4562C30.1867 32.1529 30.2528 32.68 30.244 33.0375V33.1062C30.0501 33.1062 29.9046 33.1108 29.8077 33.12C29.508 33.1475 29.0783 33.2002 28.5186 33.2781C27.9589 33.356 27.4499 33.4179 26.9916 33.4637C26.5333 33.5096 26.1014 33.5325 25.6959 33.5325C25.1583 33.5325 24.7043 33.411 24.3341 33.1681C23.9639 32.9252 23.7788 32.5425 23.7788 32.02C23.7788 31.6808 23.856 31.3554 24.0102 31.0437C24.1645 30.7321 24.3319 30.4731 24.5126 30.2669C24.6933 30.0606 24.8608 29.7902 25.015 29.4556C25.1693 29.121 25.2464 28.7658 25.2464 28.39C25.2464 27.6658 25.0084 27.0998 24.5325 26.6919C24.0565 26.284 23.4615 26.08 22.7476 26.08C22.0072 26.08 21.377 26.2885 20.857 26.7056C20.3369 27.1227 20.0769 27.7071 20.0769 28.4587C20.0769 28.8529 20.143 29.2333 20.2752 29.6C20.4075 29.9667 20.5551 30.2623 20.7181 30.4869C20.8812 30.7115 21.0288 30.9544 21.1611 31.2156C21.2933 31.4769 21.3594 31.7083 21.3594 31.91C21.3594 32.3225 21.1567 32.7304 20.7512 33.1337C20.4251 33.4546 19.9095 33.615 19.2043 33.615C18.367 33.615 17.2873 33.505 15.9651 33.285C15.8858 33.2667 15.7646 33.2483 15.6016 33.23C15.4385 33.2117 15.3173 33.1933 15.238 33.175L15.0661 33.1475C15.0573 33.1475 15.0441 33.1429 15.0264 33.1337C15.0088 33.1337 15 33.1292 15 33.12V19.04C15.0176 19.0492 15.0948 19.0652 15.2314 19.0881C15.368 19.111 15.5178 19.134 15.6809 19.1569C15.844 19.1798 15.9387 19.1958 15.9651 19.205C17.2873 19.425 18.367 19.535 19.2043 19.535C19.9095 19.535 20.4251 19.3746 20.7512 19.0537C21.1567 18.6504 21.3594 18.2425 21.3594 17.83C21.3594 17.6283 21.2933 17.3969 21.1611 17.1356C21.0288 16.8744 20.8812 16.6315 20.7181 16.4069C20.5551 16.1823 20.4075 15.8867 20.2752 15.52C20.143 15.1533 20.0769 14.7729 20.0769 14.3787C20.0769 13.6271 20.3369 13.0427 20.857 12.6256C21.377 12.2085 22.0116 12 22.7608 12C23.4659 12 24.0565 12.204 24.5325 12.6119C25.0084 13.0198 25.2464 13.5858 25.2464 14.31C25.2464 14.6858 25.1693 15.041 25.015 15.3756C24.8608 15.7102 24.6933 15.9806 24.5126 16.1869C24.3319 16.3931 24.1645 16.6521 24.0102 16.9637C23.856 17.2754 23.7788 17.6008 23.7788 17.94C23.7788 18.4625 23.9639 18.8452 24.3341 19.0881C24.7043 19.331 25.1583 19.4525 25.6959 19.4525C26.26 19.4525 27.0533 19.3837 28.0757 19.2462C29.0982 19.1087 29.8165 19.0308 30.2308 19.0125V19.04C30.222 19.0583 30.2065 19.1385 30.1845 19.2806C30.1625 19.4227 30.1404 19.5785 30.1184 19.7481C30.0964 19.9177 30.0809 20.0162 30.0721 20.0437C29.8606 21.4187 29.7548 22.5417 29.7548 23.4125C29.7548 24.1458 29.9091 24.6821 30.2175 25.0212C30.6054 25.4429 30.9976 25.6537 31.3942 25.6537C31.5881 25.6537 31.8107 25.585 32.0619 25.4475C32.3131 25.31 32.5467 25.1565 32.7626 24.9869C32.9786 24.8173 33.2628 24.6637 33.6154 24.5262C33.9679 24.3887 34.3337 24.32 34.7127 24.32C35.4355 24.32 35.9974 24.5904 36.3984 25.1312C36.7995 25.6721 37 26.3275 37 27.0975Z" fill="#EF5DA8"/>
</svg>
