<svg width="47" height="47" viewBox="0 0 47 47" fill="none" xmlns="http://www.w3.org/2000/svg">
<rect y="0.25" width="46.5" height="46.5" rx="9.1378" fill="#549869" fill-opacity="0.1"/>
<path d="M16.5008 12.8008H23.5008V19.1008C23.5008 19.6577 23.722 20.1919 24.1159 20.5857C24.5097 20.9795 25.0438 21.2008 25.6008 21.2008H31.9008V33.8008C31.9008 34.1721 31.7533 34.5282 31.4907 34.7907C31.2282 35.0533 30.8721 35.2008 30.5008 35.2008H28.979C28.8751 34.9041 28.7057 34.6347 28.4834 34.4126L24.1084 30.039C24.7794 28.7547 25.0354 27.2939 24.8409 25.858C24.6465 24.422 24.0112 23.0819 23.0228 22.0223C22.0344 20.9628 20.7415 20.2361 19.3226 19.9425C17.9036 19.6489 16.4285 19.8029 15.1008 20.3832V14.2008C15.1008 13.8295 15.2483 13.4734 15.5108 13.2108C15.7734 12.9483 16.1295 12.8008 16.5008 12.8008ZM24.9008 12.8008L31.9008 19.8008H25.6008C25.4151 19.8008 25.2371 19.727 25.1058 19.5958C24.9745 19.4645 24.9008 19.2864 24.9008 19.1008V12.8008ZM23.5008 26.8008C23.5008 28.0944 23.0612 29.2858 22.3248 30.235L27.4922 35.4038C27.559 35.4684 27.6124 35.5456 27.6491 35.631C27.6857 35.7164 27.7051 35.8083 27.7059 35.9012C27.7067 35.9941 27.689 36.0863 27.6538 36.1723C27.6186 36.2584 27.5666 36.3365 27.5009 36.4023C27.4351 36.468 27.357 36.52 27.271 36.5552C27.1849 36.5904 27.0928 36.6081 26.9998 36.6073C26.9069 36.6064 26.815 36.5871 26.7296 36.5505C26.6442 36.5138 26.567 36.4604 26.5024 36.3936L21.335 31.2248C20.3354 32.0008 19.1024 32.4154 17.837 32.401C16.5716 32.3866 15.3484 31.944 14.3667 31.1454C13.3851 30.3468 12.7029 29.2392 12.4313 28.0032C12.1597 26.7673 12.3147 25.4757 12.8712 24.3391C13.4276 23.2025 14.3526 22.2879 15.4954 21.7443C16.6382 21.2008 17.9314 21.0603 19.1642 21.3458C20.3971 21.6313 21.4969 22.326 22.2844 23.3166C23.0719 24.3072 23.5007 25.5353 23.5008 26.8008ZM17.9008 31.0008C19.0147 31.0008 20.083 30.5583 20.8706 29.7706C21.6583 28.983 22.1008 27.9147 22.1008 26.8008C22.1008 25.6869 21.6583 24.6186 20.8706 23.8309C20.083 23.0433 19.0147 22.6008 17.9008 22.6008C16.7869 22.6008 15.7186 23.0433 14.9309 23.8309C14.1433 24.6186 13.7008 25.6869 13.7008 26.8008C13.7008 27.9147 14.1433 28.983 14.9309 29.7706C15.7186 30.5583 16.7869 31.0008 17.9008 31.0008Z" fill="#549869"/>
</svg>
