<svg width="47" height="47" viewBox="0 0 47 47" fill="none" xmlns="http://www.w3.org/2000/svg">
<rect width="46.5" height="46.5" rx="9.1378" fill="#3082F7" fill-opacity="0.1"/>
<path d="M22.1245 9.875C21.8843 9.87596 21.6897 10.0705 21.6887 10.3108V11.6224H20.8137C20.4206 11.6195 20.2233 12.0961 20.5035 12.3718L23.1286 14.9977C23.2993 15.1673 23.5749 15.1673 23.7456 14.9977L26.3715 12.3718C26.6517 12.0961 26.4544 11.6195 26.0613 11.6224H25.1863V10.3108C25.1853 10.0705 24.9908 9.87596 24.7505 9.875H22.1245ZM18.633 13.3699C18.3863 13.3651 18.1845 13.565 18.1869 13.8116V14.432C18.1996 15.0025 19.0493 15.0025 19.0619 14.432V13.8116C19.0643 13.5717 18.8729 13.3746 18.633 13.3699ZM28.2412 13.3699C28.0013 13.3746 27.8099 13.5717 27.8122 13.8116V14.432C27.8248 15.0025 28.6746 15.0025 28.6873 14.432V13.8116C28.6897 13.565 28.4879 13.3651 28.2412 13.3699ZM16.2463 15.1139L16.5659 15.4335C16.9997 15.842 17.5863 15.2212 17.1828 14.8165L16.8624 14.4969C16.7833 14.4155 16.676 14.368 16.5625 14.3645C16.1664 14.3559 15.964 14.836 16.2463 15.1139ZM30.0118 14.4969L29.6913 14.8165C29.2879 15.2212 29.8745 15.842 30.3083 15.4335L30.6279 15.1139C30.9102 14.836 30.7077 14.3558 30.3117 14.3645C30.1982 14.3679 30.0909 14.4155 30.0118 14.4969ZM16.724 19.7717C16.3264 19.3379 15.7614 19.0608 15.1243 19.0608C13.9128 19.0608 12.9359 20.0436 12.9359 21.2466C12.9359 21.7262 13.087 22.1663 13.3495 22.5283C12.5606 23.1224 12.0617 24.0951 12.0617 25.1875V25.6233C12.0617 26.3548 12.6538 26.9351 13.3734 26.9358C14.3372 26.9351 15.2668 26.936 16.1796 26.9358C16.3272 27.2851 16.5064 27.6165 16.7009 27.9381L11.9993 31.7329C10.8702 32.6439 10.9758 34.3581 11.9643 35.3465C12.9527 36.3349 14.6669 36.4439 15.578 35.3149L19.373 30.6101C20.56 31.3279 21.9464 31.7491 23.4354 31.7491C26.6996 31.7491 29.4994 29.7624 30.6945 26.9358C31.6516 26.9358 32.6052 26.9368 33.5008 26.9358C34.2204 26.9351 34.8125 26.3548 34.8125 25.6233V25.1875C34.8125 24.0951 34.3135 23.1224 33.5247 22.5283C33.7872 22.1663 33.9383 21.7262 33.9383 21.2466C33.9383 20.0436 32.9614 19.0608 31.7499 19.0608C31.1125 19.0608 30.5477 19.3383 30.1502 19.7726C28.767 17.5141 26.284 16 23.4354 16C20.587 16 18.1063 17.5136 16.724 19.7717ZM15.5669 16.4375C15.3266 16.4346 15.129 16.6262 15.1243 16.8664C15.1195 17.1134 15.3199 17.3154 15.5669 17.3125H16.1873C16.7578 17.2998 16.7578 16.4502 16.1873 16.4375H15.5669ZM30.6869 16.4375C30.1163 16.4502 30.1163 17.2998 30.6869 17.3125H31.3072C31.5542 17.3154 31.7547 17.1134 31.7499 16.8664C31.7453 16.6262 31.5476 16.4346 31.3072 16.4375H30.6869ZM23.4354 16.875C27.2922 16.875 30.4382 20.0047 30.4382 23.8758C30.4382 27.747 27.2947 30.8741 23.4354 30.8741C19.576 30.8741 16.4368 27.747 16.4368 23.8758C16.4368 20.0047 19.5786 16.875 23.4354 16.875ZM23.4354 17.7491C20.048 17.7491 17.3127 20.4983 17.3127 23.8758C17.3127 27.2534 20.0406 29.9982 23.4354 29.9982C26.8302 29.9982 29.5623 27.2534 29.5623 23.8758C29.5623 20.4983 26.8227 17.7491 23.4354 17.7491ZM23.4354 18.6241C26.3232 18.6241 28.6873 20.9712 28.6873 23.8758C28.6873 26.7805 26.3265 29.1232 23.4354 29.1232C20.5443 29.1232 18.1878 26.7805 18.1878 23.8758C18.1878 20.9712 20.5475 18.6241 23.4354 18.6241ZM21.2486 21.6858C21.2486 22.1654 21.3997 22.6055 21.6622 22.9675C20.8734 23.5616 20.3744 24.5343 20.3744 25.6267V26.0625C20.3744 26.794 20.9665 27.3743 21.6861 27.375C22.8888 27.3742 24.0704 27.3763 25.188 27.375C25.9076 27.3743 26.4997 26.794 26.4997 26.0625V25.6267C26.4997 24.5343 26.0007 23.5616 25.2119 22.9675C25.4744 22.6055 25.6255 22.1654 25.6255 21.6858C25.6255 20.4828 24.6486 19.5 23.4371 19.5C22.2255 19.5 21.2486 20.4828 21.2486 21.6858ZM15.1242 23.4366C15.2832 23.4366 15.4375 23.4172 15.5865 23.3836C15.5765 23.5471 15.5618 23.7098 15.5618 23.8758C15.5618 24.6346 15.6747 25.3661 15.8754 26.0608C15.024 26.0612 14.1721 26.0623 13.3733 26.0608C13.1234 26.0605 12.9367 25.8596 12.9367 25.6233V25.1875C12.9367 24.2952 13.3802 23.5324 14.0125 23.1316C14.3359 23.3214 14.718 23.4366 15.1242 23.4366ZM33.9374 25.1875V25.6233C33.9374 25.8596 33.7507 26.0605 33.5008 26.0608C32.6414 26.0602 31.8168 26.0609 30.9987 26.0608C31.1995 25.3661 31.3132 24.6347 31.3132 23.8758C31.3132 23.7101 31.2985 23.5477 31.2884 23.3845C31.4371 23.4178 31.5914 23.4366 31.7498 23.4366C32.156 23.4366 32.5382 23.3214 32.8616 23.1316C33.4939 23.5324 33.9374 24.2952 33.9374 25.1875ZM22.3254 23.5708C22.6487 23.7606 23.0309 23.8758 23.4371 23.8758C23.8433 23.8758 24.2254 23.7606 24.5488 23.5708C25.1811 23.9716 25.6247 24.7344 25.6247 25.6267V26.0625C25.6247 26.2988 25.4379 26.4997 25.188 26.5C23.9853 26.4992 22.8041 26.5021 21.6862 26.5C21.4362 26.4997 21.2495 26.2988 21.2495 26.0625V25.6267C21.2495 24.7344 21.693 23.9716 22.3254 23.5708Z" fill="#3082F7"/>
</svg>
