<svg width="47" height="47" viewBox="0 0 47 47" fill="none" xmlns="http://www.w3.org/2000/svg">
<rect y="0.25" width="46.5" height="46.5" rx="9.1378" fill="#3082F7" fill-opacity="0.1"/>
<path d="M14.4444 14.1113H9.77778C9.35 14.1113 9 14.4613 9 14.8891V32.0002C9 32.428 9.35 32.778 9.77778 32.778H14.4444C14.8722 32.778 15.2222 32.428 15.2222 32.0002V14.8891C15.2222 14.4613 14.8722 14.1113 14.4444 14.1113ZM13.6667 18.778H10.5556V17.2224H13.6667V18.778ZM22.2222 14.1113H17.5556C17.1278 14.1113 16.7778 14.4613 16.7778 14.8891V32.0002C16.7778 32.428 17.1278 32.778 17.5556 32.778H22.2222C22.65 32.778 23 32.428 23 32.0002V14.8891C23 14.4613 22.65 14.1113 22.2222 14.1113ZM21.4444 18.778H18.3333V17.2224H21.4444V18.778Z" fill="#3082F7"/>
<path d="M27.5943 15.3141L23.427 17.4141C23.2435 17.5074 23.1042 17.6694 23.0395 17.8649C22.9748 18.0604 22.99 18.2735 23.0817 18.4579L30.0817 32.349C30.175 32.5325 30.337 32.6718 30.5325 32.7365C30.728 32.8011 30.9411 32.786 31.1254 32.6943L35.2928 30.5943C35.4763 30.501 35.6156 30.339 35.6803 30.1435C35.7449 29.948 35.7298 29.7349 35.6381 29.5505L28.6381 15.6594C28.5448 15.4759 28.3828 15.3366 28.1873 15.2719C27.9918 15.2073 27.7787 15.2224 27.5943 15.3141Z" fill="#3082F7"/>
<path d="M31.5556 32.0004C31.5556 32.2067 31.4736 32.4045 31.3277 32.5504C31.1819 32.6963 30.9841 32.7782 30.7778 32.7782C30.5715 32.7782 30.3737 32.6963 30.2278 32.5504C30.0819 32.4045 30 32.2067 30 32.0004C30 31.7942 30.0819 31.5963 30.2278 31.4505C30.3737 31.3046 30.5715 31.2227 30.7778 31.2227C30.9841 31.2227 31.1819 31.3046 31.3277 31.4505C31.4736 31.5963 31.5556 31.7942 31.5556 32.0004Z" fill="#3082F7"/>
</svg>
