<svg width="47" height="47" viewBox="0 0 47 47" fill="none" xmlns="http://www.w3.org/2000/svg">
<rect x="0.5" y="0.25" width="46.5" height="46.5" rx="9.1378" fill="#D95F5A" fill-opacity="0.1"/>
<path d="M23.9991 22.4283C26.0438 22.4283 27.7013 20.7917 27.7013 18.7727C27.7013 16.7538 26.0438 15.1172 23.9991 15.1172C21.9544 15.1172 20.2969 16.7538 20.2969 18.7727C20.2969 20.7917 21.9544 22.4283 23.9991 22.4283Z" fill="#D95F5A"/>
<path d="M18.3836 19.1398H18.7569V18.8054C18.7592 17.8329 19.0336 16.8804 19.549 16.0556C20.0645 15.2309 20.8004 14.5669 21.6736 14.1387C21.4151 13.5434 21.0002 13.0292 20.4729 12.6507C19.9456 12.2722 19.3257 12.0437 18.6789 11.9892C18.0322 11.9348 17.3827 12.0565 16.7996 12.3416C16.2165 12.6266 15.7215 13.0642 15.3671 13.608C15.0127 14.1517 14.8123 14.7813 14.787 15.4299C14.7617 16.0784 14.9125 16.7217 15.2235 17.2914C15.5344 17.8611 15.9939 18.336 16.553 18.6655C17.1121 18.9951 17.7501 19.1671 18.3991 19.1632L18.3836 19.1398ZM29.2569 18.7743V19.1087H29.6303C30.2706 19.1023 30.8975 18.9233 31.4447 18.5907C31.992 18.2581 32.4394 17.7841 32.74 17.2186C33.0406 16.6531 33.1832 16.017 33.1527 15.3773C33.1222 14.7376 32.9199 14.1179 32.567 13.5836C32.214 13.0492 31.7236 12.6198 31.1472 12.3407C30.5708 12.0615 29.9298 11.9429 29.2917 11.9973C28.6536 12.0518 28.042 12.2772 27.5212 12.65C27.0005 13.0227 26.5898 13.5289 26.3325 14.1154C27.2059 14.5419 27.9427 15.2042 28.4595 16.0275C28.9763 16.8508 29.2525 17.8022 29.2569 18.7743ZM27.3358 22.7954C28.8822 23.1015 30.3775 23.6252 31.7769 24.3509C31.9741 24.4592 32.1526 24.5984 32.3058 24.7632H36.4436V22.1032C36.4443 22.0011 36.4172 21.9009 36.3651 21.8131C36.313 21.7254 36.238 21.6536 36.148 21.6054C34.1322 20.551 31.8897 20.0037 29.6147 20.0109H29.1014C28.8318 21.1066 28.2119 22.0843 27.3358 22.7954ZM15.078 26.2721C15.0766 25.8803 15.1824 25.4957 15.3839 25.1598C15.5855 24.8239 15.8751 24.5496 16.2214 24.3665C17.6208 23.6408 19.1161 23.117 20.6625 22.8109C19.7906 22.1059 19.1711 21.137 18.8969 20.0498H18.3836C16.1086 20.0426 13.8661 20.5899 11.8503 21.6443C11.7603 21.6925 11.6853 21.7643 11.6332 21.852C11.5811 21.9397 11.5539 22.04 11.5547 22.1421V27.1121H15.078V26.2721ZM26.6903 30.7598H31.3258V31.8487H26.6903V30.7598Z" fill="#D95F5A"/>
<path d="M35.5192 26.5357H30.1759V25.7579C30.1759 25.5516 30.0939 25.3538 29.9481 25.2079C29.8022 25.0621 29.6044 24.9801 29.3981 24.9801C29.1918 24.9801 28.994 25.0621 28.8481 25.2079C28.7023 25.3538 28.6203 25.5516 28.6203 25.7579V26.5357H27.1114V24.3346C26.0881 24.1197 25.0459 24.0077 24.0003 24.0001C21.5455 23.9899 19.1257 24.5828 16.9537 25.7268C16.8569 25.777 16.7759 25.8529 16.7197 25.9463C16.6634 26.0396 16.634 26.1467 16.6348 26.2557V30.619H22.1648V35.3557C22.1648 35.562 22.2467 35.7598 22.3926 35.9057C22.5384 36.0515 22.7363 36.1335 22.9426 36.1335H35.5192C35.7255 36.1335 35.9233 36.0515 36.0692 35.9057C36.2151 35.7598 36.297 35.562 36.297 35.3557V27.3135C36.297 27.1072 36.2151 26.9094 36.0692 26.7635C35.9233 26.6176 35.7255 26.5357 35.5192 26.5357ZM34.7414 34.5935H23.7203V28.0912H28.6203V28.799C28.6203 29.0053 28.7023 29.2031 28.8481 29.349C28.994 29.4949 29.1918 29.5768 29.3981 29.5768C29.6044 29.5768 29.8022 29.4949 29.9481 29.349C30.0939 29.2031 30.1759 29.0053 30.1759 28.799V28.0912H34.7414V34.5935Z" fill="#D95F5A"/>
</svg>
