<svg width="47" height="47" viewBox="0 0 47 47" fill="none" xmlns="http://www.w3.org/2000/svg">
<rect x="0.5" y="0.25" width="46.5" height="46.5" rx="9.1378" fill="#5D5FEF" fill-opacity="0.1"/>
<path d="M19.4186 14.2008C19.5634 13.7912 19.8317 13.4366 20.1865 13.1858C20.5413 12.9351 20.9652 12.8006 21.3996 12.8008H25.5996C26.0341 12.8006 26.4579 12.9351 26.8127 13.1858C27.1675 13.4366 27.4358 13.7912 27.5806 14.2008H29.7996C30.3566 14.2008 30.8907 14.422 31.2845 14.8159C31.6784 15.2097 31.8996 15.7438 31.8996 16.3008V24.0008H26.2996C25.1857 24.0008 24.1174 24.4433 23.3298 25.2309C22.5421 26.0186 22.0996 27.0869 22.0996 28.2008V33.8008C22.0996 34.2908 22.1836 34.7626 22.3376 35.2008H17.1996C16.6427 35.2008 16.1085 34.9795 15.7147 34.5857C15.3209 34.1919 15.0996 33.6577 15.0996 33.1008V16.3008C15.0996 15.7438 15.3209 15.2097 15.7147 14.8159C16.1085 14.422 16.6427 14.2008 17.1996 14.2008H19.4186ZM21.3996 14.2008C21.214 14.2008 21.0359 14.2745 20.9046 14.4058C20.7734 14.5371 20.6996 14.7151 20.6996 14.9008C20.6996 15.0864 20.7734 15.2645 20.9046 15.3958C21.0359 15.527 21.214 15.6008 21.3996 15.6008H25.5996C25.7853 15.6008 25.9633 15.527 26.0946 15.3958C26.2259 15.2645 26.2996 15.0864 26.2996 14.9008C26.2996 14.7151 26.2259 14.5371 26.0946 14.4058C25.9633 14.2745 25.7853 14.2008 25.5996 14.2008H21.3996ZM26.2996 25.4008C25.557 25.4008 24.8448 25.6958 24.3197 26.2209C23.7946 26.746 23.4996 27.4582 23.4996 28.2008V33.8008C23.4996 34.5434 23.7946 35.2556 24.3197 35.7807C24.8448 36.3058 25.557 36.6008 26.2996 36.6008H33.2996C34.0422 36.6008 34.7544 36.3058 35.2795 35.7807C35.8046 35.2556 36.0996 34.5434 36.0996 33.8008V28.2008C36.0996 27.4582 35.8046 26.746 35.2795 26.2209C34.7544 25.6958 34.0422 25.4008 33.2996 25.4008H26.2996ZM26.2996 33.1008C26.2996 32.9151 26.3734 32.7371 26.5046 32.6058C26.6359 32.4745 26.814 32.4008 26.9996 32.4008H32.5996C32.7853 32.4008 32.9633 32.4745 33.0946 32.6058C33.2259 32.7371 33.2996 32.9151 33.2996 33.1008C33.2996 33.2864 33.2259 33.4645 33.0946 33.5958C32.9633 33.727 32.7853 33.8008 32.5996 33.8008H26.9996C26.814 33.8008 26.6359 33.727 26.5046 33.5958C26.3734 33.4645 26.2996 33.2864 26.2996 33.1008ZM26.2996 28.9008C26.2996 28.7151 26.3734 28.5371 26.5046 28.4058C26.6359 28.2745 26.814 28.2008 26.9996 28.2008H32.5996C32.7853 28.2008 32.9633 28.2745 33.0946 28.4058C33.2259 28.5371 33.2996 28.7151 33.2996 28.9008C33.2996 29.0864 33.2259 29.2645 33.0946 29.3958C32.9633 29.527 32.7853 29.6008 32.5996 29.6008H26.9996C26.814 29.6008 26.6359 29.527 26.5046 29.3958C26.3734 29.2645 26.2996 29.0864 26.2996 28.9008Z" fill="#5D5FEF"/>
</svg>
