<svg xmlns="http://www.w3.org/2000/svg" xmlns:xlink="http://www.w3.org/1999/xlink" viewBox="0 0 500 500" xmlns:v="https://vecta.io/nano"><style><![CDATA[.B{fill:#fff}.C{fill:#407bff}.D{fill:#263238}.E{fill:#e6e6e6}.F{opacity:.2}.G{fill:#f0f0f0}.H{fill:#e0e0e0}.I{opacity:.3}.J{fill:#ffb573}.K{fill:#ebebeb}.L{fill:#f5f5f5}]]></style><path d="M0 382.4h500v.25H0zm416.78 16.09h33.12v.25h-33.12zm-94.25 2.72h8.69v.25h-8.69zm74.06-12h19.19v.25h-19.19zm-344.13 1.68h43.19v.25H52.46zm52.1 0h6.33v.25h-6.33zm26.91 4.22h93.68v.25h-93.68zM237 337.8H43.91a5.71 5.71 0 0 1-5.7-5.71V60.66a5.71 5.71 0 0 1 5.7-5.66H237a5.71 5.71 0 0 1 5.71 5.71v271.38a5.71 5.71 0 0 1-5.71 5.71zM43.91 55.2a5.46 5.46 0 0 0-5.45 5.46v271.43a5.46 5.46 0 0 0 5.45 5.46H237a5.47 5.47 0 0 0 5.46-5.46V60.66A5.47 5.47 0 0 0 237 55.2zm409.4 282.6h-193.1a5.72 5.72 0 0 1-5.71-5.71V60.66a5.72 5.72 0 0 1 5.71-5.66h193.1a5.71 5.71 0 0 1 5.69 5.66v271.43a5.71 5.71 0 0 1-5.69 5.71zM260.21 55.2a5.47 5.47 0 0 0-5.46 5.46v271.43a5.47 5.47 0 0 0 5.46 5.46h193.1a5.47 5.47 0 0 0 5.46-5.46V60.66a5.47 5.47 0 0 0-5.46-5.46z" class="K"/><path d="M228.15 79.78h194.79v171.1H228.15z" class="E"/><path d="M230.53 79.78h197.5v171.1h-197.5z" class="G"/><path d="M228.15 250.87h194.79v4.72H228.15z" class="E"/><path d="M238.99 250.87h197.5v4.72h-197.5z" class="G"/><path d="M420.91 86.89v156.88H237.64V86.89z" fill="#fafafa"/><path d="M262.17 243.76l20.21-156.87h34.99l-20.22 156.87h-34.98zm42.49 0l20.22-156.87h13.64L318.3 243.76h-13.64z" class="B"/><path d="M420.92 86.88v156.88h-.9V86.88z" class="E"/><g class="H"><path d="M429.7 101.84H234.91l-.65-12.19h194.79l.65 12.19zm0 20.03H234.91l-.65-12.18h194.79l.65 12.18zm0 20.03H234.91l-.65-12.18h194.79l.65 12.18zm0 20.04H234.91l-.65-12.19h194.79l.65 12.19zm0 20.03H234.91l-.65-12.19h194.79l.65 12.19zm0 20.03H234.91l-.65-12.19h194.79l.65 12.19z" opacity=".5"/><path d="M58.65 115.72h60.85v120.31H58.65z"/></g><path d="M61.06 115.72h62.05v120.31H61.06z" class="L"/><path d="M66.25 229.07V122.68h51.65v106.39z" class="B"/><path d="M139.89 97.36h60.85v120.31h-60.85z" class="H"/><path d="M142.3 97.36h62.05v120.31H142.3z" class="L"/><path d="M147.5 210.71V104.32h51.66v106.39z" class="B"/><path d="M164.32 271.52h25.61V382.4h-25.61z" class="E"/><path d="M185.07 382.4h4.86v-11.29h-9.96l5.1 11.29z" class="G"/><path d="M68.59 271.52H94.2V382.4H68.59z" class="E"/><path d="M89.95 271.52h99.98v103.95H89.95z" class="G"/><path d="M141.57 361.35v-82.92h44.58v82.92zm-47.85 0v-82.92h44.58v82.92z" class="E"/><path d="M120.43 281.6h-8.82a15.62 15.62 0 0 1-10.13-3.6h29.08a15.62 15.62 0 0 1-10.13 3.6zm48.3 0h-8.82a15.6 15.6 0 0 1-10.13-3.6h29.08a15.62 15.62 0 0 1-10.13 3.6zM94.82 382.4h-4.87v-11.29h9.97l-5.1 11.29z" class="G"/><path d="M113.42,260.94s.76,10.58,29.91,10.58,29.91-10.58,29.91-10.58Z" class="E"/><path d="M447.14 308.37H228.32v-18.32h218.82z" class="K"/><path d="M290.44 308.37h-62.11v-18.32h62.11z" class="H"/><path d="M447.15 382.4h-13.1v-74.03h13.1z" class="K"/><path d="M434.05 313.5l13.1-2.56v-2.57h-13.1v5.13zm-192.63 68.9h-13.1v-74.03h13.1z" class="H"/><path d="M290.44 382.4h-13.1v-74.03h13.1z" class="K"/><path d="M277.34 313.5l13.1-2.56v-2.57h-13.1v5.13zm128.8 68.9h-13.1v-74.03h13.1z" class="H"/><ellipse cx="250" cy="416.24" rx="193.89" ry="11.32" class="L"/><use xlink:href="#B" class="C"/><use xlink:href="#B" class="B I"/><path d="M98.649 183.906l.998-.067 1.611 23.996-.998.067zm2.496 36.612l.998-.067.724 10.756-.998.067zM125.26 401a4 4 0 0 1-7.76 1.66 15.27 15.27 0 0 1-.9-4.21L99.5 144a14.33 14.33 0 0 1 .34-4.27 4 4 0 0 1 7.91.65z" class="C"/><path d="M251.59,408.33H140.76a11.24,11.24,0,0,1-10.89-10.22l-17.1-254.39a8.79,8.79,0,0,1,8.91-9.57H232.51a11.24,11.24,0,0,1,10.89,10.21l17.1,254.4a8.81,8.81,0,0,1-8.91,9.57ZM121.68,135.22a7.73,7.73,0,0,0-7.84,8.43L130.94,398a10.13,10.13,0,0,0,9.82,9.22H251.59a7.73,7.73,0,0,0,7.84-8.43l-17.1-254.39a10.13,10.13,0,0,0-9.82-9.22Z" class="B"/><g opacity=".5"><ellipse cx="187.81" cy="215.42" rx="44.54" ry="49.79" transform="matrix(.687088 -.726575 .726575 .687088 -97.75 203.84)" class="C"/><ellipse cx="187.81" cy="215.42" rx="35.63" ry="39.83" transform="matrix(.687088 -.726575 .726575 .687088 -97.75 203.85)" class="B"/><ellipse cx="187.81" cy="215.42" rx="26.72" ry="29.87" transform="matrix(.687214 -.726455 .726455 .687214 -97.75 203.84)" class="C"/><ellipse cx="187.81" cy="215.42" rx="17.82" ry="19.92" transform="matrix(.687088 -.726575 .726575 .687088 -97.75 203.85)" class="B"/><ellipse cx="187.81" cy="215.42" rx="8.91" ry="9.96" transform="matrix(.687214 -.726455 .726455 .687214 -97.75 203.83)" class="C"/></g><g class="B"><path d="M196.89 279.51h-.53a16.48 16.48 0 0 0-14.42-8.9 14.79 14.79 0 0 0-4.51.7 16.91 16.91 0 0 0-14.64-8.81 14.34 14.34 0 0 0-14.55 14.18 11.2 11.2 0 0 0-10.5 12.13 13.21 13.21 0 0 0 13 12.17h47.62a9.92 9.92 0 0 0 10-10.75 11.67 11.67 0 0 0-11.47-10.72zm30.33-116.35h-.41a12.84 12.84 0 0 0-11.24-6.93 11.58 11.58 0 0 0-3.52.54 13.19 13.19 0 0 0-11.41-6.86 11.18 11.18 0 0 0-11.34 11 8.74 8.74 0 0 0-8.19 9.46 10.3 10.3 0 0 0 10.13 9.48h37.12a7.73 7.73 0 0 0 7.81-8.38 9.11 9.11 0 0 0-8.95-8.31z"/><path d="M242 318.86h-68.56a3.56 3.56 0 0 0-3.59 3.85l2.78 40.89a4.17 4.17 0 0 0 4.11 3.85h9.2l.77 11.31 10.53-11.31h48a3.55 3.55 0 0 0 3.59-3.85l-2.77-40.89a4.19 4.19 0 0 0-4.06-3.85z" class="I"/><path d="M241.47 345.74h-63.86l-.35-5.17h63.87l.34 5.17zM222 356.48h-43.66l-.35-5.17h43.66l.35 5.17zM240.75 335h-63.87l-.35-5.17h63.87l.35 5.17z"/></g><use xlink:href="#C" class="C"/><use xlink:href="#C" class="F"/><g class="J"><path d="M329.81 138.89l2.71-4.58 5.2 5.61a6.91 6.91 0 0 1-3.78 3.55 2.58 2.58 0 0 1-2.27-.3l-1-.64a2.71 2.71 0 0 1-.86-3.64z"/><path d="M339.89 131.58l1.15.71a2.72 2.72 0 0 1 .37 4.35l-3.69 3.28-5.2-5.61 4.53-2.74a2.71 2.71 0 0 1 2.84.01zM232.02 408.12l7.92.23 2.98-18.34-7.91-.23-2.99 18.34z"/></g><path d="M241.19 406.12l-8.85-1.12a.57.57 0 0 0-.65.47l-1.31 6.94a1.4 1.4 0 0 0 1.2 1.57l8.47.83c2.39.31 8.62 1.81 11.93 1.4s2.81-3.66 1.37-3.78c-6.45-.56-8.87-3.63-10.87-5.66a2.25 2.25 0 0 0-1.29-.65z" class="D"/><path d="M235 389.79l7.92.23-1.54 9.45-7.92-.23 1.54-9.45z" class="F"/><path d="M278.29,214s-6.91,65.59-11.51,87.87c-5,24.4-21.17,95.78-21.17,95.78l-14.49-1.07s7.94-73.84,14.44-97.74c0-24.82,6-94.38,6-94.38Z" class="D"/><path d="M255.2 236.17c-.13-5.13-2.91-6.78-5.65-6.72l-2.88 41.12c4.86-7.88 8.89-20.15 8.53-34.4z" class="I"/><path d="M230.69 396.68l15.52 1.15 1.78-5.85-17.87-.18.57 4.88z" class="B"/><path d="M151.71 346.65l4.99 6.17 14.93-10.77-5-6.16-14.92 10.76z" class="J"/><path d="M157.78 352.83l-4.44-7.73a.57.57 0 0 0-.76-.24l-6.33 3.14a1.4 1.4 0 0 0-.53 1.9l4.44 7.26c1.2 2.09 4.36 8.1 6 11s4.47 1.17 4-.2c-2-6.16-2.57-10.87-2.16-13.68a2.24 2.24 0 0 0-.22-1.45z" class="D"/><path d="M166.63 335.89l5 6.17-7.7 5.54-5-6.16 7.7-5.55z" class="F"/><path d="M263.84 208.36s-19.49 55.78-28.35 76.74c-9.69 22.95-67.64 63.71-67.64 63.71l-9.15-11.29s39.38-39.47 54-58.19l25.39-80.18z" class="D"/><path d="M158.33 337.06l9.89 12.2 4.83-2.79-11.58-12.92-3.14 3.51z" class="B"/><path d="M278.21 214.38l-40.16-15.23c1-3.67 6.25-14.45 10.92-29.46a202.64 202.64 0 0 0 7.68-34h0a2.49 2.49 0 0 1 2.91-2.15l2.62.49c2.53.51 5.69 1.23 8.7 2.15a157.65 157.65 0 0 1 17 6.06 51.8 51.8 0 0 1 5.41 2.83 14.81 14.81 0 0 1 2.87 2.13 3 3 0 0 1 1.11 2.06c0 5.74-5.75 27.98-19.06 65.12z" class="G"/><path d="M287.08 141.87c-4.52-2.94-4.3-6.3-2.77-9.54a22.74 22.74 0 0 1 1.29-2.33l-4.35-7.35-3.2-5.39c-.7 5.92-2.84 16.4-7.84 18.72a22 22 0 0 0 11.13 8.2c7.38 2.3 5.74-2.31 5.74-2.31z" class="J"/><g class="H"><path d="M281.06 144.06l-.07-1.88-5 .98 5.07.9z"/><path d="M281.06 144.06l.93-1.53 3.23 3.93-4.16-2.4z"/></g><path d="M270.89 135.08a47.22 47.22 0 0 0 10.1 7.1c-2 1.23-3.9 4.47-4.62 7.15-1.62-1.13-8.1-11.79-9-14.72zm15.25 5.65a8 8 0 0 1-4.16 1.8c1.07 1.57 2 5.64 2 8 1.87-1.22 4.76-5.48 5.22-7.41z" class="B"/><path d="M286.3 140.59l8.23 4.48a8.57 8.57 0 0 1 3.76 9.59c-4.77 16.86-11.21 33.23-13.88 42.34-2.83 9.71-6.77 21.89-6.77 21.89l-6.81 1.61s17.07-65.29 15.47-79.91zm-15.51-6.27s-5.87-.77-11-1a7.83 7.83 0 0 0-7.94 5.89c-2.6 10.28-4.52 29.94-7.15 37.59-3.27 9.56-7.7 28.2-7.7 28.2l23.26 13.44s23.5-72.19 10.53-84.12z" class="I"/><use xlink:href="#D" class="C"/><use xlink:href="#D" class="F"/><use xlink:href="#E" class="C"/><use xlink:href="#E" class="F"/><path d="M285.6,130a22.74,22.74,0,0,0-1.29,2.36c-2.14-1.29-4.34-4.85-3.82-7.32a11.24,11.24,0,0,1,.76-2.39Z" class="F"/><path d="M291.77 99.68c5.32.69 7.27 7.87 4.33 12.61-4.82-6.99-4.33-12.61-4.33-12.61z" class="D"/><path d="M275.21 112.92c1.8 7.69 2.45 12.27 7.06 15.72a10.26 10.26 0 0 0 16.49-7.64c.5-7.19-2.52-18.56-10.67-20.62a10.38 10.38 0 0 0-12.88 12.54z" class="J"/><g class="D"><path d="M277.58 119.77c4.63.13 3.91-7.54 1.89-10.44 6.42 1 17.06-4.67 18.13-10.61 1.55-8.61-11.58-8.61-15.83-5.87 1.83.13 2.76 1.68 2.32 2.48 0 0-6.34-1.92-10.44.31 1.79.66 3.69 3.24-3.12 4.06-6.48.78-4.52 7.3-1.25 7.18-1.74 2.67-3.83 8.74.09 11.32s6.6 5.94 5.75 7.32c1.37-.05 4.28-1.7 2.46-5.75z"/><path d="M270.21 106.28c-3.1.3-4.88 2.72-5 6a24 24 0 0 1 5-6z"/></g><path d="M273.36 119.87a7 7 0 0 0 3.8 3.42c2.17.79 3.31-1.13 2.75-3.27-.51-1.94-2.25-4.67-4.45-4.53s-3.06 2.42-2.1 4.38z" class="J"/><path d="M287.4 113.51c.1.63.53 1.09.94 1s.66-.61.56-1.24-.53-1.1-.95-1-.66.61-.55 1.24zm7.17-.96c.1.63.52 1.09.94 1s.66-.61.56-1.25-.53-1.09-.95-1-.66.61-.55 1.25z" class="D"/><path d="M292.34,113.17a24.21,24.21,0,0,0,3.94,5c-.94,1.19-2.93,1-2.93,1Z" fill="#ed893e"/><g class="D"><path d="M291.05 121.18a5.46 5.46 0 0 1-4-1.59.19.19 0 0 1 0-.26.19.19 0 0 1 .27 0 5.22 5.22 0 0 0 4.43 1.41.19.19 0 1 1 .05.37 4.81 4.81 0 0 1-.75.07z"/><path d="M289.05 123.26a5.46 5.46 0 0 1-2.18-3.73.19.19 0 0 1 .17-.2.18.18 0 0 1 .2.17 5.33 5.33 0 0 0 2.62 3.85.18.18 0 0 1 .07.25.19.19 0 0 1-.26.07 7.4 7.4 0 0 1-.62-.41zm-4.26-11.76a.37.37 0 0 1-.18 0 .37.37 0 0 1-.16-.51 3.64 3.64 0 0 1 2.78-2 .376.376 0 0 1 .05.75 2.9 2.9 0 0 0-2.17 1.55.35.35 0 0 1-.32.21zm12.44-1.82a.36.36 0 0 1-.31-.16 3.14 3.14 0 0 0-2.4-1.4.38.38 0 0 1 0-.75h0a3.86 3.86 0 0 1 3 1.72.37.37 0 0 1-.09.52.33.33 0 0 1-.2.07z"/></g><use xlink:href="#F" class="C"/><use xlink:href="#F" class="F"/><g class="J"><path d="M254.67 188.24l6.8 4.16-8.69 4.95s-5.78-4.32-3.31-7.11l2.9-2a2.11 2.11 0 0 1 2.3 0z"/><path d="M261.84 200l-3.74 2.2a2.25 2.25 0 0 1-3.12-.84l-2.2-4 8.69-4.95 1.4 5a2.28 2.28 0 0 1-1.03 2.59z"/></g><g class="C"><path d="M326.89 129.38l9.21-1.81c-2.53 4.46 1.19 8.73 4.53 11.41 1.59 1.28.47 3.57-2 4l-6 1.18c-7.24 1.46-5.74-14.78-5.74-14.78z"/><use xlink:href="#G"/></g><use xlink:href="#G" class="B I"/><g class="C"><path d="M380.71,134.4l-36-.48c-3.12.61-11-39.79-7.92-40.4l33.14-14Z"/><use xlink:href="#H"/></g><use xlink:href="#H" class="I"/><path d="M386 105.64c-.73-3.71-9-5.22-10.75-4.87s-2.6 3.63-1.88 7.34 2.75 6.43 4.51 6.09 8.82-4.86 8.12-8.56zm8.845-2.047l46.841-7.578.171 1.056-46.841 7.578zm-4.416-11.427l19.207-16.375.694.814-19.207 16.375zm28.36 35.275l.356-1.009 7.044 2.486-.356 1.009zm-25.507-8.689l.34-1.014 17.824 5.978-.34 1.014z" class="C"/><defs ><path id="B" d="M232.51 129.33H113.22A13.62 13.62 0 0 0 99.5 144l17.1 254.4a16 16 0 0 0 15.7 14.7h119.29a13.6 13.6 0 0 0 13.71-14.7L248.2 144a16 16 0 0 0-15.69-14.67z"/><path id="C" d="M295.64 146l2.63 1.89q1.37 1 2.76 1.89l5.59 3.58 5.66 3.12a40.57 40.57 0 0 0 5.46 2.27 3.27 3.27 0 0 0-1.27-.06 2.41 2.41 0 0 0-.73.21c-.29.15-.2.16-.05.07a7.77 7.77 0 0 0 1.55-1.42 39.05 39.05 0 0 0 3.56-5l3.36-5.79 3.13-6 .07-.13a4.5 4.5 0 0 1 8.34 3.27 97.21 97.21 0 0 1-5.15 13.92 48.06 48.06 0 0 1-3.95 6.95 20.53 20.53 0 0 1-3.29 3.71 11.32 11.32 0 0 1-3.05 1.9 9.83 9.83 0 0 1-2.44.65 8.89 8.89 0 0 1-3-.17 49.81 49.81 0 0 1-7.82-2.51 71.33 71.33 0 0 1-6.94-3.27q-3.33-1.77-6.49-3.73l-3.12-2-3.13-2.19a7 7 0 0 1 8.19-11.24z"/><path id="D" d="M270.79 134.32s-5.87-.77-11-1a7.83 7.83 0 0 0-7.94 5.89c-2.6 10.28-6.14 29.48-8.78 37.14-3.29 9.56-10.27 25.81-10.27 25.81l29.34 13.76s21.62-69.67 8.65-81.6z"/><path id="E" d="M286.3 140.59l8.23 4.48a8.57 8.57 0 0 1 3.76 9.59c-4.77 16.86-8.54 34.53-10.44 43.83l-4.09 18.91-11 1.49s15.14-63.68 13.54-78.3z"/><path id="F" d="M261.94 146.26l-6.12 5.21-6 5.45A117.1 117.1 0 0 0 239 168.38l-1.14 1.48-.14.19a1.09 1.09 0 0 0 .08-.14 2.17 2.17 0 0 0 .15-.35 1.86 1.86 0 0 0 .12-.63c0-.34-.06-.34 0-.18a3.25 3.25 0 0 0 .26.89 14.4 14.4 0 0 0 1.5 2.68 35.22 35.22 0 0 0 2.22 2.92c1.61 2 3.41 3.91 5.3 5.8l5.8 5.55.13.11a4.49 4.49 0 0 1-5.47 7.09 90.11 90.11 0 0 1-14-10.95l-3.21-3.49a28.27 28.27 0 0 1-3-4.39 16.53 16.53 0 0 1-1.27-3 11.21 11.21 0 0 1-.46-4.33 9.9 9.9 0 0 1 .62-2.67 10.13 10.13 0 0 1 .61-1.29l.36-.59.16-.24 1.3-1.93a108.8 108.8 0 0 1 11.53-13.59l6.23-6.07 6.59-5.77a7 7 0 0 1 8.73 10.75z"/><path id="G" d="M323.23 130.09l21.12-4.09a12.72 12.72 0 0 0 10-14.9h0a12.74 12.74 0 0 0-14.9-10l-21.11 4.14a12.75 12.75 0 0 0-10 14.91h0a12.73 12.73 0 0 0 14.89 9.94z"/><path id="H" d="M372.45 107.51c3 15.16 6.67 27.2 8.26 26.89s.47-12.86-2.51-28-6.67-27.2-8.26-26.89-.46 12.83 2.51 28z"/></defs></svg>