<svg xmlns="http://www.w3.org/2000/svg" xmlns:xlink="http://www.w3.org/1999/xlink" viewBox="0 0 500 500" xmlns:v="https://vecta.io/nano"><style><![CDATA[.B{stroke:#263238}.C{stroke-width:.75}.D{stroke-miterlimit:10}.E{fill:#fff}.F{fill:#263238}.G{fill:none}.H{fill:#407bff}.I{stroke-width:.5}]]></style><use xlink:href="#B" class="H"/><use xlink:href="#B" opacity=".7" class="E"/><ellipse cx="248.26" cy="459.1" rx="153.39" ry="18.71" opacity=".16"/><path d="M402.13 68.41a216.26 216.26 0 0 0-33.95-24.89l-99.82 150L404 70.13l-1.87-1.72zm-89.33-46.6A142.4 142.4 0 0 0 265.47 20l2.89 173.51zM208.18 42.46a150.64 150.64 0 0 0-26 23.18q-4.06 4.55-8.35 9.12l94.54 118.77zm-81.89 76.22a243.68 243.68 0 0 1-20.17 14.06C91.15 142 75 148.87 59.85 160.68l208.51 32.85zM11.89 256.81c-1.83 27.07 3.3 56.37 13.23 82.87l243.24-146.15zm256.47-63.28L94.71 423.36c25.26 11 55.63 13 87.1 10.58zm0 0l8.26 225.28c17.85-1.91 39.65-1.32 62.23-2.29zm194.94 156.1l-194.94-156.1 151.78 204.61c17.67-9.89 32.86-25.08 43.16-48.51zM471.55 215l-203.19-21.47 209.13 75.73a432 432 0 0 0-5.94-54.26zm-32.91-99.68l-170.28 78.21 188.15-37.68a263.68 263.68 0 0 0-17.87-40.53z" opacity=".07"/><g class="B C D E"><path d="M444.6,335.28s-10.79-3.65-14-5.88-11.42-10.47-13.33-16.82A97.43,97.43,0,0,1,414,294.65c-.48-4.92-2.54-6.19-5.56-2.38s-4,10-3.17,14,3.33,8.57,3,9.37-.8,2.38-.8,2.38-9.68-1.11-15.07-2.38-9.68-1.75-10,.79.79,6.51,1.11,9.21,4.44,14.6,6.51,17.29a33.59,33.59,0,0,0,5.07,5.72c1.27.95,1.27,1.74,4.29,2.06a69.8,69.8,0,0,1,7.62,1.11c1.11.32,2.22,1.43,7.46,1.27a79.77,79.77,0,0,0,9.83-.95L440,358Z"/><path d="M439.52 332.26l-6.51 28.25 10.64 4.28 5.39-29.35-9.52-3.18z"/></g><path d="M466.32 337.66l-20.77-5.08-7.62 33.64 28.27 13.19.12-2.55v-39.2z" class="B C D F"/><path d="M406.83,319.41S405.4,328,405.4,330s4.44,7.62,6,7.93" class="B C D G"/><g class="E B C D"><path d="M403.65,341s2.23.79,1.59,2.7-5.4,4.6-7.62,5.87-3,1.11-5.55-.32a6.86,6.86,0,0,1-3.18-3.81,32.77,32.77,0,0,0,4.77-.47Z"/><path d="M385.4 336.86s0 7.3 1.75 7.94a14.18 14.18 0 0 0 5.24.95c1.11-.16 8.57-2.7 10-3.65s2.86-3 2.07-4.92l-.8-1.9a43.92 43.92 0 0 1-7.3.63c-4 0-10.63-1.27-11.11-.79s.15 1.74.15 1.74z"/><path d="M383 327a2.07 2.07 0 0 0-.95 1.91c0 1.43-1.9 5.71.32 7.14s9.2 2.54 10.63 2.54 9.84-3 10.63-3.33.8-3.18.48-4.29-3.17-1.43-3.17-1.43-12.2-.29-17.94-2.54z"/><path d="M387.15 317.34l6 4.13 7.78 2.7s1 .47 1 2.38a3.43 3.43 0 0 1-3 3.33c-1.58.32-7.3 1.27-9.36.48a64.7 64.7 0 0 1-8.09-4.76c-1.43-1-1.59-2.23-.8-4a46.45 46.45 0 0 0 1.75-5.24M413 89.88s-10.91 3.31-14.78 3.35-15.39-1.87-20.63-5.93a96.81 96.81 0 0 1-13.14-12.64c-3.25-3.73-5.67-3.56-5.91 1.29s2.59 10.44 5.55 13.21 7.69 5 7.9 5.86.74 2.4.74 2.4-8.52 4.73-13.65 6.83-8.89 4.22-7.67 6.47 4.43 4.83 6.26 6.84 12.11 9.28 15.36 10.28a33.9 33.9 0 0 0 7.45 1.69c1.59 0 2 .68 4.69-.81a66.09 66.09 0 0 1 6.84-3.53c1.09-.39 2.64-.13 6.8-3.31a79.58 79.58 0 0 0 7.45-6.5l16.2-4.37z"/><path d="M407.1 90.38l11.15 26.76 11.14-2.7-12.7-27.02-9.59 2.96z"/></g><path d="M432.04 79.18l-19.85 7.95 13.38 31.79 30.66-5.72-1.38-2.14-22.81-31.88z" class="B C D F"/><path d="M373,99s3.83,7.8,5,9.48,8,3.61,9.52,2.94" class="B C D G"/><g class="E B C D"><path d="M383,118.35s2.27-.65,2.86,1.27-1.71,6.88-2.78,9.21-1.8,2.66-4.7,3a6.81,6.81,0,0,1-4.8-1.25,31.7,31.7,0,0,0,3.6-3.16Z"/><path d="M365.77 125.61s4.24 5.94 6 5.44a14.35 14.35 0 0 0 4.82-2.27c.81-.78 5.4-7.18 6-8.79s.57-4.11-1.18-5.2l-1.75-1.09a44.23 44.23 0 0 1-5.57 4.77c-3.23 2.3-9.39 5.15-9.5 5.81s1.18 1.33 1.18 1.33z"/><path d="M358.1,119a2.09,2.09,0,0,0,.34,2.11c.83,1.16,1.77,5.75,4.41,5.62s9-3.29,10.13-4.12,6.24-8.18,6.71-8.9-1.21-3-2.11-3.76-3.41.69-3.41.69S364,117.48,358.1,119Z"/><path d="M355.83 108.72l7.3-.15 7.9-2.33s1.05-.17 2.16 1.38a3.41 3.41 0 0 1-.52 4.46c-1.1 1.19-5.19 5.28-7.33 5.84a65.34 65.34 0 0 1-9.36.84c-1.71 0-2.58-.89-3-2.77a46.88 46.88 0 0 0-1.63-5.27M63.84 331.69s10.79-3.65 14-5.87S89.23 315.34 91.13 309a96.54 96.54 0 0 0 3.34-17.93c.47-4.92 2.54-6.19 5.55-2.38s4 10 3.17 14-3.33 8.57-3 9.36.79 2.38.79 2.38 9.68-1.11 15.08-2.38 9.68-1.75 10 .79-.8 6.51-1.11 9.21-4.45 14.6-6.51 17.3a33.39 33.39 0 0 1-5.08 5.71c-1.27 1-1.27 1.75-4.28 2.06a72 72 0 0 0-7.62 1.11c-1.11.32-2.22 1.43-7.46 1.27a79.8 79.8 0 0 1-9.84-.95l-15.71 5.87z"/><path d="M68.92 328.67l6.5 28.25-10.63 4.29-5.4-29.36 9.53-3.18z"/></g><path d="M42.11 334.07l20.77-5.08 7.62 33.64-28.26 13.19-.13-2.55v-39.2z" class="B C D F"/><path d="M101.61,315.82s1.43,8.57,1.43,10.63-4.45,7.62-6,7.94" class="B C D G"/><g class="E B C D"><path d="M104.78,337.4s-2.22.8-1.59,2.7,5.4,4.6,7.62,5.87,3,1.11,5.56-.32a6.78,6.78,0,0,0,3.17-3.8,31.43,31.43,0,0,1-4.76-.48Z"/><path d="M123 333.28s0 7.3-1.74 7.93a14 14 0 0 1-5.24 1c-1.11-.16-8.57-2.69-10-3.65s-2.86-3-2.06-4.92l.79-1.9a43.92 43.92 0 0 0 7.3.63c4 0 10.63-1.27 11.11-.79s-.16 1.7-.16 1.7z"/><path d="M125.41 323.44a2 2 0 0 1 1 1.9c0 1.43 1.91 5.71-.31 7.14s-9.26 2.52-10.69 2.52-9.84-3-10.63-3.33-.79-3.18-.47-4.29 3.17-1.42 3.17-1.42 12.22-.3 17.93-2.52z"/><path d="M121.29 313.76l-6 4.12-7.78 2.7s-1 .48-1 2.38a3.42 3.42 0 0 0 3 3.33c1.59.32 7.3 1.27 9.37.48A64.21 64.21 0 0 0 127 322c1.43-.95 1.59-2.22.79-4a47.14 47.14 0 0 1-1.74-5.24M75.57 99.38s10.9 3.31 14.78 3.35 15.38-1.87 20.63-5.93a96.81 96.81 0 0 0 13.14-12.64c3.25-3.73 5.67-3.56 5.9 1.29s-2.59 10.44-5.54 13.21-7.7 5-7.9 5.86-.74 2.4-.74 2.4 8.52 4.72 13.65 6.83 8.89 4.21 7.67 6.46-4.43 4.83-6.26 6.84-12.11 9.29-15.36 10.29a33.9 33.9 0 0 1-7.45 1.69c-1.59 0-2 .68-4.69-.82a71.62 71.62 0 0 0-6.84-3.53c-1.09-.38-2.64-.13-6.81-3.3a80.2 80.2 0 0 1-7.44-6.5l-16.2-4.37z"/><path d="M81.46 99.88l-11.15 26.76-11.14-2.7 12.7-27.02 9.59 2.96z"/></g><path d="M56.52 88.68l19.85 7.95-13.38 31.79-30.66-5.72 1.38-2.15 22.81-31.87z" class="B C D F"/><path d="M115.53,108.45s-3.83,7.8-5,9.47-8,3.61-9.52,3" class="B C D G"/><g class="E B C D"><path d="M105.55,127.85s-2.27-.65-2.86,1.27,1.71,6.88,2.78,9.2,1.8,2.66,4.7,3a6.87,6.87,0,0,0,4.8-1.25,31.7,31.7,0,0,1-3.6-3.16Z"/><path d="M122.79 135.11s-4.25 5.94-6 5.44a14.06 14.06 0 0 1-4.82-2.28c-.81-.77-5.4-7.18-6-8.78s-.56-4.12 1.19-5.2l1.75-1.09a42.87 42.87 0 0 0 5.57 4.76c3.23 2.31 9.39 5.16 9.5 5.82s-1.19 1.33-1.19 1.33z"/><path d="M130.45 128.49a2.07 2.07 0 0 1-.33 2.11c-.83 1.16-1.78 5.75-4.41 5.62s-9-3.29-10.13-4.12-6.25-8.18-6.71-8.9 1.2-3 2.11-3.76 3.41.68 3.41.68 10.12 6.88 16.06 8.37z"/><path d="M132.73 118.22s-6.35.14-7.31-.15l-7.89-2.34s-1-.16-2.16 1.39a3.42 3.42 0 0 0 .51 4.46c1.11 1.18 5.2 5.28 7.34 5.84a63.85 63.85 0 0 0 9.36.83c1.71.06 2.58-.88 2.95-2.76a47.29 47.29 0 0 1 1.63-5.28"/></g><path d="M222,244.35s-7,30.66-7.28,45.08.52,66.39.79,77.54,5.17,47.34,5.17,50.6.82,9.52.82,9.52l-2.18,11.7a45.51,45.51,0,0,1-6.8,4.35c-4.9,2.72-10.61,6.26-12.24,8.16h0a1.89,1.89,0,0,0,.74,3,20.65,20.65,0,0,0,6.06,1.37c4.62.27,12.24.27,16.32-.82s7.35-4.62,9.25-6l1.91-1.36.27,3a25.91,25.91,0,0,0,2.72-.55,25.23,25.23,0,0,0,5.71-2.44s.27-4.63.27-7.35-1.36-7.62-1.63-8.7,0-10.89-.81-14.15-1.36-2.45-1.91-8.43,4.35-62.58,4.08-64.21S250.18,294,250.18,294s13.75,64,18.1,76.25,6.53,35.91,6.53,37.55,2.45,20.94,3.54,23.67,4.08,11.15,4.08,11.15,4.35,6.53,6.25,9.79,8.44,6,13.33,6.8,8.71,1.09,9-5.44-2.17-10.88-6.26-13.87-4.89-5.71-4.89-5.71a81.15,81.15,0,0,0,0-12c-.55-4.63-3.54-8.17-3.81-17.69s-2.18-59.58-3.81-67.47-3.78-60.67-3.51-68-.69-27.81-.69-27.81l-66.24-.75Z" class="B C D F"/><path d="M248,134.74s-10.11,6-17.27,9.54-15.9,5.6-16.79,7.61-16.34,34.93-19.25,39.4-9.85,13.21-8.51,18.13,6.94,11.64,10.52,11.2,10.75-2.47,13.66-7.61,9.85-21.72,9.85-21.72,1.12,15.45.89,23.06-.22,13.88-.67,17.68-2.46,8.51-1.57,9.85,2,2.69,3.14,2.47,17.91-.45,23-.23,28.43,0,33.36.23,9.18-2.24,9.62-3.14,1.35-2.24.9-7.16.45-19.92,1.79-25.74,9.4-28.21,9.4-28.21,21.27,16.79,25.75,18.13,16.56-.67,20.59-5.59,5.37-8.74,2.91-12.09-11.42-6.49-20.82-16.57-13-14.77-19.47-17.91-19.7-7.38-22.84-8.73-4-2-6-2.91-6.72-2.68-15.45-2.91A45.16,45.16,0,0,0,248,134.74Z" class="B C D H"/><path d="M215.69 175.43l4.51 15.86L214 179m86.11 1.1c-.93 0-9.73-5-9.73-5m-4.48-.59s3.55 4.63 6.64 5.55" class="G B C D"/><path d="M246.74 148.47l2.81 10.61-10.3 52a113.3 113.3 0 0 0-1.72 13.73l7.8 15.45 9.84-16.7-1.25-37.92c-.31-16.85.31-25 .15-25.44s9.84-7.81 9.84-7.81 5.77-6.4 6.08-7.49-4.05.31-5 1.25a8.91 8.91 0 0 1-7.8 1.87c-4.06-.78-9.37-5.3-10.15-3.12a5.91 5.91 0 0 0-.3 3.57z" class="B C D F"/><path d="M253.45 130.37c-.47.31-4.21 1.25-5.46 4.37s-7.65 17.48-9.52 19.82 1.09 1.4 3.59-.16 4.68-7.64 6.08-5 5.47 3.74 5.47 3.74 8.42-1.56 10.3-2.81a27 27 0 0 0 3.59-3s7.18 10.77 9.2 11.7 2.35-.62 2.5-2.34a128.76 128.76 0 0 1 3.59-18.57c2-6.71-1.87-8.9-4.37-11.7s-5.31-.94-8.11-.63-16.86 4.58-16.86 4.58z" class="B C D H"/><path d="M249.17 82.31s-4.88 7.41-4 9.21.9 4.16 0 5.42a7.59 7.59 0 0 0-1.63 6c.36 3.07-1.44 18.6 1.27 20.41a24.84 24.84 0 0 0 5.59 2.71s3.07 26 4.16 25.28 16.64-16.65 18.44-20.09 4-8.3 4-8.3 6.14-11.74 9.75-16.62 7.77-13.9 6.51-18.6-7.77-8.13-10.84-10.66-1.08-8.3-5.42-11.19-9.57-3.61-13-2.35-3.61 4-7.77 1.26-8.12-5.41-14.44-2.34-7.59 13.9-3.8 16.79 11.18 3.07 11.18 3.07z" class="B C D E"/><path d="M282.4 77.07c-3.07-2.52-1.08-8.3-5.42-11.19s-9.57-3.61-13-2.35-3.61 4-7.77 1.26-8.12-5.41-14.44-2.34-7.59 13.9-3.8 16.79 11.2 3.07 11.2 3.07 5.42-2.53 9-4.51 11.74 1.26 13.18 2.53-.72.36-1.08 2.7 4.15 6.15 6.14 8-.36 3.07-.9 5.42 1.62 3.25 2.89 2.35 5.23-6 6.68-3.07 3.61 7.22-.36 10.29-6.87 2.35-6.87 2.35-1.29 7.82 2.46 8.43a116.83 116.83 0 0 1 6.39-10.42c3.62-4.87 7.77-13.9 6.51-18.6s-7.74-8.18-10.81-10.71z" class="B C D F"/><g class="G B D"><path d="M258.92 91.88a8.81 8.81 0 0 1 3.61-.54m-12.85 2.32a10 10 0 0 0-2.56.92" class="I"/><path d="M249.74,88.73a5.89,5.89,0,0,1,.53,4c-.59,2-6.18,6.37-6.11,7.22s3.28,2.63,3.22,3.35-.26,1.91-.26,1.91" class="C"/></g><ellipse cx="261.96" cy="92.93" rx="1.18" ry="1.45" class="B F I"/><g class="D B"><path d="M259.66,95.3a14.62,14.62,0,0,1,5-1.12" class="C G"/><path d="M255.49 86.6s3.87-3.59 6.87-2.87 4.14 3.61 3.66 3.62-2-2.22-3.64-2.39-2.81.61-4.23 1.33-2.29 1.22-2.66.31zM250 89.45a1.77 1.77 0 0 0-2.24-1.38c-1.77.27-3.11 3.49-2.57 3.45s1.13-2.07 2.51-2.26 2.3 1.97 2.3.19z" class="F I"/><path d="M247 109.29l6.51-.79c3.68-.46 8.86-1.18 9.72-3.81a9.9 9.9 0 0 0 .65-4m-1.99-.2a11.27 11.27 0 0 1 3.22.2" class="C G"/><path d="M277.05 113.47a9.75 9.75 0 0 1-4 6c-3.28 2.09-27.37 4.48-26.57 4.78s3.93 1.8 3.93 1.8l.94 8.55a57.72 57.72 0 0 1 12.55-8.46c7.98-4.14 12.96-5.51 13.15-12.67z" class="F I"/><g class="C"><path d="M290.49 230.24l-5.6-.44c-1.12-.22-4.7-3.59-6.27-3.36s-4.47 3.36-5.59 6l-1.57 4s-4 3.58-2 6 4.26 1.57 4.26 1.57 1.34 2.24 3.13 2.46a37.82 37.82 0 0 0 4 .23 10.52 10.52 0 0 0 3.58.45 8.21 8.21 0 0 0 2.69-1.12 3.9 3.9 0 0 0 2.69-.68c.82-.65 4.79-4.71 6.84-6.8l1.21-1.25z" class="E"/><path d="M327.87,184.13s-8.28,9.18-11,13.65a220,220,0,0,1-14.1,19.7c-3.13,3.58-14.1,12.32-14.1,12.32s3.35,7.16,5.82,8.28a24.83,24.83,0,0,0,4.47,1.56l9-6.71s17-13,26-20.37,21.49-17.24,22.39-21.49.22-6.49-4.25-9.85a31.58,31.58,0,0,0-9.18-4.7" class="H"/><path d="M295.64,224.2s2,9.85,8.95,9.85" class="G"/><g class="E"><path d="M198.1 151.67l1.39 11.42a12.24 12.24 0 0 0 1.54 5.09l-7.56 16.67c-.31.47-7.87 14.66-9.11 16.35s-4.16 7.1-2.31 10.5 4.78 10.34 8.64 10.49 9.26-2.16 13-4.32 4.94-3.55 5.25-9.72.15-17.28 1.24-23.15 1.85-12 2.62-14.35 5.25-1.54 6.79-2.47 2.93-2.93 5.71-4.17a13.59 13.59 0 0 1 7.56-.61c.93.31 2.62-1.08 2.16-2.78s-3.55-2.62-6.64-2.32-5.86 1.24-6.63.78-1.54-8.65-1.54-8.65l-14.82 1.08c-3.82.15-7.29.16-7.29.16z"/><path d="M215.07 145.65l.16 11.11a1.56 1.56 0 0 0 1.69 1.54c.78-.15 2.78.62 3.25-1.69s1.38-8.8.92-10.34-4.63-2.16-6.02-.62z"/><path d="M215.07 145.65s-4.93-1.23-6.32-.46.77 11.73.92 12.65 2.32 1.39 3.24 1.08 2.32-.92 2.32-2.16l-.16-11.11z"/><path d="M207.67 145.5s-3.24-.62-4.17.46-1.23 2.62-.93 5.4a26.53 26.53 0 0 0 2.47 7.87c.62.93 2.63 1.08 3.86.62s.77-2 .77-2-.62-.62-.77-5.4l-.15-7.25z"/><path d="M202.27 147.35c-.62.15-4.48.31-4.63 1.85s1.23 8.8 1.85 9.57 2.31.46 2.93.15 1.7-.77 1.54-1.7l-1.69-9.87z"/></g><path d="M203.5 177.9a6.48 6.48 0 0 1-5-4l-5 11c-.31.46-7.87 14.66-9.11 16.35s-4.16 7.1-2.31 10.5 4.78 10.34 8.64 10.49 9.26-2.16 13-4.32 4.94-3.55 5.25-9.72.15-17.28 1.24-23.15l1.4-8.36a22.07 22.07 0 0 1-8.11 1.21z" class="H"/><path d="M210.6,160.93s-2.63,2.31-2.93,4.32a5.9,5.9,0,0,0,.77,3.7" class="E"/></g></g><defs ><path id="B" d="M477.68 276.66s-.07-140.93-75.55-208.24C335.5 9 243.77-3.07 182.17 65.64c-21.95 24.48-48.49 50-76.06 67.1-30.9 19.18-67 27.94-88.07 91.44s11.54 156.63 59.32 189.6 122.65 20.72 187 6.93 207.71 30.83 213.32-144.05z"/></defs></svg>