<svg xmlns="http://www.w3.org/2000/svg" width="16.569" height="16.431" viewBox="0 0 16.569 16.431"><g transform="translate(-734 -1300)"><g transform="translate(551 1235)"><path d="M14.648,17.637h1.273a.647.647,0,0,1,0,1.294H14.648a.647.647,0,0,1,0-1.294Zm-14,1.294H1.92a.647.647,0,0,0,0-1.294H.647a.647.647,0,0,0,0,1.294Zm7.637-6.364a.647.647,0,0,0,.647-.647V10.647a.647.647,0,0,0-1.294,0V11.92A.647.647,0,0,0,8.284,12.567ZM3.326,14.242a.647.647,0,1,0,.915-.915l-.9-.9a.647.647,0,1,0-.915.915Zm9.916,0,.9-.9a.647.647,0,0,0-.915-.915l-.9.9a.647.647,0,0,0,.915.915Z" transform="translate(183 55)"/><path d="M14.648,17.637h1.273a.647.647,0,0,1,0,1.294H14.648a.647.647,0,0,1,0-1.294Zm-14,1.294H1.92a.647.647,0,0,0,0-1.294H.647a.647.647,0,0,0,0,1.294Zm7.637-6.364a.647.647,0,0,0,.647-.647V10.647a.647.647,0,0,0-1.294,0V11.92A.647.647,0,0,0,8.284,12.567ZM3.326,14.242a.647.647,0,1,0,.915-.915l-.9-.9a.647.647,0,1,0-.915.915Zm9.916,0,.9-.9a.647.647,0,0,0-.915-.915l-.9.9a.647.647,0,0,0,.915.915Z" transform="translate(183 55)"/><path d="M8.284,11.864a.647.647,0,0,1,.647.647v1.273a.647.647,0,0,1-1.294,0V12.511A.647.647,0,0,1,8.284,11.864ZM3.326,10.19a.647.647,0,1,1,.915.915l-.9.9a.647.647,0,0,1-.915-.915Zm9.916,0,.9.9a.647.647,0,1,1-.915.915l-.9-.9a.647.647,0,1,1,.915-.915Z" transform="translate(183 67)"/></g><path d="M100.477,104.953A4.477,4.477,0,1,0,96,100.477,4.481,4.481,0,0,0,100.477,104.953Zm0-7.461a2.984,2.984,0,1,1-2.984,2.984A2.988,2.988,0,0,1,100.477,97.492Zm0,0" transform="translate(641.844 1207.828)"/></g></svg>