<svg xmlns="http://www.w3.org/2000/svg" width="132.803" height="42.395" viewBox="0 0 132.803 42.395">
  <path id="Shape_10" data-name="Shape 10" d="M312.017,274.055a5.152,5.152,0,0,1-4.256-2.656,6.077,6.077,0,0,1-.714-2.314l-3.776-24.65a3.977,3.977,0,0,0,2.43,1.031,1.407,1.407,0,0,0,.353-.037l37.174-5.964a8.38,8.38,0,0,1,1.581-.161,4.712,4.712,0,0,1,4.129,2.069,5.607,5.607,0,0,1,.85,2.068l3.578,23.656c.358,2.255.043,4.028-.936,5.27a4.715,4.715,0,0,1-3.04,1.688Zm24.076-6.255a10.553,10.553,0,0,0,1.654.15,4.077,4.077,0,0,0,2.273-.545,3.573,3.573,0,0,0,1.25-1.454,22.987,22.987,0,0,0,1.048-2.939l3.662-12.143h-2.5l-2.163,7.532-2.249-7.532h-3.642l4.253,12.656a2.774,2.774,0,0,1-.521,1.167,1.759,1.759,0,0,1-1.368.414,9.11,9.11,0,0,1-1.693-.176Zm-24.478,0h3.342v-5.677a2.93,2.93,0,0,0,2.822,1.667,3.757,3.757,0,0,0,3.173-1.7,8.662,8.662,0,0,0,1.22-5.045,8.074,8.074,0,0,0-1.209-4.793,3.709,3.709,0,0,0-3.1-1.648,3.122,3.122,0,0,0-3.076,2.118v-1.855h-3.168Zm12.33-9.052a4.329,4.329,0,0,0,.7,3.479,4.473,4.473,0,0,0,2.877,1.49,2.044,2.044,0,0,0,.487.057c1.547,0,3.076-1.631,3.091-1.647-.126.86.194.994.2.995l2.187.2c.35-.038.791-.788.8-.8,0-.078.222-7.906,0-8.945a4.723,4.723,0,0,0-1.193-1.988c-.423-.831-1.532-1.253-3.3-1.253a17.594,17.594,0,0,0-3.66.457,2.411,2.411,0,0,0-1.393,1.4,2.483,2.483,0,0,0,.2,1.778.66.66,0,0,0,.376.125.906.906,0,0,0,.618-.324,9.422,9.422,0,0,1,2.756-.5c1.787,0,2.21.886,2.214.895.259,1.078.146,1.577.005,1.805a.38.38,0,0,1-.2.183,7.2,7.2,0,0,0-2.122-.346A5.2,5.2,0,0,0,323.945,258.747Zm-78.07,12.638a28.074,28.074,0,0,1-8.688-5.5.426.426,0,0,1-.148-.465.321.321,0,0,1,.308-.2.533.533,0,0,1,.275.086,37.917,37.917,0,0,0,19.16,5.2,37.5,37.5,0,0,0,14.62-3.061.8.8,0,0,1,.319-.068.6.6,0,0,1,.581.388.633.633,0,0,1-.286.7,27.217,27.217,0,0,1-15.678,4.906A28.122,28.122,0,0,1,245.875,271.385Zm26.782.291a.349.349,0,0,1,0-.325c.5-1.266,1.662-4.232,1.117-4.948-.211-.276-.831-.417-1.845-.417a27.366,27.366,0,0,0-3.069.243l-.032,0a.684.684,0,0,1-.073,0,.255.255,0,0,1-.269-.152c-.043-.133.049-.306.235-.44a7.61,7.61,0,0,1,4.3-1.2,4.307,4.307,0,0,1,2.564.548c.468.595-.106,4.663-2.4,6.619a.565.565,0,0,1-.346.154A.21.21,0,0,1,272.657,271.676Zm83.492-4.778h0l-4.174-27.83a4.688,4.688,0,0,0-4.854-3.588c-.193,0-.31.011-.315.011l-37.372,6.758c-.733-.019-1.176-.2-1.319-.53-.253-.586.516-1.448.524-1.457l40.752-8.548a8.02,8.02,0,0,1,.9-.052,5.126,5.126,0,0,1,4.29,2.014,5.645,5.645,0,0,1,.97,2.014l3.975,25.644a5.267,5.267,0,0,1-3.379,5.566Zm-76.342-4.673a8.1,8.1,0,0,1-1.306-4.686,7.869,7.869,0,0,1,1.314-4.668,4.742,4.742,0,0,1,7.092-.564,7.472,7.472,0,0,1,1.837,5.358,7.593,7.593,0,0,1-1.4,4.6,4.606,4.606,0,0,1-3.767,1.888A4.476,4.476,0,0,1,279.807,262.225Zm2.021-5.062v.046a12.988,12.988,0,0,0,.219,2.8c.262,1.129.778,1.7,1.533,1.7a1.389,1.389,0,0,0,1.023-.409c.725-.728.815-2.233.809-3.609a11.259,11.259,0,0,0-.338-3.148,1.426,1.426,0,0,0-1.477-1.148C282.029,253.394,281.829,255.408,281.829,257.163Zm-55.085,3.307a3.952,3.952,0,0,1,2.408-3.776,12.3,12.3,0,0,1,3.565-.73c.239-.026.464-.049.681-.076v-.3c0-.059,0-.118,0-.178a2.663,2.663,0,0,0-.273-1.5,1.473,1.473,0,0,0-1.265-.6,1.724,1.724,0,0,0-1.817,1.388c-.039.2-.185.415-.391.423l-2.2-.24a.408.408,0,0,1-.336-.485c.595-3.194,3.73-3.539,5.05-3.539a5.172,5.172,0,0,1,3.4,1.15c1.009.967,1,2.251.994,3.61v.005c0,.121,0,.241,0,.363v3.605a2.946,2.946,0,0,0,.716,1.957c.046.063.09.124.134.187a.442.442,0,0,1-.005.614c-.419.356-1.169,1.027-1.731,1.535l-.006,0a.452.452,0,0,1-.3.113.487.487,0,0,1-.234-.06,4.889,4.889,0,0,1-1.12-1.28c-.053-.082-.111-.169-.175-.264a4.415,4.415,0,0,1-3.723,1.681C228.039,264.074,226.744,262.693,226.744,260.47Zm4.366-2.3a1.987,1.987,0,0,0-1.066,1.9c0,1.033.525,1.675,1.37,1.675a1.814,1.814,0,0,0,1.562-1.05,4.373,4.373,0,0,0,.422-2.319v-.634A4.938,4.938,0,0,0,231.11,258.165Zm25.241,2.3a3.91,3.91,0,0,1,2.407-3.78,12.275,12.275,0,0,1,3.568-.729h.009c.234-.025.455-.049.67-.074l0-.293c0-.058,0-.116,0-.175a2.63,2.63,0,0,0-.278-1.5,1.5,1.5,0,0,0-1.264-.6,1.723,1.723,0,0,0-1.815,1.388.48.48,0,0,1-.394.423l-2.188-.24a.4.4,0,0,1-.336-.485c.589-3.194,3.728-3.539,5.05-3.539a5.163,5.163,0,0,1,3.4,1.15c1.012.969,1,2.257,1,3.621v.023c0,.111,0,.221,0,.334v3.605a2.95,2.95,0,0,0,.714,1.957c.044.062.089.124.133.187a.438.438,0,0,1-.011.612c-.455.389-1.279,1.129-1.729,1.535a.473.473,0,0,1-.3.11.5.5,0,0,1-.237-.06,4.858,4.858,0,0,1-1.126-1.288l-.169-.256a4.415,4.415,0,0,1-3.723,1.681C257.646,264.073,256.352,262.691,256.352,260.468Zm4.361-2.3a1.988,1.988,0,0,0-1.066,1.9c0,1.033.527,1.675,1.377,1.675a1.833,1.833,0,0,0,1.558-1.05,4.358,4.358,0,0,0,.424-2.319v-.634A4.952,4.952,0,0,0,260.712,258.165Zm36.3,5.746a.433.433,0,0,1-.4-.375V257.09c0-.1,0-.208,0-.316a3.835,3.835,0,0,0-.517-2.549,1.2,1.2,0,0,0-.892-.333,1.482,1.482,0,0,0-1.307.95,5.3,5.3,0,0,0-.362,2.248v6.387a.437.437,0,0,1-.443.432h-2.246a.433.433,0,0,1-.408-.432l0-11.872a.431.431,0,0,1,.436-.388h2.093a.435.435,0,0,1,.4.333v1.814h.036c.651-1.679,1.571-2.4,3.077-2.4a2.971,2.971,0,0,1,2.641,1.4,7.7,7.7,0,0,1,.59,3.7v7.471a.444.444,0,0,1-.438.375Zm-57.421,0a.425.425,0,0,1-.4-.392V251.648a.432.432,0,0,1,.436-.427h2.106a.425.425,0,0,1,.41.4v1.551h.038a3.082,3.082,0,0,1,5.906,0,3.221,3.221,0,0,1,3.122-2.2,3.175,3.175,0,0,1,2.612,1.3,5.267,5.267,0,0,1,.575,3.164c0,.185-.006.374-.006.557l0,7.489a.433.433,0,0,1-.435.429h-2.255a.439.439,0,0,1-.407-.429v-6.292c0-.1,0-.221,0-.362a11.422,11.422,0,0,0-.067-1.863,1.172,1.172,0,0,0-1.327-1.022,1.5,1.5,0,0,0-1.35.972,6.777,6.777,0,0,0-.21,2.12v6.447a.433.433,0,0,1-.436.429h-2.255a.433.433,0,0,1-.408-.429v-6.292c0-.133,0-.273,0-.416a3.726,3.726,0,0,0-.493-2.52,1.222,1.222,0,0,0-.906-.336,1.324,1.324,0,0,0-.975.363c-.585.587-.583,1.788-.581,2.754v6.448a.432.432,0,0,1-.434.429Zm28.913-.73v-1.723a2.1,2.1,0,0,1,.274-1.166l4.457-6.544h-3.88a.413.413,0,0,1-.428-.427v-1.7a.411.411,0,0,1,.418-.43h7.421a.415.415,0,0,1,.428.43v1.453a2.413,2.413,0,0,1-.556,1.068l-3.852,5.622.055,0,.244,0a7.8,7.8,0,0,1,3.935.933.786.786,0,0,1,.4.659v1.813a.435.435,0,0,1-.39.43.335.335,0,0,1-.157-.04,8.323,8.323,0,0,0-3.926-.969,8.212,8.212,0,0,0-3.91.98.292.292,0,0,1-.144.04A.438.438,0,0,1,268.5,263.179Zm58.424-3.437s-.048-1.416.994-1.59a6.785,6.785,0,0,1,2.983.2,2.362,2.362,0,0,1-2.187,3.181S326.851,261.45,326.927,259.742Zm-11.184,1.021a1.906,1.906,0,0,1-.635-.921,7.651,7.651,0,0,1-.15-1.855v-1.88a3.524,3.524,0,0,1,.566-2.256,1.65,1.65,0,0,1,1.261-.664c1.212,0,1.827,1.261,1.827,3.748a6.909,6.909,0,0,1-.555,3.452,1.565,1.565,0,0,1-1.26.784A1.612,1.612,0,0,1,315.742,260.762Z" transform="translate(-226.744 -231.66)" fill="#fff"/>
</svg>
