<svg xmlns="http://www.w3.org/2000/svg" width="160.378" height="41.261" viewBox="0 0 160.378 41.261">
  <path id="B_harat_interface_for_money" data-name="B harat interface for money" d="M457.307,88.272a2.1,2.1,0,0,1-.427-1.783,3.028,3.028,0,0,1,.565-1.292,3.179,3.179,0,0,1,1.085-.932,2.807,2.807,0,0,1,1.32-.338,2.059,2.059,0,0,1,2.132,2.539,3,3,0,0,1-1.057,1.8,2.911,2.911,0,0,1-1.932.74A2.073,2.073,0,0,1,457.307,88.272Zm1.415-3.595a2.6,2.6,0,0,0-.885.753,2.452,2.452,0,0,0-.456,1.057,1.706,1.706,0,0,0,.341,1.456,1.643,1.643,0,0,0,1.336.595,2.35,2.35,0,0,0,1.091-.274,2.519,2.519,0,0,0,.879-.747,2.46,2.46,0,0,0,.454-1.054,1.881,1.881,0,0,0-.085-1.041,1.553,1.553,0,0,0-.625-.745,1.789,1.789,0,0,0-.986-.28A2.256,2.256,0,0,0,458.722,84.677Zm-28.169,3.595a2.092,2.092,0,0,1-.426-1.783,3.018,3.018,0,0,1,.565-1.292,3.17,3.17,0,0,1,1.085-.932,2.8,2.8,0,0,1,1.319-.338,2.059,2.059,0,0,1,2.133,2.539,3,3,0,0,1-1.057,1.8,2.911,2.911,0,0,1-1.932.74A2.075,2.075,0,0,1,430.553,88.272Zm1.415-3.595a2.6,2.6,0,0,0-.884.753,2.453,2.453,0,0,0-.456,1.057,1.7,1.7,0,0,0,.341,1.456,1.643,1.643,0,0,0,1.337.595,2.35,2.35,0,0,0,1.091-.274,2.535,2.535,0,0,0,.879-.747,2.459,2.459,0,0,0,.454-1.054,1.881,1.881,0,0,0-.086-1.041,1.549,1.549,0,0,0-.625-.745,1.784,1.784,0,0,0-.985-.28A2.26,2.26,0,0,0,431.968,84.677ZM407.6,88.163a2.247,2.247,0,0,1-.31-1.723,2.924,2.924,0,0,1,1.06-1.787,3.033,3.033,0,0,1,1.994-.725,2.449,2.449,0,0,1,1.176.268,1.835,1.835,0,0,1,.761.752l-.433.292a1.613,1.613,0,0,0-.648-.623,1.987,1.987,0,0,0-.935-.212,2.426,2.426,0,0,0-1.12.278,2.578,2.578,0,0,0-.9.746,2.419,2.419,0,0,0-.457,1.055,1.705,1.705,0,0,0,.346,1.476,1.766,1.766,0,0,0,1.427.592,2.592,2.592,0,0,0,1.84-.8l.33.289a3.116,3.116,0,0,1-2.282.964A2.1,2.1,0,0,1,407.6,88.163Zm72.047.724.408-2.312-1.117-2.526h.556l.886,2,1.57-2h.559l-1.977,2.526-.408,2.312Zm-7.281,0,.853-4.838h2.772l-.084.473h-2.289l-.267,1.516h2.27l-.084.473h-2.27l-.335,1.9H475.2l-.084.473Zm-3.647,0-2.548-3.664-.646,3.664h-.5l.853-4.838h.105l2.566,3.709.653-3.709h.477l-.853,4.838Zm-15.691,0,.132-3.461-2.32,3.461h-.124L449.6,85.4l-1.09,3.487h-.467l1.545-4.838h.079l1.266,3.97,2.648-3.97h.077l-.157,4.838Zm-12.505,0-1.344-2.246H438.9l-.4,2.246h-.483l.852-4.838h.964a5.71,5.71,0,0,1,1.081.066.99.99,0,0,1,.626.424,1.071,1.071,0,0,1,.129.8,1.519,1.519,0,0,1-.308.695,1.493,1.493,0,0,1-.611.453,2.645,2.645,0,0,1-.982.157l1.344,2.246Zm-1.534-2.72.832.006a2.237,2.237,0,0,0,.734-.092.96.96,0,0,0,.414-.294.973.973,0,0,0,.21-.453.7.7,0,0,0-.054-.442.565.565,0,0,0-.3-.284,1.949,1.949,0,0,0-.7-.086h-.853Zm-14.691,2.72.853-4.838h2.424l-.083.473h-1.94l-.267,1.516h1.94l-.084.473H425.2l-.418,2.375Zm-9.918,0,.853-4.838H418l-.083.473h-2.29l-.267,1.516h2.27l-.084.473h-2.27l-.335,1.9h2.269l-.083.473Zm-10.793,0-.481-1.592h-2.084l-1.034,1.592h-.54l3.139-4.838h.119l1.4,4.838Zm-2.262-2.059h1.654l-.516-1.751Zm-6.265,2.059.853-4.838h2.424l-.083.473h-1.94l-.267,1.516h1.94l-.084.473h-1.94l-.418,2.375Zm-4.192,0-1.344-2.246h-.273l-.4,2.246h-.483l.853-4.838h.964a5.692,5.692,0,0,1,1.08.066.992.992,0,0,1,.626.424,1.071,1.071,0,0,1,.129.8,1.52,1.52,0,0,1-.309.695,1.481,1.481,0,0,1-.611.453,2.636,2.636,0,0,1-.981.157l1.344,2.246Zm-1.534-2.72.832.006a2.227,2.227,0,0,0,.733-.092.963.963,0,0,0,.415-.294.982.982,0,0,0,.21-.453.7.7,0,0,0-.054-.442.567.567,0,0,0-.3-.284,1.939,1.939,0,0,0-.7-.086h-.853Zm-6.416,2.72.853-4.838h2.773l-.084.473h-2.289l-.267,1.516h2.269l-.084.473h-2.269l-.336,1.9h2.27l-.084.473Zm-4.63,0,.77-4.365h-1.079l.084-.473h2.65l-.083.473h-1.079l-.77,4.365Zm-4.782,0-2.547-3.664-.646,3.664h-.5l.852-4.838h.105l2.566,3.709.654-3.709h.477l-.853,4.838Zm-8.05,0,.853-4.838h.483l-.853,4.838Zm-8.511,0,.77-4.365h-1.078l.083-.473h2.651l-.084.473h-1.079l-.77,4.365Zm-4.5,0-.481-1.592H349.88l-1.034,1.592h-.539l3.138-4.838h.119l1.4,4.838Zm-2.261-2.059h1.653l-.516-1.751Zm-4.834,2.059-1.344-2.246h-.274l-.4,2.246h-.483l.853-4.838h.963a5.71,5.71,0,0,1,1.081.066.99.99,0,0,1,.625.424,1.071,1.071,0,0,1,.13.8,1.521,1.521,0,0,1-.309.695,1.487,1.487,0,0,1-.611.453,2.64,2.64,0,0,1-.981.157l1.344,2.246Zm-1.534-2.72.832.006a2.231,2.231,0,0,0,.733-.092.981.981,0,0,0,.624-.747.708.708,0,0,0-.053-.442.57.57,0,0,0-.3-.284,1.942,1.942,0,0,0-.7-.086h-.853Zm-4.35,2.72-.481-1.592H336.9l-1.035,1.592h-.539l3.139-4.838h.118l1.4,4.838Zm-2.261-2.059h1.654l-.517-1.751Zm-4.525,2.059.411-2.336h-2.463l-.411,2.336h-.483l.852-4.838h.484l-.358,2.03h2.463l.358-2.03h.483l-.853,4.838Zm-9.334,0,.853-4.838h.954a2.08,2.08,0,0,1,.86.137.841.841,0,0,1,.415.419,1.042,1.042,0,0,1,.068.628,1.325,1.325,0,0,1-.261.587,1.511,1.511,0,0,1-.536.429,1.443,1.443,0,0,1,.526.3.95.95,0,0,1,.243.419,1.174,1.174,0,0,1,.02.531,1.6,1.6,0,0,1-.6.985,1.865,1.865,0,0,1-1.214.4Zm.557-.473h.6a2.329,2.329,0,0,0,.8-.1,1.134,1.134,0,0,0,.454-.324.99.99,0,0,0,.234-.477.722.722,0,0,0-.112-.562.861.861,0,0,0-.521-.329,4.133,4.133,0,0,0-.85-.059h-.274Zm.413-2.342h.277a2.328,2.328,0,0,0,.758-.094,1.028,1.028,0,0,0,.428-.3.923.923,0,0,0,.217-.449.541.541,0,0,0-.14-.521,1.024,1.024,0,0,0-.706-.19h-.56Zm135.446-5.247,8.941-33.077,3.874,7.449,2.086-7.151,8.046,16.39L465.431,80.823l2.083-7.15-7.747,7.152,0,0ZM364.2,79.936l8.813-31.672h6.335l-3.857,12.944h25.062l3.581-12.668h6.334l-8.813,31.4h-6.335l3.3-12.393H374.11l-3.58,12.668Zm91.436,0h-6.61l4.132-14.873-16.25,14.6-9.639-16.525-4.958,16.525-6.059.275,8.813-31.672,13.22,22.308L464.17,48.264l-8.537,31.672h0Zm-43.79,0-6.058-.275L414.6,48.54h6.059l-8.813,31.4h0Zm-89.508,0,8.814-31.4H366.4a1.655,1.655,0,0,1,1.652,1.652c-.017.062-1.8,6.454-3.3,12.118a2.382,2.382,0,0,1-1.377,1.377,11.3,11.3,0,0,1-1.451.343c-.209.037-.314.055-.321.092s.041.065.12.116c.117.077.257.162.406.251.716.431,1.7,1.021,1.522,1.677-1.679,6.331-2.743,10.971-2.754,11.017-.324,1.112-1.831,2.754-2.754,2.754Zm9.915-12.393-1.614,6.412h22.308c2.217-.077,3.529-3.077,3.542-3.108A3.449,3.449,0,0,0,356.23,68a1.064,1.064,0,0,0-.887-.535Zm3.3-12.669-1.613,6.413h22.307c2.216-.078,3.529-3.078,3.542-3.109a3.446,3.446,0,0,0-.255-2.848,1.064,1.064,0,0,0-.886-.535Z" transform="translate(-322.333 -47.748)" fill="#fff"/>
</svg>
