<svg xmlns="http://www.w3.org/2000/svg" id="Group_2182" width="306.609" height="53.375" viewBox="0 0 306.609 53.375">
    <defs>
        <radialGradient id="radial-gradient" cx=".504" cy="-.694" r="1.276" gradientTransform="matrix(0 1 -.62 0 .074 -1.197)" gradientUnits="objectBoundingBox">
            <stop offset=".821" stop-color="#874091"/>
            <stop offset=".89" stop-color="#662677"/>
        </radialGradient>
        <radialGradient id="radial-gradient-2" cx=".496" cy="1.694" r="1.276" gradientTransform="matrix(0 -1 .619 0 218.998 187.956)" gradientUnits="objectBoundingBox">
            <stop offset=".821" stop-color="#461d5c"/>
            <stop offset=".89" stop-color="#662677"/>
        </radialGradient>
        <style>
            .cls-1{fill:#d1363b}.cls-3{fill:#662677}.cls-8{fill:#874091}
        </style>
    </defs>
    <g id="Group_574" transform="translate(237.593 6.993)">
        <path id="Path_1350" d="M289.516 602.993V569.3a2.134 2.134 0 0 1 .688-1.6 2.408 2.408 0 0 1 1.734-.661 2.255 2.255 0 0 1 2.262 2.261v33.693a2.228 2.228 0 0 1-.674 1.637 2.3 2.3 0 0 1-1.693.675 2.3 2.3 0 0 1-2.312-2.312z" class="cls-1" transform="translate(-289.516 -566.822)"/>
        <path id="Path_1351" d="M299.614 602.828a2.42 2.42 0 0 1 .166-.909l12.993-32.344a3.942 3.942 0 0 1 1.5-1.844 4.1 4.1 0 0 1 2.326-.689 3.844 3.844 0 0 1 2.23.7 4.08 4.08 0 0 1 1.486 1.83l13.076 32.344a2.405 2.405 0 0 1-.565 2.6 2.364 2.364 0 0 1-1.8.785 2.471 2.471 0 0 1-1.363-.4 2.239 2.239 0 0 1-.894-1.115l-2.808-7.157h-18.722l-2.839 7.161a2.268 2.268 0 0 1-.881 1.115 2.4 2.4 0 0 1-1.349.4 2.475 2.475 0 0 1-1.817-.743 2.382 2.382 0 0 1-.739-1.734zm8.974-10.378h15.966l-7.954-20.232z" class="cls-1" transform="translate(-292.371 -566.822)"/>
        <path id="Path_1352" d="M346.979 599.189a2.465 2.465 0 0 1 .62-1.637 1.984 1.984 0 0 1 1.583-.729 2.012 2.012 0 0 1 1.348.468 15.377 15.377 0 0 0 10.543 4.1 13.474 13.474 0 0 0 4.2-.592 6.832 6.832 0 0 0 2.781-1.583 6.684 6.684 0 0 0 1.431-2.066 5.669 5.669 0 0 0 .455-2.233 4.891 4.891 0 0 0-.757-2.713 5.757 5.757 0 0 0-2.049-1.9 14.534 14.534 0 0 0-2.981-1.236l-3.522-1.053-3.681-1.1a23.221 23.221 0 0 1-3.512-1.361 15.046 15.046 0 0 1-2.959-1.869 7.394 7.394 0 0 1-2.051-2.718 9.076 9.076 0 0 1-.757-3.8 9.168 9.168 0 0 1 3.661-7.517 14.4 14.4 0 0 1 9.249-2.91 18.268 18.268 0 0 1 12.057 3.991 2.192 2.192 0 0 1 .8 1.68 2.229 2.229 0 0 1-.647 1.569 2.059 2.059 0 0 1-1.556.688 2.016 2.016 0 0 1-1.348-.491 14.767 14.767 0 0 0-9.635-3.253 8.864 8.864 0 0 0-5.574 1.668 5.2 5.2 0 0 0-2.161 4.31 3.872 3.872 0 0 0 .755 2.37 5.622 5.622 0 0 0 2.044 1.667 17.786 17.786 0 0 0 2.97 1.141l3.531 1.036 3.69 1.084a19.6 19.6 0 0 1 3.506 1.405 14.736 14.736 0 0 1 2.963 2.006 8.025 8.025 0 0 1 2.053 2.9 10.052 10.052 0 0 1 .757 4.011 11.572 11.572 0 0 1-.454 3.26 9.622 9.622 0 0 1-1.514 3 10.324 10.324 0 0 1-2.629 2.489 13.2 13.2 0 0 1-3.951 1.678 20.747 20.747 0 0 1-5.326.633 19.358 19.358 0 0 1-13.186-4.68 2.18 2.18 0 0 1-.747-1.713z" class="cls-1" transform="translate(-305.765 -566.735)"/>
    </g>
    <g id="Group_580">
        <path id="Rectangle_381" fill="#c1c1c0" d="M0 0H1.797V53.375H0z" transform="translate(225.423)"/>
        <g id="Group_579" transform="translate(0 .953)">
            <g id="Group_576">
                <g id="Group_575">
                    <rect id="Rectangle_382" width="50.996" height="50.996" class="cls-3" rx="5.049"/>
                    <path id="Path_1353" fill="url(#radial-gradient)" d="M91.321 566.822a4.944 4.944 0 0 1 4.944 4.944v16.722a2.953 2.953 0 0 1-2.952 2.952H48.22a2.952 2.952 0 0 1-2.951-2.952v-16.722a4.943 4.943 0 0 1 4.944-4.944z" transform="translate(-45.269 -566.822)"/>
                    <path id="Path_1354" fill="url(#radial-gradient-2)" d="M50.213 618.377a4.943 4.943 0 0 1-4.944-4.944V596.71a2.951 2.951 0 0 1 2.951-2.951h45.092a2.952 2.952 0 0 1 2.952 2.951v16.723a4.944 4.944 0 0 1-4.944 4.944z" transform="translate(-45.269 -567.381)"/>
                    <rect id="Rectangle_383" width="47.73" height="47.73" class="cls-3" rx="3.283" transform="translate(1.633 1.633)"/>
                </g>
                <path id="Path_1355" fill="#361749" d="M78.588 605.665l-9.909 2.86a1.583 1.583 0 0 1-1.959-1.082l-7.5-25.972a1.584 1.584 0 0 1 1.082-1.96l10.253-2.959a6.427 6.427 0 0 1 6.582 1.841 7.065 7.065 0 0 1-.456 10.244 8.692 8.692 0 0 1 1.9 17.029z" transform="translate(-45.557 -567.019)"/>
                <path id="Path_1356" fill="#fff" d="M79.985 587.4a9.011 9.011 0 0 0-1.072-9.868 9.138 9.138 0 0 0-8.965-2.841l-10.533 3.04a3.165 3.165 0 0 0-2.163 3.919l7.679 26.606a3.165 3.165 0 0 0 3.919 2.163l10.59-3.057a10.912 10.912 0 0 0 7.245-8.512 10.734 10.734 0 0 0-6.7-11.45zm-1.439 18.23l-9.909 2.86a1.583 1.583 0 0 1-1.959-1.082l-7.5-25.972a1.582 1.582 0 0 1 1.082-1.959l10.27-2.965a6.408 6.408 0 0 1 6.554 1.833 7.066 7.066 0 0 1-.446 10.257 8.692 8.692 0 0 1 1.9 17.029z" transform="translate(-45.515 -566.98)"/>
                <path id="Path_1357" d="M81.677 598.8a8.014 8.014 0 0 0-7.931-8.012 6.833 6.833 0 0 0 .519-9.817 6.245 6.245 0 0 0-6.457-1.878l-8.572 2.475 7.485 25.932a1.583 1.583 0 0 0 1.959 1.082l7.036-2.031.1-.032a8.016 8.016 0 0 0 5.861-7.719z" class="cls-3" transform="translate(-45.559 -567.071)"/>
            </g>
            <g id="Group_578" transform="translate(61.162 6.464)">
                <path id="Path_1358" d="M208.4 610.954c-8.6 0-13.585-5.18-13.585-15.491v-17.446c0-2.541 1.417-4.056 3.518-4.056 2.052 0 3.518 1.515 3.518 4.056v16.909c0 6.939 2.248 9.138 6.548 9.138s6.548-2.2 6.548-9.138v-16.909c0-2.541 1.466-4.056 3.518-4.056 2.1 0 3.518 1.515 3.518 4.056v17.446c.007 10.31-4.978 15.491-13.583 15.491zm-78.981-19.547a8.886 8.886 0 0 0 4.447-7.623c0-6.059-4.251-10.36-12.852-10.36h-9.774a3.3 3.3 0 0 0-3.518 3.471v30.785a3.322 3.322 0 0 0 3.518 3.469l9.725.1c11.142.1 14.806-4.69 14.806-10.555a9.619 9.619 0 0 0-6.352-9.138.075.075 0 0 1-.044-.066.1.1 0 0 1 .049-.083zm23.419-2.248l-7.868-13.1c-.781-1.27-1.612-2.1-3.127-2.1a3.334 3.334 0 0 0-3.567 3.177 5.06 5.06 0 0 0 .928 2.883l10.116 16.224v10.849c0 2.54 1.612 4.055 3.469 4.055 2.1 0 3.567-1.515 3.567-4.055v-10.848l10.116-16.224a5.067 5.067 0 0 0 .928-2.883 3.334 3.334 0 0 0-3.567-3.177c-1.515 0-2.346.832-3.128 2.1zm76.775-2.247a2.7 2.7 0 0 0 2.443-1.711 24.2 24.2 0 0 0 1.857-7.526c0-2.345-1.074-3.811-3.615-3.811-2.59.1-3.665 1.759-3.665 4.837v2.785c.005 3.471.982 5.425 2.986 5.425zm-65.341 14.366c0 3.372 2.981 9.725 11.191 9.725 8.112 0 12.216-4.838 12.216-13.536v-19.45c0-2.541-1.466-4.056-3.518-4.056-2.2 0-3.518 1.515-3.518 4.056v19.6c0 4.448-1.515 6.548-4.984 6.6-5.913.1-3.372-6.157-7.574-6.5a3.434 3.434 0 0 0-3.807 3.561zm-40.963-13.145c-2.3.44-3.762 1.369-3.762 3.567 0 2.248 1.417 3.469 3.713 3.763 3.959.44 5.327 1.808 5.327 4.837 0 2.785-2.3 4.3-6.7 4.3h-7.184v-24.726h7.77c2.932 0 4.4 1.759 4.4 4.4.01 2.294-1.358 3.467-3.557 3.858zm119.406 13.487c-.879-1.026-2-2.053-3.274-2.053a3.21 3.21 0 0 0-3.324 3.471 5.07 5.07 0 0 0 1.32 3.127 14.928 14.928 0 0 0 11.923 5.327c6.6 0 12.119-3.714 12.119-10.36 0-12.949-17.2-11.678-17.2-17.445 0-2.247 1.515-3.518 4.056-3.518a7.117 7.117 0 0 1 4.643 1.417c1.27.977 2.247 2.884 4.349 2.884a3.1 3.1 0 0 0 3.323-2.933c0-2.541-2.541-4.935-4.739-6.205a14.807 14.807 0 0 0-7.623-1.907c-5.571.1-11.044 3.128-11.044 10.36 0 11.68 17.2 9.627 17.2 16.957 0 2.639-2.052 3.958-5.131 3.958-2.732 0-4.686-1.223-6.592-3.081z" class="cls-3" transform="translate(-107.727 -573.423)"/>
                <g id="Group_577">
                    <path id="Path_1359" d="M200.184 574.629c2.052 0 3.518 1.515 3.518 4.056v-.657c0-2.541-1.466-4.056-3.518-4.056-2.1 0-3.518 1.515-3.518 4.056v.657c0-2.541 1.417-4.056 3.518-4.056z" class="cls-8" transform="translate(-109.573 -573.434)"/>
                    <path id="Path_1360" d="M203.852 596.037c0 6.939 2.248 9.138 6.548 9.138s6.548-2.2 6.548-9.138v-.656c0 6.939-2.247 9.138-6.548 9.138s-6.548-2.2-6.548-9.138z" class="cls-8" transform="translate(-109.723 -573.879)"/>
                    <path id="Path_1361" d="M247.2 584.2c-.01.12-.016.241-.016.367 0 5.712 16.871 4.522 17.193 17.081 0-.1.008-.193.008-.292-.004-12.731-16.623-11.72-17.185-17.156z" class="cls-8" transform="translate(-110.622 -573.647)"/>
                    <path id="Path_1362" d="M142.5 574.629c1.515 0 2.345.83 3.127 2.1l7.868 13.1 7.867-13.1c.781-1.27 1.613-2.1 3.128-2.1a3.366 3.366 0 0 1 3.553 2.9c.009-.123.015-.251.015-.382a3.334 3.334 0 0 0-3.567-3.177c-1.515 0-2.346.831-3.128 2.1l-7.867 13.1-7.868-13.1c-.781-1.27-1.612-2.1-3.127-2.1a3.334 3.334 0 0 0-3.567 3.177q0 .2.015.382a3.366 3.366 0 0 1 3.551-2.9z" class="cls-8" transform="translate(-108.375 -573.434)"/>
                    <path id="Path_1363" d="M242.17 600.778c1.27 0 2.394 1.026 3.274 2.052 1.906 1.857 3.86 3.078 6.6 3.078 3.079 0 5.131-1.319 5.131-3.958 0-.121-.006-.24-.015-.357-.153 2.437-2.158 3.659-5.117 3.659-2.737 0-4.692-1.221-6.6-3.079-.879-1.026-2-2.052-3.274-2.052a3.21 3.21 0 0 0-3.324 3.47c0 .093.008.19.017.287a3.175 3.175 0 0 1 3.308-3.1z" class="cls-8" transform="translate(-110.449 -573.977)"/>
                    <path id="Path_1364" d="M251.038 574.08a14.806 14.806 0 0 1 7.623 1.906c2.105 1.216 4.518 3.464 4.72 5.883a2.866 2.866 0 0 0 .02-.334c0-2.541-2.541-4.935-4.74-6.205a14.807 14.807 0 0 0-7.623-1.907c-5.571.1-11.044 3.128-11.044 10.36 0 .113 0 .222.008.332.162-6.996 5.55-9.939 11.036-10.035z" class="cls-8" transform="translate(-110.473 -573.423)"/>
                    <path id="Path_1365" d="M165.477 601.79c0 .124 0 .253.014.384a3.42 3.42 0 0 1 3.8-3.3c4.2.343 1.662 6.6 7.574 6.5 3.469-.048 4.984-2.149 4.984-6.6v-.657c0 4.448-1.515 6.548-4.984 6.6-5.913.1-3.372-6.158-7.574-6.5a3.434 3.434 0 0 0-3.814 3.573z" class="cls-8" transform="translate(-108.926 -573.936)"/>
                    <path id="Path_1366" d="M220.744 573.972c-2.052 0-3.518 1.515-3.518 4.056v.657c0-2.541 1.466-4.056 3.518-4.056 2.1 0 3.518 1.515 3.518 4.056v-.657c.001-2.541-1.416-4.056-3.518-4.056z" class="cls-8" transform="translate(-110 -573.434)"/>
                    <path id="Path_1367" d="M232.824 573.873c-2.59.1-3.665 1.759-3.665 4.837v.656c0-3.079 1.075-4.739 3.665-4.837 2.417 0 3.5 1.328 3.606 3.476.007-.114.01-.221.01-.321 0-2.345-1.075-3.811-3.616-3.811z" class="cls-8" transform="translate(-110.248 -573.432)"/>
                    <path id="Path_1368" d="M185.712 573.972c-2.2 0-3.518 1.515-3.518 4.056v.657c0-2.541 1.32-4.056 3.518-4.056 2.052 0 3.518 1.515 3.518 4.056v-.657c.001-2.541-1.465-4.056-3.518-4.056z" class="cls-8" transform="translate(-109.273 -573.434)"/>
                    <path id="Path_1369" d="M111.245 574.08h9.774c8.418 0 12.666 4.121 12.844 9.977 0-.091.008-.181.008-.273 0-6.059-4.251-10.36-12.852-10.36h-9.774a3.3 3.3 0 0 0-3.518 3.471v.656a3.3 3.3 0 0 1 3.518-3.471z" class="cls-8" transform="translate(-107.727 -573.423)"/>
                    <path id="Path_1370" d="M123.566 588.369c-2.3.44-3.762 1.369-3.762 3.567 0 .117.006.228.014.339.137-1.97 1.567-2.832 3.749-3.25 2.2-.391 3.567-1.563 3.567-3.86 0-.115-.006-.227-.012-.34-.122 2.088-1.46 3.175-3.556 3.544z" class="cls-8" transform="translate(-107.978 -573.66)"/>
                    <path id="Path_1371" d="M122.047 605.832c4.4 0 6.7-1.515 6.7-4.3 0-.145-.006-.282-.013-.42-.129 2.632-2.412 4.064-6.682 4.064h-7.184v.657z" class="cls-8" transform="translate(-107.875 -573.998)"/>
                </g>
                <path id="Path_1372" d="M129.874 591.934a.075.075 0 0 1-.044-.067.1.1 0 0 1 .044-.079l.009-.006-.395.3a.207.207 0 0 0 .043.354l.343.152a9.614 9.614 0 0 1 6.345 8.9c0-.14.009-.28.009-.422a10.365 10.365 0 0 0-.494-3.136 9.819 9.819 0 0 0-5.86-5.996z" class="cls-8" transform="translate(-108.177 -573.804)"/>
            </g>
        </g>
    </g>
</svg>
