<?xml version="1.0" encoding="UTF-8" standalone="no"?><!-- Generator: Gravit.io --><svg xmlns="http://www.w3.org/2000/svg" xmlns:xlink="http://www.w3.org/1999/xlink" style="isolation:isolate" viewBox="0 0 170 80" width="170pt" height="80pt"><g><g><g><path d=" M 47.797 28.08 L 33.139 32.333 C 30.797 33.018 29.451 35.47 30.128 37.814 L 30.128 37.814 L 40.816 75.033 C 41.136 76.159 41.891 77.111 42.914 77.679 C 43.938 78.247 45.145 78.384 46.27 78.059 L 46.27 78.059 L 61.008 73.783 C 65.938 72.353 70.538 67.003 71.093 61.874 L 71.093 61.874 C 71.927 54.157 67.619 48.155 61.766 45.857 L 61.766 45.857 C 64.062 41.369 63.475 35.947 60.273 32.054 L 60.273 32.054 C 58.171 29.363 54.226 27.699 50.615 27.699 L 50.615 27.699 C 49.662 27.694 48.713 27.821 47.797 28.08 L 47.797 28.08 Z " fill="none"/><clipPath id="_clipPath_4IbJHxU3LU0jjUIRCOmoRTpGyCIixPNm"><path d=" M 47.797 28.08 L 33.139 32.333 C 30.797 33.018 29.451 35.47 30.128 37.814 L 30.128 37.814 L 40.816 75.033 C 41.136 76.159 41.891 77.111 42.914 77.679 C 43.938 78.247 45.145 78.384 46.27 78.059 L 46.27 78.059 L 61.008 73.783 C 65.938 72.353 70.538 67.003 71.093 61.874 L 71.093 61.874 C 71.927 54.157 67.619 48.155 61.766 45.857 L 61.766 45.857 C 64.062 41.369 63.475 35.947 60.273 32.054 L 60.273 32.054 C 58.171 29.363 54.226 27.699 50.615 27.699 L 50.615 27.699 C 49.662 27.694 48.713 27.821 47.797 28.08 L 47.797 28.08 Z " fill="rgb(255,255,255)"/></clipPath><g clip-path="url(#_clipPath_4IbJHxU3LU0jjUIRCOmoRTpGyCIixPNm)"><g><g><path d=" M 82.755 52.59 L 55.792 52.59 C 55.789 45.409 58.627 38.52 63.688 33.425 C 68.735 28.349 75.597 25.493 82.755 25.49 L 82.755 52.59 Z " fill="rgb(228,77,89)"/></g></g></g></g><g><path d=" M 47.797 28.08 L 33.139 32.333 C 30.797 33.018 29.451 35.47 30.128 37.814 L 30.128 37.814 L 40.816 75.033 C 41.136 76.159 41.891 77.111 42.914 77.679 C 43.938 78.247 45.145 78.384 46.27 78.059 L 46.27 78.059 L 61.008 73.783 C 65.938 72.353 70.538 67.003 71.093 61.874 L 71.093 61.874 C 71.927 54.157 67.619 48.155 61.766 45.857 L 61.766 45.857 C 64.062 41.369 63.475 35.947 60.273 32.054 L 60.273 32.054 C 58.171 29.363 54.226 27.699 50.615 27.699 L 50.615 27.699 C 49.662 27.694 48.713 27.821 47.797 28.08 L 47.797 28.08 Z " fill="none"/><clipPath id="_clipPath_P4EsLByoTJOhLvPovyPxPCEbeRUvfLRZ"><path d=" M 47.797 28.08 L 33.139 32.333 C 30.797 33.018 29.451 35.47 30.128 37.814 L 30.128 37.814 L 40.816 75.033 C 41.136 76.159 41.891 77.111 42.914 77.679 C 43.938 78.247 45.145 78.384 46.27 78.059 L 46.27 78.059 L 61.008 73.783 C 65.938 72.353 70.538 67.003 71.093 61.874 L 71.093 61.874 C 71.927 54.157 67.619 48.155 61.766 45.857 L 61.766 45.857 C 64.062 41.369 63.475 35.947 60.273 32.054 L 60.273 32.054 C 58.171 29.363 54.226 27.699 50.615 27.699 L 50.615 27.699 C 49.662 27.694 48.713 27.821 47.797 28.08 L 47.797 28.08 Z " fill="rgb(255,255,255)"/></clipPath><g clip-path="url(#_clipPath_P4EsLByoTJOhLvPovyPxPCEbeRUvfLRZ)"><g><g><path d=" M 82.755 52.59 L 82.755 79.689 C 75.598 79.686 68.737 76.83 63.691 71.754 C 58.63 66.661 55.79 59.77 55.792 52.59 L 82.755 52.59 Z " fill="rgb(228,77,89)"/></g></g></g></g><path d=" M 47.797 28.08 L 33.139 32.333 C 30.797 33.018 29.451 35.47 30.128 37.814 L 30.128 37.814 L 40.816 75.033 C 41.136 76.159 41.891 77.111 42.914 77.679 C 43.938 78.247 45.145 78.384 46.27 78.059 L 46.27 78.059 L 61.008 73.783 C 65.938 72.353 70.538 67.003 71.093 61.874 L 71.093 61.874 C 71.927 54.157 67.619 48.155 61.766 45.857 L 61.766 45.857 C 64.062 41.369 63.475 35.947 60.273 32.054 L 60.273 32.054 C 58.171 29.363 54.226 27.699 50.615 27.699 L 50.615 27.699 C 49.662 27.694 48.713 27.821 47.797 28.08 L 47.797 28.08 Z " fill="none"/><clipPath id="_clipPath_GnxkESEyKoBnZu6M6YtZ7K2UVO48nrI8"><path d=" M 47.797 28.08 L 33.139 32.333 C 30.797 33.018 29.451 35.47 30.128 37.814 L 30.128 37.814 L 40.816 75.033 C 41.136 76.159 41.891 77.111 42.914 77.679 C 43.938 78.247 45.145 78.384 46.27 78.059 L 46.27 78.059 L 61.008 73.783 C 65.938 72.353 70.538 67.003 71.093 61.874 L 71.093 61.874 C 71.927 54.157 67.619 48.155 61.766 45.857 L 61.766 45.857 C 64.062 41.369 63.475 35.947 60.273 32.054 L 60.273 32.054 C 58.171 29.363 54.226 27.699 50.615 27.699 L 50.615 27.699 C 49.662 27.694 48.713 27.821 47.797 28.08 L 47.797 28.08 Z " fill="rgb(255,255,255)"/></clipPath><g clip-path="url(#_clipPath_GnxkESEyKoBnZu6M6YtZ7K2UVO48nrI8)"><g><g><path d=" M 28.832 79.689 L 55.795 79.689 L 55.795 52.59 L 28.832 52.59 L 28.832 79.689 Z " fill="rgb(0,151,219)"/><path d=" M 55.792 79.689 L 55.792 52.59 C 55.793 59.767 58.635 66.653 63.697 71.742 C 68.738 76.822 75.598 79.682 82.755 79.689 L 55.792 79.689 Z " fill="rgb(145,199,62)"/><path d=" M 55.792 25.49 L 55.792 52.59 C 55.793 45.411 58.635 38.526 63.697 33.435 C 68.738 28.357 75.598 25.497 82.755 25.49 L 55.792 25.49 Z " fill="rgb(254,193,14)"/><path d=" M 55.795 25.49 L 55.795 52.59 C 55.793 45.411 52.95 38.525 47.886 33.435 C 42.846 28.358 35.987 25.497 28.832 25.49 L 55.795 25.49 Z " fill="rgb(254,193,14)"/><path d=" M 28.832 52.59 L 28.832 25.49 C 35.989 25.494 42.849 28.349 47.895 33.425 C 52.957 38.519 55.797 45.409 55.795 52.59 L 28.832 52.59 Z " fill="rgb(129,53,136)"/></g></g></g></g><g><path d=" M 99.399 54.249 L 99.399 54.249 C 98.631 54.257 97.867 54.142 97.136 53.909 C 96.419 53.664 95.751 53.298 95.159 52.825 C 93.995 51.952 93.315 50.578 93.326 49.123 C 93.309 47.641 93.81 46.2 94.744 45.049 C 95.638 43.903 96.976 43.189 98.425 43.083 C 99.802 43.081 101.159 43.413 102.379 44.05 L 102.379 43.368 C 102.41 43.022 102.351 42.674 102.207 42.358 C 102.039 42.109 101.807 41.911 101.534 41.786 C 101.135 41.566 100.686 41.455 100.231 41.464 C 99.991 41.457 99.751 41.471 99.514 41.506 C 99.304 41.557 99.098 41.622 98.897 41.699 C 98.635 41.795 98.427 41.877 98.296 41.935 C 98.104 42.027 97.918 42.13 97.737 42.243 C 97.578 42.33 97.409 42.4 97.235 42.451 C 97.062 42.498 96.885 42.53 96.705 42.546 C 96.211 42.61 95.725 42.39 95.446 41.978 C 95.31 41.663 95.214 41.331 95.159 40.991 C 95.125 40.403 95.409 39.842 95.904 39.522 L 96.85 38.873 L 98.051 38.393 C 98.865 38.184 99.705 38.089 100.545 38.112 C 101.386 38.11 102.225 38.219 103.038 38.438 C 103.793 38.632 104.497 38.989 105.099 39.485 C 105.719 40.04 106.167 40.762 106.389 41.565 C 106.713 42.774 106.857 44.024 106.818 45.275 L 106.818 51.336 C 106.823 51.61 106.813 51.883 106.79 52.157 C 106.753 52.391 106.686 52.619 106.59 52.837 C 106.461 53.27 106.168 53.634 105.774 53.856 C 105.384 54.107 104.933 54.245 104.47 54.251 C 104.169 54.253 103.871 54.191 103.595 54.071 C 103.141 53.783 102.755 53.398 102.464 52.945 C 101.973 53.287 101.449 53.583 100.903 53.827 C 100.425 54.042 99.919 54.184 99.399 54.248 L 99.399 54.249 Z  M 100.287 46.465 C 99.698 46.465 99.131 46.685 98.696 47.081 C 98.24 47.469 97.983 48.041 97.994 48.64 C 97.994 49.227 98.214 49.793 98.611 50.226 C 99 50.683 99.574 50.941 100.173 50.928 C 100.763 50.935 101.335 50.72 101.776 50.327 C 102.231 49.934 102.483 49.355 102.464 48.755 C 102.464 48.167 102.245 47.601 101.847 47.167 C 101.459 46.711 100.886 46.453 100.287 46.465 Z " fill="rgb(254,193,14)"/><path d=" M 117.554 38.197 C 118.056 38.287 118.497 38.586 118.765 39.022 C 119.03 39.447 119.17 39.939 119.167 40.442 C 119.167 40.914 119.075 41.383 118.895 41.821 C 118.702 42.279 118.365 42.662 117.935 42.913 C 117.491 43.137 117.001 43.254 116.503 43.255 C 116.153 43.278 115.801 43.229 115.472 43.107 L 114.611 42.696 C 114.384 42.558 114.13 42.467 113.867 42.431 C 113.687 42.449 113.512 42.502 113.352 42.585 Q 113.007 42.739 113.007 43.679 L 113.007 52.23 C 112.984 52.757 112.746 53.25 112.349 53.597 C 111.953 54.014 111.405 54.249 110.83 54.25 C 110.246 54.246 109.683 54.024 109.254 53.627 C 108.853 53.275 108.614 52.774 108.595 52.24 L 108.595 39.896 C 108.592 39.393 108.83 38.919 109.235 38.622 C 109.687 38.273 110.246 38.094 110.815 38.112 C 111.341 38.087 111.864 38.175 112.352 38.37 C 112.722 38.555 112.97 38.921 113.007 39.334 C 113.487 38.938 114.032 38.63 114.618 38.421 C 115.248 38.207 115.911 38.103 116.576 38.112 L 117.554 38.197 Z " fill="rgb(228,77,89)"/><path d=" M 125.21 52.235 C 125.186 52.761 124.947 53.253 124.551 53.598 C 124.146 54.018 123.586 54.254 123.003 54.25 C 122.419 54.246 121.857 54.024 121.429 53.626 C 121.026 53.273 120.789 52.77 120.769 52.235 L 120.769 33.734 C 120.785 33.187 121.037 32.677 121.457 32.329 C 121.87 31.922 122.424 31.693 123.003 31.69 C 123.584 31.679 124.146 31.898 124.565 32.302 C 124.976 32.664 125.21 33.186 125.21 33.734 L 125.21 52.235 Z " fill="rgb(0,151,219)"/><path d=" M 135.007 54.891 C 134.551 56.049 133.912 57.126 133.117 58.082 C 132.363 58.829 131.389 59.31 130.337 59.451 L 129.478 59.451 C 128.871 59.458 128.267 59.352 127.699 59.137 C 127.147 58.939 126.665 58.584 126.313 58.114 C 125.929 57.672 125.711 57.11 125.697 56.523 C 125.697 56.486 125.705 56.386 125.726 56.225 C 125.745 56.064 125.792 55.814 125.869 55.473 C 125.955 55.118 126.213 54.829 126.557 54.703 L 127.416 54.418 L 127.903 54.361 C 128.091 54.357 128.279 54.376 128.462 54.418 C 128.681 54.493 128.888 54.598 129.078 54.73 C 129.297 54.886 129.555 54.974 129.823 54.986 C 130.08 54.912 130.309 54.763 130.482 54.561 C 130.72 54.27 130.913 53.944 131.054 53.597 L 131.656 52.176 L 126.728 41.265 C 126.555 40.871 126.466 40.446 126.467 40.015 C 126.403 39.425 126.677 38.849 127.173 38.522 C 127.562 38.272 128.013 38.13 128.475 38.112 C 128.854 38.11 129.226 38.198 129.565 38.367 C 129.882 38.477 130.142 38.713 130.28 39.021 L 133.947 47.09 L 137.557 39.162 C 137.71 38.821 137.978 38.544 138.315 38.381 C 138.647 38.207 139.015 38.114 139.39 38.112 C 139.857 38.131 140.311 38.274 140.707 38.525 C 141.227 38.885 141.504 39.506 141.423 40.135 C 141.418 40.537 141.33 40.935 141.166 41.303 L 135.007 54.891 Z " fill="rgb(145,199,62)"/><path d=" M 135.606 16.283 C 134.034 16.331 132.527 15.664 131.506 14.467 C 131.238 14.174 131.077 13.798 131.053 13.401 C 131.034 13.057 131.17 12.723 131.422 12.49 C 131.638 12.31 131.912 12.214 132.193 12.217 C 132.648 12.286 133.056 12.539 133.318 12.918 C 133.889 13.576 134.714 13.958 135.586 13.968 C 136.707 13.968 137.351 13.475 137.351 12.618 C 137.351 11.513 136.218 11.042 134.906 10.498 C 133.28 9.823 131.439 9.057 131.439 6.835 C 131.393 5.808 131.83 4.817 132.619 4.158 C 133.375 3.593 134.294 3.293 135.237 3.303 C 136.152 3.281 137.056 3.505 137.856 3.952 C 138.608 4.383 139.485 5.194 139.485 6.069 C 139.467 6.353 139.336 6.618 139.122 6.807 C 138.907 6.994 138.627 7.089 138.343 7.07 C 137.889 7.031 137.475 6.797 137.209 6.427 C 137.098 6.305 136.977 6.191 136.849 6.087 C 136.389 5.745 135.824 5.574 135.251 5.603 C 134.366 5.603 133.857 6.041 133.857 6.805 C 133.857 7.591 134.823 8.001 135.937 8.475 C 137.643 9.201 139.768 10.104 139.768 12.752 C 139.795 13.771 139.337 14.743 138.535 15.371 C 137.687 15.992 136.657 16.313 135.606 16.283 Z  M 91.576 16.2 L 91.463 16.2 L 88.12 16.168 C 87.798 16.191 87.48 16.073 87.249 15.847 C 87.017 15.621 86.894 15.306 86.91 14.983 L 86.91 4.486 C 86.895 4.162 87.018 3.848 87.25 3.623 C 87.481 3.397 87.798 3.28 88.12 3.303 L 91.479 3.303 C 92.669 3.227 93.846 3.579 94.799 4.294 C 95.53 4.931 95.935 5.866 95.899 6.837 C 95.887 7.913 95.305 8.902 94.37 9.435 C 94.36 9.44 94.354 9.45 94.354 9.462 C 94.354 9.472 94.361 9.481 94.37 9.485 C 95.69 9.949 96.568 11.202 96.553 12.601 C 96.553 15.576 93.843 16.2 91.576 16.2 Z  M 89.313 5.502 L 89.313 13.934 L 91.783 13.934 C 93.288 13.934 94.085 13.427 94.085 12.47 C 94.085 11.414 93.589 10.967 92.253 10.821 C 91.416 10.714 90.975 10.271 90.975 9.537 C 90.975 8.866 91.374 8.491 92.27 8.32 C 92.608 8.31 92.928 8.165 93.158 7.917 C 93.389 7.669 93.511 7.338 93.496 7 C 93.537 6.59 93.391 6.182 93.097 5.89 C 92.803 5.6 92.394 5.456 91.984 5.502 L 89.313 5.502 Z  M 102.405 16.168 C 102.058 16.152 101.735 15.994 101.509 15.733 C 101.282 15.47 101.175 15.126 101.211 14.782 L 101.211 11.083 L 97.734 5.552 C 97.529 5.265 97.417 4.922 97.415 4.57 C 97.427 4.262 97.566 3.971 97.798 3.767 C 98.029 3.562 98.334 3.462 98.641 3.486 C 99.109 3.496 99.529 3.775 99.72 4.202 L 102.424 8.671 L 105.129 4.202 C 105.319 3.775 105.739 3.495 106.208 3.486 C 106.514 3.465 106.817 3.568 107.048 3.771 C 107.278 3.975 107.417 4.263 107.434 4.57 C 107.43 4.923 107.315 5.266 107.109 5.552 L 103.631 11.083 L 103.631 14.782 C 103.675 15.133 103.566 15.487 103.331 15.752 C 103.096 16.017 102.759 16.169 102.405 16.168 Z  M 110.199 16.118 C 109.073 16.169 107.982 15.72 107.218 14.891 C 106.694 14.318 106.387 13.579 106.353 12.803 C 106.341 12.458 106.478 12.126 106.729 11.89 C 106.959 11.689 107.255 11.579 107.56 11.583 C 107.593 11.583 107.629 11.583 107.663 11.586 C 108.318 11.639 108.496 12.104 108.686 12.597 C 108.917 13.19 109.147 13.803 110.222 13.803 L 110.267 13.803 C 111.453 13.786 111.981 13.091 111.981 11.553 L 111.981 4.869 C 111.981 4.003 112.433 3.482 113.191 3.482 C 113.543 3.482 113.879 3.635 114.11 3.901 C 114.342 4.167 114.448 4.52 114.4 4.869 L 114.4 11.501 C 114.399 14.52 112.949 16.117 110.199 16.117 L 110.199 16.118 Z  M 121.523 16.102 C 120.238 16.183 118.981 15.702 118.079 14.782 C 117.191 13.661 116.754 12.248 116.853 10.822 L 116.853 4.869 C 116.79 4.398 117.006 3.934 117.406 3.678 C 117.806 3.423 118.319 3.423 118.719 3.678 C 119.119 3.934 119.335 4.398 119.272 4.869 L 119.272 10.634 C 119.272 12.848 119.925 13.751 121.523 13.751 C 123.123 13.751 123.775 12.848 123.775 10.634 L 123.775 4.869 C 123.711 4.398 123.926 3.933 124.327 3.675 C 124.727 3.419 125.24 3.419 125.641 3.675 C 126.042 3.933 126.257 4.398 126.193 4.869 L 126.193 10.817 C 126.293 12.246 125.855 13.659 124.967 14.782 C 124.065 15.701 122.808 16.182 121.523 16.101 L 121.523 16.102 Z  M 128.818 7.901 C 128.149 7.901 127.794 7.262 127.794 6.053 L 127.794 5.102 C 127.794 4.008 128.194 3.485 129.054 3.453 C 129.879 3.453 130.297 3.889 130.297 4.752 C 130.225 5.637 130.01 6.503 129.659 7.318 C 129.52 7.663 129.19 7.891 128.818 7.901 Z " fill="rgb(144,62,151)"/><path d=" M 118.063 3.71 C 118.415 3.711 118.75 3.863 118.981 4.129 C 119.213 4.394 119.319 4.747 119.272 5.096 L 119.272 4.872 C 119.335 4.401 119.119 3.937 118.719 3.681 C 118.319 3.426 117.806 3.426 117.406 3.681 C 117.006 3.937 116.79 4.401 116.853 4.872 L 116.853 5.095 C 116.803 4.745 116.909 4.392 117.141 4.126 C 117.373 3.859 117.71 3.707 118.063 3.71 Z " fill="rgb(144,62,151)"/><path d=" M 119.272 10.858 C 119.272 13.224 120.042 13.974 121.523 13.974 C 123.003 13.974 123.775 13.224 123.775 10.858 L 123.775 10.633 C 123.775 13 123.005 13.751 121.523 13.751 C 120.041 13.751 119.272 13 119.272 10.633 L 119.272 10.858 Z " fill="rgb(144,62,151)"/><path d=" M 133.864 6.901 C 133.859 6.942 133.859 6.983 133.859 7.026 C 133.859 8.973 139.659 8.567 139.77 12.85 C 139.77 12.817 139.77 12.784 139.77 12.751 C 139.774 8.41 134.059 8.754 133.864 6.901 Z " fill="rgb(144,62,151)"/><path d=" M 98.64 3.71 C 99.109 3.719 99.529 3.998 99.719 4.426 L 102.422 8.891 L 105.126 4.424 C 105.317 3.995 105.736 3.717 106.205 3.707 C 106.808 3.666 107.341 4.098 107.426 4.697 C 107.426 4.655 107.431 4.611 107.431 4.566 C 107.415 4.258 107.275 3.97 107.043 3.766 C 106.813 3.562 106.509 3.462 106.201 3.486 C 105.733 3.495 105.312 3.774 105.122 4.202 L 102.422 8.669 L 99.715 4.202 C 99.527 3.775 99.107 3.496 98.64 3.486 C 98.334 3.463 98.03 3.565 97.799 3.768 C 97.568 3.973 97.43 4.261 97.414 4.568 C 97.414 4.614 97.414 4.656 97.419 4.699 C 97.505 4.101 98.037 3.669 98.64 3.71 Z " fill="rgb(144,62,151)"/><path d=" M 132.195 12.441 C 132.653 12.507 133.059 12.761 133.321 13.142 C 133.899 13.791 134.721 14.171 135.59 14.191 C 136.648 14.191 137.353 13.741 137.353 12.841 C 137.353 12.799 137.353 12.759 137.349 12.719 C 137.294 13.55 136.607 13.967 135.59 13.967 C 134.721 13.947 133.898 13.567 133.321 12.917 C 133.059 12.537 132.653 12.283 132.195 12.217 C 131.881 12.203 131.577 12.326 131.359 12.552 C 131.141 12.777 131.029 13.087 131.054 13.4 C 131.054 13.432 131.054 13.465 131.059 13.498 C 131.067 13.207 131.192 12.93 131.406 12.731 C 131.619 12.533 131.904 12.427 132.195 12.441 Z " fill="rgb(144,62,151)"/><path d=" M 135.237 3.526 C 136.152 3.505 137.056 3.729 137.856 4.176 C 138.667 4.569 139.262 5.303 139.478 6.178 C 139.483 6.141 139.486 6.103 139.485 6.064 C 139.485 5.198 138.613 4.382 137.856 3.949 C 137.056 3.503 136.152 3.28 135.237 3.303 C 133.321 3.336 131.439 4.369 131.439 6.835 C 131.439 6.874 131.439 6.913 131.439 6.949 C 131.498 4.563 133.35 3.559 135.237 3.526 Z " fill="rgb(144,62,151)"/><path d=" M 106.353 12.801 C 106.353 12.843 106.353 12.887 106.358 12.931 C 106.369 12.605 106.517 12.298 106.765 12.085 C 107.013 11.872 107.337 11.771 107.662 11.808 C 109.107 11.925 108.234 14.058 110.267 14.024 C 111.461 14.008 111.981 13.291 111.981 11.775 L 111.981 11.551 C 111.981 13.067 111.461 13.785 110.267 13.801 C 108.234 13.834 109.109 11.702 107.662 11.584 C 107.321 11.545 106.979 11.657 106.728 11.891 C 106.475 12.125 106.339 12.457 106.353 12.801 Z " fill="rgb(144,62,151)"/><path d=" M 124.984 3.486 C 124.631 3.487 124.296 3.64 124.065 3.905 C 123.833 4.171 123.727 4.523 123.774 4.873 L 123.774 5.097 C 123.711 4.626 123.927 4.162 124.327 3.906 C 124.727 3.65 125.24 3.65 125.64 3.906 C 126.04 4.162 126.256 4.626 126.193 5.097 L 126.193 4.873 C 126.242 4.523 126.138 4.169 125.905 3.903 C 125.673 3.637 125.337 3.485 124.984 3.486 Z " fill="rgb(144,62,151)"/><path d=" M 129.051 3.453 C 128.16 3.486 127.792 4.053 127.792 5.102 L 127.792 5.326 C 127.792 4.275 128.16 3.71 129.051 3.677 C 129.381 3.637 129.711 3.746 129.951 3.976 C 130.191 4.205 130.317 4.53 130.291 4.861 C 130.291 4.823 130.291 4.784 130.291 4.752 C 130.345 4.405 130.234 4.051 129.991 3.797 C 129.749 3.542 129.401 3.415 129.051 3.453 Z " fill="rgb(144,62,151)"/><path d=" M 113.19 3.486 C 112.434 3.486 111.981 4.003 111.981 4.873 L 111.981 5.097 C 111.981 4.226 112.434 3.71 113.19 3.71 C 113.542 3.711 113.877 3.864 114.109 4.129 C 114.341 4.395 114.446 4.747 114.399 5.097 L 114.399 4.873 C 114.446 4.523 114.339 4.171 114.109 3.906 C 113.877 3.64 113.542 3.487 113.19 3.486 Z " fill="rgb(144,62,151)"/><path d=" M 88.12 3.526 L 91.48 3.526 C 94.374 3.526 95.835 4.931 95.896 6.928 C 95.896 6.897 95.896 6.866 95.896 6.834 C 95.898 4.767 94.437 3.303 91.48 3.303 L 88.12 3.303 C 87.798 3.279 87.48 3.395 87.248 3.622 C 87.017 3.848 86.894 4.162 86.911 4.486 L 86.911 4.71 C 86.894 4.386 87.017 4.071 87.248 3.845 C 87.48 3.618 87.798 3.503 88.12 3.526 Z " fill="rgb(144,62,151)"/><path d=" M 92.27 8.319 C 91.48 8.469 90.976 8.785 90.976 9.535 C 90.976 9.575 90.976 9.613 90.981 9.65 C 91.029 8.978 91.52 8.685 92.27 8.542 C 92.607 8.53 92.926 8.385 93.157 8.138 C 93.386 7.891 93.509 7.562 93.496 7.225 C 93.496 7.185 93.496 7.149 93.491 7.11 C 93.449 7.822 92.991 8.189 92.27 8.319 Z " fill="rgb(144,62,151)"/><path d=" M 91.783 14.158 C 93.295 14.158 94.085 13.642 94.085 12.695 C 94.085 12.645 94.085 12.598 94.08 12.551 C 94.034 13.446 93.25 13.935 91.783 13.935 L 89.313 13.935 L 89.313 14.158 L 91.783 14.158 Z " fill="rgb(144,62,151)"/><path d=" M 94.37 9.485 C 94.361 9.48 94.355 9.471 94.354 9.461 C 94.354 9.449 94.36 9.439 94.37 9.432 L 94.37 9.432 L 94.237 9.536 C 94.217 9.551 94.207 9.575 94.209 9.6 C 94.213 9.625 94.229 9.646 94.251 9.656 L 94.37 9.707 C 95.659 10.166 96.529 11.377 96.551 12.745 C 96.551 12.697 96.551 12.649 96.551 12.601 C 96.551 12.238 96.494 11.878 96.382 11.531 C 96.051 10.583 95.313 9.831 94.37 9.485 Z " fill="rgb(144,62,151)"/><path d=" M 47.718 7.67 C 47.695 7.669 47.672 7.665 47.65 7.661 C 47.266 7.466 47.255 6.997 47.295 6.563 C 46.872 6.173 46.688 5.586 46.809 5.023 C 46.93 4.393 47.274 3.827 47.776 3.429 C 48.439 2.902 49.224 2.552 50.058 2.41 C 50.263 2.368 50.472 2.346 50.68 2.345 C 51.125 2.305 51.561 2.482 51.851 2.822 C 52.201 2.851 52.544 2.939 52.864 3.082 C 53.223 3.273 53.441 3.653 53.424 4.058 C 53.371 4.566 53.185 5.05 52.886 5.462 C 52.334 6.143 51.615 6.667 50.8 6.986 C 50.32 7.19 49.803 7.289 49.283 7.279 C 48.974 7.281 48.665 7.247 48.363 7.178 L 48.335 7.217 C 48.219 7.376 48.003 7.67 47.718 7.67 Z  M 51.781 3.792 C 50.625 3.792 49.826 4.725 49.238 5.405 C 49.071 5.599 48.949 5.829 48.881 6.077 C 49.002 6.169 49.155 6.21 49.306 6.192 C 49.472 6.189 49.635 6.174 49.799 6.145 C 51.269 5.898 52.174 5.365 52.49 4.559 C 52.559 4.354 52.517 4.129 52.379 3.963 L 52.129 3.816 C 52.014 3.799 51.897 3.791 51.781 3.792 Z  M 49.683 3.401 C 48.694 3.424 47.846 4.117 47.625 5.081 C 47.611 5.256 47.702 5.423 47.856 5.507 C 48.319 4.649 48.995 3.926 49.821 3.408 C 49.781 3.403 49.737 3.401 49.683 3.401 Z " fill="rgb(38,76,157)"/><path d=" M 62.279 8.088 C 62.869 8.963 63.264 9.955 63.439 10.998 C 63.598 11.907 63.497 12.843 63.146 13.698 C 62.936 14.091 62.491 14.678 61.863 14.439 C 61.293 14.014 60.838 13.454 60.537 12.809 C 60.179 12.224 59.794 11.514 59.454 10.874 C 59.416 10.809 59.317 10.714 59.262 10.777 C 59.231 10.873 59.215 10.974 59.216 11.074 C 59.162 12.087 59.099 13 59.062 13.983 C 59.055 14.253 58.966 14.513 58.808 14.731 C 58.626 14.81 58.421 14.814 58.238 14.738 C 57.682 14.459 57.721 13.77 57.721 13.173 C 57.769 12.719 57.798 12.213 57.869 11.744 C 57.979 10.826 58.201 9.926 58.528 9.061 C 58.595 8.885 58.736 8.747 58.913 8.686 C 59.278 8.608 59.583 9.109 59.713 9.272 C 60.494 10.261 61.149 11.334 61.898 12.385 C 61.995 12.52 62.04 12.659 62.151 12.606 C 62.274 12.529 62.174 11.898 62.106 11.51 C 62.014 10.934 61.885 10.365 61.721 9.805 C 61.494 9.157 61.329 8.488 61.231 7.808 C 61.197 7.646 61.19 7.48 61.21 7.317 C 61.257 7.169 61.442 7.197 61.558 7.239 C 61.869 7.454 62.118 7.746 62.279 8.087" fill="rgb(38,76,157)"/><path d=" M 69.507 9.029 C 69.597 9.157 69.762 9.381 69.68 9.49 C 69.269 9.945 68.575 9.734 68.032 9.792 L 66.641 9.834 C 66.497 9.879 66.479 10.026 66.425 10.137 C 66.325 10.36 66.278 10.603 66.288 10.848 L 66.377 10.903 C 67.041 10.854 67.71 10.882 68.368 10.989 C 68.473 11.035 68.504 11.439 68.487 11.688 C 68.421 11.927 67.734 11.926 67.361 11.938 C 66.879 11.959 66.422 11.945 65.958 11.952 C 65.863 12.115 65.739 12.354 65.638 12.551 C 65.561 12.763 65.315 13.082 65.519 13.375 C 65.65 13.565 67.344 12.875 68.386 12.955 C 68.525 12.963 68.792 13.446 68.771 13.766 C 68.742 13.849 68.69 13.923 68.623 13.981 C 67.771 14.579 66.813 15.007 65.798 15.238 C 65.213 15.361 64.613 15.117 64.279 14.621 C 63.904 14.117 63.8 13.461 63.998 12.865 C 64.152 12.43 64.393 12.037 64.547 11.573 C 64.517 11.498 64.493 11.421 64.474 11.342 C 64.49 11.238 64.433 11.094 64.547 11.033 C 64.669 10.976 64.793 10.926 64.92 10.883 C 65.091 10.65 65.213 10.384 65.275 10.102 C 65.327 9.993 65.368 9.882 65.401 9.768 C 65.139 9.664 64.759 9.661 64.47 9.517 C 64.233 9.41 63.966 9.146 64.083 8.864 C 64.439 8.575 65.739 8.541 66.666 8.411 C 67.287 8.301 67.918 8.243 68.549 8.242 C 68.721 8.249 68.885 8.321 69.006 8.445 L 69.507 9.029 Z " fill="rgb(38,76,157)"/><path d=" M 56.919 8.423 C 57.111 8.481 57.295 8.56 57.47 8.659 C 57.533 8.867 57.371 9.089 57.25 9.25 C 56.941 9.405 56.599 9.485 56.254 9.482 C 55.045 9.57 53.809 9.671 52.619 9.854 C 52.293 9.918 51.975 10.025 51.675 10.173 C 51.651 10.223 51.726 10.278 51.765 10.302 C 53.131 10.64 54.662 10.544 56.037 10.858 C 56.749 11.119 57.247 11.768 57.315 12.525 C 57.346 13.017 57.199 13.505 56.899 13.897 C 55.81 14.93 54.083 14.961 52.67 14.557 C 51.863 14.387 51.207 13.802 50.945 13.021 C 50.891 12.823 50.936 12.61 51.066 12.451 C 51.259 12.23 51.494 12.047 51.755 11.912 C 52.792 11.461 53.999 11.861 55.015 12.096 C 55.259 12.151 55.577 12.198 55.55 12.403 C 55.479 12.665 55.163 12.733 54.947 12.841 C 53.986 13.288 52.913 12.403 52.289 12.402 C 52.006 12.375 51.731 12.509 51.578 12.749 C 51.528 12.856 51.547 12.982 51.626 13.071 C 52.007 13.358 52.477 13.505 52.953 13.486 C 53.734 13.488 54.507 13.349 55.239 13.077 C 55.647 12.953 56.163 12.768 56.306 12.326 C 56.395 11.995 55.736 11.71 55.202 11.568 C 53.931 11.322 52.574 11.68 51.333 11.25 C 51.043 11.144 50.576 10.951 50.56 10.55 C 50.549 9.967 50.819 9.415 51.285 9.065 C 52.331 8.506 53.498 8.211 54.685 8.206 C 55.435 8.16 56.19 8.233 56.918 8.423" fill="rgb(38,76,157)"/><path d=" M 49.462 9.64 C 49.49 9.835 49.505 10.031 49.504 10.227 C 49.547 11.666 49.711 13.189 49.614 14.608 C 49.586 14.802 49.401 14.895 49.243 14.96 C 48.945 14.997 48.643 14.954 48.367 14.838 C 48.125 14.397 48.013 13.895 48.046 13.392 C 48 11.821 48.143 10.249 48.472 8.712 C 48.518 8.558 48.52 8.342 48.726 8.307 C 49.235 8.543 49.534 9.083 49.461 9.64" fill="rgb(38,76,157)"/><path d=" M 69.973 20.529 C 69.613 20.493 69.29 20.288 69.105 19.976 C 68.797 19.414 68.679 18.766 68.769 18.131 C 69.069 16.698 69.527 15.303 70.135 13.971 C 69.918 13.57 69.783 13.131 69.737 12.678 C 69.736 11.394 70.167 10.149 70.961 9.141 C 71.026 9.064 71.089 8.983 71.157 8.897 C 71.399 8.541 71.714 8.239 72.081 8.011 C 72.088 8.008 72.095 8.007 72.103 8.007 C 72.163 8.007 72.224 8.083 72.241 8.139 C 72.273 8.339 72.242 8.543 72.154 8.725 C 72.065 8.933 71.977 9.102 71.89 9.264 C 71.854 9.334 71.818 9.402 71.782 9.473 Q 71.686 9.666 71.589 9.858 C 71.331 10.369 71.067 10.898 70.861 11.422 L 70.855 11.439 C 70.657 11.842 70.626 12.307 70.769 12.733 C 70.781 12.709 70.838 12.626 70.897 12.539 C 70.955 12.453 71.024 12.352 71.039 12.321 C 71.68 11.331 72.439 10.422 73.297 9.613 L 73.374 9.536 C 73.734 9.069 74.255 8.751 74.834 8.648 C 75.009 8.649 75.181 8.695 75.331 8.782 C 75.657 9.072 75.905 9.44 76.05 9.851 C 76.369 10.731 76.274 11.707 75.792 12.51 C 75.334 13.248 74.728 13.882 74.013 14.375 C 73.424 14.782 72.726 15 72.01 15.001 C 71.953 15.001 71.897 15.001 71.84 14.997 C 71.671 15.275 71.52 15.566 71.391 15.864 C 71.023 16.889 70.714 17.935 70.466 18.994 L 70.249 20.338 C 70.222 20.433 70.144 20.505 70.048 20.526 C 70.023 20.528 69.998 20.529 69.973 20.529 Z  M 74.993 9.865 C 74.961 9.864 74.931 9.88 74.915 9.906 C 74.287 10.677 73.638 11.479 72.944 12.441 C 72.882 12.526 72.824 12.603 72.767 12.681 C 72.606 12.897 72.454 13.101 72.259 13.402 C 72.257 13.407 72.257 13.413 72.259 13.417 C 72.267 13.433 72.306 13.453 72.437 13.453 C 72.558 13.45 72.678 13.441 72.798 13.425 C 73.679 13.17 74.449 12.625 74.984 11.879 C 75.195 11.514 75.31 11.102 75.317 10.681 C 75.305 10.417 75.234 10.16 75.111 9.927 C 75.083 9.888 75.04 9.865 74.993 9.865 Z " fill="rgb(38,76,157)"/><g><path d=" M 27.957 1 L 47.633 1 L 47.633 16.601 L 27.957 16.601 L 27.957 1 Z " fill="none"/><clipPath id="_clipPath_vAjeSMgjeqSSOyBfueEi9yft78aledr9"><path d=" M 27.957 1 L 47.633 1 L 47.633 16.601 L 27.957 16.601 L 27.957 1 Z " fill="rgb(255,255,255)"/></clipPath><g clip-path="url(#_clipPath_vAjeSMgjeqSSOyBfueEi9yft78aledr9)"><g><g><path d=" M 36.437 16.6 C 36.166 16.622 35.903 16.506 35.737 16.293 C 35.527 15.866 35.4 15.405 35.365 14.931 C 33.633 14.128 32.125 12.911 30.974 11.387 C 30.779 11.049 30.807 10.627 31.045 10.317 C 32.095 9.217 33.635 8.887 35.255 8.622 C 35.353 8.605 35.454 8.595 35.554 8.594 L 35.581 8.594 C 35.584 8.53 35.587 8.464 35.59 8.392 C 35.592 8.181 35.613 7.971 35.653 7.763 C 35.674 7.206 35.739 6.649 35.846 6.099 C 35.877 5.912 35.91 5.72 35.937 5.534 C 35.937 5.515 35.942 5.497 35.945 5.478 C 35.969 5.299 35.993 5.131 36.15 5.062 C 36.176 5.053 36.203 5.048 36.231 5.048 C 36.399 5.048 36.574 5.23 36.75 5.587 C 36.879 6.005 36.974 6.431 37.032 6.863 C 37.088 7.326 37.129 7.781 37.166 8.181 L 37.184 8.385 L 37.278 8.402 C 37.466 8.395 37.654 8.391 37.833 8.391 C 38.408 8.391 38.982 8.432 39.55 8.515 L 39.818 8.559 L 39.821 8.559 C 40.737 8.627 41.622 8.922 42.395 9.417 C 43.007 9.947 43.239 10.459 43.104 10.984 C 42.938 11.479 42.563 11.877 42.079 12.07 C 41.981 12.094 41.881 12.105 41.781 12.105 C 41.461 12.096 41.147 12.005 40.872 11.841 L 40.872 11.753 C 41.331 11.606 41.682 11.231 41.797 10.761 C 41.792 10.586 41.334 10.498 41.033 10.44 C 40.977 10.43 40.925 10.419 40.882 10.41 C 39.995 10.195 39.095 10.04 38.186 9.947 C 37.954 9.926 37.721 9.915 37.488 9.917 C 37.406 9.917 37.32 9.917 37.229 9.917 L 37.232 9.984 C 37.28 10.571 37.296 11.162 37.28 11.751 C 37.28 12.109 37.28 12.423 37.28 12.726 C 37.28 13.265 37.28 13.722 37.265 14.248 L 37.37 14.287 C 38.05 14.439 38.745 14.513 39.442 14.509 C 39.611 14.509 39.779 14.509 39.958 14.503 C 40.137 14.498 40.32 14.497 40.518 14.497 C 41.923 14.393 43.28 13.93 44.457 13.154 C 45.227 12.68 45.719 11.862 45.777 10.959 C 45.799 10.381 45.663 9.807 45.385 9.301 C 45.298 9.097 45.215 8.906 45.149 8.714 C 44.333 7.526 43.319 6.486 42.152 5.639 C 39.688 3.984 36.887 2.898 33.951 2.463 L 33.93 2.463 C 32.969 2.326 32.001 2.249 31.031 2.232 C 30.686 2.232 30.359 2.245 30.029 2.273 L 30.003 2.273 C 29.673 2.272 29.351 2.373 29.079 2.561 C 29.12 2.672 29.253 2.738 29.381 2.802 C 29.427 2.825 29.472 2.847 29.511 2.871 L 29.546 2.895 C 29.635 2.951 29.688 2.985 29.688 3.079 C 29.525 3.229 29.309 3.309 29.087 3.298 C 28.989 3.307 28.89 3.312 28.792 3.311 C 28.518 3.336 28.242 3.261 28.022 3.096 C 27.965 3.026 27.944 2.933 27.965 2.845 C 28.069 2.386 28.313 1.973 28.664 1.659 C 29.835 1.198 31.088 0.973 32.347 0.999 C 33.851 1.019 35.347 1.226 36.8 1.616 L 37.253 1.754 C 37.895 1.95 38.558 2.152 39.178 2.407 C 41.622 3.319 43.829 4.77 45.634 6.651 C 46.359 7.434 46.939 8.337 47.352 9.319 L 47.357 9.336 C 47.583 9.942 47.667 10.592 47.605 11.237 C 47.338 12.658 46.461 13.891 45.203 14.609 C 44.184 15.247 43.031 15.642 41.835 15.765 C 41.344 15.821 40.851 15.846 40.358 15.841 C 39.338 15.861 38.319 15.783 37.314 15.61 C 37.325 15.954 37.181 16.285 36.921 16.511 C 36.767 16.571 36.602 16.601 36.437 16.6 Z  M 34.326 10.051 C 34.058 10.109 33.79 10.149 33.53 10.186 C 32.787 10.229 32.07 10.467 31.45 10.879 C 31.351 11.007 31.353 11.185 31.456 11.31 C 32.346 12.328 33.482 13.102 34.755 13.557 C 34.962 13.638 35.177 13.696 35.397 13.73 C 35.392 12.834 35.441 11.959 35.494 11.039 L 35.494 11.033 Q 35.51 10.76 35.525 10.478 C 35.533 10.329 35.531 10.181 35.521 10.032 C 35.422 10.014 35.321 10.005 35.222 10.006 C 35.09 10.006 34.954 10.017 34.824 10.029 L 34.807 10.029 C 34.681 10.038 34.552 10.049 34.429 10.049 C 34.392 10.049 34.357 10.049 34.323 10.049 L 34.323 10.049 L 34.326 10.051 Z " fill="rgb(38,76,157)"/></g></g></g></g><path d=" M 82.146 12.367 C 82.15 12.822 81.879 13.233 81.459 13.41 C 81.041 13.586 80.557 13.493 80.234 13.173 C 79.912 12.853 79.814 12.369 79.987 11.949 C 80.16 11.529 80.569 11.255 81.024 11.255 C 81.641 11.253 82.143 11.75 82.146 12.367 Z " fill="rgb(168,170,173)"/><path d=" M 27.957 81 L 142.043 81 L 142.043 1 L 27.957 1 L 27.957 81 Z " fill="none"/><clipPath id="_clipPath_7mTIkxQEIyR9UWT31dlVcusvpBsmYYQG"><path d=" M 27.957 81 L 142.043 81 L 142.043 1 L 27.957 1 L 27.957 81 Z " fill="rgb(255,255,255)"/></clipPath><g clip-path="url(#_clipPath_7mTIkxQEIyR9UWT31dlVcusvpBsmYYQG)"><g><g><path d=" M 31.16 24.069 L 142.045 24.069 L 142.045 23.435 L 31.16 23.435 L 31.16 24.069 Z " fill="rgb(168,170,173)"/><path d=" M 81.197 53.19 C 80.625 53.195 80.074 52.976 79.664 52.578 C 79.234 52.186 78.997 51.627 79.01 51.047 L 79.01 35.92 C 78.999 35.347 79.227 34.797 79.639 34.399 C 80.05 33.986 80.614 33.761 81.197 33.776 L 89.915 33.776 C 90.461 33.767 90.99 33.962 91.398 34.325 C 91.806 34.662 92.038 35.166 92.03 35.695 C 92.037 36.227 91.843 36.743 91.49 37.141 C 91.144 37.55 90.631 37.778 90.096 37.763 L 83.383 37.763 L 83.383 41.65 L 88.609 41.65 C 89.103 41.648 89.577 41.842 89.928 42.19 C 90.291 42.517 90.497 42.984 90.494 43.473 C 90.49 43.965 90.302 44.437 89.965 44.794 C 89.797 44.961 89.6 45.096 89.385 45.193 C 89.154 45.296 88.905 45.346 88.653 45.343 L 83.383 45.343 L 83.383 49.426 L 89.658 49.426 C 90.197 49.406 90.725 49.568 91.158 49.888 C 91.557 50.202 91.777 50.691 91.75 51.198 C 91.765 51.723 91.571 52.234 91.21 52.617 C 90.85 53.001 90.342 53.21 89.816 53.192 L 81.197 53.19 Z " fill="rgb(0,151,219)"/><path d=" M 82.85 69.954 L 88.407 69.954 C 88.958 69.945 89.488 70.165 89.871 70.562 C 90.266 70.957 90.483 71.495 90.472 72.054 C 90.486 72.592 90.272 73.112 89.882 73.485 C 89.487 73.867 88.953 74.074 88.403 74.057 L 80.759 74.057 C 80.213 74.063 79.687 73.853 79.295 73.473 C 78.886 73.105 78.656 72.579 78.666 72.03 L 78.666 57.359 C 78.659 56.802 78.891 56.269 79.303 55.893 C 79.688 55.504 80.211 55.285 80.759 55.283 C 81.312 55.274 81.846 55.489 82.238 55.88 C 82.642 56.264 82.866 56.801 82.855 57.359 L 82.85 69.954 Z " fill="rgb(144,62,151)"/><path d=" M 97.594 74.224 C 95.811 74.249 94.112 73.472 92.963 72.109 C 91.742 70.744 91.077 68.971 91.099 67.141 C 91.053 65.353 91.818 63.64 93.179 62.481 C 94.586 61.273 96.39 60.63 98.243 60.675 C 99.162 60.634 100.078 60.814 100.913 61.199 C 101.622 61.547 102.246 62.047 102.741 62.663 C 103.209 63.187 103.539 63.819 103.703 64.504 L 103.871 65.451 C 103.893 65.765 103.793 66.075 103.594 66.318 C 103.406 66.52 103.182 66.686 102.933 66.806 L 95.911 69.573 C 96.472 70.206 97.239 70.619 98.075 70.741 C 98.392 70.742 98.704 70.67 98.989 70.53 L 99.614 70.154 L 100.24 69.639 C 100.552 69.386 100.944 69.253 101.346 69.263 C 101.825 69.27 102.278 69.487 102.584 69.856 C 102.925 70.206 103.118 70.673 103.123 71.161 C 103.104 71.618 102.925 72.055 102.618 72.394 L 102.185 72.799 C 101.529 73.311 100.769 73.677 99.959 73.869 C 99.189 74.086 98.394 74.205 97.594 74.224 Z  M 97.879 64.349 C 97.448 64.362 97.024 64.458 96.629 64.632 C 96.133 64.849 95.709 65.201 95.405 65.649 C 95.098 66.096 94.931 66.623 94.925 67.163 L 99.827 65.104 C 99.779 64.937 99.552 64.76 99.153 64.578 C 98.962 64.509 98.766 64.455 98.566 64.417 C 98.339 64.373 98.11 64.35 97.879 64.349 Z " fill="rgb(144,62,151)"/><path d=" M 109.933 74.224 L 109.933 74.224 C 109.288 74.231 108.646 74.134 108.032 73.937 C 107.431 73.731 106.871 73.425 106.374 73.029 C 105.397 72.295 104.825 71.142 104.833 69.92 C 104.818 68.675 105.24 67.465 106.024 66.499 C 106.774 65.537 107.897 64.937 109.114 64.85 C 110.27 64.848 111.409 65.127 112.433 65.661 L 112.433 65.088 C 112.459 64.798 112.41 64.505 112.289 64.24 C 112.15 64.029 111.953 63.862 111.723 63.757 C 111.389 63.571 111.011 63.479 110.63 63.487 C 110.429 63.481 110.227 63.493 110.029 63.521 C 109.853 63.565 109.68 63.618 109.512 63.685 C 109.281 63.769 109.11 63.838 109.007 63.881 C 108.846 63.958 108.689 64.043 108.538 64.137 C 108.405 64.21 108.264 64.269 108.118 64.311 C 107.971 64.352 107.823 64.378 107.672 64.392 C 107.258 64.448 106.849 64.266 106.613 63.922 C 106.499 63.656 106.419 63.378 106.374 63.093 C 106.345 62.599 106.584 62.128 107 61.859 L 107.792 61.315 L 108.802 60.913 C 109.485 60.736 110.189 60.656 110.894 60.675 C 111.6 60.673 112.304 60.766 112.985 60.949 C 113.621 61.112 114.213 61.414 114.718 61.831 C 115.237 62.299 115.61 62.905 115.797 63.578 C 116.069 64.592 116.19 65.64 116.158 66.689 L 116.158 71.774 C 116.158 72.087 116.15 72.319 116.134 72.464 C 116.102 72.661 116.045 72.853 115.965 73.034 C 115.856 73.398 115.61 73.704 115.279 73.89 C 114.953 74.102 114.574 74.217 114.185 74.223 C 113.933 74.223 113.683 74.17 113.453 74.069 C 113.071 73.826 112.746 73.504 112.502 73.123 C 112.089 73.411 111.65 73.661 111.192 73.867 C 110.791 74.048 110.366 74.167 109.929 74.221 L 109.933 74.224 Z  M 110.678 67.686 C 110.184 67.686 109.707 67.87 109.343 68.201 C 108.959 68.527 108.743 69.008 108.753 69.511 C 108.753 70.005 108.937 70.48 109.271 70.845 C 109.598 71.226 110.078 71.441 110.581 71.431 C 111.077 71.437 111.557 71.258 111.928 70.928 C 112.309 70.598 112.52 70.114 112.505 69.611 C 112.505 69.118 112.321 68.642 111.987 68.278 C 111.663 67.894 111.181 67.677 110.678 67.686 Z " fill="rgb(144,62,151)"/><path d=" M 125.174 60.746 C 125.595 60.823 125.965 61.074 126.189 61.44 C 126.411 61.798 126.529 62.211 126.527 62.633 C 126.526 63.03 126.447 63.422 126.295 63.789 C 126.134 64.174 125.85 64.496 125.489 64.706 C 125.118 64.893 124.706 64.99 124.29 64.99 C 123.997 65.009 123.702 64.967 123.425 64.866 L 122.703 64.519 C 122.512 64.403 122.299 64.328 122.078 64.297 C 121.926 64.313 121.779 64.358 121.645 64.429 Q 121.355 64.559 121.355 65.346 L 121.355 72.527 C 121.336 72.968 121.136 73.382 120.803 73.672 C 120.472 74.022 120.01 74.221 119.528 74.221 C 119.038 74.217 118.567 74.031 118.206 73.698 C 117.87 73.405 117.67 72.985 117.651 72.539 L 117.651 62.173 C 117.649 61.75 117.85 61.352 118.191 61.103 C 118.57 60.81 119.038 60.659 119.517 60.675 C 119.957 60.654 120.397 60.728 120.807 60.891 C 121.118 61.048 121.326 61.353 121.355 61.701 C 121.759 61.368 122.217 61.107 122.71 60.93 C 123.239 60.752 123.795 60.666 124.354 60.675 L 125.174 60.746 Z " fill="rgb(144,62,151)"/><path d=" M 131.601 72.539 C 131.57 72.981 131.357 73.39 131.011 73.666 C 130.31 74.392 129.153 74.413 128.426 73.712 C 128.079 73.417 127.877 72.986 127.873 72.53 L 127.873 67.762 Q 127.873 66.376 127.945 65.481 C 127.976 64.985 128.064 64.494 128.21 64.018 C 128.387 63.352 128.745 62.749 129.245 62.273 C 129.445 62.085 129.657 61.909 129.881 61.749 Q 130.302 61.441 130.543 61.295 C 130.915 61.094 131.313 60.942 131.725 60.842 L 132.707 60.675 L 133.622 60.675 C 134.28 60.666 134.936 60.755 135.569 60.937 C 136.306 61.142 137 61.481 137.613 61.938 C 138.35 62.395 138.929 63.067 139.272 63.864 C 139.439 64.263 139.568 64.675 139.657 65.097 C 139.755 65.55 139.803 66.013 139.802 66.477 L 139.802 72.539 C 139.773 72.981 139.559 73.391 139.213 73.669 C 138.874 74.017 138.411 74.218 137.926 74.226 C 137.435 74.224 136.965 74.038 136.603 73.705 C 136.267 73.41 136.066 72.99 136.05 72.542 L 136.05 66.485 C 136.049 65.911 135.815 65.363 135.401 64.966 C 134.989 64.531 134.414 64.29 133.815 64.302 C 133.245 64.298 132.694 64.51 132.273 64.895 C 131.832 65.274 131.585 65.832 131.601 66.415 L 131.601 72.539 Z " fill="rgb(144,62,151)"/></g></g></g></g></g></svg>