<svg xmlns="http://www.w3.org/2000/svg" xmlns:xlink="http://www.w3.org/1999/xlink" width="249.422" height="59.102" viewBox="0 0 249.422 59.102">
  <defs>
    <clipPath id="clip-path">
      <path id="Clip_2" data-name="Clip 2" d="M0,0H59.182V59.1H0Z" transform="translate(0 0.389)" fill="none"/>
    </clipPath>
    <clipPath id="clip-path-2">
      <path id="Clip_5" data-name="Clip 5" d="M3.426,0A3.423,3.423,0,0,0,0,3.421H0V22.8a5.734,5.734,0,0,0,5.738,5.73H53.444a5.734,5.734,0,0,0,5.738-5.73h0V3.421A3.424,3.424,0,0,0,55.757,0H3.426Z" transform="translate(0 0.451)" fill="none"/>
    </clipPath>
    <clipPath id="clip-path-3">
      <path id="Clip_8" data-name="Clip 8" d="M5.738,0A5.734,5.734,0,0,0,0,5.73H0V25.111a3.424,3.424,0,0,0,3.426,3.422h52.33a3.424,3.424,0,0,0,3.426-3.422h0V5.73A5.734,5.734,0,0,0,53.444,0H5.738Z" transform="translate(0 0.389)" fill="none"/>
    </clipPath>
    <clipPath id="clip-path-4">
      <path id="Clip_19" data-name="Clip 19" d="M0,0H178.441V44.118H0Z" transform="translate(0.206 0.254)" fill="none"/>
    </clipPath>
    <clipPath id="clip-path-5">
      <path id="Clip_26" data-name="Clip 26" d="M0,0H19.962V20.223H0Z" transform="translate(0.335 0.278)" fill="none"/>
    </clipPath>
  </defs>
  <g id="Group_51" data-name="Group 51" transform="translate(0 -0.508)">
    <g id="Group_3" data-name="Group 3" transform="translate(0 0.119)">
      <path id="Clip_2-2" data-name="Clip 2" d="M0,0H59.182V59.1H0Z" transform="translate(0 0.389)" fill="none"/>
      <g id="Group_3-2" data-name="Group 3" clip-path="url(#clip-path)">
        <path id="Fill_1" data-name="Fill 1" d="M5.738,59.1A5.734,5.734,0,0,1,0,53.372V5.73A5.734,5.734,0,0,1,5.738,0H53.444a5.734,5.734,0,0,1,5.738,5.73V53.372a5.734,5.734,0,0,1-5.738,5.73Z" transform="translate(0 0.389)" fill="#eeeeef"/>
      </g>
    </g>
    <g id="Group_6" data-name="Group 6" transform="translate(0 30.627)">
      <path id="Clip_5-2" data-name="Clip 5" d="M3.426,0A3.423,3.423,0,0,0,0,3.421H0V22.8a5.734,5.734,0,0,0,5.738,5.73H53.444a5.734,5.734,0,0,0,5.738-5.73h0V3.421A3.424,3.424,0,0,0,55.757,0H3.426Z" transform="translate(0 0.451)" fill="none"/>
      <g id="Group_6-2" data-name="Group 6" clip-path="url(#clip-path-2)">
        <path id="Fill_4" data-name="Fill 4" d="M3.426,0A3.423,3.423,0,0,0,0,3.421H0V22.8a5.734,5.734,0,0,0,5.738,5.73H53.444a5.734,5.734,0,0,0,5.738-5.73h0V3.421A3.424,3.424,0,0,0,55.757,0H3.426Z" transform="translate(0 0.451)" fill="none"/>
      </g>
    </g>
    <g id="Group_9" data-name="Group 9" transform="translate(0 0.119)">
      <path id="Clip_8-2" data-name="Clip 8" d="M5.738,0A5.734,5.734,0,0,0,0,5.73H0V25.111a3.424,3.424,0,0,0,3.426,3.422h52.33a3.424,3.424,0,0,0,3.426-3.422h0V5.73A5.734,5.734,0,0,0,53.444,0H5.738Z" transform="translate(0 0.389)" fill="none"/>
      <g id="Group_9-2" data-name="Group 9" clip-path="url(#clip-path-3)">
        <path id="Fill_7" data-name="Fill 7" d="M5.738,0A5.734,5.734,0,0,0,0,5.73H0V25.111a3.424,3.424,0,0,0,3.426,3.422h52.33a3.424,3.424,0,0,0,3.426-3.422h0V5.73A5.734,5.734,0,0,0,53.444,0H5.738Z" transform="translate(0 0.389)" fill="none"/>
      </g>
    </g>
    <g id="Group_50" data-name="Group 50" transform="translate(1.527 2.153)">
      <path id="Fill_10" data-name="Fill 10" d="M3.731,55.317A3.729,3.729,0,0,1,0,51.591V3.727A3.729,3.729,0,0,1,3.731,0h47.93a3.729,3.729,0,0,1,3.731,3.727V51.591a3.729,3.729,0,0,1-3.731,3.726Z" transform="translate(0.368 0.248)" fill="#eeeeef"/>
      <path id="Fill_12" data-name="Fill 12" d="M22.546,34.042h0l-11.5,3.315A1.838,1.838,0,0,1,8.772,36.1L.073,6A1.834,1.834,0,0,1,1.328,3.73L13.227.3a7.464,7.464,0,0,1,7.639,2.134,8.181,8.181,0,0,1-.53,11.872,10.072,10.072,0,0,1,2.21,19.735" transform="translate(14.26 9.104)" fill="#4b205a"/>
      <path id="Fill_14" data-name="Fill 14" d="M12.586,41.866h0a3.691,3.691,0,0,1-3.529-2.653L.145,8.379a3.667,3.667,0,0,1,2.51-4.541L14.878.314A8.489,8.489,0,0,1,17.228,0a10.646,10.646,0,0,1,8.055,3.607,10.965,10.965,0,0,1,2.369,5.831,10.25,10.25,0,0,1-1.125,5.6,12.388,12.388,0,0,1,5.979,4.951,12.915,12.915,0,0,1,1.8,8.318,11.542,11.542,0,0,1-2.836,6.082,11.937,11.937,0,0,1-5.573,3.785L13.6,41.721A3.683,3.683,0,0,1,12.586,41.866ZM17.667,2.126a7.623,7.623,0,0,0-2.11.3L3.638,5.86A1.835,1.835,0,0,0,2.382,8.132l8.7,30.1a1.838,1.838,0,0,0,2.274,1.254l11.5-3.316a10.072,10.072,0,0,0-2.209-19.735,8.131,8.131,0,0,0,2.807-5.6,8.578,8.578,0,0,0-2.29-6.286A7.37,7.37,0,0,0,17.667,2.126Z" transform="translate(11.949 6.974)" fill="#813588"/>
      <path id="Fill_16" data-name="Fill 16" d="M26.043,23.129a9.294,9.294,0,0,0-9.2-9.286,7.911,7.911,0,0,0,.6-11.378A7.253,7.253,0,0,0,9.949.289L0,3.157,8.687,33.212a1.837,1.837,0,0,0,2.274,1.253l8.165-2.354.118-.037a9.293,9.293,0,0,0,6.8-8.946" transform="translate(14.345 11.994)" fill="#813588"/>
      <g id="Group_20" data-name="Group 20" transform="translate(69.246 5.593)">
        <path id="Clip_19-2" data-name="Clip 19" d="M0,0H178.441V44.118H0Z" transform="translate(0.206 0.254)" fill="none"/>
        <g id="Group_20-2" data-name="Group 20" clip-path="url(#clip-path-4)">
          <path id="Fill_18" data-name="Fill 18" d="M164.377,44.118a18.841,18.841,0,0,1-8.3-1.812,16.277,16.277,0,0,1-5.537-4.361,5.9,5.9,0,0,1-1.531-3.624,3.722,3.722,0,0,1,3.857-4.021c1.574,0,2.922,1.358,3.8,2.379,2.57,2.5,4.859,3.568,7.655,3.568,3.784,0,5.954-1.672,5.954-4.587a5.158,5.158,0,0,0-2.494-4.328,29.493,29.493,0,0,0-5.759-2.877c-5.488-2.294-11.709-4.894-11.709-12.446a12.8,12.8,0,0,1,1.094-5.4A10.269,10.269,0,0,1,154.3,2.9,14.446,14.446,0,0,1,163.13,0a17.2,17.2,0,0,1,8.847,2.209c2.538,1.464,5.5,4.226,5.5,7.193a3.172,3.172,0,0,1-1.162,2.463,4.182,4.182,0,0,1-2.694.934c-1.741,0-2.8-1.109-3.826-2.181a11.235,11.235,0,0,0-1.221-1.16,8.248,8.248,0,0,0-5.387-1.643,5.24,5.24,0,0,0-3.459,1.062,3.825,3.825,0,0,0-1.248,3.016c0,1.226.66,2.252,2.078,3.229a30.2,30.2,0,0,0,4.955,2.454c5.761,2.465,12.93,5.533,12.93,14.535A10.965,10.965,0,0,1,174.281,41,15.892,15.892,0,0,1,164.377,44.118Zm-148.62-.281h0l-.388,0L4.083,43.722A4.094,4.094,0,0,1,1.127,42.6,3.971,3.971,0,0,1,0,39.7V4.021A3.975,3.975,0,0,1,1.127,1.1,4.116,4.116,0,0,1,4.083,0H15.426a22.24,22.24,0,0,1,6.541.889A13,13,0,0,1,26.626,3.37a10.964,10.964,0,0,1,3.715,8.637c0,3.588-1.785,6.643-5.162,8.834a.112.112,0,0,0-.051.093.09.09,0,0,0,.051.077,12.113,12.113,0,0,1,5.409,4.17A11.086,11.086,0,0,1,32.552,31.6a10.75,10.75,0,0,1-3.662,8.64C26.072,42.628,21.653,43.837,15.757,43.837ZM8.11,7.476V36.132h8.336a10.805,10.805,0,0,0,5.8-1.281,4.154,4.154,0,0,0,1.971-3.7c0-3.588-1.676-5.107-6.182-5.607a5.392,5.392,0,0,1-3.155-1.331,4.043,4.043,0,0,1-1.155-3.03,3.5,3.5,0,0,1,1.184-2.832,6.783,6.783,0,0,1,3.183-1.3c2.747-.487,4.14-1.992,4.14-4.474a5.227,5.227,0,0,0-1.276-3.7,5.062,5.062,0,0,0-3.828-1.4ZM52.3,43.722a3.78,3.78,0,0,1-2.822-1.246,5.01,5.01,0,0,1-1.205-3.455V26.448l-11.74-18.8A5.85,5.85,0,0,1,35.458,4.3a3.469,3.469,0,0,1,1.2-2.626A4.416,4.416,0,0,1,39.6.623c1.767,0,2.729.974,3.63,2.435l9.131,15.179L61.489,3.058C62.39,1.6,63.351.623,65.118.623A4.416,4.416,0,0,1,68.06,1.678a3.469,3.469,0,0,1,1.2,2.626A5.842,5.842,0,0,1,68.18,7.646l-11.739,18.8V39.021C56.442,41.877,54.817,43.722,52.3,43.722Zm26.314-.17c-5.278,0-8.387-2.267-10.066-4.17a11.3,11.3,0,0,1-2.921-7.1,4.056,4.056,0,0,1,1.271-3.1,4.141,4.141,0,0,1,2.8-1.049c.116,0,.233,0,.348.014,2.208.179,2.811,1.76,3.449,3.433.769,2.016,1.564,4.1,5.183,4.1h.158a5.193,5.193,0,0,0,4.4-1.911c.93-1.243,1.382-3.119,1.382-5.734V5.324c0-2.943,1.526-4.7,4.083-4.7a3.817,3.817,0,0,1,2.935,1.246,5.075,5.075,0,0,1,1.148,3.455V27.864c0,5.059-1.2,8.97-3.559,11.624C86.837,42.185,83.264,43.552,78.616,43.552Zm38.223-.057c-5.031,0-8.942-1.512-11.626-4.5-2.747-3.054-4.14-7.582-4.14-13.458V5.324A5.109,5.109,0,0,1,102.2,1.869a4.1,4.1,0,0,1,5.891,0,5.074,5.074,0,0,1,1.149,3.455v19.6c0,3.923.631,6.641,1.928,8.311,1.208,1.555,3.01,2.279,5.671,2.279s4.463-.724,5.672-2.279c1.3-1.67,1.928-4.388,1.928-8.311V5.324a5.074,5.074,0,0,1,1.149-3.455,4.1,4.1,0,0,1,5.891,0,5.109,5.109,0,0,1,1.127,3.455V25.542c0,5.876-1.393,10.4-4.14,13.458C125.782,41.983,121.87,43.5,116.839,43.5Zm24.619-27.864c-2.263,0-3.459-2.174-3.459-6.286V6.116c0-3.716,1.351-5.5,4.252-5.607a4.089,4.089,0,0,1,3.2,1.189,4.727,4.727,0,0,1,.993,3.229,27.913,27.913,0,0,1-2.156,8.722A3.151,3.151,0,0,1,141.458,15.631Z" transform="translate(0.206 0.254)" fill="#eeeeef"/>
        </g>
      </g>
      <path id="Fill_21" data-name="Fill 21" d="M4.084.761c2.382,0,4.084,1.756,4.084,4.7V4.7c0-2.945-1.7-4.7-4.084-4.7C1.645,0,0,1.756,0,4.7v.761C0,2.516,1.645.761,4.084.761" transform="translate(170.526 6.47)" fill="#fefefe"/>
      <path id="Fill_23" data-name="Fill 23" d="M0,.761C0,8.8,2.608,11.351,7.6,11.351S15.2,8.8,15.2.761V0c0,8.042-2.608,10.591-7.6,10.591S0,8.042,0,0Z" transform="translate(178.693 30.767)" fill="#fefefe"/>
      <g id="Group_27" data-name="Group 27" transform="translate(227.597 17.797)">
        <path id="Clip_26-2" data-name="Clip 26" d="M0,0H19.962V20.223H0Z" transform="translate(0.335 0.278)" fill="none"/>
        <g id="Group_27-2" data-name="Group 27" clip-path="url(#clip-path-5)">
          <path id="Fill_25" data-name="Fill 25" d="M.018,0C.007.139,0,.28,0,.427c0,6.619,19.579,5.24,19.953,19.8,0-.113.009-.224.009-.338C19.962,5.132.675,6.3.018,0" transform="translate(0.335 0.278)" fill="#fefefe"/>
        </g>
      </g>
      <path id="Fill_28" data-name="Fill 28" d="M4.14.761C5.9.761,6.862,1.724,7.769,3.2L16.9,18.374,26.031,3.2C26.938,1.724,27.9.761,29.66.761a3.906,3.906,0,0,1,4.123,3.364c.01-.143.017-.291.017-.443A3.867,3.867,0,0,0,29.66,0C27.9,0,26.938.963,26.031,2.435L16.9,17.614,7.769,2.435C6.862.963,5.9,0,4.14,0A3.867,3.867,0,0,0,0,3.681c0,.152.007.3.017.443A3.905,3.905,0,0,1,4.14.761" transform="translate(104.911 6.47)" fill="#fefefe"/>
      <path id="Fill_30" data-name="Fill 30" d="M3.856.761c1.475,0,2.779,1.189,3.8,2.379,2.212,2.152,4.48,3.568,7.656,3.568,3.573,0,5.955-1.529,5.955-4.587,0-.141-.006-.279-.017-.414-.177,2.825-2.5,4.241-5.937,4.241-3.176,0-5.444-1.416-7.656-3.568C6.635,1.189,5.331,0,3.856,0A3.722,3.722,0,0,0,0,4.021c0,.108.009.221.019.334A3.682,3.682,0,0,1,3.856.761" transform="translate(218.461 36.147)" fill="#fefefe"/>
      <path id="Fill_32" data-name="Fill 32" d="M12.817.761a17.2,17.2,0,0,1,8.847,2.209c2.444,1.41,5.244,4.014,5.479,6.818a3.424,3.424,0,0,0,.023-.386c0-2.945-2.949-5.72-5.5-7.193A17.194,17.194,0,0,0,12.817,0C6.352.113,0,3.624,0,12.007c0,.131.005.257.009.385C.2,4.283,6.45.872,12.817.761" transform="translate(219.766 5.847)" fill="#fefefe"/>
      <path id="Fill_34" data-name="Fill 34" d="M0,4.248c0,.144.006.293.015.445A3.969,3.969,0,0,1,4.424.874c4.877.4,1.928,7.646,8.79,7.533C17.24,8.35,19,5.915,19,.761V0c0,5.154-1.759,7.589-5.785,7.646C6.352,7.759,9.3.51,4.424.113A3.984,3.984,0,0,0,0,4.248" transform="translate(135.082 33.881)" fill="#fefefe"/>
      <path id="Fill_36" data-name="Fill 36" d="M4.084,0C1.7,0,0,1.756,0,4.7v.76C0,2.516,1.7.761,4.084.761c2.439,0,4.084,1.755,4.084,4.7V4.7C8.167,1.756,6.522,0,4.084,0" transform="translate(193.891 6.471)" fill="#fefefe"/>
      <path id="Fill_38" data-name="Fill 38" d="M4.254,0C1.248.113,0,2.039,0,5.607v.761C0,2.8,1.248.874,4.254.761c2.8,0,4.068,1.539,4.185,4.029.007-.131.011-.256.011-.372C8.45,1.7,7.2,0,4.254,0" transform="translate(207.452 6.357)" fill="#fefefe"/>
      <path id="Fill_40" data-name="Fill 40" d="M4.084,0C1.532,0,0,1.756,0,4.7v.76C0,2.516,1.532.761,4.084.761c2.382,0,4.084,1.755,4.084,4.7V4.7c0-2.945-1.7-4.7-4.084-4.7" transform="translate(154.08 6.471)" fill="#fefefe"/>
      <path id="Fill_42" data-name="Fill 42" d="M4.084.761H15.426c9.769,0,14.7,4.776,14.905,11.563,0-.106.01-.21.01-.317C30.341,4.984,25.407,0,15.426,0H4.084A3.823,3.823,0,0,0,0,4.021v.761A3.823,3.823,0,0,1,4.084.761" transform="translate(69.453 5.847)" fill="#fefefe"/>
      <path id="Fill_44" data-name="Fill 44" d="M4.367,4.107C1.7,4.617,0,5.693,0,8.242c0,.135.007.264.016.392C.176,6.35,1.835,5.352,4.367,4.868c2.552-.453,4.14-1.812,4.14-4.474C8.507.26,8.5.13,8.493,0,8.351,2.419,6.8,3.676,4.367,4.107" transform="translate(83.177 18.787)" fill="#fefefe"/>
      <path id="Fill_46" data-name="Fill 46" d="M8.337,5.471c5.1,0,7.769-1.756,7.769-4.984,0-.168-.007-.328-.014-.487-.15,3.051-2.8,4.71-7.755,4.71H0v.761Z" transform="translate(77.562 37.27)" fill="#fefefe"/>
      <path id="Fill_48" data-name="Fill 48" d="M.542.176A.089.089,0,0,1,.49.1.112.112,0,0,1,.542.007L.551,0C.446.079.258.224.093.351a.24.24,0,0,0,.05.41l.4.175A11.143,11.143,0,0,1,7.9,11.257c.005-.163.01-.325.01-.49a11.979,11.979,0,0,0-.572-3.635A11.388,11.388,0,0,0,.542.176" transform="translate(94.091 26.683)" fill="#fefefe"/>
    </g>
  </g>
</svg>
