<?xml version="1.0" encoding="UTF-8" standalone="no"?><!-- Generator: Gravit.io --><svg xmlns="http://www.w3.org/2000/svg" xmlns:xlink="http://www.w3.org/1999/xlink" style="isolation:isolate" viewBox="0 0 170 80" width="170pt" height="80pt"><g><path d=" M 41.105 17 C 43.485 17.009 45.407 18.946 45.398 21.326 L 45.398 57.294 C 45.407 59.674 43.485 61.61 41.105 61.62 L 5.409 61.62 C 3.03 61.61 1.108 59.674 1.117 57.294 L 1.117 21.326 C 1.108 18.946 3.03 17.009 5.409 17 L 41.105 17 Z " fill="rgb(129,53,136)"/><g><path d=" M 5.409 17 C 3.03 17.009 1.108 18.946 1.117 21.326 L 1.117 21.326 L 1.117 35.957 C 1.114 36.64 1.382 37.296 1.863 37.78 C 2.344 38.264 2.997 38.538 3.68 38.541 L 42.828 38.541 C 43.51 38.538 44.164 38.264 44.644 37.78 C 45.125 37.296 45.394 36.64 45.391 35.957 L 45.391 35.957 L 45.391 21.326 C 45.4 18.948 43.482 17.013 41.105 17 L 5.409 17 Z " fill="none"/><clipPath id="_clipPath_cE8cQDfN30r0eIJHveofrRT2h4aTnkr7"><path d=" M 5.409 17 C 3.03 17.009 1.108 18.946 1.117 21.326 L 1.117 21.326 L 1.117 35.957 C 1.114 36.64 1.382 37.296 1.863 37.78 C 2.344 38.264 2.997 38.538 3.68 38.541 L 42.828 38.541 C 43.51 38.538 44.164 38.264 44.644 37.78 C 45.125 37.296 45.394 36.64 45.391 35.957 L 45.391 35.957 L 45.391 21.326 C 45.4 18.948 43.482 17.013 41.105 17 L 5.409 17 Z " fill="rgb(255,255,255)"/></clipPath><g clip-path="url(#_clipPath_cE8cQDfN30r0eIJHveofrRT2h4aTnkr7)"><g><path d=" M 5.409 17 C 3.03 17.009 1.108 18.946 1.117 21.326 L 1.117 21.326 L 1.117 35.957 C 1.114 36.64 1.382 37.296 1.863 37.78 C 2.344 38.264 2.997 38.538 3.68 38.541 L 42.828 38.541 C 43.51 38.538 44.164 38.264 44.644 37.78 C 45.125 37.296 45.394 36.64 45.391 35.957 L 45.391 35.957 L 45.391 21.326 C 45.4 18.948 43.482 17.013 41.105 17 L 5.409 17 Z " fill="none"/></g></g></g><g><path d=" M 3.68 40.079 C 2.997 40.082 2.344 40.355 1.863 40.84 C 1.382 41.324 1.114 41.98 1.117 42.662 L 1.117 42.662 L 1.117 57.294 C 1.108 59.674 3.03 61.61 5.409 61.62 L 41.105 61.62 C 43.485 61.61 45.407 59.674 45.398 57.294 L 45.398 57.294 L 45.398 42.662 C 45.4 41.979 45.131 41.323 44.65 40.839 C 44.169 40.354 43.514 40.081 42.831 40.079 L 3.68 40.079 Z " fill="none"/><clipPath id="_clipPath_q5BzpJPowj7g8102KxZLUCEWogDWv0yc"><path d=" M 3.68 40.079 C 2.997 40.082 2.344 40.355 1.863 40.84 C 1.382 41.324 1.114 41.98 1.117 42.662 L 1.117 42.662 L 1.117 57.294 C 1.108 59.674 3.03 61.61 5.409 61.62 L 41.105 61.62 C 43.485 61.61 45.407 59.674 45.398 57.294 L 45.398 57.294 L 45.398 42.662 C 45.4 41.979 45.131 41.323 44.65 40.839 C 44.169 40.354 43.514 40.081 42.831 40.079 L 3.68 40.079 Z " fill="rgb(255,255,255)"/></clipPath><g clip-path="url(#_clipPath_q5BzpJPowj7g8102KxZLUCEWogDWv0yc)"><g><path d=" M 3.68 40.079 C 2.997 40.082 2.344 40.355 1.863 40.84 C 1.382 41.324 1.114 41.98 1.117 42.662 L 1.117 42.662 L 1.117 57.294 C 1.108 59.674 3.03 61.61 5.409 61.62 L 41.105 61.62 C 43.485 61.61 45.407 59.674 45.398 57.294 L 45.398 57.294 L 45.398 42.662 C 45.4 41.979 45.131 41.323 44.65 40.839 C 44.169 40.354 43.514 40.081 42.831 40.079 L 3.68 40.079 Z " fill="none"/></g></g></g><g><path d=" M 41.186 18.429 C 41.929 18.432 42.64 18.73 43.164 19.258 C 43.688 19.785 43.98 20.499 43.977 21.242 L 43.977 57.379 C 43.983 58.926 42.733 60.186 41.186 60.192 L 5.326 60.192 C 3.779 60.186 2.529 58.926 2.535 57.379 L 2.535 21.242 C 2.532 20.499 2.824 19.785 3.348 19.258 C 3.871 18.73 4.583 18.432 5.326 18.429 L 41.186 18.429 Z " fill="rgb(129,53,136)"/><path d=" M 29.796 50.814 L 29.796 50.814 L 21.193 53.317 C 20.842 53.418 20.465 53.375 20.145 53.198 C 19.826 53.02 19.59 52.722 19.491 52.37 L 12.983 29.646 C 12.77 28.913 13.19 28.146 13.922 27.93 L 22.824 25.341 C 24.879 24.73 27.103 25.357 28.536 26.952 C 29.705 28.177 30.324 29.826 30.249 31.518 C 30.175 33.209 29.413 34.797 28.141 35.915 C 31.822 36.157 34.8 39.005 35.207 42.672 C 35.614 46.339 33.333 49.771 29.794 50.814" fill="rgb(75,32,90)"/><path d=" M 20.614 55.113 C 19.388 55.105 18.314 54.29 17.975 53.111 L 11.308 29.832 C 10.885 28.367 11.724 26.836 13.186 26.404 L 22.331 23.744 C 22.903 23.582 23.495 23.502 24.09 23.507 C 26.399 23.494 28.599 24.489 30.115 26.23 C 31.121 27.494 31.737 29.024 31.887 30.632 C 32.011 32.094 31.719 33.56 31.047 34.864 C 32.901 35.597 34.469 36.908 35.521 38.601 C 36.66 40.485 37.133 42.696 36.865 44.881 C 36.625 46.587 35.887 48.184 34.743 49.472 C 33.658 50.806 32.21 51.798 30.574 52.328 L 21.378 55.004 C 21.13 55.076 20.873 55.113 20.614 55.113 Z  M 24.417 25.112 C 23.883 25.112 23.351 25.188 22.838 25.337 L 13.921 27.93 C 13.19 28.147 12.771 28.913 12.982 29.645 L 19.491 52.37 C 19.589 52.724 19.825 53.023 20.146 53.201 C 20.466 53.379 20.845 53.42 21.196 53.317 L 29.8 50.814 C 33.337 49.77 35.617 46.339 35.21 42.673 C 34.804 39.007 31.827 36.159 28.146 35.915 C 29.38 34.841 30.136 33.32 30.247 31.688 C 30.337 29.94 29.72 28.228 28.533 26.941 C 27.486 25.771 25.988 25.105 24.417 25.112 Z " fill="rgb(254,254,254)"/><path d=" M 32.477 44.758 C 32.491 40.93 29.421 37.804 25.593 37.748 C 26.81 36.679 27.544 35.165 27.629 33.548 C 27.713 31.931 27.142 30.348 26.045 29.158 C 24.659 27.557 22.465 26.915 20.435 27.515 L 12.992 29.68 L 19.491 52.371 C 19.59 52.723 19.825 53.021 20.145 53.198 C 20.464 53.376 20.841 53.419 21.192 53.318 L 27.301 51.541 L 27.385 51.513 C 30.402 50.654 32.48 47.895 32.472 44.759" fill="rgb(129,53,136)"/><path d=" M 155.433 46.03 C 153.618 46.053 151.822 45.657 150.185 44.874 C 148.829 44.214 147.634 43.265 146.685 42.093 C 146.109 41.454 145.767 40.639 145.717 39.781 C 145.678 39.039 145.967 38.318 146.506 37.807 C 146.966 37.417 147.552 37.208 148.155 37.219 C 149.152 37.219 150.003 38.085 150.557 38.737 C 152.181 40.333 153.628 41.012 155.397 41.012 C 157.789 41.012 159.161 39.945 159.161 38.086 C 159.143 36.956 158.548 35.914 157.584 35.325 C 156.442 34.582 155.221 33.966 153.943 33.49 C 150.474 32.027 146.541 30.368 146.541 25.55 C 146.521 24.366 146.757 23.191 147.233 22.106 C 147.65 21.185 148.276 20.374 149.06 19.735 C 150.665 18.516 152.63 17.866 154.645 17.887 C 156.602 17.841 158.535 18.328 160.237 19.296 C 161.841 20.231 163.714 21.993 163.714 23.885 C 163.717 24.492 163.447 25.069 162.979 25.456 C 162.5 25.85 161.897 26.061 161.276 26.053 C 160.305 25.966 159.421 25.458 158.858 24.662 C 158.619 24.396 158.361 24.148 158.086 23.922 C 157.111 23.181 155.905 22.81 154.683 22.873 C 152.792 22.873 151.707 23.821 151.707 25.477 C 151.707 27.184 153.768 28.073 156.154 29.104 C 159.795 30.677 164.327 32.632 164.327 38.375 C 164.387 40.574 163.413 42.673 161.697 44.048 C 159.892 45.396 157.685 46.095 155.433 46.03 L 155.433 46.03 Z  M 61.48 45.852 L 61.234 45.852 L 54.101 45.778 C 53.408 45.802 52.734 45.545 52.233 45.065 C 51.754 44.569 51.497 43.901 51.519 43.213 L 51.519 20.452 C 51.493 19.759 51.751 19.086 52.232 18.587 C 52.736 18.113 53.409 17.861 54.101 17.887 L 61.271 17.887 C 62.67 17.868 64.064 18.059 65.406 18.454 C 66.486 18.774 67.489 19.313 68.352 20.037 C 69.919 21.43 70.782 23.451 70.704 25.546 C 70.686 27.869 69.446 30.01 67.441 31.182 C 67.421 31.195 67.409 31.217 67.408 31.241 C 67.409 31.263 67.422 31.282 67.441 31.291 C 68.813 31.83 70 32.754 70.86 33.951 C 71.685 35.157 72.118 36.588 72.102 38.049 C 72.209 40.143 71.357 42.172 69.786 43.561 C 68.005 45.083 65.212 45.854 61.485 45.854 L 61.485 45.854 L 61.48 45.852 Z  M 56.644 22.655 L 56.644 40.937 L 61.914 40.937 C 65.127 40.937 66.825 39.837 66.825 37.757 C 66.825 35.469 65.766 34.499 62.917 34.18 C 61.135 33.951 60.193 32.989 60.193 31.398 C 60.193 29.942 61.044 29.13 62.953 28.761 C 64.69 28.45 65.57 27.489 65.57 25.905 C 65.666 25.021 65.358 24.141 64.732 23.51 C 64.106 22.879 63.229 22.564 62.344 22.653 L 56.644 22.655 Z  M 84.583 45.778 C 83.902 45.781 83.253 45.491 82.799 44.983 C 82.278 44.37 82.007 43.584 82.037 42.78 L 82.037 34.76 L 74.616 22.765 C 74.177 22.14 73.94 21.396 73.935 20.633 C 73.933 19.991 74.209 19.381 74.691 18.957 C 75.208 18.511 75.871 18.272 76.554 18.284 C 77.556 18.312 78.451 18.918 78.848 19.839 L 84.619 29.52 L 90.39 19.838 C 90.788 18.918 91.682 18.312 92.684 18.284 C 93.365 18.272 94.028 18.512 94.544 18.957 C 95.026 19.38 95.301 19.99 95.3 20.632 C 95.295 21.395 95.057 22.139 94.619 22.764 L 87.2 34.76 L 87.2 42.78 C 87.2 44.602 86.172 45.778 84.583 45.778 Z  M 101.217 45.669 C 98.805 45.776 96.471 44.799 94.854 43.006 C 93.731 41.756 93.078 40.155 93.006 38.476 C 92.97 37.776 93.228 37.093 93.717 36.591 C 94.206 36.089 94.882 35.813 95.582 35.83 C 95.655 35.83 95.729 35.83 95.801 35.838 C 97.198 35.952 97.578 36.961 97.986 38.028 C 98.471 39.314 98.975 40.644 101.262 40.644 L 101.362 40.644 C 102.433 40.719 103.473 40.263 104.144 39.425 C 104.813 38.328 105.119 37.048 105.018 35.767 L 105.018 21.283 C 105.018 19.405 105.983 18.284 107.6 18.284 C 109.168 18.284 110.181 19.461 110.181 21.283 L 110.181 35.662 C 110.18 42.209 107.081 45.669 101.218 45.669 L 101.217 45.669 Z  M 125.38 45.633 C 122.2 45.633 119.727 44.668 118.031 42.766 C 116.295 40.817 115.414 37.929 115.414 34.181 L 115.414 21.283 C 115.376 20.486 115.629 19.703 116.127 19.079 C 116.602 18.551 117.286 18.26 117.996 18.284 C 119.567 18.284 120.575 19.461 120.575 21.283 L 120.575 33.784 C 120.575 36.286 120.974 38.021 121.794 39.086 C 122.676 40.132 124.018 40.676 125.379 40.54 C 126.741 40.676 128.082 40.132 128.965 39.086 C 129.785 38.021 130.184 36.287 130.184 33.784 L 130.184 21.283 C 130.184 19.461 131.197 18.284 132.765 18.284 C 133.475 18.261 134.159 18.552 134.634 19.079 C 135.132 19.703 135.385 20.486 135.346 21.283 L 135.346 34.185 C 135.346 37.933 134.466 40.822 132.729 42.77 C 131.034 44.668 128.562 45.633 125.381 45.633 L 125.38 45.633 Z  M 140.945 27.858 C 139.516 27.858 138.76 26.471 138.76 23.848 L 138.76 21.789 C 138.76 19.418 139.615 18.282 141.449 18.212 C 142.202 18.154 142.943 18.431 143.474 18.968 C 143.928 19.555 144.151 20.287 144.102 21.027 C 143.949 22.943 143.489 24.822 142.739 26.591 C 142.449 27.335 141.743 27.834 140.945 27.858 L 140.945 27.858 Z " fill="rgb(129,53,136)"/><path d=" M 117.996 18.769 C 119.501 18.769 120.577 19.889 120.577 21.768 L 120.577 21.283 C 120.577 19.404 119.501 18.284 117.996 18.284 C 116.454 18.284 115.414 19.404 115.414 21.283 L 115.414 21.768 C 115.414 19.89 116.454 18.769 117.996 18.769 Z " fill="rgb(160,84,160)"/><path d=" M 120.577 34.268 C 120.577 39.398 122.227 41.024 125.381 41.024 C 128.536 41.024 130.186 39.398 130.186 34.268 L 130.186 33.783 C 130.186 38.914 128.536 40.539 125.382 40.539 C 122.227 40.539 120.577 38.914 120.577 33.783 L 120.577 34.268 Z " fill="rgb(160,84,160)"/><path d=" M 151.716 25.687 C 151.71 25.775 151.704 25.865 151.704 25.959 C 151.704 30.181 164.082 29.299 164.318 38.587 C 164.318 38.515 164.324 38.444 164.324 38.371 C 164.324 28.963 152.131 29.707 151.716 25.687 Z " fill="rgb(160,84,160)"/><path d=" M 76.552 18.769 C 77.554 18.796 78.449 19.402 78.846 20.323 L 84.618 30.005 L 90.39 20.323 C 90.787 19.402 91.682 18.796 92.685 18.769 C 93.981 18.69 95.119 19.627 95.289 20.915 C 95.296 20.823 95.3 20.729 95.3 20.633 C 95.273 19.971 94.98 19.349 94.488 18.907 C 93.995 18.465 93.345 18.24 92.685 18.284 C 91.683 18.311 90.787 18.917 90.39 19.838 L 84.618 29.52 L 78.846 19.838 C 78.449 18.917 77.554 18.311 76.552 18.284 C 75.89 18.24 75.239 18.464 74.746 18.908 C 74.253 19.351 73.96 19.974 73.935 20.637 C 73.935 20.734 73.939 20.827 73.946 20.919 C 74.114 19.629 75.253 18.689 76.552 18.769 Z " fill="rgb(160,84,160)"/><path d=" M 148.153 37.7 C 149.132 37.846 150.004 38.397 150.557 39.218 C 151.779 40.622 153.535 41.448 155.397 41.494 C 157.656 41.494 159.159 40.518 159.159 38.568 C 159.159 38.475 159.159 38.391 159.15 38.307 C 159.038 40.109 157.567 41.013 155.397 41.013 C 153.535 40.966 151.778 40.139 150.557 38.732 C 150.004 37.912 149.132 37.362 148.153 37.215 C 147.478 37.192 146.824 37.459 146.358 37.949 C 145.892 38.44 145.659 39.106 145.717 39.78 C 145.717 39.849 145.723 39.92 145.729 39.992 C 145.74 39.365 146.004 38.768 146.46 38.337 C 146.916 37.906 147.526 37.676 148.153 37.7 Z " fill="rgb(160,84,160)"/><path d=" M 154.645 18.372 C 156.602 18.326 158.534 18.813 160.236 19.782 C 161.781 20.681 163.551 22.342 163.698 24.132 C 163.708 24.05 163.713 23.968 163.713 23.885 C 163.713 22.007 161.849 20.236 160.236 19.297 C 158.534 18.329 156.602 17.842 154.645 17.887 C 150.558 17.959 146.542 20.199 146.542 25.546 C 146.542 25.63 146.542 25.714 146.548 25.792 C 146.667 20.619 150.62 18.443 154.645 18.372 Z " fill="rgb(160,84,160)"/><path d=" M 93.007 38.479 C 93.007 38.571 93.007 38.666 93.017 38.763 C 93.037 38.061 93.349 37.399 93.878 36.936 C 94.407 36.474 95.105 36.253 95.804 36.328 C 98.888 36.581 97.023 41.205 101.36 41.132 C 103.906 41.096 105.021 39.543 105.021 36.255 L 105.021 35.77 C 105.021 39.058 103.909 40.612 101.364 40.648 C 97.023 40.72 98.888 36.095 95.804 35.842 C 95.069 35.763 94.336 36.009 93.798 36.516 C 93.26 37.024 92.971 37.741 93.007 38.479 Z " fill="rgb(160,84,160)"/><path d=" M 132.767 18.284 C 131.261 18.284 130.186 19.404 130.186 21.283 L 130.186 21.768 C 130.186 19.89 131.261 18.769 132.767 18.769 C 134.309 18.769 135.349 19.889 135.349 21.768 L 135.349 21.283 C 135.348 19.404 134.309 18.284 132.767 18.284 Z " fill="rgb(160,84,160)"/><path d=" M 141.446 18.212 C 139.547 18.284 138.758 19.513 138.758 21.789 L 138.758 22.274 C 138.758 19.998 139.547 18.77 141.446 18.697 C 142.156 18.617 142.865 18.859 143.377 19.357 C 143.89 19.854 144.152 20.556 144.092 21.268 C 144.097 21.184 144.1 21.104 144.1 21.031 C 144.1 19.296 143.311 18.212 141.446 18.212 Z " fill="rgb(160,84,160)"/><path d=" M 107.6 18.284 C 105.986 18.284 105.018 19.404 105.018 21.283 L 105.018 21.768 C 105.018 19.89 105.986 18.769 107.6 18.769 C 109.105 18.769 110.181 19.889 110.181 21.768 L 110.181 21.283 C 110.18 19.404 109.105 18.284 107.6 18.284 Z " fill="rgb(160,84,160)"/><path d=" M 54.101 18.372 L 61.271 18.372 C 67.447 18.372 70.564 21.418 70.694 25.748 C 70.694 25.681 70.7 25.613 70.7 25.545 C 70.7 21.066 67.58 17.887 61.271 17.887 L 54.101 17.887 C 53.406 17.842 52.726 18.097 52.232 18.587 C 51.738 19.078 51.478 19.757 51.519 20.452 L 51.519 20.938 C 51.478 20.242 51.737 19.563 52.231 19.072 C 52.725 18.581 53.406 18.326 54.101 18.372 Z " fill="rgb(160,84,160)"/><path d=" M 62.956 28.761 C 61.27 29.086 60.195 29.773 60.195 31.398 C 60.195 31.482 60.199 31.566 60.205 31.65 C 60.306 30.192 61.355 29.555 62.956 29.249 C 64.569 28.957 65.572 28.09 65.572 26.393 C 65.572 26.309 65.572 26.225 65.564 26.141 C 65.474 27.684 64.493 28.486 62.96 28.761" fill="rgb(160,84,160)"/><path d=" M 61.916 41.421 C 65.143 41.421 66.828 40.302 66.828 38.242 C 66.828 38.134 66.823 38.033 66.818 37.931 C 66.728 39.878 65.047 40.937 61.916 40.937 L 56.647 40.937 L 56.647 41.421 L 61.916 41.421 Z " fill="rgb(160,84,160)"/><path d=" M 67.437 31.29 C 67.418 31.281 67.405 31.262 67.405 31.24 C 67.405 31.217 67.417 31.195 67.437 31.182 L 67.443 31.177 C 67.376 31.228 67.258 31.32 67.154 31.402 C 67.111 31.435 67.089 31.488 67.096 31.541 C 67.102 31.595 67.136 31.641 67.185 31.663 L 67.438 31.775 C 70.204 32.791 72.056 35.41 72.092 38.358 C 72.092 38.253 72.097 38.15 72.097 38.045 C 72.096 37.258 71.974 36.476 71.735 35.726 C 71.038 33.679 69.461 32.052 67.437 31.29 Z " fill="rgb(160,84,160)"/><path d=" M 51.339 51.283 C 51.336 51.087 51.416 50.9 51.559 50.766 C 51.699 50.625 51.89 50.548 52.088 50.551 L 58.252 50.551 C 58.451 50.55 58.641 50.631 58.777 50.776 C 58.923 50.918 59.004 51.114 59.001 51.319 C 59.004 51.519 58.922 51.711 58.776 51.847 C 58.637 51.988 58.447 52.067 58.249 52.065 L 56.023 52.065 L 56.023 59.407 C 56.027 59.634 55.935 59.852 55.771 60.009 C 55.61 60.174 55.388 60.265 55.158 60.261 C 54.932 60.265 54.716 60.174 54.561 60.009 C 54.402 59.85 54.315 59.632 54.319 59.407 L 54.319 52.063 L 52.091 52.063 C 51.889 52.067 51.695 51.985 51.556 51.838 C 51.412 51.69 51.334 51.49 51.339 51.283 Z " fill="rgb(108,110,112)"/><path d=" M 60.267 59.499 L 60.267 51.214 C 60.264 51.014 60.345 50.822 60.491 50.685 C 60.642 50.539 60.847 50.46 61.057 50.467 C 61.254 50.465 61.443 50.545 61.578 50.688 C 61.72 50.826 61.8 51.016 61.798 51.214 L 61.798 54.159 C 62.087 53.827 62.441 53.556 62.836 53.362 C 63.275 53.14 63.76 53.027 64.252 53.031 C 64.862 52.986 65.465 53.192 65.919 53.602 C 66.321 54.051 66.524 54.643 66.484 55.243 L 66.484 59.499 C 66.482 59.809 66.293 60.086 66.007 60.203 C 65.72 60.32 65.392 60.254 65.173 60.034 C 65.031 59.893 64.951 59.7 64.953 59.499 L 64.953 55.803 C 64.994 55.409 64.863 55.016 64.593 54.725 C 64.295 54.493 63.921 54.379 63.544 54.405 C 63.194 54.405 62.85 54.498 62.547 54.673 C 62.252 54.834 61.996 55.058 61.795 55.328 L 61.795 59.499 C 61.798 59.701 61.717 59.894 61.572 60.034 C 61.429 60.182 61.232 60.263 61.027 60.26 C 60.823 60.264 60.626 60.182 60.485 60.034 C 60.343 59.893 60.264 59.7 60.267 59.499 Z " fill="rgb(108,110,112)"/><path d=" M 71.608 60.351 C 70.639 60.38 69.701 60.012 69.011 59.331 C 68.319 58.626 67.948 57.667 67.986 56.68 C 67.98 56.041 68.132 55.411 68.43 54.845 C 68.719 54.297 69.153 53.839 69.685 53.52 C 70.232 53.193 70.859 53.023 71.496 53.031 C 72.235 53.013 72.956 53.251 73.541 53.703 C 74.115 54.164 74.526 54.798 74.712 55.511 C 74.811 55.812 74.869 56.124 74.887 56.441 C 74.882 56.852 74.549 57.183 74.138 57.187 L 69.587 57.187 C 69.632 57.683 69.87 58.141 70.248 58.464 C 70.671 58.817 71.21 59 71.761 58.977 C 72.298 58.98 72.829 58.86 73.312 58.626 C 73.412 58.582 73.519 58.56 73.627 58.561 C 73.793 58.563 73.952 58.628 74.071 58.744 C 74.199 58.859 74.272 59.023 74.27 59.195 C 74.26 59.402 74.154 59.592 73.983 59.709 C 73.77 59.876 73.527 60.001 73.267 60.076 C 72.983 60.165 72.694 60.233 72.401 60.281 C 72.139 60.325 71.874 60.348 71.608 60.351 Z  M 71.496 54.404 C 70.987 54.377 70.491 54.569 70.133 54.93 C 69.815 55.252 69.618 55.673 69.573 56.123 L 73.411 56.123 C 73.401 55.921 73.359 55.723 73.285 55.535 C 73.205 55.335 73.091 55.149 72.949 54.986 C 72.786 54.801 72.581 54.657 72.351 54.566 C 72.08 54.456 71.789 54.401 71.496 54.404 Z " fill="rgb(108,110,112)"/><path d=" M 80.103 59.14 L 80.103 51.298 C 80.101 51.075 80.192 50.862 80.355 50.709 C 80.516 50.549 80.736 50.461 80.963 50.467 C 81.187 50.465 81.403 50.556 81.558 50.719 C 81.719 50.869 81.81 51.08 81.81 51.3 L 81.81 58.661 L 85.347 58.661 C 85.542 58.659 85.73 58.737 85.867 58.876 C 86.01 59.01 86.09 59.198 86.088 59.393 C 86.093 59.601 86.013 59.802 85.867 59.95 C 85.733 60.095 85.544 60.177 85.347 60.176 L 81.138 60.176 C 80.862 60.179 80.598 60.068 80.408 59.869 C 80.21 59.678 80.1 59.414 80.103 59.14 Z " fill="rgb(108,110,112)"/><path d=" M 90.45 60.351 C 89.481 60.38 88.543 60.012 87.853 59.331 C 87.161 58.626 86.791 57.667 86.828 56.68 C 86.822 56.041 86.975 55.411 87.272 54.845 C 87.561 54.297 87.995 53.839 88.527 53.52 C 89.074 53.193 89.701 53.023 90.338 53.031 C 91.077 53.013 91.799 53.251 92.383 53.703 C 92.958 54.164 93.368 54.798 93.553 55.511 C 93.653 55.811 93.712 56.124 93.729 56.441 C 93.724 56.852 93.391 57.183 92.98 57.187 L 88.429 57.187 C 88.474 57.683 88.712 58.141 89.09 58.464 C 89.513 58.817 90.052 58.999 90.602 58.977 C 91.14 58.98 91.671 58.86 92.155 58.626 C 92.254 58.582 92.361 58.56 92.469 58.561 C 92.635 58.562 92.794 58.628 92.912 58.744 C 93.042 58.858 93.115 59.023 93.112 59.195 C 93.102 59.402 92.996 59.592 92.826 59.709 C 92.612 59.876 92.369 60.001 92.109 60.076 C 91.825 60.165 91.536 60.233 91.242 60.281 C 90.981 60.325 90.716 60.349 90.45 60.351 Z  M 90.338 54.404 C 89.83 54.378 89.333 54.569 88.974 54.93 C 88.657 55.253 88.46 55.673 88.415 56.123 L 92.254 56.123 C 92.244 55.921 92.201 55.723 92.128 55.535 C 92.047 55.335 91.933 55.149 91.792 54.986 C 91.628 54.801 91.423 54.657 91.194 54.566 C 90.922 54.456 90.631 54.401 90.338 54.404 Z " fill="rgb(108,110,112)"/><path d=" M 97.23 60.351 C 96.937 60.351 96.647 60.301 96.37 60.203 C 96.088 60.106 95.824 59.962 95.59 59.777 C 95.345 59.581 95.149 59.331 95.017 59.047 C 94.869 58.732 94.794 58.388 94.799 58.04 C 94.793 57.686 94.867 57.336 95.017 57.015 C 95.149 56.736 95.347 56.493 95.593 56.307 C 95.829 56.133 96.091 55.999 96.369 55.91 C 96.647 55.821 96.938 55.776 97.23 55.776 C 97.665 55.771 98.097 55.849 98.503 56.005 C 98.867 56.144 99.19 56.373 99.442 56.671 L 99.442 55.641 C 99.452 55.285 99.287 54.947 99 54.737 C 98.661 54.501 98.254 54.383 97.841 54.401 C 97.259 54.39 96.686 54.549 96.193 54.859 C 95.959 55.005 95.655 54.973 95.456 54.781 C 95.333 54.67 95.264 54.51 95.27 54.344 C 95.269 54.224 95.31 54.109 95.387 54.018 C 95.695 53.662 96.101 53.407 96.554 53.283 C 97.049 53.119 97.567 53.034 98.088 53.031 C 98.46 53.027 98.83 53.074 99.189 53.168 C 99.514 53.255 99.822 53.397 100.099 53.588 C 100.379 53.789 100.6 54.062 100.739 54.377 C 100.901 54.748 100.98 55.149 100.972 55.553 L 100.972 59.499 C 100.966 59.915 100.632 60.252 100.216 60.26 L 100.132 60.26 C 99.966 60.251 99.808 60.189 99.68 60.083 C 99.519 59.957 99.43 59.759 99.443 59.555 L 99.443 59.428 C 99.184 59.73 98.856 59.964 98.487 60.112 C 98.088 60.273 97.661 60.355 97.23 60.351 Z  M 97.819 56.842 C 97.445 56.828 97.079 56.945 96.783 57.173 C 96.512 57.391 96.36 57.724 96.373 58.071 C 96.364 58.412 96.516 58.737 96.784 58.948 C 97.078 59.178 97.443 59.297 97.816 59.284 C 98.139 59.287 98.459 59.226 98.758 59.104 C 99.031 58.995 99.267 58.812 99.442 58.575 L 99.442 57.534 C 99.266 57.302 99.029 57.124 98.758 57.019 C 98.458 56.9 98.138 56.839 97.816 56.842 L 97.819 56.842 Z " fill="rgb(108,110,112)"/><path d=" M 102.909 59.499 L 102.909 53.869 C 102.906 53.669 102.988 53.478 103.133 53.341 C 103.284 53.194 103.489 53.115 103.699 53.122 C 103.897 53.121 104.087 53.205 104.22 53.352 C 104.363 53.496 104.443 53.691 104.44 53.894 L 104.44 54.266 C 104.772 53.639 105.388 53.213 106.091 53.122 C 106.273 53.115 106.449 53.185 106.576 53.315 C 106.702 53.448 106.768 53.625 106.762 53.807 C 106.771 54.016 106.697 54.22 106.555 54.375 C 106.413 54.522 106.222 54.614 106.018 54.634 C 105.39 54.66 104.808 54.973 104.44 55.482 L 104.44 59.507 C 104.442 59.707 104.361 59.899 104.217 60.038 C 104.078 60.183 103.886 60.264 103.686 60.263 L 103.657 60.263 C 103.458 60.265 103.266 60.184 103.13 60.038 C 102.986 59.896 102.906 59.701 102.909 59.499 Z " fill="rgb(108,110,112)"/><path d=" M 107.888 59.499 L 107.888 53.871 C 107.884 53.67 107.965 53.478 108.111 53.341 C 108.263 53.194 108.467 53.115 108.678 53.122 C 108.875 53.121 109.063 53.201 109.198 53.345 C 109.341 53.482 109.421 53.673 109.419 53.871 L 109.419 54.16 C 109.704 53.825 110.055 53.552 110.45 53.358 C 110.887 53.138 111.37 53.025 111.859 53.031 C 112.471 52.985 113.075 53.196 113.527 53.612 C 113.927 54.069 114.129 54.665 114.089 55.271 L 114.089 59.499 C 114.091 59.701 114.009 59.895 113.863 60.034 C 113.718 60.182 113.52 60.263 113.314 60.26 C 113.113 60.263 112.919 60.183 112.779 60.038 C 112.635 59.896 112.555 59.702 112.558 59.499 L 112.558 55.835 C 112.597 55.434 112.467 55.036 112.198 54.736 C 111.909 54.497 111.539 54.379 111.164 54.404 C 110.81 54.404 110.463 54.496 110.156 54.672 C 109.863 54.831 109.611 55.055 109.419 55.327 L 109.419 59.499 C 109.421 59.701 109.34 59.894 109.195 60.034 C 109.052 60.18 108.854 60.26 108.65 60.255 C 108.446 60.26 108.249 60.178 108.108 60.03 C 107.966 59.89 107.887 59.699 107.888 59.499 Z " fill="rgb(108,110,112)"/><path d=" M 116.781 60.26 C 116.577 60.264 116.381 60.183 116.239 60.035 C 116.097 59.894 116.017 59.7 116.019 59.499 L 116.019 53.871 C 116.016 53.671 116.097 53.48 116.242 53.342 C 116.393 53.196 116.597 53.117 116.808 53.124 C 117.005 53.123 117.193 53.203 117.329 53.347 C 117.472 53.484 117.551 53.674 117.55 53.872 L 117.55 59.5 C 117.551 59.702 117.471 59.895 117.326 60.036 C 117.183 60.183 116.986 60.264 116.781 60.26 Z  M 116.781 52.355 C 116.529 52.36 116.286 52.261 116.109 52.081 C 115.929 51.902 115.831 51.657 115.837 51.403 C 115.834 51.154 115.934 50.915 116.113 50.741 C 116.289 50.562 116.53 50.463 116.781 50.467 C 117.032 50.463 117.273 50.562 117.448 50.741 C 117.628 50.914 117.728 51.154 117.724 51.403 C 117.729 51.657 117.629 51.902 117.448 52.081 C 117.273 52.259 117.032 52.358 116.781 52.354 L 116.781 52.355 Z " fill="rgb(108,110,112)"/><path d=" M 119.479 59.499 L 119.479 53.871 C 119.476 53.67 119.557 53.478 119.703 53.341 C 119.854 53.194 120.059 53.115 120.269 53.122 C 120.466 53.121 120.655 53.201 120.79 53.345 C 120.933 53.482 121.012 53.673 121.01 53.871 L 121.01 54.16 C 121.296 53.825 121.647 53.552 122.042 53.358 C 122.478 53.138 122.961 53.025 123.451 53.031 C 124.063 52.985 124.667 53.196 125.118 53.612 C 125.518 54.069 125.721 54.665 125.681 55.271 L 125.681 59.499 C 125.683 59.701 125.601 59.895 125.454 60.034 C 125.31 60.182 125.112 60.263 124.906 60.26 C 124.704 60.263 124.51 60.183 124.37 60.038 C 124.226 59.896 124.146 59.702 124.149 59.499 L 124.149 55.835 C 124.189 55.434 124.058 55.036 123.79 54.736 C 123.5 54.497 123.13 54.379 122.756 54.404 C 122.402 54.404 122.054 54.496 121.748 54.672 C 121.455 54.831 121.203 55.055 121.01 55.327 L 121.01 59.499 C 121.012 59.701 120.931 59.894 120.787 60.034 C 120.643 60.18 120.446 60.26 120.241 60.255 C 120.037 60.26 119.841 60.178 119.7 60.03 C 119.558 59.89 119.478 59.699 119.479 59.499 Z " fill="rgb(108,110,112)"/><g><path d=" M 127.184 53.031 L 133.979 53.031 L 133.979 63 L 127.184 63 L 127.184 53.031 Z " fill="none"/><clipPath id="_clipPath_eqUmOgF3z8Ojk6O4Tt5jKtQHEZft3LIm"><path d=" M 127.184 53.031 L 133.979 53.031 L 133.979 63 L 127.184 63 L 127.184 53.031 Z " fill="rgb(255,255,255)"/></clipPath><g clip-path="url(#_clipPath_eqUmOgF3z8Ojk6O4Tt5jKtQHEZft3LIm)"><g><path d=" M 130.414 63 C 129.897 63.002 129.382 62.934 128.883 62.798 C 128.455 62.699 128.065 62.474 127.765 62.152 C 127.681 62.038 127.634 61.899 127.633 61.757 C 127.629 61.581 127.7 61.413 127.828 61.293 C 127.954 61.171 128.123 61.103 128.298 61.106 C 128.417 61.105 128.535 61.133 128.641 61.19 C 129.182 61.496 129.797 61.648 130.419 61.627 C 130.666 61.629 130.912 61.598 131.151 61.535 C 131.38 61.473 131.597 61.374 131.795 61.243 C 132.004 61.101 132.169 60.905 132.273 60.675 C 132.396 60.402 132.456 60.104 132.449 59.804 L 132.449 59.02 C 132.187 59.37 131.852 59.66 131.468 59.869 C 131.093 60.07 130.672 60.174 130.246 60.171 C 129.405 60.199 128.596 59.854 128.033 59.229 C 127.432 58.491 127.129 57.554 127.184 56.604 C 127.131 55.655 127.434 54.72 128.033 53.983 C 128.593 53.353 129.404 53.004 130.246 53.031 C 130.668 53.03 131.084 53.13 131.459 53.323 C 131.846 53.525 132.184 53.81 132.448 54.158 L 132.448 53.883 C 132.445 53.681 132.526 53.486 132.671 53.345 C 132.82 53.197 133.023 53.117 133.233 53.122 C 133.43 53.122 133.62 53.203 133.755 53.347 C 133.899 53.488 133.979 53.682 133.978 53.883 L 133.978 59.801 C 133.986 60.244 133.916 60.684 133.77 61.102 C 133.652 61.442 133.465 61.755 133.222 62.02 C 132.986 62.26 132.709 62.456 132.403 62.598 C 132.098 62.743 131.775 62.849 131.442 62.912 C 131.103 62.972 130.759 63.001 130.414 63 Z  M 130.694 54.404 C 130.157 54.383 129.639 54.605 129.284 55.008 C 128.917 55.457 128.729 56.025 128.757 56.604 C 128.73 57.182 128.918 57.75 129.284 58.197 C 129.639 58.6 130.156 58.822 130.693 58.801 C 131.046 58.798 131.393 58.706 131.701 58.534 C 132.003 58.38 132.259 58.15 132.445 57.867 L 132.445 55.325 C 132.258 55.046 132.002 54.82 131.701 54.669 C 131.393 54.498 131.046 54.407 130.694 54.404 Z " fill="rgb(108,110,112)"/></g></g></g><path d=" M 146.964 60.26 C 146.785 60.261 146.61 60.207 146.464 60.104 C 146.314 60.003 146.197 59.86 146.128 59.693 L 145.624 58.343 L 141.282 58.343 L 140.765 59.693 C 140.705 59.862 140.59 60.006 140.44 60.104 C 140.291 60.205 140.115 60.26 139.936 60.26 C 139.687 60.267 139.448 60.166 139.279 59.984 C 139.108 59.809 139.013 59.575 139.014 59.33 C 139.011 59.22 139.038 59.111 139.091 59.014 L 142.069 51.375 C 142.171 51.105 142.355 50.874 142.594 50.713 C 142.83 50.551 143.111 50.465 143.398 50.467 L 143.467 50.467 C 143.746 50.467 144.019 50.545 144.256 50.692 C 144.515 50.853 144.716 51.092 144.829 51.375 L 147.822 59.014 C 147.854 59.116 147.873 59.223 147.878 59.33 C 147.876 59.57 147.784 59.799 147.619 59.973 C 147.454 60.161 147.214 60.266 146.964 60.26 Z  M 143.454 52.285 L 141.748 56.829 L 145.147 56.829 L 143.454 52.285 Z " fill="rgb(108,110,112)"/><path d=" M 150.013 62.916 C 149.81 62.918 149.615 62.837 149.474 62.692 C 149.331 62.556 149.25 62.367 149.251 62.169 L 149.251 53.871 C 149.246 53.67 149.328 53.478 149.474 53.341 C 149.626 53.194 149.83 53.116 150.041 53.122 C 150.238 53.121 150.427 53.202 150.562 53.345 C 150.704 53.482 150.784 53.673 150.782 53.871 L 150.782 54.145 C 151.039 53.802 151.371 53.521 151.753 53.326 C 152.136 53.131 152.561 53.03 152.991 53.031 C 153.837 53.004 154.65 53.365 155.198 54.01 C 155.792 54.769 156.091 55.718 156.038 56.68 C 156.091 57.649 155.79 58.604 155.192 59.368 C 154.646 60.014 153.836 60.376 152.991 60.351 C 152.567 60.353 152.149 60.254 151.771 60.062 C 151.381 59.861 151.043 59.574 150.781 59.222 L 150.781 62.167 C 150.782 62.366 150.7 62.557 150.554 62.693 C 150.411 62.837 150.216 62.917 150.013 62.916 Z  M 152.533 54.405 C 152.182 54.409 151.839 54.501 151.533 54.673 C 151.233 54.825 150.975 55.051 150.785 55.328 L 150.785 58.054 C 150.977 58.33 151.234 58.553 151.533 58.706 C 151.838 58.88 152.182 58.974 152.533 58.978 C 153.075 58.995 153.595 58.758 153.937 58.337 C 154.306 57.865 154.494 57.278 154.469 56.681 C 154.493 56.089 154.304 55.508 153.937 55.043 C 153.593 54.621 153.071 54.385 152.527 54.404 L 152.533 54.405 Z " fill="rgb(108,110,112)"/><path d=" M 158.297 62.916 C 158.095 62.918 157.9 62.837 157.759 62.692 C 157.616 62.556 157.535 62.367 157.536 62.169 L 157.536 53.871 C 157.533 53.671 157.614 53.478 157.759 53.341 C 157.911 53.194 158.115 53.116 158.326 53.122 C 158.523 53.121 158.712 53.202 158.847 53.345 C 158.989 53.482 159.069 53.673 159.067 53.871 L 159.067 54.145 C 159.324 53.802 159.656 53.521 160.038 53.326 C 160.421 53.131 160.846 53.03 161.276 53.031 C 162.122 53.004 162.935 53.365 163.483 54.01 C 164.077 54.769 164.376 55.718 164.323 56.68 C 164.376 57.649 164.076 58.604 163.477 59.368 C 162.932 60.015 162.121 60.377 161.276 60.351 C 160.852 60.353 160.434 60.254 160.056 60.062 C 159.666 59.861 159.328 59.574 159.066 59.222 L 159.066 62.167 C 159.067 62.366 158.985 62.557 158.839 62.693 C 158.696 62.837 158.501 62.917 158.297 62.916 Z  M 160.818 54.405 C 160.467 54.409 160.124 54.501 159.818 54.673 C 159.518 54.825 159.26 55.051 159.07 55.328 L 159.07 58.054 C 159.262 58.33 159.519 58.553 159.818 58.706 C 160.123 58.88 160.467 58.974 160.818 58.978 C 161.36 58.995 161.88 58.758 162.222 58.337 C 162.591 57.865 162.779 57.278 162.754 56.681 C 162.778 56.089 162.589 55.508 162.222 55.043 C 161.878 54.621 161.356 54.385 160.812 54.404 L 160.818 54.405 Z " fill="rgb(108,110,112)"/><g><path d=" M 165.395 18.333 L 168.883 18.333 L 168.883 21.849 L 165.395 21.849 L 165.395 18.333 Z " fill="none"/><clipPath id="_clipPath_9SPl8dToPbk5fgOJfDQHhUTFbKCZFpJI"><path d=" M 165.395 18.333 L 168.883 18.333 L 168.883 21.849 L 165.395 21.849 L 165.395 18.333 Z " fill="rgb(255,255,255)"/></clipPath><g clip-path="url(#_clipPath_9SPl8dToPbk5fgOJfDQHhUTFbKCZFpJI)"><g><path d=" M 167.139 21.849 C 166.674 21.855 166.228 21.669 165.905 21.335 C 165.572 21.008 165.387 20.558 165.395 20.091 C 165.387 19.623 165.572 19.173 165.905 18.846 C 166.228 18.512 166.674 18.327 167.139 18.333 C 167.448 18.331 167.752 18.411 168.02 18.566 C 168.284 18.719 168.502 18.939 168.652 19.204 C 168.806 19.475 168.886 19.781 168.883 20.092 C 168.891 20.558 168.707 21.007 168.374 21.335 C 168.051 21.67 167.604 21.856 167.139 21.849 Z  M 167.139 18.58 C 166.742 18.575 166.36 18.734 166.084 19.02 C 165.798 19.302 165.64 19.689 165.647 20.091 C 165.642 20.488 165.8 20.871 166.084 21.149 C 166.359 21.437 166.742 21.597 167.139 21.591 C 167.539 21.597 167.923 21.437 168.2 21.15 C 168.486 20.872 168.644 20.489 168.638 20.091 C 168.645 19.689 168.488 19.302 168.203 19.02 C 167.924 18.732 167.539 18.573 167.139 18.58 Z  M 166.745 21.106 L 166.472 21.106 L 166.472 19.089 L 167.288 19.089 C 167.454 19.086 167.615 19.146 167.738 19.257 C 167.863 19.369 167.932 19.531 167.927 19.698 C 167.937 19.868 167.869 20.032 167.742 20.144 C 167.654 20.231 167.539 20.286 167.416 20.299 L 167.954 21.104 L 167.618 21.104 L 167.1 20.306 L 166.745 20.306 L 166.745 21.106 Z  M 166.745 19.326 L 166.745 20.055 L 167.287 20.055 C 167.382 20.055 167.472 20.018 167.539 19.952 C 167.611 19.888 167.652 19.796 167.652 19.7 C 167.654 19.6 167.613 19.504 167.539 19.435 C 167.473 19.367 167.382 19.328 167.287 19.328 L 166.745 19.326 Z " fill="rgb(129,53,136)"/></g></g></g></g></g></svg>