<svg xmlns="http://www.w3.org/2000/svg" width="12.753" height="12.709" viewBox="0 0 12.753 12.709"><g transform="translate(0 0)"><path d="M.3,7.779a.448.448,0,0,1,.375.081,4.782,4.782,0,0,0,1.451.848A4.542,4.542,0,0,0,3.773,9,4.786,4.786,0,0,0,8.565,4.21,5.023,5.023,0,0,0,8.3,2.629a4.376,4.376,0,0,0-.782-1.4A.416.416,0,0,1,7.587.64.448.448,0,0,1,7.962.559a6.577,6.577,0,0,1,3.455,2.314A6.452,6.452,0,1,1,.024,8.3.387.387,0,0,1,.3,7.779ZM2.8,11.185a5.61,5.61,0,0,0,9.078-4.4,5.511,5.511,0,0,0-1.157-3.406A5.6,5.6,0,0,0,8.842,1.814a5.63,5.63,0,0,1,.228.554,5.423,5.423,0,0,1,.31,1.858A5.62,5.62,0,0,1,3.757,9.849a5.456,5.456,0,0,1-1.939-.342c-.212-.081-.424-.163-.619-.261A5.93,5.93,0,0,0,2.8,11.185Z" transform="translate(0 -0.546)"/></g></svg>