<svg xmlns="http://www.w3.org/2000/svg" width="161.597" height="43.099" viewBox="0 0 161.597 43.099">
  <path id="Finserv" d="M620.812,165.628a21.551,21.551,0,1,1,15.238,6.312A21.409,21.409,0,0,1,620.812,165.628Zm13.145-3.215h4.186c4.759,0,11.087-.656,11.087-6.331,0-2.648-1.7-4.523-5.053-5.574a.045.045,0,0,1-.01-.035h-.078l.044-.011.042-.011a.049.049,0,0,0-.008.022h.013v-.023c3.068-.813,5.051-2.911,5.051-5.346s-1.328-4.177-3.947-5.161a20.7,20.7,0,0,0-7.14-.986H623.888v23.455h5.333V143.852s0-.076.064-.076h13.052a.07.07,0,0,1,.07.076v3.722a.068.068,0,0,1-.07.07h-8.379v5.507h7.861a.07.07,0,0,1,.07.069v3.722a.068.068,0,0,1-.07.07h-7.861Zm80.869,8.167c-3.062-.064-6.113-3.362-6.113-3.362l2.75-2.75a10.242,10.242,0,0,0,3.668,1.834c3.235.607,3.362-.917,3.362-.917.177-1.532-3.362-1.834-3.362-1.834-6.486-1.288-5.5-6.114-5.5-6.114.727-4.833,6.419-4.891,6.419-4.891,5.252.3,6.419,2.445,6.419,2.445l-2.139,3.362c-1.528-1.589-4.585-1.834-4.585-1.834-3,.425-.917,2.445-.917,2.445,2.318.547,5.809,1.528,5.809,1.528,3.845,1.709,2.445,6.42,2.445,6.42-.9,3.366-5.76,3.685-7.573,3.685C715.083,170.6,714.826,170.581,714.826,170.581Zm-32.736-.931V152.53h4.649v17.12Zm82.35,0-6.459-17.12h5.171l3.841,10.629,3.854-10.629h5.21l-6.512,17.12Zm-11.549,0-3.416-6.055h-2.525v6.055h-4.666v-17.12H749.9a9.307,9.307,0,0,1,5.383,1.351,4.38,4.38,0,0,1,1.94,3.817,5.064,5.064,0,0,1-.817,2.96,5.678,5.678,0,0,1-2.559,1.9l4.04,6.912v.177Zm-5.941-9.23h2.95a2.86,2.86,0,0,0,2-.618,2.233,2.233,0,0,0,.671-1.727,2.258,2.258,0,0,0-.678-1.739,2.828,2.828,0,0,0-1.994-.631h-2.95Zm-20.813,9.23v-17.12h13.357v3.186H730.8v3.61h7.337v3.057H730.8v4.091h8.665v3.175Zm-24.628,0L694.651,159v10.653h-4.666v-17.12h4.666l6.845,10.652V152.529h4.652v17.12Zm-34.622,0v-17.12h12.945v3.186h-8.28v3.939h7.522v3.174h-7.522v6.82Zm94.958-22.309a2.081,2.081,0,0,1-1.721-.967l-1.54-2.65h10c1.206,0,2.183-.617,2.183-1.869V130.135H776.1v12.248c0,3.711-2.337,4.957-5.4,4.957Zm-9.169,0-1.7-3.066H741.7l1.583-2.661a2.067,2.067,0,0,1,1.715-.974h4.019l-3.512-6.361-7.175,13.063h-6.252l10-17.205h6.843l10,17.205Zm-34.3,0a2.087,2.087,0,0,1-1.721-.967l-1.54-2.65h10c1.206,0,2.184-.617,2.184-1.869V130.135h5.318v12.248c0,3.711-2.337,4.957-5.4,4.957Zm-9.18,0-1.676-3.066h-9.284l1.556-2.661a2.081,2.081,0,0,1,1.725-.974h4.014l-3.512-6.361-7.175,13.063H688.59L698.6,130.135h6.843l10,17.205Zm-42.309-17.205h14.487c2.987,0,7.792.427,7.792,4.514,0,2.012-1.677,3.427-3.632,3.94,2.419.771,3.632,2.186,3.632,4.116,0,4.214-4.57,4.619-7.792,4.629l-14.487.006Zm5.319,17.2,1.534-2.645a2.1,2.1,0,0,1,1.726-.967h5.843a1.82,1.82,0,0,0,.282-3.63,1.839,1.839,0,0,0-.282,0h-9.1Zm0-7.241,1.534-2.64a2.087,2.087,0,0,1,1.726-.967h5.908c1.059,0,1.916-.5,1.916-1.366s-.846-1.372-1.916-1.372H672.2Z" transform="translate(-614.5 -128.84)" fill="#fff"/>
</svg>
