<svg xmlns="http://www.w3.org/2000/svg" xmlns:xlink="http://www.w3.org/1999/xlink" width="161.6" height="28.049" viewBox="0 0 161.6 28.049">
  <defs>
    <linearGradient id="linear-gradient" x1="0.15" y1="0.408" x2="0.909" y2="0.622" gradientUnits="objectBoundingBox">
      <stop offset="0" stop-color="#f9f9f9"/>
      <stop offset="0.2" stop-color="#eee"/>
      <stop offset="0.6" stop-color="#ebebeb"/>
      <stop offset="1" stop-color="#e2e2e2"/>
    </linearGradient>
    <linearGradient id="linear-gradient-2" x1="0.07" y1="0.363" x2="0.99" y2="0.575" gradientUnits="objectBoundingBox">
      <stop offset="0" stop-color="#fbfbfb"/>
      <stop offset="0.2" stop-color="#f5f5f5"/>
      <stop offset="0.8" stop-color="#ebebeb"/>
      <stop offset="1" stop-color="#fff"/>
    </linearGradient>
  </defs>
  <g id="google_pay" data-name="google pay" transform="translate(5701.508 -15953)">
    <g id="Group_1391" data-name="Group 1391" transform="translate(-5656.929 15954.688)">
      <path id="Path_1369" data-name="Path 1369" d="M2704.175,222.461v6.856H2702V212.39h5.768a5.213,5.213,0,0,1,3.735,1.466,4.891,4.891,0,0,1,0,7.163,5.206,5.206,0,0,1-3.735,1.442Zm0-7.99v5.91h3.64a2.874,2.874,0,0,0,2.151-.875,2.967,2.967,0,0,0-2.151-5.035Z" transform="translate(-2618.777 -210.527)" fill="#fff"/>
      <path id="Path_1370" data-name="Path 1370" d="M2949.5,315.29a5.39,5.39,0,0,1,3.806,1.289,4.574,4.574,0,0,1,1.395,3.534v7.139h-2.08v-1.608h-.094a4.149,4.149,0,0,1-3.593,1.986,4.673,4.673,0,0,1-3.2-1.135,3.624,3.624,0,0,1-1.289-2.837,3.444,3.444,0,0,1,1.359-2.861,5.729,5.729,0,0,1,3.629-1.064,6.422,6.422,0,0,1,3.191.709v-.5a2.475,2.475,0,0,0-.9-1.926,3.083,3.083,0,0,0-2.1-.792,3.333,3.333,0,0,0-2.884,1.537l-1.915-1.206A5.341,5.341,0,0,1,2949.5,315.29Zm-2.813,8.416a1.736,1.736,0,0,0,.721,1.418,2.653,2.653,0,0,0,1.69.567,3.466,3.466,0,0,0,2.447-1.017,3.184,3.184,0,0,0,1.075-2.388,4.469,4.469,0,0,0-2.837-.8,3.685,3.685,0,0,0-2.211.638A1.9,1.9,0,0,0,2946.686,323.706Z" transform="translate(-2849.52 -308.463)" fill="#fff"/>
      <path id="Path_1371" data-name="Path 1371" d="M3174.034,323.13l-7.257,16.69h-2.246l2.7-5.839-4.775-10.851h2.364l3.452,8.321h.047l3.357-8.321Z" transform="translate(-3057.012 -315.925)" fill="#fff"/>
      <path id="Path_1372" data-name="Path 1372" d="M986.774,185.146v-2.617h8.761a9.355,9.355,0,0,1-2.124,7.727,8.756,8.756,0,0,1-6.682,2.687,9.583,9.583,0,1,1,0-19.163,9.127,9.127,0,0,1,6.565,2.641l-1.846,1.846a6.672,6.672,0,0,0-4.719-1.87,6.965,6.965,0,0,0,0,13.928,6.408,6.408,0,0,0,4.836-1.916,5.444,5.444,0,0,0,1.421-3.264Z" transform="translate(-977.01 -173.78)" fill="#fff"/>
      <path id="Path_1373" data-name="Path 1373" d="M1396.363,321.4a6.191,6.191,0,1,1-6.191-6.17A6.095,6.095,0,0,1,1396.363,321.4Zm-2.71,0a3.49,3.49,0,1,0-3.481,3.739A3.554,3.554,0,0,0,1393.653,321.4Z" transform="translate(-1364.346 -308.406)" fill="#fff"/>
      <path id="Path_1374" data-name="Path 1374" d="M1676.313,321.4a6.191,6.191,0,1,1-6.191-6.17A6.095,6.095,0,0,1,1676.313,321.4Zm-2.71,0a3.49,3.49,0,1,0-3.481,3.739A3.554,3.554,0,0,0,1673.6,321.4Z" transform="translate(-1630.789 -308.406)" fill="#fff"/>
      <path id="Path_1375" data-name="Path 1375" d="M1955.712,315.594v11.077c0,4.557-2.687,6.427-5.864,6.427a5.879,5.879,0,0,1-5.467-3.645l2.36-.982a3.413,3.413,0,0,0,3.107,2.2c2.033,0,3.294-1.262,3.294-3.622v-.888h-.094a4.2,4.2,0,0,1-3.247,1.4,6.175,6.175,0,0,1,0-12.339,4.272,4.272,0,0,1,3.247,1.379h.094v-1Zm-2.383,5.819a3.477,3.477,0,0,0-3.294-3.763,3.753,3.753,0,0,0,0,7.479A3.447,3.447,0,0,0,1953.329,321.413Z" transform="translate(-1897.242 -308.396)" fill="#fff"/>
      <path id="Path_1376" data-name="Path 1376" d="M2230.61,188.61v18.074h-2.71V188.61Z" transform="translate(-2167.55 -187.895)" fill="#fff"/>
      <path id="Path_1377" data-name="Path 1377" d="M2320.319,323.413l2.1,1.4a6.136,6.136,0,0,1-5.14,2.734,6.037,6.037,0,0,1-6.121-6.17,5.863,5.863,0,0,1,5.817-6.17,5.733,5.733,0,0,1,5.281,3.926l.28.7-8.248,3.412a3.138,3.138,0,0,0,2.991,1.87A3.52,3.52,0,0,0,2320.319,323.413Zm-6.472-2.22,5.513-2.29a2.389,2.389,0,0,0-2.29-1.308A3.383,3.383,0,0,0,2313.847,321.193Z" transform="translate(-2246.793 -308.387)" fill="#fff"/>
    </g>
    <g id="Group_1392" data-name="Group 1392" transform="translate(-5701.508 15953)">
      <path id="Google_Red" d="M383.66,154.381l8.147-14.111,4.436,2.561a5.99,5.99,0,0,1,2.193,8.183l-4.587,7.945a3.744,3.744,0,0,1-5.115,1.371l-4.117-2.377A2.614,2.614,0,0,1,383.66,154.381Z" transform="translate(-366.314 -137.453)" fill="url(#linear-gradient)"/>
      <path id="Google_Yellow" d="M172.713,203.924l-10.133,17.55,4.436,2.561a5.99,5.99,0,0,0,8.183-2.193l6.572-11.384a3.744,3.744,0,0,0-1.371-5.115l-4.117-2.377A2.614,2.614,0,0,0,172.713,203.924Z" transform="translate(-156.234 -196.792)" fill="#f5f5f5"/>
      <path id="Google_Green" d="M170.925,84.7l-3.139-1.813a7.488,7.488,0,0,0-10.229,2.741l-5.824,10.087a3.744,3.744,0,0,0,1.371,5.115l3.139,1.813a3.744,3.744,0,0,0,5.115-1.371l6.953-12.043h0a5.23,5.23,0,0,1,7.144-1.914" transform="translate(-145.432 -81.881)" fill="#fbfbfb"/>
      <path id="Google_Blue" d="M44.07,172.9l-3.465-2a3.233,3.233,0,0,0-4.411,1.179l-4.158,7.184a7.383,7.383,0,0,0,2.713,10.1l2.639,1.52,3.2,1.842,1.389.8a5.676,5.676,0,0,1-1.741-7.559l1.076-1.858,3.941-6.811A3.217,3.217,0,0,0,44.07,172.9Z" transform="translate(-31.042 -166.198)" fill="url(#linear-gradient-2)"/>
    </g>
  </g>
</svg>
