<?xml version="1.0" encoding="UTF-8" standalone="no"?><!-- Generator: Gravit.io --><svg xmlns="http://www.w3.org/2000/svg" xmlns:xlink="http://www.w3.org/1999/xlink" style="isolation:isolate" viewBox="0 0 1920 850" width="1920pt" height="850pt"><defs><clipPath id="_clipPath_ufPIBJu3cKInteAO6PEC8Ddb1RGiNhks"><rect width="1920" height="850"/></clipPath></defs><g clip-path="url(#_clipPath_ufPIBJu3cKInteAO6PEC8Ddb1RGiNhks)"><g opacity="0.88"><linearGradient id="_lgradient_0" x1="0.5685446093618937" y1="1.1427576594950932" x2="0.7660897702418739" y2="0.14148428165177385" gradientTransform="matrix(1920,0,0,850,0,0)" gradientUnits="userSpaceOnUse"><stop offset="0%" stop-opacity="0.98" style="stop-color:rgb(147,58,155)"/><stop offset="100%" stop-opacity="1" style="stop-color:rgb(97,16,104)"/></linearGradient><rect x="0" y="0" width="1920" height="850" transform="matrix(1,0,0,1,0,0)" fill="url(#_lgradient_0)"/></g><g opacity="0.88"><path d=" M 1920 622.249 C 1598 565.513 1498.667 850.676 1182 813.674 C 1084.151 802.24 1008 764.78 844 668.375 C 680 571.971 576.509 573.76 317.333 590.421 C 58.157 607.082 10.667 486.088 0 466.648 L 0 0 L 1920 0 L 1920 622.249 Z " fill="rgb(129,53,136)"/></g><g style="opacity:0.11;" filter="url(#zD4HSq35UZzp36KWRBPECjnvQcOVZ2z2)"><linearGradient id="_lgradient_1" x1="1.1957572417139168" y1="0.6579238407755454" x2="0.661653299473106" y2="-0.06227643978423314" gradientTransform="matrix(49.049,0,0,51.731,352.726,162.853)" gradientUnits="userSpaceOnUse"><stop offset="0%" stop-opacity="1" style="stop-color:rgb(169,118,255)"/><stop offset="100%" stop-opacity="1" style="stop-color:rgb(254,162,207)"/></linearGradient><path d=" M 384.897 163.155 L 377.349 167.286 C 376.151 167.942 375.706 169.449 376.355 170.653 L 387.709 191.737 C 389.421 194.914 388.246 198.892 385.085 200.621 C 381.925 202.351 377.976 201.177 376.265 198.001 L 364.91 176.917 C 364.261 175.713 362.765 175.269 361.567 175.924 L 354.019 180.055 C 352.821 180.711 352.376 182.218 353.024 183.422 L 364.141 204.063 C 369.406 213.838 381.556 217.449 391.281 212.126 C 401.006 206.804 404.621 194.564 399.356 184.789 L 388.24 164.148 C 387.868 163.457 387.216 163.016 386.501 162.89 C 385.971 162.796 385.407 162.876 384.897 163.155 Z " fill-rule="evenodd" fill="url(#_lgradient_1)"/><g filter="url(#Y7NowuSioSdkqL6yQgdd3x1SkuwUfVjw)"><linearGradient id="_lgradient_2" x1="1.2927960389077442" y1="1.5520900753067555" x2="2.321096134230559" y2="-0.515698230832274" gradientTransform="matrix(15.737,0,0,14.773,375.122,161.382)" gradientUnits="userSpaceOnUse"><stop offset="0%" stop-opacity="1" style="stop-color:rgb(255,140,123)"/><stop offset="100%" stop-opacity="1" style="stop-color:rgb(255,242,155)"/></linearGradient><path d=" M 378.84 176.155 L 390.859 169.324 L 387.434 162.717 C 386.788 161.469 385.281 161.015 384.07 161.703 L 376.437 166.041 C 375.226 166.729 374.769 168.299 375.415 169.547 L 378.84 176.155 Z " fill-rule="evenodd" fill="url(#_lgradient_2)"/></g><defs><filter id="Y7NowuSioSdkqL6yQgdd3x1SkuwUfVjw" x="-200%" y="-200%" width="400%" height="400%" filterUnits="objectBoundingBox" color-interpolation-filters="sRGB"><feGaussianBlur xmlns="http://www.w3.org/2000/svg" in="SourceGraphic" stdDeviation="1.5"/><feOffset xmlns="http://www.w3.org/2000/svg" dx="0" dy="2" result="pf_100_offsetBlur"/><feFlood xmlns="http://www.w3.org/2000/svg" flood-color="#000000" flood-opacity="0"/><feComposite xmlns="http://www.w3.org/2000/svg" in2="pf_100_offsetBlur" operator="in" result="pf_100_dropShadow"/><feBlend xmlns="http://www.w3.org/2000/svg" in="SourceGraphic" in2="pf_100_dropShadow" mode="normal"/></filter></defs><g filter="url(#yut6m6S3pLOcax3B6NVGLpFfxDGcFLxl)"><linearGradient id="_lgradient_3" x1="1.2927954320123658" y1="1.5520932845564928" x2="2.3210933959177678" y2="-0.5156862875171222" gradientTransform="matrix(15.737,0,0,14.773,352.14,174.662)" gradientUnits="userSpaceOnUse"><stop offset="0%" stop-opacity="1" style="stop-color:rgb(255,140,123)"/><stop offset="100%" stop-opacity="1" style="stop-color:rgb(255,242,155)"/></linearGradient><path d=" M 355.858 189.435 L 367.877 182.604 L 364.453 175.997 C 363.806 174.748 362.3 174.295 361.088 174.983 L 353.456 179.321 C 352.244 180.009 351.787 181.579 352.433 182.827 L 355.858 189.435 Z " fill-rule="evenodd" fill="url(#_lgradient_3)"/></g><defs><filter id="yut6m6S3pLOcax3B6NVGLpFfxDGcFLxl" x="-200%" y="-200%" width="400%" height="400%" filterUnits="objectBoundingBox" color-interpolation-filters="sRGB"><feGaussianBlur xmlns="http://www.w3.org/2000/svg" in="SourceGraphic" stdDeviation="1.5"/><feOffset xmlns="http://www.w3.org/2000/svg" dx="0" dy="2" result="pf_100_offsetBlur"/><feFlood xmlns="http://www.w3.org/2000/svg" flood-color="#000000" flood-opacity="0"/><feComposite xmlns="http://www.w3.org/2000/svg" in2="pf_100_offsetBlur" operator="in" result="pf_100_dropShadow"/><feBlend xmlns="http://www.w3.org/2000/svg" in="SourceGraphic" in2="pf_100_dropShadow" mode="normal"/></filter></defs><g filter="url(#PEptvLp25AFwtylBslTDLhjIhd1voHin)"><linearGradient id="_lgradient_4" x1="1.4776903222874052" y1="1.3488222813620996" x2="2.454802009565352" y2="-0.616023167513597" gradientTransform="matrix(19.196,0,0,27.217,352.347,146.283)" gradientUnits="userSpaceOnUse"><stop offset="0%" stop-opacity="1" style="stop-color:rgb(255,140,123)"/><stop offset="100%" stop-opacity="1" style="stop-color:rgb(255,242,155)"/></linearGradient><path d=" M 352.357 146.567 L 357.383 163.596 C 357.632 164.438 358.584 164.875 359.399 164.521 L 362.716 163.081 C 363.41 162.781 364.228 163.02 364.645 163.644 L 371.164 173.406 C 371.296 173.604 371.608 173.459 371.531 173.235 L 366.019 157.138 C 365.752 156.358 364.874 155.95 364.092 156.242 L 361.225 157.315 C 360.534 157.574 359.748 157.314 359.353 156.696 L 352.77 146.39 C 352.629 146.169 352.283 146.318 352.357 146.567 Z " fill-rule="evenodd" fill="url(#_lgradient_4)"/></g><defs><filter id="PEptvLp25AFwtylBslTDLhjIhd1voHin" x="-200%" y="-200%" width="400%" height="400%" filterUnits="objectBoundingBox" color-interpolation-filters="sRGB"><feGaussianBlur xmlns="http://www.w3.org/2000/svg" in="SourceGraphic" stdDeviation="1.5"/><feOffset xmlns="http://www.w3.org/2000/svg" dx="0" dy="2" result="pf_100_offsetBlur"/><feFlood xmlns="http://www.w3.org/2000/svg" flood-color="#000000" flood-opacity="0"/><feComposite xmlns="http://www.w3.org/2000/svg" in2="pf_100_offsetBlur" operator="in" result="pf_100_dropShadow"/><feBlend xmlns="http://www.w3.org/2000/svg" in="SourceGraphic" in2="pf_100_dropShadow" mode="normal"/></filter></defs></g><defs><filter id="zD4HSq35UZzp36KWRBPECjnvQcOVZ2z2" x="-200%" y="-200%" width="400%" height="400%" filterUnits="objectBoundingBox" color-interpolation-filters="sRGB"><feGaussianBlur xmlns="http://www.w3.org/2000/svg" in="SourceGraphic" stdDeviation="2.5"/><feOffset xmlns="http://www.w3.org/2000/svg" dx="0" dy="2" result="pf_100_offsetBlur"/><feFlood xmlns="http://www.w3.org/2000/svg" flood-color="#000000" flood-opacity="0"/><feComposite xmlns="http://www.w3.org/2000/svg" in2="pf_100_offsetBlur" operator="in" result="pf_100_dropShadow"/><feBlend xmlns="http://www.w3.org/2000/svg" in="SourceGraphic" in2="pf_100_dropShadow" mode="normal"/></filter></defs><g style="opacity:0.1;" filter="url(#o1D1igq34Qel1EfzPnwyC2znNHrMfRBI)"><linearGradient id="_lgradient_5" x1="0.7689152789928019" y1="1.2345311269247818" x2="1.1272574785295064" y2="0.44399506945014044" gradientTransform="matrix(56.167,0,0,45.148,274.867,424.342)" gradientUnits="userSpaceOnUse"><stop offset="0%" stop-opacity="1" style="stop-color:rgb(169,118,255)"/><stop offset="100%" stop-opacity="1" style="stop-color:rgb(254,162,207)"/></linearGradient><path d=" M 275.136 439.429 C 274.566 440.348 274.937 441.587 275.924 442.127 L 325.496 469.241 C 326.483 469.781 327.705 469.413 328.147 468.424 C 334.889 453.341 329.488 435.569 315.448 427.891 C 311.362 425.656 306.976 424.512 302.595 424.359 C 291.927 423.987 281.296 429.492 275.136 439.429 Z  M 315.187 452.725 L 295.175 441.781 C 294.214 441.255 293.982 439.994 294.695 439.22 C 298.011 435.622 304.386 435.04 310.022 438.123 C 315.66 441.206 318.689 446.932 317.555 451.723 C 317.374 452.491 316.682 452.962 315.944 452.936 C 315.691 452.927 315.432 452.86 315.187 452.725 Z " fill-rule="evenodd" fill="url(#_lgradient_5)"/><path d=" M 283.896 442.929 L 283.934 442.949 C 284.352 443.169 284.509 443.678 284.284 444.086 L 282.879 446.635 L 281.325 445.818 L 282.731 443.27 C 282.956 442.861 283.477 442.709 283.896 442.929 Z  M 296.775 449.704 C 297.194 449.924 297.351 450.434 297.126 450.842 L 295.721 453.39 L 294.167 452.573 L 295.572 450.024 C 295.797 449.616 296.319 449.464 296.738 449.684 L 296.775 449.704 Z  M 321.404 466.9 L 319.85 466.082 L 321.256 463.534 C 321.481 463.126 322.003 462.974 322.421 463.194 L 322.459 463.213 C 322.878 463.433 323.034 463.943 322.81 464.351 L 321.404 466.9 Z  M 309.968 457.597 C 310.193 457.189 310.036 456.679 309.617 456.459 L 309.58 456.439 C 309.161 456.219 308.64 456.371 308.414 456.779 L 307.008 459.328 L 308.562 460.145 L 309.968 457.597 Z " fill-rule="evenodd" fill="rgb(255,198,247)"/></g><defs><filter id="o1D1igq34Qel1EfzPnwyC2znNHrMfRBI" x="-200%" y="-200%" width="400%" height="400%" filterUnits="objectBoundingBox" color-interpolation-filters="sRGB"><feGaussianBlur xmlns="http://www.w3.org/2000/svg" in="SourceGraphic" stdDeviation="2.5"/><feOffset xmlns="http://www.w3.org/2000/svg" dx="0" dy="3" result="pf_100_offsetBlur"/><feFlood xmlns="http://www.w3.org/2000/svg" flood-color="#000000" flood-opacity="0"/><feComposite xmlns="http://www.w3.org/2000/svg" in2="pf_100_offsetBlur" operator="in" result="pf_100_dropShadow"/><feBlend xmlns="http://www.w3.org/2000/svg" in="SourceGraphic" in2="pf_100_dropShadow" mode="normal"/></filter></defs><g style="opacity:0.1;" filter="url(#HwMMMem5qmaZ5vjsPD2tfPT2qTqDPHWy)"><g filter="url(#9BffOdWjJoNInWqb2pybINXAm7x2R6X9)"><g opacity="0.6"><linearGradient id="_lgradient_6" x1="-0.8267799908424911" y1="0.03185886258063064" x2="1.3099482382603076" y2="-1.5765171298732743" gradientTransform="matrix(16.493,0,0,25.562,1529.756,182.113)" gradientUnits="userSpaceOnUse"><stop offset="0%" stop-opacity="1" style="stop-color:rgb(255,140,123)"/><stop offset="100%" stop-opacity="1" style="stop-color:rgb(255,242,155)"/></linearGradient><path d=" M 1538.506 206.849 L 1529.756 198.878 L 1546.249 182.113 L 1543.983 204.749 C 1543.722 207.368 1540.452 208.621 1538.506 206.849 Z " fill-rule="evenodd" fill="url(#_lgradient_6)"/></g></g><defs><filter id="9BffOdWjJoNInWqb2pybINXAm7x2R6X9" x="-200%" y="-200%" width="400%" height="400%" filterUnits="objectBoundingBox" color-interpolation-filters="sRGB"><feGaussianBlur xmlns="http://www.w3.org/2000/svg" in="SourceGraphic" stdDeviation="2"/><feOffset xmlns="http://www.w3.org/2000/svg" dx="0" dy="2" result="pf_100_offsetBlur"/><feFlood xmlns="http://www.w3.org/2000/svg" flood-color="#000000" flood-opacity="0"/><feComposite xmlns="http://www.w3.org/2000/svg" in2="pf_100_offsetBlur" operator="in" result="pf_100_dropShadow"/><feBlend xmlns="http://www.w3.org/2000/svg" in="SourceGraphic" in2="pf_100_dropShadow" mode="normal"/></filter></defs><g filter="url(#cDRXyiAZY7DETZsKhCegQgRo5MLgCuwz)"><g opacity="0.6"><linearGradient id="_lgradient_7" x1="-0.4579176520572484" y1="-0.0014527845036320652" x2="1.099438761392729" y2="-1.6137754415802725" gradientTransform="matrix(24.571,0,0,16.812,1507.288,168.164)" gradientUnits="userSpaceOnUse"><stop offset="0%" stop-opacity="1" style="stop-color:rgb(255,140,123)"/><stop offset="100%" stop-opacity="1" style="stop-color:rgb(255,242,155)"/></linearGradient><path d=" M 1508.305 176.239 L 1516.908 184.976 L 1531.859 168.164 L 1509.87 170.693 C 1507.327 170.986 1506.392 174.297 1508.305 176.239 Z " fill-rule="evenodd" fill="url(#_lgradient_7)"/></g></g><defs><filter id="cDRXyiAZY7DETZsKhCegQgRo5MLgCuwz" x="-200%" y="-200%" width="400%" height="400%" filterUnits="objectBoundingBox" color-interpolation-filters="sRGB"><feGaussianBlur xmlns="http://www.w3.org/2000/svg" in="SourceGraphic" stdDeviation="2"/><feOffset xmlns="http://www.w3.org/2000/svg" dx="0" dy="2" result="pf_100_offsetBlur"/><feFlood xmlns="http://www.w3.org/2000/svg" flood-color="#000000" flood-opacity="0"/><feComposite xmlns="http://www.w3.org/2000/svg" in2="pf_100_offsetBlur" operator="in" result="pf_100_dropShadow"/><feBlend xmlns="http://www.w3.org/2000/svg" in="SourceGraphic" in2="pf_100_dropShadow" mode="normal"/></filter></defs><g filter="url(#NgGpXtNUrUCQ55q1gbYwSN9l5PiypOJV)"><linearGradient id="_lgradient_8" x1="-0.5169540332463778" y1="-0.1849544397095264" x2="1.1215127097477302" y2="-1.3064827409568087" gradientTransform="matrix(16.376,0,0,16.358,1512.022,188.258)" gradientUnits="userSpaceOnUse"><stop offset="0%" stop-opacity="1" style="stop-color:rgb(255,140,123)"/><stop offset="100%" stop-opacity="1" style="stop-color:rgb(255,242,155)"/></linearGradient><path d=" M 1512.488 195.436 L 1521.505 204.199 C 1522.206 204.88 1523.326 204.702 1523.759 203.842 L 1528.398 198.633 L 1517.459 188.258 L 1512.701 193.097 C 1511.893 193.592 1511.787 194.756 1512.488 195.436 Z " fill-rule="evenodd" fill="url(#_lgradient_8)"/></g><defs><filter id="NgGpXtNUrUCQ55q1gbYwSN9l5PiypOJV" x="-200%" y="-200%" width="400%" height="400%" filterUnits="objectBoundingBox" color-interpolation-filters="sRGB"><feGaussianBlur xmlns="http://www.w3.org/2000/svg" in="SourceGraphic" stdDeviation="2"/><feOffset xmlns="http://www.w3.org/2000/svg" dx="0" dy="2" result="pf_100_offsetBlur"/><feFlood xmlns="http://www.w3.org/2000/svg" flood-color="#000000" flood-opacity="0"/><feComposite xmlns="http://www.w3.org/2000/svg" in2="pf_100_offsetBlur" operator="in" result="pf_100_dropShadow"/><feBlend xmlns="http://www.w3.org/2000/svg" in="SourceGraphic" in2="pf_100_dropShadow" mode="normal"/></filter></defs><linearGradient id="_lgradient_9" x1="-0.2566177040514076" y1="0.675432850196376" x2="0.1568017898486151" y2="-0.23941749727923212" gradientTransform="matrix(45.943,0,0,46.6,1515.592,153.714)" gradientUnits="userSpaceOnUse"><stop offset="0%" stop-opacity="1" style="stop-color:rgb(169,118,255)"/><stop offset="100%" stop-opacity="1" style="stop-color:rgb(254,162,207)"/></linearGradient><path d=" M 1556.192 175.174 L 1554.091 177.368 L 1532.917 199.475 C 1531.898 200.54 1530.206 200.599 1529.138 199.608 L 1516.418 187.794 C 1515.352 186.803 1515.313 185.136 1516.333 184.072 L 1537.506 161.965 L 1537.506 161.965 L 1539.608 159.77 C 1545.045 154.093 1553.127 152.378 1560.086 154.749 C 1560.159 154.922 1560.229 155.098 1560.296 155.273 C 1562.828 161.867 1561.49 169.643 1556.192 175.174 Z " fill-rule="evenodd" fill="url(#_lgradient_9)"/><g opacity="0.2"><path d=" M 1543.791 164.351 C 1540.963 166.477 1541.049 170.592 1543.959 172.503 C 1545.721 173.659 1548.129 173.569 1549.84 172.282 C 1552.666 170.157 1552.582 166.042 1549.672 164.131 C 1547.91 162.975 1545.503 163.065 1543.791 164.351 Z " fill-rule="evenodd" fill="rgb(255,188,246)"/></g></g><defs><filter id="HwMMMem5qmaZ5vjsPD2tfPT2qTqDPHWy" x="-200%" y="-200%" width="400%" height="400%" filterUnits="objectBoundingBox" color-interpolation-filters="sRGB"><feGaussianBlur xmlns="http://www.w3.org/2000/svg" in="SourceGraphic" stdDeviation="3"/><feOffset xmlns="http://www.w3.org/2000/svg" dx="0" dy="3" result="pf_100_offsetBlur"/><feFlood xmlns="http://www.w3.org/2000/svg" flood-color="#000000" flood-opacity="0"/><feComposite xmlns="http://www.w3.org/2000/svg" in2="pf_100_offsetBlur" operator="in" result="pf_100_dropShadow"/><feBlend xmlns="http://www.w3.org/2000/svg" in="SourceGraphic" in2="pf_100_dropShadow" mode="normal"/></filter></defs><g style="opacity:0.1;" filter="url(#O21Wzh7bm9QLq9MG5bXTsdQPG0Sk6wV0)"><linearGradient id="_lgradient_10" x1="0.786200858106292" y1="1.2456306053833357" x2="1.3974858602807436" y2="0.35010018572681234" gradientTransform="matrix(38.994,0,0,50.495,1597.245,430.312)" gradientUnits="userSpaceOnUse"><stop offset="0%" stop-opacity="1" style="stop-color:rgb(169,118,255)"/><stop offset="100%" stop-opacity="1" style="stop-color:rgb(254,162,207)"/></linearGradient><path d=" M 1619.248 431.552 C 1618.894 432.388 1619.159 433.324 1619.836 433.871 L 1616.281 442.252 C 1615.825 443.326 1614.825 444.097 1613.646 444.243 C 1607.196 445.049 1601.354 449.114 1598.683 455.411 C 1594.707 464.782 1599.258 475.534 1608.847 479.409 C 1618.423 483.279 1629.359 478.844 1633.332 469.482 C 1636.004 463.184 1634.819 456.264 1630.847 451.227 C 1630.122 450.308 1629.977 449.071 1630.432 447.999 L 1633.988 439.619 C 1634.863 439.702 1635.727 439.224 1636.082 438.389 C 1636.517 437.363 1636.019 436.187 1634.972 435.762 L 1621.934 430.466 C 1621.676 430.362 1621.41 430.312 1621.147 430.312 C 1620.342 430.312 1619.577 430.779 1619.248 431.552 Z " fill-rule="evenodd" fill="url(#_lgradient_10)"/><g filter="url(#vPiiy0K55KwmMUh8rDdHzB9yvUbRiKWB)"><linearGradient id="_lgradient_11" x1="1.4544985547897609" y1="1.3276688768864646" x2="1.9318106475208792" y2="-0.5889682479001512" gradientTransform="matrix(37.981,0,0,32.037,1596.64,448.668)" gradientUnits="userSpaceOnUse"><stop offset="0%" stop-opacity="1" style="stop-color:rgb(255,140,123)"/><stop offset="100%" stop-opacity="1" style="stop-color:rgb(255,242,155)"/></linearGradient><path d=" M 1597.753 456.744 C 1594.453 465.375 1598.723 475.092 1607.531 478.993 C 1617.402 483.364 1629.034 479.051 1633.168 469.66 C 1634.649 466.294 1634.959 462.748 1634.276 459.42 C 1633.951 457.838 1633.077 456.354 1631.685 455.417 C 1627.127 452.351 1622.975 453.123 1615.706 454.473 C 1611.842 455.191 1604.421 453.722 1603.958 448.668 C 1601.221 450.672 1599.027 453.412 1597.753 456.744 Z " fill-rule="evenodd" fill="url(#_lgradient_11)"/></g><defs><filter id="vPiiy0K55KwmMUh8rDdHzB9yvUbRiKWB" x="-200%" y="-200%" width="400%" height="400%" filterUnits="objectBoundingBox" color-interpolation-filters="sRGB"><feGaussianBlur xmlns="http://www.w3.org/2000/svg" in="SourceGraphic" stdDeviation="1.5"/><feOffset xmlns="http://www.w3.org/2000/svg" dx="0" dy="2" result="pf_100_offsetBlur"/><feFlood xmlns="http://www.w3.org/2000/svg" flood-color="#000000" flood-opacity="0"/><feComposite xmlns="http://www.w3.org/2000/svg" in2="pf_100_offsetBlur" operator="in" result="pf_100_dropShadow"/><feBlend xmlns="http://www.w3.org/2000/svg" in="SourceGraphic" in2="pf_100_dropShadow" mode="normal"/></filter></defs><path d=" M 1612.64 461.279 C 1612.265 462.177 1612.694 463.207 1613.597 463.58 C 1614.501 463.953 1615.539 463.527 1615.913 462.629 C 1616.289 461.731 1615.86 460.7 1614.956 460.327 C 1614.053 459.955 1613.016 460.381 1612.64 461.279 Z " fill-rule="evenodd" fill="rgb(202,100,212)"/><path d=" M 1607.504 466.673 C 1607.254 467.272 1607.539 467.959 1608.142 468.208 C 1608.745 468.456 1609.436 468.172 1609.686 467.573 C 1609.936 466.974 1609.65 466.287 1609.047 466.039 C 1608.445 465.79 1607.753 466.074 1607.504 466.673 Z " fill-rule="evenodd" fill="rgb(202,100,212)"/><linearGradient id="_lgradient_12" x1="0.7861979607971703" y1="1.245636631503226" x2="1.2726919427158112" y2="0.31695312735151626" gradientTransform="matrix(7.09,0,0,7.046,1636.27,416.395)" gradientUnits="userSpaceOnUse"><stop offset="0%" stop-opacity="1" style="stop-color:rgb(169,118,255)"/><stop offset="100%" stop-opacity="1" style="stop-color:rgb(254,162,207)"/></linearGradient><path d=" M 1643.194 420.98 C 1643.784 419.126 1642.75 417.147 1640.884 416.56 C 1639.019 415.973 1637.026 417.001 1636.436 418.855 C 1635.846 420.71 1636.88 422.688 1638.745 423.275 C 1640.612 423.862 1642.603 422.835 1643.194 420.98 Z " fill-rule="evenodd" fill="url(#_lgradient_12)"/><linearGradient id="_lgradient_13" x1="0.7861813425132951" y1="1.2456373912908458" x2="1.2726730540885676" y2="0.31694952543470956" gradientTransform="matrix(3.545,0,0,3.523,1628.459,421.624)" gradientUnits="userSpaceOnUse"><stop offset="0%" stop-opacity="1" style="stop-color:rgb(169,118,255)"/><stop offset="100%" stop-opacity="1" style="stop-color:rgb(254,162,207)"/></linearGradient><path d=" M 1630.151 425.145 C 1629.173 425.101 1628.416 424.278 1628.461 423.306 C 1628.505 422.334 1629.334 421.582 1630.311 421.626 C 1631.29 421.67 1632.046 422.494 1632.002 423.465 C 1631.957 424.438 1631.129 425.19 1630.151 425.145 Z " fill-rule="evenodd" fill="url(#_lgradient_13)"/><linearGradient id="_lgradient_14" x1="0.7861952768380682" y1="1.2456498802218334" x2="1.2726728997079704" y2="0.31695544600062064" gradientTransform="matrix(2.363,0,0,2.349,1630.76,428.47)" gradientUnits="userSpaceOnUse"><stop offset="0%" stop-opacity="1" style="stop-color:rgb(169,118,255)"/><stop offset="100%" stop-opacity="1" style="stop-color:rgb(254,162,207)"/></linearGradient><path d=" M 1632.779 428.815 C 1632.318 428.356 1631.57 428.355 1631.107 428.813 C 1630.645 429.271 1630.644 430.014 1631.105 430.473 C 1631.566 430.933 1632.314 430.934 1632.776 430.476 C 1633.238 430.018 1633.239 429.274 1632.779 428.815 Z " fill-rule="evenodd" fill="url(#_lgradient_14)"/></g><defs><filter id="O21Wzh7bm9QLq9MG5bXTsdQPG0Sk6wV0" x="-200%" y="-200%" width="400%" height="400%" filterUnits="objectBoundingBox" color-interpolation-filters="sRGB"><feGaussianBlur xmlns="http://www.w3.org/2000/svg" in="SourceGraphic" stdDeviation="2.5"/><feOffset xmlns="http://www.w3.org/2000/svg" dx="0" dy="2" result="pf_100_offsetBlur"/><feFlood xmlns="http://www.w3.org/2000/svg" flood-color="#000000" flood-opacity="0"/><feComposite xmlns="http://www.w3.org/2000/svg" in2="pf_100_offsetBlur" operator="in" result="pf_100_dropShadow"/><feBlend xmlns="http://www.w3.org/2000/svg" in="SourceGraphic" in2="pf_100_dropShadow" mode="normal"/></filter></defs></g></svg>