<?xml version="1.0" encoding="UTF-8" standalone="no"?><!-- Generator: Gravit.io --><svg xmlns="http://www.w3.org/2000/svg" xmlns:xlink="http://www.w3.org/1999/xlink" style="isolation:isolate" viewBox="0 0 50 50" width="50pt" height="50pt"><g><g filter="url(#qGoaGHIz4E5oETAW0nkI8ejBjeKvhhKI)"><linearGradient id="_lgradient_30" x1="0" y1="0.5" x2="6.123233995736766e-17" y2="-0.5" gradientTransform="matrix(19.301,0,0,18.661,2.73,26.521)" gradientUnits="userSpaceOnUse"><stop offset="0%" stop-opacity="1" style="stop-color:rgb(255,140,123)"/><stop offset="100%" stop-opacity="1" style="stop-color:rgb(255,192,139)"/></linearGradient><path d=" M 8.389 39.248 L 3.848 38.776 C 3.341 38.723 2.918 38.367 2.778 37.876 C 2.638 37.386 2.81 36.86 3.212 36.547 L 6.81 33.744 C 7.188 33.449 7.365 32.965 7.265 32.496 L 6.309 28.032 C 6.203 27.533 6.41 27.02 6.833 26.734 C 7.256 26.449 7.809 26.45 8.232 26.735 L 12.014 29.293 C 12.41 29.561 12.926 29.579 13.34 29.339 L 17.29 27.052 C 17.731 26.797 18.284 26.835 18.685 27.149 C 19.087 27.463 19.258 27.989 19.117 28.479 L 17.854 32.866 C 17.722 33.325 17.863 33.819 18.217 34.139 L 21.614 37.189 C 21.995 37.53 22.131 38.068 21.956 38.548 C 21.781 39.029 21.332 39.355 20.821 39.371 L 16.258 39.525 C 15.78 39.541 15.353 39.829 15.158 40.266 L 13.306 44.439 C 13.099 44.905 12.63 45.199 12.12 45.181 C 11.611 45.163 11.163 44.837 10.989 44.358 L 9.435 40.066 C 9.272 39.616 8.866 39.298 8.389 39.248 Z " fill="url(#_lgradient_30)"/></g><defs><filter id="qGoaGHIz4E5oETAW0nkI8ejBjeKvhhKI" x="-200%" y="-200%" width="400%" height="400%" filterUnits="objectBoundingBox" color-interpolation-filters="sRGB"><feGaussianBlur xmlns="http://www.w3.org/2000/svg" in="SourceGraphic" stdDeviation="1"/><feOffset xmlns="http://www.w3.org/2000/svg" dx="0" dy="2" result="pf_100_offsetBlur"/><feFlood xmlns="http://www.w3.org/2000/svg" flood-color="#DD5E0A" flood-opacity="0.2"/><feComposite xmlns="http://www.w3.org/2000/svg" in2="pf_100_offsetBlur" operator="in" result="pf_100_dropShadow"/><feBlend xmlns="http://www.w3.org/2000/svg" in="SourceGraphic" in2="pf_100_dropShadow" mode="normal"/></filter></defs><g filter="url(#sDKVeREWSksEz41IPBc7dBiHyABXxuw7)"><linearGradient id="_lgradient_31" x1="0" y1="0.5" x2="6.123233995736766e-17" y2="-0.5" gradientTransform="matrix(19.301,0,0,18.661,27.975,26.521)" gradientUnits="userSpaceOnUse"><stop offset="0%" stop-opacity="1" style="stop-color:rgb(255,140,123)"/><stop offset="100%" stop-opacity="1" style="stop-color:rgb(255,192,139)"/></linearGradient><path d=" M 33.635 39.248 L 29.094 38.776 C 28.587 38.723 28.163 38.367 28.024 37.876 C 27.884 37.386 28.055 36.86 28.457 36.547 L 32.055 33.744 C 32.433 33.449 32.61 32.965 32.51 32.496 L 31.555 28.032 C 31.448 27.533 31.655 27.02 32.078 26.734 C 32.501 26.449 33.055 26.45 33.477 26.735 L 37.259 29.293 C 37.656 29.561 38.171 29.579 38.585 29.339 L 42.535 27.052 C 42.977 26.797 43.529 26.835 43.931 27.149 C 44.333 27.463 44.504 27.989 44.363 28.479 L 43.099 32.866 C 42.967 33.325 43.108 33.819 43.463 34.139 L 46.859 37.189 C 47.24 37.53 47.376 38.068 47.201 38.548 C 47.027 39.029 46.577 39.355 46.066 39.371 L 41.504 39.525 C 41.025 39.541 40.598 39.829 40.404 40.266 L 38.552 44.439 C 38.345 44.905 37.875 45.199 37.366 45.181 C 36.856 45.163 36.409 44.837 36.235 44.358 L 34.68 40.066 C 34.517 39.616 34.111 39.298 33.635 39.248 Z " fill="url(#_lgradient_31)"/></g><defs><filter id="sDKVeREWSksEz41IPBc7dBiHyABXxuw7" x="-200%" y="-200%" width="400%" height="400%" filterUnits="objectBoundingBox" color-interpolation-filters="sRGB"><feGaussianBlur xmlns="http://www.w3.org/2000/svg" in="SourceGraphic" stdDeviation="1"/><feOffset xmlns="http://www.w3.org/2000/svg" dx="0" dy="2" result="pf_100_offsetBlur"/><feFlood xmlns="http://www.w3.org/2000/svg" flood-color="#DD5E0A" flood-opacity="0.2"/><feComposite xmlns="http://www.w3.org/2000/svg" in2="pf_100_offsetBlur" operator="in" result="pf_100_dropShadow"/><feBlend xmlns="http://www.w3.org/2000/svg" in="SourceGraphic" in2="pf_100_dropShadow" mode="normal"/></filter></defs><g filter="url(#p4BYoBJ7s6nxcgFODHR1Y85hnpebNa7T)"><linearGradient id="_lgradient_32" x1="0" y1="0.5" x2="0.42833930180072455" y2="1.4036179737770094" gradientTransform="matrix(31.506,0,0,30.074,9.245,1.185)" gradientUnits="userSpaceOnUse"><stop offset="9.214865515222616%" stop-opacity="1" style="stop-color:rgb(254,162,207)"/><stop offset="100%" stop-opacity="1" style="stop-color:rgb(162,114,255)"/></linearGradient><path d=" M 24.407 26.16 L 16.542 31.088 C 16.157 31.33 15.663 31.313 15.296 31.046 C 14.928 30.779 14.759 30.315 14.87 29.874 L 17.126 20.874 C 17.23 20.46 17.089 20.023 16.763 19.749 L 9.645 13.789 C 9.296 13.498 9.159 13.024 9.299 12.592 C 9.439 12.159 9.828 11.855 10.281 11.824 L 19.543 11.185 C 19.968 11.155 20.34 10.885 20.499 10.489 L 23.965 1.883 C 24.135 1.461 24.544 1.185 24.999 1.185 C 25.453 1.185 25.862 1.461 26.032 1.883 L 29.498 10.493 C 29.658 10.887 30.03 11.156 30.455 11.185 L 39.715 11.821 C 40.168 11.853 40.556 12.157 40.696 12.589 C 40.836 13.021 40.7 13.495 40.351 13.786 L 33.234 19.744 C 32.907 20.018 32.766 20.455 32.87 20.868 L 35.126 29.868 C 35.237 30.309 35.069 30.773 34.701 31.04 C 34.333 31.307 33.84 31.324 33.455 31.083 L 25.589 26.155 C 25.228 25.928 24.769 25.928 24.407 26.155 L 24.407 26.16 Z " fill="url(#_lgradient_32)"/></g><defs><filter id="p4BYoBJ7s6nxcgFODHR1Y85hnpebNa7T" x="-200%" y="-200%" width="400%" height="400%" filterUnits="objectBoundingBox" color-interpolation-filters="sRGB"><feGaussianBlur xmlns="http://www.w3.org/2000/svg" in="SourceGraphic" stdDeviation="1"/><feOffset xmlns="http://www.w3.org/2000/svg" dx="0" dy="2" result="pf_100_offsetBlur"/><feFlood xmlns="http://www.w3.org/2000/svg" flood-color="#AB3FBD" flood-opacity="0.2"/><feComposite xmlns="http://www.w3.org/2000/svg" in2="pf_100_offsetBlur" operator="in" result="pf_100_dropShadow"/><feBlend xmlns="http://www.w3.org/2000/svg" in="SourceGraphic" in2="pf_100_dropShadow" mode="normal"/></filter></defs></g></svg>