<?xml version="1.0" encoding="UTF-8" standalone="no"?><!-- Generator: Gravit.io --><svg xmlns="http://www.w3.org/2000/svg" xmlns:xlink="http://www.w3.org/1999/xlink" style="isolation:isolate" viewBox="0 0 50 50" width="50pt" height="50pt"><g><g><rect x="0.868" y="0.311" width="47.735" height="47.735" transform="matrix(1,0,0,1,0,0)" fill="none"/><rect x="1.111" y="0.554" width="47.248" height="47.248" transform="matrix(1,0,0,1,0,0)" fill="none" vector-effect="non-scaling-stroke" stroke-width="0.487" stroke="rgb(255,255,255)" stroke-opacity="0.01" stroke-linejoin="miter" stroke-linecap="butt" stroke-miterlimit="2"/></g><g><g filter="url(#1Ik6bQpmDLnIBirRGFdQxBm9qdCCQpQW)"><linearGradient id="_lgradient_33" x1="0" y1="0.5" x2="6.123233995736766e-17" y2="-0.5" gradientTransform="matrix(42.958,0,0,7.171,3.521,37.963)" gradientUnits="userSpaceOnUse"><stop offset="0%" stop-opacity="1" style="stop-color:rgb(255,176,123)"/><stop offset="100%" stop-opacity="1" style="stop-color:rgb(255,142,116)"/></linearGradient><path d=" M 45.474 45.134 L 4.526 45.134 C 3.791 45.134 3.305 44.783 3.617 44.477 L 9.221 38.939 C 10.172 38.239 11.339 37.897 12.517 37.974 L 37.484 37.974 C 38.662 37.897 39.828 38.239 40.778 38.939 L 46.383 44.477 C 46.694 44.784 46.207 45.134 45.472 45.134" fill="url(#_lgradient_33)"/></g><defs><filter id="1Ik6bQpmDLnIBirRGFdQxBm9qdCCQpQW" x="-200%" y="-200%" width="400%" height="400%" filterUnits="objectBoundingBox" color-interpolation-filters="sRGB"><feGaussianBlur xmlns="http://www.w3.org/2000/svg" in="SourceGraphic" stdDeviation="1"/><feOffset xmlns="http://www.w3.org/2000/svg" dx="0" dy="2" result="pf_100_offsetBlur"/><feFlood xmlns="http://www.w3.org/2000/svg" flood-color="#A34E15" flood-opacity="0.2"/><feComposite xmlns="http://www.w3.org/2000/svg" in2="pf_100_offsetBlur" operator="in" result="pf_100_dropShadow"/><feBlend xmlns="http://www.w3.org/2000/svg" in="SourceGraphic" in2="pf_100_dropShadow" mode="normal"/></filter></defs><g filter="url(#yWcJtpBCQElspgcGkK0rgnnPXgvdHOC5)"><linearGradient id="_lgradient_34" x1="0" y1="0.5" x2="0.04331638955721716" y2="-0.4990614047173113" gradientTransform="matrix(31.825,0,0,41.105,8.291,0.974)" gradientUnits="userSpaceOnUse"><stop offset="0.5327379054987684%" stop-opacity="1" style="stop-color:rgb(169,118,255)"/><stop offset="100%" stop-opacity="1" style="stop-color:rgb(254,172,212)"/></linearGradient><path d=" M 24.234 42.079 C 23.931 42.075 23.637 41.977 23.393 41.798 C 23.244 41.693 23.112 41.565 23.003 41.418 C 21.857 39.883 20.689 38.324 19.558 36.817 L 19.55 36.807 C 16.785 33.12 13.925 29.305 11.172 25.512 C 7.119 19.908 7.364 12.274 11.768 6.941 C 14.642 3.176 19.11 0.969 23.848 0.974 C 24.89 0.978 25.93 1.069 26.957 1.249 C 32.99 2.288 37.151 5.845 39.325 11.821 C 39.849 13.373 40.116 14.999 40.115 16.637 C 40.108 20.028 38.993 23.324 36.942 26.024 L 34.079 29.861 C 31.27 33.627 28.365 37.521 25.49 41.369 C 25.209 41.793 24.742 42.057 24.234 42.079 Z  M 24.226 8.56 L 24.226 8.56 C 22.106 8.559 20.073 9.408 18.583 10.918 C 17.059 12.438 16.207 14.506 16.22 16.659 C 16.221 18.793 17.06 20.841 18.558 22.362 C 20.031 23.88 22.057 24.737 24.172 24.736 L 24.207 24.736 C 26.389 24.744 28.478 23.856 29.986 22.28 C 31.425 20.761 32.231 18.751 32.237 16.659 C 32.256 12.213 28.674 8.591 24.229 8.56 L 24.226 8.56 Z " fill="url(#_lgradient_34)"/></g><defs><filter id="yWcJtpBCQElspgcGkK0rgnnPXgvdHOC5" x="-200%" y="-200%" width="400%" height="400%" filterUnits="objectBoundingBox" color-interpolation-filters="sRGB"><feGaussianBlur xmlns="http://www.w3.org/2000/svg" in="SourceGraphic" stdDeviation="1"/><feOffset xmlns="http://www.w3.org/2000/svg" dx="0" dy="2" result="pf_100_offsetBlur"/><feFlood xmlns="http://www.w3.org/2000/svg" flood-color="#8A0397" flood-opacity="0.2"/><feComposite xmlns="http://www.w3.org/2000/svg" in2="pf_100_offsetBlur" operator="in" result="pf_100_dropShadow"/><feBlend xmlns="http://www.w3.org/2000/svg" in="SourceGraphic" in2="pf_100_dropShadow" mode="normal"/></filter></defs></g></g></svg>