<?xml version="1.0" encoding="UTF-8" standalone="no"?><!-- Generator: Gravit.io --><svg xmlns="http://www.w3.org/2000/svg" xmlns:xlink="http://www.w3.org/1999/xlink" style="isolation:isolate" viewBox="0 0 50 50" width="50pt" height="50pt"><g><g><path d=" M 26.822 4.85 L 26.822 8.508 L 23.179 8.508 L 23.179 4.85 L 21.965 4.85 C 21.642 4.85 21.333 4.721 21.105 4.492 C 20.877 4.263 20.75 3.954 20.75 3.631 L 20.75 1.191 C 20.75 0.868 20.877 0.558 21.105 0.33 C 21.333 0.101 21.642 -0.028 21.965 -0.028 L 28.036 -0.028 C 28.359 -0.028 28.668 0.101 28.896 0.33 C 29.124 0.558 29.251 0.868 29.251 1.191 L 29.251 3.631 C 29.251 3.954 29.124 4.263 28.896 4.492 C 28.668 4.721 28.359 4.85 28.036 4.85 L 26.822 4.85 Z " fill="rgb(255,202,130)"/><g><path d=" M 9.726 9.412 C 9.589 9.187 9.548 8.917 9.611 8.661 C 9.674 8.406 9.836 8.185 10.061 8.049 L 11.484 7.195 C 11.71 7.058 11.98 7.017 12.236 7.081 C 12.493 7.144 12.713 7.307 12.849 7.533 L 15.264 11.573 C 15.545 12.042 15.393 12.65 14.925 12.932 L 13.503 13.786 C 13.036 14.068 12.428 13.921 12.142 13.456 L 9.726 9.412 Z " fill="rgb(255,202,130)"/><path d=" M 40.159 9.412 C 40.295 9.187 40.337 8.917 40.274 8.661 C 40.211 8.406 40.049 8.185 39.823 8.049 L 38.401 7.195 C 38.175 7.058 37.904 7.017 37.648 7.081 C 37.392 7.144 37.172 7.307 37.036 7.533 L 34.62 11.573 C 34.34 12.042 34.491 12.65 34.96 12.932 L 36.381 13.786 C 36.848 14.068 37.456 13.921 37.742 13.456 L 40.159 9.412 Z " fill="rgb(255,202,130)"/></g><linearGradient id="_lgradient_35" x1="0" y1="0.5" x2="0.5705877586801352" y2="-0.3212366343779238" gradientTransform="matrix(38.857,0,0,39.026,5.572,6.069)" gradientUnits="userSpaceOnUse"><stop offset="10.52345688622186%" stop-opacity="1" style="stop-color:rgb(169,118,255)"/><stop offset="100%" stop-opacity="1" style="stop-color:rgb(249,160,210)"/></linearGradient><ellipse vector-effect="non-scaling-stroke" cx="25" cy="25.582264473181485" rx="19.428281415649735" ry="19.513210438533743" fill="url(#_lgradient_35)"/><g filter="url(#Y5Vifi9JOEwGfki03sHpjfDfNwYpKxjm)"><linearGradient id="_lgradient_36" x1="0" y1="0.5" x2="0.44734098249340676" y2="-0.39436348616311123" gradientTransform="matrix(29.143,0,0,29.271,10.432,10.951)" gradientUnits="userSpaceOnUse"><stop offset="0%" stop-opacity="1" style="stop-color:rgb(255,165,131)"/><stop offset="100%" stop-opacity="1" style="stop-color:rgb(255,209,145)"/></linearGradient><path d=" M 25.004 40.222 C 21.13 40.213 17.419 38.666 14.686 35.921 C 11.953 33.176 10.423 29.457 10.432 25.583 L 25.004 25.583 L 25.004 10.951 C 28.874 10.942 32.586 12.486 35.307 15.237 C 40.998 20.963 40.998 30.209 35.307 35.934 C 32.586 38.686 28.874 40.231 25.004 40.222 Z " fill="url(#_lgradient_36)"/></g><defs><filter id="Y5Vifi9JOEwGfki03sHpjfDfNwYpKxjm" x="-200%" y="-200%" width="400%" height="400%" filterUnits="objectBoundingBox" color-interpolation-filters="sRGB"><feGaussianBlur xmlns="http://www.w3.org/2000/svg" in="SourceGraphic" stdDeviation="1"/><feOffset xmlns="http://www.w3.org/2000/svg" dx="0" dy="2" result="pf_100_offsetBlur"/><feFlood xmlns="http://www.w3.org/2000/svg" flood-color="#933A93" flood-opacity="0.302"/><feComposite xmlns="http://www.w3.org/2000/svg" in2="pf_100_offsetBlur" operator="in" result="pf_100_dropShadow"/><feBlend xmlns="http://www.w3.org/2000/svg" in="SourceGraphic" in2="pf_100_dropShadow" mode="normal"/></filter></defs></g></g></svg>