<?xml version="1.0" encoding="UTF-8" standalone="no"?><!-- Generator: Gravit.io --><svg xmlns="http://www.w3.org/2000/svg" xmlns:xlink="http://www.w3.org/1999/xlink" style="isolation:isolate" viewBox="0 0 50 50" width="50pt" height="50pt"><g><g filter="url(#ldfvALWqUMzIBYNfy4ICHsz6jaKwoIix)"><linearGradient id="_lgradient_28" x1="0" y1="0.5" x2="0.3247199402835169" y2="1.4458102137227473" gradientTransform="matrix(26.254,0,0,34.602,11.873,0.98)" gradientUnits="userSpaceOnUse"><stop offset="8.443005303101774%" stop-opacity="1" style="stop-color:rgb(254,162,207)"/><stop offset="100%" stop-opacity="1" style="stop-color:rgb(162,114,255)"/></linearGradient><path d=" M 21.932 24.257 L 21.932 4.198 C 21.869 3.074 22.431 2.008 23.392 1.423 C 24.354 0.839 25.559 0.832 26.527 1.405 C 27.496 1.978 28.069 3.039 28.019 4.163 Q 28.032 13.41 28.019 22.658 L 28.019 24.365 C 28.132 24.268 28.206 24.215 28.268 24.151 Q 30.597 21.759 32.921 19.365 C 33.803 18.442 35.174 18.183 36.331 18.721 C 37.258 19.175 37.909 20.047 38.082 21.065 C 38.255 22.082 37.927 23.121 37.202 23.855 Q 31.874 29.353 26.546 34.847 C 26.166 35.315 25.593 35.586 24.99 35.582 C 24.386 35.578 23.817 35.3 23.443 34.826 Q 18.113 29.335 12.791 23.836 C 11.871 22.89 11.616 21.481 12.147 20.273 C 12.661 19.078 13.881 18.345 15.177 18.452 C 15.902 18.502 16.581 18.826 17.076 19.358 Q 19.425 21.859 21.788 24.346 L 21.933 24.254" fill="url(#_lgradient_28)"/></g><defs><filter id="ldfvALWqUMzIBYNfy4ICHsz6jaKwoIix" x="-200%" y="-200%" width="400%" height="400%" filterUnits="objectBoundingBox" color-interpolation-filters="sRGB"><feGaussianBlur xmlns="http://www.w3.org/2000/svg" in="SourceGraphic" stdDeviation="1"/><feOffset xmlns="http://www.w3.org/2000/svg" dx="0" dy="2" result="pf_100_offsetBlur"/><feFlood xmlns="http://www.w3.org/2000/svg" flood-color="#AB3FBD" flood-opacity="0.2"/><feComposite xmlns="http://www.w3.org/2000/svg" in2="pf_100_offsetBlur" operator="in" result="pf_100_dropShadow"/><feBlend xmlns="http://www.w3.org/2000/svg" in="SourceGraphic" in2="pf_100_dropShadow" mode="normal"/></filter></defs><g filter="url(#XnhSDJMN55LzhWsM9AFPPIzu3b3kEWjG)"><linearGradient id="_lgradient_29" x1="0" y1="0.5" x2="6.123233995736766e-17" y2="-0.5" gradientTransform="matrix(35.8,0,0,5.963,7.101,39.161)" gradientUnits="userSpaceOnUse"><stop offset="0%" stop-opacity="1" style="stop-color:rgb(255,140,123)"/><stop offset="100%" stop-opacity="1" style="stop-color:rgb(255,192,139)"/></linearGradient><path d=" M 25.012 39.162 Q 32.727 39.162 40.444 39.162 C 41.764 39.236 42.813 40.301 42.867 41.622 C 43.107 43.454 42.037 45.072 40.549 45.123 C 40.489 45.123 40.428 45.123 40.368 45.123 L 9.626 45.123 C 8.448 45.099 7.448 44.253 7.228 43.095 C 6.71 41.158 7.837 39.18 9.49 39.17 C 11.855 39.155 14.221 39.162 16.587 39.162 L 25.013 39.162" fill="url(#_lgradient_29)"/></g><defs><filter id="XnhSDJMN55LzhWsM9AFPPIzu3b3kEWjG" x="-200%" y="-200%" width="400%" height="400%" filterUnits="objectBoundingBox" color-interpolation-filters="sRGB"><feGaussianBlur xmlns="http://www.w3.org/2000/svg" in="SourceGraphic" stdDeviation="1"/><feOffset xmlns="http://www.w3.org/2000/svg" dx="0" dy="2" result="pf_100_offsetBlur"/><feFlood xmlns="http://www.w3.org/2000/svg" flood-color="#DD5E0A" flood-opacity="0.2"/><feComposite xmlns="http://www.w3.org/2000/svg" in2="pf_100_offsetBlur" operator="in" result="pf_100_dropShadow"/><feBlend xmlns="http://www.w3.org/2000/svg" in="SourceGraphic" in2="pf_100_dropShadow" mode="normal"/></filter></defs></g></svg>