<svg xmlns="http://www.w3.org/2000/svg" width="16.569" height="12.75" viewBox="0 0 16.569 12.75"><path d="M14.648,17.637h1.273a.647.647,0,0,1,0,1.294H14.648a.647.647,0,0,1,0-1.294Zm-14,1.294H1.92a.647.647,0,0,0,0-1.294H.647a.647.647,0,0,0,0,1.294Zm7.637-6.364a.647.647,0,0,0,.647-.647V10.647a.647.647,0,0,0-1.294,0V11.92A.647.647,0,0,0,8.284,12.567ZM3.326,14.242a.647.647,0,1,0,.915-.915l-.9-.9a.647.647,0,1,0-.915.915Zm9.916,0,.9-.9a.647.647,0,0,0-.915-.915l-.9.9a.647.647,0,0,0,.915.915ZM16.569,22.1a.647.647,0,0,1-.647.647H.647a.647.647,0,0,1,0-1.294H5.136a4.471,4.471,0,1,1,6.3,0h4.488A.647.647,0,0,1,16.569,22.1ZM8.1,21.456h.366a3.177,3.177,0,1,0-.366,0Z" transform="translate(0 -10)"/></svg>