<svg xmlns="http://www.w3.org/2000/svg" width="115.515" height="43.125" viewBox="0 0 115.515 43.125">
  <path id="Shape_2" data-name="Shape 2" d="M77.21,156.693h4.621s6.835,10.682,25.157,11.295c0,0,16.675-.956,22.077-8.215l-2.568-2.567h10.782s-8.567,12.736-30.291,14.889C106.988,172.094,84.184,171.2,77.21,156.693Zm66.743-2.054h-.033a4.792,4.792,0,0,1-4.094-2.31,7.735,7.735,0,0,1-1.007-2.309V129.482h5.134v18.482c.034,1.524.983,1.541,1.023,1.541h14.378a1.319,1.319,0,0,0,1.027-1.541V129.482h5.134v20.023a4.945,4.945,0,0,1-2.58,3.951,10.921,10.921,0,0,1-2.553,1.183Zm-30.8,0v-4.621h15.916a1.074,1.074,0,0,0,.878-.386,1.548,1.548,0,0,0,.148-1.154v-2.568H114.176a6.737,6.737,0,0,1-3.25-1.292,5.887,5.887,0,0,1-1.678-2.081,7.208,7.208,0,0,1-.719-2.787V128.969h5.134V139.75a1.1,1.1,0,0,0,.243.824.8.8,0,0,0,.584.221.96.96,0,0,0,.2-.019H130.6V129.482h4.621v18.482a6.65,6.65,0,0,1-2.3,5.575,5.555,5.555,0,0,1-2.324,1.1Zm-29.264,0a8.351,8.351,0,0,1-2.325-.925,4.245,4.245,0,0,1-2.3-3.7v-7.187a6.345,6.345,0,0,1,.839-1.971,5.978,5.978,0,0,1,3.782-2.65h16.943v-2.568c0-.053.081-1.3-1.027-1.54H82.858v-5.134h17.455a7.123,7.123,0,0,1,2.59.88,6.079,6.079,0,0,1,3.057,4.767v14.889a8.175,8.175,0,0,1-1.224,2.549,5.977,5.977,0,0,1-4.937,2.585Zm.005-9.819v3.21a2,2,0,0,0,2,2H98.83a2,2,0,0,0,2-2v-5.21H85.89A2,2,0,0,0,83.89,144.82Zm-28.757,9.819H50V134.617a4.989,4.989,0,0,1,2.039-3.933,8.088,8.088,0,0,1,2.067-1.2H72.076c2.822.885,3.928,2.233,4.359,3.209a3.274,3.274,0,0,1,.262,1.925v9.241a5.534,5.534,0,0,1-1.01,3.245,5.4,5.4,0,0,1-2.112,1.678,8.252,8.252,0,0,1-3.039.725h-15.4v5.133h0Zm.007-18.529v8.79H70.08a2,2,0,0,0,2-2v-6.79a2,2,0,0,0-2-2H57.14A2,2,0,0,0,55.14,136.11Z" transform="translate(-50 -128.969)" fill="#fff"/>
</svg>
