<svg xmlns="http://www.w3.org/2000/svg" width="135.921" height="43.066" viewBox="0 0 135.921 43.066">
  <path id="Shape_1" data-name="Shape 1" d="M310.111,171.962c-1.512-.021-1.851-.369-1.853-1.9q-.016-11.849-.013-23.7c0-1.732.01-1.732-1.657-1.734-3.4,0-3.4,0-3.4-3.417,0-1.192.015-2.383,0-3.575-.02-1.176.453-1.8,1.712-1.823a8.23,8.23,0,0,0,7.272-4.074,6.258,6.258,0,0,1,2.6-2.566c1.345-.619,2.165-.132,2.187,1.325.023,1.5.028,3,0,4.5-.013.62.182.871.829.835.55-.031,1.1-.023,1.655-.014.288,0,.575.008.863.007a1.3,1.3,0,0,1,1.485,1.449c.013,1.941.02,3.883.009,5.825a1.345,1.345,0,0,1-1.558,1.526c-.088,0-.177,0-.266,0-2.97.047-2.97.047-2.97,3.077v10.327c0,4.016.006,8.033,0,12.048,0,1.579-.3,1.87-1.852,1.884q-1.375.012-2.751.014Q311.254,171.977,310.111,171.962Zm-28.814-.105c-1.64-.005-2.009-.385-2.015-2.039-.006-1.678.032-3.358-.007-5.035-.03-1.238.546-1.785,1.747-1.788,2.653-.008,5.306-.039,7.958-.037,1.025,0,1.954-.194,1.952-1.427s-.94-1.409-1.96-1.424c-.473-.007-.948,0-1.421,0a16.773,16.773,0,0,1-4.385-.33,8.233,8.233,0,0,1-6.51-7.741c-.163-4.9-.075-9.8-.081-14.7a1.367,1.367,0,0,1,1.576-1.522c.86.005,1.722,0,2.583,0,.951,0,1.9,0,2.855.005,1.413.013,1.817.409,1.823,1.817.015,3.754.006,7.508.012,11.262,0,1.981.349,2.332,2.272,2.344,3.132.019,3.2-.049,3.2-3.151,0-3.444-.007-6.889.006-10.334.006-1.62.326-1.926,1.953-1.939,1.592-.012,3.183-.01,4.775,0,1.779.006,2.1.319,2.1,2.068q.007,6.36,0,12.719c0,3.975.022,7.95-.007,11.924-.041,5.754-3.635,9.3-9.406,9.327q-2.254.009-4.509.009T281.3,171.857Zm64.465-.029c-1.46-.008-2.917,0-4.377-.008-1.649-.008-2.045-.423-2.048-2.176q-.016-11.2-.022-22.393c0-1.969-.766-2.846-2.461-2.894-2.01-.055-2.89.814-2.89,2.881q-.008,11.2,0,22.393c0,1.8-.259,2.056-2.077,2.067q-1.049,0-2.1,0c-.98,0-1.96,0-2.939.009-1.143.011-1.7-.47-1.7-1.666q.016-16.3-.009-32.6c0-1.171.539-1.736,1.657-1.752.991-.015,1.982-.012,2.973-.009.865,0,1.731.006,2.6,0,1.17-.014,1.561.743,1.711,1.832a9.559,9.559,0,0,1,9.248-1.461,7.674,7.674,0,0,1,2.595,1.551c.533.473.867.47,1.446.02,3.956-3.067,10.024-1.746,13.234,1.138a8.513,8.513,0,0,1,1.832,4.186,69.447,69.447,0,0,1,0,7.588V170.42c0,.4-.785.913-.785,1.308-.555,0-5.615-.021-6.172-.026-1.5-.014-1.859-.371-1.865-1.9q-.024-11.331-.03-22.658c0-2.007-.79-2.818-2.663-2.81s-2.671.841-2.674,2.815q-.008,11.133,0,22.261c0,2.06-.326,2.414-2.362,2.414Zm-118.072-.1c-1.243.036-1.047-1.225-1.047-1.814v-34.1c3.647-.005,8.9-.007,12.554.01,5.333.027,8.543,3.135,8.627,8.427.049,3.179.1,6.366-.093,9.534a7.612,7.612,0,0,1-7.649,7.3c-1.81.068-3.625.068-5.435.011-.833-.024-1.044.251-1.031,1.049.041,2.561.014,5.123,0,7.685-.008,1.594-.424,1.985-2.077,1.993h-.022C230.988,171.817,228.154,171.728,227.69,171.728Zm5.93-26.061c.071.918.016,1.846.014,2.772,0,.967.028,1.936-.008,2.9-.024.634.094.988.853.94.558-.037,1.12-.031,1.681-.023.409,0,.817.01,1.225,0a1.447,1.447,0,0,0,1.566-1.575c.025-1.45.014-2.9.006-4.356a1.5,1.5,0,0,0-1.633-1.657c-.375-.013-.751-.007-1.127,0-.506.006-1.011.014-1.514-.021q-.1-.007-.2-.007C233.84,144.639,233.563,144.9,233.62,145.667Zm25.219,25.995c-5.631-.038-8.775-3.171-8.825-8.782-.022-2.337-.049-4.68.028-7.016.161-4.831,3.69-8.184,8.685-8.312,1.279-.033,2.564-.039,3.843,0,1.148.035,1.752-.462,1.794-1.608s-.525-1.718-1.815-1.732c-1.257-.015-2.516-.012-3.775-.007-1.039,0-2.078.006-3.117,0-1.728-.011-2.083-.382-2.089-2.114,0-1.543.008-3.088-.005-4.634-.008-.933.374-1.614,1.353-1.595,1.231.022,2.464-.008,3.7-.037a42.13,42.13,0,0,1,7.681.283c4.264.683,6.572,3.291,6.946,7.606.027.306.071.614.074.923q0,5.694,0,11.388h.016c0,3.839.022,7.679-.005,11.518-.022,2.846-1.31,4.108-4.15,4.118q-2.935.011-5.867.014Q261.076,171.676,258.839,171.661Zm.227-14.828a2.211,2.211,0,0,0-.085.912c-.008.795,0,1.589,0,2.384,0,3.7.082,3.766,3.792,3.594a1.515,1.515,0,0,0,1.662-1.751c-.014-.748,0-1.5-.005-2.25s-.008-1.5,0-2.25c.016-1.011-.479-1.721-1.465-1.644a6.142,6.142,0,0,1-1.13-.061,8.13,8.13,0,0,0-.9-.069A1.876,1.876,0,0,0,259.066,156.833Z" transform="translate(-226.632 -128.91)" fill="#fff"/>
</svg>
