<svg xmlns="http://www.w3.org/2000/svg" width="169.478" height="24.826" viewBox="0 0 169.478 24.826">
  <path id="Shape_3" data-name="Shape 3" d="M422.319,156.071V144.942H411.191l-5.991-6.849h23.967V162.92Zm-17.975-5.992h12.839V162.92ZM550.7,162.258a4.865,4.865,0,0,1-2.524-.726,5.732,5.732,0,0,1-2.036-2.161v2.521H543.7V138.573h2.439v9.086a6.181,6.181,0,0,1,.968-1.1,7.052,7.052,0,0,1,1.166-.856,6.263,6.263,0,0,1,1.248-.561,4.06,4.06,0,0,1,1.231-.2,5.981,5.981,0,0,1,5.064,2.538,8.349,8.349,0,0,1,1.275,2.758,13.015,13.015,0,0,1,.428,3.384,12.639,12.639,0,0,1-.434,3.375,8.329,8.329,0,0,1-1.293,2.74,6.313,6.313,0,0,1-2.135,1.848,6.187,6.187,0,0,1-2.823.682Zm1.821-2.686a4.462,4.462,0,0,0,1.42-1.38,6.631,6.631,0,0,0,.877-2.054,10.167,10.167,0,0,0,.3-2.52,10.279,10.279,0,0,0-.3-2.529,6.733,6.733,0,0,0-.877-2.069,4.518,4.518,0,0,0-1.42-1.4,3.619,3.619,0,0,0-1.927-.514,3.526,3.526,0,0,0-1.845.488,4.376,4.376,0,0,0-1.387,1.332,6.788,6.788,0,0,0-.886,1.985,9.578,9.578,0,0,0-.335,2.427h0v.278a10.21,10.21,0,0,0,.3,2.52,6.771,6.771,0,0,0,.868,2.054,4.416,4.416,0,0,0,1.394,1.38,3.535,3.535,0,0,0,1.89.506A3.668,3.668,0,0,0,552.518,159.572Zm12.362,2.313a5.8,5.8,0,0,1-1.968-1.021,5.044,5.044,0,0,1-1.37-1.712,5.837,5.837,0,0,1-.57-2.409l.007,0h2.515a3.75,3.75,0,0,0,.317,1.541,2.924,2.924,0,0,0,.8,1.027,3.018,3.018,0,0,0,1.184.58,6.009,6.009,0,0,0,1.483.172,8.388,8.388,0,0,0,1.375-.121,4.828,4.828,0,0,0,1.33-.413,2.707,2.707,0,0,0,.995-.809,2.08,2.08,0,0,0,.39-1.284,1.827,1.827,0,0,0-.418-1.213,3.877,3.877,0,0,0-1.112-.883,10.593,10.593,0,0,0-1.574-.7q-.878-.313-1.791-.634t-1.791-.717a7.45,7.45,0,0,1-1.573-.947,4.347,4.347,0,0,1-1.113-1.3,3.621,3.621,0,0,1-.416-1.793,3.738,3.738,0,0,1,.47-1.912,4.129,4.129,0,0,1,1.267-1.352,5.632,5.632,0,0,1,1.818-.8,8.744,8.744,0,0,1,2.14-.257,9.9,9.9,0,0,1,2.352.266,5.62,5.62,0,0,1,1.89.828,4.122,4.122,0,0,1,1.275,1.416,4.6,4.6,0,0,1,.525,2.032c-.205,0-.428,0-.67-.009s-.444-.01-.615-.01h-1.158a2.606,2.606,0,0,0-.4-1.13,2.4,2.4,0,0,0-.787-.727,3.393,3.393,0,0,0-1.1-.386,7.47,7.47,0,0,0-1.32-.11,4.131,4.131,0,0,0-2.425.6,1.864,1.864,0,0,0-.832,1.591,1.625,1.625,0,0,0,.427,1.121,4.264,4.264,0,0,0,1.113.865,10.715,10.715,0,0,0,1.564.707l1.8.661q.922.34,1.8.735a8.007,8.007,0,0,1,1.564.92,4.425,4.425,0,0,1,1.113,1.222,3.094,3.094,0,0,1,.427,1.637,4.684,4.684,0,0,1-.534,2.317,4.517,4.517,0,0,1-1.429,1.563,6.3,6.3,0,0,1-2.092.9,10.741,10.741,0,0,1-2.5.284h-.046A8.191,8.191,0,0,1,564.88,161.885Zm-77.6-.38a7.249,7.249,0,0,1-2.371-1.939,9.046,9.046,0,0,1-1.51-2.831,10.769,10.769,0,0,1-.534-3.412,9.717,9.717,0,0,1,.525-3.191,8.329,8.329,0,0,1,1.5-2.676,7.218,7.218,0,0,1,2.358-1.842,6.926,6.926,0,0,1,3.1-.68,7.1,7.1,0,0,1,3,.616,6.691,6.691,0,0,1,2.28,1.7,7.647,7.647,0,0,1,1.447,2.569,9.93,9.93,0,0,1,.507,3.227v.971H485.412a7,7,0,0,0,.406,2.254,6.854,6.854,0,0,0,1.049,1.939,5.167,5.167,0,0,0,1.57,1.354,3.926,3.926,0,0,0,1.953.506,4.536,4.536,0,0,0,4.685-3.328h2.207a6.7,6.7,0,0,1-2.514,4.046,6.932,6.932,0,0,1-2.055,1.067,7.524,7.524,0,0,1-2.325.368H490.3A6.691,6.691,0,0,1,487.279,161.505Zm1.028-13.985a4.849,4.849,0,0,0-1.5,1.1,5.341,5.341,0,0,0-1.005,1.589,5.19,5.19,0,0,0-.388,1.895v0H495.1a5.83,5.83,0,0,0-.362-1.968,4.662,4.662,0,0,0-.977-1.591,4.53,4.53,0,0,0-1.541-1.057,5.1,5.1,0,0,0-2.026-.386h-.042A4.31,4.31,0,0,0,488.307,147.52Zm48.533,13.919a3.925,3.925,0,0,1-.788-2.436,10.309,10.309,0,0,1-1.529,1.664,6.739,6.739,0,0,1-1.5.984,5.418,5.418,0,0,1-1.511.46,10.963,10.963,0,0,1-1.555.111,5.4,5.4,0,0,1-1.9-.331,4.429,4.429,0,0,1-2.569-2.428,4.756,4.756,0,0,1-.38-1.93,3.416,3.416,0,0,1,.462-1.821,4.473,4.473,0,0,1,1.211-1.3,7.668,7.668,0,0,1,1.719-.92q.968-.377,1.969-.671t1.968-.561a13.3,13.3,0,0,0,1.719-.588,4.16,4.16,0,0,0,1.212-.754,1.393,1.393,0,0,0,.461-1.057,2.293,2.293,0,0,0-1.04-2.114,5.562,5.562,0,0,0-2.921-.644,6.174,6.174,0,0,0-1.384.147,3.775,3.775,0,0,0-1.148.46,2.7,2.7,0,0,0-.833.8,2.912,2.912,0,0,0-.434,1.187h-2.527a4.235,4.235,0,0,1,.67-2.134,5.059,5.059,0,0,1,1.5-1.48,6.9,6.9,0,0,1,2.008-.865,8.832,8.832,0,0,1,2.208-.285,10.339,10.339,0,0,1,2.352.266,6.056,6.056,0,0,1,2.026.865,4.336,4.336,0,0,1,1.954,3.8v8.771a1.592,1.592,0,0,0,.343.975,1.411,1.411,0,0,0,.38.331.9.9,0,0,0,.471.128,2.586,2.586,0,0,0,.8-.165v2.021c-.349.1-.644.172-.886.221a4.066,4.066,0,0,1-.8.074h-.036A2.219,2.219,0,0,1,536.839,161.439Zm-2.322-8.053a15.1,15.1,0,0,1-1.736.644q-.932.285-1.872.551a10.69,10.69,0,0,0-1.692.626,3.929,3.929,0,0,0-1.229.882,1.873,1.873,0,0,0-.48,1.315,2.8,2.8,0,0,0,.244,1.223,2.364,2.364,0,0,0,.642.827,2.568,2.568,0,0,0,.9.47,3.58,3.58,0,0,0,1.023.147,5.426,5.426,0,0,0,2.966-.929,8.057,8.057,0,0,0,2.551-2.841h0v-3.825A3.9,3.9,0,0,1,534.517,153.386Zm-26.764,8.506V138.7h2.441v20.946h11.47v2.245Zm-30.789,0V150.211a3.079,3.079,0,0,0-.8-2.4,3.18,3.18,0,0,0-2.189-.707,5.3,5.3,0,0,0-2.072.405,5.642,5.642,0,0,0-1.682,1.066,5.085,5.085,0,0,0-1.131,1.516,4.019,4.019,0,0,0-.416,1.775v10.023h-2.442V145.23h2.443v2.516a7.844,7.844,0,0,1,2.75-2.151,7.35,7.35,0,0,1,3.02-.662,5.929,5.929,0,0,1,2.072.343,4.128,4.128,0,0,1,1.546.993,4.374,4.374,0,0,1,.968,1.573,6.039,6.039,0,0,1,.335,2.077v11.973Zm-17.078,0V145.23h2.407v16.662Zm-19.571,0V138.7h8.645a7.009,7.009,0,0,1,2.948.588,6.606,6.606,0,0,1,3.944,6.01,6.909,6.909,0,0,1-.452,2.465,6.247,6.247,0,0,1-1.339,2.125,6.629,6.629,0,0,1-2.171,1.49,7.255,7.255,0,0,1-2.93.561h-6.206v9.949Zm2.44-12.119h6.206a4.192,4.192,0,0,0,1.691-.35,4.556,4.556,0,0,0,2.395-2.389,4.351,4.351,0,0,0,.363-1.766,4.3,4.3,0,0,0-.343-1.728,4.2,4.2,0,0,0-2.351-2.272,4.738,4.738,0,0,0-1.755-.321h-6.206v8.825Zm-2.442,12.119h0Zm19.573-20.45v-2.869h2.407v2.869Z" transform="translate(-404.344 -138.093)" fill="#fff"/>
</svg>
