<svg xmlns="http://www.w3.org/2000/svg" width="161.6" height="34.133" viewBox="0 0 161.6 34.133">
  <g id="Razorpay" transform="translate(-0.808 -0.482)">
    <g id="Group" transform="translate(0.808 0.482)">
      <path id="Fill-1" d="M274.445,83.594a3.341,3.341,0,0,1-1.483,2.1,5.976,5.976,0,0,1-3.093.669h-4.221l1.482-5.529h4.221a4.167,4.167,0,0,1,2.734.669,1.958,1.958,0,0,1,.36,2.1m4.371-.119q.805-3-.667-4.607t-5.158-1.6h-9.423L257.9,98.426h4.578l2.286-8.531h3a3.257,3.257,0,0,1,1.591.327,1.437,1.437,0,0,1,.686,1.159l.817,7.045h4.905l-.8-6.569a2.6,2.6,0,0,0-2.013-2.586,8.654,8.654,0,0,0,3.777-2.17,7.919,7.919,0,0,0,2.086-3.626" transform="translate(-235.97 -70.714)" fill="#fff" fill-rule="evenodd"/>
      <path id="Fill-3" d="M506.87,152.051a6.82,6.82,0,0,1-1.768,3.27,4.015,4.015,0,0,1-2.859,1.129,2.38,2.38,0,0,1-2.3-1.115,4.429,4.429,0,0,1-.042-3.225,6.938,6.938,0,0,1,1.805-3.3,4.064,4.064,0,0,1,2.9-1.189,2.286,2.286,0,0,1,2.25,1.145,4.688,4.688,0,0,1,.012,3.284Zm2.007-7.491-.573,2.14a3.36,3.36,0,0,0-1.437-1.843,4.8,4.8,0,0,0-2.641-.684,7.516,7.516,0,0,0-3.715,1,9.806,9.806,0,0,0-3.116,2.809,12.259,12.259,0,0,0-1.954,4.132,8.808,8.808,0,0,0-.248,4.087,4.427,4.427,0,0,0,1.62,2.72,5.136,5.136,0,0,0,3.208.951,7.1,7.1,0,0,0,3-.654,6.983,6.983,0,0,0,2.418-1.813l-.6,2.229h4.428l4.038-15.07Z" transform="translate(-452.898 -131.919)" fill="#fff" fill-rule="evenodd"/>
      <path id="Fill-5" d="M713.16,148.706H700.29l-.9,3.359h7.49l-9.9,8.56-.845,3.151h13.287l.9-3.359h-8.025l10.053-8.68Z" transform="translate(-636.829 -136.064)" fill="#fff" fill-rule="evenodd"/>
      <path id="Fill-7" d="M903,152.021a6.92,6.92,0,0,1-1.77,3.329,3.991,3.991,0,0,1-2.835,1.1q-3.479,0-2.292-4.429a6.872,6.872,0,0,1,1.779-3.314,4.066,4.066,0,0,1,2.885-1.115,2.287,2.287,0,0,1,2.243,1.115,4.742,4.742,0,0,1-.011,3.314m2.591-6.9a7.29,7.29,0,0,0-3.907-.951,10.488,10.488,0,0,0-4.461.951,9.683,9.683,0,0,0-3.5,2.735,11.085,11.085,0,0,0-2.082,4.162,7.938,7.938,0,0,0-.148,4.161,4.482,4.482,0,0,0,2.031,2.735,7.422,7.422,0,0,0,3.951.951,10.313,10.313,0,0,0,4.417-.951,9.738,9.738,0,0,0,3.481-2.735,11.1,11.1,0,0,0,2.08-4.161,7.94,7.94,0,0,0,.149-4.162,4.508,4.508,0,0,0-2.016-2.735" transform="translate(-815.335 -131.919)" fill="#fff" fill-rule="evenodd"/>
      <path id="Fill-9" d="M1475.389,152.051a6.823,6.823,0,0,1-1.768,3.27,4.015,4.015,0,0,1-2.86,1.129,2.38,2.38,0,0,1-2.3-1.115,4.426,4.426,0,0,1-.043-3.225,6.942,6.942,0,0,1,1.8-3.3,4.065,4.065,0,0,1,2.9-1.189,2.287,2.287,0,0,1,2.25,1.145,4.694,4.694,0,0,1,.012,3.284Zm2.006-7.491-.573,2.14a3.361,3.361,0,0,0-1.437-1.843,4.8,4.8,0,0,0-2.641-.684,7.517,7.517,0,0,0-3.715,1,9.807,9.807,0,0,0-3.116,2.809,12.247,12.247,0,0,0-1.954,4.132,8.814,8.814,0,0,0-.248,4.087,4.421,4.421,0,0,0,1.62,2.72,5.136,5.136,0,0,0,3.208.951,7.105,7.105,0,0,0,3-.654,6.98,6.98,0,0,0,2.418-1.813l-.6,2.229h4.428l4.038-15.07Z" transform="translate(-1338.814 -131.919)" fill="#fff" fill-rule="evenodd"/>
      <path id="Fill-11" d="M1101.53,148.922l1.128-4.1a3.333,3.333,0,0,0-1.525-.3,6.083,6.083,0,0,0-2.924.758,6.419,6.419,0,0,0-2.071,1.806l.588-2.209-1.283,0H1092.3l-4.069,15.07h4.49l2.111-7.876a4.994,4.994,0,0,1,1.656-2.69,4.583,4.583,0,0,1,2.978-.966,4.39,4.39,0,0,1,2.065.505" transform="translate(-995.486 -132.238)" fill="#fff" fill-rule="evenodd"/>
      <path id="Fill-13" d="M1228.531,152.114a6.674,6.674,0,0,1-1.756,3.225,4.032,4.032,0,0,1-2.855,1.115,2.335,2.335,0,0,1-2.269-1.129,4.547,4.547,0,0,1-.031-3.27,6.831,6.831,0,0,1,1.786-3.284,4.055,4.055,0,0,1,2.879-1.145,2.244,2.244,0,0,1,2.222,1.189,4.763,4.763,0,0,1,.023,3.3m3.138-6.94a4.947,4.947,0,0,0-3.181-1,7.052,7.052,0,0,0-3.224.773,6.693,6.693,0,0,0-2.483,2.11l.014-.1.755-2.4h-.868v0h-3.515l-1.116,4.167c-.014.048-.024.094-.037.143l-4.6,17.181h4.489l2.318-8.649a3.091,3.091,0,0,0,1.416,1.812,5.006,5.006,0,0,0,2.649.654,7.774,7.774,0,0,0,3.733-.951,9.259,9.259,0,0,0,3.076-2.72,12.047,12.047,0,0,0,1.927-4.087,9.12,9.12,0,0,0,.26-4.132,4.6,4.6,0,0,0-1.61-2.809" transform="translate(-1109.99 -131.922)" fill="#fff" fill-rule="evenodd"/>
      <path id="Fill-15" d="M1682.7,148.71l0,0h-2.719c-.087,0-.164,0-.243,0h-1.411l-.721,1.005c-.058.076-.116.152-.178.24l-.078.116-5.735,7.987-1.19-9.353h-4.7l2.38,14.213-5.254,7.278h4.68l1.273-1.8c.037-.054.07-.1.11-.155l1.486-2.106.043-.06,6.647-9.424,5.6-7.932.007-.006Z" transform="translate(-1521.107 -136.064)" fill="#fff" fill-rule="evenodd"/>
      <path id="Fill-17" d="M108.222,9.455,106.878,14.4l7.689-4.973-5.028,18.762,5.106,0L122.074.482Z" transform="translate(-97.831 -0.482)" fill="#fff" fill-rule="evenodd"/>
      <path id="Fill-19" d="M2.922,145.425.808,153.312H11.275l4.282-16.046L2.922,145.425" transform="translate(-0.808 -125.6)" fill="#fff" fill-rule="evenodd"/>
    </g>
  </g>
</svg>
