<svg xmlns="http://www.w3.org/2000/svg" width="167.589" height="40.655" viewBox="0 0 167.589 40.655">
  <path id="Shape_13_copy" data-name="Shape 13 copy" d="M696.3,79.955l-8.276,7.64,9.55-35.334,4.138,7.958,2.228-7.64,8.6,17.509L694.074,87.6Zm-33.26,7.377h0c.016-.111.414-2.721,1.926-3.209.04,0,3.933-.1,4.45-2.589a2.891,2.891,0,0,0,.044-.3c.258-2.795-.633-23.862-.642-24.074H676.2l.321,14.124,8.346-14.124h7.061L676.2,84.122l-2.247,2.889-10.912.321Zm-21.185-6.1a5,5,0,0,1-3.284-2.571c-.88-1.9-.424-4.491,1.358-7.7A5.162,5.162,0,0,1,642.1,69.07c1.611-.917,4.714-2.112,10.353-2.6.03,0,2.993-.06,4.168-1.634a2.794,2.794,0,0,0,.326-2.539,4.83,4.83,0,0,0-2.849-.88,7.252,7.252,0,0,0-4.534,1.843H642.5l0-.008a10.587,10.587,0,0,1,2.155-3.038,11.266,11.266,0,0,1,3.068-2.187,12.435,12.435,0,0,1,4.725-1.186,31.893,31.893,0,0,1,3.224-.157,20.365,20.365,0,0,1,5.4.612c1.984.559,3.184,1.486,3.57,2.756.005.013.5,1.314-.642,5.778-.028.112-2.768,11.186-3.21,14.124l-6.741.32c-.006-.014-.6-1.431-1.6-1.6-.233.105-5.762,2.59-9.926,2.59C642.294,81.256,642.07,81.248,641.858,81.233Zm5.135-8.667c-.644,1.457-.753,2.531-.325,3.189a2.042,2.042,0,0,0,1.768.739,4.3,4.3,0,0,0,.8-.076,6.641,6.641,0,0,0,4.851-2.384A5.661,5.661,0,0,0,655.017,70,17.428,17.428,0,0,0,646.993,72.566Zm-62.592,6.1c-.636-1.575-.068-5.349,0-5.774l3.853-14.77a1.11,1.11,0,0,1,.961-.963h6.1c.611.011.963.115,1.047.311a.35.35,0,0,1-.084.331c-.13.355-3.184,8.761-3.531,13.161-.008.094-.014.192-.019.29a3.749,3.749,0,0,0,.681,2.8,1.751,1.751,0,0,0,1.3.525,2.183,2.183,0,0,0,.609-.083A4.626,4.626,0,0,0,599.1,72.06a9.131,9.131,0,0,0,1.026-2.383l2.568-8.346c.871-3.265,1.916-4.165,1.926-4.172H610.4c.5.036.8.175.9.411.155.367-.239.851-.256.872L605.263,79.95l-7.061.32.321-1.283c.373-1.28-.314-1.6-.321-1.606a20.093,20.093,0,0,0-3.21,1.926c-2.016,1.786-5.741,1.925-5.778,1.926A6.646,6.646,0,0,1,584.4,78.666Zm-23.434,1.6h-8.346l8.667-31.457,18.617.32a9.682,9.682,0,0,1,2.768,1.085,5.37,5.37,0,0,1,1.791,1.67,4,4,0,0,1,.577,2.7,11.489,11.489,0,0,1-.684,4.014,11.256,11.256,0,0,1-1.982,3.48,12.016,12.016,0,0,1-4.075,3.1,2.228,2.228,0,0,0,0,.963c.107.068,2.642,1.716,2.568,3.531l-1.283,10.592h-8.025c-.006,0-.606-.057-.642-.963l1.284-7.7a2.712,2.712,0,0,0-2.247-2.246l-4.815-.321c-.013,0-1.282.339-1.926,2.889l-2.246,8.346h0Zm6.741-24.4-1.6,6.1c0,.009.026.944,2.247.963h.017c.187.005.391.008.6.008,1.681,0,7.185-.186,7.4-2.578V57.159a.56.56,0,0,0-.189-.379c-.36-.387-1.517-1.036-5.218-1.036h-.008C570,55.744,568.9,55.788,567.707,55.875ZM618.423,79.95h-8.345l8.346-31.136,17.655.32a7.478,7.478,0,0,1,3.47,1.375,6.373,6.373,0,0,1,1.816,2.165,7.255,7.255,0,0,1,.812,2.879,12.773,12.773,0,0,1-1.207,5.936,16.311,16.311,0,0,1-3,4.325,20.12,20.12,0,0,1-4.465,3.542c-2.174.864-9.018.959-9.309.963a6.806,6.806,0,0,0-3.209.642l-2.569,8.987h0Zm6.742-24.075c-1.842,6.2-1.783,7.216-1.671,7.366a.051.051,0,0,0,.041.024.049.049,0,0,0,.025-.007h4.569c3.826,0,4.413-1.907,4.418-1.926a4.066,4.066,0,0,0,.942-3.07,3.415,3.415,0,0,0-1.263-2.065,17.907,17.907,0,0,0-4.622-.356C626.371,55.84,625.27,55.87,625.165,55.875ZM712.53,50.78a3.84,3.84,0,1,1,3.84,3.84A3.844,3.844,0,0,1,712.53,50.78Zm.68,0a3.16,3.16,0,1,0,3.16-3.16A3.163,3.163,0,0,0,713.21,50.78ZM716.446,52h-.275V49.866h.414l.613,1.8.609-1.8h.41V52h-.275V50.74q0-.065,0-.216t0-.324l-.608,1.8h-.286l-.615-1.8v.066c0,.052,0,.131,0,.239s0,.185,0,.236V52h0Zm-1.58,0h-.291V50.121h-.718v-.255h1.729v.255h-.719V52h0Z" transform="translate(-552.621 -46.94)" fill="#fff"/>
</svg>
