<svg xmlns="http://www.w3.org/2000/svg" width="108.539" height="43.066" viewBox="0 0 108.539 43.066">
  <g id="Shopse" transform="translate(-0.5 -0.916)">
    <path id="Path_1378" data-name="Path 1378" d="M348.58,115.077a6.555,6.555,0,0,0-5.77-1.731s-3.862.485-4.385,4.155a4.8,4.8,0,0,0,1.039,3.462,6.589,6.589,0,0,0,3.462,1.846s3.611.615,3.347,2.654c0,0,.033,2.663-3.116,2.654a5.7,5.7,0,0,1-3.578-1.616,1.227,1.227,0,0,0-1.039.231L337.732,128a.6.6,0,0,0,.231.346,6.492,6.492,0,0,0,3,1.846,7.029,7.029,0,0,0,2.424.346s2.615-.164,3.924-1.5c0,0,1.2-.871,1.616-3.808,0,0,.134-2.818-2.193-3.808a18.863,18.863,0,0,0-2.308-.923s-2.535-.612-3.116-1.731a2.114,2.114,0,0,1,.115-2.077,2.942,2.942,0,0,1,2.539-1.039,4.7,4.7,0,0,1,2.77,1.154.936.936,0,0,0,1.154-.231A7.564,7.564,0,0,0,348.58,115.077Zm12,13.272-.923-1.154s-.053-.14-.577,0a5.465,5.465,0,0,1-3.116,1.154s-3.281.206-3.347-3.808h7.5a.6.6,0,0,0,.577-.577v-1.385a4.931,4.931,0,0,0-5.078-4.521s-5.243-.249-5.655,6.022c0,0,.008,4.419,3,5.77a6.826,6.826,0,0,0,3,.692S360.077,130.051,360.582,128.349Zm-7.963-5.655a3.258,3.258,0,0,1,3-2.654,2.7,2.7,0,0,1,2.77,2.654Zm-27.236-4.385v15a1.052,1.052,0,0,0,.923.808h2.77v-5.193a3.018,3.018,0,0,0,2.77,1.616,5.227,5.227,0,0,0,4.616-3.578,13.769,13.769,0,0,0,.462-3.462s-.4-5.445-4.385-5.445a4.967,4.967,0,0,0-3.693,1.636v-.577a1.047,1.047,0,0,0-.808-.808Zm3.693,3.578s1.268-1.592,2.885-.923c0,0,1.218.288,1.154,3.231,0,0,.213,3.816-2.308,3.578a2.107,2.107,0,0,1-1.731-.692ZM298.724,113v16.618a1.317,1.317,0,0,0,.692.692H302.3v-8.54a3.2,3.2,0,0,1,2.077-.923A1.638,1.638,0,0,1,306,122v7.5s-.111.561.692.808h2.885v-8.194a4.611,4.611,0,0,0-.808-2.424,3.448,3.448,0,0,0-2.539-1.5s-2.845-.6-3.924,1.616v-6s.12-.6-.692-.808Zm18.58,5.078a5.906,5.906,0,0,0-6.116,6.117s-.032,6.431,6.232,6.232c0,0,6.115.3,6.117-6.347A5.989,5.989,0,0,0,317.3,118.078Zm.115,2.77s-2.481-.25-2.424,3.231c0,0-.562,3.688,2.424,3.693,0,0,2.4.471,2.308-3.578C319.728,124.194,320.031,120.891,317.42,120.848Zm-25.966-4.5a3.767,3.767,0,0,1,1.616.346l1.154.692a1.125,1.125,0,0,0,1.154-.115l1.039-1.846s.4-.246-.115-.577a8.253,8.253,0,0,0-4.962-1.5,6.539,6.539,0,0,0-4.5,1.731s-1.055.781-1.154,3.347a4.313,4.313,0,0,0,1.846,3.808,18.031,18.031,0,0,0,3.578,1.269s2.017.492,1.962,1.962a1.709,1.709,0,0,1-1.846,1.846,5.334,5.334,0,0,1-3.693-1.269s-.853-.344-1.269.231l-1.269,1.846s-.031.175.231.346a8.489,8.489,0,0,0,3.347,1.731,10.571,10.571,0,0,0,4.039.115,5.568,5.568,0,0,0,4.155-4.732s.4-3.576-2.654-4.732c0,0-2.484-.936-3.693-1.385a1.425,1.425,0,0,1-1.039-1.5S289.03,116.549,291.454,116.347Z" transform="translate(-251.658 -99.148)" fill="#fff" fill-rule="evenodd"/>
    <path id="Path_1379" data-name="Path 1379" d="M161,62.191a5.068,5.068,0,0,1,1.154-2.539,4.394,4.394,0,0,1,2.539-1.616,6,6,0,0,1,3.231.231,5.288,5.288,0,0,1,1.962,1.154s-1.382,1.206-1.5,5.655c0,0,.229,2.825.346,4.385a38.02,38.02,0,0,1-.231,3.808s-.006-4.321-5.078-8.655Z" transform="translate(-141.977 -50.416)" fill="#fff" fill-rule="evenodd"/>
    <path id="Path_1380" data-name="Path 1380" d="M1,3.48V2.32S1.14.872,1.929.926a1.052,1.052,0,0,1,.813.232A36.369,36.369,0,0,0,9.242,5.8l5.688,3.6s6.823,3.888,9.613,7.567c0,0-2.308-3.1-11.541-5.424,0,0-6.673-.643-8.636-2.724C4.367,8.82,1.114,5.987,1,3.48Z" transform="translate(-0.442)" fill="#f6f6f6" fill-rule="evenodd"/>
    <path id="Shape_6_copy" data-name="Shape 6 copy" d="M.5,248.487v1.161s.14,1.448.929,1.393a1.052,1.052,0,0,0,.813-.232,36.366,36.366,0,0,1,6.5-4.643l5.688-3.6s6.823-3.888,9.613-7.567c0,0-2.308,3.1-11.541,5.424,0,0-6.673.643-8.636,2.724C3.867,243.148.614,245.98.5,248.487Z" transform="translate(0 -207.069)" fill="#f6f6f6" fill-rule="evenodd"/>
    <path id="Path_1381" data-name="Path 1381" d="M10.809,57.659a26.355,26.355,0,0,0,8.655-2.539s3.989-1.482,5.886-4.27a11.731,11.731,0,0,0,1.5-4.385,10.128,10.128,0,0,0-4.039-7.155,28.856,28.856,0,0,0-10.04-3.924,27.632,27.632,0,0,1-6.578-1.5A7.658,7.658,0,0,1,3.885,32.27,14.06,14.06,0,0,1,1,28a12.055,12.055,0,0,0,1.039,4.385s.2,1.178,2.654,2.885l3.231,1.616a33.281,33.281,0,0,1,4.962,2.77,11.29,11.29,0,0,1,4.039,4.962,9.608,9.608,0,0,1,.231,1.962A7.483,7.483,0,0,1,16,50.158s-1.893,2.694-6.694,4.962c0,0-4.153,1.713-5.77,3.347,0,0-2.315,1.538-2.539,6.347,0,0,.19-1.975,3.462-4.962C4.462,59.852,5.693,58.39,10.809,57.659Z" transform="translate(-0.442 -23.958)" fill="#fff" fill-rule="evenodd"/>
  </g>
</svg>
