<svg xmlns="http://www.w3.org/2000/svg" width="124.428" height="44.833" viewBox="0 0 124.428 44.833">
  <path id="Shape_12" data-name="Shape 12" d="M197.036,91.782a2.592,2.592,0,0,1-.376-2.094,3.74,3.74,0,0,1,1.236-2.253,3.379,3.379,0,0,1,2.279-.86,3.106,3.106,0,0,1,1.327.239l-.128.725a2.447,2.447,0,0,0-1.316-.348,2.513,2.513,0,0,0-1.741.668,3.036,3.036,0,0,0-.937,1.787,2.121,2.121,0,0,0,.284,1.691,1.652,1.652,0,0,0,1.414.63,3.239,3.239,0,0,0,1.584-.389l-.116.66a3.791,3.791,0,0,1-1.665.341A2.166,2.166,0,0,1,197.036,91.782Zm-37.762.776c-.132-.015-.266-.037-.4-.065a3.072,3.072,0,0,1-.381-.105,1.027,1.027,0,0,1-.277-.14l.141-.8a1.21,1.21,0,0,0,.292.219,2.179,2.179,0,0,0,.376.164,2.813,2.813,0,0,0,.41.1,2.273,2.273,0,0,0,.391.037,1.756,1.756,0,0,0,.979-.233.97.97,0,0,0,.427-.67.729.729,0,0,0-.031-.41.911.911,0,0,0-.23-.318,2.227,2.227,0,0,0-.383-.275c-.15-.088-.313-.18-.488-.277s-.355-.207-.512-.312a1.9,1.9,0,0,1-.4-.348,1.153,1.153,0,0,1-.23-.432,1.265,1.265,0,0,1-.012-.565,1.563,1.563,0,0,1,.3-.69,1.941,1.941,0,0,1,.544-.484,2.5,2.5,0,0,1,.7-.283,3.161,3.161,0,0,1,.756-.094,2.584,2.584,0,0,1,1.215.207l-.135.766a1.981,1.981,0,0,0-1.257-.356,2.323,2.323,0,0,0-.454.046,1.492,1.492,0,0,0-.424.152,1.144,1.144,0,0,0-.332.272.852.852,0,0,0-.18.4.776.776,0,0,0,.014.385.738.738,0,0,0,.194.3,1.892,1.892,0,0,0,.349.259q.211.126.488.275a6.1,6.1,0,0,1,.535.324,2.112,2.112,0,0,1,.424.377,1.312,1.312,0,0,1,.253.458,1.2,1.2,0,0,1,.022.575,1.7,1.7,0,0,1-.3.727,1.789,1.789,0,0,1-.539.484,2.368,2.368,0,0,1-.706.269,3.785,3.785,0,0,1-.8.084A3.225,3.225,0,0,1,159.274,92.558ZM89.351,90.226l.626-3.552h.68l-.618,3.508q-.316,1.786,1.192,1.786,1.454,0,1.759-1.726l.629-3.569H94.3l-.61,3.46q-.432,2.446-2.64,2.447Q88.936,92.58,89.351,90.226Zm112.417,2.256,1.024-5.809h2.949l-.109.616h-2.269l-.34,1.932h2.1l-.108.612h-2.1l-.359,2.033h2.4l-.108.616Zm-6.8,0-.329-1.628h-2.463l-.867,1.628h-.758l3.253-5.809h.706l1.211,5.809Zm-1.117-4.715-1.34,2.475h2.013l-.475-2.475a2.2,2.2,0,0,1-.021-.389h-.016A2.568,2.568,0,0,1,193.849,87.767Zm-6.222,4.715,1.024-5.809H191.6l-.109.616h-2.268L188.87,89.3h2.1l-.108.612h-2.1l-.454,2.572Zm-1.691,0-.686-1.628a2.822,2.822,0,0,0-.191-.387,1.127,1.127,0,0,0-.212-.261.717.717,0,0,0-.257-.148,1.1,1.1,0,0,0-.334-.046H183.7l-.436,2.47h-.681l1.025-5.809h1.733a2.324,2.324,0,0,1,.687.095,1.268,1.268,0,0,1,.508.29,1.061,1.061,0,0,1,.285.484,1.528,1.528,0,0,1,.014.679,1.842,1.842,0,0,1-.528,1.009,2.051,2.051,0,0,1-.465.338,2.5,2.5,0,0,1-.571.217l0,.016a.968.968,0,0,1,.227.148,1.038,1.038,0,0,1,.17.2,2.132,2.132,0,0,1,.147.257c.047.1.1.207.154.334l.782,1.746Zm-2.13-3.087h.924a1.517,1.517,0,0,0,.485-.076,1.375,1.375,0,0,0,.414-.22,1.283,1.283,0,0,0,.309-.353,1.344,1.344,0,0,0,.172-.468.784.784,0,0,0-.174-.727,1.115,1.115,0,0,0-.826-.261h-.932Zm-5.5,3.087,1.024-5.809h2.949l-.109.616H179.9l-.341,1.932h2.1l-.108.612h-2.1l-.358,2.033h2.4l-.108.616Zm-3.352,0,.916-5.193h-1.674l.109-.616h4.031l-.109.616h-1.677l-.916,5.193Zm-3.518,0-2.174-4.631a1.608,1.608,0,0,1-.122-.364h-.024a6.019,6.019,0,0,1-.108.8l-.74,4.2h-.681l1.025-5.809h.883l2.105,4.558c.088.189.143.319.166.389h.016a6.106,6.106,0,0,1,.11-.855l.722-4.091h.68l-1.024,5.809Zm-6.14,0,1.024-5.809H167l-1.024,5.809Zm-10.2,0,.915-5.193h-1.673l.109-.616h4.031l-.109.616h-1.677l-.916,5.193Zm-3.519,0L149.4,87.852a1.566,1.566,0,0,1-.122-.364h-.024a6.021,6.021,0,0,1-.108.8l-.741,4.2h-.68l1.024-5.809h.884l2.105,4.558c.088.189.143.319.167.389h.016a6.109,6.109,0,0,1,.11-.855l.722-4.091h.68l-1.024,5.809Zm-8.128,0,1.024-5.809h2.949l-.109.616h-2.269l-.34,1.932h2.1l-.107.612h-2.1l-.359,2.033h2.4l-.108.616Zm-2.287,0,.687-3.9q.081-.462.257-1.13h-.016a4.452,4.452,0,0,1-.274.563l-2.773,4.464h-.332l-1.2-4.432a3.142,3.142,0,0,1-.068-.6h-.016q-.03.348-.168,1.138l-.686,3.889h-.657l1.025-5.809h.9l1.068,4.051a4.527,4.527,0,0,1,.144.7h.024q.259-.478.406-.713l2.53-4.035h.851l-1.025,5.809Zm-8.736,0,.375-2.13-1.219-3.678h.773l.838,2.624c.011.032.037.151.079.357h.012a2.6,2.6,0,0,1,.217-.357l1.824-2.624h.721l-2.562,3.662-.378,2.146Zm-2.238,0-.329-1.628h-2.462l-.867,1.628h-.758l3.253-5.809h.7l1.212,5.809Zm-1.118-4.715-1.339,2.475h2.013l-.475-2.475a2.2,2.2,0,0,1-.021-.389h-.016A2.468,2.468,0,0,1,129.066,87.767Zm-6.716,4.715,1.024-5.809h1.6a1.811,1.811,0,0,1,1.364.454,1.4,1.4,0,0,1,.286,1.28,2.159,2.159,0,0,1-.807,1.354,2.538,2.538,0,0,1-1.631.526h-.765l-.388,2.2Zm1.176-2.811h.714a1.839,1.839,0,0,0,1.132-.322,1.4,1.4,0,0,0,.531-.91q.2-1.15-1.158-1.15h-.8Zm-9.432,2.811,1.024-5.809h1.6q3.071,0,2.572,2.831a3.475,3.475,0,0,1-1.234,2.161,3.707,3.707,0,0,1-2.427.816Zm.788-.616h.868a2.873,2.873,0,0,0,1.886-.611,2.777,2.777,0,0,0,.941-1.734q.394-2.233-1.98-2.232h-.908Zm-5.069.616,1.024-5.809h2.949l-.108.616h-2.269l-.341,1.932h2.1l-.108.612h-2.1l-.358,2.033H113l-.109.616Zm-2.291,0,1.025-5.809h.68L108.2,92.482Zm-4.134,0,1.024-5.809h2.949l-.108.616h-2.269l-.355,2.009h2.1l-.108.612h-2.1l-.454,2.572Zm-2.291,0,1.025-5.809h.68l-1.024,5.809Zm-2.44,0-2.174-4.631a1.566,1.566,0,0,1-.122-.364h-.024a6.02,6.02,0,0,1-.108.8l-.741,4.2h-.68l1.024-5.809h.884l2.105,4.558c.088.189.143.319.167.389H99a6.107,6.107,0,0,1,.11-.855l.722-4.091h.68l-1.024,5.809Zm99.856-18.809-7.748,7.152,8.94-33.078,3.874,7.449,2.086-7.151,8.046,16.39-17.284,16.39Zm-63.772,7.152,5.364-19.072,32.78-.6,1.788-6.854H142.191l1.49-6.258h36.654a2.427,2.427,0,0,1,1.787,2.98L178.25,65.031s-1.2,2.626-3.278,2.682h-30.1L141.3,80.825Zm-41.423,0a2.608,2.608,0,0,1-1.49-2.98l8.046-29.8h6.557L99.279,74.27l26.224.3,7.152-26.522h6.854l-7.449,26.82-1.49,4.469s-.32,1.475-2.98,1.49Zm85.526-.3,8.642-32.482h6.854L185.1,80.528Z" transform="translate(-89.283 -47.748)" fill="#fff"/>
</svg>
