<svg fill="none" height="28" viewBox="0 0 123 28" width="123" xmlns="http://www.w3.org/2000/svg"><path clip-rule="evenodd" d="m65.8244 27.0074 3.0123-4.758c-5.2713-2.8752-8.8313-5.7505-10.4744-7.2225 3.3546-2.2249 6.8802-4.929 10.3716-7.70164l-3.4229-5.03181c-2.3277 2.25919-6.264 5.47673-9.1051 7.70167.0683-4.03922.2396-7.25676.2396-9.9267926l-5.2714-.0683274c0 6.70908-.2055 15.4035-.2055 27.0759l5.2716-.137c0-1.9169-.1028-4.2445-.0686-7.154 1.6773 1.6088 6.7091 5.3742 9.6528 7.2225zm-33.8192.9243c-1.2324-6.6065-3.0807-17.93658-4.4157-27.760618-2.2592-.1368304-5.5795-.068327-7.8387.102755-1.0268 8.215093-3.0807 18.894863-4.7579 26.870563l5.4767.0343.9585-4.9978 4.0733-.2396.89 6.0587zm68.9048-.9928c4.758 0 6.949-3.8678 6.949-12.665 0-7.53057-1.506-13.623648-7.085-13.623648-4.2795 0-6.9835 3.525798-6.9835 12.836248 0 8.5576 1.951 13.4524 7.1195 13.4524zm21.599.5479-5.271-14.0003 5.34-12.2884-3.457-.23976-3.697 9.51616-3.218-9.721494-3.526.137006 4.724 12.630688-5.032 13.2129 3.389.2053 3.492-10.44 3.628 11.1247zm-72.7043-2.2594c-2.2932-3.1148-3.8337-5.5793-5.7505-9.4815 2.2934-1.4035 3.5941-3.8682 3.5941-6.94888 0-3.66245-1.6088-8.009762-9.3105-8.009762-1.917 0-3.7311.102754-5.0662.273832.2738 8.31785.4793 17.11501.4793 25.94631l5.2029-.0685c0-3.3544-.171-6.7091-.2395-9.9609h.753c1.6089 3.9023 3.8681 8.2153 5.3056 10.5771zm-35.1199-5.6478c0-3.252-1.5745-5.3057-3.7311-6.2984 1.9168-1.1637 3.0123-3.32033 3.0123-5.64785 0-4.14198-2.5673-6.777589-8.07824-6.777589-1.43786 0-4.51858.205329-5.88776.376419.445094 7.66759.753172 17.83402.855927 25.84372.855583.0343 1.985203.0685 3.765233.0685 6.19564 0 10.06364-1.8483 10.06364-7.5648zm77.1545.6161c0-2.7042-1.4375-4.8949-4.2446-5.9903 2.4305-1.2322 3.5601-3.5599 3.5601-6.46948 0-5.44247-4.3131-6.982914-11.8437-6.50374.0342 8.55761-.0342 17.21782-.3764 25.91222 8.3519.8556 12.9046-1.1981 12.9046-6.9487zm9.1737 3.9023c-2.6016 0-3.9364-3.7654-3.9364-10.7826 0-6.26398 1.3007-9.85828 3.5944-9.85828 2.67 0 3.936 4.14197 3.936 10.98788 0 6.3325-1.129 9.653-3.594 9.653zm-13.1443-16.12249c0 3.11499-1.5404 4.72389-5.4426 4.86069.0683-2.97791.171-5.95604.2395-8.89973 3.5944-.03426 5.2031 1.30067 5.2031 4.03904zm-81.87837-2.73837c1.98536 0 2.90946 1.19811 2.90946 2.87538 0 2.15648-1.43752 3.21758-3.62821 3.38878-.0685-2.19068-.137-4.31305-.20551-6.19565.30809-.03425.61617-.06851.92426-.06851zm36.62617 3.4573c0 2.36176-1.3007 3.66266-3.6627 3.66266h-.2738c-.0341-2.53306 0-4.89501.0343-6.94887.2053-.03425.4449-.03426.6846-.03426 2.0195 0 3.2176 1.23236 3.2176 3.32047zm-19.6139-2.22494h.8558l1.8143 10.7483-4.3473.4107zm44.8072 8.5917c2.7041-1.4035 5.5452-2.9437 8.1469-4.4157-.274-.5819-.8902-1.77998-1.2666-2.39598-2.67 1.60877-5.3401 3.11478-8.0784 4.58668.274.6503.89 1.7801 1.1981 2.225zm20.7434 5.1345c0 3.1835-1.7457 4.4842-6.3324 4.2787.0342-2.9437.1027-5.9218.171-8.8998 4.1076.1368 6.1614 1.7115 6.1614 4.6211zm-81.87836-4.4843c2.22495 0 2.94388 1.746 2.94388 3.3888 0 2.3962-1.47196 3.4916-3.86798 3.5258-.10276-2.0538-.20532-4.3471-.30808-6.7091.4451-.1368.85576-.2055 1.23218-.2055zm62.53836 2.6358c1.8484.5819 3.9023 1.1639 5.9219 1.6432.171-.6504.4449-1.8143.5819-2.533-1.8826-.4451-3.9707-.9585-5.8192-1.5062-.171.4792-.5818 1.8826-.6846 2.396z" fill="#42b0e2" fill-rule="evenodd"/></svg>