<svg width="211" height="39" viewBox="0 0 211 39" fill="none" xmlns="http://www.w3.org/2000/svg">
<path d="M0 0H15.469C18.4154 0 20.6253 0.737396 22.2622 1.96639C24.0628 3.44118 25.045 5.57143 25.045 8.19328C25.045 11.2248 23.8173 13.1092 21.3619 14.2563V14.4202C24.6358 15.4853 26.5182 18.4349 26.5182 21.958C26.5182 25.3172 25.2087 27.9391 23.0807 29.5777C21.2801 30.8887 18.9884 31.4622 15.8782 31.4622H0V0ZM13.9139 12.2899C15.5508 12.2899 16.7785 11.3887 16.7785 9.5042C16.7785 7.70168 15.5508 6.80042 13.832 6.80042H8.51203V12.208H13.9139V12.2899ZM14.6505 24.4979C16.533 24.4979 17.9244 23.3508 17.9244 21.3025C17.9244 19.0903 16.4511 18.1071 14.6505 18.1071H8.59387V24.5798H14.6505V24.4979Z" fill="black"/>
<path d="M27.9096 0H36.0124V31.5441H27.9096V0Z" fill="black"/>
<path d="M37.6493 20.3193C37.6493 13.1912 42.2327 8.43908 49.3534 8.43908C56.474 8.43908 60.9756 13.2731 60.9756 20.3193C60.9756 27.4475 56.474 32.1996 49.3534 32.1996C42.2327 32.1996 37.6493 27.4475 37.6493 20.3193ZM52.8728 20.3193C52.8728 16.3866 51.6451 13.9286 49.1897 13.9286C46.7343 13.9286 45.5884 16.3866 45.5884 20.3193C45.5884 24.2521 46.7343 26.792 49.1897 26.792C51.6451 26.7101 52.8728 24.2521 52.8728 20.3193Z" fill="black"/>
<path d="M61.8759 20.3193C61.8759 13.1912 66.4593 8.43908 73.5799 8.43908C80.7005 8.43908 85.1202 13.1912 85.1202 20.3193C85.1202 27.4475 80.6187 32.1996 73.498 32.1996C66.4593 32.1996 61.8759 27.4475 61.8759 20.3193ZM77.0993 20.3193C77.0993 16.3866 75.8716 13.9286 73.4162 13.9286C70.9608 13.9286 69.815 16.3866 69.815 20.3193C69.815 24.2521 70.9608 26.792 73.4162 26.792C75.8716 26.7101 77.0993 24.2521 77.0993 20.3193Z" fill="black"/>
<path d="M86.7572 9.01261H94.287V12.3719H94.4507C95.924 9.75 97.9701 8.35714 101.244 8.35714C104.109 8.35714 106.237 9.75 107.301 12.208H107.464C109.265 9.2584 111.638 8.35714 114.421 8.35714C119.659 8.35714 121.869 12.208 121.869 17.3697V31.4622H114.012V18.7626C114.012 16.4685 113.275 14.9937 111.311 14.9937C109.347 14.9937 108.365 16.7962 108.365 19.2542V31.4622H100.507V18.7626C100.507 16.4685 99.7708 14.9937 97.8064 14.9937C95.8421 14.9937 94.86 16.7962 94.86 19.2542V31.4622H86.7572V9.01261Z" fill="black"/>
<path d="M131.773 28.5126H131.691V31.4622H124.161V0H132.018V11.3067H132.182C133.655 9.34034 135.701 8.27521 138.566 8.27521C144.213 8.27521 147.487 13.355 147.487 20.1555C147.487 27.7752 143.968 32.1996 138.075 32.1996C135.619 32.1996 133.082 31.0525 131.773 28.5126ZM139.384 20.0735C139.384 16.4685 138.075 14.0924 135.701 14.0924C133.246 14.0924 131.773 16.4685 131.773 20.0735C131.773 23.6786 133.328 26.0546 135.701 26.0546C138.075 26.0546 139.384 23.7605 139.384 20.0735Z" fill="black"/>
<path d="M148.388 20.2374C148.388 13.1912 153.053 8.35714 159.764 8.35714C163.12 8.35714 165.657 9.42227 167.621 11.3067C170.241 13.8466 171.386 17.7794 171.305 22.3677H156.245C156.572 25.1534 157.882 26.6282 160.255 26.6282C161.647 26.6282 162.874 25.9727 163.365 24.4979H170.977C169.668 29.6597 165.657 32.1996 160.01 32.1996C153.053 32.1177 148.388 27.3656 148.388 20.2374ZM156.245 17.8613H163.447C163.284 15.1576 161.81 13.7647 159.928 13.7647C157.718 13.6828 156.49 15.2395 156.245 17.8613Z" fill="black"/>
<path d="M180.226 12.8634H180.389C182.026 9.75 184.154 8.52101 186.855 8.52101C187.51 8.52101 187.919 8.60294 188.165 8.76681V15.6492H188.001C183.336 14.8298 180.635 17.042 180.635 22.1219V31.5441H172.696V9.01261H180.226V12.8634Z" fill="black"/>
<path d="M188.983 31.5441H196.595C196.922 32.5273 197.905 33.4286 199.787 33.4286C202.324 33.4286 203.225 31.8718 203.225 29.4958V27.8571H203.061C201.833 29.3319 200.114 30.3971 197.659 30.3971C192.83 30.3971 188.574 26.792 188.574 19.7458C188.574 13.2731 192.012 8.27521 197.25 8.27521C200.278 8.27521 202.079 9.5042 203.306 11.3887H203.47V8.93067H211V28.4307C211 32.0357 209.772 34.8214 207.89 36.4601C205.926 38.1807 203.143 38.9181 199.951 38.9181C193.894 39 189.72 36.542 188.983 31.5441ZM203.552 19.4181C203.552 16.6324 202.242 14.3382 199.951 14.3382C197.741 14.3382 196.35 16.3046 196.35 19.4181C196.35 22.4496 197.741 24.5798 199.951 24.5798C202.161 24.5798 203.552 22.3676 203.552 19.4181Z" fill="black"/>
</svg>
