<svg fill="none" height="55" viewBox="0 0 102 55" width="102" xmlns="http://www.w3.org/2000/svg"><path d="m101.101 48.8434c1.273 1.7807 1.018 4.0702-.51 5.3422-1.7823 1.272-4.3289 1.0176-5.6022-.5088l-8.9132-11.4477-8.6584 11.1933c-1.2734 1.7808-3.82 1.7808-5.6026.5088s-2.0373-3.5615-.764-5.3422l10.1865-13.2285-10.1865-13.2284c-1.2733-1.7807-.764-4.3246.764-5.5966 1.7826-1.272 4.3292-.7632 5.6026.7632l8.6584 11.4476 8.9132-10.9388c1.2733-1.7808 3.5653-2.0352 5.6022-.7632 1.783 1.272 1.783 3.8159.51 5.5966l-9.9321 12.974zm-46.3487-1.5264c-6.6212 0-11.9691-5.0879-11.9691-11.7021 0-6.3598 5.3479-11.702 11.9691-11.702s11.9691 5.3422 11.9691 11.702c-.2547 6.6142-5.6026 11.7021-11.9691 11.7021zm-35.1434 0c-6.6212 0-11.96905-5.0879-11.96905-11.7021 0-6.3598 5.34785-11.702 11.96905-11.702 6.6213 0 11.9691 5.3422 11.9691 11.702 0 6.6142-5.3478 11.7021-11.9691 11.7021zm35.1434-31.0359c-7.3852 0-14.0064 4.0703-17.317 10.1757-3.3106-6.1054-9.9318-10.1757-17.5717-10.1757-4.5839 0-8.6585 1.5264-11.96909 3.8159v-16.28111c0-2.03514-1.78263-3.81589-3.81992-3.81589-2.29196 0-4.07459 1.78075-4.07459 3.81589v32.05341c.254662 10.6845 8.91316 19.0795 19.6089 19.0795 7.6399 0 14.2611-4.3247 17.5717-10.4301 3.3106 6.1054 9.9318 10.4301 17.317 10.4301 10.9505 0 19.8636-8.6494 19.8636-19.5883.2547-10.43-8.6585-19.0794-19.6089-19.0794z" fill="#0061d5"/></svg>