<svg fill="none" height="27" viewBox="0 0 140 27" width="140" xmlns="http://www.w3.org/2000/svg" xmlns:xlink="http://www.w3.org/1999/xlink"><clipPath id="a"><path d="m0 0h140v27h-140z"/></clipPath><g clip-path="url(#a)" fill="#1738fa"><path d="m23.886 5.11998c-1.9253-.00186-3.7863.69239-5.24 1.95475s-2.402 3.00767-2.67 4.91427v-10.97302c.0001-.024025-.0071-.047519-.0205-.067439s-.0325-.03535-.0548-.044291c-.0223-.008942-.0468-.010983-.0703-.005861s-.0449.017173-.0614.034592l-4.672 4.812999c-.9843-.41465-2.04189-.62752-3.11-.626-4.409 0-7.987 3.565-7.987 7.96302 0 4.398 3.576 7.963 7.988 7.963 1.92513.0019 3.7861-.6922 5.2397-1.9544 1.4537-1.2622 2.402-3.0073 2.6703-4.9136v10.972c0 .108.131.16.206.083l4.673-4.813c.984.4145 2.0412.6274 3.109.626 4.411 0 7.987-3.565 7.987-7.963 0-4.39802-3.576-7.96302-7.987-7.96302z"/><path clip-rule="evenodd" d="m62.06 1.78401c0 .47328-.188.92718-.5227 1.26183-.3346.33466-.7885.52267-1.2618.52267s-.9272-.18801-1.2618-.52267c-.3347-.33465-.5227-.78855-.5227-1.26183s.188-.927172.5227-1.26183c.3346-.334659.7885-.52266828 1.2618-.52266828s.9272.18800928 1.2618.52266828c.3347.334658.5227.78855.5227 1.26183zm21.003-1.519998v20.525988c0 .108.088.195.196.195h2.51c.0258.0001.0513-.0048.0751-.0145.0238-.0098.0455-.0241.0638-.0422s.0328-.0396.0428-.0634c.01-.0237.0152-.0491.0153-.0749v-20.525988c-.0005-.051635-.0214-.100976-.0581-.137302-.0367-.0363258-.0863-.056701-.1379-.0566983h-2.511c-.0518-.0000007-.1015.0205119-.1382.0570533-.0368.036541-.0575.086138-.0578.137947zm-30.433 7.199998v-7.193998c0-.108.088-.1960003.196-.1960003h2.511c.108 0 .196.0880003.196.1960003v20.524988c0 .052-.0206.1018-.0574.1386-.0367.0368-.0866.0574-.1386.0574h-2.51c-.0258.0001-.0514-.0048-.0753-.0146s-.0456-.0242-.0639-.0424c-.0183-.0183-.0329-.0399-.0428-.0638-.0099-.0238-.015-.0494-.015-.0752v-1.77c-1.204 1.37-2.91 2.215-5.005 2.215-4.32 0-7.834-3.586-7.834-7.994 0-4.40899 3.514-7.99499 7.834-7.99499 2.094 0 3.801.844 5.005 2.214zm-9.655 5.78199c0 2.776 2.09 5.035 4.81 5.035 2.722 0 4.563-2.26 4.563-5.036s-1.841-5.03499-4.562-5.03499-4.811 2.25999-4.811 5.03599zm49.185-5.78299c1.204-1.37 2.91-2.215 5.005-2.215 4.32 0 7.834 3.587 7.834 7.99499 0 4.408-3.514 7.995-7.834 7.995-2.094 0-3.801-.844-5.005-2.214v7.37c0 .052-.0206.1018-.0574.1386-.0367.0368-.0866.0574-.1386.0574h-2.511c-.052 0-.1018-.0206-.1386-.0574-.0367-.0368-.0574-.0866-.0574-.1386v-20.52399c0-.108.087-.196.196-.196h2.51c.109 0 .197.088.197.196v1.594zm.282 5.77999c0 2.777 1.841 5.036 4.562 5.036s4.811-2.26 4.811-5.036c0-2.777-2.09-5.03599-4.81-5.03599-2.722 0-4.563 2.25999-4.563 5.03599zm-15.572-5.77799v-1.595c0-.108.087-.196.195-.196h2.511c.109 0 .196.088.196.196v14.92599c0 .0258-.0051.0512-.0149.075-.0099.0238-.0243.0454-.0425.0636s-.0398.0326-.0636.0425c-.0238.0098-.0492.0149-.075.0149h-2.51c-.0258.0001-.0514-.0048-.0753-.0146s-.0456-.0242-.0639-.0424c-.0183-.0183-.0329-.0399-.0428-.0638-.0099-.0238-.015-.0494-.015-.0752v-1.769c-1.204 1.37-2.91 2.215-5.005 2.215-4.32 0-7.834-3.587-7.834-7.995 0-4.40899 3.514-7.99499 7.834-7.99499 2.094 0 3.8.844 5.005 2.214zm-9.656 5.77999c0 2.777 2.09 5.036 4.811 5.036s4.562-2.26 4.562-5.036-1.84-5.03499-4.562-5.03499c-2.721 0-4.81 2.25999-4.81 5.03599zm52.205-7.37599v1.596c-1.204-1.37-2.911-2.214-5.005-2.214-4.32 0-7.834 3.586-7.834 7.99499 0 4.408 3.514 7.995 7.834 7.995 2.094 0 3.801-.845 5.005-2.215v1.77c0 .108.088.195.196.195h2.511c.052 0 .102-.0206.139-.0574.036-.0368.057-.0866.057-.1386v-14.92499c0-.05198-.021-.10183-.057-.13859-.037-.03676-.087-.05741-.139-.05741h-2.511c-.052 0-.102.02065-.139.05741-.036.03676-.057.08661-.057.13859zm-4.844 12.41199c-2.722 0-4.811-2.259-4.811-5.035 0-2.777 2.089-5.03599 4.811-5.03599 2.721 0 4.562 2.25899 4.562 5.03499 0 2.777-1.841 5.036-4.562 5.036zm22.522-18.010988v7.194998c-1.204-1.37-2.911-2.214-5.005-2.214-4.32 0-7.834 3.586-7.834 7.99499 0 4.408 3.514 7.994 7.834 7.994 2.094 0 3.801-.844 5.005-2.214v1.769c0 .108.088.196.196.196h2.511c.052 0 .102-.0206.139-.0574.036-.0368.057-.0866.057-.1386v-20.524988c0-.051983-.021-.101836-.057-.138593-.037-.0367574-.087-.0574073-.139-.0574073h-2.511c-.052 0-.102.0206499-.139.0574073-.036.036757-.057.08661-.057.138593zm-4.844 18.010988c-2.721 0-4.811-2.259-4.811-5.035 0-2.777 2.09-5.03599 4.811-5.03599s4.562 2.25899 4.562 5.03499c0 2.777-1.841 5.036-4.562 5.036zm-73.429 2.509v-14.92099c0-.108.088-.196.196-.196h2.511c.108 0 .196.088.196.196v14.91999c0 .052-.0206.1018-.0574.1386-.0367.0368-.0866.0574-.1386.0574h-2.511c-.0518 0-.1015-.0205-.1382-.057-.0368-.0366-.0575-.0862-.0578-.138z" fill-rule="evenodd"/></g></svg>