<svg fill="none" height="431" viewBox="0 0 648 431" width="648" xmlns="http://www.w3.org/2000/svg" xmlns:xlink="http://www.w3.org/1999/xlink"><filter id="a" color-interpolation-filters="sRGB" filterUnits="userSpaceOnUse" height="96.0059" width="98.9236" x="407.884" y="42.0274"><feFlood flood-opacity="0" result="BackgroundImageFix"/><feColorMatrix in="SourceAlpha" type="matrix" values="0 0 0 0 0 0 0 0 0 0 0 0 0 0 0 0 0 0 127 0"/><feOffset dx="7.37933" dy="4.92407"/><feGaussianBlur stdDeviation="18.4483"/><feColorMatrix type="matrix" values="0 0 0 0 0.231373 0 0 0 0 0.25098 0 0 0 0 0.270588 0 0 0 0.08 0"/><feBlend in2="BackgroundImageFix" mode="normal" result="effect1_dropShadow"/><feBlend in="SourceGraphic" in2="effect1_dropShadow" mode="normal" result="shape"/></filter><filter id="b" color-interpolation-filters="sRGB" filterUnits="userSpaceOnUse" height="95.108" width="98.9236" x="177.884" y="308.027"><feFlood flood-opacity="0" result="BackgroundImageFix"/><feColorMatrix in="SourceAlpha" type="matrix" values="0 0 0 0 0 0 0 0 0 0 0 0 0 0 0 0 0 0 127 0"/><feOffset dx="7.37933" dy="4.92407"/><feGaussianBlur stdDeviation="18.4483"/><feColorMatrix type="matrix" values="0 0 0 0 0.231373 0 0 0 0 0.25098 0 0 0 0 0.270588 0 0 0 0.08 0"/><feBlend in2="BackgroundImageFix" mode="normal" result="effect1_dropShadow"/><feBlend in="SourceGraphic" in2="effect1_dropShadow" mode="normal" result="shape"/></filter><filter id="c" color-interpolation-filters="sRGB" filterUnits="userSpaceOnUse" height="96.9674" width="99.8901" x="421.884" y="243.027"><feFlood flood-opacity="0" result="BackgroundImageFix"/><feColorMatrix in="SourceAlpha" type="matrix" values="0 0 0 0 0 0 0 0 0 0 0 0 0 0 0 0 0 0 127 0"/><feOffset dx="7.37933" dy="4.92407"/><feGaussianBlur stdDeviation="18.4483"/><feColorMatrix type="matrix" values="0 0 0 0 0.231373 0 0 0 0 0.25098 0 0 0 0 0.270588 0 0 0 0.08 0"/><feBlend in2="BackgroundImageFix" mode="normal" result="effect1_dropShadow"/><feBlend in="SourceGraphic" in2="effect1_dropShadow" mode="normal" result="shape"/></filter><filter id="d" color-interpolation-filters="sRGB" filterUnits="userSpaceOnUse" height="96.9674" width="99.8901" x="144.884" y="18.0274"><feFlood flood-opacity="0" result="BackgroundImageFix"/><feColorMatrix in="SourceAlpha" type="matrix" values="0 0 0 0 0 0 0 0 0 0 0 0 0 0 0 0 0 0 127 0"/><feOffset dx="7.37933" dy="4.92407"/><feGaussianBlur stdDeviation="18.4483"/><feColorMatrix type="matrix" values="0 0 0 0 0.231373 0 0 0 0 0.25098 0 0 0 0 0.270588 0 0 0 0.08 0"/><feBlend in2="BackgroundImageFix" mode="normal" result="effect1_dropShadow"/><feBlend in="SourceGraphic" in2="effect1_dropShadow" mode="normal" result="shape"/></filter><filter id="e" color-interpolation-filters="sRGB" filterUnits="userSpaceOnUse" height="166.497" width="384.678" x="89.4826" y="204.235"><feFlood flood-opacity="0" result="BackgroundImageFix"/><feColorMatrix in="SourceAlpha" type="matrix" values="0 0 0 0 0 0 0 0 0 0 0 0 0 0 0 0 0 0 127 0"/><feOffset dx="7.37933" dy="4.92407"/><feGaussianBlur stdDeviation="18.4483"/><feColorMatrix type="matrix" values="0 0 0 0 0.231373 0 0 0 0 0.25098 0 0 0 0 0.270588 0 0 0 0.05 0"/><feBlend in2="BackgroundImageFix" mode="normal" result="effect1_dropShadow"/><feBlend in="SourceGraphic" in2="effect1_dropShadow" mode="normal" result="shape"/></filter><filter id="f" color-interpolation-filters="sRGB" filterUnits="userSpaceOnUse" height="163.585" width="457.379" x="115.483" y="97.0274"><feFlood flood-opacity="0" result="BackgroundImageFix"/><feColorMatrix in="SourceAlpha" type="matrix" values="0 0 0 0 0 0 0 0 0 0 0 0 0 0 0 0 0 0 127 0"/><feOffset dx="7.37933" dy="4.92407"/><feGaussianBlur stdDeviation="18.4483"/><feColorMatrix type="matrix" values="0 0 0 0 0.231373 0 0 0 0 0.25098 0 0 0 0 0.270588 0 0 0 0.05 0"/><feBlend in2="BackgroundImageFix" mode="normal" result="effect1_dropShadow"/><feBlend in="SourceGraphic" in2="effect1_dropShadow" mode="normal" result="shape"/></filter><clipPath id="g"><path d="m0 0h648v431h-648z"/></clipPath><mask id="h" height="386" maskUnits="userSpaceOnUse" width="399" x="119" y="25"><ellipse cx="318.109" cy="217.827" fill="#6cbbf7" rx="199.109" ry="192.827"/></mask><g clip-path="url(#g)"><ellipse cx="318.109" cy="217.827" fill="#6cbbf7" rx="199.109" ry="192.827"/><g fill="#dcf0e2" mask="url(#h)"><path d="m268.241 192.421c39.465-11.782 15.146-15.785 43.192-39.633 28.046-23.849-3.106-63.482-9.556-75.8924-6.45-12.4103-25.801-5.719-39.274-9.0933-13.474-3.3742-26.709-28.3665-26.709-28.3665s-.047-.0572-.095-.1144c-55.424 25.4498-97.947 75.1486-114.574 135.8846l8.696 8.75c0 .058 48.161 35.401 138.32 8.465z" opacity=".4"/><path d="m390.411 59.5669c-7.023 15.4415-10.368 19.502-5.351 30.8829 5.065 11.4382 11.802 19.1592 8.983 28.5382s-14.047 5.376-11.515 15.785c2.532 10.408 11.515 12.41 11.515 12.41s44.338-2.345 65.361 1.315c21.023 3.718 17.392 31.226 27.234 27.566 7.167-2.688 25.514 7.492 34.926 6.634-14.333-60.908-54.515-111.6358-108.075-139.2589-8.075 2.2877-18.873 6.9773-23.078 16.1278z" opacity=".4"/><path d="m297.53 23.7656s21.405 28.5953 34.878 28.5953c13.474 0 19.781.2287 28.476-4.4609 8.696-4.6896 5.877-8.0639 7.024-10.4087.526-1.1438 3.249-5.2615 6.259-9.3793-17.105-4.6896-35.117-7.206-53.656-7.206-6.163 0-12.279.286-18.299.8007-7.931 1.9445-4.682 2.0589-4.682 2.0589z" opacity=".4"/><path d="m354.797 215.891c-24.368-9.254 10.154-55.631 30.461-77.664l115.859-9.363c7.978 19.462 23.933 62.792 23.933 80.417 0 22.032-29.916 22.583-37.532 18.177-7.615-4.407-48.41-18.177-56.569-14.321s-45.691 14.321-76.152 2.754z" opacity=".4"/><path d="m373.316 243.571c-39.273 11.724-15.072 15.708-42.982 39.44-27.909 23.732 3.091 63.173 9.51 75.522 6.418 12.35 25.675 5.692 39.083 9.05 13.408 3.357 26.578 28.228 26.578 28.228s.048.057.095.114c55.154-25.326 97.47-74.783 114.016-135.224l-8.653-8.707c0-.057-47.927-35.229-137.647-8.423z" opacity=".4"/><path d="m251.552 378.459c7.19-15.836 10.614-20.001 5.478-31.673-5.185-11.731-12.081-19.65-9.195-29.269 2.885-9.619 14.38-5.513 11.787-16.189-2.592-10.675-11.787-12.728-11.787-12.728s1.614-91.437-19.907-95.19c-21.522-3.813-60.471-8.838-70.547-5.085-4.705 1.768-22.054 11.242-35.637 21.467-10.58 1.695-5.918 36.154-4.455 42.384 14.674 62.467 55.809 114.494 110.639 142.824 8.266-2.346 19.32-7.156 23.624-16.541z" opacity=".4"/><path d="m344.17 411.405s-21.301-28.456-34.709-28.456-19.684-.228-28.338 4.439c-8.653 4.667-5.848 8.025-6.989 10.358-.523 1.138-3.233 5.236-6.229 9.334 17.022 4.666 34.947 7.171 53.395 7.171 6.133 0 12.219-.285 18.21-.797 7.893-1.935 4.66-2.049 4.66-2.049z" opacity=".4"/></g><g stroke-width="2"><circle cx="500.901" cy="226.5" fill="#e7ffe4" r="3.5" stroke="#6ecb64"/><circle cx="463.665" cy="306" fill="#fee3cf" r="3" stroke="#f48024"/><circle cx="448.901" cy="105.5" fill="#e7ffe4" r="3.5" stroke="#6ecb64"/><circle cx="188.401" cy="80" fill="#fee3cf" r="3" stroke="#f48024"/><circle cx="152.901" cy="228.5" fill="#fee3cf" r="3.5" stroke="#f48024"/></g><g filter="url(#a)"><path d="m462.532 76.2049c0-1.2178-.987-2.2049-2.205-2.2049h-20.721c-1.217 0-2.205.9871-2.205 2.2049v14.2547c0 1.2177.988 2.2048 2.205 2.2048h5.191c.615 0 1.203.2575 1.62.7101l1.963 2.1281c.852.9234 2.302.9498 3.186.0579l2.226-2.2439c.414-.4174.977-.6522 1.565-.6522h4.97c1.218 0 2.205-.9871 2.205-2.2048z" fill="#fff"/><path d="m461.532 76.2049c0-.6655-.54-1.2049-1.205-1.2049h-20.721c-.665 0-1.205.5394-1.205 1.2049v14.2547c0 .6654.54 1.2048 1.205 1.2048h5.191c.894 0 1.749.3742 2.355 1.0321l1.963 2.1281c.465.5047 1.258.5191 1.741.0317l2.226-2.2439c.602-.6067 1.421-.948 2.275-.948h4.97c.665 0 1.205-.5394 1.205-1.2048z" stroke="#c8ccd0" stroke-width="2"/></g><path d="m457.158 80.318-1.627-1.5966-7.608 7.4622-2.989-2.9328-1.628 1.5967 4.617 4.5294z" fill="#6ecb64"/><g filter="url(#b)"><path d="m232.532 342.205c0-1.218-.987-2.205-2.205-2.205h-20.721c-1.217 0-2.205.987-2.205 2.205v13.477c0 1.218.988 2.205 2.205 2.205h5.218c.6 0 1.173.244 1.589.676l1.998 2.076c.845.878 2.244.904 3.121.057l2.266-2.19c.411-.397.96-.619 1.532-.619h4.997c1.218 0 2.205-.987 2.205-2.205z" fill="#fff"/><path d="m231.532 342.205c0-.666-.54-1.205-1.205-1.205h-20.721c-.665 0-1.205.539-1.205 1.205v13.477c0 .665.54 1.205 1.205 1.205h5.218c.872 0 1.705.354 2.31.982l1.997 2.076c.463.481 1.227.494 1.706.031l2.266-2.189c.598-.578 1.396-.9 2.227-.9h4.997c.665 0 1.205-.54 1.205-1.205z" stroke="#d6d9dc" stroke-width="2"/></g><path d="m226.84 346.037-1.628-1.596-7.607 7.462-2.99-2.933-1.628 1.597 4.618 4.529z" fill="#6ecb64"/><path d="m460.78 314.283c-71.611 79.486-152.591 68.742-235.171 58.62" stroke="#cfeafe" stroke-dasharray="2 6" stroke-linecap="round" stroke-width="1.5"/><circle cx="219.901" cy="369.5" fill="#e7ffe4" r="3.5" stroke="#6ecb64" stroke-width="2"/><path d="m195.665 78.1315c102.202-32.8845 172.94-22.3826 244 23.8685" stroke="#cfeafe" stroke-dasharray="2 6" stroke-linecap="round" stroke-width="1.5"/><path d="m373.592 404.446c-16.309 4.702-54.434-74.919-85.154-177.84s-42.402-190.1664-26.093-194.8689" stroke="#cfeafe" stroke-dasharray="2 6" stroke-linecap="round" stroke-width="1.5"/><path d="m145.692 297.782c-11.758-53.071 63.12-114.795 167.246-137.866s198.069 1.249 209.827 54.319" stroke="#cfeafe" stroke-dasharray="2 6" stroke-linecap="round" stroke-width="1.5"/><path d="m284.545 410.623c-20.744-5.463-14.638-93.973 13.639-197.693 28.276-103.719 68.015-183.3715 88.759-177.9085" stroke="#cfeafe" stroke-dasharray="2 6" stroke-linecap="round" stroke-width="1.5"/><path d="m165.908 95.9626c3.269-6.0132 83.762 31.4374 179.786 83.6474 96.023 52.21 171.215 99.41 167.946 105.423" stroke="#cfeafe" stroke-dasharray="2 6" stroke-linecap="round" stroke-width="1.5"/><g filter="url(#c)"><path d="m477.498 277.205c0-1.218-.987-2.205-2.205-2.205h-21.687c-1.217 0-2.205.987-2.205 2.205v15.032c0 1.218.988 2.205 2.205 2.205h5.51c.617 0 1.206.259 1.623.713l2.121 2.307c.852.926 2.306.953 3.191.057l2.396-2.422c.414-.419.979-.655 1.568-.655h5.278c1.218 0 2.205-.987 2.205-2.205z" fill="#fff"/><path d="m476.498 277.205c0-.666-.539-1.205-1.205-1.205h-21.687c-.665 0-1.205.539-1.205 1.205v15.032c0 .666.54 1.205 1.205 1.205h5.51c.897 0 1.752.376 2.359 1.036l2.121 2.307c.466.506 1.26.521 1.744.031l2.396-2.422c.602-.609 1.422-.952 2.279-.952h5.278c.666 0 1.205-.539 1.205-1.205z" stroke="#c8ccd0" stroke-width="2"/></g><path d="m465.198 288.202h-1.808c-.004-.263-.007-.424-.007-.482 0-.594.097-1.084.291-1.467.194-.384.581-.816 1.163-1.295.581-.48.929-.794 1.042-.943.175-.235.262-.494.262-.777 0-.393-.156-.729-.468-1.007-.307-.283-.723-.425-1.247-.425-.506 0-.929.146-1.27.439-.34.293-.574.739-.701 1.338l-1.83-.23c.052-.859.411-1.588 1.078-2.187.671-.6 1.55-.9 2.637-.9 1.144 0 2.054.305 2.73.914.676.605 1.014 1.31 1.014 2.115 0 .447-.125.869-.376 1.267-.245.398-.775.94-1.588 1.626-.421.355-.683.64-.787.856-.099.216-.144.602-.135 1.158zm-1.808 2.72v-2.022h1.993v2.022z" fill="#f2720c"/><g filter="url(#d)"><path d="m200.498 52.2049c0-1.2177-.987-2.2049-2.205-2.2049h-21.687c-1.217 0-2.205.9871-2.205 2.2049v15.0323c0 1.2177.988 2.2049 2.205 2.2049h5.51c.617 0 1.206.2584 1.623.7126l2.121 2.3068c.852.9267 2.306.9532 3.191.058l2.396-2.4228c.414-.4189.979-.6546 1.568-.6546h5.278c1.218 0 2.205-.9872 2.205-2.2049z" fill="#fff"/><path d="m199.498 52.2049c0-.6655-.539-1.2049-1.205-1.2049h-21.687c-.665 0-1.205.5394-1.205 1.2049v15.0323c0 .6655.54 1.2049 1.205 1.2049h5.51c.897 0 1.752.3756 2.359 1.0357l2.121 2.3069c.466.5064 1.26.5208 1.744.0317l2.396-2.4228c.602-.6089 1.422-.9515 2.279-.9515h5.278c.666 0 1.205-.5394 1.205-1.2049z" stroke="#c8ccd0" stroke-width="2"/></g><path d="m188.198 63.2024h-1.808c-.004-.2638-.007-.4245-.007-.4821 0-.5948.097-1.084.291-1.4677.194-.3838.581-.8154 1.163-1.2951.581-.4797.929-.7938 1.042-.9425.175-.235.262-.4941.262-.7771 0-.3933-.156-.729-.468-1.0072-.307-.283-.723-.4245-1.247-.4245-.506 0-.929.1463-1.27.4389-.34.2925-.574.7386-.701 1.3382l-1.83-.2302c.052-.8586.411-1.5877 1.078-2.1873.671-.5995 1.55-.8993 2.637-.8993 1.144 0 2.054.3046 2.73.9137.676.6044 1.014 1.3095 1.014 2.1153 0 .4461-.125.8682-.376 1.2663-.245.3981-.775.9401-1.588 1.626-.421.355-.683.6404-.787.8562-.099.2158-.144.602-.135 1.1584zm-1.808 2.7196v-2.0217h1.993v2.0217z" fill="#f2720c"/><g filter="url(#e)"><path d="m429.885 322.297c0 3.653-2.961 6.614-6.615 6.614h-297.656c-3.653 0-6.614-2.961-6.614-6.614v-63.941c0-3.653 2.961-6.615 6.614-6.615h7.973c1.936 0 3.776-.848 5.032-2.322l9.288-10.889c2.53-2.966 7.064-3.112 9.779-.314l11.179 11.518c1.246 1.283 2.958 2.007 4.747 2.007h249.658c3.653 0 6.615 2.962 6.615 6.615z" fill="#fff"/><path d="m428.885 322.297c0 3.101-2.514 5.614-5.615 5.614h-297.656c-3.1 0-5.614-2.513-5.614-5.614v-63.941c0-3.101 2.514-5.615 5.614-5.615h7.973c2.229 0 4.346-.977 5.793-2.673l9.288-10.889c2.148-2.518 5.996-2.642 8.301-.267l11.179 11.518c1.434 1.477 3.405 2.311 5.464 2.311h249.658c3.101 0 5.615 2.514 5.615 5.615z" stroke="#c8ccd0" stroke-width="2"/></g><rect fill="#eff0f1" height="20.9462" rx="3.54963" width="223.793" x="180.736" y="264.97"/><rect fill="#eff0f1" height="20.9462" rx="3.54963" width="144.418" x="180.736" y="295.838"/><path d="m163.328 283.518-2.198-2.199-10.277 10.277-4.039-4.039-2.199 2.199 6.238 6.238z" fill="#6ecb64"/><path d="m161.77 302.967h-15.855c-.982 0-1.474 1.188-.78 1.882l8.456 8.456c.451.451 1.19.427 1.609-.053l7.4-8.456c.623-.713.117-1.829-.83-1.829z" fill="#eff0f1"/><path d="m145.683 275.039h15.855c.982 0 1.474-1.187.779-1.882l-8.456-8.456c-.451-.451-1.189-.426-1.609.054l-7.399 8.456c-.624.713-.117 1.828.83 1.828z" fill="#f48024"/><path d="m346.178 312.453h-12.126c-1.201 0-2.205-1.004-2.205-2.205v-9.922c0-1.212.992-2.205 2.205-2.205h13.229c1.201 0 2.205 1.004 2.205 2.205v15.434zm-1.124-3.307-3.484-8.82h-1.852l-3.373 8.82h1.852l.716-1.974h3.473l.761 1.974zm-3.23-3.44h-2.37l1.168-3.219z" fill="#f48024"/><path clip-rule="evenodd" d="m245.954 164.149 4.667-2 4.666 2v3.347c0 3.113-3.54 5.32-4.666 5.32-1.127 0-4.667-2.207-4.667-5.32zm4.093 3.467-.76 1.867h2.667l-.76-1.867c-.033-.153.04-.307.167-.393.373-.24.593-.634.593-1.074 0-.726-.627-1.333-1.347-1.333-.726 0-1.32.607-1.32 1.333 0 .44.22.834.594 1.074.131.084.197.24.166.393z" fill="#6a737c" fill-rule="evenodd"/><g filter="url(#f)"><path d="m145 135.615c0-3.654 2.961-6.615 6.615-6.615h370.357c3.653 0 6.614 2.961 6.614 6.615v63.943c0 3.653-2.961 6.614-6.614 6.614h-5.23c-1.937 0-3.776.849-5.033 2.322l-6.803 7.976c-2.53 2.966-7.063 3.112-9.779.314l-8.351-8.604c-1.245-1.283-2.958-2.008-4.746-2.008h-330.415c-3.654 0-6.615-2.961-6.615-6.614z" fill="#fff"/><path d="m146 135.615c0-3.101 2.514-5.615 5.615-5.615h370.357c3.1 0 5.614 2.514 5.614 5.615v63.943c0 3.101-2.514 5.614-5.614 5.614h-5.23c-2.23 0-4.347.977-5.794 2.674l-6.802 7.975c-2.148 2.518-5.996 2.642-8.301.267l-8.351-8.604c-1.434-1.478-3.405-2.312-5.464-2.312h-330.415c-3.101 0-5.615-2.513-5.615-5.614z" stroke="#c8ccd0" stroke-width="2"/></g><rect fill="#48a868" fill-opacity=".2" height="39.1034" rx="6" width="39.1034" x="186.897" y="149"/><rect fill="#6ecb64" height="15.8276" rx="3" width="12.1034" x="200.862" y="155.517"/><rect fill="#6ecb64" height="25.1379" rx="3" transform="matrix(0 1 -1 0 395.483 -43.483)" width="6.51724" x="219.483" y="176"/><rect fill="#eff0f1" height="15.8276" rx="3" width="12.1034" x="158.966" y="155.517"/><rect fill="#eff0f1" height="25.1379" rx="3" transform="matrix(0 1 -1 0 353.586 -1.586)" width="6.51724" x="177.586" y="176"/><rect fill="#eff0f1" height="15.8276" rx="3" width="12.1034" x="241.828" y="155.517"/><rect fill="#eff0f1" height="25.1379" rx="3" transform="matrix(0 1 -1 0 436.448 -84.448)" width="6.51724" x="260.448" y="176"/><rect fill="#eff0f1" height="16" rx="3" width="218" x="271" y="151.034"/><rect fill="#cfeafe" height="15.8276" rx="3" width="27" x="270.69" y="173.207"/><rect fill="#cfeafe" height="15.8276" rx="3" width="27" x="305.138" y="173.207"/><rect fill="#cfeafe" height="15.8276" rx="3" width="27" x="339.586" y="173.207"/><path clip-rule="evenodd" d="m497.862 167 3-3h11c1.089 0 2-.911 2-2v-9c0-1.089-.911-2-2-2h-12c-1.1 0-2 .9-2 2zm7.96-4.94c-.57-.02-1.03-.43-1.01-1.06s.5-1.04 1.08-1.02c.6.02 1.05.45 1.03 1.08s-.48 1.02-1.1 1zm.92-3.678c-.046.214-.073.431-.08.65 0 .04-.03.14-.16.14h-1.4c-.14 0-.16-.09-.16-.13-.013-.498.112-.989.36-1.42.209-.362.581-.654 1.06-.93.411-.237.776-.712.783-1.196.004-.272-.09-.535-.263-.744-.22-.26-.46-.4-.92-.4-.45 0-.83.23-1.02.52-.167.264-.164.552-.161.828.001.038.001.075.001.112h-1.72c0-1.17.31-1.92.98-2.36.558-.311 1.191-.463 1.83-.44.88 0 1.58.16 2.2.62.58.42.88 1.02.88 1.82 0 .5-.17.9-.43 1.24-.15.2-.44.47-.86.79l-.48.3c-.206.148-.361.358-.44.6z" fill="#6ecb64" fill-rule="evenodd"/></g></svg>