<svg width="184" height="222" viewBox="0 0 184 222" fill="#000000" xmlns="http://www.w3.org/2000/svg">
<path opacity="0.25" fill-rule="evenodd" clip-rule="evenodd" d="M1.02694 0C0.459776 0 0 0.459776 0 1.02694V7.09071C0 7.65787 0.45978 8.11765 1.02694 8.11765H66.6201C67.1873 8.11765 67.6471 7.65787 67.6471 7.09071V1.02694C67.6471 0.459776 67.1873 0 66.6201 0H1.02694ZM76.7917 0C76.2246 0 75.7648 0.459776 75.7648 1.02694V7.09071C75.7648 7.65787 76.2246 8.11765 76.7917 8.11765H99.0908C99.658 8.11765 100.118 7.65787 100.118 7.09071V1.02694C100.118 0.459776 99.658 0 99.0908 0H76.7917ZM0 55.1456C0 54.5785 0.459776 54.1187 1.02694 54.1187H66.6201C67.1873 54.1187 67.6471 54.5785 67.6471 55.1456V61.2094C67.6471 61.7766 67.1873 62.2363 66.6201 62.2363H1.02694C0.45978 62.2363 0 61.7766 0 61.2094V55.1456ZM1.02694 70.3509C0.459776 70.3509 0 70.8107 0 71.3778V77.4416C0 78.0088 0.45978 78.4686 1.02694 78.4686H66.6201C67.1873 78.4686 67.6471 78.0088 67.6471 77.4416V71.3778C67.6471 70.8107 67.1873 70.3509 66.6201 70.3509H1.02694ZM0 87.6171C0 87.0499 0.459776 86.5902 1.02694 86.5902H66.6201C67.1873 86.5902 67.6471 87.0499 67.6471 87.6171V93.6809C67.6471 94.248 67.1873 94.7078 66.6201 94.7078H1.02694C0.45978 94.7078 0 94.248 0 93.6809V87.6171ZM1.02694 108.235C0.459776 108.235 0 108.695 0 109.262V115.326C0 115.893 0.459781 116.353 1.02694 116.353H126.15C126.717 116.353 127.176 115.893 127.176 115.326V109.262C127.176 108.695 126.717 108.235 126.15 108.235H1.02694ZM48.7078 125.498C48.7078 124.93 49.1675 124.471 49.7347 124.471H82.8573C83.4245 124.471 83.8842 124.93 83.8842 125.498V131.561C83.8842 132.129 83.4245 132.588 82.8573 132.588H49.7347C49.1675 132.588 48.7078 132.129 48.7078 131.561V125.498ZM1.02694 124.471C0.459776 124.471 0 124.93 0 125.498V131.561C0 132.129 0.459776 132.588 1.02694 132.588H42.2672C42.8344 132.588 43.2941 132.129 43.2941 131.561V125.498C43.2941 124.93 42.8344 124.471 42.2672 124.471H1.02694ZM0 141.732C0 141.165 0.459776 140.705 1.02694 140.705H82.8554C83.4226 140.705 83.8824 141.165 83.8824 141.732V147.796C83.8824 148.363 83.4226 148.823 82.8554 148.823H1.02694C0.459778 148.823 0 148.363 0 147.796V141.732ZM90.3213 140.705C89.7542 140.705 89.2944 141.165 89.2944 141.732V147.796C89.2944 148.363 89.7542 148.823 90.3213 148.823H172.15C172.717 148.823 173.177 148.363 173.177 147.796V141.732C173.177 141.165 172.717 140.705 172.15 140.705H90.3213ZM0 163.377C0 162.81 0.459776 162.35 1.02694 162.35H34.1495C34.7167 162.35 35.1765 162.81 35.1765 163.377V169.441C35.1765 170.008 34.7167 170.468 34.1495 170.468H1.02694C0.459776 170.468 0 170.008 0 169.441V163.377ZM41.6141 162.35C41.047 162.35 40.5872 162.81 40.5872 163.377V169.441C40.5872 170.008 41.047 170.468 41.6141 170.468H58.5014C59.0686 170.468 59.5284 170.008 59.5284 169.441V163.377C59.5284 162.81 59.0686 162.35 58.5014 162.35H41.6141ZM0 179.616C0 179.049 0.459776 178.589 1.02694 178.589H34.1495C34.7167 178.589 35.1765 179.049 35.1765 179.616V185.68C35.1765 186.247 34.7167 186.707 34.1495 186.707H1.02694C0.459776 186.707 0 186.247 0 185.68V179.616ZM1.02694 197.53C0.459776 197.53 0 197.989 0 198.557V204.62C0 205.187 0.459768 205.647 1.02693 205.647H182.973C183.54 205.647 184 205.187 184 204.62V198.557C184 197.989 183.54 197.53 182.973 197.53H1.02694ZM0 214.794C0 214.227 0.459776 213.767 1.02694 213.767H131.561C132.128 213.767 132.588 214.227 132.588 214.794V220.858C132.588 221.425 132.128 221.885 131.561 221.885H1.02693C0.459769 221.885 0 221.425 0 220.858V214.794ZM1.02694 16.236C0.459776 16.236 0 16.6958 0 17.2629V23.3267C0 23.8939 0.459774 24.3537 1.02694 24.3537H169.444C170.011 24.3537 170.471 23.8939 170.471 23.3267V17.2629C170.471 16.6958 170.011 16.236 169.444 16.236H1.02694ZM0 33.4992C0 32.9321 0.459776 32.4723 1.02694 32.4723H42.2672C42.8344 32.4723 43.2941 32.9321 43.2941 33.4992V39.563C43.2941 40.1302 42.8344 40.5899 42.2672 40.5899H1.02694C0.459776 40.5899 0 40.1302 0 39.563V33.4992ZM49.7347 32.4723C49.1675 32.4723 48.7078 32.9321 48.7078 33.4992V39.563C48.7078 40.1302 49.1675 40.5899 49.7347 40.5899H90.9749C91.5421 40.5899 92.0019 40.1302 92.0019 39.563V33.4992C92.0019 32.9321 91.5421 32.4723 90.9749 32.4723H49.7347Z" fill="url(#paint0_linear)"/>
<defs>
<linearGradient id="paint0_linear" x1="-87.097" y1="-25.7258" x2="256.094" y2="41.854" gradientUnits="userSpaceOnUse">
    <stop offset="0" stop-color="#2e3235"></stop>
    <stop offset=".25" stop-color="#5a6771">
        <animate attributeName="offset" dur="5s" values="0;1;0" repeatCount="indefinite" />
    </stop>
    <stop offset="1" stop-color="#2e3235"/> 
</linearGradient>
</defs>
</svg>
