<svg fill="none" height="431" viewBox="0 0 648 431" width="648" xmlns="http://www.w3.org/2000/svg" xmlns:xlink="http://www.w3.org/1999/xlink"><filter id="a" color-interpolation-filters="sRGB" filterUnits="userSpaceOnUse" height="80.0506" width="103.932" x="463.956" y="78.8783"><feFlood flood-opacity="0" result="BackgroundImageFix"/><feColorMatrix in="SourceAlpha" type="matrix" values="0 0 0 0 0 0 0 0 0 0 0 0 0 0 0 0 0 0 127 0"/><feOffset dx="5.2574" dy="3.50815"/><feGaussianBlur stdDeviation="13.1435"/><feColorMatrix type="matrix" values="0 0 0 0 0.231373 0 0 0 0 0.25098 0 0 0 0 0.270588 0 0 0 0.05 0"/><feBlend in2="BackgroundImageFix" mode="normal" result="effect1_dropShadow"/><feBlend in="SourceGraphic" in2="effect1_dropShadow" mode="normal" result="shape"/></filter><filter id="b" color-interpolation-filters="sRGB" filterUnits="userSpaceOnUse" height="58.275" width="58.275" x="470.329" y="94.8416"><feFlood flood-opacity="0" result="BackgroundImageFix"/><feColorMatrix in="SourceAlpha" type="matrix" values="0 0 0 0 0 0 0 0 0 0 0 0 0 0 0 0 0 0 127 0"/><feOffset dx="5.2574" dy="3.50815"/><feGaussianBlur stdDeviation="13.1435"/><feColorMatrix type="matrix" values="0 0 0 0 0.231373 0 0 0 0 0.25098 0 0 0 0 0.270588 0 0 0 0.05 0"/><feBlend in2="BackgroundImageFix" mode="normal" result="effect1_dropShadow"/><feBlend in="SourceGraphic" in2="effect1_dropShadow" mode="normal" result="shape"/></filter><filter id="c" color-interpolation-filters="sRGB" filterUnits="userSpaceOnUse" height="166.513" width="384.793" x="219.483" y="252.308"><feFlood flood-opacity="0" result="BackgroundImageFix"/><feColorMatrix in="SourceAlpha" type="matrix" values="0 0 0 0 0 0 0 0 0 0 0 0 0 0 0 0 0 0 127 0"/><feOffset dx="7.37933" dy="4.92407"/><feGaussianBlur stdDeviation="18.4483"/><feColorMatrix type="matrix" values="0 0 0 0 0.231373 0 0 0 0 0.25098 0 0 0 0 0.270588 0 0 0 0.05 0"/><feBlend in2="BackgroundImageFix" mode="normal" result="effect1_dropShadow"/><feBlend in="SourceGraphic" in2="effect1_dropShadow" mode="normal" result="shape"/></filter><filter id="d" color-interpolation-filters="sRGB" filterUnits="userSpaceOnUse" height="163.585" width="457.379" x="53.4827" y="148.027"><feFlood flood-opacity="0" result="BackgroundImageFix"/><feColorMatrix in="SourceAlpha" type="matrix" values="0 0 0 0 0 0 0 0 0 0 0 0 0 0 0 0 0 0 127 0"/><feOffset dx="7.37933" dy="4.92407"/><feGaussianBlur stdDeviation="18.4483"/><feColorMatrix type="matrix" values="0 0 0 0 0.231373 0 0 0 0 0.25098 0 0 0 0 0.270588 0 0 0 0.05 0"/><feBlend in2="BackgroundImageFix" mode="normal" result="effect1_dropShadow"/><feBlend in="SourceGraphic" in2="effect1_dropShadow" mode="normal" result="shape"/></filter><linearGradient id="e"><stop offset="0" stop-color="#ffb935"/><stop offset="1" stop-color="#ffd943"/></linearGradient><linearGradient id="f" gradientUnits="userSpaceOnUse" x1="102.017" x2="129.05" xlink:href="#e" y1="155.193" y2="155.193"/><linearGradient id="g" gradientUnits="userSpaceOnUse" x1="102.017" x2="129.05" xlink:href="#e" y1="128.933" y2="128.933"/><linearGradient id="h" gradientUnits="userSpaceOnUse" x1="118.237" x2="145.269" xlink:href="#e" y1="142.063" y2="142.063"/><mask id="i" fill="#fff"><path clip-rule="evenodd" d="m491.643 112.31 38.042-10.548c1.516-.421 3.087.467 3.507 1.984l3.047 10.985c.42 1.517-.468 3.087-1.985 3.508l-38.442 10.66c-.003 0-.005-.001-.006-.004 0-.002-.003-.003-.005-.003-4.637 1.073-9.29-1.523-10.516-5.946-1.227-4.423 1.424-9.045 5.952-10.514.002 0 .003-.003.003-.005-.001-.002 0-.005.003-.005l.375-.105c.005-.001.009-.002.013-.003s.008-.002.012-.004z" fill="#fff" fill-rule="evenodd"/></mask><path d="m223 257h47v71h-47z" fill="#0095ff"/><path d="m487 377h27v20h-27z" fill="#0095ff"/><path d="m353 257h79v140h-79z" fill="#cfeafe"/><path d="m418.697 323.653v72.809" stroke="#f2f9ff" stroke-width=".828385"/><path d="m270 127.485c0-1.372 1.113-2.485 2.485-2.485h78.03c1.372 0 2.485 1.113 2.485 2.485v269.515h-83z" fill="#6cbbf7"/><path clip-rule="evenodd" d="m277 135.657c0-.915.742-1.657 1.657-1.657h9.686c.915 0 1.657.742 1.657 1.657v9.686c0 .915-.742 1.657-1.657 1.657h-9.686c-.915 0-1.657-.742-1.657-1.657zm.029 117.597c0-.915.741-1.657 1.656-1.657h9.67c.915 0 1.656.742 1.656 1.657v10.089c0 .915-.741 1.657-1.656 1.657h-9.67c-.915 0-1.656-.742-1.656-1.657zm18.971.403c0-.915.742-1.657 1.657-1.657h9.686c.915 0 1.657.742 1.657 1.657v9.686c0 .915-.742 1.657-1.657 1.657h-9.686c-.915 0-1.657-.742-1.657-1.657zm19.657-1.657c-.915 0-1.657.742-1.657 1.657v9.686c0 .915.742 1.657 1.657 1.657h9.686c.915 0 1.657-.742 1.657-1.657v-9.686c0-.915-.742-1.657-1.657-1.657zm17.36 1.254c0-.915.742-1.657 1.657-1.657h9.669c.915 0 1.657.742 1.657 1.657v10.089c0 .915-.742 1.657-1.657 1.657h-9.669c-.915 0-1.657-.742-1.657-1.657zm-54.332 18.763c-.915 0-1.656.742-1.656 1.657v9.633c0 .915.741 1.657 1.656 1.657h9.633c.915 0 1.657-.742 1.657-1.657v-9.633c0-.915-.742-1.657-1.657-1.657zm17.315 1.64c0-.915.742-1.657 1.657-1.657h9.686c.915 0 1.657.742 1.657 1.657v9.686c0 .915-.742 1.657-1.657 1.657h-9.686c-.915 0-1.657-.742-1.657-1.657zm19.657-1.657c-.915 0-1.657.742-1.657 1.657v9.686c0 .915.742 1.657 1.657 1.657h9.686c.915 0 1.657-.742 1.657-1.657v-9.686c0-.915-.742-1.657-1.657-1.657zm17.343 1.657c0-.915.742-1.657 1.657-1.657h9.686c.915 0 1.657.742 1.657 1.657v9.686c0 .915-.742 1.657-1.657 1.657h-9.686c-.915 0-1.657-.742-1.657-1.657zm-35.343 17.343c-.915 0-1.657.742-1.657 1.657v9.686c0 .915.742 1.657 1.657 1.657h9.686c.915 0 1.657-.742 1.657-1.657v-9.686c0-.915-.742-1.657-1.657-1.657zm16.343 1.657c0-.915.742-1.657 1.657-1.657h9.686c.915 0 1.657.742 1.657 1.657v9.686c0 .915-.742 1.657-1.657 1.657h-9.686c-.915 0-1.657-.742-1.657-1.657zm20.657-1.657c-.915 0-1.657.742-1.657 1.657v9.686c0 .915.742 1.657 1.657 1.657h9.686c.915 0 1.657-.742 1.657-1.657v-9.686c0-.915-.742-1.657-1.657-1.657zm-37-157c-.915 0-1.657.742-1.657 1.657v9.686c0 .915.742 1.657 1.657 1.657h9.686c.915 0 1.657-.742 1.657-1.657v-9.686c0-.915-.742-1.657-1.657-1.657zm16.343 1.657c0-.915.742-1.657 1.657-1.657h9.686c.915 0 1.657.742 1.657 1.657v9.686c0 .915-.742 1.657-1.657 1.657h-9.686c-.915 0-1.657-.742-1.657-1.657zm20.657-1.657c-.915 0-1.657.742-1.657 1.657v9.686c0 .915.742 1.657 1.657 1.657h9.686c.915 0 1.657-.742 1.657-1.657v-9.686c0-.915-.742-1.657-1.657-1.657zm-57.628 21.657c0-.915.741-1.657 1.656-1.657h9.67c.915 0 1.656.742 1.656 1.657v8.686c0 .915-.741 1.657-1.656 1.657h-9.67c-.915 0-1.656-.742-1.656-1.657zm20.628-1.657c-.915 0-1.657.742-1.657 1.657v8.686c0 .915.742 1.657 1.657 1.657h9.686c.915 0 1.657-.742 1.657-1.657v-8.686c0-.915-.742-1.657-1.657-1.657zm16.343 1.657c0-.915.742-1.657 1.657-1.657h9.686c.915 0 1.657.742 1.657 1.657v8.686c0 .915-.742 1.657-1.657 1.657h-9.686c-.915 0-1.657-.742-1.657-1.657zm20.674-1.657c-.915 0-1.657.742-1.657 1.657v8.686c0 .915.742 1.657 1.657 1.657h9.669c.915 0 1.657-.742 1.657-1.657v-8.686c0-.915-.742-1.657-1.657-1.657zm-57.645 20.657c0-.915.741-1.657 1.656-1.657h9.67c.915 0 1.656.742 1.656 1.657v9.633c0 .915-.741 1.657-1.656 1.657h-9.67c-.915 0-1.656-.742-1.656-1.657zm20.628-1.657c-.915 0-1.657.742-1.657 1.657v9.686c0 .915.742 1.657 1.657 1.657h9.686c.915 0 1.657-.742 1.657-1.657v-9.686c0-.915-.742-1.657-1.657-1.657zm16.343 1.657c0-.915.742-1.657 1.657-1.657h9.686c.915 0 1.657.742 1.657 1.657v9.686c0 .915-.742 1.657-1.657 1.657h-9.686c-.915 0-1.657-.742-1.657-1.657zm20.674-1.657c-.915 0-1.657.742-1.657 1.657v9.633c0 .915.742 1.657 1.657 1.657h9.669c.915 0 1.657-.742 1.657-1.657v-9.633c0-.915-.742-1.657-1.657-1.657z" fill="#379eec" fill-rule="evenodd"/><path clip-rule="evenodd" d="m532.976 262.411c-1.906-4.921-6.685-8.411-12.28-8.411-5.565 0-10.324 3.453-12.25 8.334-1.001-.211-1.794-.326-2.315-.326-5.043 0-9.131 4.092-9.131 9.14s4.088 9.139 9.131 9.139c.963 0 2.791.12 5.129.272h.001c9.324.609 26.764 1.747 29.872-2.036 2.244-1.67 3.698-4.342 3.698-7.354 0-5.059-4.101-9.161-9.16-9.161-.938 0-1.843.141-2.695.403z" fill="#f2f9ff" fill-rule="evenodd"/><path clip-rule="evenodd" d="m142.976 276.411c-1.906-4.921-6.685-8.411-12.28-8.411-5.565 0-10.324 3.453-12.25 8.334-1.001-.211-1.794-.326-2.315-.326-5.043 0-9.131 4.092-9.131 9.14s4.088 9.139 9.131 9.139c.963 0 2.791.12 5.129.272 9.325.609 26.765 1.747 29.873-2.036 2.244-1.67 3.698-4.342 3.698-7.354 0-5.059-4.101-9.161-9.16-9.161-.938 0-1.843.141-2.695.403z" fill="#f2f9ff" fill-rule="evenodd"/><path clip-rule="evenodd" d="m403.976 169.411c-1.906-4.921-6.685-8.411-12.28-8.411-5.565 0-10.324 3.453-12.25 8.334-1.001-.211-1.794-.326-2.315-.326-5.043 0-9.131 4.092-9.131 9.14s4.088 9.14 9.131 9.14c.963 0 2.791.119 5.129.271h.001c9.324.609 26.764 1.748 29.872-2.036 2.244-1.669 3.698-4.342 3.698-7.354 0-5.059-4.101-9.161-9.16-9.161-.938 0-1.843.141-2.695.403z" fill="#f2f9ff" fill-rule="evenodd"/><path d="m130 347h11v50h-11z" fill="#0095ff"/><path clip-rule="evenodd" d="m429.976 217.884c-1.564-4.037-5.485-6.9-10.076-6.9-4.565 0-8.47 2.833-10.05 6.837-.822-.173-1.472-.267-1.9-.267-4.137 0-7.491 3.357-7.491 7.498 0 4.142 3.354 7.499 7.491 7.499.791 0 2.29.098 4.209.223 7.65.499 21.959 1.433 24.508-1.671 1.842-1.369 3.035-3.562 3.035-6.034 0-4.15-3.365-7.515-7.516-7.515-.769 0-1.511.116-2.21.33z" fill="#f2f9ff" fill-rule="evenodd"/><path d="m141 282.988h82v114.012h-82z" fill="#6cbbf7"/><path d="m164 270.485c0-1.372 1.113-2.485 2.485-2.485h29.03c1.372 0 2.485 1.113 2.485 2.485v12.503h-34z" fill="#379fef"/><path d="m216.343 288.984c.915 0 1.657.741 1.657 1.656v1.683c0 .915-.742 1.657-1.657 1.657h-68.686c-.915 0-1.657-.742-1.657-1.657v-1.683c0-.915.742-1.656 1.657-1.656z" fill="#83c7fb"/><path d="m216.343 297.977c.915 0 1.657.741 1.657 1.656v1.683c0 .915-.742 1.657-1.657 1.657h-68.686c-.915 0-1.657-.742-1.657-1.657v-1.683c0-.915.742-1.656 1.657-1.656z" fill="#83c7fb"/><path d="m216.343 306.97c.915 0 1.657.741 1.657 1.656v1.683c0 .915-.742 1.657-1.657 1.657h-68.686c-.915 0-1.657-.742-1.657-1.657v-1.683c0-.915.742-1.656 1.657-1.656z" fill="#83c7fb"/><path d="m216.343 315.963c.915 0 1.657.741 1.657 1.656v1.683c0 .915-.742 1.657-1.657 1.657h-68.686c-.915 0-1.657-.742-1.657-1.657v-1.683c0-.915.742-1.656 1.657-1.656z" fill="#83c7fb"/><path d="m216.343 324.955c.915 0 1.657.742 1.657 1.657v1.683c0 .915-.742 1.657-1.657 1.657h-68.686c-.915 0-1.657-.742-1.657-1.657v-1.683c0-.915.742-1.657 1.657-1.657z" fill="#83c7fb"/><path d="m216.343 333.948c.915 0 1.657.742 1.657 1.657v1.683c0 .915-.742 1.657-1.657 1.657h-68.686c-.915 0-1.657-.742-1.657-1.657v-1.683c0-.915.742-1.657 1.657-1.657z" fill="#83c7fb"/><path d="m216.343 342.941c.915 0 1.657.742 1.657 1.657v1.683c0 .915-.742 1.657-1.657 1.657h-68.686c-.915 0-1.657-.742-1.657-1.657v-1.683c0-.915.742-1.657 1.657-1.657z" fill="#83c7fb"/><path d="m216.343 351.934c.915 0 1.657.742 1.657 1.657v1.683c0 .915-.742 1.656-1.657 1.656h-68.686c-.915 0-1.657-.741-1.657-1.656v-1.683c0-.915.742-1.657 1.657-1.657z" fill="#83c7fb"/><path d="m216.343 360.927c.915 0 1.657.742 1.657 1.657v1.683c0 .915-.742 1.656-1.657 1.656h-68.686c-.915 0-1.657-.741-1.657-1.656v-1.683c0-.915.742-1.657 1.657-1.657z" fill="#83c7fb"/><path d="m216.343 369.92c.915 0 1.657.742 1.657 1.657v1.683c0 .915-.742 1.656-1.657 1.656h-68.686c-.915 0-1.657-.741-1.657-1.656v-1.683c0-.915.742-1.657 1.657-1.657z" fill="#83c7fb"/><path d="m216.343 378.913c.915 0 1.657.742 1.657 1.657v1.683c0 .915-.742 1.656-1.657 1.656h-68.686c-.915 0-1.657-.741-1.657-1.656v-1.683c0-.915.742-1.657 1.657-1.657z" fill="#83c7fb"/><path d="m311.5 96v30" stroke="#6cbbf7"/><circle cx="311.5" cy="95.5" fill="#6cbbf7" r="1.5"/><g fill="#cfeafe"><path d="m211 329.561c0-.915.742-1.657 1.657-1.657h80.686c.915 0 1.657.742 1.657 1.657v67.54h-84z"/><path d="m288 362c.552 0 1 .448 1 1 0 .552-.448 1-1 1h-71c-.552 0-1-.448-1-1 0-.552.448-1 1-1z" opacity=".5"/><path d="m288 366c.552 0 1 .448 1 1 0 .552-.448 1-1 1h-71c-.552 0-1-.448-1-1 0-.552.448-1 1-1z" opacity=".5"/><path d="m288 370c.552 0 1 .448 1 1 0 .552-.448 1-1 1h-71c-.552 0-1-.448-1-1 0-.552.448-1 1-1z" opacity=".5"/><path d="m288 374c.552 0 1 .448 1 1 0 .552-.448 1-1 1h-71c-.552 0-1-.448-1-1 0-.552.448-1 1-1z" opacity=".5"/><path d="m288 378c.552 0 1 .448 1 1 0 .552-.448 1-1 1h-71c-.552 0-1-.448-1-1 0-.552.448-1 1-1z" opacity=".5"/><path d="m288 382c.552 0 1 .448 1 1 0 .552-.448 1-1 1h-71c-.552 0-1-.448-1-1 0-.552.448-1 1-1z" opacity=".5"/><path d="m288 358c.552 0 1 .448 1 1 0 .552-.448 1-1 1h-71c-.552 0-1-.448-1-1 0-.552.448-1 1-1z" opacity=".5"/><path d="m288 342c.552 0 1 .448 1 1 0 .552-.448 1-1 1h-71c-.552 0-1-.448-1-1 0-.552.448-1 1-1z" opacity=".5"/><path d="m288 346c.552 0 1 .448 1 1 0 .552-.448 1-1 1h-71c-.552 0-1-.448-1-1 0-.552.448-1 1-1z" opacity=".5"/><path d="m288 350c.552 0 1 .448 1 1 0 .552-.448 1-1 1h-71c-.552 0-1-.448-1-1 0-.552.448-1 1-1z" opacity=".5"/><path d="m288 354c.552 0 1 .448 1 1 0 .552-.448 1-1 1h-71c-.552 0-1-.448-1-1 0-.552.448-1 1-1z" opacity=".5"/><path d="m288 338c.552 0 1 .448 1 1 0 .552-.448 1-1 1h-71c-.552 0-1-.448-1-1 0-.552.448-1 1-1z" opacity=".5"/></g><path clip-rule="evenodd" d="m432 254.485c0-1.372 1.113-2.485 2.485-2.485h31.03c1.372 0 2.485 1.113 2.485 2.485v9.562c.157-.031.319-.047.485-.047h16.03c1.372 0 2.485 1.113 2.485 2.485v130.515h-19-2-34-20v-130.515c0-1.372 1.113-2.485 2.485-2.485h15.03c1.372 0 2.485 1.113 2.485 2.485z" fill="#6cbbf7" fill-rule="evenodd"/><path d="m443.531 197.467v29.94" stroke="#6cbbf7" stroke-width=".828385"/><circle cx="443.531" cy="196.658" fill="#6cbbf7" r="1.61834"/><path d="m457.349 197.467v29.94" stroke="#6cbbf7" stroke-width=".828385"/><circle cx="457.349" cy="196.658" fill="#6cbbf7" r="1.61834"/><path d="m434.473 246.06c0-8.219 6.662-14.881 14.88-14.881 8.219 0 14.881 6.662 14.881 14.881v18.069h-29.761z" fill="#379fef"/><path d="m418 276.5c0-2.485 2.015-4.5 4.5-4.5 2.485 0 4.5 2.015 4.5 4.5v12.5h-9z" fill="#379fef"/><path d="m436 276.5c0-2.485 2.015-4.5 4.5-4.5 2.485 0 4.5 2.015 4.5 4.5v12.5h-9z" fill="#379fef"/><path d="m455 276c0-2.209 1.791-4 4-4 2.209 0 4 1.791 4 4v13h-8z" fill="#379fef"/><path d="m473 276c0-2.209 1.791-4 4-4 2.209 0 4 1.791 4 4v13h-8z" fill="#379fef"/><path clip-rule="evenodd" d="m552.804 238.396c-.996-2.572-3.495-4.396-6.419-4.396-2.908 0-5.396 1.805-6.402 4.356-.524-.11-.938-.17-1.211-.17-2.635 0-4.772 2.138-4.772 4.777 0 2.638 2.137 4.777 4.772 4.777.504 0 1.459.062 2.682.142 4.873.318 13.988.913 15.613-1.064 1.173-.873 1.933-2.27 1.933-3.845 0-2.644-2.144-4.787-4.788-4.787-.49 0-.963.073-1.408.21z" fill="#f2f9ff" fill-rule="evenodd" opacity=".5"/><path d="m290 254c63-38.5 113.5-26.5 156.5 0" stroke="#cfeafe" stroke-dasharray="2 6" stroke-linecap="round" stroke-width="1.5"/><path d="m320 140.5c117.5-29.5 185 39 157 135.5" stroke="#cfeafe" stroke-dasharray="2 6" stroke-linecap="round" stroke-width="1.5"/><path d="m187.091 373.293c-8.602-100.832 38.238-155.356 124.153-152.777" stroke="#cfeafe" stroke-dasharray="2 6" stroke-linecap="round" stroke-width="1.5"/><rect fill="#fff" height="25" rx="4.35873" stroke="#c8ccd0" stroke-width="2" width="24.0357" x="231" y="46"/><path clip-rule="evenodd" d="m246.213 53.2969 1.49 1.4899c.137.1373.137.3501 0 .4874l-.927.9338-1.977-1.9774.927-.9337c.137-.1374.35-.1374.487 0zm-8.019 7.5387 5.836-5.836 1.977 1.9774-5.836 5.836h-1.977z" fill="#0095ff" fill-rule="evenodd"/><rect fill="#fff" height="63.139" rx="3.31699" stroke="#c8ccd0" stroke-width="1.522" width="93.9865" x="322.761" y="48.1"/><rect fill="#fff" height="63.139" rx="3.31699" stroke="#c8ccd0" stroke-width="1.522" width="93.9865" x="327.507" y="42.761"/><rect fill="#cfeafe" height="10.0847" rx="2.283" width="62.8814" x="333.864" y="56.8305"/><rect fill="#f7cc46" height="4.74576" rx="2.283" width="19.5763" x="333.864" y="47.9322"/><rect fill="#eff0f1" height="5.33898" rx="2.283" width="78.3051" x="333.864" y="70.4746"/><rect fill="#eff0f1" height="5.33898" rx="2.283" width="78.3051" x="333.864" y="79.9661"/><rect fill="#cfeafe" height="10.0847" rx="2.283" width="17.2034" x="334.458" y="89.4576"/><rect fill="#cfeafe" height="10.0847" rx="2.283" width="17.2034" x="356.407" y="89.4576"/><rect fill="#cfeafe" height="10.0847" rx="2.283" width="17.2034" x="378.356" y="89.4576"/><rect fill="#fff" height="24.375" rx="3.54147" stroke="#c8ccd0" stroke-width="1.625" width="24.375" x="271.812" y="72.8125"/><g fill="#000" opacity=".4"><path d="m279.506 77.494c-.159-.1587-.416-.1587-.575 0-.158.1586-.158.4159 0 .5745l1.625 1.625c.159.1587.416.1587.575 0 .159-.1586.159-.4159 0-.5745z"/><path d="m280.844 81.4375h-1.625c-.225 0-.406.1819-.406.4063 0 .2243.181.4062.406.4062h1.625c.224 0 .406-.1819.406-.4062 0-.2244-.182-.4063-.406-.4063z"/><path d="m288.969 82.25h-1.625c-.225 0-.406-.1819-.406-.4062 0-.2244.181-.4063.406-.4063h1.625c.224 0 .406.1819.406.4063 0 .2243-.182.4062-.406.4062z"/><path d="m289.256 78.0685c.159-.1586.159-.4159 0-.5745-.159-.1587-.416-.1587-.575 0l-1.625 1.625c-.158.1586-.158.4159 0 .5745.159.1587.416.1587.575 0z"/></g><path d="m283.048 89.958c-.363.3037-.831.4533-1.302.417h-1.308v-4.875h1.624l.813-6.1994c0-.1625.187-.3006.406-.3006.22 0 .407.1381.407.3006v9.4494c-.048.4708-.278.9043-.64 1.208z" fill="#ffc166"/><path d="m285.14 89.958c.363.3037.83.4533 1.302.417h1.308v-4.875h-1.625l-.813-6.1994c0-.1625-.186-.3006-.406-.3006-.219 0-.406.1381-.406.3006v9.4494c.047.4708.277.9043.64 1.208z" fill="#ffc166"/><g fill="#07c" opacity=".7"><path d="m278.406 85.5c-.673 0-1.218.5457-1.218 1.2188v2.4374c0 .6731.545 1.2188 1.218 1.2188h1.219v-4.875z"/><path d="m289.781 85.5h-1.219v4.875h1.219c.673 0 1.219-.5457 1.219-1.2188v-2.4374c0-.6731-.546-1.2188-1.219-1.2188z"/></g><rect fill="#fff" height="24" rx="4.35873" stroke="#c8ccd0" stroke-width="2" width="100" x="371" y="121"/><rect fill="#eff0f1" height="13.8125" rx="3" width="69.7895" x="395.768" y="125.687"/><path d="m389 128v-1h-8v1h-3v3c0 1.6 1.4 3 3 3 0 0 .5 2 3 2v1h-2s-1 1.5-1 2h8c0-.4-1-2-1-2h-2v-1c2.5 0 3-2 3-2 1.6-.2 3-1.4 3-3v-3zm-8 4c-.5 0-1-.5-1-1v-1h1zm9-1c0 .5-.5 1-1 1v-2h1zm-5 2c-.53 0-1.039-.211-1.414-.586s-.586-.884-.586-1.414.211-1.039.586-1.414.884-.586 1.414-.586 1.039.211 1.414.586.586.884.586 1.414-.211 1.039-.586 1.414-.884.586-1.414.586z" fill="#f7cc46"/><rect fill="#fff" height="39.8325" rx="3.50403" stroke="#c8ccd0" stroke-width="1.60782" width="33.1289" x="216.851" y="101.804"/><rect fill="#fff" height="39.8325" rx="3.50403" stroke="#c8ccd0" stroke-width="1.60782" width="33.1289" x="213.804" y="105.46"/><rect fill="#eff0f1" height="4.82346" rx="2.41173" width="25.7251" x="217.823" y="119.49"/><rect fill="#eff0f1" height="4.82346" rx="2.41173" width="25.7251" x="217.823" y="128.333"/><rect fill="#eff0f1" height="4.01955" rx="2.00978" width="25.7251" x="217.823" y="137.176"/><circle cx="219.703" cy="111.36" fill="#0095ff" r="2.43766"/><g filter="url(#a)"><path clip-rule="evenodd" d="m491.643 112.31 38.042-10.548c1.516-.421 3.087.467 3.507 1.984l3.047 10.985c.42 1.517-.468 3.087-1.985 3.508l-38.442 10.66c-.003 0-.005-.001-.006-.004 0-.002-.003-.003-.005-.003-4.637 1.073-9.29-1.523-10.516-5.946-1.227-4.423 1.424-9.045 5.952-10.514.002 0 .003-.003.003-.005-.001-.002 0-.005.003-.005l.375-.105c.005-.001.009-.002.013-.003s.008-.002.012-.004z" fill="#fff" fill-rule="evenodd"/><path d="m491.643 112.31.379 1.374h.002zm-.025.007.381 1.373h.002zm4.183 16.575-.321-1.388zm-4.564-16.46-.44-1.355zm.787 1.252 38.042-10.549-.762-2.747-38.041 10.549zm39.795-9.557 3.046 10.985 2.747-.762-3.046-10.985zm2.054 12.738-38.442 10.66.762 2.747 38.442-10.66zm-38.393 10.639c-3.955.915-7.816-1.31-8.822-4.939l-2.747.762c1.447 5.217 6.891 8.184 12.211 6.954zm-8.822-4.939c-1.007-3.629 1.157-7.525 5.018-8.777l-.879-2.711c-5.194 1.685-8.332 7.032-6.886 12.25zm4.965-8.77.376-.105-.761-2.746-.376.104zm.378-.105c.004-.001.007-.002.011-.003l-.762-2.746c-.005.001-.009.002-.014.004zm.011-.003c.003-.001.007-.002.01-.003l-.758-2.747c-.004.001-.009.003-.014.004zm.601-1.641c.209.756-.234 1.539-.99 1.749l-.761-2.747c-.761.211-1.206.999-.995 1.76zm4.566 16.469c-.207-.747-.963-1.181-1.699-1.011l.642 2.777c-.732.169-1.483-.263-1.689-1.005zm-1.748-.99c.756-.209 1.539.234 1.748.99l-2.746.761c.211.761.999 1.207 1.76.996zm39.434-12.413c.211.758-.234 1.543-.992 1.753l.762 2.747c2.275-.631 3.607-2.987 2.977-5.262zm-43.189-1.324c.72-.233 1.144-.995.937-1.742l-2.746.762c-.206-.742.215-1.499.93-1.731zm38.39-10.653c.758-.211 1.543.234 1.753.992l2.747-.762c-.631-2.275-2.987-3.6074-5.262-2.977z" fill="#c8ccd0" mask="url(#i)"/></g><g filter="url(#b)"><circle cx="494.21" cy="120.471" fill="#fff" r="2.8498" transform="matrix(.96363605 -.26721819 .26721819 .96363605 -14.220615 136.442705)"/><circle cx="494.21" cy="120.471" r="2.13735" stroke="#addafc" stroke-width="1.4249" transform="matrix(.96363605 -.26721819 .26721819 .96363605 -14.220615 136.442705)"/></g><rect fill="#cfeafe" height="11.3992" rx="2.52893" transform="matrix(.96363605 -.26721819 .26721819 .96363605 -12.201751 137.248201)" width="31.3478" x="498.179" y="113.456"/><rect fill="#fff" height="18.5366" rx="3.36649" stroke="#c8ccd0" stroke-width="1.54471" width="77.2357" x="103.772" y="145.032"/><rect fill="#eff0f1" height="10.6682" rx="2.31707" width="53.9024" x="122.902" y="148.653"/><rect fill="url(#f)" height="10.813" rx=".508708" width="10.813" x="108.407" y="148.894"/><path d="m113.073 152.09c0 .908 2.772 1.271 2.772 1.271 0 1.31-.555 2.906-2.033 2.906s-2.032-1.596-2.032-2.906l1.663-.727" stroke="#fff" stroke-miterlimit="10" stroke-width=".497403"/><path d="m115.736 154.055.35-.375v-.946c0-1.036-.782-1.874-1.748-1.874h-1.048c-.966 0-1.747.838-1.747 1.874v.937l.349.374" stroke="#fff" stroke-miterlimit="10" stroke-width=".497403"/><path d="m115.367 157.004c0 .819-.7 1.474-1.554 1.474-.864 0-1.554-.664-1.554-1.474" stroke="#fff" stroke-miterlimit="10" stroke-width=".497403"/><path d="m114.888 155.898v.587c0 .299.501.532.501.532l1.002.533c1.01.355 1.845 1.074 1.845 2.157" stroke="#fff" stroke-miterlimit="10" stroke-width=".497403"/><path d="m112.737 155.898v.587c0 .299-.501.532-.501.532l-1.002.533c-1.01.355-1.845 1.074-1.845 2.157" stroke="#fff" stroke-miterlimit="10" stroke-width=".497403"/><rect fill="#fff" height="18.5366" rx="3.36649" stroke="#c8ccd0" stroke-width="1.54471" width="77.2357" x="103.772" y="118.772"/><rect fill="#eff0f1" height="10.6682" rx="2.31707" width="53.9024" x="122.902" y="122.393"/><rect fill="url(#g)" height="10.813" rx=".508708" width="10.813" x="108.407" y="122.634"/><path d="m113.073 125.829c0 .909 2.772 1.272 2.772 1.272 0 1.31-.555 2.906-2.033 2.906s-2.032-1.596-2.032-2.906l1.663-.727" stroke="#fff" stroke-miterlimit="10" stroke-width=".497403"/><path d="m115.736 127.795.35-.375v-.946c0-1.036-.782-1.874-1.748-1.874h-1.048c-.966 0-1.747.838-1.747 1.874v.936l.349.375" stroke="#fff" stroke-miterlimit="10" stroke-width=".497403"/><path d="m115.367 130.744c0 .819-.7 1.474-1.554 1.474-.864 0-1.554-.664-1.554-1.474" stroke="#fff" stroke-miterlimit="10" stroke-width=".497403"/><path d="m114.888 129.638v.587c0 .299.501.532.501.532l1.002.532c1.01.355 1.845 1.075 1.845 2.158" stroke="#fff" stroke-miterlimit="10" stroke-width=".497403"/><path d="m112.737 129.638v.587c0 .299-.501.532-.501.532l-1.002.532c-1.01.355-1.845 1.075-1.845 2.158" stroke="#fff" stroke-miterlimit="10" stroke-width=".497403"/><rect fill="#fff" height="18.5366" rx="3.36649" stroke="#c8ccd0" stroke-width="1.54471" width="77.2357" x="119.992" y="131.902"/><rect fill="#eff0f1" height="10.6682" rx="2.31707" width="53.9024" x="139.122" y="135.523"/><rect fill="url(#h)" height="10.813" rx=".508708" width="10.813" x="124.626" y="135.764"/><path d="m129.293 138.96c0 .908 2.771 1.271 2.771 1.271 0 1.31-.554 2.906-2.032 2.906-1.479 0-2.033-1.596-2.033-2.906l1.663-.727" stroke="#fff" stroke-miterlimit="10" stroke-width=".497403"/><path d="m131.956 140.925.349-.375v-.946c0-1.036-.781-1.874-1.747-1.874h-1.049c-.965 0-1.747.838-1.747 1.874v.936l.35.375" stroke="#fff" stroke-miterlimit="10" stroke-width=".497403"/><path d="m131.586 143.874c0 .819-.699 1.474-1.554 1.474-.863 0-1.554-.664-1.554-1.474" stroke="#fff" stroke-miterlimit="10" stroke-width=".497403"/><path d="m131.108 142.768v.587c0 .299.501.532.501.532l1.001.533c1.011.355 1.845 1.074 1.845 2.157" stroke="#fff" stroke-miterlimit="10" stroke-width=".497403"/><path d="m128.956 142.768v.587c0 .299-.501.532-.501.532l-1.001.533c-1.011.355-1.845 1.074-1.845 2.157" stroke="#fff" stroke-miterlimit="10" stroke-width=".497403"/><rect fill="#fff" height="39.1385" rx="2.50329" stroke="#c8ccd0" stroke-width="1.73236" width="64.9185" x="97.8662" y="38.8662"/><path clip-rule="evenodd" d="m103.257 53.0605 1.887-1.8863h6.916c.685 0 1.258-.5726 1.258-1.2576v-5.659c0-.685-.573-1.2576-1.258-1.2576h-7.545c-.692 0-1.258.5659-1.258 1.2576zm5.006-3.1061c-.359-.0126-.648-.2704-.636-.6665.013-.3962.315-.654.68-.6414.377.0126.66.283.647.6791-.012.3961-.302.6413-.691.6288zm.578-2.3128c-.029.1344-.046.2712-.05.4087 0 .0252-.019.0881-.101.0881h-.88c-.088 0-.101-.0566-.101-.0818-.008-.3128.07-.6218.227-.8929.131-.2275.365-.4112.666-.5847.259-.1488.488-.4477.492-.7522.003-.1706-.056-.3364-.165-.4677-.138-.1634-.289-.2515-.578-.2515-.283 0-.522.1446-.642.327-.105.1661-.103.3469-.101.5208 0 .0235.001.047.001.0703h-1.082c0-.7357.195-1.2073.616-1.484.351-.1955.749-.2912 1.151-.2766.553 0 .993.1006 1.383.3898.365.2641.554.6414.554 1.1444 0 .3144-.107.5659-.271.7797-.094.1257-.276.2955-.54.4967l-.302.1887c-.13.0932-.227.2253-.277.3772z" fill="#6ecb64" fill-rule="evenodd"/><circle cx="105.174" cy="70.6967" fill="#6ecb64" r="1.25756"/><circle cx="119.007" cy="62.5225" fill="#6ecb64" r="1.25756"/><circle cx="139.128" cy="66.924" fill="#6ecb64" r="1.25756"/><circle cx="155.477" cy="54.9771" fill="#6ecb64" r="1.25756"/><path d="m105.174 70.6967 13.833-8.1742 20.121 4.4015 16.349-11.9469" stroke="#6ecb64" stroke-width=".628782"/><rect fill="#fff" height="39.1385" rx="2.50329" stroke="#c8ccd0" stroke-width="1.73236" width="64.9185" x="138.866" y="60.8662"/><circle cx="146.174" cy="92.6967" fill="#f2720c" r="1.25756"/><circle cx="160.007" cy="84.5225" fill="#f2720c" r="1.25756"/><circle cx="180.128" cy="88.924" fill="#f2720c" r="1.25756"/><circle cx="196.477" cy="76.9771" fill="#f2720c" r="1.25756"/><path d="m146.174 92.6967 13.833-8.1742 20.121 4.4015 16.349-11.9469" stroke="#f2720c" stroke-width=".628782"/><path d="m151.628 72.3707h-6.532c-.647 0-1.188-.5408-1.188-1.1877v-5.3446c0-.6533.535-1.1877 1.188-1.1877h7.126c.647 0 1.188.5408 1.188 1.1877v8.3139zm-.605-1.7815-1.877-4.7508h-.998l-1.817 4.7508h.998l.386-1.063h1.871l.409 1.063zm-1.74-1.8528h-1.277l.629-1.7341z" fill="#f48024"/><rect fill="#fff" height="62" rx="4.35873" stroke="#d6d9dc" stroke-width="2" width="67" x="492" y="155"/><path d="m503.333 162.94-.94-.94-4 4 4 4 .94-.94-3.06-3.06z" fill="#6ecb64"/><path d="m504.667 162.94.94-.94 4 4-4 4-.94-.94 3.06-3.06z" fill="#6ecb64"/><rect fill="#eff0f1" height="5" rx="2.5" width="56" x="498" y="177"/><rect fill="#eff0f1" height="5" rx="2.5" width="56" x="498" y="203"/><rect fill="#eff0f1" height="5" rx="2.5" width="56" x="498" y="189"/><path d="m365.5 222.5c-41-154-224-34.5-190 47" stroke="#cfeafe" stroke-dasharray="2 6" stroke-linecap="round" stroke-width="1.5"/><path d="m151.981 300.668c16.345 22.456 36.731 38.812 60.019 50.423" stroke="#cfeafe" stroke-dasharray="2 6" stroke-linecap="round" stroke-width="1.5"/><rect fill="#fff" height="15.1534" rx="2.87862" stroke="#c8ccd0" stroke-width="1.32085" width="47.5871" x="426.66" y="67.8653"/><rect fill="#eff0f1" height="8.75195" rx="1.98128" width="33.4633" x="438.356" y="70.8086"/><circle cx="432.95" cy="75.1846" fill="#f7cc46" r="2.31669"/><rect fill="#fff" height="15.8502" rx="2.87862" stroke="#c8ccd0" stroke-width="1.32085" width="47.5871" x="448.455" y="45.6604"/><rect fill="#eff0f1" height="9.24597" rx="1.98128" width="33.4633" x="460.15" y="49.2642"/><circle cx="454.744" cy="53.6401" fill="#b5b8bc" r="2.31669"/><rect fill="#fff" height="15.1534" rx="2.87862" stroke="#c8ccd0" stroke-width="1.32085" width="47.5871" x="448.283" y="89.1862"/><rect fill="#eff0f1" height="8.75195" rx="1.98128" width="33.4633" x="459.978" y="92.1295"/><circle cx="454.573" cy="96.5054" fill="#caa789" r="2.31669"/><circle cx="426.41" cy="368.41" fill="#fee3cf" r="3.40972" stroke="#f48024" stroke-width="2"/><circle cx="189.41" cy="379.41" fill="#fee3cf" r="3.40972" stroke="#f48024" stroke-width="2"/><circle cx="150.41" cy="298.41" fill="#e7ffe4" r="3.40972" stroke="#6ecb64" stroke-width="2"/><circle cx="321.41" cy="140.41" fill="#e7ffe4" r="3.40972" stroke="#6ecb64" stroke-width="2"/><g filter="url(#c)"><path d="m560 370.385c0 3.654-2.961 6.615-6.615 6.615h-297.77c-3.654 0-6.615-2.961-6.615-6.615v-63.77c0-3.654 2.961-6.615 6.615-6.615h7.952c1.952 0 3.804-.862 5.061-2.355l9.265-11.009c2.533-3.01 7.117-3.157 9.838-.316l11.149 11.641c1.248 1.302 2.973 2.039 4.777 2.039h249.728c3.654 0 6.615 2.961 6.615 6.615z" fill="#fff"/><path d="m553.385 376h-297.77c-3.101 0-5.615-2.514-5.615-5.615v-63.77c0-3.101 2.514-5.615 5.615-5.615h7.952c2.247 0 4.379-.992 5.826-2.711l9.266-11.01c2.15-2.554 6.041-2.679 8.35-.268l11.149 11.641c1.436 1.5 3.423 2.348 5.499 2.348h249.728c3.101 0 5.615 2.514 5.615 5.615v63.77c0 3.101-2.514 5.615-5.615 5.615z" stroke="#c8ccd0" stroke-width="2"/></g><rect fill="#eff0f1" height="20.9462" rx="3.54963" width="223.793" x="310.736" y="312.97"/><rect fill="#eff0f1" height="20.9462" rx="3.54963" width="144.418" x="310.736" y="343.838"/><path d="m293.328 331.518-2.198-2.199-10.277 10.277-4.039-4.039-2.199 2.199 6.238 6.238z" fill="#6ecb64"/><path d="m291.77 350.967h-15.855c-.982 0-1.474 1.188-.78 1.882l8.456 8.456c.451.451 1.19.427 1.609-.053l7.4-8.456c.623-.713.117-1.829-.83-1.829z" fill="#eff0f1"/><path d="m275.683 323.039h15.855c.982 0 1.474-1.187.779-1.882l-8.456-8.456c-.451-.451-1.189-.426-1.609.054l-7.399 8.456c-.624.713-.117 1.828.83 1.828z" fill="#f48024"/><path d="m476.179 360.453h-12.127c-1.201 0-2.205-1.004-2.205-2.205v-9.922c0-1.212.992-2.205 2.205-2.205h13.229c1.201 0 2.205 1.004 2.205 2.205v15.434zm-1.125-3.307-3.484-8.82h-1.852l-3.373 8.82h1.852l.716-1.974h3.473l.761 1.974zm-3.23-3.44h-2.37l1.168-3.219z" fill="#f48024"/><path clip-rule="evenodd" d="m183.954 215.149 4.667-2 4.666 2v3.347c0 3.113-3.54 5.32-4.666 5.32-1.127 0-4.667-2.207-4.667-5.32zm4.093 3.467-.76 1.867h2.667l-.76-1.867c-.033-.153.04-.307.167-.393.373-.24.593-.634.593-1.074 0-.726-.627-1.333-1.347-1.333-.726 0-1.32.607-1.32 1.333 0 .44.22.834.594 1.074.131.084.197.24.166.393z" fill="#6a737c" fill-rule="evenodd"/><g filter="url(#d)"><path d="m83 186.615c0-3.654 2.9614-6.615 6.6146-6.615h370.3574c3.653 0 6.614 2.961 6.614 6.615v63.943c0 3.653-2.961 6.614-6.614 6.614h-5.23c-1.937 0-3.776.849-5.033 2.322l-6.803 7.976c-2.53 2.966-7.063 3.112-9.779.314l-8.351-8.604c-1.245-1.283-2.958-2.008-4.746-2.008h-330.4154c-3.6532 0-6.6146-2.961-6.6146-6.614z" fill="#fff"/><path d="m89.6146 181h370.3574c3.1 0 5.614 2.514 5.614 5.615v63.943c0 3.101-2.514 5.614-5.614 5.614h-5.23c-2.23 0-4.347.977-5.794 2.674l-6.802 7.975c-2.148 2.518-5.996 2.642-8.301.267l-8.351-8.604c-1.434-1.478-3.405-2.312-5.464-2.312h-330.4154c-3.1009 0-5.6146-2.513-5.6146-5.614v-63.943c0-3.101 2.5137-5.615 5.6146-5.615z" stroke="#c8ccd0" stroke-width="2"/></g><rect fill="#48a868" fill-opacity=".2" height="39.1034" rx="6" width="39.1034" x="124.897" y="200"/><rect fill="#6ecb64" height="15.8276" rx="3" width="12.1034" x="138.862" y="206.517"/><rect fill="#6ecb64" height="25.1379" rx="3" transform="matrix(0 1 -1 0 384.483 69.517)" width="6.51724" x="157.483" y="227"/><rect fill="#eff0f1" height="15.8276" rx="3" width="12.1034" x="96.9655" y="206.517"/><rect fill="#eff0f1" height="25.1379" rx="3" transform="matrix(0 1 -1 0 342.586 111.414)" width="6.51724" x="115.586" y="227"/><rect fill="#eff0f1" height="15.8276" rx="3" width="12.1034" x="179.828" y="206.517"/><rect fill="#eff0f1" height="25.1379" rx="3" transform="matrix(0 1 -1 0 425.448 28.552)" width="6.51724" x="198.448" y="227"/><rect fill="#eff0f1" height="16" rx="3" width="218" x="209" y="202.034"/><rect fill="#cfeafe" height="15.8276" rx="3" width="27" x="208.69" y="224.207"/><rect fill="#cfeafe" height="15.8276" rx="3" width="27" x="243.138" y="224.207"/><rect fill="#cfeafe" height="15.8276" rx="3" width="27" x="277.586" y="224.207"/><path clip-rule="evenodd" d="m435.862 218 3-3h11c1.089 0 2-.911 2-2v-9c0-1.089-.911-2-2-2h-12c-1.1 0-2 .9-2 2zm7.96-4.94c-.57-.02-1.03-.43-1.01-1.06s.5-1.04 1.08-1.02c.6.02 1.05.45 1.03 1.08s-.48 1.02-1.1 1zm.92-3.678c-.046.214-.073.431-.08.65 0 .04-.03.14-.16.14h-1.4c-.14 0-.16-.09-.16-.13-.013-.498.112-.989.36-1.42.209-.362.581-.654 1.06-.93.411-.237.776-.712.783-1.196.004-.272-.09-.535-.263-.744-.22-.26-.46-.4-.92-.4-.45 0-.83.23-1.02.52-.167.264-.164.552-.161.828.001.038.001.075.001.112h-1.72c0-1.17.31-1.92.98-2.36.558-.311 1.191-.463 1.83-.44.88 0 1.58.16 2.2.62.58.42.88 1.02.88 1.82 0 .5-.17.9-.43 1.24-.15.2-.44.47-.86.79l-.48.3c-.206.148-.361.358-.44.6z" fill="#6ecb64" fill-rule="evenodd"/><circle cx="282.41" cy="278.41" fill="#fee3cf" r="3.40972" stroke="#f48024" stroke-width="2"/><circle cx="440.41" cy="277.41" fill="#e7ffe4" r="3.40972" stroke="#6ecb64" stroke-width="2"/></svg>