<svg fill="none" height="44" viewBox="0 0 220 44" width="220" xmlns="http://www.w3.org/2000/svg"><g clip-rule="evenodd" fill-rule="evenodd"><path d="m26.2579 17.6545c2.5934 2.606 4.7137 6.8731 3.5 9.408-3.2461 6.7798-27.46464 18.6693-29.522144 16.6119-2.057386-2.0575 9.841244-26.285 16.621044-29.5311 2.5353-1.214 6.8031.9072 9.4091 3.5011 0 0-.0027.0034-.008.0101z" fill="#ff8200"/><g fill="#43b02a"><path d="m39.0885 14.7923c.0002-.0001.0003-.0001.0003-.0001-.4217-1.5595-1.4965-3.1349-3.101-3.3215-2.9425-.3423-7.5813 4.8602-7.2503 6.0951.3309 1.2349 6.8839 3.4114 9.3319 1.6521 1.2618-.9069 1.4393-2.8657 1.0248-4.4271zm-9.1075-14.414064c2.1862.591517 4.3944 2.098304 4.6559 4.347524.4798 4.12554-6.8143 10.62904-8.5457 10.16514-1.7314-.464-4.7829-9.65159-2.3163-13.08383 1.2715-1.7690084 4.0179-2.01792 6.2071-1.436744 0 0-.0003.002662-.001.00791z"/><path d="m95.1491 24.8002-2.1662-.3284c-2.0642-.3046-3.2592-.9728-3.2592-2.1903 0-1.3958 1.5553-2.2628 3.8549-2.2628 1.6263 0 2.95.6095 4.2172 1.255l.2521.1279c.2927.1485.6066.2237.9329.2237.7522 0 1.4452-.4085 1.8072-1.0661l.177-.3198c.281-.5087.341-1.0947.168-1.6499-.172-.5536-.551-1.0009-1.068-1.2599-1.8463-.9246-3.8487-1.7544-6.4864-1.7544-5.5127 0-9.0641 2.6618-9.0641 6.9467 0 3.5171 2.5276 5.7219 7.3107 6.3761l2.1854.2844c2.3093.324 3.4321 1.0074 3.4321 2.0895 0 .9997-.5405 2.3287-4.1177 2.3287-1.9719 0-3.9742-.5005-5.5998-1.5303-.3242-.2054-.6986-.3139-1.082-.3139-.7136 0-1.3911.3787-1.768.9887l-.1214.197c-.3024.4893-.3933 1.0895-.2496 1.647.1436.5562.496 1.0162.9923 1.2953 2.8342 1.5937 6.1055 2.1593 7.8285 2.1593 5.747 0 9.305-2.5193 9.305-6.9513 0-3.5466-2.517-5.5795-7.4809-6.2922z"/><path d="m161.975 32.5413c-.415-.4631-1.01-.7287-1.633-.7287-.42 0-.831.1198-1.188.3466-1.17.7423-2.451 1.1347-3.707 1.1347-3.454 0-5.96-2.727-5.96-6.4845 0-3.7574 2.506-6.4847 5.96-6.4847 1.325 0 2.511.3602 3.626 1.1015.863.5737 2.102.4268 2.812-.3306l.184-.1959c.486-.5188.717-1.2222.634-1.9293-.081-.6946-.459-1.3129-1.037-1.6961-1.698-1.1259-3.803-1.721-6.088-1.721-6.628 0-11.257 4.6288-11.257 11.2561 0 6.6276 4.629 11.2564 11.257 11.2564 2.294 0 4.411-.6073 6.121-1.756.571-.3839.948-.9972 1.034-1.6831.086-.6914-.13-1.3851-.595-1.9035z"/><path d="m54.7156 7.93752c-1.7251 0-3.0762 1.36846-3.0762 3.11538 0 1.7537 1.3224 3.0762 3.0762 3.0762 1.7469 0 3.1151-1.3511 3.1151-3.0762 0-1.74692-1.3682-3.11538-3.1151-3.11538z"/><path d="m55.6466 15.7356h-1.8148c-.8891 0-1.6098.7207-1.6098 1.6097v18.5631c0 .8894.721 1.6103 1.6104 1.6103h1.8136c.8894 0 1.6104-.7209 1.6104-1.6103v-18.5631c0-.889-.7208-1.6097-1.6098-1.6097z"/><path d="m115.222 33.1974c-2.036-.0079-4.403-1.6039-4.403-4.3982v-8.373h4.419c.889 0 1.61-.721 1.61-1.6104v-1.4698c0-.8894-.721-1.6104-1.61-1.6104h-4.419v-4.8321c0-.8895-.721-1.61043-1.61-1.61043h-1.915c-.889 0-1.61.72093-1.61 1.61043v17.5959c0 5.0653 3.844 9.5443 9.167 9.5443h.002c.531 0 1.031-.2081 1.409-.5858s.586-.8783.586-1.4095v-1.2406c0-.8942-.731-1.6069-1.626-1.6104z"/><path d="m71.2497 15.5533c-6.4424 0-10.0349 5.1524-10.0349 9.5618v10.7933c0 .8893.721 1.6103 1.6104 1.6103h1.8355c.8894 0 1.6104-.721 1.6104-1.6103v-9.9831c0-3.3425 2.0252-5.5566 4.9786-5.5566s4.9786 2.2141 4.9786 5.5566v9.9831c0 .8893.721 1.6103 1.6104 1.6103h1.8354c.8894 0 1.6104-.721 1.6104-1.6103v-10.7933c0-4.4094-3.5925-9.5618-10.0348-9.5618z"/><path d="m203.761 15.7769c-.698-.1525-2.449-.2236-3.355-.2236-.082 0-.162.0029-.241.0029-4.989 0-9.594 4.0666-9.594 9.6715 0 .0046-.001.0099-.001.0141v.1055 10.5611c0 .8893.721 1.6103 1.61 1.6103h1.835c.89 0 1.611-.721 1.611-1.6103v-10.4962c0-3.0514 2.178-5.0404 4.848-5.0404.489.0076 1.013.0625 1.527.1641.14.0276.282.0415.424.0415 1.018 0 1.9-.7032 2.139-1.6936.131-.5439.227-.9491.318-1.3189s.029-.7891-.183-1.1281c-.213-.3399-.546-.5743-.938-.6599z"/><path d="m217.223 20.4262c.889 0 1.61-.721 1.61-1.6104v-1.4698c0-.8894-.721-1.6104-1.61-1.6104h-4.418v-4.8321c0-.8895-.721-1.61043-1.611-1.61043h-1.914c-.89 0-1.611.72093-1.611 1.61043v17.5959c0 5.0653 3.844 9.5443 9.167 9.5443h.002c.531 0 1.032-.2081 1.409-.5858.378-.3777.586-.8783.586-1.4095v-1.2406c0-.8941-.731-1.6069-1.625-1.6104-2.037-.0079-4.403-1.6039-4.403-4.3982v-8.373z"/><path d="m182.194 17.2804c-.002-.0019-.005-.0042-.008-.0061-1.698-1.1259-3.803-1.721-6.088-1.721-.04 0-.079.0023-.118.0026-.04-.0003-.079-.0026-.119-.0026-2.285 0-4.39.5951-6.088 1.721-.003.0019-.005.0042-.008.0061-3.057 1.9237-4.924 5.3226-4.924 9.529 0 4.4065 2.048 7.9272 5.368 9.7935 1.547.9136 3.385 1.4582 5.365 1.4597 3.617.0026 5.801-2.0467 6.488-2.9413v.7712c0 .8894.721 1.6104 1.61 1.6104h1.836c.889 0 1.61-.721 1.61-1.6104v-9.0831c0-4.2064-1.867-7.6053-4.924-9.529zm-4.191 15.6758c-.589.1946-1.187.3072-1.783.3321-.043.0015-.087.0026-.131.0032-.036.0008-.073.0021-.109.0022-.037-.0001-.073-.0014-.11-.0022-.044-.0006-.087-.0017-.131-.0032-.595-.0249-1.194-.1375-1.782-.3321-2.374-.8381-3.95-3.1678-3.95-6.1468 0-3.5178 2.197-6.1323 5.311-6.4515.016-.0016.033-.0029.049-.0044.071-.0066.142-.0116.213-.0159.04-.0024.08-.0047.121-.0063.068-.0028.137-.0045.207-.0051.024-.0003.048-.0012.072-.0013.024.0001.048.001.072.0013.069.0006.138.0023.207.0051.04.0016.08.0039.121.0063.071.0043.142.0093.212.0159.017.0015.033.0028.05.0044 3.113.3192 5.31 2.9337 5.31 6.4515 0 2.979-1.576 5.3087-3.949 6.1468z"/><path d="m136.38 17.2804c-.003-.0019-.005-.0042-.008-.0061-1.698-1.1259-3.803-1.721-6.089-1.721-.039 0-.078.0023-.118.0026-.039-.0003-.078-.0026-.118-.0026-2.285 0-4.39.5951-6.088 1.721-.003.0019-.006.0042-.009.0061-3.057 1.9237-4.923 5.3226-4.923 9.529 0 4.4065 2.048 7.9272 5.367 9.7935 1.548.9136 3.385 1.4582 5.366 1.4597 3.617.0026 5.8-2.0467 6.487-2.9413v.7712c0 .8894.721 1.6104 1.611 1.6104h1.835c.89 0 1.61-.721 1.61-1.6104v-9.0831c0-4.2064-1.866-7.6053-4.923-9.529zm-4.192 15.6758c-.588.1946-1.187.3072-1.782.3321-.044.0015-.087.0026-.131.0032-.037.0008-.073.0021-.11.0022-.036-.0001-.073-.0014-.109-.0022-.044-.0006-.088-.0017-.131-.0032-.596-.0249-1.195-.1375-1.783-.3321-2.373-.8381-3.949-3.1678-3.949-6.1468 0-3.5178 2.196-6.1323 5.31-6.4515.017-.0016.033-.0029.05-.0044.07-.0066.141-.0116.212-.0159.04-.0024.081-.0047.121-.0063.069-.0028.138-.0045.207-.0051.024-.0003.048-.0012.072-.0013.024.0001.048.001.072.0013.069.0006.139.0023.207.0051.041.0016.081.0039.121.0063.071.0043.142.0093.213.0159.016.0015.033.0028.049.0044 3.114.3192 5.311 2.9337 5.311 6.4515 0 2.979-1.576 5.3087-3.95 6.1468z"/></g></g></svg>