<svg fill="none" height="41" viewBox="0 0 165 41" width="165" xmlns="http://www.w3.org/2000/svg"><g fill="#242729"><path d="m57.0536 26.33c0 .6817-.5208 1.2421-1.2625 1.2421-.7212 0-1.242-.5617-1.242-1.2421v-11.8424c0-.6817.5208-1.2421 1.2625-1.2421.7212 0 1.242.5617 1.242 1.2421z"/><path d="m73.2442 14.4873v10.8213c0 1.4629-.7813 2.285-2.0233 2.285h-.0996c-1.1821 0-1.7438-.6817-2.2442-1.6838l-2.525-4.9095-2.2441-5.0692.06 4.9096.0204 5.47c0 .6816-.5208 1.242-1.2625 1.242-.7212 0-1.2421-.5616-1.2421-1.242v-10.8213c0-1.3429.7813-2.285 2.1446-2.285h.0996c1.2625 0 1.7833.6817 2.285 1.6838l2.4841 4.87 2.1242 4.7296-.06-4.5292-.0204-5.47c0-.6816.5208-1.242 1.2625-1.242.7199-.0013 1.2408.5591 1.2408 1.2407z"/><path d="m83.2839 26.3107c0 .6817-.5208 1.2421-1.2625 1.2421-.7212 0-1.2421-.5617-1.2421-1.2421v-10.7204h-3.1058c-.6408 0-1.1616-.4812-1.1616-1.1821 0-.6816.5208-1.1616 1.1616-1.1616h8.7162c.6408 0 1.1617.4812 1.1617 1.1821 0 .6816-.5209 1.1616-1.1617 1.1616h-3.1058z"/><path d="m90.8185 25.9098v-11.1212c0-1.0416.5809-1.6225 1.6429-1.5829h7.2138c.6408 0 1.1618.5004 1.1618 1.1821s-.521 1.1616-1.1618 1.1616h-6.3725v3.4467h5.6308c.6217 0 1.1225.4608 1.1225 1.1221 0 .6612-.5008 1.1221-1.1225 1.1221h-5.6308v3.9674h6.3725c.6408 0 1.1618.5004 1.1618 1.1821s-.521 1.1617-1.1618 1.1617h-7.2738c-1.0416.0012-1.6224-.5796-1.5829-1.6417z"/><path d="m115.065 25.929c.341.5808.12 1.3225-.581 1.6837-.681.3409-1.423.0805-1.763-.5004l-2.785-5.1495h-2.645l.02 4.3683c0 .6817-.52 1.2421-1.262 1.2421-.721 0-1.242-.5617-1.242-1.2421v-11.5425c0-1.0416.581-1.6225 1.643-1.5829h4.749c3.266 0 4.628 2.1242 4.628 4.2879 0 2.0642-1.202 3.5871-3.266 3.9879zm-7.775-6.2321h3.967c1.343 0 2.044-.8616 2.044-2.0846 0-1.2229-.742-2.0641-2.064-2.0641h-3.947z"/><path d="m120.996 26.4907c-1.503-1.3429-2.185-3.4466-2.185-6.0916 0-2.6654.662-4.7488 2.145-6.0713.922-.8016 2.164-1.3429 3.967-1.3429 1.583 0 2.806.3613 3.728 1.1425.802.6408 1.382 1.5434 1.723 2.8059.18.6612-.281 1.3225-1.041 1.4629-.722.12-1.302-.3409-1.523-1.0021-.24-.6408-.562-1.1017-.942-1.4234-.521-.4608-1.162-.6612-2.005-.6612-.901 0-1.683.2604-2.264.8412-.841.8413-1.203 2.345-1.203 4.2484 0 1.8841.341 3.3866 1.223 4.2279.581.5808 1.343.8412 2.224.8412.922 0 1.623-.24 2.205-.7812.3-.2809.561-.6409.741-1.0621.261-.6217.802-1.0825 1.503-.9217.701.1609 1.142.8413.921 1.5025-.361 1.1017-.981 1.9838-1.822 2.585-.922.6612-2.065 1.0021-3.507 1.0021-1.843 0-3.006-.5413-3.888-1.3021z"/><path d="m133.199 20.3991c0-4.4883 1.843-7.4142 6.193-7.4142 4.308 0 6.172 2.8454 6.172 7.4142 0 4.6287-1.885 7.4141-6.172 7.4141-4.369 0-6.193-2.7854-6.193-7.4141zm9.799 0c0-3.4071-1.242-5.0692-3.627-5.0692-2.345 0-3.587 1.6634-3.587 5.0692 0 3.4071 1.203 5.0691 3.587 5.0691 2.364 0 3.627-1.6633 3.627-5.0691z"/><path d="m165 26.3107c0 .6817-.521 1.2421-1.262 1.2421-.721 0-1.242-.5617-1.242-1.2421v-5.3704l.06-5.23-1.744 5.3104-1.763 5.23c-.3.9217-.922 1.2829-1.703 1.2829-.822 0-1.423-.3804-1.744-1.3021l-1.803-5.2095-1.664-5.23.06 5.1496v5.3704c0 .6816-.52 1.242-1.262 1.242-.721 0-1.242-.5616-1.242-1.242v-10.7204c0-1.4834.801-2.345 2.204-2.345 1.323 0 2.065.7008 2.485 1.9837l1.843 5.47 1.122 3.7275 1.142-3.7275 1.844-5.47c.421-1.2829 1.142-1.9837 2.465-1.9837 1.403 0 2.184.8412 2.184 2.345z"/></g><path d="m35.7431 0h-30.63694c-2.81988 0-5.10616 2.28628-5.10616 5.10616v30.63694c0 2.8199 2.28628 5.1062 5.10616 5.1062h30.63694c2.8199 0 5.1062-2.2863 5.1062-5.1062v-30.63694c0-2.81988-2.2863-5.10616-5.1062-5.10616zm-9.8727 7.48946c0-.75188.6101-1.36207 1.362-1.36207s1.3621.61019 1.3621 1.36207v18.19194c0 .7519-.6102 1.3621-1.3621 1.3621s-1.362-.6102-1.362-1.3621zm-6.8078-.68933c0-.75188.6102-1.36207 1.362-1.36207.7519 0 1.3621.61019 1.3621 1.36207v19.74427c0 .7519-.6102 1.362-1.3621 1.362-.7518 0-1.362-.6101-1.362-1.362zm-6.8078.68933c0-.75188.6102-1.36207 1.362-1.36207.7519 0 1.3608.61019 1.3608 1.36207v18.19194c0 .7519-.6089 1.3621-1.3608 1.3621-.7518 0-1.362-.6102-1.362-1.3621zm-6.80781 2.72284c0-.75186.60891-1.36205 1.3608-1.36205.75188 0 1.36207.61019 1.36207 1.36205v12.2471c0 .7519-.61019 1.3621-1.36207 1.3621-.75189 0-1.3608-.6102-1.3608-1.3621zm29.48041 20.7693c-.2093.1813-5.2542 4.413-14.5028 4.413-9.2485 0-14.29083-4.2317-14.50273-4.413-.57062-.4889-.63827-1.348-.14808-1.9199.48764-.5693 1.34547-.637 1.91609-.1494.07914.0664 4.58402 3.7595 12.73352 3.7595 8.2515 0 12.6862-3.7199 12.7296-3.7569.5694-.4902 1.431-.4238 1.9187.1468.4927.5719.4263 1.431-.1443 1.9199zm.4749-8.5222c0 .7519-.6102 1.3621-1.3621 1.3621s-1.3608-.6102-1.3608-1.3621v-12.2471c0-.75186.6089-1.36205 1.3608-1.36205s1.3621.61019 1.3621 1.36205z" fill="#276bf2"/></svg>