<svg fill="none" height="41" viewBox="0 0 192 41" width="192" xmlns="http://www.w3.org/2000/svg"><g fill="#737373"><path d="m182.034 6.71c-2.026-.55761-4.349-.44867-6.147.72161-1.16.74269-2.001 1.93054-2.38 3.24729-.31 1.0103-.295 2.06-.281 3.1074.006.4645.013.9286-.009 1.3886l-.203-.0015c-.908-.0067-1.815-.0134-2.721.0073.01 1.047.006 2.0939.003 3.1399l-.001.2397c.496.0101.992.0091 1.488.0081.483-.0011.966-.0021 1.448.0072-.006 3.3473-.005 6.6941-.003 10.0411 0 1.3945.001 2.7891.001 4.1837h4.218c0-1.1838 0-2.3677 0-3.5515 0-3.5594-.001-7.1187.001-10.678 2.057-.0035 4.115-.0024 6.174-.0012.002 1.3339.001 2.6676.001 4.0011-.001 1.6892-.003 3.3781.003 5.0671.019 1.4081.259 2.9134 1.192 4.0251.807.984 2.088 1.4338 3.325 1.5252 1.304.0925 2.651-.0668 3.857-.5904v-3.4591c-.347.2319-.743.4113-1.156.5154-.563.1421-1.158.1438-1.7-.0535-.12-.0437-.238-.0972-.352-.161-.601-.3316-.834-1.0415-.911-1.6822-.085-.7275-.077-1.4592-.07-2.1905.004-.3615.008-.7229.001-1.0837-.001-.7027 0-1.4053 0-2.1077.001-1.2673.001-2.5342-.002-3.8011.055.0002.111.0003.167.0003.335.0003.67-.0018 1.006-.0042.056-.0004.111-.0008.167-.0012.119-.0009.238-.0017.356-.0025.832-.0055 1.663-.0066 2.494.0275v-3.4253c-.504.0017-1.007.0008-1.51-.0001-.888-.0016-1.776-.0032-2.664.0095-.019-1.0566-.016-2.1132-.014-3.1696.002-.7039.003-1.4077-.001-2.1113-.499.1504-.997.3042-1.495.458-.891.2753-1.782.5505-2.679.806-.02.779-.017 1.5584-.015 2.3377.002.5567.004 1.1133-.003 1.6698-.748-.0004-1.496-.0002-2.244 0-1.309.0003-2.618.0006-3.927-.0023.009-.3496.004-.7-.002-1.0505-.01-.7045-.02-1.4092.081-2.1078.125-.8247.603-1.6493 1.407-1.968 1.013-.41584 2.146-.13938 3.109.2847-.003-.47177-.002-.94352-.001-1.4152.002-.73356.003-1.46695-.008-2.1999z"/><path d="m87.9052 8.50465c-.5635-.66538-1.4843-.9559-2.3347-.82704-1.1715.13355-2.1707 1.19839-2.1391 2.39329-.0492 1.1351.8634 2.1531 1.9587 2.3499 1.0554.2308 2.2667-.2156 2.8079-1.1761.4897-.8517.3679-2.01141-.2928-2.74005z"/><path d="m59.3769 8.20008h-6.1348c-.0024 8.20012-.0012 16.40022 0 24.60032.535-.0004 1.0703-.0002 1.6057.0001.8032.0005 1.6066.0009 2.41-.0012-.0021-2.2029-.0017-4.4057-.0013-6.6085.0003-1.4685.0006-2.937.0001-4.4055.0053-.9992.0025-1.9987-.0004-2.9983-.0047-1.6525-.0094-3.3052.0227-4.957.0761.1207.1464.246.212.3749.9421 2.3336 1.8815 4.6684 2.8209 7.0034 1.5558 3.8669 3.1117 7.734 4.6799 11.5957.4221-.0069.8441-.005 1.2661-.003.5888.0027 1.1774.0054 1.7656-.0158 1.3719-3.509 2.7633-7.0104 4.1547-10.5118 1.0667-2.6845 2.1335-5.369 3.1914-8.0568.0644-.1359.1382-.2671.2214-.3936.0188.2718.0281.5436.0258.8153-.0036 2.6476-.0025 5.295-.0014 7.9422.0015 3.4036.0029 6.8071-.0056 10.2106.9251.013 1.8502.011 2.7756.009.4937-.001.9875-.0021 1.4814-.0008-.0002-1.1765-.0004-2.3529-.0006-3.5294-.0011-7.0225-.0022-14.045.0018-21.06748-.674.0016-1.348-.00023-2.022-.00206-1.2939-.00351-2.5877-.00702-3.881.01377-1.4757 3.67267-2.9712 7.33687-4.4667 11.00097-.9749 2.3886-1.9498 4.7772-2.9192 7.1682-.3244-.7624-.6267-1.5342-.9289-2.3058-.1747-.4461-.3494-.8921-.5284-1.3363-.8799-2.2316-1.7623-4.4622-2.6447-6.6928-1.0348-2.6157-2.0695-5.2313-3.1001-7.84832z"/><path d="m103.446 15.1713c-2.035-.5751-4.2305-.5986-6.2665-.0187-1.8685.5389-3.5835 1.6857-4.6799 3.3058-1.3085 1.8989-1.7713 4.2711-1.6682 6.5449.1019 2.1871.9641 4.3707 2.5526 5.9017 1.462 1.4198 3.4757 2.1848 5.4953 2.2914 1.9737.0972 4.0417-.1675 5.7657-1.1937-.008-.6727-.007-1.3454-.006-2.0181.001-.6007.002-1.2014-.003-1.802-1.112.813-2.41 1.3952-3.785 1.5533-1.3919.1055-2.8831-.2296-3.9468-1.1749-1.0238-.8728-1.5686-2.1883-1.7044-3.505-.1816-1.6822.062-3.5085 1.1175-4.8837.8212-1.1094 2.1309-1.8216 3.5038-1.9458 1.7289-.2179 3.4549.4404 4.8149 1.4795.005-.5872.004-1.1743.003-1.7614-.002-.7575-.004-1.5149.01-2.2719-.378-.2214-.784-.3842-1.203-.5014z"/><path clip-rule="evenodd" d="m131.798 15.5614c-1.879-.8551-4.014-.9699-6.039-.7122-2.126.2683-4.196 1.2687-5.545 2.9638-1.233 1.5135-1.833 3.4581-1.947 5.3874-.17 2.2738.209 4.687 1.545 6.5847 1.137 1.6377 2.933 2.7635 4.873 3.1782 1.621.3409 3.318.342 4.939.0047 1.896-.3901 3.668-1.4398 4.843-2.9884 1.148-1.4585 1.724-3.2976 1.854-5.1333.132-1.8801-.057-3.8271-.839-5.5608-.732-1.6283-2.053-2.9884-3.684-3.7241zm-1.252 3.833c-.911-.9219-2.261-1.2804-3.528-1.1972-1.009.0562-2.028.3971-2.775 1.0953-1.031.9336-1.502 2.3253-1.63 3.6783-.14 1.4878-.039 3.0563.641 4.4129.528 1.0531 1.499 1.8801 2.644 2.1812 1.124.2917 2.349.2671 3.438-.1511.931-.3632 1.669-1.1293 2.072-2.036.609-1.3448.669-2.8571.594-4.3086-.104-1.326-.481-2.7165-1.456-3.6748z" fill-rule="evenodd"/><path d="m149.097 15.4923c-1.846-.6993-3.888-.9512-5.839-.608-1.648.2941-3.266 1.1504-4.197 2.5784-.815 1.2253-.921 2.8056-.583 4.2078.227.9512.808 1.7947 1.575 2.3933.869.6666 1.874 1.0988 2.874 1.5291.257.1104.513.2206.767.3347l.068.0319c.642.3016 1.312.6168 1.774 1.1735.51.7474.356 1.9692-.504 2.3968-.899.4311-1.947.424-2.911.2671-1.385-.239-2.693-.8283-3.827-1.6518-.009.8088-.008 1.6176-.007 2.4267.001.5502.002 1.1006 0 1.6511 1.348.5998 2.822.8891 4.288.984 2.066.0773 4.311-.3256 5.87-1.7829 1.633-1.4432 2.027-4.0005 1.098-5.9357-.494-1.0332-1.441-1.7502-2.417-2.2984-.557-.3226-1.153-.5688-1.748-.815-.728-.3009-1.456-.6017-2.114-1.0417-.699-.444-.897-1.4163-.611-2.1578.359-.7498 1.226-1.0836 2.015-1.1141 1.565-.0551 3.14.4217 4.43 1.3085-.001-.5541 0-1.1082 0-1.6623 0-.7382 0-1.4765-.001-2.2152z"/><path clip-rule="evenodd" d="m165.642 15.6938c-1.921-.9699-4.156-1.1117-6.261-.8505-1.698.2179-3.366.8622-4.661 1.9997-1.582 1.3624-2.509 3.3656-2.782 5.4144-.261 2.0489-.173 4.2067.663 6.1243.801 1.8814 2.382 3.4089 4.285 4.1575 1.878.7392 3.965.8224 5.941.5026 2.021-.3339 3.935-1.3964 5.186-3.0317 1.337-1.6893 1.912-3.8752 1.909-6.0049.029-1.4256-.149-2.8712-.656-4.2102-.649-1.7501-1.949-3.2636-3.624-4.1012zm-1.742 3.5038c-.917-.8048-2.189-1.0801-3.38-.9969-1.167.0656-2.324.5682-3.079 1.4772-.827.9735-1.182 2.2586-1.278 3.5108-.099 1.2933 0 2.6323.5 3.8412.416 1.0145 1.206 1.8966 2.225 2.3277.944.4065 2.008.4791 3.018.328.94-.1383 1.852-.5881 2.464-1.3261.608-.7345.929-1.66 1.091-2.5877.204-1.2453.206-2.528-.035-3.7674-.214-1.0566-.682-2.1063-1.526-2.8068z" fill-rule="evenodd"/><path d="m117.996 15.1093c-1.271-.4276-2.75-.369-3.915.3303-1.058.5986-1.729 1.6646-2.18 2.7623.002-.4488.001-.8974.001-1.3458 0-.5606-.001-1.1209.003-1.6812-1.389-.0071-2.777-.0141-4.165.0035.005 3.4264.004 6.8532.003 10.28 0 2.4474-.001 4.8948.001 7.342h4.158c.001-1.8735.001-3.747 0-5.6206 0-.9367 0-1.8735 0-2.8103-.034-1.2206.067-2.4834.601-3.5998.492-1.0543 1.441-1.9739 2.638-2.1098.982-.0996 2.02.1312 2.852.6701.001-.6255.001-1.2511.001-1.8766-.001-.7814-.001-1.5627.002-2.3441z"/><path d="m84.5135 15.1715c-.233.0012-.466.0024-.699.0034.0017 2.938.0014 5.8757.0011 8.8133-.0003 2.9375-.0005 5.8749.0012 8.8122h4.1879c.0024-2.3488.0013-4.6979.0003-7.047-.0015-3.5239-.0031-7.0479.0068-10.5715-1.1657-.0225-2.3323-.0164-3.4983-.0104z"/></g><path clip-rule="evenodd" d="m0 21.4948c6.50152.0024 13.003-.0011 19.5046.0024.0011 6.5015 0 13.0019 0 19.5034h-19.5046z" fill="#00a4ef" fill-rule="evenodd"/><path clip-rule="evenodd" d="m21.4961 0h19.5046c0 6.50152.0012 13.003-.0012 19.5046-6.5003-.0012-13.0018 0-19.5022 0-.0023-6.5016-.0012-13.00308-.0012-19.5046z" fill="#7fba00" fill-rule="evenodd"/><path clip-rule="evenodd" d="m0 0h19.5046c-.0012 6.50152 0 13.003-.0012 19.5046-6.5004 0-13.00188 0-19.5034 0z" fill="#f25022" fill-rule="evenodd"/><path clip-rule="evenodd" d="m21.4973 21.4972c6.5003-.0023 13.0018-.0012 19.5034-.0012v19.5046h-19.5046c.0012-6.5015-.0012-13.003.0012-19.5034z" fill="#ffb900" fill-rule="evenodd"/></svg>