<svg fill="none" height="47" width="47" xmlns="http://www.w3.org/2000/svg"><path d="M24.518 15.384a6.73 6.73 0 1 0 0-13.461 6.73 6.73 0 0 0 0 13.46z" fill="#7b83eb"/><path d="M24.037 10.096h-6.094l.03.134.003.011.031.124a6.737 6.737 0 0 0 7.953 4.863v-3.21a1.929 1.929 0 0 0-1.923-1.922z" fill="#000" opacity=".1"/><path d="M22.595 11.538h-4.16a6.73 6.73 0 0 0 6.083 3.846V13.46a1.929 1.929 0 0 0-1.923-1.923z" fill="#000" opacity=".2"/><path d="M39.662 15.865a5.048 5.048 0 1 0 0-10.096 5.048 5.048 0 0 0 0 10.096zm4.326 1.442H32.651a.922.922 0 0 0-.922.922v11.697a7.386 7.386 0 0 0 5.72 7.333 7.22 7.22 0 0 0 8.702-7.062V19.47a2.163 2.163 0 0 0-2.163-2.163z" fill="#5059c9"/><path d="M36.056 19.47v13.702a11.53 11.53 0 0 1-21.518 5.769 10.341 10.341 0 0 1-.721-1.443c-.19-.47-.348-.952-.476-1.442a11.888 11.888 0 0 1-.36-2.884V19.47a2.16 2.16 0 0 1 2.162-2.163h18.75a2.16 2.16 0 0 1 2.163 2.163z" fill="#7b83eb"/><g fill="#000"><path d="M22.595 11.538h-4.16a6.73 6.73 0 0 0 6.083 3.846V13.46a1.929 1.929 0 0 0-1.923-1.923z" opacity=".2"/><path d="M25.96 17.307V35.58a1.904 1.904 0 0 1-1.5 1.86c-.135.041-.276.06-.418.058H13.817c-.19-.47-.348-.952-.476-1.442a11.888 11.888 0 0 1-.36-2.884V19.47a2.16 2.16 0 0 1 2.163-2.163z" opacity=".1"/><path d="M24.518 17.307v19.715c.002.142-.017.283-.058.419a1.904 1.904 0 0 1-1.86 1.5h-8.062a10.341 10.341 0 0 1-.721-1.443c-.19-.47-.348-.952-.476-1.442a11.888 11.888 0 0 1-.36-2.884V19.47a2.16 2.16 0 0 1 2.162-2.163z" opacity=".2"/><path d="M24.518 17.307v16.83a1.927 1.927 0 0 1-1.918 1.92h-9.26a11.888 11.888 0 0 1-.36-2.885V19.47a2.16 2.16 0 0 1 2.164-2.163z" opacity=".2"/><path d="M15.143 17.307a2.16 2.16 0 0 0-2.163 2.163v13.702c.002.972.123 1.941.36 2.884h7.818a1.927 1.927 0 0 0 1.918-1.918V17.307z" opacity=".2"/></g><path d="M1.923 11.538h19.23a1.923 1.923 0 0 1 1.923 1.923v19.23a1.923 1.923 0 0 1-1.923 1.923H1.923A1.923 1.923 0 0 1 0 32.69V13.46a1.923 1.923 0 0 1 1.923-1.923z" fill="#4b53bc"/><path d="M17.277 18.713h-4.31V30.28h-2.833V18.713H5.798v-2.842h11.48z" fill="#fff"/></svg>