<svg fill="none" height="32" viewBox="0 0 181 32" width="181" xmlns="http://www.w3.org/2000/svg"><g clip-rule="evenodd" fill-rule="evenodd"><path d="m180.983 25.5183h-.303v-2.1627h-.011l-.843 2.1627h-.196l-.842-2.1627h-.012v2.1627h-.304v-2.4143h.559l.696 1.7843h.011l.686-1.7843h.559zm-2.962-2.1848h-.778v2.1848h-.302v-2.1848h-.778v-.2295h1.858zm-139.8465-7.0245c0 3.926 2.1407 7.8532 6.4607 7.8532 4.3189 0 6.4607-3.9272 6.4607-7.8543 0-3.9261-2.1407-7.85329-6.4607-7.85329s-6.4618 3.92719-6.4618 7.85329zm15.1713-.0011c0 5.2833-3.0709 9.7467-8.7106 9.7467-5.6408 0-8.7106-4.4634-8.7106-9.7467 0-5.2834 3.0698-9.7446 8.7106-9.7446 5.6397 0 8.7106 4.4612 8.7106 9.7446zm-.4017-9.20943h2.4983l5.7831 16.17103h.0717l5.7115-16.17103h2.3205l-6.8899 18.41983h-2.3912zm30.3901 7.92493c-.107-3.3931-2.2135-6.56879-5.8549-6.56879-3.6767 0-5.7114 3.21329-6.069 6.56879zm-11.9239 1.8914c.0354 3.2849 1.749 7.2474 6.069 7.2474 3.285 0 5.0693-1.9277 5.7821-4.7117h2.251c-.9644 4.1765-3.392 6.603-8.0331 6.603-5.8549 0-8.3178-4.4976-8.3178-9.7456 0-4.8552 2.4629-9.7446 8.3178-9.7446 5.9255 0 8.2825 5.1752 8.1037 10.3515zm37.2807-4.426c-.107-2.78508-2.248-4.03419-4.818-4.03419-2 0-4.3556.78566-4.3556 3.17789 0 1.9984 2.2846 2.7123 3.8206 3.1051l2.998.6787c2.571.3917 5.248 1.8913 5.248 5.1045 0 3.9978-3.963 5.5338-7.39 5.5338-4.2849 0-7.2112-1.9994-7.5687-6.4982h2.2499c.1787 3.0345 2.4278 4.6058 5.4258 4.6058 2.107 0 5.034-.928 5.034-3.4979 0-2.1418-2-2.8569-4.034-3.3567l-2.891-.6422c-2.9279-.7857-5.1425-1.7854-5.1425-4.9269 0-3.74844 3.6775-5.1752 6.9265-5.1752 3.676 0 6.604 1.92773 6.746 5.9255zm8.412-5.39033h3.748v1.89131h-3.748v12.42372c0 1.4632.214 2.3206 1.821 2.4276.642 0 1.285-.0364 1.927-.107v1.9277c-.678 0-1.32.0706-1.999.0706-2.999 0-4.034-.9986-3.998-4.1401v-12.60141h-2.177v-1.89352h2.177v-5.53158h2.249zm6.417 9.21053c0 3.926 2.141 7.8532 6.461 7.8532s6.462-3.9272 6.462-7.8543c0-3.9261-2.142-7.85329-6.462-7.85329s-6.461 3.92719-6.461 7.85329zm15.172-.0011c0 5.2833-3.071 9.7467-8.711 9.7467-5.639 0-8.71-4.4634-8.71-9.7467 0-5.2834 3.071-9.7446 8.71-9.7446 5.64 0 8.711 4.4612 8.711 9.7446zm15.937-3.4263c-.607-2.7486-2.284-4.42699-5.211-4.42699-4.32 0-6.462 3.92719-6.462 7.85329 0 3.9282 2.14 7.8543 6.462 7.8543 2.784 0 5.069-2.1782 5.353-5.248h2.249c-.607 4.427-3.498 7.1393-7.602 7.1393-5.641 0-8.711-4.4612-8.711-9.7456 0-5.2834 3.07-9.7457 8.711-9.7457 3.927 0 6.96 2.10758 7.46 6.3194zm4.754-12.8518148h2.249v15.9934148l10.21-8.92473h2.998l-7.853 6.81823 8.389 11.6016h-2.82l-7.283-10.0303-3.641 3.0345v6.9958h-2.249zm-63.2742 6.8998648c-2.5842.35751-4.5296 1.98179-5.4962 4.48775h-.0718v-4.31893h-2.0711v18.41983h2.251v-9.8162c0-3.3435 2.1308-6.05576 5.3892-6.53907v-2.23338z" fill="#000"/><g fill="#ff1f2c"><path d="m.752197.0662231v16.1765769c2.385653-6.42651 8.993103-11.34016 15.706503-11.34016 7.4372 0 12.182 6.02926 10.603 13.46426-1.2193 5.7324-5.8427 10.624-11.3026 12.5661h15.861v-30.8656734h-30.867903z"/><path d="m22.1304 18.3669c0-6.4265-3.8212-11.63808-8.5341-11.63808-4.7128 0-8.53404 5.21158-8.53404 11.63808 0 6.4276 3.82124 11.6381 8.53404 11.6381 4.7129 0 8.5341-5.2105 8.5341-11.6381z"/></g></g></svg>