<svg fill="none" height="40" viewBox="0 0 217 40" width="217" xmlns="http://www.w3.org/2000/svg" xmlns:xlink="http://www.w3.org/1999/xlink"><clipPath id="a"><path d="m0 0h217v40h-217z"/></clipPath><g clip-path="url(#a)"><path d="m73.6115.798806h-11.6586v15.261494h-12.1361v-15.261494h-11.6585v38.396494h11.6585v-15.1032h12.1361v15.1032h11.6586zm40.5555 30.681194v-30.681194h-11.659v38.396494h21.081l1.753-7.7153zm-20.278-30.681194h-11.6585v38.396494h11.6585zm47.264 0h-11.653v38.396494h11.653zm57.478 9.799594c0-2.08975 2.079-3.05551 5.428-3.05551 3.674 0 7.669.80754 10.383 1.937l-.956-8.35916c-3.039-.643852-5.753-1.12401123-10.698-1.12401123-9.422 0-15.81 3.73762123-15.81 11.56748123 0 13.4936 18.209 10.7654 18.209 17.0294 0 2.4062-1.763 3.6885-6.073 3.6885-3.826 0-9.743-1.2823-13.254-3.0501l1.281 8.8393c3.511 1.2877 8.298 1.9261 12.136 1.9261 9.737 0 17.721-3.2138 17.721-12.8552 0-12.8443-18.367-10.4381-18.367-16.5438zm-32.886 19.4411c10.85 0 17.721-5.6255 17.721-15.4252 0-10.75992-7.343-14.61758123-19.322-14.61758123-4.63 0-10.22.32192623-14.21.80208723v38.396494h11.659v-9.1558zm6.226-15.2615c0 4.9762-2.394 8.3537-8.468 8.3537h-1.91v-15.86709c.678-.0382 1.313-.0382 1.91-.0382 5.748 0 8.468 2.72818 8.468 7.55159zm-156.1636 15.2615c10.8553 0 17.7212-5.6255 17.7212-15.4252 0-10.75992-7.3436-14.61758123-19.3169-14.61758123-4.63515 0-10.22016.32192623-14.21487383.80208723v38.396494h11.65847383v-9.1558zm6.2309-15.2615c0 4.9762-2.399 8.3537-8.467 8.3537h-1.916v-15.86709c.6785-.0382 1.3189-.0382 1.916-.0382 5.7478 0 8.467 2.72818 8.467 7.55159z" fill="#0065d3"/></g></svg>