<svg fill="none" height="32" viewBox="0 0 202 32" width="202" xmlns="http://www.w3.org/2000/svg"><g clip-rule="evenodd" fill="#099" fill-rule="evenodd"><path d="m.623372 30.6996v-6.0532c3.458038 1.0844 6.517938 1.6266 9.179688 1.6266 3.67494 0 5.51274-.9679 5.51274-2.9022 0-.7211-.2674-1.3271-.8035-1.8177-.5482-.5205-1.9523-1.242-4.2087-2.1664-4.04847-1.6585-6.68841-3.073-7.91636-4.2429-1.591562-1.5443-2.38724-3.4916-2.38724-5.84493 0-3.03054 1.15948-5.34038 3.47682-6.9277 2.29169-1.573433 5.27584-2.3593444 8.95708-2.3593444 2.0283 0 4.964.3719244 8.8038 1.1167844v5.82299c-2.8571-1.13711-5.5092-1.70445-7.9594-1.70445-3.45039 0-5.17547.9439-5.17547 2.83592 0 .70722.34744 1.28403 1.04333 1.73122.57873.36191 2.17334 1.12621 4.78034 2.29551 3.7538 1.661 6.2527 3.1048 7.4978 4.3329 1.4774 1.4567 2.2176 3.3417 2.2176 5.6521 0 3.321-1.4498 5.8542-4.3473 7.5997-2.3474 1.4155-5.3913 2.1203-9.13 2.1203-3.15722 0-6.33832-.3705-9.541228-1.1152z"/><path d="m28.4946.544205h8.5931v30.650995h-8.5931z"/><path d="m44.9685 31.1952v-30.650995h22.0392v5.543845h-13.7572v6.92105h11.975v5.0568h-11.975v7.2737h14.1117v5.8556z"/><path d="m72.9719 31.1952v-30.650995h11.1413l7.7405 19.584595 7.9345-19.584595h10.5828v30.650995h-8.148v-21.70166l-9.0218 22.01276h-5.3265l-8.8484-22.01276v21.70166z"/><path d="m118.253 31.1952v-30.650995h22.039v5.543845h-13.756v6.92105h11.974v5.0568h-11.974v7.2737h14.112v5.8556z"/><path d="m146.303 31.1952v-30.650995h9.959l10.566 20.518395v-20.518395h6.053v30.650995h-9.677l-10.846-20.7946v20.7946z"/><path d="m178.981 30.6993v-6.0533c3.429 1.0844 6.489 1.6266 9.182 1.6266 3.675 0 5.511-.9678 5.511-2.9021 0-.7211-.261-1.3271-.779-1.8178-.551-.5204-1.961-1.242-4.231-2.1663-4.036-1.6449-6.679-3.0587-7.918-4.2429-1.591-1.5306-2.385-3.4852-2.385-5.86591 0-3.01746 1.157-5.31965 3.476-6.90697 2.289-1.573432 5.276-2.3593438 8.958-2.3593438 2.07 0 4.752.3274468 8.042.9853588l.759.131425v5.82299c-2.857-1.13711-5.517-1.70445-7.98-1.70445-3.438 0-5.152.9439-5.152 2.83592 0 .70722.346 1.28403 1.04 1.73122.551.34796 2.152 1.11276 4.803 2.29556 3.725 1.661 6.219 3.1048 7.475 4.3329 1.48 1.4567 2.218 3.3417 2.218 5.6521 0 3.3209-1.441 5.8542-4.324 7.5997-2.361 1.4154-5.413 2.1202-9.151 2.1202-3.161.0002-6.343-.3703-9.544-1.1149z"/></g></svg>