<svg fill="none" height="66" viewBox="0 0 151 66" width="151" xmlns="http://www.w3.org/2000/svg" xmlns:xlink="http://www.w3.org/1999/xlink"><clipPath id="a"><path d="m0 0h150.857v66h-150.857z"/></clipPath><g clip-path="url(#a)"><path d="m147.526 0-8.222 17.6024-3.108-6.6785h-3.358l5.102 10.9237h2.714l10.203-21.84458739v-.00301261z" fill="#e02826"/><g fill="#000"><path d="m112.175 32.6868h6.641v-12.1143c0-2.7625 1.616-4.7174 4-4.7174 2.299 0 3.491 1.6144 3.491 3.9102v12.9215h6.642v-14.1973c0-4.8023-2.894-8.2032-7.577-8.2032-2.981 0-5.066 1.276-6.641 3.6136h-.128v-2.9766h-6.428zm-13.0273-22.3591c-6.9396 0-11.5788 4.9741-11.5788 11.5202 0 6.5033 4.6392 11.5198 11.5788 11.5198 6.9383 0 11.5793-5.0165 11.5793-11.5198 0-6.5459-4.641-11.5202-11.5793-11.5202zm-.0427 18.1517c-3.151 0-4.8098-2.636-4.8098-6.6312 0-4.0382 1.6588-6.6324 4.8098-6.6324 3.15 0 4.897 2.5943 4.897 6.6324 0 3.9952-1.747 6.6312-4.897 6.6312zm-30.4374 4.2074h18.6462v-5.2288h-10.5584v-.1264l10.0906-11.3063v-5.102h-18.1782v5.2285h10.2166v.1279l-10.2166 11.3925v5.0146zm-8.5145 0h6.6829v-21.7635h-6.6829zm-15.4962 0h6.6409v-9.9884c0-4.5474 2.7238-6.5466 6.895-5.9941h.1281v-5.7375c-.3405-.1279-.7232-.1705-1.3616-.1705-2.5963 0-4.3418 1.1904-5.832 3.7403h-.1282v-3.6133h-6.3422zm-12.2182-4.1659c-2.9372 0-4.7246-1.9125-5.0658-4.8455h15.7089c.0422-4.6755-1.1913-8.4158-3.7896-10.7535-1.83-1.7005-4.257-2.6359-7.3215-2.6359-6.5559 0-11.1115 4.9736-11.1115 11.4764 0 6.5459 4.3433 11.5622 11.5371 11.5622 2.7249 0 4.8954-.723 6.6837-1.9559 1.9156-1.3165 3.2778-3.2301 3.6614-5.1424h-6.3865c-.638 1.4458-1.9583 2.2946-3.9162 2.2946zm-.3407-13.4732c2.3412 0 3.9594 1.742 4.2145 4.2924h-8.8974c.5111-2.5933 1.9159-4.2924 4.6829-4.2924zm-24.52045 17.6391h6.98165l7.5776-21.7634h-6.6833l-4.2567 13.9849h-.0866l-4.25646-13.985h-6.85374zm52.57555-29.50051h6.6829v5.90819h-6.6829z"/><path d="m4.2146 43.5322h6.6481v3.1063h.128c1.3637-2.2552 3.4519-3.7445 6.6055-3.7445 2.8553 0 5.0287 1.4894 6.1367 3.8298h.0853c1.7047-2.6383 4.0485-3.8298 6.8611-3.8298 4.9436 0 7.4152 3.3616 7.4152 8.2553v14.1698h-6.9463v-12.9358c0-2.3405-.9803-3.7022-3.0686-3.7022-2.2159 0-3.4519 1.8297-3.4519 4.4255v12.2125h-6.9465v-12.9358c0-2.3405-.9802-3.7022-3.0685-3.7022-2.1734 0-3.4519 1.8297-3.4519 4.4255v12.2125h-6.9462zm35.371 10.8508c0-6.5105 4.56-11.489 11.2081-11.489 3.111 0 5.5829 1.0213 7.4581 2.7234 2.5996 2.3828 3.8779 6.1701 3.8355 10.5955h-15.6831c.426 2.9361 2.0456 4.766 4.9009 4.766 1.8325 0 3.0259-.8085 3.6225-2.1702h6.7759c-.4687 1.9575-1.7473 3.8298-3.665 5.1489-1.8325 1.2767-4.0486 2.0001-6.8186 2.0001-7.2021-.0002-11.6343-4.979-11.6343-11.5747zm15.4698-2.2977c-.2557-2.5956-1.8751-4.2553-4.1338-4.2553-2.6422 0-4.006 1.6597-4.4747 4.2553zm33.8795-16.2679h6.9465v5.944h-6.9465zm0 7.7148h6.9465v21.7869h-6.9465zm8.6085 15.7019c0-4.8084 3.8356-6.2552 8.3526-6.8508 4.091-.5108 5.54-.9362 5.54-2.4256 0-1.4042-.895-2.3405-2.983-2.3405-2.216 0-3.324.9788-3.537 2.8086h-6.3923c.1706-4.0426 3.2813-7.4895 9.8873-7.4895 3.281 0 5.497.5958 7.074 1.7873 1.875 1.3617 2.77 3.4893 2.77 6.2126v10.9785c0 1.7448.171 2.7234.767 3.1065v.2978h-6.733c-.341-.468-.554-1.3192-.725-2.4256h-.085c-1.278 1.8297-3.196 2.9787-6.477 2.9787-4.348.0003-7.4586-2.3404-7.4586-6.638zm14.0636-1.7021v-2.5957c-.895.468-2.174.8086-3.58 1.149-2.685.5958-3.793 1.2765-3.793 2.9361 0 1.7446 1.279 2.4255 2.983 2.4255 2.6 0 4.39-1.5744 4.39-3.9149zm-32.3031-21.7146v10.1831h-.1279c-1.2785-1.8298-3.0258-3.1065-6.0942-3.1065-5.6252 0-9.5459 4.7232-9.5459 11.5318 0 7.2765 3.9631 11.5743 9.5459 11.5743 2.8554 0 5.1141-1.3617 6.4351-3.6171h.0852v2.9361h6.6482v-29.5017zm-4.432 24.6933c-2.6848 0-4.3041-2.3828-4.3041-6.1701 0-3.6594 1.6193-6.2125 4.3895-6.2125 3.0257 0 4.5174 2.6382 4.5174 6.2977-.0002 3.5745-1.7049 6.0849-4.6028 6.0849z"/></g></g></svg>