<svg fill="none" height="43" viewBox="0 0 139 43" width="139" xmlns="http://www.w3.org/2000/svg" xmlns:xlink="http://www.w3.org/1999/xlink"><clipPath id="a"><path d="m0 0h139v43h-139z"/></clipPath><g clip-path="url(#a)" fill="#1d1765"><path d="m46.9666 5.32396 2.5355.02468 2.65 8.24506 3.0476-8.24506h2.4704l3.0004 8.24506 2.7444-8.24506h2.5332l-4.0424 11.61486h-2.4053l-3.0925-8.30113-3.1441 8.30113h-2.4367z"/><path d="m68.4073.224359c.2224-.008846.4442.028393.6515.109373.2073.080981.3955.203949.5529.361165.1574.157217.2805.345273.3615.552343.0811.20706.1184.42865.1095.65081-.0159.43299-.1992.84296-.5115 1.14368-.3122.30072-.729.46875-1.1628.46875-.4337 0-.8505-.16803-1.1627-.46875-.3123-.30072-.4956-.71069-.5115-1.14368-.0089-.22196.0284-.44335.1093-.65026s.2038-.394858.3609-.55204c.1572-.157183.3451-.2802.5522-.361323.207-.081122.4285-.118597.6507-.110068zm-1.2576 5.124281h2.5153v11.61486h-2.5153z"/><path d="m70.844 14.5697 2.2323-1.2071c.6738 1.0926 1.6732 1.6715 3.0678 1.6715 1.4418 0 2.1874-.6955 2.1874-1.5099 0-.9513-1.3969-1.16-2.8836-1.4853-1.9763-.3948-4.0694-1.0455-4.0694-3.43935 0-1.83523 1.7674-3.53136 4.5343-3.50668 2.2458 0 3.7662.8346 4.7431 2.24356l-2.0931 1.13748c-.5569-.8346-1.4171-1.3237-2.65-1.3237-1.3722 0-2.0212.6282-2.0212 1.39549 0 .83461.9993 1.02082 2.7668 1.41569 1.9538.41951 4.1637 1.06791 4.1637 3.50891 0 1.741-1.5586 3.74-4.7903 3.7153-2.5153.009-4.1884-.8951-5.1878-2.6159z"/><path d="m81.7678 11.2021c0-3.41471 2.6276-6.08679 6.0457-6.08679s5.9783 2.48586 5.9783 5.92299v.9759h-9.6277c.3256 1.7949 1.7203 2.975 3.7437 2.975.7081.0183 1.4062-.1697 2.0091-.541.603-.3713 1.0848-.9099 1.3866-1.55l2.0459 1.1375c-1.0241 1.9048-2.8611 3.1589-5.4416 3.1589-3.6741 0-6.14-2.6249-6.14-5.9925zm2.5131-1.30128h6.9754c-.3728-1.67145-1.6506-2.60253-3.4428-2.60253-.7931-.01371-1.5687.23368-2.2072.70402-.6384.47034-1.1042 1.13749-1.3254 1.89851z"/><path d="m94.4048 5.34863h1.9763v-2.74163l2.513-1.37081v4.11244h2.4709v2.23009h-2.4709v4.62168c0 2.091.3257 2.4164 2.4709 2.4164v2.3467h-.371c-3.5349 0-4.6062-1.1218-4.6062-4.7384v-4.64638h-1.9763z"/><path d="m102.058 11.2021c0-3.41471 2.628-6.08679 6.046-6.08679s5.983 2.48586 5.983 5.92299v.9759h-9.632c.325 1.7949 1.72 2.975 3.743 2.975.708.0184 1.406-.1696 2.009-.5409.602-.3713 1.084-.91 1.385-1.5501l2.046 1.1375c-1.024 1.9048-2.861 3.1589-5.442 3.1589-3.672 0-6.138-2.6249-6.138-5.9925zm2.511-1.30128h6.978c-.373-1.67145-1.651-2.60253-3.443-2.60253-.793-.01345-1.569.234-2.208.70427-.639.47026-1.105 1.13725-1.327 1.89826z"/><path d="m115.172 11.155c-.009-.7971.142-1.58792.444-2.32581.302-.7379.748-1.408 1.313-1.97082s1.237-1.00699 1.977-1.30635 1.532-.44785 2.329-.43672c2.581 0 4.627 1.4628 5.512 3.55379l-2.233.95351c-.26-.65348-.713-1.2124-1.298-1.60237-.586-.38996-1.277-.59248-1.981-.58061-2.07 0-3.627 1.64902-3.627 3.71538-.007.4863.082.9694.263 1.4208.182.4515.451.8623.793 1.2084.342.3462.75.6207 1.2.8076.449.1868.932.2823 1.419.2807 1.572 0 2.744-.9759 3.278-2.2772l2.246.9535c-.929 2.1359-2.861 3.6458-5.581 3.6458-.796.0078-1.586-.1431-2.324-.4437-.737-.3007-1.407-.7451-1.971-1.3074s-1.01-1.2311-1.312-1.9674-.454-1.5254-.447-2.3211z"/><path d="m128.236 0h2.47v6.81144c.426-.53893.971-.97234 1.593-1.26652.621-.29418 1.302-.4412 1.989-.42961 2.931 0 4.716 1.90478 4.716 5.06369v6.7845h-2.54v-6.5512c0-1.92941-.929-3.14093-2.814-3.14093-1.65 0-2.919 1.25414-2.919 3.29803v6.3941h-2.495z"/><path d="m47.582 31.5354c0-3.7198 2.7714-6.0464 5.8212-6.0464.7391-.0055 1.47.1547 2.1389.4688.669.3141 1.2588.7742 1.7261 1.3463v-1.5705h2.4929v11.3479c0 3.4192-2.1425 5.9297-5.8683 5.9297-2.9196 0-4.8869-1.3955-5.7718-3.2778l2.3042-1.0926c.5817 1.2788 1.7001 2.0909 3.4676 2.0909 2.12 0 3.4001-1.557 3.4001-3.556v-1.465c-.4669.5891-1.0616 1.0647-1.7393 1.3908s-1.4207.4941-2.1729.4915c-2.9577-.0112-5.7987-2.3692-5.7987-6.0576zm9.8255-.0224c0-2.0708-1.5721-3.767-3.6787-3.767-2.0729 0-3.6786 1.6513-3.6786 3.767s1.6057 3.7893 3.6786 3.7893c2.1178 0 3.6787-1.6961 3.6787-3.7893z"/><path d="m61.9529 20.3737h2.5018v16.9748h-2.5018z"/><path d="m66.0831 31.5354c.0022-1.1936.3587-2.3598 1.0243-3.351.6657-.9913 1.6107-1.763 2.7154-2.2178 1.1047-.4547 2.3197-.572 3.4911-.3369 1.1715.235 2.2468.8118 3.0901 1.6574s1.4167 1.922 1.6476 3.0932c.231 1.1711.1091 2.3843-.3502 3.4863-.4593 1.1019-1.2354 2.043-2.2301 2.7043s-2.1634 1.0131-3.3582 1.0109c-.7952.0051-1.5835-.148-2.3188-.4503-.7354-.3023-1.4032-.7479-1.9644-1.3106-.5613-.5628-1.0048-1.2316-1.3047-1.9673-.2999-.7358-.4502-1.5238-.4421-2.3182zm9.6143 0c0-2.0461-1.5833-3.7198-3.5933-3.7198s-3.5619 1.6737-3.5619 3.7198c0 2.0462 1.5586 3.7221 3.5619 3.7221s3.5933-1.6759 3.5933-3.7221z"/><path d="m82.244 35.769v1.5705h-2.4435v-16.9658h2.4704v6.9057c.4691-.5681 1.0594-1.0241 1.7278-1.3347s1.3979-.4678 2.135-.4601c3.0498 0 5.7965 2.3265 5.7965 6.0576 0 3.731-2.8163 6.0463-5.7718 6.0463-1.563-.0067-3.052-.6798-3.9144-1.8195zm7.218-4.2627c0-2.1157-1.608-3.767-3.6786-3.767-2.0707 0-3.654 1.6962-3.654 3.767s1.5586 3.7893 3.654 3.7893c2.0953 0 3.6786-1.6669 3.6786-3.7826z"/><path d="m93.0015 31.5354c0-3.7198 2.7691-6.0464 5.8189-6.0464 1.5366 0 3.0026.6731 3.8646 1.7455v-1.5121h2.491v11.6261h-2.491v-1.6041c-.467.5791-1.06 1.0452-1.733 1.3634s-1.4094.4802-2.1541.474c-2.9577 0-5.7964-2.358-5.7964-6.0464zm9.8235-.0224c0-2.0708-1.572-3.7669-3.679-3.7669-2.0706 0-3.6764 1.6512-3.6764 3.7669s1.6058 3.7894 3.6764 3.7894c2.118 0 3.679-1.6962 3.679-3.7894z"/><path d="m107.35 20.3737h2.49v16.9748h-2.49z"/><path d="m0 30.991 3 .009v-10.991l-3-.009zm14 6.009h2.9918v-10h-2.9918zm19.9836-16.991v9.991h3.0164v-9.991zm-33.9836-3.0343h3v-16.9747h-3zm7 .0253 3 .0017v-17.0017h-3zm7-.0253h2.9918v-16.9747h-2.9918zm6 20.0253h3v-17h-3zm7-20.0253 3 .027v-17.0017h-3z"/></g></svg>