<svg width="563" height="299" viewBox="0 0 563 299" fill="none" xmlns="http://www.w3.org/2000/svg">
<path d="M0 10C0 4.47716 4.47715 0 10 0H553C558.523 0 563 4.47715 563 10V296H0V10Z" fill="#F8F8FB"/>
<line x1="147.143" y1="94.5209" x2="432.143" y2="179.521" stroke="#0057EB" stroke-dasharray="6 6"/>
<line x1="120.453" y1="107.789" x2="181.777" y2="239.782" stroke="#0057EB" stroke-dasharray="6 6"/>
<line x1="424.128" y1="206.483" x2="195.123" y2="267.246" stroke="#0057EB" stroke-dasharray="6 6"/>
<path d="M193.894 214.108L237.805 218.707C238.202 218.749 238.583 218.867 238.925 219.054C239.268 219.24 239.565 219.492 239.799 219.793C240.033 220.094 240.199 220.438 240.287 220.806C240.376 221.174 240.385 221.558 240.314 221.934L230.639 272.125C230.498 272.846 230.07 273.497 229.444 273.94C228.818 274.384 228.044 274.585 227.283 274.503L153.976 266.828C153.214 266.747 152.525 266.388 152.053 265.827C151.581 265.266 151.363 264.545 151.443 263.817L157.026 213.205C157.067 212.825 157.188 212.455 157.382 212.116C157.575 211.777 157.838 211.476 158.154 211.232C158.47 210.988 158.833 210.805 159.22 210.695C159.608 210.586 160.012 210.55 160.409 210.592L193.894 214.108Z" fill="#24457C"/>
<g filter="url(#filter0_d_323:7129)">
<path d="M160.13 172.185C160.122 171.581 160.611 171.065 161.22 171.032L212.432 168.253C212.713 168.238 212.984 168.329 213.191 168.508L220.975 175.238C221.2 175.432 221.33 175.714 221.334 176.016L222.101 238.43C222.109 239.034 221.62 239.55 221.01 239.583L162.103 242.78C161.493 242.813 160.993 242.35 160.985 241.747L160.13 172.185Z" fill="white"/>
</g>
<path d="M219.447 175.041L211.042 167.767L211.136 175.493L219.447 175.041Z" fill="#AC9234"/>
<rect width="0.504026" height="19.8985" transform="matrix(0.0217311 0.991374 -1.00164 0.0374498 188.825 184.117)" fill="#B29A43"/>
<rect width="0.503834" height="25.4585" transform="matrix(0.0221272 0.991324 -1.0016 0.0369128 193.751 178.318)" fill="#B29A43"/>
<path fill-rule="evenodd" clip-rule="evenodd" d="M189.292 206.799C193.473 206.557 196.847 203.278 196.827 199.474C196.807 195.67 193.402 192.781 189.221 193.022C185.039 193.264 181.666 196.543 181.686 200.347C181.705 204.151 185.111 207.04 189.292 206.799ZM189.299 208.132C194.289 207.844 198.316 203.93 198.292 199.389C198.269 194.849 194.204 191.401 189.214 191.689C184.223 191.977 180.197 195.891 180.22 200.432C180.244 204.972 184.308 208.42 189.299 208.132Z" fill="#AC9234"/>
<path d="M203.431 211.879L202.399 212.882L194.418 206.112L195.45 205.11L203.431 211.879Z" fill="#AC9234"/>
<path d="M234.741 220.293L234.221 216.219C234.142 215.608 233.855 215.044 233.402 214.614C232.949 214.184 232.356 213.911 231.712 213.836L211.773 211.757C211.126 211.693 210.468 211.834 209.898 212.156C209.329 212.479 208.879 212.965 208.619 213.542L206.892 217.384C206.631 217.961 206.182 218.448 205.612 218.77C205.043 219.093 204.384 219.233 203.737 219.17L159.753 214.58C159.356 214.538 158.951 214.574 158.563 214.684C158.174 214.794 157.811 214.978 157.495 215.222C157.178 215.467 156.914 215.769 156.72 216.109C156.526 216.449 156.405 216.82 156.364 217.201L150.751 267.946C150.672 268.677 150.893 269.399 151.367 269.961C151.841 270.524 152.532 270.883 153.296 270.964L226.726 278.625C227.487 278.706 228.261 278.503 228.887 278.058C229.512 277.613 229.94 276.96 230.079 276.238L239.79 225.913C239.863 225.536 239.855 225.151 239.767 224.781C239.679 224.412 239.513 224.066 239.278 223.764C239.044 223.462 238.746 223.21 238.402 223.024C238.059 222.837 237.677 222.72 237.279 222.679C236.628 222.611 236.027 222.341 235.568 221.909C235.11 221.478 234.819 220.91 234.741 220.293Z" fill="#0849B8"/>
<path d="M222.784 266.721L195.869 263.549C194.995 263.446 194.191 264.045 194.073 264.886L193.552 268.612C193.434 269.452 194.047 270.218 194.921 270.321L221.836 273.493C222.71 273.596 223.514 272.997 223.631 272.156L224.153 268.43C224.271 267.589 223.658 266.824 222.784 266.721Z" fill="white"/>
<g filter="url(#filter1_dd_323:7129)">
<path d="M262.28 164.774L302.218 197.862L303.678 209.225L263.545 259.624L217.276 221.291L262.28 164.774Z" fill="white"/>
</g>
<path d="M303.983 208.23L302.531 196.903L297.676 203.002L303.983 208.23Z" fill="#AC9234"/>
<rect width="0.426966" height="42.9985" transform="matrix(-0.626167 0.777278 -0.773356 -0.62995 284.448 219.632)" fill="#B29A43"/>
<rect width="0.427537" height="23.244" transform="matrix(-0.625896 0.777533 -0.773101 -0.630318 273.561 201.805)" fill="#B29A43"/>
<rect width="0.427541" height="23.244" transform="matrix(-0.625892 0.777537 0.773098 0.630322 238.229 227.438)" fill="#B29A43"/>
<rect width="0.426966" height="43.0245" transform="matrix(-0.626166 0.777279 -0.773356 -0.629951 275.679 230.432)" fill="#B29A43"/>
<rect width="3.14506" height="43.1807" transform="matrix(-0.624431 0.778909 -0.771711 -0.632316 276.61 229.401)" fill="#D8B845" fill-opacity="0.6"/>
<rect width="0.42926" height="9.31268" transform="matrix(-0.625102 0.778279 -0.772349 -0.6314 245.204 214.6)" fill="#B29A43"/>
<rect width="0.42926" height="9.3127" transform="matrix(-0.625104 0.778278 -0.77235 -0.631399 270.094 183.618)" fill="#B29A43"/>
<rect width="0.427643" height="21.3866" transform="matrix(-0.625846 0.77758 -0.773054 -0.630386 250.148 227.593)" fill="#B29A43"/>
<rect width="0.428389" height="13.4922" transform="matrix(-0.625504 0.777901 -0.772729 -0.630853 258.137 225.124)" fill="#B29A43"/>
<rect width="0.432288" height="4.19137" transform="matrix(-0.623784 0.779515 -0.771091 -0.633203 269.037 233.988)" fill="#B29A43"/>
<rect width="0.43003" height="7.25789" transform="matrix(-0.624753 0.778608 -0.772019 -0.631875 258.71 234.557)" fill="#B29A43"/>
<rect width="0.429564" height="8.38384" transform="matrix(-0.624964 0.778409 -0.772218 -0.631589 267.211 241.474)" fill="#B29A43"/>
<rect width="0.429571" height="8.38396" transform="matrix(-0.624959 0.778414 0.772214 0.631594 228.924 219.868)" fill="#B29A43"/>
<rect width="0.426967" height="43.0242" transform="matrix(-0.626166 0.777279 -0.773355 -0.629951 280.075 225.041)" fill="#B29A43"/>
<rect width="3.06955" height="11.8759" transform="matrix(-0.621556 0.781595 -0.768939 -0.63627 279.131 222.769)" fill="#D8B845" fill-opacity="0.6"/>
<rect width="2.98116" height="21.7266" transform="matrix(-0.623142 0.780116 -0.770477 -0.634081 264.378 210.553)" fill="#D8B845" fill-opacity="0.6"/>
<rect opacity="0.6" width="3.22797" height="28.6622" transform="matrix(-0.623588 0.779699 -0.770905 -0.63347 276.481 211.346)" fill="#D8B845"/>
<circle cx="119.878" cy="94.8781" r="37.8781" fill="#F4E8B9"/>
<mask id="mask0_323:7129" style="mask-type:alpha" maskUnits="userSpaceOnUse" x="82" y="57" width="76" height="76">
<circle cx="119.878" cy="94.8781" r="37.8781" fill="#05B01C"/>
</mask>
<g mask="url(#mask0_323:7129)">
<path fill-rule="evenodd" clip-rule="evenodd" d="M114.579 101.153C111.901 98.0105 110.089 94.1588 110.392 89.8429C111.264 77.4075 128.575 80.1432 131.942 86.4195C135.309 92.6958 134.909 108.616 130.557 109.738C128.822 110.185 125.125 109.089 121.362 106.821L123.724 123.531H109.778L114.579 101.153Z" fill="#D1A881"/>
<path fill-rule="evenodd" clip-rule="evenodd" d="M104.311 85.7036C103.86 85.2572 103.614 84.6201 103.402 84.0151C103.181 83.3867 102.967 82.7517 102.82 82.0976C102.527 80.7906 102.525 79.2876 103.457 78.2727C104.205 77.4589 105.327 77.0939 106.362 77.0145C107.052 76.9616 107.761 77.0583 108.422 77.2757C109.078 77.4913 109.644 77.9212 110.28 78.188C110.304 76.7795 110.545 75.3058 111.26 74.1032C111.947 72.946 113.044 72.2967 114.292 72.1249C115.574 71.9486 116.839 72.2485 117.986 72.8689C118.273 73.0242 118.558 73.187 118.83 73.3712C119.058 73.5255 119.295 73.7112 119.563 73.774C119.861 73.844 120.009 73.6718 120.203 73.4542C120.43 73.1991 120.686 72.9744 120.957 72.7752C122.155 71.8946 123.727 71.5325 125.115 72.0604C125.754 72.3035 126.376 72.7166 126.81 73.2857C127.197 73.793 127.473 74.5978 128.006 74.9512C128.233 75.1013 128.393 74.9025 128.599 74.7555C128.909 74.5348 129.204 74.2912 129.518 74.0764C129.958 73.7747 130.435 73.5491 130.946 73.4309C131.693 73.258 132.726 73.2985 132.94 74.2775C133.02 74.6453 132.958 75.0386 132.933 75.4091C132.897 75.9179 132.86 76.4265 132.816 76.9345C132.782 77.3202 132.74 77.6927 132.667 78.0715C132.628 78.2734 132.507 78.6498 132.593 78.852C132.701 79.1048 133.201 78.9611 133.414 78.9699C133.836 78.9873 134.259 79.0612 134.648 79.2412C134.95 79.3808 135.268 79.5861 135.395 79.9322C135.474 80.1448 135.453 80.3632 135.416 80.5819C135.372 80.8444 135.422 80.9837 135.455 81.2485C136.021 80.9698 137.983 80.3506 138.229 81.3649C138.312 81.7027 138.124 82.0843 137.982 82.3691C137.731 82.8687 137.403 83.3253 137.068 83.7607C136.368 84.6691 135.532 85.4527 134.633 86.1228C135.686 86.591 135.961 87.9723 135.049 88.7953C134.647 89.1586 134.105 89.2395 133.597 89.2163C133.411 89.2078 133.143 89.1363 132.997 89.1687C132.918 89.1861 132.834 89.2528 132.725 89.2603C132.008 89.3094 131.199 89.1367 130.498 88.9776C129.25 88.6942 128.067 88.1026 127.102 87.2016C126.854 86.9705 126.65 86.8375 126.317 86.8409C126.025 86.8438 125.738 86.9239 125.446 86.9313C124.674 86.951 123.978 86.5736 123.261 86.3224C123.217 87.2909 122.941 88.3576 122.545 89.229C122.222 89.9396 121.547 90.0428 120.884 90.1052C118.764 90.3046 116.637 90.082 114.514 90.085C116.569 90.5495 118.692 90.7409 120.729 91.2875C121.649 91.5345 120.946 92.155 120.553 92.5851C119.905 93.2934 119.423 94.171 119.088 95.0956C118.083 93.7852 116.306 92.9218 114.732 93.3244C112.993 93.7691 111.768 96.1212 112.88 97.8121C113.526 98.7938 114.692 99.1727 115.662 99.5945C114.906 100.381 114.722 101.544 114.267 102.523C114.042 103.005 113.727 103.551 113.224 103.72C113.038 103.782 112.82 103.787 112.674 103.939C112.492 104.126 112.449 104.336 112.217 104.497C111.291 105.141 109.845 105.091 109.024 104.252C108.282 103.492 108.475 102.29 109.095 101.52C108.108 101.108 106.311 100.58 106.703 99.0425C104.565 98.9006 99.375 95.4335 102.244 92.9C100.67 92.0101 99.223 89.8353 100.234 87.9181C101.013 86.4418 102.825 85.7819 104.311 85.7036Z" fill="#141279"/>
<path fill-rule="evenodd" clip-rule="evenodd" d="M135.715 135.559L155.884 124.513C159.238 120.53 162.543 117.437 165.798 115.233C166.793 114.818 168.532 114.566 166.905 117.454C165.279 120.341 163.697 123.451 164.526 124.341C165.355 125.23 167.421 123.988 168.41 125.465C169.069 126.451 165.539 128.007 157.818 130.135L143.163 143.553L135.715 135.559ZM167.303 144.88L176.163 140.013C177.406 135.283 178.892 132.903 180.621 132.873C181.949 132.255 179.636 138.232 182.154 137.714C184.671 137.195 190.816 132.625 191.875 133.553C193.442 134.926 192.045 139.141 190.399 141.238C187.323 145.157 184.777 146.497 178.483 148.252C175.191 149.17 171.633 151.009 167.808 153.77L167.303 144.88Z" fill="#997659"/>
<path fill-rule="evenodd" clip-rule="evenodd" d="M125.893 133.098C132.957 133.024 142.378 131.532 152.43 125.151L156.377 133.955C149.444 140.835 139.695 146.489 131.17 146.25C124.452 146.061 121.019 137.935 125.893 133.098Z" fill="#2026A2"/>
<path fill-rule="evenodd" clip-rule="evenodd" d="M135.405 147.216C142.905 149.087 155.482 146.881 173.136 140.599C177.515 149.658 179.539 156.117 179.208 159.974C164.064 167.885 151.084 171.412 140.39 171.645C140.73 177.99 139.958 184.028 137.363 189.545C132.029 200.887 100.797 190.383 90.2951 192.45C83.7188 171.093 96.4343 162.413 96.4445 148.748C96.4557 133.782 108.472 110.747 110.24 110.747H126.363C127.253 122.176 131.731 134.772 135.405 147.216Z" fill="#0849B8"/>
</g>
<circle cx="443.878" cy="188.878" r="37.8781" fill="#F4E8B9"/>
<mask id="mask1_323:7129" style="mask-type:alpha" maskUnits="userSpaceOnUse" x="406" y="151" width="76" height="76">
<circle cx="443.878" cy="188.878" r="37.8781" fill="#05B01C"/>
</mask>
<g mask="url(#mask1_323:7129)">
<path fill-rule="evenodd" clip-rule="evenodd" d="M450.92 189.729C454.554 187.386 457.447 184.073 458.21 179.659C460.409 166.94 441.334 164.475 436.179 169.75C431.025 175.024 427.449 191.091 431.789 193.523C433.52 194.493 437.723 194.507 442.29 193.367L435.582 209.394L450.395 213.587L450.92 189.729Z" fill="#D1A881"/>
<path fill-rule="evenodd" clip-rule="evenodd" d="M445.651 177.419C443.186 184.723 440.757 188.042 438.364 187.376C434.774 186.376 432.288 183.339 430.713 182.901C429.565 182.581 429.468 184.032 429.968 185.267C430.38 186.285 433.23 187.95 432.896 189.259C432.561 190.567 430.404 188.882 430.206 189.658C429.877 190.941 428.836 193.236 431.156 193.882C433.504 194.536 440.447 195.59 442.456 192.565C443.752 190.613 445.378 186.273 447.332 179.544C447.478 179.568 447.625 179.6 447.772 179.641C449.784 180.201 451.015 182.221 450.521 184.153C450.27 185.133 449.624 185.902 448.784 186.349C449.335 187.726 449.975 189.182 450.742 190.715C455.408 189.505 460.178 183.489 457.887 175.794C457.613 172.261 455.565 169.845 452.832 168.226C450.696 166.607 448.253 165.812 446.021 165.804C441.847 165.002 437.89 165.182 436.674 165.604C435.724 169.32 436.192 170.632 442.622 172.319C443.992 173.555 444.851 175.267 445.651 177.419Z" fill="#141279"/>
<path fill-rule="evenodd" clip-rule="evenodd" d="M442.921 204.251L437.732 202.377C415.176 215.253 401.746 245.531 374.672 257.872L379.346 265.958C422.288 268.716 439.184 231.88 442.921 204.251Z" fill="#B60000"/>
<path fill-rule="evenodd" clip-rule="evenodd" d="M455.02 273.209C433.604 269.227 417.85 266.299 407.759 264.423C405.6 264.022 406.51 261.072 407.075 259.603C413.607 242.654 430.829 226.275 434.997 201.195L448.974 201.655C457.326 221.345 457.624 243.732 455.02 273.209Z" fill="#DDE3E9"/>
<path fill-rule="evenodd" clip-rule="evenodd" d="M462.723 221.952C464.8 221.768 466.587 220.77 468.083 218.959C474.533 211.151 473.529 206.006 468.453 203.434C463.376 200.862 458.073 203.235 449.565 201.656C449.102 201.57 448.674 201.519 448.28 201.504L443.961 200.946C424.973 238.986 417.11 265.257 420.372 279.76L457.673 286.684C459.052 292.088 460.468 296.681 461.92 300.465L472.084 302.352C478.028 272.562 474.907 245.762 462.723 221.952Z" fill="#B60000"/>
</g>
<defs>
<filter id="filter0_d_323:7129" x="151.078" y="159.199" width="80.0755" height="92.6337" filterUnits="userSpaceOnUse" color-interpolation-filters="sRGB">
<feFlood flood-opacity="0" result="BackgroundImageFix"/>
<feColorMatrix in="SourceAlpha" type="matrix" values="0 0 0 0 0 0 0 0 0 0 0 0 0 0 0 0 0 0 127 0" result="hardAlpha"/>
<feOffset/>
<feGaussianBlur stdDeviation="4.52584"/>
<feColorMatrix type="matrix" values="0 0 0 0 0 0 0 0 0 0 0 0 0 0 0 0 0 0 0.15 0"/>
<feBlend mode="normal" in2="BackgroundImageFix" result="effect1_dropShadow_323:7129"/>
<feBlend mode="normal" in="SourceGraphic" in2="effect1_dropShadow_323:7129" result="shape"/>
</filter>
<filter id="filter1_dd_323:7129" x="177.958" y="125.457" width="165.037" height="173.484" filterUnits="userSpaceOnUse" color-interpolation-filters="sRGB">
<feFlood flood-opacity="0" result="BackgroundImageFix"/>
<feColorMatrix in="SourceAlpha" type="matrix" values="0 0 0 0 0 0 0 0 0 0 0 0 0 0 0 0 0 0 127 0" result="hardAlpha"/>
<feOffset/>
<feGaussianBlur stdDeviation="19.6586"/>
<feColorMatrix type="matrix" values="0 0 0 0 0 0 0 0 0 0 0 0 0 0 0 0 0 0 0.15 0"/>
<feBlend mode="normal" in2="BackgroundImageFix" result="effect1_dropShadow_323:7129"/>
<feColorMatrix in="SourceAlpha" type="matrix" values="0 0 0 0 0 0 0 0 0 0 0 0 0 0 0 0 0 0 127 0" result="hardAlpha"/>
<feOffset/>
<feGaussianBlur stdDeviation="4.52584"/>
<feColorMatrix type="matrix" values="0 0 0 0 0 0 0 0 0 0 0 0 0 0 0 0 0 0 0.15 0"/>
<feBlend mode="normal" in2="effect1_dropShadow_323:7129" result="effect2_dropShadow_323:7129"/>
<feBlend mode="normal" in="SourceGraphic" in2="effect2_dropShadow_323:7129" result="shape"/>
</filter>
</defs>
</svg>
