<svg width="563" height="296" viewBox="0 0 563 296" fill="none" xmlns="http://www.w3.org/2000/svg">
<path d="M0 10C0 4.47716 4.47715 0 10 0H553C558.523 0 563 4.47715 563 10V296H0V10Z" fill="#F8F8FB"/>
<rect x="171" y="159.041" width="13.0309" height="121.959" fill="#E4EBF7"/>
<rect x="210.092" y="174.052" width="14.6598" height="106.948" fill="#E4EBF7"/>
<rect x="250.815" y="99" width="13.0309" height="182" fill="#0057EB"/>
<rect x="289.908" y="129.021" width="14.6598" height="151.979" fill="#E4EBF7"/>
<rect x="330.629" y="190.938" width="13.0309" height="90.0619" fill="#E4EBF7"/>
<rect x="369.721" y="136.526" width="14.6598" height="144.474" fill="#E4EBF7"/>
<rect x="410.443" y="159.041" width="13.0309" height="121.959" fill="white"/>
<path d="M428 181L375.768 236L314.581 214.5L247 258L184 221.773L105 277" stroke="#0849B8" stroke-width="10" stroke-linecap="round" stroke-linejoin="round"/>
<path d="M446.007 161.335C448.24 160.8 450.24 162.815 449.644 164.999L440.981 196.737C440.374 198.963 437.535 199.692 435.897 198.043L412.11 174.082C410.472 172.433 411.28 169.658 413.556 169.112L446.007 161.335Z" fill="#0849B8"/>
<circle cx="203.5" cy="88.5" r="32.5" fill="#F4E8B9"/>
<path d="M192.344 74.2317H207.963L214.656 80.9255V104.354H192.344V74.2317Z" fill="#0849B8"/>
<path d="M207.963 74.2317L214.657 80.9255H207.963V74.2317Z" fill="#B08920"/>
<path d="M203.197 91.5447C203.197 91.9854 203.017 92.371 202.658 92.7016C202.305 93.0322 201.887 93.1974 201.403 93.1974C200.642 93.1974 200.058 92.9461 199.65 92.4433C199.242 91.9406 199.038 91.2451 199.038 90.3567C199.038 89.5303 199.387 88.6971 200.086 87.8569C200.791 87.0167 201.638 86.3797 202.627 85.9459L203.083 86.6793C202.302 87.058 201.69 87.4988 201.247 88.0015C200.805 88.5042 200.549 89.1137 200.48 89.8299H201.061C201.489 89.8299 201.838 89.8781 202.108 89.9745C202.378 90.0709 202.596 90.2052 202.761 90.3774C202.92 90.5427 203.031 90.7251 203.093 90.9249C203.162 91.1246 203.197 91.3312 203.197 91.5447ZM208.521 91.5447C208.521 91.9854 208.341 92.371 207.982 92.7016C207.629 93.0322 207.211 93.1974 206.727 93.1974C205.966 93.1974 205.382 92.9461 204.974 92.4433C204.566 91.9406 204.362 91.2451 204.362 90.3567C204.362 89.5303 204.711 88.6971 205.409 87.8569C206.115 87.0167 206.962 86.3797 207.95 85.9459L208.407 86.6793C207.625 87.058 207.014 87.4988 206.571 88.0015C206.129 88.5042 205.873 89.1137 205.804 89.8299H206.384C206.813 89.8299 207.162 89.8781 207.432 89.9745C207.702 90.0709 207.919 90.2052 208.085 90.3774C208.244 90.5427 208.355 90.7251 208.417 90.9249C208.486 91.1246 208.521 91.3312 208.521 91.5447Z" fill="white"/>
<circle cx="120.5" cy="172.5" r="32.5" fill="#F4E8B9"/>
<path d="M110.569 158.056H125.081L131.3 164.275V186.042H110.569V158.056Z" fill="#0849B8"/>
<path d="M125.082 158.056L131.301 164.275H125.082V158.056Z" fill="#B08920"/>
<rect x="128.708" y="168.421" width="1.03652" height="12.4383" transform="rotate(90 128.708 168.421)" fill="white"/>
<rect x="128.708" y="176.713" width="1.03652" height="12.4383" transform="rotate(90 128.708 176.713)" fill="white"/>
<rect x="124.562" y="171.53" width="1.03652" height="8.29218" transform="rotate(90 124.562 171.53)" fill="white"/>
<rect x="124.562" y="179.823" width="1.03652" height="8.29218" transform="rotate(90 124.562 179.823)" fill="white"/>
<rect x="114.196" y="168.421" width="1.03652" height="1.03652" transform="rotate(90 114.196 168.421)" fill="white"/>
<rect x="114.196" y="176.713" width="1.03652" height="1.03652" transform="rotate(90 114.196 176.713)" fill="white"/>
<circle cx="442.5" cy="121.5" r="32.5" fill="#F4E8B9"/>
<rect width="28.8889" height="21.3992" transform="matrix(-1 0 0 1 456.944 110.667)" fill="#0849B8"/>
<rect width="28.8889" height="3.20988" transform="matrix(-1 0 0 1 456.944 110.667)" fill="#B08920"/>
<circle r="0.534979" transform="matrix(-1 0 0 1 455.339 112.272)" fill="white"/>
<circle r="0.534979" transform="matrix(-1 0 0 1 453.199 112.272)" fill="white"/>
<circle r="0.534979" transform="matrix(-1 0 0 1 451.06 112.272)" fill="white"/>
<path d="M442.501 122.971C441.319 122.971 440.361 122.014 440.361 120.831C440.361 119.649 441.319 118.691 442.501 118.691C443.684 118.691 444.641 119.649 444.641 120.831C444.641 122.014 443.684 122.971 442.501 122.971ZM442.501 124.041C443.93 124.041 446.781 124.758 446.781 126.181V127.251H438.222V126.181C438.222 124.758 441.073 124.041 442.501 124.041Z" fill="white"/>
</svg>
