<svg width="40" height="40" viewBox="0 0 40 40" fill="none" xmlns="http://www.w3.org/2000/svg">
<circle cx="20" cy="20.0005" r="20" fill="#0849B8" fill-opacity="0.2"/>
<path d="M19.9998 11.6672C21.1049 11.6672 22.1647 12.1062 22.9461 12.8876C23.7275 13.669 24.1665 14.7288 24.1665 15.8338C24.1665 16.9389 23.7275 17.9987 22.9461 18.7801C22.1647 19.5615 21.1049 20.0005 19.9998 20.0005C18.8948 20.0005 17.835 19.5615 17.0536 18.7801C16.2722 17.9987 15.8332 16.9389 15.8332 15.8338C15.8332 14.7288 16.2722 13.669 17.0536 12.8876C17.835 12.1062 18.8948 11.6672 19.9998 11.6672V11.6672ZM19.9998 22.0838C24.604 22.0838 28.3332 23.9484 28.3332 26.2505V28.3338H11.6665V26.2505C11.6665 23.9484 15.3957 22.0838 19.9998 22.0838Z" fill="#0849B8"/>
</svg>
