<svg width="1349" height="1286" viewBox="0 0 1349 1286" fill="none" xmlns="http://www.w3.org/2000/svg">
<mask id="mask0_323:6941" style="mask-type:alpha" maskUnits="userSpaceOnUse" x="-1" y="0" width="1350" height="1286">
<rect x="-1" y="0.00390625" width="1350" height="1285" fill="#C4C4C4"/>
</mask>
<g mask="url(#mask0_323:6941)">
<path d="M142.67 221.561C33.3504 323.755 -2.39348 540.688 34.083 774.976C71.2534 1007.72 180.644 1257.81 325.656 1278.95C471.361 1298.55 652.319 1087.96 780.538 960.05C908.758 832.138 984.239 786.901 1090.78 690.891C1198.76 595.796 1337.1 451.475 1329.62 310.366C1322.5 170.488 1167.44 34.455 1024.14 7.44449C879.781 -19.2501 747.19 63.0782 589.976 97.8114C433.131 133.775 250.929 119.683 142.67 221.561Z" fill="#EBF0FB"/>
</g>
</svg>
