<svg width="176" height="40" viewBox="0 0 176 40" fill="none" xmlns="http://www.w3.org/2000/svg">
<path fill-rule="evenodd" clip-rule="evenodd" d="M99.0858 7.41796C99.0858 7.67704 99.2605 8.17053 99.9716 8.17053C100.446 8.17053 100.907 7.93612 101.157 7.54133C101.244 7.39329 101.344 7.18356 101.344 6.44357V6.24594C100.945 6.39423 100.857 6.40632 100.034 6.60372C99.5973 6.70241 99.0858 6.91214 99.0858 7.41796ZM99.1856 5.62933C99.9217 5.48128 100.92 5.25921 101.344 5.08649C101.344 4.61768 101.344 4.1242 100.371 4.1242C99.4351 4.1242 99.2729 4.56834 99.1357 4.92611L97.1645 4.6547C97.5265 3.18682 98.5119 2.76736 100.383 2.76736C103.003 2.76736 103.439 3.74199 103.439 5.40726V7.57835C103.439 8.55274 103.552 8.81206 103.776 9.3053H101.73C101.618 9.07089 101.506 8.82415 101.493 8.56532C101.082 8.9601 100.446 9.45334 99.223 9.45334C97.6261 9.45334 96.9651 8.50363 96.9651 7.57835C96.9651 6.09789 98.3372 5.80205 99.1856 5.62933ZM108.51 15.865H110.606V14.2614H108.51V15.865ZM108.53 5.3209C106.983 4.95079 106.658 4.87676 106.658 4.50665C106.658 4.11186 107.17 4.01317 107.469 4.01317C108.255 4.01317 108.417 4.4573 108.517 4.72872L110.476 4.46964C110.376 4.08719 110.289 3.87746 110.064 3.61838C109.44 2.94008 108.642 2.76736 107.569 2.76736C106.559 2.76736 105.86 2.94008 105.336 3.42123C104.9 3.82835 104.762 4.35885 104.762 4.76573C104.762 5.76503 105.723 6.25852 106.359 6.46801C106.596 6.55437 107.769 6.87513 108.031 6.97383C108.63 7.17122 108.742 7.29459 108.742 7.51666C108.742 7.87444 108.343 8.14585 107.781 8.14585C106.933 8.14585 106.721 7.60302 106.596 7.25758L104.525 7.50432C104.837 8.93519 105.985 9.45334 107.657 9.45334C109.079 9.45334 110.713 8.87374 110.713 7.29459C110.713 5.91308 109.515 5.5553 108.53 5.3209ZM115.706 30.3444C114.771 30.3444 114.072 30.7392 113.523 31.4792H113.498V30.4925H111.552V36.8824H113.648V33.897C113.648 33.6258 113.66 33.0213 113.735 32.7869C113.935 32.1577 114.459 31.948 114.846 31.948C115.819 31.948 115.819 32.8609 115.819 33.4901V36.8824H117.914V33.0953C117.914 32.2564 117.914 30.3444 115.706 30.3444ZM120.9 22.0948H120.925V23.0938H122.883V16.7039H120.787V19.5906C120.787 20.2938 120.762 20.7747 120.6 21.0461C120.401 21.3915 120.014 21.6383 119.577 21.6383C118.642 21.6383 118.617 20.6883 118.617 19.9237V16.7039H116.521V20.75C116.521 21.1571 116.546 21.663 116.796 22.2058C117.02 22.7114 117.681 23.2049 118.604 23.2049C120.027 23.2049 120.688 22.3909 120.9 22.0948ZM114.502 23.2419C115.026 23.2419 115.313 23.1802 116 23.0075L115.837 21.5026C115.588 21.5889 115.313 21.6753 115.089 21.6753C114.615 21.6753 114.615 21.2682 114.615 20.6883V18.2088H115.887V16.7039H114.615V14.3478H112.519V16.7039H111.671V18.2088H112.519V20.787C112.519 22.0948 112.544 23.2419 114.502 23.2419ZM101.403 19.1094C99.8564 18.7393 99.532 18.6653 99.532 18.2952C99.532 17.9004 100.044 17.8017 100.343 17.8017C101.129 17.8017 101.291 18.2458 101.391 18.5172L103.349 18.2584C103.25 17.8757 103.162 17.666 102.938 17.4069C102.314 16.7286 101.516 16.5559 100.443 16.5559C99.4324 16.5559 98.7338 16.7286 98.2098 17.2098C97.7731 17.6169 97.6359 18.1474 97.6359 18.5543C97.6359 19.5536 98.5965 20.047 99.2328 20.2565C99.4696 20.3429 100.642 20.6637 100.904 20.7624C101.503 20.9597 101.615 21.0831 101.615 21.3052C101.615 21.663 101.216 21.9344 100.655 21.9344C99.8065 21.9344 99.5944 21.3915 99.4696 21.0461L97.3988 21.2929C97.7107 22.7237 98.8583 23.2419 100.53 23.2419C101.952 23.2419 103.586 22.6623 103.586 21.0831C103.586 19.7016 102.389 19.3438 101.403 19.1094ZM108.51 23.0938H110.606V16.7037H108.51V23.0938ZM100.584 35.4885C99.3838 35.4885 99.35 34.0823 99.35 33.6999C99.35 33.2681 99.4398 31.8863 100.596 31.8863C100.797 31.8863 101.471 31.9359 101.695 32.8856L103.502 32.6019C103.176 31.3437 102.481 30.3444 100.539 30.3444C98.2391 30.3444 97.4424 32.0344 97.4424 33.6999C97.4424 34.958 97.824 35.6365 98.1381 36.0188C98.5645 36.5493 99.204 37.0304 100.607 37.0304C102.705 37.0304 103.311 35.7106 103.558 34.6743L101.74 34.4028C101.661 34.6989 101.46 35.4885 100.584 35.4885ZM104.541 20.787C104.541 22.0948 104.565 23.2419 106.524 23.2419C107.048 23.2419 107.335 23.1802 108.021 23.0075L107.859 21.5026C107.61 21.5889 107.335 21.6753 107.111 21.6753C106.636 21.6753 106.636 21.2682 106.636 20.6883V18.2088H107.909V16.7039H106.636V14.3478H104.541V16.7039H103.692V18.2088H104.541V20.787ZM108.016 30.3444C106.856 30.3444 106.22 31.023 105.971 31.3065V28.05H103.875V36.8824H105.971V33.7492C105.971 33.157 105.971 31.948 107.181 31.948C108.141 31.948 108.141 32.7869 108.141 33.4282V36.8824H110.237V32.972C110.237 32.2194 110.237 30.3444 108.016 30.3444ZM117.003 7.29459C117.003 5.91308 115.805 5.5553 114.82 5.3209C113.273 4.95079 112.949 4.87676 112.949 4.50665C112.949 4.11186 113.46 4.01317 113.76 4.01317C114.545 4.01317 114.707 4.4573 114.808 4.72872L116.766 4.46964C116.666 4.08719 116.579 3.87746 116.354 3.61838C115.73 2.94008 114.932 2.76736 113.859 2.76736C112.849 2.76736 112.15 2.94008 111.626 3.42123C111.19 3.82835 111.052 4.35885 111.052 4.76573C111.052 5.76503 112.013 6.25852 112.649 6.46801C112.886 6.55437 114.059 6.87513 114.321 6.97383C114.92 7.17122 115.032 7.29459 115.032 7.51666C115.032 7.87444 114.633 8.14585 114.071 8.14585C113.223 8.14585 113.011 7.60302 112.886 7.25758L110.815 7.50432C111.127 8.93519 112.275 9.45334 113.947 9.45334C115.369 9.45334 117.003 8.87374 117.003 7.29459ZM156.916 5.54297C156.879 5.20986 156.779 4.1242 155.681 4.1242C154.896 4.1242 154.372 4.77807 154.384 5.54297H156.916ZM159.025 6.65306H154.372C154.434 7.73873 155.045 8.08417 155.731 8.08417C156.405 8.08417 156.654 7.72639 156.829 7.34394L158.912 7.59068C158.613 8.33067 158.002 9.45334 155.744 9.45334C155.182 9.45334 154.397 9.37932 153.76 9.00921C152.426 8.23221 152.263 6.75176 152.263 6.13515C152.263 4.48198 153.224 2.76736 155.569 2.76736C158.127 2.76736 159.062 4.39562 159.025 6.65306ZM148.497 34.884H148.472L147.038 30.4925H144.817L147.412 36.8947C147.162 37.5979 146.851 37.9557 146.19 37.9557C146.077 37.9557 145.666 37.9557 145.204 37.8323L145.379 39.3495C145.69 39.3989 146.277 39.4729 146.788 39.4729C148.61 39.4729 148.996 38.4368 149.533 36.981L151.965 30.4925H149.857L148.497 34.884ZM162.885 7.88677C162.411 7.88677 162.411 7.47965 162.411 6.89981V4.42029H163.683V2.91541H162.411V0.55926H160.315V2.91541H159.467V4.42029H160.315V6.9985C160.315 8.30624 160.34 9.45334 162.298 9.45334C162.822 9.45334 163.109 9.39166 163.795 9.21894L163.633 7.71405C163.384 7.80041 163.109 7.88677 162.885 7.88677ZM173.177 5.3209C171.631 4.95079 171.306 4.87676 171.306 4.50665C171.306 4.11186 171.817 4.01317 172.117 4.01317C172.903 4.01317 173.065 4.4573 173.165 4.72872L175.123 4.46964C175.023 4.08719 174.936 3.87746 174.712 3.61838C174.088 2.94008 173.29 2.76736 172.217 2.76736C171.206 2.76736 170.508 2.94008 169.984 3.42123C169.547 3.82835 169.41 4.35885 169.41 4.76573C169.41 5.76503 170.37 6.25852 171.007 6.46801C171.244 6.55437 172.417 6.87513 172.678 6.97383C173.277 7.17122 173.389 7.29459 173.389 7.51666C173.389 7.87444 172.99 8.14585 172.429 8.14585C171.581 8.14585 171.368 7.60302 171.244 7.25758L169.173 7.50432C169.485 8.93519 170.633 9.45334 172.304 9.45334C173.726 9.45334 175.36 8.87374 175.36 7.29459C175.36 5.91308 174.163 5.5553 173.177 5.3209ZM167.688 7.88677C167.214 7.88677 167.214 7.47965 167.214 6.89981V4.42029H168.486V2.91541H167.214V0.55926H165.118V2.91541H164.27V4.42029H165.118V6.9985C165.118 8.30624 165.143 9.45334 167.102 9.45334C167.626 9.45334 167.913 9.39166 168.599 9.21894L168.436 7.71405C168.187 7.80041 167.913 7.88677 167.688 7.88677ZM130.321 19.3315H132.854C132.816 18.9984 132.716 17.9127 131.619 17.9127C130.833 17.9127 130.309 18.5666 130.321 19.3315ZM131.681 23.2419C131.119 23.2419 130.334 23.1678 129.697 22.7977C128.363 22.0207 128.201 20.5403 128.201 19.9237C128.201 18.2705 129.161 16.5559 131.506 16.5559C134.064 16.5559 134.999 18.1841 134.962 20.4416H130.309C130.371 21.5273 130.982 21.8727 131.668 21.8727C132.342 21.8727 132.592 21.5149 132.766 21.1325L134.85 21.3792C134.55 22.1192 133.939 23.2419 131.681 23.2419ZM126.957 36.8824H129.053V28.05H126.957V36.8824ZM127.829 21.5026C127.579 21.5889 127.305 21.6753 127.08 21.6753C126.606 21.6753 126.606 21.2682 126.606 20.6883V18.2088H127.878V16.7039H126.606V14.3478H124.51V16.7039H123.662V18.2088H124.51V20.787C124.51 22.0948 124.535 23.2419 126.494 23.2419C127.018 23.2419 127.305 23.1802 127.991 23.0075L127.829 21.5026ZM142.192 33.5888C142.192 32.4291 141.618 31.8863 140.882 31.8863C139.772 31.8863 139.659 33.0953 139.659 33.5639C139.659 33.7739 139.659 35.2294 140.895 35.2294C141.182 35.2294 142.192 35.0937 142.192 33.5888ZM142.304 30.4925H144.263V36.5246C144.263 39.1275 142.541 39.4729 140.969 39.4729C140.495 39.4729 138.986 39.4359 138.275 38.7576C137.701 38.2024 137.739 37.4499 137.751 37.1661L139.909 37.4128C139.959 37.6226 140.071 38.0791 140.92 38.0791C142.167 38.0791 142.167 37.3142 142.167 36.722V35.7723H142.142C141.905 36.1298 141.406 36.7713 140.259 36.7713C138.175 36.7713 137.539 34.7976 137.539 33.4529C137.539 31.319 138.824 30.3444 140.221 30.3444C141.506 30.3444 142.117 31.1587 142.279 31.4175H142.304V30.4925ZM135.009 33.6999C135.009 32.7622 134.609 31.8863 133.612 31.8863C132.85 31.8863 132.202 32.4291 132.202 33.7122C132.202 34.7483 132.688 35.4885 133.612 35.4885C134.347 35.4885 135.009 34.958 135.009 33.6999ZM137.129 33.6749C137.129 35.2541 136.081 37.0304 133.599 37.0304C131.291 37.0304 130.081 35.4885 130.081 33.7122C130.081 31.9233 131.254 30.3444 133.586 30.3444C136.094 30.3444 137.129 32.0837 137.129 33.6749ZM123.563 33.6999C123.563 32.7622 123.164 31.8863 122.166 31.8863C121.405 31.8863 120.757 32.4291 120.757 33.7122C120.757 34.7483 121.243 35.4885 122.166 35.4885C122.902 35.4885 123.563 34.958 123.563 33.6999ZM125.684 33.6749C125.684 35.2541 124.636 37.0304 122.154 37.0304C119.846 37.0304 118.636 35.4885 118.636 33.7122C118.636 31.9233 119.808 30.3444 122.141 30.3444C124.649 30.3444 125.684 32.0837 125.684 33.6749ZM45.556 12.3693C43.2264 12.3789 40.897 12.3746 38.5675 12.3755C38.4598 12.3758 38.3519 12.3874 38.2335 12.3944V37.0326H45.9073V36.713C45.9073 28.7145 45.9058 20.7162 45.9141 12.7178C45.9144 12.4329 45.8292 12.368 45.556 12.3693ZM8.07272 0.748187H0.360352V37.0706H8.09644V36.6804C8.09644 24.821 8.09644 12.9614 8.09547 1.10209C8.09547 0.984044 8.08079 0.866236 8.07272 0.748187ZM88.2941 2.45893H88.319L90.0405 9.3053H91.9366L93.6707 2.45893H93.6957V9.3053H95.6544V0.4729H92.498L91.0136 6.17216H90.9886L89.4915 0.4729H86.3356V9.3053H88.2941V2.45893ZM150.322 15.5442C150.659 15.5442 150.946 15.5936 151.096 15.6306L151.345 14.2984C150.497 14.1751 150.073 14.1134 149.661 14.1134C147.69 14.1134 147.54 15.3101 147.54 16.3091V16.7039H146.605V18.2088H147.54V23.0938H149.636V18.2088H150.871V16.7039H149.636V16.3955C149.636 16.0131 149.649 15.5442 150.322 15.5442ZM86.4104 23.0938H88.6933V14.2614H86.4104V23.0938ZM92.3859 17.6907H92.3612V16.7039H90.4152V23.0938H92.511V20.1085C92.511 19.8373 92.5234 19.2328 92.598 18.9984C92.7979 18.3692 93.3219 18.1595 93.7086 18.1595C94.6815 18.1595 94.6815 19.0724 94.6815 19.7016V23.0938H96.777V19.3068C96.777 18.4679 96.777 16.5559 94.5692 16.5559C93.6335 16.5559 92.9349 16.9507 92.3859 17.6907ZM140.691 9.41633C142.113 9.41633 142.775 8.60233 142.986 8.30624H143.012V9.3053H144.97V2.91541H142.874V5.80205C142.874 6.50526 142.849 6.98617 142.687 7.25758C142.488 7.60302 142.101 7.84976 141.664 7.84976C140.728 7.84976 140.704 6.89981 140.704 6.13515V2.91541H138.608V6.96149C138.608 7.36862 138.633 7.87444 138.882 8.41727C139.107 8.92285 139.768 9.41633 140.691 9.41633ZM128.126 9.45334C130.224 9.45334 130.83 8.13352 131.077 7.0972L129.259 6.82578C129.181 7.12187 128.979 7.91145 128.103 7.91145C126.903 7.91145 126.869 6.50526 126.869 6.12281C126.869 5.69101 126.959 4.30926 128.115 4.30926C128.317 4.30926 128.99 4.35885 129.214 5.30856L131.021 5.02481C130.696 3.76666 130 2.76736 128.058 2.76736C125.758 2.76736 124.961 4.4573 124.961 6.12281C124.961 7.38095 125.343 8.05949 125.657 8.4417C126.084 8.9722 126.723 9.45334 128.126 9.45334ZM133.528 6.17216C133.528 5.57998 133.528 4.37094 134.738 4.37094C135.698 4.37094 135.698 5.20986 135.698 5.85115V9.3053H137.794V5.39492C137.794 4.64236 137.794 2.76736 135.573 2.76736C134.413 2.76736 133.777 3.4459 133.528 3.72941V0.4729H131.432V9.3053H133.528V6.17216ZM119.827 7.41796C119.827 7.67704 120.002 8.17053 120.713 8.17053C121.187 8.17053 121.649 7.93612 121.898 7.54133C121.986 7.39329 122.086 7.18356 122.086 6.44357V6.24594C121.686 6.39423 121.599 6.40632 120.776 6.60372C120.339 6.70241 119.827 6.91214 119.827 7.41796ZM119.927 5.62933C120.663 5.48128 121.661 5.25921 122.086 5.08649C122.086 4.61768 122.086 4.1242 121.113 4.1242C120.177 4.1242 120.015 4.56834 119.877 4.92611L117.906 4.6547C118.268 3.18682 119.254 2.76736 121.125 2.76736C123.745 2.76736 124.181 3.74199 124.181 5.40726V7.57835C124.181 8.55274 124.293 8.81206 124.518 9.3053H122.472C122.36 9.07089 122.248 8.82415 122.235 8.56532C121.823 8.9601 121.187 9.45334 119.965 9.45334C118.368 9.45334 117.707 8.50363 117.707 7.57835C117.707 6.09789 119.079 5.80205 119.927 5.62933ZM143.885 19.9113C143.885 18.9737 143.485 18.0978 142.488 18.0978C141.727 18.0978 141.078 18.6406 141.078 19.9237C141.078 20.9597 141.564 21.7 142.488 21.7C143.223 21.7 143.885 21.1695 143.885 19.9113ZM146.005 19.8864C146.005 21.4656 144.958 23.2419 142.475 23.2419C140.167 23.2419 138.957 21.7 138.957 19.9237C138.957 18.1348 140.13 16.5559 142.462 16.5559C144.97 16.5559 146.005 18.2952 146.005 19.8864ZM12.9736 1.13015C12.9743 9.12968 12.976 17.1292 12.9675 25.1287C12.9672 25.411 13.0438 25.4775 13.3219 25.4761C15.6703 25.465 18.0185 25.47 20.367 25.4693C20.4748 25.4691 20.583 25.4601 20.7111 25.4543V25.075C20.7111 17.0939 20.7111 9.1125 20.7116 1.13112C20.7116 1.00364 20.7195 0.875912 20.7236 0.748187H12.9555C12.9618 0.875429 12.9736 1.00267 12.9736 1.13015ZM94.8153 33.12C94.7779 32.7869 94.6779 31.7013 93.5802 31.7013C92.7942 31.7013 92.2705 32.3551 92.2827 33.12H94.8153ZM96.9235 34.2301H92.2705C92.3329 35.3158 92.9442 35.6612 93.6301 35.6612C94.3038 35.6612 94.5533 35.3034 94.728 34.921L96.8112 35.1677C96.5118 35.9077 95.9005 37.0304 93.6426 37.0304C93.0812 37.0304 92.2954 36.9564 91.6592 36.5863C90.3245 35.8093 90.162 34.3288 90.162 33.7122C90.162 32.059 91.1227 30.3444 93.4679 30.3444C96.0253 30.3444 96.9607 31.9727 96.9235 34.2301ZM51.0302 1.07645C51.031 3.25286 51.0307 5.42927 51.0307 7.60568V7.94628H71.3742C71.3742 7.82219 71.3739 7.7143 71.3742 7.60617C71.3766 5.32017 71.3791 3.03418 71.3818 0.748187H51.0185C51.0227 0.857528 51.0302 0.96711 51.0302 1.07645ZM91.3069 28.05H83.56V29.8756H86.292V36.8824H88.5749V29.8756H91.3069V28.05ZM148.86 8.14585C148.012 8.14585 147.8 7.60302 147.675 7.25758L145.604 7.50432C145.916 8.93519 147.064 9.45334 148.735 9.45334C150.157 9.45334 151.791 8.87374 151.791 7.29459C151.791 5.91308 150.594 5.5553 149.608 5.3209C148.062 4.95079 147.737 4.87676 147.737 4.50665C147.737 4.11186 148.249 4.01317 148.548 4.01317C149.334 4.01317 149.496 4.4573 149.596 4.72872L151.554 4.46964C151.455 4.08719 151.368 3.87746 151.143 3.61838C150.519 2.94008 149.721 2.76736 148.648 2.76736C147.638 2.76736 146.939 2.94008 146.415 3.42123C145.978 3.82835 145.841 4.35885 145.841 4.76573C145.841 5.76503 146.802 6.25852 147.438 6.46801C147.675 6.55437 148.848 6.87513 149.109 6.97383C149.708 7.17122 149.821 7.29459 149.821 7.51666C149.821 7.87444 149.422 8.14585 148.86 8.14585ZM25.5963 0.96711C25.5959 12.8988 25.5959 24.8307 25.5966 36.7626C25.5966 36.8584 25.6076 36.9542 25.6132 37.0471H33.3153V36.6533C33.3153 24.813 33.3153 12.9726 33.3156 1.13209C33.3156 1.00412 33.3175 0.876154 33.3187 0.748187H25.6061C25.6027 0.821242 25.5963 0.894055 25.5963 0.96711ZM58.4527 12.3431C56.0857 12.353 53.7187 12.3489 51.3519 12.3497C51.2529 12.3497 51.1538 12.3584 51.0454 12.3634V37.0418H58.7678V36.75C58.7678 28.7224 58.7666 20.6951 58.7729 12.6675C58.7729 12.4205 58.7135 12.3422 58.4527 12.3431ZM45.9246 4.01099C45.9263 5.20841 45.9251 6.40584 45.9251 7.60326V7.94628H38.2015V0.748187H45.9139C45.9175 1.83579 45.9229 2.92339 45.9246 4.01099Z" fill="#595959"/>
</svg>
