<svg width="144" height="50" viewBox="0 0 144 50" fill="none" xmlns="http://www.w3.org/2000/svg">
<path fill-rule="evenodd" clip-rule="evenodd" d="M109.967 10.9157C109.774 10.9149 109.681 10.9871 109.588 11.1402C107.77 14.1544 105.948 17.1656 104.126 20.1772C103.761 20.7819 103.394 21.3858 103.012 22.0158C102.927 21.881 102.857 21.7758 102.792 21.6672C100.702 18.1497 98.6113 14.6325 96.5255 11.1129C96.4409 10.9696 96.3489 10.9166 96.1817 10.917C93.9758 10.9226 91.7695 10.9204 89.5631 10.9213C89.4892 10.9213 89.4152 10.9281 89.3006 10.9337C89.351 11.0196 89.3754 11.0637 89.4028 11.1065C90.1435 12.2753 90.8838 13.4445 91.6254 14.6129C94.3303 18.8763 97.0349 23.1401 99.7433 27.4013C99.8622 27.5887 99.9195 27.7734 99.9191 27.9984C99.9131 31.4274 99.9148 34.8564 99.9148 38.2854V38.5724H106.017V38.1687C106.017 34.714 106.016 31.2589 106.023 27.8042C106.023 27.6614 106.071 27.5014 106.145 27.3783C106.417 26.9241 106.71 26.4819 106.995 26.0354C110.158 21.0817 113.322 16.1277 116.485 11.1732C116.528 11.1056 116.562 11.032 116.622 10.9204H116.304C114.192 10.9208 112.079 10.9243 109.967 10.9157ZM17.6564 25.2788C18.7619 25.801 19.9389 26.023 21.1479 26.1055C21.3715 26.1209 21.5969 26.1077 21.8287 26.1077C21.8137 26.0743 21.8107 26.0533 21.7992 26.0448C21.744 26.0054 21.6837 25.9729 21.6307 25.9315C21.0063 25.4426 20.3362 25.0009 19.7691 24.4526C18.4283 23.1555 17.7723 21.5577 17.907 19.6743C18.0062 18.2882 18.507 17.0356 19.2486 15.8762C19.4115 15.6213 19.4453 15.3801 19.3684 15.1013C19.1066 14.1506 18.7264 13.2482 18.2658 12.3783C18.2209 12.2945 18.1516 12.2235 18.0785 12.1256C17.9639 12.5366 17.8865 12.8954 17.7638 13.2375C17.2985 14.5372 16.657 15.7539 15.9526 16.9355C15.3804 17.8961 14.8911 18.8728 14.7586 20.0087C14.4883 22.3194 15.5557 24.2862 17.6564 25.2788ZM22.0468 13.6211C20.9362 14.9054 19.9222 16.2543 19.2854 17.8486C18.4801 19.8667 18.7247 21.7237 20.1279 23.4095C20.9353 24.379 21.9254 25.1322 22.9616 25.8331C23.0026 25.8609 23.0595 25.8652 23.1605 25.8968C23.098 25.7463 23.0582 25.6458 23.0151 25.547C22.699 24.8238 22.4728 24.0733 22.3706 23.2906C22.1456 21.5671 22.519 19.966 23.3807 18.4683C24.2164 17.0164 25.354 15.8257 26.663 14.807C27.1292 14.4439 27.2447 14.0539 27.1805 13.5129C26.9906 11.9083 26.5689 10.3679 25.9582 8.87618C25.8757 8.67517 25.7607 8.48743 25.6559 8.28343C25.3569 8.88687 25.1132 9.45951 24.8014 9.99238C24.0299 11.3104 23.0424 12.4698 22.0468 13.6211ZM27.062 15.7192C26.1704 16.4039 25.3967 17.2135 24.7471 18.1368C23.1605 20.3928 22.8974 22.7992 23.9157 25.3537C23.9457 25.4285 23.988 25.4982 24.0248 25.5701C24.0474 25.5645 24.0705 25.5585 24.0932 25.553C24.1355 25.3806 24.1766 25.2078 24.2194 25.0355C24.8711 22.4186 26.3025 20.3812 28.6842 19.0602C29.3783 18.6753 30.095 18.3314 30.7951 17.9568C31.1433 17.7703 31.5004 17.565 31.5718 17.1288C31.6458 16.6759 31.7287 16.2158 31.7215 15.7603C31.7001 14.4097 31.3272 13.1332 30.8041 11.8976C30.7233 11.7069 30.6121 11.5286 30.5086 11.3327C30.45 11.378 30.4243 11.3891 30.4132 11.4084C30.379 11.467 30.3499 11.529 30.3191 11.5897C29.5109 13.1849 28.5011 14.615 27.062 15.7192ZM30.0463 19.4288C27.8011 20.4133 26.282 22.0641 25.419 24.3376C25.2081 24.8944 25.0546 25.4709 25.0174 26.1273C25.2124 26.1273 25.3646 26.1372 25.5156 26.1256C26.2042 26.0743 26.9 26.0636 27.5795 25.9533C30.0814 25.5466 31.9682 24.2332 33.1781 21.9978C34.3016 19.9232 34.6103 17.6583 34.6591 15.3403C34.6599 15.2852 34.6356 15.2296 34.6232 15.174C34.6001 15.1791 34.5868 15.1783 34.5842 15.1834C34.4748 15.3844 34.3717 15.5888 34.2567 15.7868C33.27 17.4821 31.8181 18.6517 30.0463 19.4288ZM20.1078 29.1513H27.083V27.1507H20.1078V29.1513ZM25.6516 30.1683H21.5464C21.5541 30.2774 21.5567 30.3539 21.5653 30.4301C21.6431 31.1263 21.7239 31.8221 21.7996 32.5184C21.9946 34.3188 22.1858 36.1202 22.3808 37.9206C22.5818 39.7724 22.7863 41.6238 22.9868 43.4756C23.0193 43.7758 23.1853 43.9439 23.4799 43.9584C23.7455 43.9717 23.9337 43.8143 23.9743 43.5145C24.0928 42.6343 24.2044 41.7529 24.3147 40.8715C24.526 39.1852 24.7326 37.4985 24.9451 35.8122C25.1589 34.1174 25.3783 32.423 25.5939 30.7281C25.617 30.546 25.6319 30.3629 25.6516 30.1683ZM0.360352 49.3119H49.0427V0.633789H0.360352V49.3119ZM137.27 10.9367V11.2531C137.269 16.5036 137.273 21.7545 137.263 27.0053C137.261 27.9736 137.124 28.9294 136.791 29.8463C136.256 31.3188 135.308 32.4063 133.821 32.9742C132.514 33.4733 131.166 33.5268 129.809 33.2642C128.023 32.9182 126.747 31.9059 126.009 30.2325C125.485 29.044 125.339 27.7854 125.339 26.5037C125.336 21.4324 125.338 16.3612 125.337 11.2899C125.337 11.1744 125.326 11.0586 125.32 10.9328H119.261C119.256 11.0337 119.249 11.1167 119.249 11.2001C119.249 16.4424 119.248 21.6847 119.25 26.9271C119.251 28.4726 119.431 29.9951 119.873 31.48C120.647 34.0772 122.113 36.1424 124.508 37.4883C125.928 38.2867 127.465 38.7139 129.076 38.9021C131.385 39.1728 133.67 39.068 135.898 38.3705C139.109 37.3655 141.309 35.2811 142.47 32.1112C143.125 30.3223 143.353 28.4649 143.356 26.5751C143.364 21.4611 143.359 16.3471 143.359 11.233V10.9367H137.27ZM80.2405 10.9354H86.2376V38.5809C86.1508 38.5848 86.0606 38.5929 85.9708 38.5929C84.4226 38.5938 82.8749 38.5908 81.3267 38.5976C81.1467 38.5985 81.0321 38.548 80.9209 38.4017C78.387 35.0672 75.8484 31.7366 73.3102 28.4051C71.4866 26.0123 69.6626 23.6191 67.8391 21.2267C67.804 21.1805 67.7651 21.1373 67.6932 21.0514V38.5831H61.6918V10.9337C61.7778 10.9298 61.8603 10.9221 61.9428 10.9221C63.6445 10.9213 65.3466 10.9238 67.0483 10.9179C67.2202 10.917 67.3271 10.9713 67.4306 11.1073C70.3293 14.9268 73.2323 18.7433 76.1349 22.5597C77.4282 24.2606 78.7223 25.9601 80.0168 27.6601C80.072 27.7328 80.1323 27.8021 80.2405 27.9346V10.9354Z" fill="#595959"/>
</svg>
