<svg width="177" height="52" viewBox="0 0 177 52" fill="none" xmlns="http://www.w3.org/2000/svg">
<path fill-rule="evenodd" clip-rule="evenodd" d="M4.80057 28.8725C4.84253 28.8175 4.88325 28.761 4.92693 28.7074C5.4973 28.01 6.06914 27.3137 6.6363 26.614C6.68097 26.5587 6.72885 26.4692 6.71453 26.4102C6.67776 26.2581 6.60693 26.1142 6.54449 25.9533C5.36698 26.366 4.20626 26.773 3.03 27.1854C3.10083 27.3715 3.1613 27.5304 3.22645 27.7012C4.07521 27.4055 4.90126 27.118 5.72732 26.8302C5.70757 26.9235 5.66784 26.9744 5.62687 27.0242C5.05527 27.7204 4.48219 28.4155 3.91429 29.1146C3.86493 29.1754 3.81162 29.2716 3.82545 29.3378C3.85728 29.4895 3.92935 29.6329 3.99056 29.7936C5.16115 29.3429 6.30928 28.9012 7.46729 28.4554C7.39522 28.2674 7.33451 28.1092 7.27009 27.9413C6.43737 28.2701 5.63057 28.5887 4.82401 28.9071C4.81612 28.8957 4.80847 28.8841 4.80057 28.8725ZM5.02639 31.8085C5.15054 31.9862 5.25666 32.1377 5.37019 32.3001C5.55307 32.1767 5.7209 32.064 5.88823 31.9507C6.40578 31.6005 6.91617 31.2389 7.44507 30.9069C7.59982 30.8097 7.81454 30.7349 7.98878 30.7561C8.36985 30.8023 8.5668 31.0896 8.66132 31.4425C8.74919 31.769 8.57272 31.9857 8.32987 32.1619C7.95941 32.431 7.58452 32.6938 7.21209 32.9601C6.9063 33.1785 6.6015 33.3979 6.28707 33.6233C6.40554 33.7921 6.51215 33.9444 6.6358 34.1201C7.38411 33.5729 8.12403 33.048 8.84519 32.4983C9.27167 32.1733 9.31511 31.7179 9.16283 31.2354C9.05967 30.9092 8.86691 30.6359 8.59691 30.4247C8.20474 30.1174 7.76394 30.0399 7.33673 30.3028C6.55905 30.7816 5.80457 31.2984 5.02639 31.8085ZM5.9682 12.2468C5.69474 12.1103 5.47459 12.1671 5.27196 12.4492C5.1498 12.619 5.05132 12.8058 4.92471 13.0134C5.28973 13.2106 5.62514 13.3915 5.98942 13.588C6.09358 13.3636 6.20661 13.1676 6.27695 12.9576C6.37691 12.6595 6.24437 12.3848 5.9682 12.2468ZM8.7556 12.7816C8.65466 12.9645 8.58531 13.1171 8.48881 13.2498C8.45426 13.2972 8.35257 13.3187 8.28396 13.3145C7.96534 13.2943 7.64795 13.2535 7.32932 13.2338C6.78512 13.2 6.65802 13.2849 6.43071 13.8222C6.86953 14.0638 7.31131 14.3071 7.77752 14.5636C7.67411 14.7477 7.58674 14.9032 7.49123 15.0727C6.39048 14.4747 5.30923 13.8876 4.20256 13.2861C4.45652 12.8564 4.68087 12.4327 4.94766 12.0375C5.22754 11.6229 5.66364 11.5032 6.11603 11.6649C6.58718 11.8332 6.80807 12.174 6.7908 12.7059C7.44137 12.5914 8.07665 12.7614 8.7556 12.7816ZM9.8334 6.33414C10.5975 7.33444 11.3433 8.31055 12.0944 9.29332C12.2647 9.16325 12.4073 9.05392 12.5687 8.93052C11.8096 7.93639 11.0605 6.95559 10.3063 5.96763C10.134 6.10116 9.98765 6.21469 9.8334 6.33414ZM18.2186 2.39687C17.9607 2.4218 17.86 2.55853 17.8269 2.81496C17.7662 3.28759 17.6657 3.75504 17.5818 4.2247C17.5569 4.23729 17.5317 4.24988 17.5068 4.26247C17.454 4.19361 17.4068 4.11957 17.3476 4.05663C17.0492 3.73949 16.7439 3.42851 16.449 3.10816C16.35 3.00056 16.2599 2.94749 16.1116 3.01166C15.9889 3.06473 15.8544 3.09039 15.7024 3.13482C15.7663 3.21157 15.8083 3.26859 15.8566 3.31918C16.2328 3.71283 16.5971 4.11932 16.9917 4.49347C17.3239 4.8084 17.5566 5.1591 17.6401 5.61545C17.6877 5.87484 17.7839 6.1251 17.8605 6.38769C18.0628 6.32748 18.2346 6.27614 18.4202 6.22086C18.2946 5.78525 18.1704 5.36913 18.0574 4.95006C18.0322 4.85652 18.0275 4.74867 18.0463 4.6539C18.1907 3.9199 18.3434 3.18788 18.4918 2.45487C18.4994 2.41785 18.4891 2.37713 18.4866 2.32629C18.3856 2.35368 18.3035 2.38873 18.2186 2.39687ZM9.5592 9.28567C9.23169 9.28838 8.90492 9.4451 8.57938 9.53741C8.39872 9.5885 8.22497 9.67587 8.0416 9.70153C7.76888 9.73979 7.55367 9.53568 7.61167 9.26938C7.6519 9.08502 7.76518 8.88831 7.90438 8.76096C8.06825 8.61091 8.29531 8.52971 8.51546 8.40729C8.49226 8.28809 8.46413 8.14198 8.43673 8.00179C7.89722 7.96922 7.25158 8.4801 7.08671 9.05046C6.86953 9.80149 7.44483 10.4474 8.21066 10.2995C8.41501 10.2601 8.609 10.1673 8.80891 10.1021C9.01475 10.0347 9.21885 9.95747 9.42938 9.91033C9.62213 9.86714 9.78724 9.94365 9.90201 10.1093C10.022 10.282 10.0153 10.4627 9.92743 10.6461C9.80773 10.8958 9.60115 11.0496 9.35361 11.1542C9.22897 11.207 9.10039 11.2505 8.96292 11.3018C9.00636 11.4684 9.04585 11.6192 9.08928 11.786C9.72801 11.657 10.213 11.3524 10.4701 10.7712C10.7814 10.0678 10.3087 9.2795 9.5592 9.28567ZM6.18637 23.8358C4.95235 24.0191 3.73758 24.1995 2.50455 24.3827C2.53935 24.5991 2.56823 24.7803 2.59834 24.9688C3.83803 24.7845 5.04762 24.6045 6.27177 24.4224C6.24141 24.2141 6.21574 24.0369 6.18637 23.8358ZM14.5227 4.07218C14.4395 3.91299 14.3672 3.77453 14.2875 3.62201C13.476 4.04552 12.6823 4.45966 11.8767 4.88022C11.9643 5.04187 12.0383 5.1786 12.1195 5.32866C12.434 5.16527 12.7291 5.01176 13.0554 4.84196C13.5572 5.80302 14.0488 6.74507 14.5444 7.69428C14.7332 7.59481 14.8968 7.50819 15.0698 7.41662C14.5706 6.45507 14.0841 5.51796 13.5907 4.56776C13.9131 4.39648 14.2107 4.23803 14.5227 4.07218ZM14.2095 13.1556C14.3312 13.5267 14.4513 13.8987 14.5678 14.2568C16.4381 13.8234 18.2672 13.8165 20.1106 14.2593C20.3961 13.3878 20.6839 12.5124 20.968 11.6357C20.9805 11.5962 20.9746 11.5202 20.9514 11.5072C20.9179 11.4881 20.8495 11.4953 20.8152 11.519C20.3611 11.8327 19.9097 12.1503 19.4592 12.4697C19.3603 12.5398 19.3664 12.6091 19.4802 12.6627C19.5876 12.7133 19.694 12.7659 19.8443 12.8387C19.4938 13.1346 19.1873 13.3987 18.8706 13.6499C18.8432 13.6714 18.7225 13.6247 18.6872 13.5778C18.5347 13.375 18.397 13.1607 18.2556 12.9497C18.1857 12.8456 18.1191 12.7397 18.0285 12.5995C18.201 12.5672 18.319 12.5393 18.4387 12.5237C18.5952 12.5035 18.627 12.4425 18.533 12.3105C18.1875 11.8253 17.8471 11.3364 17.5006 10.8521C17.4024 10.7149 17.2802 10.7117 17.181 10.8499C16.8377 11.328 16.5006 11.8102 16.1605 12.2905C16.0536 12.4416 16.0995 12.5094 16.276 12.5279C16.3868 12.5393 16.4954 12.5719 16.6496 12.6044C16.4865 12.8503 16.3493 13.06 16.2088 13.2679C15.8934 13.7346 15.8924 13.7346 15.4689 13.3535C15.2885 13.1913 15.1103 13.027 14.902 12.8369C15.0373 12.7713 15.1264 12.7278 15.2157 12.6849C15.3914 12.6005 15.3964 12.5526 15.2295 12.4386C14.7914 12.14 14.3529 11.8423 13.9104 11.5503C13.8588 11.5163 13.7825 11.5195 13.7176 11.5057C13.7201 11.5659 13.7092 11.6303 13.727 11.6856C13.8849 12.1765 14.0486 12.6654 14.2095 13.1556ZM24.4254 33.5342C24.3129 33.471 24.1892 33.4078 24.0641 33.39C23.3684 33.2913 22.6707 33.2064 22.0769 33.1301C21.3863 33.1941 20.8063 33.2331 20.231 33.3076C19.9832 33.3394 19.7374 33.4268 19.5049 33.5236C19.34 33.5922 19.3428 33.7314 19.5039 33.8138C19.6505 33.8893 19.8122 33.9493 19.9741 33.9796C21.2945 34.2272 22.6171 34.2294 23.9373 33.9782C24.1058 33.9461 24.2727 33.8794 24.4257 33.8007C24.5622 33.7306 24.5654 33.6126 24.4254 33.5342ZM21.9542 3.49293C21.6558 3.48602 21.4352 3.68766 21.4258 3.97617C21.4167 4.2595 21.6358 4.49644 21.9162 4.50557C22.1988 4.51495 22.435 4.2948 22.4438 4.01418C22.453 3.72024 22.2459 3.49959 21.9542 3.49293ZM24.0819 31.0851C23.9755 31.1604 23.9782 31.233 24.1068 31.2905C24.2124 31.3376 24.3136 31.3946 24.4536 31.4659C24.11 31.7562 23.8111 32.0079 23.513 32.2609C23.418 32.3416 23.3607 32.295 23.304 32.2098C23.1181 31.9322 22.9305 31.6557 22.7403 31.3813C22.6536 31.2562 22.6963 31.1977 22.8318 31.1745C22.9513 31.1542 23.0705 31.1325 23.2198 31.1059C23.1781 31.0163 23.1579 30.9474 23.1189 30.8916C22.7941 30.4276 22.4673 29.9649 22.1378 29.5039C22.011 29.3264 21.8969 29.3296 21.7651 29.514C21.4361 29.975 21.1096 30.4378 20.7851 30.9022C20.7476 30.9558 20.7293 31.0229 20.6945 31.1004C20.8929 31.1439 21.058 31.1799 21.2733 31.227C21.0176 31.601 20.7927 31.9354 20.5578 32.2626C20.5402 32.2871 20.4304 32.2814 20.3966 32.252C20.1125 32.005 19.8361 31.7493 19.5195 31.4615C19.655 31.3926 19.747 31.3384 19.8445 31.2976C20.001 31.2327 19.9953 31.1574 19.867 31.0706C19.4161 30.765 18.9654 30.459 18.5108 30.1591C18.459 30.1248 18.3822 30.1283 18.2746 30.1048C18.5927 31.0755 18.8918 31.9879 19.1838 32.8787C21.0482 32.4413 22.877 32.4423 24.7263 32.8799C25.022 31.9756 25.3206 31.0624 25.6355 30.0999C25.5316 30.1219 25.4642 30.1179 25.4203 30.148C24.9719 30.4568 24.5259 30.7697 24.0819 31.0851ZM14.9716 15.2349C15.0508 15.2823 15.1459 15.3139 15.2374 15.3269C15.8682 15.4175 16.4998 15.5017 17.1116 15.5851C17.8133 15.5217 18.4856 15.4684 19.1557 15.3953C19.3405 15.3751 19.5239 15.3094 19.6974 15.2388C19.7806 15.205 19.8391 15.111 19.9087 15.0441C19.8433 14.9819 19.7882 14.894 19.7105 14.8625C19.5434 14.7951 19.3677 14.7395 19.1905 14.7094C17.9483 14.4977 16.7044 14.5009 15.4627 14.7124C15.2925 14.7413 15.1239 14.797 14.9649 14.8647C14.8889 14.8973 14.8373 14.9871 14.7749 15.051C14.8398 15.1135 14.8963 15.19 14.9716 15.2349ZM24.8731 40.533C24.5893 40.5323 24.3625 40.7589 24.3635 41.042C24.3647 41.3349 24.5785 41.5481 24.8707 41.5476C25.1654 41.5472 25.3796 41.3352 25.3796 41.0442C25.3798 40.7561 25.1597 40.534 24.8731 40.533ZM6.94653 16.4472C6.77081 16.3988 6.61951 16.3571 6.45045 16.3105C6.30755 16.8055 6.16959 17.2831 6.02694 17.7777C5.64242 17.6718 5.28307 17.5726 4.90793 17.4692C5.03627 17.0089 5.15794 16.5723 5.28381 16.1209C5.11648 16.0723 4.97333 16.0308 4.81143 15.9839C4.67865 16.4435 4.5513 16.8848 4.42049 17.3374C4.07916 17.2434 3.76745 17.1572 3.43525 17.0657C3.58654 16.558 3.73018 16.0755 3.87974 15.573C3.70476 15.5251 3.55544 15.4842 3.3923 15.4395C3.18499 16.1409 2.98483 16.8176 2.78122 17.506C3.99969 17.8396 5.18015 18.1632 6.38234 18.4924C6.5741 17.7972 6.75822 17.1298 6.94653 16.4472ZM19.6791 39.6754C19.3995 39.6737 19.1675 39.9042 19.1656 40.186C19.1636 40.4743 19.383 40.6962 19.671 40.6972C19.9625 40.6981 20.1829 40.4812 20.1829 40.1937C20.1826 39.9071 19.959 39.6771 19.6791 39.6754ZM30.5099 17.7059H29.9173V27.0958H29.6471C27.5534 27.0958 25.4595 27.0978 23.3659 27.0928C23.1949 27.0923 23.0937 27.1229 23.0266 27.3041C22.8804 27.6992 22.5371 27.8211 22.1541 27.8392C21.7298 27.8592 21.3009 27.8653 21.0028 27.4766C20.9635 27.4255 20.924 27.3658 20.9112 27.3046C20.8702 27.1101 20.7419 27.0931 20.5726 27.0936C18.4861 27.098 16.3996 27.0963 14.3131 27.0963H14.0185V17.7027H13.4291C13.416 17.7878 13.4044 17.8638 13.3817 18.0114C13.1603 17.892 12.9197 17.8281 12.7822 17.6728C12.5643 17.427 12.2684 17.312 11.9981 17.4702C11.7464 17.6178 11.6568 17.9453 11.7945 18.2143C11.9339 18.4865 12.2385 18.5778 12.5453 18.4475C12.6062 18.4216 12.6845 18.4029 12.7457 18.4179C12.9288 18.4628 13.1087 18.5221 13.2867 18.5852C13.3336 18.602 13.4012 18.6519 13.4032 18.6894C13.4143 18.9093 13.4086 19.1302 13.4086 19.3686C13.1179 19.3158 12.8686 19.3249 12.6783 19.0771C12.5127 18.8617 12.1548 18.8876 11.947 19.0702C11.7419 19.2506 11.7002 19.5789 11.8535 19.8047C12.0144 20.0414 12.3424 20.1305 12.587 19.9733C12.8595 19.7983 13.1028 19.976 13.3585 20.0009C13.3782 20.0029 13.4069 20.0567 13.4074 20.0868C13.4116 20.3089 13.4096 20.5313 13.4096 20.768C13.1161 20.7482 12.8622 20.7966 12.6319 20.5752C12.4283 20.3793 12.0926 20.4479 11.9073 20.6586C11.7321 20.8581 11.7256 21.1779 11.893 21.3828C12.065 21.5933 12.3955 21.6829 12.5954 21.5059C12.857 21.2739 13.1198 21.3978 13.4103 21.3884C13.4103 21.6414 13.4163 21.8724 13.4051 22.1029C13.4032 22.1447 13.3328 22.2167 13.2928 22.2177C13.0626 22.2226 12.8363 22.288 12.6171 22.099C12.4029 21.9141 12.0749 21.9983 11.8984 22.2207C11.7281 22.4351 11.7459 22.7634 11.9384 22.9601C12.1324 23.1578 12.4781 23.2015 12.6697 23.005C12.8928 22.7762 13.1425 22.8624 13.4101 22.8424C13.4101 23.0795 13.4138 23.2893 13.4069 23.4986C13.4056 23.5391 13.3666 23.6099 13.34 23.6126C13.0836 23.6371 12.8375 23.7894 12.5655 23.6126C12.3301 23.4596 12.0065 23.568 11.8569 23.8005C11.7052 24.0369 11.7622 24.3748 11.9833 24.5483C12.1995 24.7181 12.548 24.7178 12.7143 24.4969C12.9007 24.2491 13.1477 24.2936 13.4101 24.2393C13.4101 24.4802 13.4118 24.6894 13.4081 24.8985C13.4076 24.9303 13.3869 24.9861 13.3676 24.9901C13.0878 25.0448 12.8422 25.2808 12.5218 25.132C12.2664 25.0133 11.9569 25.132 11.8268 25.3743C11.6918 25.6256 11.7718 25.9556 12.0048 26.1098C12.2476 26.2702 12.6001 26.2381 12.7417 25.9901C12.8957 25.7206 13.1482 25.7317 13.4088 25.6347C13.4088 25.8773 13.4101 26.0856 13.4074 26.2937C13.4069 26.3196 13.3911 26.3628 13.3733 26.368C13.053 26.4645 12.7968 26.7651 12.4061 26.6456C12.1326 26.562 11.8562 26.7276 11.7612 26.9944C11.6634 27.2688 11.7896 27.5731 12.0499 27.6918C12.3091 27.8098 12.6371 27.7318 12.7486 27.4776C12.8792 27.1799 13.1556 27.1733 13.4229 27.0284V27.7022H14.1502C16.1785 27.7019 18.2067 27.7002 20.2352 27.7054C20.3238 27.7056 20.4494 27.7407 20.4948 27.8046C20.7883 28.217 21.1982 28.4024 21.6834 28.4421C22.3279 28.4947 22.9439 28.4315 23.3802 27.8742C23.4826 27.7434 23.5801 27.6985 23.7403 27.699C25.9142 27.7037 28.088 27.699 30.2616 27.7064C30.4667 27.7071 30.5311 27.6597 30.5306 27.4453C30.524 24.2756 30.5264 21.1059 30.5257 17.9361C30.5257 17.8599 30.5156 17.7839 30.5099 17.7059ZM5.68857 21.537C6.05211 21.4282 6.04101 21.426 6.07729 21.0523C6.0953 20.8665 6.03434 20.785 5.86306 20.7179C5.09254 20.415 4.32868 20.0962 3.56186 19.7847C3.18795 19.6327 2.81306 19.4841 2.42236 19.3274C2.412 19.4641 2.41027 19.5727 2.39398 19.6793C2.36585 19.8652 2.43273 19.9609 2.61783 20.0278C3.25286 20.2578 3.88048 20.5081 4.51057 20.7517C4.76355 20.8494 5.01578 20.9494 5.32256 21.0698C5.20459 21.1101 5.14659 21.1332 5.08711 21.1498C4.22033 21.3926 3.35306 21.6325 2.48777 21.8796C2.41496 21.9003 2.30637 21.9595 2.29822 22.0134C2.2733 22.179 2.28909 22.3507 2.28909 22.5395C2.40632 22.5102 2.48357 22.4939 2.55885 22.4714C3.60233 22.1604 4.64558 21.8492 5.68857 21.537ZM112.363 16.1283H113.442V7.16217H112.363V16.1283ZM28.0991 4.12401C27.9424 3.35867 27.0564 3.05411 26.4628 3.55833C26.0112 3.94187 25.8233 4.46016 25.8641 5.03792C25.9105 5.69788 26.3399 6.11646 26.9006 6.113C26.9103 6.13201 26.9199 6.15126 26.9298 6.17051C27.1378 6.06537 27.3836 6.00021 27.5473 5.84719C28.0431 5.38394 28.2358 4.7926 28.0991 4.12401ZM28.7285 4.39549C28.7309 4.44609 28.7287 4.49693 28.7287 4.54777C28.7322 5.10678 28.5527 5.60286 28.1959 6.03205C27.7447 6.57453 27.0756 6.7695 26.409 6.55947C25.7552 6.35364 25.3287 5.81955 25.2744 5.10999C25.2162 4.34885 25.4349 3.67828 26.0252 3.17628C26.5499 2.72981 27.1632 2.67009 27.7832 2.94552C28.3973 3.21848 28.6969 3.72739 28.7285 4.39549ZM91.0267 41.213L84.9285 33.1711L90.3957 26.2796C90.8179 25.806 91.2392 25.5982 91.8683 25.4397L93.551 25.0202V24.3341H86.874V25.0202L88.5565 25.4397C89.1362 25.5982 89.0301 25.7547 88.7139 26.1769L84.3494 32.2752H84.2443L79.9852 26.1769C79.671 25.7547 79.5136 25.4938 80.1456 25.3864L81.9315 25.0202V24.3341H73.6241V25.0202L75.2012 25.4397C75.7821 25.5982 76.2538 25.8591 76.621 26.3857L82.4051 34.0641L76.621 41.3201C76.2005 41.7927 75.7821 41.9978 75.1481 42.159L73.4684 42.5776V43.2647H80.1456V42.5776L78.4619 42.159C77.8832 41.9978 77.9883 41.8458 78.3045 41.4265L82.9839 34.9523H83.0883L87.7156 41.4711C88.0308 41.9001 88.1369 42.1049 87.5051 42.2123L85.718 42.5776V43.2647H94.0257V42.5776L92.4464 42.159C91.8683 41.9978 91.3967 41.7387 91.0267 41.213ZM69.5743 33.8017C69.5743 28.5973 67.0517 24.9664 62.7956 24.9664C58.1682 24.9664 56.0102 29.3271 56.0102 33.8017C56.0102 39.0031 58.5355 42.6311 62.7956 42.6311C67.4209 42.6311 69.5743 38.2713 69.5743 33.8017ZM72.7316 33.6983C72.7316 39.4217 68.3148 43.5774 62.7956 43.5774C57.1689 43.5774 52.8568 39.375 52.8568 33.9031C52.8568 28.1761 57.2733 24.0204 62.7956 24.0204C68.4212 24.0204 72.7316 28.2281 72.7316 33.6983ZM96.6008 25.0194L98.5464 25.494C99.1241 25.6505 99.3359 25.8593 99.3359 26.386V41.2132C99.3359 41.7389 99.1241 41.9504 98.5464 42.1052L96.6008 42.5778V43.2649H105.065V42.5778L102.91 42.1052C102.331 41.9978 102.12 41.7389 102.12 41.2132V34.2731H106.695C107.326 34.2731 107.746 34.534 107.904 35.2211L108.378 37.1126H109.167V30.8015H108.378L107.904 32.4312C107.694 33.1181 107.326 33.3772 106.695 33.3772H102.12V25.2292H108.062C108.693 25.2292 109.009 25.494 109.22 26.2275L110.113 29.0707H110.901V24.3343H96.6008V25.0194ZM20.3097 17.642C20.131 17.6136 19.9482 17.6017 19.767 17.6012C18.4007 17.5983 17.0344 17.6042 15.6683 17.5958C15.466 17.5946 15.4136 17.6526 15.4141 17.852C15.4208 20.3227 15.4186 22.7937 15.4186 25.2647V25.5106H15.7167C17.0902 25.5103 18.4639 25.5157 19.8374 25.5079C20.464 25.5041 21.0709 25.5602 21.6519 25.9546V25.67C21.6521 23.7151 21.6523 21.7601 21.6521 19.8052C21.6521 19.5799 21.6578 19.3543 21.6454 19.1294C21.5988 18.2708 21.1555 17.7765 20.3097 17.642ZM22.2686 25.7448C22.2686 25.7969 22.28 25.8492 22.2869 25.9089C23.0243 25.554 23.2191 25.5103 24.0461 25.5103C25.4556 25.5101 26.8651 25.5101 28.2746 25.5098H28.5335C28.5409 25.4383 28.5493 25.3958 28.5493 25.3531C28.5498 22.832 28.5476 20.3109 28.5535 17.7898C28.5537 17.6054 28.4701 17.5978 28.3284 17.5983C26.9406 17.6012 25.5528 17.5956 24.1653 17.602C23.9197 17.6032 23.6719 17.6331 23.4296 17.6748C22.9394 17.7592 22.5882 18.0393 22.4251 18.5082C22.338 18.758 22.275 19.0305 22.2736 19.2931C22.262 21.4435 22.2674 23.5941 22.2686 25.7448ZM20.1552 17.062C20.8949 17.1138 21.5322 17.3569 21.9401 18.0398C21.971 18.0171 21.9989 18.006 22.0119 17.9855C22.3525 17.4517 22.8533 17.1785 23.4681 17.0968C23.6692 17.0699 23.8728 17.0472 24.0755 17.0467C25.7611 17.0427 27.4466 17.0444 29.148 17.0444V26.0582H28.7919C27.2077 26.058 25.6234 26.0567 24.0392 26.059C23.8506 26.0592 23.6608 26.0664 23.4738 26.0886C22.72 26.1787 22.4273 26.439 22.2459 27.1765H21.6726C21.5156 26.4808 21.2135 26.1969 20.5084 26.0982C20.2934 26.0681 20.074 26.0602 19.8566 26.06C18.2578 26.0567 16.659 26.0582 15.0602 26.0582H14.8312V17.059C14.8951 17.0541 14.964 17.0447 15.0326 17.0447C16.6025 17.0437 18.1722 17.0432 19.7418 17.0444C19.8798 17.0444 20.0178 17.0523 20.1552 17.062ZM173.205 33.9567C173.205 30.7502 172.311 27.5985 169.683 26.0725C168.579 25.4395 167.159 25.229 164.949 25.229H162.216V41.5249C162.216 42.212 162.373 42.3725 163.058 42.3725H165.37C167.579 42.3725 169.209 42.0516 170.365 41.2127C172.311 39.7951 173.205 37.2185 173.205 33.9567ZM176.36 33.9026C176.36 37.2725 175.098 40.4232 171.891 42.1049C170.419 42.8982 168.368 43.2647 165.688 43.2647H156.694V42.5776L158.64 42.1049C159.219 41.9502 159.429 41.7387 159.429 41.2127V26.3857C159.429 25.8591 159.219 25.6503 158.64 25.4935L156.694 25.0202V24.3341H165.582C167.999 24.3341 169.734 24.65 171.155 25.281C174.73 26.9114 176.36 30.4331 176.36 33.9026ZM130.25 33.8017C130.25 28.5973 127.725 24.9664 123.469 24.9664C118.841 24.9664 116.686 29.3271 116.686 33.8017C116.686 39.0031 119.21 42.6311 123.469 42.6311C128.093 42.6311 130.25 38.2713 130.25 33.8017ZM133.404 33.6983C133.404 39.4217 128.987 43.5774 123.469 43.5774C117.841 43.5774 113.53 39.375 113.53 33.9031C113.53 28.1761 117.947 24.0204 123.469 24.0204C129.093 24.0204 133.404 28.2281 133.404 33.6983ZM147.812 29.4878C147.812 27.8574 147.074 26.3324 145.392 25.5979C144.499 25.2287 143.656 25.2287 142.5 25.2287H141.08V33.9024H143.446C147.022 33.9024 147.812 31.6469 147.812 29.4878ZM153.279 42.1597L155.171 42.5773V43.2644H150.65C150.124 43.2644 149.862 43.104 149.388 42.4709L145.445 36.9507C144.339 35.3734 143.918 34.7983 142.552 34.7983H141.08V41.2127C141.08 41.7394 141.29 41.9976 141.87 42.1047L144.024 42.5773V43.2644H135.559V42.5773L137.506 42.1047C138.083 41.9499 138.293 41.7394 138.293 41.2127V26.3865C138.293 25.8588 138.083 25.65 137.506 25.4935L135.559 25.0199V24.3338H143.814C145.551 24.3338 146.759 24.4932 147.758 24.8585C149.808 25.65 150.964 27.5983 150.964 29.4338C150.964 31.7503 149.23 33.6985 146.338 34.3743V34.4794C146.917 34.7472 147.232 35.1135 149.283 37.7992L151.858 41.2127C152.227 41.7394 152.7 42.0516 153.279 42.1597ZM96.8836 11.3699H97.2393C98.1448 11.3699 99.1194 11.4166 99.7342 10.8015C100.031 10.5046 100.197 10.088 100.197 9.63342C100.197 9.12845 99.999 8.7232 99.7875 8.51169C99.2739 7.99735 98.6068 8.02104 97.876 8.02104H96.8836V11.3699ZM96.8836 16.1283H95.8253V7.16217H97.7603C98.9561 7.16217 99.8586 7.15452 100.564 7.85963C101.013 8.30857 101.263 8.9046 101.263 9.65242C101.263 10.2758 101.082 10.7939 100.707 11.1935C100.384 11.537 99.85 11.8389 99.2692 11.9006C99.5844 11.9186 99.8453 12.0894 100.014 12.2592C100.259 12.5023 100.437 12.8722 100.699 13.4589L101.89 16.1283H100.767L99.7372 13.8042C99.0994 12.3749 98.808 12.2278 97.5081 12.2278H96.8836V16.1283ZM36.7373 13.4922C37.3725 13.4389 37.8866 13.125 38.2127 12.5731C38.6179 11.8872 38.1144 11.0343 37.3266 11.0365C36.7173 11.0385 35.9949 11.5131 35.7498 12.0731C35.4403 12.7802 35.9667 13.5571 36.7373 13.4922ZM36.7486 14.0727C35.5758 14.0714 34.7781 12.8609 35.2394 11.7816C35.5862 10.9701 36.5601 10.3872 37.4177 10.478C38.5873 10.6016 39.2581 11.8714 38.7013 12.908C38.3467 13.5685 37.5001 14.0732 36.7486 14.0727ZM29.2559 7.58445C29.4309 7.68737 29.5901 7.78115 29.7646 7.88382C30.0548 7.39441 30.3344 6.92252 30.6232 6.43558C31.0282 6.67275 31.4142 6.89883 31.8175 7.13502C31.9016 6.98842 31.9791 6.85391 32.0645 6.70558C31.6617 6.46544 31.2775 6.23616 30.8776 5.99774C31.0566 5.6959 31.2246 5.41183 31.3991 5.11739C31.8276 5.36864 32.2336 5.60656 32.6677 5.86126C32.7588 5.70824 32.839 5.57398 32.9288 5.42318C32.3259 5.06779 31.7414 4.72325 31.1479 4.37328C30.5119 5.45255 29.8894 6.50888 29.2559 7.58445ZM34.135 8.26044C33.8573 8.25724 33.6181 8.49047 33.6149 8.76738C33.612 9.04232 33.8494 9.28493 34.1251 9.28838C34.3978 9.29184 34.6419 9.05219 34.6453 8.7775C34.649 8.50108 34.4151 8.2639 34.135 8.26044ZM37.5014 16.1175C37.8086 16.1888 38.1159 16.2611 38.4545 16.3403C38.3847 16.4282 38.3425 16.4844 38.2968 16.538C38.0229 16.8581 37.7462 17.176 37.4754 17.4988C37.4332 17.5489 37.3809 17.6279 37.393 17.68C37.435 17.8606 37.5028 18.0351 37.5843 18.2824C37.6445 18.1913 37.6714 18.1412 37.707 18.0983C38.1112 17.6126 38.5199 17.1303 38.9197 16.6409C39.0005 16.5422 39.0733 16.5128 39.1974 16.5452C39.6051 16.6515 40.0156 16.7468 40.4253 16.845C40.6336 16.8949 40.8423 16.9418 41.0462 16.9889C41.0294 16.5449 40.8312 16.3023 40.3895 16.2838C40.2466 16.2776 40.1054 16.226 39.9637 16.1932C39.7848 16.1515 39.6061 16.1081 39.3931 16.0572C39.7075 15.6964 39.9946 15.3701 40.2769 15.0402C40.3211 14.9886 40.3823 14.9106 40.3707 14.86C40.3265 14.669 40.2554 14.4843 40.1829 14.2627C39.7557 14.7746 39.3561 15.244 38.9689 15.7238C38.8667 15.8504 38.7682 15.8827 38.6162 15.8413C38.3153 15.7591 38.0108 15.6905 37.7074 15.6172C37.359 15.5328 37.0102 15.4494 36.6509 15.3632C36.7469 15.9296 36.7656 15.9501 37.2674 16.0664C37.3451 16.0844 37.4236 16.0992 37.5014 16.1175ZM37.7652 19.5507C37.783 19.7551 37.7983 19.9325 37.8158 20.1352C38.2568 20.0991 38.6818 20.0599 39.1076 20.0308C39.5479 20.0009 39.4768 19.9148 39.5284 20.3931C39.5632 20.7162 39.5804 21.0407 39.6076 21.3882C39.7887 21.3675 39.9423 21.3497 40.0972 21.3317C40.0615 20.8645 40.0279 20.4249 39.9924 19.9622C40.2626 19.9387 40.5158 19.9286 40.7649 19.8911C40.9593 19.8617 41.0319 19.9064 41.0393 20.1181C41.0536 20.5219 41.1032 20.9245 41.1397 21.3465C41.3142 21.3307 41.469 21.3166 41.6427 21.3008C41.5847 20.6036 41.5287 19.9348 41.4715 19.2477C40.2204 19.3501 39.0002 19.4498 37.7652 19.5507ZM42.3644 18.3004C41.6106 13.7713 39.5187 9.91551 36.1849 6.76555C32.6008 3.37915 28.3277 1.49456 23.4017 1.13398C20.7192 0.937521 18.0924 1.25738 15.5358 2.1012C12.125 3.22737 9.18529 5.10259 6.76019 7.7503C3.26298 11.5684 1.43219 16.0829 1.25597 21.2574C1.1918 23.1408 1.39788 25.0039 1.87076 26.8287C3.10182 31.581 5.68339 35.4383 9.59548 38.4044C9.64262 38.4401 9.69765 38.4658 9.77342 38.5107C9.70308 37.4433 9.9299 36.4825 10.4455 35.5836C10.208 35.3339 9.97531 35.089 9.74405 34.8457C9.87733 34.6998 9.87708 34.7001 9.99357 34.7862C10.2071 34.9446 10.4205 35.1026 10.6471 35.2704C11.196 34.4979 11.8846 33.9325 12.7474 33.5327C12.68 33.4742 12.6487 33.4451 12.6156 33.4184C11.7861 32.7506 11.026 32.0111 10.3672 31.1742C7.55391 27.5993 6.49611 23.5588 7.28712 19.0798C7.85353 15.8731 9.35558 13.1242 11.7632 10.9319C15.7088 7.33863 20.3438 6.10412 25.5274 7.33592C31.8271 8.83303 36.3364 14.224 36.8404 20.6542C37.0522 23.3535 36.5763 25.9316 35.3621 28.351C33.4772 32.1067 30.5203 34.648 26.5368 35.9842C26.1049 36.1291 25.809 36.3944 25.5904 36.7688C25.2468 37.3572 25.0955 38.005 25.0111 38.6739C24.9941 38.8101 25.0555 38.8521 25.1715 38.876C26.1694 39.0841 27.1763 39.2195 28.1946 39.2615C30.212 39.3452 32.1793 39.0633 34.0967 38.4345C34.2668 38.3787 34.4462 38.3145 34.5856 38.2076C36.3256 36.8774 37.8333 35.3198 39.0575 33.5031C42.1741 28.877 43.2783 23.7931 42.3644 18.3004ZM33.4128 39.2842C33.3674 39.279 33.3521 39.2731 33.3395 39.2763C31.5499 39.761 29.728 39.94 27.879 39.8363C25.3154 39.6927 22.8881 39.011 20.5533 37.9653C19.0639 37.2982 17.6712 36.4561 16.272 35.6244C15.4366 35.128 14.5678 35.0903 13.6803 35.4654C13.2252 35.6577 12.8466 35.9543 12.5371 36.3729C12.6307 36.4228 12.7045 36.4669 12.782 36.5027C13.6073 36.8821 14.4351 37.2555 15.2577 37.6405C15.6328 37.816 15.7673 38.2434 15.5783 38.5976C15.3917 38.9476 14.9869 39.0673 14.6253 38.8686C14.4156 38.7533 14.207 38.6317 14.014 38.4907C13.3926 38.0369 12.7788 37.5729 12.1336 37.0916C12.1072 37.1644 12.0791 37.2296 12.0596 37.2972C11.6995 38.5473 12.1166 39.7726 13.2168 40.534C13.704 40.8712 14.2342 41.1579 14.7739 41.4043C18.1453 42.9441 21.6598 43.5463 25.3522 43.0013C28.3476 42.5591 31.0126 41.4057 33.3005 39.4083C33.338 39.3755 33.3679 39.3341 33.4128 39.2842ZM24.9652 44.9333C24.8539 44.5685 24.7376 44.2252 24.6473 43.8753C24.6073 43.7198 24.5402 43.6867 24.3911 43.7018C22.8506 43.8577 21.3145 43.8276 19.7868 43.5611C19.6463 43.5366 19.6004 43.586 19.5496 43.7052C19.3961 44.0658 19.226 44.4192 19.0631 44.7758C19.0407 44.8245 19.0227 44.8753 19.0009 44.9289C20.0795 45.0814 20.4287 45.8452 20.3584 46.5479C20.2786 47.3458 19.7255 47.738 18.5717 47.7562C18.6887 48.0317 18.7684 48.3042 18.9101 48.5391C19.592 49.6675 20.6298 50.3445 21.8399 50.7895C21.9001 50.8114 21.9838 50.8018 22.0467 50.7794C22.6808 50.553 23.2694 50.2401 23.7988 49.8235C24.3477 49.3916 24.8196 48.8925 25.0972 48.2388C25.1624 48.0852 25.1972 47.9189 25.2505 47.7439C24.2477 47.8086 23.6065 47.3779 23.4923 46.5926C23.4382 46.2204 23.4928 45.8657 23.7065 45.5496C24.0044 45.1088 24.4496 44.9503 24.9652 44.9333ZM11.1807 35.611C11.3991 35.7411 11.6079 35.8563 11.8068 35.9869C11.9315 36.0686 12.0023 36.041 12.0939 35.9316C13.1485 34.6702 14.7561 34.2933 16.2715 34.9252C16.8071 35.1483 17.3604 35.3284 17.9078 35.5219C18.0576 35.575 18.2154 35.6049 18.4049 35.6545C16.7686 33.1827 13.0305 32.9675 11.1807 35.611ZM18.6774 36.3201C18.6724 36.3327 18.6673 36.345 18.6623 36.3576C19.1577 36.6081 19.653 36.8586 20.1542 37.1121C20.2991 36.948 20.4218 36.8088 20.5548 36.6582C19.9166 36.5432 19.2971 36.4316 18.6774 36.3201ZM25.0439 36.3902C24.958 36.403 24.8726 36.4183 24.7875 36.4341C23.8583 36.6052 22.9224 36.697 21.9762 36.7054C21.467 36.71 21.045 36.926 20.7226 37.3774C21.9221 37.9164 23.1147 38.3668 24.3798 38.679C24.4704 37.856 24.6663 37.0968 25.0992 36.4154C25.0689 36.401 25.0553 36.3885 25.0439 36.3902ZM32.3222 31.636C34.9247 28.8797 36.2052 25.5831 36.2609 22.4317C36.2592 20.1344 35.9672 18.4572 35.4159 16.9497C33.0448 10.4666 26.5188 6.56145 19.7209 7.67577C14.9082 8.4648 11.3562 11.1214 9.15617 15.4656C7.39004 18.9535 7.18149 22.6128 8.40934 26.3277C9.32399 29.0949 10.9667 31.363 13.2662 33.1551C13.3721 33.2378 13.4646 33.2898 13.6174 33.2518C15.7579 32.7192 18.0569 33.7092 19.1372 35.6313C19.2349 35.805 19.3551 35.8766 19.539 35.9067C21.1597 36.171 22.7822 36.1883 24.399 35.8988C27.5023 35.3432 30.1562 33.9298 32.3222 31.636ZM15.5968 42.429C15.4778 42.3764 15.4141 42.3503 15.3524 42.3206C14.6861 42 14.0027 41.71 13.3568 41.3524C11.5245 40.3376 10.9211 38.7304 11.5924 36.7498C11.6064 36.7078 11.6146 36.635 11.5914 36.6133C11.3776 36.4131 11.1563 36.2211 10.9329 36.0229C10.1927 37.296 10.15 39.1586 11.1768 40.6305C12.2328 42.1447 14.0513 42.7518 15.5968 42.429ZM43.073 18.7215C43.7169 23.3468 42.9836 27.7427 40.7841 31.8732C39.3808 34.5085 37.469 36.7211 35.1318 38.5756C34.6841 38.931 34.2954 39.36 33.8674 39.7413C31.715 41.658 29.2078 42.8572 26.3893 43.4202C26.026 43.4927 25.6592 43.549 25.2944 43.6136C25.2811 43.6161 25.2698 43.6277 25.21 43.6635C25.3712 44.1307 25.5232 44.5991 25.6967 45.0597C25.7488 45.1976 25.7498 45.2892 25.6286 45.3758C25.5879 45.4049 25.5504 45.4427 25.5205 45.4829C25.409 45.6332 25.2907 45.6675 25.1009 45.5942C24.8072 45.4812 24.4746 45.6135 24.2707 45.8759C24.073 46.1301 24.0525 46.4758 24.2184 46.7569C24.3805 47.0316 24.7221 47.2303 25.0091 47.1402C25.2895 47.0526 25.5444 46.8836 25.8446 46.7332C25.8631 46.9778 25.9105 47.2671 25.9018 47.5546C25.8799 48.2768 25.5548 48.8829 25.1081 49.4269C24.2951 50.4168 23.2425 51.0506 22.0391 51.4514C21.9813 51.4707 21.9073 51.482 21.8523 51.4635C20.4173 50.9756 19.1895 50.2018 18.3676 48.8871C17.9819 48.2701 17.8607 47.5951 17.9937 46.8774C18.0048 46.8167 18.0261 46.7577 18.0303 46.7421C18.2793 46.8749 18.512 47.0376 18.7702 47.1274C19.0811 47.2355 19.4284 47.0654 19.614 46.7764C19.7942 46.4958 19.7786 46.1486 19.5735 45.8783C19.3674 45.6068 19.038 45.4837 18.7238 45.5989C18.5646 45.6574 18.4893 45.5957 18.3931 45.4968C18.1161 45.2124 18.1238 45.2208 18.303 44.8778C18.5471 44.4101 18.7731 43.9328 19.0204 43.4325C18.6357 43.3385 18.3042 43.2647 17.9767 43.1761C17.57 43.0665 17.1679 42.9404 16.7612 42.8315C16.6694 42.8071 16.5571 42.7985 16.4697 42.8283C13.7252 43.7659 10.869 42.3359 9.97605 39.5789C9.94174 39.4728 9.85832 39.3622 9.767 39.2978C6.78907 37.2019 4.47207 34.5357 2.84711 31.2759C1.6474 28.8698 0.913899 26.326 0.710039 23.643C0.22729 17.2861 2.16026 11.7554 6.51882 7.11231C9.52761 3.90731 13.2304 1.87167 17.53 0.944432C19.6034 0.497469 21.7037 0.357532 23.8158 0.57077C30.6644 1.26207 36.005 4.49841 39.843 10.1905C41.5828 12.7703 42.6435 15.6364 43.073 18.7215ZM35.3865 31.3551C34.8606 31.8028 34.5641 32.4393 34.711 32.8824C34.9082 33.4764 35.3292 33.8708 35.9411 33.9982C36.7257 34.1618 37.0603 33.5411 37.4927 33.0364C36.774 32.4628 36.0788 31.908 35.3865 31.3551ZM35.3339 30.552C36.3214 31.3411 37.278 32.1054 38.2813 32.9068C37.8617 33.3673 37.4769 33.8392 37.0393 34.2556C36.6593 34.6171 36.1674 34.6502 35.6674 34.533C34.3193 34.2166 33.7341 32.7844 34.4995 31.6436C34.7493 31.2717 35.0434 30.9294 35.3339 30.552ZM38.7731 29.8676C39.0422 29.9654 39.2707 29.8901 39.4227 29.628C39.5308 29.4419 39.6118 29.24 39.7172 29.0194C39.3408 28.8508 38.9992 28.6978 38.6196 28.528C38.5335 28.779 38.433 29.0043 38.3807 29.2405C38.321 29.5093 38.5017 29.7692 38.7731 29.8676ZM37.0107 27.1577C38.1547 27.6736 39.2645 28.1738 40.4235 28.6963C40.1735 29.1904 39.9622 29.684 39.6829 30.1357C39.4595 30.497 39.0705 30.5538 38.6739 30.4511C38.2808 30.3492 37.9984 30.1219 37.9239 29.6964C37.9115 29.6258 37.9046 29.5542 37.9004 29.5224H35.9618C36.0198 29.3908 36.0751 29.2343 36.1578 29.0944C36.1879 29.0433 36.2831 29.0073 36.3495 29.0056C36.6835 28.9969 37.0176 29.0063 37.3516 29.0014C37.8459 28.9937 38.0273 28.8419 38.1554 28.3222C37.707 28.118 37.2536 27.912 36.775 27.694C36.8537 27.5151 36.9273 27.3478 37.0107 27.1577ZM40.601 23.8901C40.1629 23.4786 39.2482 23.3493 38.7129 23.623C37.9792 23.9984 37.9229 24.9451 38.6098 25.4005C38.9341 25.6155 39.2969 25.707 39.6908 25.7394C39.8877 25.6952 40.094 25.6752 40.2796 25.6026C41.0028 25.3198 41.1666 24.4209 40.601 23.8901ZM40.9312 23.4238C41.4668 23.9281 41.5842 24.5441 41.355 25.2201C41.1309 25.8813 40.6173 26.2006 39.9482 26.2971C39.8477 26.3117 39.7453 26.3112 39.6878 26.3149C39.2223 26.3035 38.823 26.2088 38.4553 25.999C37.8797 25.6707 37.5845 25.1712 37.603 24.5117C37.6221 23.8266 37.9493 23.3246 38.5797 23.0364C39.2932 22.7103 40.3601 22.8861 40.9312 23.4238ZM17.1477 23.1553H16.6109C16.7807 23.3611 16.779 24.1351 16.6092 24.3345H17.2069C16.9984 24.1465 16.9818 23.427 17.1477 23.1553ZM24.9065 21.2905C24.8958 21.1197 24.8887 21.0064 24.882 20.9003H23.8575V21.23C23.9113 21.1964 23.9197 21.1458 23.9494 21.1234C24.0083 21.079 24.0789 21.0501 24.1446 21.0148C24.1675 21.0762 24.2041 21.1362 24.21 21.1991C24.2208 21.3139 24.2203 21.4311 24.2122 21.5464C24.1981 21.7401 24.2959 21.9635 24.0172 22.114H24.6621C24.402 21.7596 24.5873 21.3843 24.5227 21.0474C24.7608 20.9435 24.7715 21.156 24.9065 21.2905ZM29.3282 14.2573C29.6147 13.3863 29.9055 12.504 30.1928 11.6207C30.2039 11.5871 30.1923 11.5153 30.1752 11.5094C30.1343 11.4958 30.0718 11.4941 30.0385 11.517C29.5839 11.8307 29.1317 12.1479 28.6818 12.4682C28.5678 12.5494 28.5947 12.6193 28.7154 12.6723C28.8176 12.7172 28.9163 12.77 29.0614 12.8414C28.7132 13.1348 28.4059 13.3974 28.0917 13.6516C28.0641 13.6741 27.9649 13.6603 27.9441 13.6311C27.7143 13.3073 27.4937 12.9774 27.2378 12.601C27.411 12.5687 27.5342 12.541 27.6586 12.5237C27.799 12.504 27.8427 12.4411 27.7578 12.3201C27.4108 11.8265 27.0638 11.3332 26.7116 10.8435C26.6193 10.7147 26.4951 10.7196 26.4063 10.8423C26.0529 11.3309 25.7068 11.825 25.3601 12.3186C25.2757 12.4386 25.3159 12.503 25.4578 12.5225C25.5825 12.5398 25.7056 12.5674 25.8776 12.5995C25.6239 12.9739 25.4048 13.3054 25.1723 13.6267C25.1518 13.6548 25.0239 13.6432 24.9785 13.6079C24.8354 13.4971 24.708 13.3658 24.574 13.2432C24.4331 13.1138 24.2912 12.9853 24.1192 12.8285C24.267 12.7587 24.3613 12.7088 24.4597 12.6689C24.5831 12.6193 24.6142 12.5504 24.4963 12.4699C24.0286 12.1498 23.5577 11.8342 23.0853 11.521C23.0495 11.4973 22.993 11.5052 22.9458 11.4985C22.9397 11.5434 22.9172 11.594 22.9298 11.633C23.2136 12.5104 23.5014 13.3863 23.7874 14.2595C25.6481 13.8175 27.4787 13.8204 29.3282 14.2573ZM28.4451 14.7159C27.1901 14.4959 25.9327 14.4977 24.6779 14.7141C24.4807 14.7482 24.2857 14.821 24.1031 14.9054C23.954 14.9743 23.9565 15.1011 24.0992 15.1872C24.1969 15.246 24.3085 15.2887 24.4193 15.3181C25.1915 15.5224 25.9825 15.535 26.9201 15.5434C27.202 15.5194 27.6309 15.5029 28.0535 15.4415C28.3664 15.396 28.6729 15.2993 28.9775 15.2087C29.0372 15.1912 29.1046 15.1009 29.1118 15.0377C29.1172 14.9915 29.0392 14.9103 28.9812 14.8874C28.8072 14.8178 28.6285 14.7479 28.4451 14.7159ZM24.9418 23.7301C24.9282 23.5381 24.9647 23.3429 24.9793 23.1477C24.6293 23.1259 24.6298 23.1262 24.4854 23.4905C24.4425 23.5991 24.3968 23.7064 24.3341 23.859C24.2519 23.6768 24.1929 23.5458 24.1337 23.4152C23.9928 23.104 23.9708 23.0934 23.611 23.1654C23.786 23.3656 23.7596 24.0835 23.5582 24.3333H23.9999C23.6801 24.1134 23.8869 23.8306 23.826 23.5899C23.8452 23.5843 23.8645 23.5786 23.8837 23.5729C23.9842 23.8227 24.0846 24.0724 24.1848 24.3222C24.2129 24.3254 24.2411 24.3286 24.2692 24.3316C24.382 24.0571 24.4948 23.7827 24.6076 23.5085C24.6268 23.5154 24.6458 23.5226 24.6651 23.5297C24.5984 23.7945 24.7754 24.0914 24.5311 24.3266H25.0963C24.8685 24.1522 24.9553 23.9246 24.9418 23.7301ZM25.6138 22.1101C25.4465 21.8862 25.4433 21.1755 25.6024 20.924H25.1037C25.2303 21.3267 25.2424 21.7172 25.0888 22.1101H25.6138ZM27.0467 19.567C27.0889 19.5179 27.2706 19.513 27.3145 19.5596C27.3752 19.624 27.3651 19.7556 27.3888 19.8765H27.8039C27.6462 19.4728 27.4868 19.0653 27.3019 18.5922C27.2274 18.7188 27.1788 18.7839 27.1484 18.8567C27.0053 19.1971 26.8671 19.5394 26.7281 19.8783H26.9996C27.0129 19.762 26.9915 19.6314 27.0467 19.567ZM25.4297 19.8713H25.8618C25.6646 19.7238 25.6079 19.3627 25.7118 19.1025C25.9963 19.3375 26.1136 19.7442 26.5193 19.9409C26.5193 19.6398 26.5085 19.4007 26.523 19.1633C26.5329 19.0056 26.5793 18.8501 26.6082 18.6998H26.1869C26.5368 18.8819 26.371 19.1467 26.3875 19.3792C26.2419 19.242 26.1049 19.103 26.0037 18.9419C25.8613 18.7148 25.676 18.6341 25.4001 18.7054C25.6168 18.9197 25.6313 19.6334 25.4297 19.8713ZM25.7589 24.224C25.6696 24.166 25.6822 23.9513 25.6488 23.8071C25.6743 23.7871 25.6997 23.7669 25.7251 23.7467C25.8214 23.8 25.9176 23.8535 26.0134 23.9066V23.5566C25.9129 23.5899 25.8223 23.62 25.7318 23.6499C25.7066 23.525 25.6814 23.4001 25.6585 23.2851C25.8823 23.1795 25.988 23.2832 26.0936 23.4966V23.158H25.2389C25.422 23.3819 25.4077 24.0988 25.2206 24.3484C25.4628 24.3484 25.6938 24.3498 25.9248 24.3481C26.1745 24.3461 26.2241 24.2773 26.1553 23.9977C26.0694 24.1833 25.9309 24.3358 25.7589 24.224ZM26.9769 23.3177C26.95 23.2493 26.8989 23.1906 26.8589 23.1277C26.8088 23.1913 26.7429 23.2481 26.7116 23.3202C26.5652 23.6578 26.4283 23.9996 26.2923 24.3296H26.5709C26.5786 24.2097 26.5499 24.0798 26.5993 24.0334C26.6551 23.9816 26.8051 23.9648 26.8713 24.0043C26.9932 24.0769 26.9989 24.2074 26.8661 24.3363H27.4182C27.3469 24.2084 27.2743 24.1038 27.2272 23.9888C27.1368 23.7679 27.0643 23.5398 26.9769 23.3177ZM24.7174 19.8728H25.2722C25.0923 19.668 25.0893 18.9404 25.2461 18.7074H24.691C24.8805 18.9034 24.8882 19.6393 24.7174 19.8728ZM26.6363 21.9057C26.7447 21.6365 26.7303 21.3618 26.5879 21.1081C26.4914 20.9356 26.2994 20.9432 26.214 21.1226C26.1629 21.2302 26.1523 21.3573 26.116 21.5062C26.1607 21.6392 26.1898 21.7994 26.2661 21.9326C26.3648 22.1054 26.5628 22.0881 26.6363 21.9057ZM26.4107 22.1375C26.042 22.135 25.79 21.8833 25.7959 21.5234C25.8021 21.152 26.0652 20.8882 26.4292 20.8884C26.7893 20.8884 27.0492 21.1527 27.0411 21.5106C27.0322 21.8976 26.7883 22.1402 26.4107 22.1375ZM126.351 16.1281H127.416V12.5847L130.262 7.16217H129.094L126.947 11.367L124.738 7.16217H123.505L126.351 12.5847V16.1281ZM148.429 11.8872H151.896V11.0153H148.429V8.05634H152.121V7.16217H147.359V16.1283H148.429V11.8872ZM118.521 16.1283H119.598V8.05634H122.255V7.16217H115.854V8.05634H118.521V16.1283ZM137.422 11.6288C137.422 13.857 138.693 15.3736 140.377 15.3736C142.252 15.3736 143.295 13.7792 143.295 11.5585C143.295 9.37008 142.063 7.90875 140.32 7.90875C138.563 7.90875 137.422 9.39278 137.422 11.6288ZM136.306 11.6856C136.306 8.91645 137.985 6.99286 140.407 6.99286C142.753 6.99286 144.411 8.89646 144.411 11.6032C144.411 14.379 142.75 16.2979 140.323 16.2979C138.003 16.2979 136.306 14.3807 136.306 11.6856ZM106.47 15.3938C105.56 15.3938 104.563 14.8045 104.309 14.6156L103.816 15.3427C103.909 15.4299 104.91 16.304 106.496 16.304C108.358 16.304 109.392 15.168 109.392 13.6771C109.392 12.9702 109.103 12.4549 108.722 12.059C108.17 11.4859 107.346 11.1754 106.744 10.8995C106.261 10.6764 105.812 10.4723 105.505 10.1971C105.246 9.96463 105.085 9.68179 105.085 9.28888C105.085 8.47763 105.718 7.87963 106.862 7.87963C107.854 7.87963 108.571 8.40729 108.772 8.56204L109.298 7.92528C109.218 7.83792 108.431 6.99138 106.792 6.99138C105.172 6.99138 104.063 7.97168 104.063 9.34959C104.063 10.0547 104.334 10.5197 104.605 10.8035C105.016 11.2354 105.596 11.5239 106.199 11.7991C106.805 12.0763 107.438 12.3465 107.856 12.7491C108.136 13.0166 108.324 13.3498 108.324 13.7644C108.324 14.6546 107.819 15.3938 106.47 15.3938ZM74.612 16.1283H75.6911V7.16217H74.612V16.1283ZM65.4371 8.77923L69.7569 16.1291H70.874V7.16217H69.886L69.9134 14.553L65.5775 7.16217H64.4775V16.1291H65.4645L65.4371 8.77923ZM57.8267 16.2974C58.922 16.2974 59.7058 15.9491 60.2286 15.4262C61.0988 14.5559 61.0304 13.3261 61.0304 11.6283V7.16241H59.9724V11.9072C59.9724 13.5272 60.0114 14.1983 59.3963 14.8121C59.0651 15.1453 58.5318 15.3741 57.8684 15.3741C57.1889 15.3741 56.5995 15.1673 56.2163 14.7837C55.6629 14.2314 55.6849 13.5339 55.6849 12.8184V7.16241H54.6115V12.4275C54.6115 13.5406 54.5735 14.5826 55.3907 15.3988C55.9895 15.9975 56.873 16.2974 57.8267 16.2974ZM92.9706 15.2077H89.0464V11.8872H92.6307V11.015H89.0464V8.05609H92.8642V7.16217H87.9893V16.1283H92.9706V15.2077ZM82.399 16.1283L85.5487 7.16217H84.5047L81.8116 15.0777L79.1969 7.16217H78.0725L81.1632 16.1283H82.399ZM17.0527 21.3371C17.2555 21.5533 17.4283 21.7828 17.6132 22.0027C17.6652 22.0649 17.7521 22.098 17.8229 22.1444C17.8422 22.1289 17.8612 22.1131 17.8804 22.0973C17.8804 21.8078 17.8713 21.5178 17.8861 21.2288C17.8903 21.1451 17.9636 21.0649 18.0051 20.9829C18.0892 21.0456 18.2107 21.0908 18.2506 21.1747C18.3689 21.423 18.4503 21.6886 18.5567 21.943C18.5861 22.0131 18.6524 22.0679 18.7018 22.1298C18.7467 22.0706 18.8042 22.0171 18.8343 21.9509C18.9908 21.6091 19.0631 21.228 19.3193 20.9264H18.9118C19.0471 21.0706 18.9817 21.4144 18.7613 21.6903C18.7499 21.4087 18.4797 21.2177 18.6288 20.9114C18.3025 20.9114 17.9789 20.9111 17.6554 20.9124C17.6378 20.9126 17.6203 20.9269 17.587 20.9417C17.8804 21.1157 17.7158 21.3731 17.7353 21.6027C17.5749 21.4492 17.4204 21.2956 17.3111 21.1147C17.1687 20.879 16.9722 20.8988 16.6985 20.9289C16.9885 21.0767 16.9154 21.3045 16.9105 21.5027C16.9056 21.7071 16.8671 21.9107 16.8429 22.1165H17.2247C16.8977 21.8843 17.0746 21.5965 17.0527 21.3371ZM18.1616 24.1376C18.0712 24.1818 17.9732 24.2289 17.8767 24.2324C17.8459 24.2334 17.7881 24.1033 17.7812 24.0295C17.7667 23.871 17.7667 23.7096 17.78 23.5509C17.7911 23.4194 17.8298 23.2906 17.858 23.1524H17.3515C17.5285 23.3839 17.5206 24.1109 17.3306 24.3484C17.5771 24.3484 17.8066 24.3498 18.0359 24.3479C18.262 24.3459 18.2943 24.299 18.2536 24.0117C18.2163 24.0648 18.1978 24.1196 18.1616 24.1376ZM19.5227 19.4051C19.44 19.224 19.383 19.1001 19.327 18.9757C19.1774 18.6435 19.1717 18.6405 18.7924 18.7104C18.9634 18.9034 18.9415 19.6292 18.7475 19.88H19.1784C18.8704 19.6487 19.0693 19.3706 19.0101 19.1257C19.0276 19.122 19.0449 19.1183 19.0624 19.1144C19.1702 19.3713 19.2781 19.628 19.3859 19.8849C19.4111 19.8827 19.4363 19.8807 19.4615 19.8785C19.5711 19.6003 19.6809 19.322 19.7905 19.0438L19.8559 19.0636C19.8324 19.3368 19.8092 19.6102 19.7863 19.8805H20.2503C20.0785 19.6467 20.0743 18.8937 20.2342 18.7049C19.8228 18.6445 19.8233 18.6447 19.6811 19.0102C19.6362 19.1262 19.5886 19.2412 19.5227 19.4051ZM19.2169 24.1055C19.1557 24.2469 19.032 24.2844 18.9133 24.2326C18.858 24.2084 18.8343 24.0858 18.819 24.0036C18.8035 23.9194 18.8094 23.8296 18.8171 23.7434C18.8353 23.5458 18.7415 23.3268 18.9649 23.1494H18.3874C18.5695 23.3994 18.5498 24.1465 18.3415 24.3486C18.5974 24.3486 18.8255 24.3498 19.0535 24.3484C19.3006 24.3466 19.3324 24.303 19.284 24.0162C19.2556 24.0532 19.2295 24.0764 19.2169 24.1055ZM16.8685 19.2886C16.869 19.1013 16.8416 18.9239 16.6602 18.8202C16.4981 18.7279 16.4233 18.7733 16.4191 18.9596C16.4169 19.0606 16.4186 19.1615 16.4186 19.2627H16.4199C16.4199 19.3854 16.4147 19.5083 16.4211 19.6307C16.4297 19.7966 16.5292 19.8301 16.6578 19.7571C16.8362 19.6556 16.8681 19.4765 16.8685 19.2886ZM16.8871 19.7815C16.6047 19.8679 16.3009 19.8844 16.0065 19.9316C16.0005 19.9054 15.9949 19.8795 15.9892 19.8533C16.1634 19.6628 16.1693 18.9276 15.9462 18.661C16.2962 18.6919 16.5971 18.6901 16.8836 18.7533C17.0968 18.8 17.2044 18.9927 17.2106 19.2185C17.2175 19.4713 17.1348 19.706 16.8871 19.7815ZM20.5405 19.2933C20.5491 19.4888 20.5092 19.6865 20.4914 19.8728H20.983C20.8169 19.6695 20.8201 18.9152 20.9786 18.6946H20.3611C20.6503 18.8708 20.5319 19.0988 20.5405 19.2933ZM19.8475 22.0282C19.7492 22.0101 19.6498 21.9694 19.5661 21.9144C19.5101 21.8776 19.48 21.8013 19.4104 21.7034C19.4012 22.0936 19.4894 22.1688 19.8455 22.1355C20.0281 22.1182 20.1676 22.0348 20.2125 21.8487C20.2586 21.6567 20.1871 21.5072 20.0113 21.4116C19.9287 21.367 19.8267 21.3398 19.7678 21.2742C19.7233 21.2246 19.7332 21.1263 19.7189 21.0498C19.8028 21.0439 19.8968 21.0121 19.9677 21.0397C20.0299 21.0639 20.0664 21.1547 20.1348 21.2421C20.1972 20.9198 20.0992 20.8489 19.7327 20.9129C19.6234 20.9319 19.5005 21.0592 19.4474 21.168C19.3793 21.3077 19.4457 21.4529 19.5864 21.5415C19.6537 21.5839 19.7376 21.6064 19.7929 21.6597C19.8603 21.7246 19.9198 21.807 19.9521 21.8934C19.9635 21.9235 19.8756 22.0331 19.8475 22.0282ZM19.8796 23.8923C19.8228 23.6487 19.5817 23.4557 19.6905 23.1593H19.1962C19.2625 23.2874 19.3321 23.4029 19.3837 23.526C19.4708 23.7336 19.5412 23.948 19.6293 24.1551C19.6604 24.2279 19.7233 24.2872 19.7717 24.3526C19.8208 24.2899 19.8855 24.2338 19.9166 24.1633C20.0661 23.8256 20.2066 23.4838 20.3455 23.1548H20.0217C20.1932 23.4468 19.9334 23.6472 19.8796 23.8923ZM17.76 19.5209C17.7756 19.6736 17.8619 19.8296 18.0512 19.8131C18.222 19.798 18.2457 19.6423 18.2642 19.5016C18.2709 19.4513 18.278 19.4012 18.2916 19.301C18.265 19.1993 18.2442 19.045 18.181 18.9108C18.1487 18.8424 18.0406 18.7738 17.9653 18.7723C17.9031 18.7711 17.7941 18.8617 17.7844 18.9236C17.7541 19.1198 17.7398 19.3239 17.76 19.5209ZM17.3812 19.2931C17.3849 18.9241 17.6536 18.6521 18.0122 18.6543C18.3703 18.6566 18.6213 18.9187 18.6172 19.2862C18.6127 19.6665 18.3607 19.919 17.9876 19.917C17.6206 19.9148 17.3775 19.6648 17.3812 19.2931ZM23.0673 18.7301C23.3457 18.6188 23.4698 18.6647 23.5816 18.9169C23.6433 19.0561 23.7072 19.1941 23.7704 19.3323C23.7731 19.338 23.7813 19.3412 23.8213 19.3728C23.8714 19.2445 23.9153 19.1314 23.9592 19.0184C24.1016 18.6534 24.1016 18.6534 24.5091 18.7022C24.3484 18.914 24.3603 19.6593 24.552 19.8918H24.2825H24.0742C24.0979 19.6087 24.1206 19.3375 24.1433 19.0663C24.1184 19.0603 24.0935 19.0547 24.0686 19.0487C23.9607 19.3247 23.8529 19.6006 23.745 19.8768C23.7206 19.8802 23.6964 19.8837 23.6719 19.8874L23.3528 19.1406C23.3353 19.1457 23.3175 19.1509 23.3 19.1561C23.343 19.3876 23.1512 19.6527 23.4636 19.8718H23.0816C23.1129 19.6917 23.1709 19.4974 23.1736 19.3025C23.1766 19.1102 23.3047 18.8817 23.0673 18.7301Z" fill="#595959"/>
</svg>
