<svg width="58" height="58" viewBox="0 0 58 58" fill="none" xmlns="http://www.w3.org/2000/svg"><path fill-rule="evenodd" clip-rule="evenodd" d="M29 55.583c13.672-6.522 18.554-18.327 19.802-26.858.266-1.8.438-4.619.438-5.767V8.61L29 2.417 8.76 8.608v14.35c0 1.147.173 3.965.439 5.766C10.446 37.255 15.328 49.06 29 55.583z" fill="#4285F4"/><path fill-rule="evenodd" clip-rule="evenodd" d="M35.595 22.82h.821c1.405 0 2.553 1.153 2.556 2.567v12.827c0 1.413-1.148 2.57-2.553 2.57H21.282c-1.405 0-2.553-1.157-2.553-2.57V25.39c0-1.414 1.148-2.57 2.553-2.57h.822v-2.56c0-3.676 3.026-6.666 6.745-6.666 3.719 0 6.746 2.99 6.746 6.667v2.558zm-6.746-6.8c-2.368 0-4.338 1.903-4.338 4.24v2.56h8.676v-2.56c0-2.337-1.97-4.24-4.338-4.24z" fill="#fff"/><path fill-rule="evenodd" clip-rule="evenodd" d="M31.719 30.531c0-1.513-1.29-2.74-2.858-2.74s-2.882 1.227-2.882 2.74c0 1.012.387 1.898 1.378 2.369v3.048h2.975V32.9c.991-.474 1.387-1.357 1.387-2.369z" fill="#185ABC"/></svg>