<svg width="330" height="330" fill="none" xmlns="http://www.w3.org/2000/svg"><g clip-path="url(#clip0)"><path d="M165 329.992c91.127 0 165-73.873 165-165s-73.873-165-165-165-165 73.873-165 165 73.873 165 165 165z" fill="#E6F0FF"/><path d="M237.72 33.388H93.023v95.085H237.72V33.388zM287.673 54.405a165.938 165.938 0 00-23.236-21.017H252.83v95.085h73.14a164.556 164.556 0 00-38.297-74.068zM4.509 128.473H78.23V33.388H65.608a165.054 165.054 0 00-61.1 95.085zM42.57 275.612C72.765 309.004 116.424 330 165 330c48.576 0 92.218-20.996 122.413-54.388H42.57z" fill="#E6F0FF"/><path d="M253.601 286.312H78.239a1.033 1.033 0 01-1.032-1.031 1.03 1.03 0 011.032-1.031H253.6a1.028 1.028 0 011.031 1.031 1.033 1.033 0 01-1.031 1.031z" fill="#C6DAFC"/><path d="M270.567 119.241H61.269V239.46h209.298V119.241zM84.657 268.74h162.525a23.385 23.385 0 0023.385-23.385v-5.895H61.269v5.895a23.386 23.386 0 0023.388 23.385z" fill="#C2DAFF"/><path d="M180.221 149.263h-28.66v28.661h28.66v-28.661z" fill="#fff"/><path d="M270.567 73.322a23.39 23.39 0 00-23.385-23.389H84.657A23.389 23.389 0 0061.27 73.322v16.021h209.298V73.322z" fill="#2C83FC"/><path d="M270.567 89.343H61.269v29.898h209.298V89.343z" fill="#fff"/><path d="M270.567 149.762v-1.237h-29.288v-29.288h-1.237v29.288h-28.681v-29.288h-1.238v29.288h-28.66v-29.288h-1.238v29.288h-28.664v-29.288h-1.238v29.288h-28.66v-29.288h-1.238v29.288H91.76v-29.288h-1.237v29.288H61.269v1.237h29.254v28.661H61.269v1.237h29.254v28.653H61.269v1.237h29.254v28.665H61.269v1.237h209.298v-1.237h-29.288V209.55h29.288v-1.237h-29.288V179.66h29.288v-1.237h-29.288v-28.661h29.288zm-60.444 0v28.661h-28.66v-28.661h28.66zm-58.575 29.898h28.665v28.653h-28.652l-.013-28.653zm-1.237 28.661h-28.648V179.66h28.66l-.012 28.661zm31.139-28.661h28.661v28.653h-28.648l-.013-28.653zm-1.237-29.898v28.661h-28.652v-28.661h28.652zm-29.902 0v28.661h-28.648v-28.661h28.648zm-58.575 0H120.4v28.661H91.76l-.024-28.661zm0 29.898H120.4v28.653H91.76l-.024-28.653zm0 58.575V209.55H120.4v28.665l-28.664.02zm29.902 0V209.55h28.66v28.665l-28.66.02zm29.898 0V209.55h28.665v28.665l-28.665.02zm29.902 0V209.55h28.661v28.665l-28.661.02zm58.575 0h-28.652V209.55h28.664l-.012 28.685zm0-29.902h-28.652V179.66h28.664l-.012 28.673zm0-29.898h-28.652v-28.673h28.664l-.012 28.673zM64.775 124.501a1.753 1.753 0 100-3.506 1.753 1.753 0 000 3.506z" fill="#9AC2FF"/><path d="M95.267 124.501a1.753 1.753 0 100-3.506 1.753 1.753 0 000 3.506zM125.169 124.501a1.753 1.753 0 100-3.506 1.753 1.753 0 000 3.506zM155.067 124.501a1.753 1.753 0 100-3.506 1.753 1.753 0 000 3.506zM184.969 124.501a1.753 1.753 0 100-3.506 1.753 1.753 0 000 3.506zM214.867 124.501a1.753 1.753 0 100-3.505 1.753 1.753 0 000 3.505zM244.683 124.501a1.753 1.753 0 100-3.506 1.753 1.753 0 000 3.506zM64.775 155.017a1.753 1.753 0 10.001-3.505 1.753 1.753 0 00-.001 3.505zM95.267 155.017a1.753 1.753 0 10.001-3.505 1.753 1.753 0 00-.001 3.505zM125.169 155.017a1.753 1.753 0 100-3.505 1.753 1.753 0 000 3.505z" fill="#9AC2FF"/><path d="M155.067 155.017a1.753 1.753 0 100-3.505 1.753 1.753 0 000 3.505z" fill="#2C83FC"/><path d="M184.969 155.017a1.753 1.753 0 100-3.505 1.753 1.753 0 000 3.505zM214.867 155.017a1.752 1.752 0 100-3.506 1.753 1.753 0 000 3.506zM244.683 155.017a1.753 1.753 0 100-3.505 1.753 1.753 0 000 3.505zM64.775 184.92a1.753 1.753 0 100-3.506 1.753 1.753 0 000 3.506zM95.267 184.92a1.753 1.753 0 100-3.506 1.753 1.753 0 000 3.506zM125.169 184.92a1.753 1.753 0 100-3.506 1.753 1.753 0 000 3.506zM155.067 184.92a1.753 1.753 0 100-3.506 1.753 1.753 0 000 3.506zM184.969 184.92a1.753 1.753 0 100-3.506 1.753 1.753 0 000 3.506zM244.683 184.92a1.753 1.753 0 100-3.506 1.753 1.753 0 000 3.506zM64.775 214.818a1.753 1.753 0 100-3.506 1.753 1.753 0 000 3.506zM95.267 214.818a1.753 1.753 0 100-3.506 1.753 1.753 0 000 3.506zM125.169 214.818a1.753 1.753 0 100-3.506 1.753 1.753 0 000 3.506zM155.067 214.818a1.753 1.753 0 100-3.506 1.753 1.753 0 000 3.506zM184.969 214.818a1.753 1.753 0 100-3.506 1.753 1.753 0 000 3.506zM214.867 214.818a1.753 1.753 0 100-3.505 1.753 1.753 0 000 3.505zM244.683 214.818a1.753 1.753 0 100-3.506 1.753 1.753 0 000 3.506zM214.867 184.92a1.753 1.753 0 100-3.505 1.753 1.753 0 000 3.505z" fill="#9AC2FF"/><path d="M280.912 136.983h-66.891a3.907 3.907 0 00-3.906 3.91v103.719a3.907 3.907 0 003.91 3.911h66.887a3.896 3.896 0 002.764-1.146 3.903 3.903 0 001.143-2.765V140.893a3.903 3.903 0 00-2.411-3.612 3.896 3.896 0 00-1.496-.298z" fill="#E6F0FF"/><path d="M283.66 134.062h-65.996a4.328 4.328 0 00-4.327 4.328v102.885a4.328 4.328 0 004.327 4.328h65.996a4.328 4.328 0 004.327-4.328V138.39a4.328 4.328 0 00-4.327-4.328z" fill="#fff"/><path d="M287.987 148.566h-74.65v1.213h74.65v-1.213z" fill="#E6F0FF"/><path d="M235.566 223.831h-.004a3.382 3.382 0 00-3.382 3.382v.004a3.383 3.383 0 003.382 3.383h.004a3.383 3.383 0 003.383-3.383v-.004a3.383 3.383 0 00-3.383-3.382z" fill="#FFC000"/><path d="M280.075 193.442h-47.157c-.628 0-1.138.51-1.138 1.138v4.493c0 .628.51 1.138 1.138 1.138h47.157c.629 0 1.139-.51 1.139-1.138v-4.493c0-.628-.51-1.138-1.139-1.138z" fill="#9AC2FF"/><path d="M221.71 193.462a3.384 3.384 0 013.383 3.383v3.382h-3.383a3.381 3.381 0 01-2.391-5.774 3.382 3.382 0 012.391-.991z" fill="#00A14E"/><path d="M268.319 201.836H231.78v1.82h36.539v-1.82zM284.807 154.246h-.004a.907.907 0 00-.908.908v34.724c0 .501.406.907.908.907h.004a.907.907 0 00.907-.907v-34.724a.907.907 0 00-.907-.908zM253.894 228.252h-12.198v1.82h12.198v-1.82z" fill="#E6F0FF"/><path d="M259.966 224.354h-18.27v1.82h18.27v-1.82z" fill="#9AC2FF"/><path d="M223.958 163.197h-4.492c-.628 0-1.138.51-1.138 1.139v4.492c0 .629.51 1.138 1.138 1.138h4.492c.629 0 1.139-.509 1.139-1.138v-4.492a1.14 1.14 0 00-1.139-1.139z" fill="#2C83FC"/><path d="M280.059 163.197H231.78v1.819h48.279v-1.819z" fill="#C2DAFF"/><path d="M268.319 169.406H231.78v1.819h36.539v-1.819zM257.656 174.339H231.78v1.819h25.876v-1.819z" fill="#E6F0FF"/><path d="M276.012 236.185h-.606v6.806h.606v-6.806zM284.592 241.213l-2.689-2.685-2.686 2.685-.412-.412 2.887-2.888a.304.304 0 01.413 0l2.887 2.888-.4.412zM283.52 139.689l-.429-.429-1.952 1.951-1.951-1.951-.429.429 1.951 1.951-1.951 1.952.429.429 1.951-1.952 1.952 1.952.429-.429-1.952-1.952 1.952-1.951z" fill="#C2DAFF"/><path d="M287.987 233.174h-74.65v1.213h74.65v-1.213z" fill="#E6F0FF"/><path d="M40.425 265.65a10.182 10.182 0 017.116 1.068l11.723-78.173-7.116-1.068-11.723 78.173z" fill="#C2DAFF"/><path d="M59.73 173.279l-3.547-.532a1.788 1.788 0 00-.707.031 1.794 1.794 0 00-1.117.822 1.795 1.795 0 00-.239.665l-.495 3.403 7.116 1.064.511-3.399a1.813 1.813 0 00-1.522-2.054z" fill="#2C83FC"/><path d="M40.425 265.65v.079l1.287 5.911a4.075 4.075 0 011.473-.054c.488.077.959.24 1.39.483l2.966-5.276v-.074a10.177 10.177 0 00-7.116-1.069z" fill="#fff"/><path d="M41.704 271.627l.866 3.985 1.997-3.556a4.14 4.14 0 00-1.39-.482 4.074 4.074 0 00-1.473.053z" fill="#2C83FC"/><path d="M53.622 177.673l-1.47 9.799 7.115 1.067 1.47-9.799-7.115-1.067zM53.672 190.253l-10.82 72.06.815.123 10.821-72.06-.816-.123zM56.195 190.631l-10.82 72.06.815.122 10.821-72.06-.816-.122zM270.567 118.004H61.269v1.237h209.298v-1.237z" fill="#9AC2FF"/></g><defs><clipPath id="clip0"><path fill="#fff" d="M0 0h330v330H0z"/></clipPath></defs></svg>