<svg width="330" height="330" fill="none" xmlns="http://www.w3.org/2000/svg"><path d="M165 330c91.127 0 165-73.873 165-165S256.127 0 165 0 0 73.873 0 165s73.873 165 165 165z" fill="#E6F0FF"/><path d="M237.171 33.677H92.474v95.085h144.697V33.677zM287.661 54.694a165.45 165.45 0 00-23.248-21.017h-11.596v95.081h73.145a164.546 164.546 0 00-38.301-74.064zM3.96 128.758h73.722V33.677H65.059A165.057 165.057 0 003.96 128.758zM27.638 256.435C57.21 300.782 107.692 330 165 330c57.309 0 107.791-29.218 137.363-73.565H27.638z" fill="#E6F0FF"/><path d="M58.467 85.656h212.714a8.25 8.25 0 018.25 8.25v145.806H50.197V93.926a8.251 8.251 0 018.27-8.27z" fill="#fff"/><path d="M164.827 93.848a1.794 1.794 0 100-3.588 1.794 1.794 0 000 3.588z" fill="#2C83FC"/><path d="M290.396 243.012H39.249a4.224 4.224 0 00-4.224 4.224v4.975a4.224 4.224 0 004.224 4.224h251.147a4.224 4.224 0 004.224-4.224v-4.975a4.224 4.224 0 00-4.224-4.224z" fill="#fff"/><path d="M128.63 167.933H60.803v67.827h67.827v-67.827z" fill="#E6F0FF"/><path d="M198.738 167.933h-67.827v67.827h67.827v-67.827z" fill="#C2DAFF"/><path d="M198.738 97.825h-67.827v67.827h67.827V97.825z" fill="#E6F0FF"/><path d="M60.803 102.271v63.381h67.827V97.825H65.25a4.45 4.45 0 00-4.447 4.446z" fill="#C2DAFF"/><path d="M268.847 167.933H201.02v67.827h67.827v-67.827z" fill="#E6F0FF"/><path d="M264.413 97.825H201.02v67.827h67.827v-63.381a4.45 4.45 0 00-4.434-4.446z" fill="#C2DAFF"/><path d="M128.63 139.137H60.803v.825h67.827v-.825z" fill="#E6F0FF"/><path d="M74.39 197.579c5.568 0 10.082-4.514 10.082-10.081 0-5.568-4.514-10.082-10.082-10.082-5.568 0-10.081 4.514-10.081 10.082 0 5.567 4.513 10.081 10.081 10.081z" fill="#fff"/><path d="M128.63 197.58H60.803v4.265h67.827v-4.265z" fill="#C2DAFF"/><path d="M118.907 106.198H71.478v25.538h47.429v-25.538z" fill="#9AC2FF"/><path d="M184.916 249.868h-40.182a4.793 4.793 0 00-4.649 3.621l-.742 2.946h.85l.693-2.743a3.955 3.955 0 011.409-2.161 3.962 3.962 0 012.439-.838h40.182a3.964 3.964 0 013.848 2.999l.693 2.743h.854l-.746-2.946a4.79 4.79 0 00-4.649-3.621z" fill="#E6F0FF"/><path d="M223.117 97.825H201.02v35.627h22.097V97.825z" fill="#9AC2FF"/><path d="M262.119 173.712h-27.114v39.378h27.114v-39.378z" fill="#fff"/><path d="M245.949 203.602h-22.11a6.047 6.047 0 00-6.047 6.047v7.256a6.047 6.047 0 006.047 6.047h22.11a6.047 6.047 0 006.048-6.047v-7.256a6.047 6.047 0 00-6.048-6.047zM164.876 150.674c18.758 0 33.965-7.308 33.965-16.323 0-9.014-15.207-16.322-33.965-16.322-18.759 0-33.965 7.308-33.965 16.322 0 9.015 15.206 16.323 33.965 16.323z" fill="#C2DAFF"/><path d="M176.871 235.756h-24.094l-21.866-67.823h67.827l-21.867 67.823z" fill="#9AC2FF"/><path d="M174.315 116.696l2.433 4.377a15.824 15.824 0 01-.742 16.591l-3.098 4.537-13.394-1.262a6.601 6.601 0 01-5.651-8.526l4.702-14.999 8.758-3.222 6.992 2.504zM169.708 107.739l-4.794-.979a3.129 3.129 0 10-1.252 6.131l4.794.979a3.129 3.129 0 101.252-6.131z" fill="#53332D"/><path d="M171.398 112.906a8.799 8.799 0 00-4.748-1.386h-.058a8.813 8.813 0 00-3.972.944c.32.201.673.341 1.044.413l4.797.973a3.132 3.132 0 002.937-.944z" fill="#422622"/><path d="M172.908 128.325h-12.437v15.085h12.437v-15.085z" fill="#936D61"/><path d="M172.015 141.7l-11.318-1.075a4.888 4.888 0 00-5.329 4.403l-.224 2.366a4.887 4.887 0 004.403 5.328l11.318 1.076a4.888 4.888 0 005.329-4.403l.224-2.366a4.888 4.888 0 00-4.403-5.329z" fill="#00A14F"/><path d="M102.3 118.565l10.874 21.566a8.591 8.591 0 01-3.484 11.364 8.577 8.577 0 01-4.189 1.089h-18.5a8.584 8.584 0 01-7.111-3.773 8.587 8.587 0 01-.863-8.004l8.642-21.594a8.023 8.023 0 017.012-5.033 8.028 8.028 0 017.619 4.385z" fill="#734B3F"/><path d="M103.715 130.573l-8.303 19.932 8.052 2.008c5.424-7.684 5.284-17.007 4.644-22.407-1.316.858-2.796 1.267-4.393.467z" fill="#5E4137"/><path d="M83.585 152.967l-6.414 1.378a13.737 13.737 0 00-10.696 11.307h56.487a13.75 13.75 0 00-3.593-7.314 13.752 13.752 0 00-7.103-3.993l-6.418-1.378a53.171 53.171 0 00-22.263 0z" fill="#7BAAF7"/><path d="M100.865 139.636h-10.91v15.184h10.91v-15.184z" fill="#FFA78B"/><path d="M101.042 146.429H89.36a2.421 2.421 0 00-2.421 2.422v5.878a2.421 2.421 0 002.42 2.421h11.683a2.421 2.421 0 002.421-2.421v-5.878a2.421 2.421 0 00-2.421-2.422z" fill="#7BAAF7"/><path d="M89.954 144.528c5.825-.413 9.075-2.063 10.911-3.675v-1.217h-10.91v4.892z" fill="#FF835A"/><path d="M98.46 121.201a6.636 6.636 0 01-5.721 3.275h-6.423l-.854 8.18a8.972 8.972 0 0017.845 1.856l.412-3.939c-3.015-1.745-5.131-5.268-5.259-9.372z" fill="#FFA78B"/><path d="M96.245 115.744a8.963 8.963 0 00-9.85 8.006l-.08.743h6.424a6.631 6.631 0 005.721-3.276c.144 4.105 2.244 7.627 5.255 9.372l.52-4.978a8.957 8.957 0 00-4.643-8.831 8.952 8.952 0 00-3.347-1.036z" fill="#734B3F"/><path d="M91.988 131.93a2.868 2.868 0 003.173.697c.357-.146.68-.362.952-.635 0 0-1.617-1.143-4.014-.112l-.111.05z" fill="#F26635"/><path d="M93.638 130.189a.412.412 0 01-.322-.412.411.411 0 01.412-.413l.685.021a.41.41 0 01.413.412.412.412 0 01-.413.413l-.689-.025-.086.004z" fill="#FF835A"/><path d="M92.416 127.764a.524.524 0 100-1.048.524.524 0 000 1.048zM95.824 127.764a.524.524 0 100-1.048.524.524 0 000 1.048zM85.21 125.346h1.015l.091-.87h-.759l-.347.87z" fill="#5E4137"/><path d="M217.726 217.14h32.534a10.355 10.355 0 019.9 7.38l3.428 11.236h-59.099l3.325-11.236a10.345 10.345 0 019.912-7.38z" fill="#9AC2FF"/><path d="M254.653 148.793l-7.644-1.943a15.339 15.339 0 01-18.312 4.037 15.324 15.324 0 01-5.27-4.091l-7.636 1.972a9.897 9.897 0 00-5.355 3.529 9.893 9.893 0 00-2.07 6.07v7.285h53.757V158.4a9.903 9.903 0 00-7.47-9.607z" fill="#E6F0FF"/><path d="M235.241 152.353a15.307 15.307 0 0011.768-5.503l-2.809-.713a36.975 36.975 0 00-18.368.037l-2.405.623a15.299 15.299 0 0011.814 5.556z" fill="#fff"/><path d="M229.788 148.179a15.35 15.35 0 0010.91 0v-10.024h-10.91v10.024z" fill="#FBC9BA"/><path d="M229.788 141.075a8.925 8.925 0 005.449 2.116 8.929 8.929 0 005.461-1.596v-4.587h-10.91v4.067z" fill="#F8A68C"/><path d="M235.756 113.809a8.966 8.966 0 00-9.293 8.617l-.343 8.964a8.972 8.972 0 008.593 9.306 8.972 8.972 0 009.306-8.622l.338-8.963a8.966 8.966 0 00-2.38-6.438 8.963 8.963 0 00-6.237-2.864h.016z" fill="#FBC9BA"/><path d="M236.144 127.949h-.07l-.685-.024a.414.414 0 010-.825l.685.02a.416.416 0 01.433.392.414.414 0 01-.392.433l.029.004zM235.95 131.175a2.85 2.85 0 01-2.285-1.147.415.415 0 01.388-.656.407.407 0 01.272.161 2.032 2.032 0 001.943.792c.357-.058.693-.208.973-.437a.414.414 0 01.637.512.415.415 0 01-.113.123 2.814 2.814 0 01-1.369.615 2.767 2.767 0 01-.446.037z" fill="#F8A68C"/><path d="M236.391 113.801h-.169v.049c-.156 0-.309-.037-.466-.041a8.944 8.944 0 00-6.526 2.475 12.194 12.194 0 008.374 5.693c7.838 1.501 10.469-.644 10.469-.644s-.882-7.532-11.682-7.532z" fill="#FEC010"/><path d="M246.914 118.449a8.5 8.5 0 00-.515-.721c-4.641 1.068-8.791.825-12.185-.747a12.977 12.977 0 01-3.16-2.063c-.254.14-.5.293-.739.458l.058.054a14.084 14.084 0 003.073 2.669c3.069 1.976 6.6 2.652 9.995 2.652a29.69 29.69 0 004.397-.35 7.627 7.627 0 00-.297-.788c-4.442.647-8.361.276-11.55-1.106 1.624.471 3.306.709 4.996.706a25.372 25.372 0 005.927-.764z" fill="#FAA31B"/><path d="M232.559 115.137l-.301-.767c.235-.095 5.775-2.244 11.868-.755l-.194.8c-5.82-1.427-11.315.697-11.373.722z" fill="#FEC010"/><path d="M241.325 219.846v-15.085h-12.437v15.085l6.221 6.216 6.216-6.216z" fill="#734B3F"/><path d="M235.109 226.063l-6.221-6.217v6.217h6.221z" fill="#fff"/><path d="M241.325 226.063v-6.217l-6.216 6.217h6.216z" fill="#fff"/><path d="M228.888 212.97s3.473 3.737 12.437 3.737v-7.903h-12.437v4.166z" fill="#53332D"/><path d="M235.067 183.439a8.961 8.961 0 00-6.358 2.595 8.96 8.96 0 00-2.659 6.332l-.041 8.967a8.954 8.954 0 002.596 6.355 8.952 8.952 0 006.33 2.654 8.98 8.98 0 003.437-.665 8.981 8.981 0 004.878-4.832 8.954 8.954 0 00.698-3.429l.042-8.968a8.978 8.978 0 00-2.599-6.355 8.977 8.977 0 00-6.332-2.654h.008z" fill="#734B3F"/><path d="M243.982 195.678l-1.151.02-.54 5.775a.753.753 0 01-.873.659.749.749 0 01-.365-.172 9.117 9.117 0 00-12.173-.276.746.746 0 01-1.237-.524l-.376-5.363h-1.217l-.037 8.539c-.024 4.863 3.738 9.026 8.597 9.219a8.968 8.968 0 009.339-8.918l.033-8.959z" fill="#000"/><path d="M234.927 207.595a3.364 3.364 0 01-3.374-3.3l-.037-2.199 1.493-.532a5.714 5.714 0 013.857 0l1.377.495.033 2.124a3.354 3.354 0 01-.962 2.405 3.36 3.36 0 01-2.387 1.007z" fill="#734B3F"/><path d="M233.929 198.383a.413.413 0 110-.825l1.931-.041a.413.413 0 010 .825l-1.931.041z" fill="#53332D"/><path d="M236.047 202.984l.59.517-.517.589a1.493 1.493 0 01-2.102.137l-.589-.517.517-.589a1.488 1.488 0 012.101-.137z" fill="#422622"/><path d="M235.521 226.062h-.825v9.694h.825v-9.694z" fill="#E6F0FF"/><path d="M87.995 184.705L73.38 209.896a4.954 4.954 0 002.023 6.829c.789.41 1.673.6 2.56.551l30.479-2.029a4.956 4.956 0 003.828-2.292 4.945 4.945 0 00.429-4.44l-8.728-22.09-15.976-1.72z" fill="#422622"/><path d="M75.438 215.189h39.382a7.839 7.839 0 017.837 7.837v12.734H67.605v-12.734a7.838 7.838 0 017.833-7.837z" fill="#9AC2FF"/><path d="M95.576 180.852c3.347 0 6.06-2.262 6.06-5.053s-2.713-5.053-6.06-5.053c-3.346 0-6.06 2.262-6.06 5.053s2.714 5.053 6.06 5.053z" fill="#422622"/><path d="M95.91 180.547a8.97 8.97 0 00-9.285 8.626l-.099 2.582a51.622 51.622 0 0017.738-4.476 8.974 8.974 0 00-8.353-6.732z" fill="#422622"/><path d="M100.745 204.295H89.513v10.898h11.232v-10.898z" fill="#936D61"/><path d="M95.4 226.087l-5.887-10.898h11.232l-5.346 10.898z" fill="#fff"/><path d="M89.513 207.03c2.326 2.26 6.109 5.069 11.232 6.059v-14.486a3360.3 3360.3 0 00-11.232 4.244v4.183z" fill="#734B3F"/><path d="M86.51 191.755l-.243 6.381a8.968 8.968 0 008.609 9.298 8.975 8.975 0 006.444-2.373 8.978 8.978 0 002.874-6.236l.338-8.964a9.003 9.003 0 00-.276-2.569 51.635 51.635 0 01-17.746 4.463z" fill="#936D61"/><path d="M97.76 193.272a.524.524 0 10-.074-1.044.524.524 0 00.073 1.044zM93.464 193.176a.524.524 0 10-.075-1.046.524.524 0 00.075 1.046z" fill="#422622"/><path d="M94.416 198.771a3.29 3.29 0 01-1.86-1.189.413.413 0 11.654-.506 2.437 2.437 0 003.516.372.405.405 0 01.3-.096.4.4 0 01.281.145.41.41 0 01-.048.581 3.255 3.255 0 01-2.843.693zM96.145 195.74l-.045.005-1.59.006a.415.415 0 01-.294-.706.423.423 0 01.292-.12l1.59-.006a.413.413 0 11.048.825v-.004z" fill="#734B3F"/><path d="M79.708 225.658a.42.42 0 00-.208.412.408.408 0 00.051.153 14.109 14.109 0 011.493 9.533h.825c.634-3.4.066-6.914-1.608-9.941a.41.41 0 00-.245-.19.408.408 0 00-.308.033z" fill="#7BAAF7"/><path d="M195.224 221.352a11.892 11.892 0 00-4.02-7.196 11.89 11.89 0 00-7.732-2.857h-9.351l.433-2.495H155.22l.412 2.495h-8.328a11.893 11.893 0 00-11.748 10.053l-2.244 14.404h63.913l-2.001-14.404z" fill="#FEC010"/><path d="M237.398 195.752a.602.602 0 100-1.204.602.602 0 000 1.204zM232.386 195.752a.603.603 0 100-1.206.603.603 0 000 1.206zM238.252 125.404a.601.601 0 10.001-1.203.601.601 0 00-.001 1.203zM233.24 125.404a.601.601 0 10.001-1.203.601.601 0 00-.001 1.203z" fill="#422622"/><path d="M195.146 235.756v-2.116h1.782l-.058-.412h-1.724v-7.058h.746l-.057-.413h-.689v-4.834a11.92 11.92 0 00-.462-1.712v6.546h-7.058V218.7h6.86c-.054-.137-.116-.277-.174-.413h-6.686v-6.241l-.466-.165v6.406h-7.054v-6.988h-.466v6.988h-7.058v-7.058h1.551l.07-.412h-1.621v-2.013h-.462v2.013h-7.058v-2.013h-.474v2.013h-7.054v-2.013h-.466v2.013h-1.51l.07.412h1.44v7.058h-7.05v-6.988h-.466v6.988h-7.054v-5.973c-.156.07-.313.14-.466.219v5.754h-5.564c-.062.136-.12.276-.178.413h5.742v7.057h-7.058v-.693l-.462 2.983v5.181h-.825l-.062.412h.871v2.116h.462v-2.116h7.058v2.116h.466v-2.116h7.054v2.116h.466v-2.116h7.058v2.116h.466v-2.116h7.062v2.116h.466v-2.116h7.058v2.116h.462v-2.116h7.058v2.116h.466v-2.116h7.054v2.116h.466v-2.116h7.082v2.116h.446zm-53.114-2.528h-7.058v-7.058h7.058v7.058zm7.52 0h-7.054v-7.058h7.054v7.058zm0-7.471h-7.054V218.7h7.054v7.057zm7.524 7.471h-7.058v-7.058h7.058v7.058zm0-7.471h-7.058V218.7h7.058v7.057zm7.512 7.471h-7.054v-7.058h7.054v7.058zm0-7.471h-7.054V218.7h7.054v7.057zm0-7.47h-7.054v-7.058h7.054v7.058zm7.524 14.941h-7.05v-7.058h7.058l-.008 7.058zm0-7.471h-7.05V218.7h7.058l-.008 7.057zm0-7.47h-7.05v-7.058h7.058l-.008 7.058zm7.52 14.941h-7.05v-7.058h7.058l-.008 7.058zm0-7.471h-7.05V218.7h7.058l-.008 7.057zm7.52 7.471h-7.054v-7.058h7.054v7.058zm0-7.471h-7.054V218.7h7.054v7.057zm.466 7.471v-7.058h7.082v7.058h-7.082z" fill="#FAA31B"/><path d="M170.251 213.675l-2.062 1.036a7.428 7.428 0 01-6.761 0l-2.021-1.036v-15.551h10.844v15.551z" fill="#FBC9BA"/><path d="M159.407 206.143a10.101 10.101 0 005.135 2.343h.054a7.935 7.935 0 005.655-1.266v-9.096h-10.844v8.019z" fill="#F8A68C"/><path d="M164.769 179.813a8.88 8.88 0 00-6.277 2.597 8.883 8.883 0 00-2.6 6.276v8.935a8.877 8.877 0 005.48 8.198 8.861 8.861 0 003.397.674h.054a8.856 8.856 0 006.276-2.597 8.86 8.86 0 002.601-6.275v-8.935a8.878 8.878 0 00-5.481-8.199 8.875 8.875 0 00-3.396-.674h-.054z" fill="#FBC9BA"/><path d="M160.463 136.975a11.033 11.033 0 006.121 3.654h.058a7.546 7.546 0 006.258-1.361v-10.057h-12.437v7.764z" fill="#734B3F"/><path d="M167.29 193.661a.603.603 0 10-.002-1.206.603.603 0 00.002 1.206zM162.282 193.661a.602.602 0 100-1.204.602.602 0 000 1.204z" fill="#53332D"/><path d="M165.128 196.494h-.788a.412.412 0 110-.825h.788a.415.415 0 01.413.413.414.414 0 01-.413.412z" fill="#F8A68C"/><path d="M171.976 191.94h1.724v-3.254a8.875 8.875 0 00-.227-1.968h-1.497v5.222zM157.612 191.94h-1.72v-3.254a8.875 8.875 0 01.227-1.968h1.493v5.222z" fill="#F5825D"/><path d="M164.328 190.521a19.806 19.806 0 0011.55-3.782c-.037-4.591-2.401-10.061-6.984-8.395 0 0-1.369-2.219-3.981-2.219-5.886 0-10.518 4.604-11.525 10.544a17.212 17.212 0 0010.94 3.852z" fill="#F26635"/><path d="M173.7 191.528h-3.267a3.338 3.338 0 00-2.392-.986 3.137 3.137 0 00-3.09 2.199h-.705a3.14 3.14 0 00-3.09-2.199 3.338 3.338 0 00-2.393.986h-2.887v.825h2.31a2.63 2.63 0 00-.231 1.077c0 1.592 1.431 2.887 3.184 2.887 1.754 0 3.098-1.237 3.181-2.751h.528c.078 1.526 1.468 2.751 3.176 2.751 1.708 0 3.185-1.295 3.185-2.887a2.662 2.662 0 00-.231-1.077h2.706l.016-.825zm-12.544 3.964c-1.299 0-2.36-.928-2.36-2.062 0-1.135 1.061-2.063 2.36-2.063s2.359.924 2.359 2.063c0 1.138-1.056 2.062-2.359 2.062zm6.885 0c-1.304 0-2.36-.928-2.36-2.062 0-1.135 1.056-2.063 2.36-2.063 1.303 0 2.359.924 2.359 2.063 0 1.138-1.06 2.062-2.359 2.062z" fill="#fff"/><path d="M164.406 199.831a3.73 3.73 0 01-1.217-.321.415.415 0 01.031-.764.417.417 0 01.316.013 2.893 2.893 0 002.52-.054.415.415 0 01.376.735 3.711 3.711 0 01-2.026.391z" fill="#F8A68C"/><path d="M164.794 223.245a.965.965 0 100-1.93.965.965 0 000 1.93zM164.794 230.662a.965.965 0 100-1.93.965.965 0 000 1.93z" fill="#fff"/><path d="M166.621 116.696a20.578 20.578 0 01-8.906 9.711v3.691a8.88 8.88 0 008.877 8.877h.058a8.878 8.878 0 008.873-8.877v-3.691a20.56 20.56 0 01-8.902-9.711z" fill="#936D61"/><path d="M166.098 146.405c-14.817-1.873-26.813 6.15-26.813 17.914 0 .446.025.887.062 1.333h52.709c-2.982-9.562-13.468-17.672-25.958-19.247z" fill="#00A14F"/><path d="M166.65 112.291h-.058a8.877 8.877 0 00-8.877 8.877v5.238a20.576 20.576 0 008.906-9.71 20.553 20.553 0 008.902 9.71v-5.238a8.876 8.876 0 00-5.476-8.202 8.877 8.877 0 00-3.397-.675z" fill="#53332D"/><path d="M169.125 125.631a.601.601 0 10.001-1.203.601.601 0 00-.001 1.203zM164.117 125.631a.602.602 0 10.002-1.204.602.602 0 00-.002 1.204z" fill="#422622"/><path d="M167.302 127.719h-1.361a.415.415 0 01-.413-.413.414.414 0 01.413-.412h1.361c.109 0 .214.043.292.12a.417.417 0 01.121.292.417.417 0 01-.121.292.417.417 0 01-.292.121zM166.621 131.113a1.908 1.908 0 01-1.427-.652.412.412 0 01.631-.524 1.08 1.08 0 001.609 0 .409.409 0 01.284-.14.408.408 0 01.44.385.408.408 0 01-.101.3 1.906 1.906 0 01-1.436.631z" fill="#734B3F"/><path d="M156.247 165.652c.516-5.437-.384-9.995-2.694-13.613a15.79 15.79 0 00-3.18-3.588c-.309.14-.619.288-.92.437a14.744 14.744 0 013.333 3.646c2.211 3.441 3.057 7.838 2.549 13.101l.912.017zM177.4 153.987a.453.453 0 00-.643.037.451.451 0 00.037.643c.074.066 5.589 5.053 6.307 10.985h.911c-.717-6.34-6.534-11.599-6.612-11.665z" fill="#00833B"/></svg>