<svg width="330" height="330" fill="none" xmlns="http://www.w3.org/2000/svg"><path d="M165 330c91.127 0 165-73.873 165-165S256.127 0 165 0 0 73.873 0 165s73.873 165 165 165z" fill="#E6F0FF"/><path d="M238.132 33.677H93.435v95.085h144.697V33.677zm49.574 21.017a165.436 165.436 0 00-23.236-21.017h-11.608v95.081h73.141a164.505 164.505 0 00-38.297-74.064zM3.997 128.758H77.72V33.677H65.097a165.057 165.057 0 00-61.1 95.081z" fill="#E6F0FF"/><path d="M165 117.926l5.66-3.519a50.798 50.798 0 0023.982-43.14V50.103L165 41.25l-29.642 8.852v21.166a50.794 50.794 0 0023.983 43.139l5.659 3.519z" fill="#2C83FC"/><path d="M176.203 70.995h-2.244V67.06a8.96 8.96 0 00-17.919 0v3.935h-2.244a3.35 3.35 0 00-3.103 2.072 3.356 3.356 0 00-.255 1.286V93.16a3.356 3.356 0 003.358 3.358h22.407a3.355 3.355 0 003.358-3.358V74.353a3.355 3.355 0 00-3.358-3.358zm-16.941-3.935a5.738 5.738 0 1111.476 0v3.935h-11.476V67.06zm7.243 18.505v3.671h-3.011v-3.671a3.671 3.671 0 01-2.285-3.374 3.79 3.79 0 117.582 0 3.67 3.67 0 01-2.286 3.374z" fill="#fff"/><path d="M202.439 257.813l112.468-23.756C288.775 290.685 231.479 330 165 330l12.829-48.774a32.354 32.354 0 0124.61-23.413z" fill="#00A150"/><path d="M101.157 186.562c-5.09 0-9.636-6.497-10.403-14.962-.495-5.486.73-10.494 3.3-13.398a6.597 6.597 0 014.698-2.417c5.194-.215 9.859 6.365 10.639 14.957.495 5.486-.73 10.494-3.276 13.398-1.332 1.514-2.953 2.351-4.702 2.417l-.256.005zm-2.19-28.306h-.14a4.116 4.116 0 00-2.937 1.576c-2.063 2.367-3.098 6.789-2.67 11.55.64 7.037 4.344 12.857 8.077 12.709 1.065-.042 2.063-.574 2.937-1.58 2.063-2.368 3.102-6.79 2.669-11.55-.631-6.943-4.244-12.705-7.936-12.705z" fill="#fff"/><path d="M65.769 133.497c18.843 1.238 29.514 15.729 31.585 32.893l5.408 44.81c.586 4.851-3.259 8.501-8.584 8.155l-3.618-.239 2.628 25.133-50.26-3.279-.284-88.151c-.041-11.851 9.933-20.192 23.125-19.33v.008z" fill="#FFCAB9"/><path d="M42.682 164.307l.12 36.712c5.849.739 11.45-.305 15.971-2.974l25.76-15.209-4.207-23.768-37.644 5.239z" fill="#FF835A"/><path d="M67.147 190.955a1.242 1.242 0 01-1.205-.966l-.899-4.026c-.883-3.951.94-7.581 4.537-9.038l35.537-14.35a1.234 1.234 0 011.613.684 1.241 1.241 0 01-.685 1.613l-35.536 14.351c-2.475.998-3.672 3.432-3.053 6.188l.9 4.026a1.237 1.237 0 01-.937 1.476c-.089.024-.18.038-.272.042z" fill="#fff"/><path d="M103.459 149.016s-25.62 20.724-67.497 21.371c0 0-8.015-31.552 16.005-34.679a17.639 17.639 0 004.26-1.113c8.325-3.346 38.582-13.32 47.232 14.421z" fill="#FF6530"/><path d="M40.202 138.653l-1.18-2.173c7.157-3.89 15.552-1.943 15.907-1.857l-.574 2.405c-.078-.016-7.841-1.802-14.153 1.625z" fill="#FF6530"/><path d="M54.834 138.315l-2.446-.391c.94-5.837 6.567-11.274 6.806-11.505l1.712 1.79c-.054.05-5.268 5.099-6.072 10.106z" fill="#FF6530"/><path d="M152.171 281.226a32.354 32.354 0 00-24.61-23.413l-25.649-5.421-5.577-17.737-53.625-11.179a4.946 4.946 0 00-4.125 1.006 4.958 4.958 0 00-1.827 3.833v10.312l-21.665-4.591C41.225 290.685 98.521 330 165 330l-12.829-48.774z" fill="#FFC000"/><path d="M164.587 328.482h-13.872v-21.169h8.316l-.413-1.535h-7.903v-21.153h2.347l-.412-1.534h-1.943v-6.155a32.07 32.07 0 00-1.535-3.16v9.294h-21.161v-21.174h9.826a32.864 32.864 0 00-2.789-1.534h-7.037v-2.475l-.45-.103-1.085-.231v2.801h-21.173v-7.264l-1.535-.326v7.598H82.595v-21.17h15.167l-.482-1.538H82.595v-5.895l-1.535-.322v6.217H59.89v-10.63l-1.538-.318v10.948h-21.17v-11.352a4.916 4.916 0 00-.412 1.98v10.312l-4.537-.957H16.826c.251.516.503 1.027.759 1.539h18.063v21.169h-5.305a94.56 94.56 0 001.098 1.535h4.207v5.536c.509.638 1.02 1.273 1.535 1.905v-7.425h21.17v21.174h-8.606c.528.516 1.065 1.027 1.6 1.535h7.013v6.298l1.539 1.279v-7.557h21.17v21.174H78.91c1.221.748 2.452 1.481 3.692 2.198v-.684h21.174v10.947l1.534.603v-11.55h21.174v18.15l1.534.359v-18.509h21.17v21.169h-6.6A166.16 166.16 0 00165 330l-.413-1.518zM58.352 248.515v11.847h-21.17v-21.17h21.17v9.323zm22.688 22.687v11.847H59.89v-21.153h21.17l-.02 9.306zm0-22.687v11.847H59.89v-21.17h21.17l-.02 9.323zm22.708 45.416v11.847H82.595v-21.153h21.173l-.02 9.306zm0-22.687v11.847H82.595v-21.195h21.173l-.02 9.348zm22.708 22.687v11.847h-21.153v-21.153h21.173l-.02 9.306zm0-22.687v11.847h-21.153v-21.195h21.173l-.02 9.348zm22.687 22.687v11.847h-21.132v-21.153h21.169l-.037 9.306z" fill="#FEA400"/><path d="M91.146 224.726l-.586-5.602-6.488-.421 7.074 6.023zm-6.86-32.604c-.453.335-.99.538-1.55.586-2.117.181-4.95-1.65-7.137-4.921l-2.087 1.324c2.475 3.712 5.8 6.084 8.914 6.084.177 0 .355 0 .528-.025a5.489 5.489 0 002.504-.849l-1.172-2.199z" fill="#FFA78B"/><path d="M84.103 193.635c3.737-1.519 4.626-8.018 1.985-14.517-2.641-6.498-7.813-10.534-11.55-9.015-3.738 1.519-4.627 8.019-1.986 14.517 2.642 6.498 7.813 10.535 11.55 9.015z" fill="#FFCAB9"/><path d="M243.866 128.486c-18.472 3.927-26.945 19.8-26.52 37.096l1.102 45.131c.119 4.884 4.446 7.941 9.669 6.831l3.547-.754 1.019 25.249 49.261-10.482-12.408-87.273c-1.65-11.735-12.742-18.562-25.67-15.798z" fill="#936D61"/><path d="M74.085 302.705a160.691 160.691 0 0011.039 6.703c.87-21.73 6.022-32.74 6.022-32.74-7.685 4.113-13.443 16.1-17.061 26.037zm26.977-53.06l-36.795-7.772a1.24 1.24 0 00-1.451.958 1.238 1.238 0 00.94 1.464l38.152 8.06-.846-2.71z" fill="#FEA400"/><path d="M290.062 214.261l-65.53 13.658a5.904 5.904 0 00-4.702 5.775v27.435l77.343-16.104V220.04a5.888 5.888 0 00-2.18-4.582 5.895 5.895 0 00-4.931-1.197z" fill="#00A150"/><path d="M267.378 137.709c-4.125-7.557-13.233-11.414-23.512-9.228-13.081 2.781-21.137 11.55-24.581 22.581 1.934 5.449 12.284 27.687 20.814 45.787a30.115 30.115 0 0037.579 15.448 24.437 24.437 0 0012.722-35.314l-23.022-39.274z" fill="#52332D"/><path d="M292.566 196.762a23.127 23.127 0 01-7.322 4.332 28.88 28.88 0 01-36.036-14.813c-4.174-8.848-10.057-21.912-15.209-33.598 6.877 10.758 14.656 22.724 20.118 30.805a31.295 31.295 0 0039.068 10.944c.214-.984.367-1.98.457-2.983a28.87 28.87 0 01-37.479-9.343c-7.953-11.777-20.827-31.762-28.628-44.24l-.227-.533a31.12 31.12 0 00-1.819 2.03c5.841 13.588 15.444 35.178 21.475 47.974a31.351 31.351 0 0039.126 16.087c1.58-.581 3.1-1.316 4.537-2.194a24.822 24.822 0 001.939-4.468z" fill="#422622"/><path d="M231.949 222.267l-.227-5.63 6.356-1.353-6.129 6.983z" fill="#734A3F"/><path d="M279.477 158.4a11.903 11.903 0 01-3.3-2.673l-19.825-22.951a11.802 11.802 0 01-2.434-4.488 24.07 24.07 0 00-5.181-.413 16.81 16.81 0 003.845 8.11l19.829 22.951a16.831 16.831 0 0010.725 5.73l-3.659-6.266z" fill="#422622"/><path d="M287.141 162.207a14.436 14.436 0 01-12.829-4.876l-19.824-22.951a14.443 14.443 0 0121.862-18.876l19.825 22.951a14.442 14.442 0 012.574 14.565 14.428 14.428 0 01-11.591 9.187h-.017z" fill="#52332D"/><path d="M310.027 243.742a168.86 168.86 0 004.88-9.706l-17.82 3.762 12.94 5.944zm-51.596.986a1.225 1.225 0 00-.536-.781 1.24 1.24 0 00-.932-.172l-37.125 7.838v2.528l37.645-7.948c.319-.07.598-.263.776-.537.178-.274.24-.608.172-.928z" fill="#00833B"/></svg>