<svg xmlns="http://www.w3.org/2000/svg" xmlns:xlink="http://www.w3.org/1999/xlink" width="135" height="40" viewBox="0 0 135 40">
  <defs>
    <linearGradient id="linear-gradient" x1="21.8" y1="33.29" x2="5.02" y2="16.51" gradientTransform="matrix(1, 0, 0, -1, 0, 42)" gradientUnits="userSpaceOnUse">
      <stop offset="0" stop-color="#00a0ff"/>
      <stop offset="0.01" stop-color="#00a1ff"/>
      <stop offset="0.26" stop-color="#00beff"/>
      <stop offset="0.51" stop-color="#00d2ff"/>
      <stop offset="0.76" stop-color="#00dfff"/>
      <stop offset="1" stop-color="#00e3ff"/>
    </linearGradient>
    <linearGradient id="linear-gradient-2" x1="33.83" y1="22" x2="9.64" y2="22" gradientTransform="matrix(1, 0, 0, -1, 0, 42)" gradientUnits="userSpaceOnUse">
      <stop offset="0" stop-color="#ffe000"/>
      <stop offset="0.41" stop-color="#ffbd00"/>
      <stop offset="0.78" stop-color="orange"/>
      <stop offset="1" stop-color="#ff9c00"/>
    </linearGradient>
    <linearGradient id="linear-gradient-3" x1="24.82" y1="19.71" x2="2.06" y2="-3.04" gradientTransform="matrix(1, 0, 0, -1, 0, 42)" gradientUnits="userSpaceOnUse">
      <stop offset="0" stop-color="#ff3a44"/>
      <stop offset="1" stop-color="#c31162"/>
    </linearGradient>
    <linearGradient id="linear-gradient-4" x1="7.3" y1="41.82" x2="17.46" y2="31.66" gradientTransform="matrix(1, 0, 0, -1, 0, 42)" gradientUnits="userSpaceOnUse">
      <stop offset="0" stop-color="#32a071"/>
      <stop offset="0.07" stop-color="#2da771"/>
      <stop offset="0.48" stop-color="#15cf74"/>
      <stop offset="0.8" stop-color="#06e775"/>
      <stop offset="1" stop-color="#00f076"/>
    </linearGradient>
  </defs>
  <path d="M130,0H5A5,5,0,0,0,0,5V35a5,5,0,0,0,5,5H130a5,5,0,0,0,5-5V5A5,5,0,0,0,130,0Z"/>
  <path d="M130,.8A4.2,4.2,0,0,1,134.2,5V35a4.2,4.2,0,0,1-4.2,4.2H5A4.2,4.2,0,0,1,.8,35V5A4.2,4.2,0,0,1,5,.8Zm0-.8H5A5,5,0,0,0,0,5V35a5,5,0,0,0,5,5H130a5,5,0,0,0,5-5V5a5,5,0,0,0-5-5Z" fill="#a6a6a6"/>
  <path d="M47.42,10.24a2.66,2.66,0,0,1-.17,1.08,2.74,2.74,0,0,1-1.59,1.59,2.7,2.7,0,0,1-1.19.21,3.08,3.08,0,0,1-1.2-.22,3.16,3.16,0,0,1-1-.68,3.19,3.19,0,0,1,0-4.46,3.1,3.1,0,0,1,1.62-.84,3.15,3.15,0,0,1,1.82.19,2.61,2.61,0,0,1,.94.67l-.53.53a2,2,0,0,0-.73-.55,1.92,1.92,0,0,0-.91-.17,2.42,2.42,0,0,0-2,1.07,2.35,2.35,0,0,0-.39,1.09,2.46,2.46,0,0,0,.16,1.14,2.4,2.4,0,0,0,.69.94,2.36,2.36,0,0,0,1,.51,2.4,2.4,0,0,0,1.16,0,2.46,2.46,0,0,0,1-.58,1.91,1.91,0,0,0,.5-1.22H44.47V9.78h2.91A3.57,3.57,0,0,1,47.42,10.24Z" fill="#fff" stroke="#fff" stroke-miterlimit="10" stroke-width="0.2"/>
  <path d="M52,7.74H49.3v1.9h2.46v.72H49.3v1.9H52V13H48.52V7H52Z" fill="#fff" stroke="#fff" stroke-miterlimit="10" stroke-width="0.2"/>
  <path d="M55.28,13h-.77V7.74H52.83V7H57v.74H55.28Z" fill="#fff" stroke="#fff" stroke-miterlimit="10" stroke-width="0.2"/>
  <path d="M59.94,13V7h.77v6Z" fill="#fff" stroke="#fff" stroke-miterlimit="10" stroke-width="0.2"/>
  <path d="M64.13,13h-.77V7.74H61.68V7H65.8v.74H64.13Z" fill="#fff" stroke="#fff" stroke-miterlimit="10" stroke-width="0.2"/>
  <path d="M73.61,12.22a3,3,0,0,1-1,.67,3.07,3.07,0,0,1-2.38,0,3,3,0,0,1-1-.67,3.24,3.24,0,0,1,0-4.44,2.9,2.9,0,0,1,2.2-.91,2.84,2.84,0,0,1,1.19.23,3,3,0,0,1,1.67,1.7,2.91,2.91,0,0,1,.22,1.2,3.07,3.07,0,0,1-.21,1.2,3,3,0,0,1-.67,1Zm-3.83-.5a2.1,2.1,0,0,0,.75.5,2.24,2.24,0,0,0,1.76,0,2.1,2.1,0,0,0,.75-.5,2.54,2.54,0,0,0,0-3.44,2.1,2.1,0,0,0-.75-.5,2.24,2.24,0,0,0-1.76,0,2.1,2.1,0,0,0-.75.5,2.54,2.54,0,0,0,0,3.44Z" fill="#fff" stroke="#fff" stroke-miterlimit="10" stroke-width="0.2"/>
  <path d="M75.58,13V7h.93l2.92,4.67V7h.77v6h-.8L76.35,8.11V13Z" fill="#fff" stroke="#fff" stroke-miterlimit="10" stroke-width="0.2"/>
  <path d="M68.14,21.75a4.21,4.21,0,0,0-2.36.72A4.27,4.27,0,0,0,64,26.85,4.35,4.35,0,0,0,65.14,29a4.29,4.29,0,0,0,2.19,1.16,4.28,4.28,0,0,0,4.37-1.82A4.33,4.33,0,0,0,72.41,26a4.19,4.19,0,0,0-.31-1.64A4.32,4.32,0,0,0,71.18,23a4.2,4.2,0,0,0-3-1.22Zm0,6.83a2.55,2.55,0,0,1-1.48-.34,2.65,2.65,0,0,1-1-1.12,2.58,2.58,0,0,1,1.76-3.63,2.68,2.68,0,0,1,1.51.11A2.59,2.59,0,0,1,70.54,26a2.23,2.23,0,0,1-.15,1,2.4,2.4,0,0,1-1.3,1.4A2.4,2.4,0,0,1,68.14,28.58Zm-9.32-6.83a4.21,4.21,0,0,0-2.36.72,4.27,4.27,0,0,0-1.81,4.38A4.35,4.35,0,0,0,55.82,29,4.29,4.29,0,0,0,58,30.19a4.28,4.28,0,0,0,4.37-1.82A4.33,4.33,0,0,0,63.09,26a4.19,4.19,0,0,0-.31-1.64A4.32,4.32,0,0,0,61.86,23a4.2,4.2,0,0,0-3-1.22Zm0,6.83a2.55,2.55,0,0,1-1.48-.34,2.65,2.65,0,0,1-1-1.12,2.58,2.58,0,0,1,1.76-3.63,2.68,2.68,0,0,1,1.51.11A2.59,2.59,0,0,1,61.22,26a2.23,2.23,0,0,1-.15,1,2.4,2.4,0,0,1-1.3,1.4A2.4,2.4,0,0,1,58.82,28.58ZM47.74,23.06v1.8h4.32a3.77,3.77,0,0,1-1,2.27,4.26,4.26,0,0,1-1.53,1,4.32,4.32,0,0,1-1.81.31,4.8,4.8,0,0,1,0-9.6A4.65,4.65,0,0,1,51,20.14l1.27-1.27a6.26,6.26,0,0,0-4.53-1.82,6.63,6.63,0,0,0-2.61.43,6.45,6.45,0,0,0-2.23,1.41,6.69,6.69,0,0,0-1.5,2.18,6.57,6.57,0,0,0,0,5.17,6.69,6.69,0,0,0,1.5,2.18,6.45,6.45,0,0,0,2.23,1.41,6.63,6.63,0,0,0,2.61.43,6.08,6.08,0,0,0,2.5-.43,5.76,5.76,0,0,0,3.67-5.65,7,7,0,0,0-.09-1.12Zm45.31,1.4a3.84,3.84,0,0,0-5.23-2.38,3.86,3.86,0,0,0-1.33.93,4,4,0,0,0-1.08,3,4.25,4.25,0,0,0,3,4.09,4.25,4.25,0,0,0,4.77-1.72l-1.45-1a2.37,2.37,0,0,1-.89.86,2.41,2.41,0,0,1-1.2.31,2.15,2.15,0,0,1-1.23-.33,2.09,2.09,0,0,1-.83-1l5.69-2.35Zm-5.8,1.42a2.41,2.41,0,0,1,.12-.92,2.27,2.27,0,0,1,.47-.79,2.38,2.38,0,0,1,.74-.56,2.34,2.34,0,0,1,.9-.22,1.65,1.65,0,0,1,.92.22,1.6,1.6,0,0,1,.65.69ZM82.63,30H84.5V17.5H82.63Zm-3.06-7.3H79.5a2.84,2.84,0,0,0-1-.74,2.92,2.92,0,0,0-1.23-.26,4.26,4.26,0,0,0,0,8.51A2.91,2.91,0,0,0,78.49,30a2.87,2.87,0,0,0,1-.75h.07v.61c0,1.63-.87,2.5-2.27,2.5a2.38,2.38,0,0,1-2.15-1.51l-1.62.67A4,4,0,0,0,77.3,34c2.19,0,4-1.29,4-4.43V22H79.57Zm-2.15,5.88a2.58,2.58,0,0,1,0-5.15,2.27,2.27,0,0,1,.92.23,2.37,2.37,0,0,1,.76.57,2.23,2.23,0,0,1,.48.83,2.49,2.49,0,0,1,.12.94,2.36,2.36,0,0,1-.11.95,2.31,2.31,0,0,1-.48.83,2.37,2.37,0,0,1-.76.57,2.32,2.32,0,0,1-.93.23ZM101.81,17.5H97.33V30H99.2V25.26h2.61a3.81,3.81,0,0,0,1.57-.21,3.83,3.83,0,0,0,2.27-2.12,3.81,3.81,0,0,0,0-3.1,3.83,3.83,0,0,0-2.27-2.12,3.81,3.81,0,0,0-1.57-.21Zm0,6H99.2V19.24h2.65a2.3,2.3,0,0,1,.82.16,2.24,2.24,0,0,1,1.16,1.16,2.18,2.18,0,0,1,0,1.64,2.24,2.24,0,0,1-1.16,1.16,2.3,2.3,0,0,1-.82.16Zm11.54-1.79A3.51,3.51,0,0,0,110,23.62l1.65.69a1.82,1.82,0,0,1,.72-.71,1.79,1.79,0,0,1,1-.2,1.7,1.7,0,0,1,.71.06,1.73,1.73,0,0,1,.63.33,1.8,1.8,0,0,1,.45.54,1.64,1.64,0,0,1,.21.68v.12a4.14,4.14,0,0,0-1.95-.48c-1.78,0-3.6,1-3.6,2.82a2.89,2.89,0,0,0,.28,1.12,2.93,2.93,0,0,0,.69.91,2.79,2.79,0,0,0,1,.58,2.93,2.93,0,0,0,1.14.14,2.52,2.52,0,0,0,1.35-.29,2.57,2.57,0,0,0,1-.93h.06v1h1.8V25.19c0-2.19-1.66-3.46-3.79-3.46Zm-.23,6.85c-.61,0-1.46-.31-1.46-1.06,0-1,1.06-1.34,2-1.34a3.38,3.38,0,0,1,1.7.42,2.26,2.26,0,0,1-2.2,2ZM123.74,22l-2.14,5.42h-.06L119.32,22h-2l3.33,7.58-1.9,4.21h2L125.82,22Zm-16.8,8h1.86V17.5h-1.86Z" fill="#fff"/>
  <path d="M10.44,7.54A2,2,0,0,0,10,8.94V31.06a1.94,1.94,0,0,0,.47,1.4l.07.08L22.9,20.15v-.3L10.51,7.47Z" fill="url(#linear-gradient)"/>
  <path d="M27,24.28l-4.1-4.13v-.3L27,15.72l.09.06L32,18.56c1.4.79,1.4,2.09,0,2.89l-4.89,2.78Z" fill="url(#linear-gradient-2)"/>
  <path d="M27.12,24.22,22.9,20,10.44,32.46a1.6,1.6,0,0,0,1,.41,1.65,1.65,0,0,0,1-.34l14.61-8.31" fill="url(#linear-gradient-3)"/>
  <path d="M27.12,15.78,12.51,7.48a1.6,1.6,0,0,0-2.07.06L22.9,20Z" fill="url(#linear-gradient-4)"/>
  <path d="M27,24.13,12.51,32.38a1.64,1.64,0,0,1-2,0h0l-.07.07.07.08a1.64,1.64,0,0,0,2,0l14.61-8.31Z" opacity="0.2" style="isolation: isolate"/>
  <path d="M10.44,32.32A2,2,0,0,1,10,30.91v.15a1.94,1.94,0,0,0,.47,1.4l.07-.07Z" opacity="0.12" style="isolation: isolate"/>
  <path d="M32,21.3l-5,2.83.09.09L32,21.44a1.77,1.77,0,0,0,.73-.57,1.86,1.86,0,0,0,.33-.87A1.87,1.87,0,0,1,32,21.3Z" opacity="0.12" style="isolation: isolate"/>
  <path d="M12.51,7.62,32,18.7A1.87,1.87,0,0,1,33.06,20a1.86,1.86,0,0,0-.33-.87,1.77,1.77,0,0,0-.73-.57L12.51,7.48C11.12,6.68,10,7.34,10,8.94v.15C10,7.49,11.12,6.83,12.51,7.62Z" fill="#fff" opacity="0.25" style="isolation: isolate"/>
</svg>
