<svg xmlns="http://www.w3.org/2000/svg" xmlns:xlink="http://www.w3.org/1999/xlink" width="134" height="40" viewBox="0 0 134 40">
  <defs>
    <linearGradient id="linear-gradient" x1="21.58" y1="34.67" x2="21.58" y2="9.33" gradientTransform="matrix(1, 0, 0, -1, 0, 42)" gradientUnits="userSpaceOnUse">
      <stop offset="0" stop-color="#fb6361"/>
      <stop offset="1" stop-color="#ed3e45"/>
    </linearGradient>
  </defs>
  <g id="Layer_2" data-name="Layer 2">
    <g id="Layer_1-2" data-name="Layer 1">
      <path d="M0,5.33A5.32,5.32,0,0,1,5.3,0H128.7A5.32,5.32,0,0,1,134,5.33V34.67A5.32,5.32,0,0,1,128.7,40H5.3A5.32,5.32,0,0,1,0,34.67Z"/>
      <path d="M0,34.67V5.33A5.32,5.32,0,0,1,5.3,0H128.7A5.32,5.32,0,0,1,134,5.33V34.67A5.32,5.32,0,0,1,128.7,40H5.3A5.32,5.32,0,0,1,0,34.67Zm.79,0V5.33A4.52,4.52,0,0,1,5.3.8H128.7a4.52,4.52,0,0,1,4.51,4.53V34.67a4.52,4.52,0,0,1-4.51,4.53H5.3A4.52,4.52,0,0,1,.79,34.67Z" fill="#a6a6a6" fill-rule="evenodd"/>
      <path d="M16.06,7.33C10.89,7.33,9,9.24,9,14.44V25.56c0,5.2,1.89,7.11,7.06,7.11h11c5.16,0,7.06-1.91,7.06-7.11V14.44c0-5.2-1.89-7.11-7.06-7.11Z" fill-rule="evenodd" fill="url(#linear-gradient)"/>
      <path d="M20,22h1l-.5-1.19Zm-.24.59-.3.69h-.69L20.19,20h.59l1.45,3.31h-.7l-.3-.69Zm11,.69h.66V20H30.7Zm-2.62-1.42h1.21v-.6H28.08v-.68h1.76V20H27.42v3.31h2.49v-.6H28.08Zm-2.62.39L24.71,20h-.54l-.75,2.28L22.69,20H22l1.15,3.32h.55l.75-2.18.75,2.18h.56L26.88,20h-.69Zm-7.72-.38c0,.54-.27.83-.75.83s-.75-.3-.75-.85V20h-.67v1.9A1.31,1.31,0,0,0,17,23.37a1.33,1.33,0,0,0,1.42-1.5V20h-.66ZM14,20h.67v3.32H14V22H12.46v1.35H11.8V20h.66v1.34H14Z" fill="#fff" fill-rule="evenodd"/>
      <path d="M21.58,15.78a4.21,4.21,0,0,1-4.19-4.22H18a3.6,3.6,0,1,0,7.2,0h.59A4.21,4.21,0,0,1,21.58,15.78Z" fill="#fff" fill-rule="evenodd"/>
      <path d="M50.53,29.87,49.4,26.69H45.06L44,29.87H42L46.24,18.4h2l4.25,11.47Zm-1.62-4.78L47.85,22q-.12-.32-.33-1l-.28-1a15.76,15.76,0,0,1-.61,2.1l-1,3Z" fill="#fff"/>
      <path d="M57.92,30a3,3,0,0,1-2.53-1.18h-.11c.08.73.11,1.18.11,1.33v3.54H53.57V21.23H55c.05.16.13.54.26,1.15h.09A2.87,2.87,0,0,1,58,21.07a3,3,0,0,1,2.5,1.17,5.3,5.3,0,0,1,.9,3.29,5.34,5.34,0,0,1-.91,3.31A3,3,0,0,1,57.92,30Zm-.44-7.45a1.9,1.9,0,0,0-1.59.64,3.37,3.37,0,0,0-.5,2.05v.27a4.09,4.09,0,0,0,.5,2.29,1.84,1.84,0,0,0,1.62.7A1.65,1.65,0,0,0,59,27.74a4.05,4.05,0,0,0,.51-2.22,3.89,3.89,0,0,0-.51-2.2A1.68,1.68,0,0,0,57.48,22.57Z" fill="#fff"/>
      <path d="M67.58,30a3,3,0,0,1-2.53-1.18H65c.07.73.1,1.18.1,1.33v3.54H63.23V21.23h1.48c0,.16.12.54.25,1.15h.09a2.87,2.87,0,0,1,2.56-1.31,3,3,0,0,1,2.5,1.17,5.3,5.3,0,0,1,.9,3.29,5.34,5.34,0,0,1-.91,3.31A3,3,0,0,1,67.58,30Zm-.44-7.45a1.9,1.9,0,0,0-1.59.64,3.37,3.37,0,0,0-.5,2.05v.27a4.09,4.09,0,0,0,.5,2.29,1.84,1.84,0,0,0,1.62.7,1.65,1.65,0,0,0,1.46-.78,4.05,4.05,0,0,0,.51-2.22,3.89,3.89,0,0,0-.51-2.2A1.67,1.67,0,0,0,67.14,22.57Z" fill="#fff"/>
      <path d="M77.73,23.67H81.9v5.74a11.92,11.92,0,0,1-2,.47,13,13,0,0,1-2,.14,5.13,5.13,0,0,1-4-1.53,6.21,6.21,0,0,1-1.39-4.33,5.8,5.8,0,0,1,1.57-4.32,5.9,5.9,0,0,1,4.34-1.56,8.4,8.4,0,0,1,3.37.69l-.65,1.55a6.66,6.66,0,0,0-2.77-.64A3.74,3.74,0,0,0,75.52,21a4.48,4.48,0,0,0-1,3.14,4.75,4.75,0,0,0,.94,3.19,3.47,3.47,0,0,0,2.74,1.08,9.07,9.07,0,0,0,1.93-.22V25.27H77.73Z" fill="#fff"/>
      <path d="M89.57,29.87l-.37-1.21h-.06a3.47,3.47,0,0,1-1.25,1.08,3.91,3.91,0,0,1-1.61.28,2.78,2.78,0,0,1-2-.68,2.61,2.61,0,0,1-.71-1.95,2.3,2.3,0,0,1,1-2,5.68,5.68,0,0,1,3-.74l1.48,0v-.47a1.76,1.76,0,0,0-.38-1.23,1.54,1.54,0,0,0-1.19-.41,4.16,4.16,0,0,0-1.27.19,10.77,10.77,0,0,0-1.16.46l-.59-1.31a7.36,7.36,0,0,1,3.1-.75,3.65,3.65,0,0,1,2.46.72,2.81,2.81,0,0,1,.84,2.26v5.82Zm-2.72-1.25a2.25,2.25,0,0,0,1.59-.56,2,2,0,0,0,.61-1.57v-.75l-1.1.05a3.73,3.73,0,0,0-1.88.44,1.29,1.29,0,0,0-.58,1.18,1.15,1.15,0,0,0,.34.89A1.47,1.47,0,0,0,86.85,28.62Z" fill="#fff"/>
      <path d="M95,29.87H93.18V17.71H95Z" fill="#fff"/>
      <path d="M99.2,29.87H97.38V17.71H99.2Z" fill="#fff"/>
      <path d="M105.32,30a4.15,4.15,0,0,1-3.13-1.17,4.51,4.51,0,0,1-1.12-3.24,4.92,4.92,0,0,1,1-3.33A3.6,3.6,0,0,1,105,21.07a3.55,3.55,0,0,1,2.69,1,4,4,0,0,1,1,2.86v1h-5.72a2.88,2.88,0,0,0,.68,1.94,2.33,2.33,0,0,0,1.79.67,6.88,6.88,0,0,0,1.41-.14,7.21,7.21,0,0,0,1.41-.49v1.5a5.64,5.64,0,0,1-1.35.45A8,8,0,0,1,105.32,30ZM105,22.46a1.86,1.86,0,0,0-1.4.56,2.67,2.67,0,0,0-.62,1.61h3.9a2.37,2.37,0,0,0-.51-1.61A1.75,1.75,0,0,0,105,22.46Z" fill="#fff"/>
      <path d="M114.85,21.07a4.4,4.4,0,0,1,.9.08l-.18,1.71a3.44,3.44,0,0,0-.8-.09,2.34,2.34,0,0,0-1.78.71,2.63,2.63,0,0,0-.67,1.87v4.52h-1.83V21.23h1.43l.24,1.52h.09a3.57,3.57,0,0,1,1.11-1.23A2.68,2.68,0,0,1,114.85,21.07Z" fill="#fff"/>
      <path d="M115.81,21.23h2l1.74,4.89a9.23,9.23,0,0,1,.53,2h.06a8.24,8.24,0,0,1,.26-1q.18-.61,2-5.82h2L120.66,31q-1,2.69-3.34,2.69a5.2,5.2,0,0,1-1.18-.13V32.12a3.87,3.87,0,0,0,.94.1,1.93,1.93,0,0,0,1.86-1.54l.31-.81Z" fill="#fff"/>
      <path d="M45.21,14.13H42V8.42h3.21v.79H42.93v1.56h2.13v.78H42.93v1.79h2.28Z" fill="#fff"/>
      <path d="M50.62,14.13H49.55L48.13,11.8,46.7,14.13h-1l1.89-3L45.82,8.42h1l1.31,2.16,1.31-2.16h1l-1.77,2.77Z" fill="#fff"/>
      <path d="M55.14,10.15a1.67,1.67,0,0,1-.59,1.37A2.52,2.52,0,0,1,52.9,12h-.59v2.13h-.93V8.42H53a2.45,2.45,0,0,1,1.59.44A1.56,1.56,0,0,1,55.14,10.15Zm-2.83,1.06h.49A1.75,1.75,0,0,0,53.85,11a.92.92,0,0,0,.33-.78.87.87,0,0,0-.3-.73A1.42,1.42,0,0,0,53,9.2h-.64Z" fill="#fff"/>
      <path d="M56.27,14.13V8.42h.92v4.91H59.6v.8Z" fill="#fff"/>
      <path d="M65.61,11.27a3.11,3.11,0,0,1-.7,2.17,2.49,2.49,0,0,1-1.95.77,2.53,2.53,0,0,1-2-.76,3.2,3.2,0,0,1-.69-2.19A3.08,3.08,0,0,1,61,9.09a2.55,2.55,0,0,1,2-.76,2.5,2.5,0,0,1,2,.77A3.16,3.16,0,0,1,65.61,11.27Zm-4.33,0a2.59,2.59,0,0,0,.42,1.6,1.73,1.73,0,0,0,2.5,0,2.6,2.6,0,0,0,.42-1.61,2.56,2.56,0,0,0-.42-1.59A1.44,1.44,0,0,0,63,9.13a1.5,1.5,0,0,0-1.26.55A2.56,2.56,0,0,0,61.28,11.27Z" fill="#fff"/>
      <path d="M67.75,11.08h.65a1.49,1.49,0,0,0,.94-.24.89.89,0,0,0,.29-.72.78.78,0,0,0-.32-.7,1.7,1.7,0,0,0-.94-.21h-.62Zm0,.77v2.28h-.92V8.42h1.6a2.57,2.57,0,0,1,1.62.42,1.46,1.46,0,0,1,.53,1.25,1.57,1.57,0,0,1-1.1,1.52l1.6,2.52H70l-1.36-2.28Z" fill="#fff"/>
      <path d="M75.12,14.13H71.91V8.42h3.21v.79H72.84v1.56H75v.78H72.84v1.79h2.28Z" fill="#fff"/>
      <path d="M78.41,14.13V8.42h.93v5.71Z" fill="#fff"/>
      <path d="M82.8,14.13h-.93V9.22H80.2v-.8h4.27v.8H82.8Z" fill="#fff"/>
      <path d="M92.44,11.27a3.11,3.11,0,0,1-.7,2.17,2.91,2.91,0,0,1-3.93,0,3.2,3.2,0,0,1-.69-2.19,3.12,3.12,0,0,1,.69-2.17,2.59,2.59,0,0,1,2-.76,2.5,2.5,0,0,1,2,.77A3.16,3.16,0,0,1,92.44,11.27Zm-4.33,0a2.59,2.59,0,0,0,.42,1.6,1.73,1.73,0,0,0,2.5,0,2.6,2.6,0,0,0,.42-1.61A2.56,2.56,0,0,0,91,9.68a1.44,1.44,0,0,0-1.24-.55,1.5,1.5,0,0,0-1.26.55A2.56,2.56,0,0,0,88.11,11.27Z" fill="#fff"/>
      <path d="M98.38,14.13H97.24L94.46,9.58h0l0,.26q.06.72.06,1.32v3h-.84V8.42h1.12L97.56,13h0c0-.06,0-.28,0-.65s0-.67,0-.89v-3h.85Z" fill="#fff"/>
    </g>
  </g>
</svg>
