<svg id="0b938a29-4d91-4349-a76e-76af6608faeb" data-name="Layer 1" xmlns="http://www.w3.org/2000/svg" xmlns:xlink="http://www.w3.org/1999/xlink" viewBox="0 0 125.47 265.77">
  <defs>
    <linearGradient id="3f96194f-5964-4b00-89ed-acddb9f94cc8" x1="4.08" y1="150.99" x2="108.66" y2="46.41" gradientTransform="matrix(1, 0, 0, -1, 0, 268)" gradientUnits="userSpaceOnUse">
      <stop offset="0" stop-color="#584349"/>
      <stop offset="1" stop-color="#553044"/>
    </linearGradient>
    <linearGradient id="c053b816-6ee3-4683-8e2c-a06eff342901" x1="2.66" y1="225.49" x2="122.04" y2="225.49" gradientTransform="matrix(1, 0, 0, -1, 0, 268)" gradientUnits="userSpaceOnUse">
      <stop offset="0" stop-color="#643c3c"/>
      <stop offset="1" stop-color="#492724"/>
    </linearGradient>
    <linearGradient id="c038daa3-fd3b-47a8-b93f-123c3f85bd11" x1="8.92" y1="240.89" x2="124.33" y2="240.89" gradientTransform="matrix(1, 0, 0, -1, 0, 268)" gradientUnits="userSpaceOnUse">
      <stop offset="0" stop-color="#643c3c"/>
      <stop offset="1" stop-color="#553044"/>
    </linearGradient>
    <clipPath id="23629485-1efd-4928-b2b1-b519cddb91b9">
      <path d="M110.17,71c-1.86-.38-6.94-1.41-9.78-1.83a77.3,77.3,0,0,0-10.85-.87h-.1a54.62,54.62,0,0,0-10.67,1C75.33,70,72,71,68.54,71.72a31.14,31.14,0,0,1-5.69.68,31.14,31.14,0,0,1-5.69-.68C53.72,71,50.37,70,46.93,69.3a54.62,54.62,0,0,0-10.67-1h-.1a77.3,77.3,0,0,0-10.85.87c-2.84.42-7.92,1.45-9.78,1.83h0c.19,1.46.42,2.94.66,4.38,1,5.94,2.14,11.26,2.27,11.88a20.59,20.59,0,0,0,9.76,13.35,20.09,20.09,0,0,0,9.48,2.57h1.41A20.22,20.22,0,0,0,47.46,101a19.89,19.89,0,0,0,4.23-2.94,21,21,0,0,0,5-6.8,27,27,0,0,0,1.88-7.06c.3-1.9.85-4.13,2.5-5.33a3.06,3.06,0,0,1,3.66,0c1.65,1.2,2.2,3.43,2.5,5.33a27,27,0,0,0,1.88,7.06,21,21,0,0,0,5,6.8A19.89,19.89,0,0,0,78.34,101a20.23,20.23,0,0,0,8.35,2.15H88.1a20.09,20.09,0,0,0,9.48-2.57,20.59,20.59,0,0,0,9.76-13.35c.14-.62,1.3-5.94,2.27-11.88.24-1.44.47-2.92.66-4.38h0ZM54.79,77.16a4.34,4.34,0,0,0-.53-.52A4.34,4.34,0,0,1,54.79,77.16Zm-7-3.31q-.59-.15-1.2-.27c.4.08.79.17,1.18.27Zm6.42,2.74a6.48,6.48,0,0,0-.67-.5,6.24,6.24,0,0,1,.65.5Zm-.72-.53c-.25-.16-.52-.32-.8-.47a7,7,0,0,1,.78.47Zm-.94-.54c-.28-.14-.58-.28-.89-.41a8.9,8.9,0,0,1,.87.41ZM51.46,75c-.31-.13-.64-.26-1-.38C50.82,74.77,51.15,74.9,51.46,75Zm-1.16-.44-1.11-.36Zm-1.19-.38c-.37-.11-.75-.21-1.15-.31.4.13.78.23,1.15.34ZM36.8,72.51h0Zm9.5,1-1.23-.23Zm-1.53-.28L43.49,73ZM43.24,73,42,72.85Zm-1.44-.17-1.35-.13Zm-1.68-.16-1.3-.09Zm-1.67-.11h0Zm2.4,26.92Zm1.51-.32Zm1.49-.47h0Zm1.47-.64.18-.1Zm1.42-.8a1.51,1.51,0,0,0,.26-.18c-.08.06-.16.13-.24.18Zm1.37-1,.33-.29Zm1.3-1.14.39-.43Zm1.21-1.33c.15-.17.28-.37.42-.56a3.21,3.21,0,0,1-.4.59Zm4.73-11.92c.11-.86.19-1.76.23-2.69a2.28,2.28,0,0,0-.06-.64,2.28,2.28,0,0,1,.06.64,26.09,26.09,0,0,1-.21,2.72ZM51.76,92.31c.15-.23.29-.49.43-.73C52.05,91.82,51.91,92.08,51.76,92.31Zm1-1.7c.16-.29.29-.6.43-.91C53.05,90,52.92,90.32,52.76,90.61Zm.88-1.88c.15-.36.27-.75.4-1.12C53.91,88,53.79,88.37,53.64,88.73Zm.74-2.08c.13-.43.23-.9.35-1.36C54.61,85.75,54.51,86.22,54.38,86.65ZM55,84.37c.11-.52.19-1.09.28-1.64-.09.55-.17,1.12-.24,1.64Zm-.09-7.12a4,4,0,0,1,.38.54A4,4,0,0,0,54.87,77.25Zm.43.65a2.42,2.42,0,0,1,.23.58A2.42,2.42,0,0,0,55.3,77.9Zm48.61-2c-.09-.12-.18-.23-.28-.34.1.11.19.23.28.35Zm.58,1.47a2.42,2.42,0,0,0-.13-.65,2.42,2.42,0,0,1,.13.66Zm-.21-.85a3,3,0,0,0-.21-.4,3.17,3.17,0,0,1,.21.41ZM101.08,74c-.32-.12-.65-.24-1-.34A7.89,7.89,0,0,0,101.08,74Zm2.32,1.33A2.69,2.69,0,0,0,103,75a3,3,0,0,1,.37.34Zm-.65-.5-.46-.27Zm-.78-.44c-.18-.09-.39-.18-.59-.26a5,5,0,0,0,.62.3Zm-2-.78-1-.25Zm-1.4-.35-.75-.16ZM97.29,73a6.69,6.69,0,0,1-.74-.12,2.56,2.56,0,0,0,.7.16ZM96,72.81c-.26,0-.51-.07-.77-.09a5,5,0,0,0,.73.13Zm-1.37-.16-.82-.06Zm-1.42-.1h0Zm-1.46-.07H90.27l1.41,0Zm-1.66,0ZM87.89,99.65Zm1.5-.13h0Zm8.06-3.17.1-.09Zm-7,3h0Zm1.18-.25.28-.08Zm1.12-.32Zm1.06-.38.33-.14Zm1-.43.35-.19Zm.94-.5Zm2.46-1.78.14-.13Zm.72-.69h0Zm5.57-14.34a11.27,11.27,0,0,1-.1,1.13c0-.36,0-.73.06-1.1Zm-.21,2.08c-.07.56-.16,1.13-.28,1.71.08-.55.17-1.12.24-1.68Zm-.51,2.83v.18a.83.83,0,0,1,0-.15Zm-.07.29c-.14.56-.3,1.12-.47,1.68.13-.54.29-1.09.43-1.65ZM101,92.44l-.2.3Zm3.6-13.59v-.77a5.5,5.5,0,0,0,0,.8Z" fill="none"/>
    </clipPath>
    <clipPath id="5382a104-b6d6-486b-bea1-9ed42812faa8">
      <path d="M55.6,79.2c-.71,14.92-9.87,20.8-17.84,20.46C23.33,99,20.75,85,21.11,77.38S56,71.58,55.6,79.2Zm14.4,0c.71,14.92,9.88,20.84,17.84,20.46,14.43-.69,17-14.66,16.65-22.28S69.63,71.58,70,79.2Z" fill="none"/>
    </clipPath>
  </defs>
  <title>Artboard 1</title>
  <g id="92a6d3f4-6803-4436-878c-bf92473f2075" data-name="Слой 2">
    <g id="70828e74-29e1-46ce-87d1-6f98f0b24bf8" data-name="Слой 1-2">
      <path d="M5.66,72.12s-10.2,8.31-3,25.56,21.23,13.75,21.23,13.75Z" fill="#d29b6d"/>
      <path d="M119.91,72.12s10.2,8.31,3,25.56-21.23,13.75-21.23,13.75Z" fill="#d29b6d"/>
      <path d="M116.4,77.79c0,35.87-24,78-53.6,78S9.2,113.7,9.2,77.79s24-64.94,53.6-64.94S116.4,41.93,116.4,77.79Z" fill="#efc086"/>
      <path d="M124.17,172.26c0-22.54-6-36.5-8.88-41.84,3.52-1.73,6.78-4.56,6.78-9.16,0-10-11.07-8.17-11.07-8.17,7.84,2.17,7.34,8.5,5.34,10.5s-6.5,3.67-16-5.16-14.5-13.67-23.84-13.67-13.65,6-13.65,6-4.32-6-13.65-6-14.33,4.83-23.83,13.67-14,7.16-16,5.16-2.5-8.33,5.33-10.5c0,0-11.07-1.83-11.07,8.17,0,4.9,3.7,7.8,7.47,9.48h0s-11.43,21-9.43,37.19l4.6-6.34s-1.6,19.84,8.23,34.84,24,15.66,37.17,28.83,4,27-8.5,27-13.33-12.67-4.5-11.67c0,0-13.33-7.16-13.33,8.84s19.5,16.33,19.5,16.33,36,2,63-54.67v7.84S124.17,201.76,124.17,172.26ZM52.89,129.6h-.52a23.67,23.67,0,0,0,10.16-8l.32-.45.32.45a23.27,23.27,0,0,0,9.4,7.67,15.21,15.21,0,0,1-10,3.5A15.43,15.43,0,0,1,52.89,129.6Z" fill="url(#3f96194f-5964-4b00-89ed-acddb9f94cc8)"/>
      <path d="M62.85,0A59.12,59.12,0,0,0,17,21.71c-.37-.15-2.17-1.05-4.82-4.59-3-4-2.53-10.23-2.53-10.23S5.39,14.32,8.2,22.65a19.8,19.8,0,0,0,3.64,6.45c-.11.17-.2.35-.31.53-7.75-6-8.86-10.42-8.86-10.42-.36,12.4,6,15.93,6,15.93h0A59,59,0,0,0,3.55,59.23C3.55,68.48,9.45,85,9.45,85H18c-2.13-9.74-3.3-18.47-3.3-24.66a48.12,48.12,0,0,1,96.24,0c0,6.19-1.17,14.92-3.29,24.66h8.49S122,68.48,122,59.23A59.22,59.22,0,0,0,62.85,0Z" fill="url(#c053b816-6ee3-4683-8e2c-a06eff342901)"/>
      <path d="M67.47,0h-1a12.18,12.18,0,0,0-1.35.05H62.83A59.22,59.22,0,0,0,9,34.48a1,1,0,0,0,.35,1.22c.61.39,1.51,1,2.6,1.75,7.31,4.69,28.62,16.77,54.54,16.77h1c28.8,0,51.92-14.91,56.44-18a1,1,0,0,0,.23-1.36C120.21,29.57,96.78,0,67.47,0Z" fill="url(#c038daa3-fd3b-47a8-b93f-123c3f85bd11)"/>
      <path d="M21.11,77.38C20.75,85,23.33,99,37.76,99.66c8,.38,17.13-5.54,17.84-20.46C56,71.58,21.48,69.75,21.11,77.38Z" fill="#212124"/>
      <path d="M70,79.2c.71,14.92,9.88,20.84,17.84,20.46,14.43-.69,17-14.66,16.65-22.28S69.63,71.58,70,79.2Z" fill="#212124"/>
      <g opacity="0.5">
        <g clip-path="url(#23629485-1efd-4928-b2b1-b519cddb91b9)">
          <g>
            <path d="M104.75,79.56a1.21,1.21,0,0,1-.38,0,1.34,1.34,0,0,1-.82-.27,1,1,0,0,1-.43-.83,1.06,1.06,0,0,1,.37-.8,1.17,1.17,0,0,1,.88-.36,1.32,1.32,0,0,1,.39.06,1.27,1.27,0,0,1,.37.18v-.17h.59a.41.41,0,0,1,.26.07.23.23,0,0,1,.08.18.21.21,0,0,1-.08.19.41.41,0,0,1-.26.07h-.08v2.29h.08a.35.35,0,0,1,.26.07.25.25,0,0,1,.08.18.18.18,0,0,1-.08.18.35.35,0,0,1-.26.07h-.89a.42.42,0,0,1-.27-.07.21.21,0,0,1-.07-.18.24.24,0,0,1,.07-.18.42.42,0,0,1,.27-.07h.3v-.83A2.08,2.08,0,0,1,104.75,79.56Zm-.91-.64a.86.86,0,0,0,1.07,0,.53.53,0,0,0,.22-.4.61.61,0,0,0-.15-.37.7.7,0,0,0-.6-.29A.73.73,0,0,0,104,78a.77.77,0,0,0-.26.28.5.5,0,0,0-.08.27A.55.55,0,0,0,103.84,78.92Z" fill="#3f9f3a"/>
            <path d="M101.07,77.42a.42.42,0,0,1,.27.07.24.24,0,0,1,.07.18.26.26,0,0,1-.07.19.42.42,0,0,1-.27.07h-.18v1a1.81,1.81,0,0,0,.44.22,1,1,0,0,0,.33.06.26.26,0,0,0,.31-.31V77.42h.6a.41.41,0,0,1,.26.07.25.25,0,0,1,.08.18.27.27,0,0,1-.08.19.41.41,0,0,1-.26.07h-.09V79a.54.54,0,0,1-.08.33.71.71,0,0,1-.28.29,1,1,0,0,1-.44.11h-.37a3,3,0,0,1-.42-.15v.12h-.48a.41.41,0,0,1-.26-.07.27.27,0,0,1-.08-.19.25.25,0,0,1,.08-.18.32.32,0,0,1,.23-.07V77.42Z" fill="#3f9f3a"/>
            <path d="M99.66,76.46a.41.41,0,0,1,.26.07.24.24,0,0,1,.07.18.26.26,0,0,1-.07.19.48.48,0,0,1-.26.07h-.09v2.19h.09a.41.41,0,0,1,.26.07.24.24,0,0,1,.07.18.26.26,0,0,1-.07.19.48.48,0,0,1-.26.07h-.6v-.13a1.46,1.46,0,0,1-.36.16h-.39a1.25,1.25,0,0,1-.92-.33,1.1,1.1,0,0,1-.35-.82,1.18,1.18,0,0,1,.37-.88,1.24,1.24,0,0,1,.89-.37,1.34,1.34,0,0,1,.39.07,1.27,1.27,0,0,1,.37.18V76.46Zm-1.91,2.6a.82.82,0,0,0,.56.18.78.78,0,0,0,.55-.18.57.57,0,0,0,.2-.46.76.76,0,0,0-1.51,0h0A.56.56,0,0,0,97.75,79.06Z" fill="#3f9f3a"/>
            <path d="M96.05,76.46a.41.41,0,0,1,.26.07.24.24,0,0,1,.07.18.26.26,0,0,1-.07.19.48.48,0,0,1-.26.07h-.41v2.19h.61a.35.35,0,0,1,.26.07.25.25,0,0,1,.08.18.27.27,0,0,1-.08.19.41.41,0,0,1-.26.07H94.52a.41.41,0,0,1-.26-.07.27.27,0,0,1-.08-.19.25.25,0,0,1,.08-.18.35.35,0,0,1,.26-.07h.61v-2.7Z" fill="#3f9f3a"/>
            <path d="M93,77.42a.41.41,0,0,1,.26.07.25.25,0,0,1,.08.18.27.27,0,0,1-.08.19.41.41,0,0,1-.26.07h-.41v1.23h.61a.35.35,0,0,1,.26.07.25.25,0,0,1,.08.18.27.27,0,0,1-.08.19.41.41,0,0,1-.26.07H91.48a.41.41,0,0,1-.26-.07.21.21,0,0,1-.08-.19.23.23,0,0,1,.08-.18.35.35,0,0,1,.26-.07h.61V77.42Zm-.24-1V77h-.61v-.54Z" fill="#3f9f3a"/>
            <path d="M88.85,77.39a2.54,2.54,0,0,1,.39,0,1.3,1.3,0,0,1,.94.36,1.22,1.22,0,0,1,.37.9,1.07,1.07,0,0,1-.45.9,1.57,1.57,0,0,1-.92.24,1.84,1.84,0,0,1-1-.22c-.15-.11-.23-.21-.23-.32A.25.25,0,0,1,88,79a.23.23,0,0,1,.18-.08.34.34,0,0,1,.19.09.64.64,0,0,0,.22.14,2.24,2.24,0,0,0,.52.06A1.11,1.11,0,0,0,89.8,79a.56.56,0,0,0,.21-.47.67.67,0,0,0-.22-.53.75.75,0,0,0-.57-.21,1,1,0,0,0-.51.12.28.28,0,0,0-.15.2c0,.1,0,.16-.08.19a.27.27,0,0,1-.36,0,.35.35,0,0,1-.07-.26v-.33a.41.41,0,0,1,.07-.26.24.24,0,0,1,.18-.07.27.27,0,0,1,.19.08A2.37,2.37,0,0,1,88.85,77.39Z" fill="#3f9f3a"/>
            <path d="M82.77,77.39a2.67,2.67,0,0,1,.4,0,1.3,1.3,0,0,1,.94.36,1.21,1.21,0,0,1,.36.9,1.07,1.07,0,0,1-.45.9,1.5,1.5,0,0,1-.92.24,1.84,1.84,0,0,1-1-.22c-.15-.11-.23-.21-.23-.32A.26.26,0,0,1,82,79a.23.23,0,0,1,.18-.08.34.34,0,0,1,.19.09.68.68,0,0,0,.23.14,2.22,2.22,0,0,0,.51.06A1,1,0,0,0,83.8,79a.56.56,0,0,0,.21-.47A.7.7,0,0,0,83.8,78a.83.83,0,0,0-.58-.21,1,1,0,0,0-.51.12.25.25,0,0,0-.14.2.34.34,0,0,1-.09.19.27.27,0,0,1-.36,0,.41.41,0,0,1-.07-.26v-.33a.48.48,0,0,1,.07-.26.24.24,0,0,1,.18-.07.27.27,0,0,1,.19.08A1.31,1.31,0,0,1,82.77,77.39Z" fill="#3f9f3a"/>
            <path d="M80.85,76.46a.35.35,0,0,1,.26.07.23.23,0,0,1,.08.18.21.21,0,0,1-.08.19.41.41,0,0,1-.26.07h-.4v2.19h.6a.35.35,0,0,1,.26.07.23.23,0,0,1,.08.18.21.21,0,0,1-.08.19.41.41,0,0,1-.26.07H79.33a.41.41,0,0,1-.26-.07.27.27,0,0,1-.08-.19.25.25,0,0,1,.08-.18.35.35,0,0,1,.26-.07h.61v-2.7Z" fill="#3f9f3a"/>
            <path d="M76.1,79.67a.48.48,0,0,1-.26-.07.26.26,0,0,1-.07-.19.24.24,0,0,1,.07-.18.41.41,0,0,1,.26-.07h.09v-1a.67.67,0,0,1,.26-.56,1.16,1.16,0,0,1,.74-.21,2,2,0,0,1,.35,0,2.33,2.33,0,0,1,.38.08.44.44,0,0,1,.19.07.23.23,0,0,1,.07.07.21.21,0,0,1,0,.11.26.26,0,0,1-.07.19A.24.24,0,0,1,78,78h-.21a2.8,2.8,0,0,0-.58-.09.67.67,0,0,0-.37.07.23.23,0,0,0-.1.19v.12a4.69,4.69,0,0,1,.53,0,1.39,1.39,0,0,1,.9.27.79.79,0,0,1,.32.6.62.62,0,0,1-.25.47,1,1,0,0,1-.66.22,2.94,2.94,0,0,1-.42,0,1.5,1.5,0,0,1-.42-.15v.12Zm.6-.69a2.17,2.17,0,0,0,.41.19,1.14,1.14,0,0,0,.41.07.57.57,0,0,0,.34-.08.12.12,0,0,0,.07-.11.25.25,0,0,0-.14-.2.91.91,0,0,0-.53-.15,2.6,2.6,0,0,0-.56.06Z" fill="#3f9f3a"/>
            <path d="M73.48,78.17a.43.43,0,0,1-.16,0,.27.27,0,0,1-.22-.11.45.45,0,0,1,0-.23v-.12a.41.41,0,0,1,.07-.26.25.25,0,0,1,.18-.08h.16a1.12,1.12,0,0,1,.31-.1h.34a1.3,1.3,0,0,1,.81.25.53.53,0,0,1,.23.45.59.59,0,0,1-.2.45,1.71,1.71,0,0,1-.82.25,1.68,1.68,0,0,0-.54.11c-.09,0-.13.09-.13.16s0,.08.09.11a1.12,1.12,0,0,0,.54.11,1.21,1.21,0,0,0,.38,0A.76.76,0,0,0,74.8,79a.28.28,0,0,1,.09-.17.18.18,0,0,1,.16,0,.24.24,0,0,1,.18.07.41.41,0,0,1,.07.26v.18a.41.41,0,0,1-.07.26.26.26,0,0,1-.19.07H75l-.08,0a1.42,1.42,0,0,1-.35.11,1.34,1.34,0,0,1-.4,0,1.45,1.45,0,0,1-.9-.27A.55.55,0,0,1,73,79a.58.58,0,0,1,.15-.38.8.8,0,0,1,.4-.27,3.34,3.34,0,0,1,.7-.14,1.37,1.37,0,0,0,.35-.08.12.12,0,0,0,.11-.11s0-.06-.08-.09a1,1,0,0,0-.47-.1.66.66,0,0,0-.28,0,1.19,1.19,0,0,0-.26.11A.27.27,0,0,1,73.48,78.17Z" fill="#3f9f3a"/>
            <path d="M70.44,78.17a.43.43,0,0,1-.16,0,.27.27,0,0,1-.22-.11.89.89,0,0,1,0-.23v-.12a.4.4,0,0,1,.06-.26.25.25,0,0,1,.18-.08h.16a1.12,1.12,0,0,1,.31-.1h.34a1.3,1.3,0,0,1,.81.25.53.53,0,0,1,.23.45.56.56,0,0,1-.2.45,1.71,1.71,0,0,1-.82.25,1.68,1.68,0,0,0-.54.11c-.09,0-.13.09-.13.16s0,.08.09.11a1.12,1.12,0,0,0,.54.11,1.21,1.21,0,0,0,.38,0,.76.76,0,0,0,.28-.15.27.27,0,0,1,.1-.17.21.21,0,0,1,.15,0,.24.24,0,0,1,.18.07.41.41,0,0,1,.07.26v.18a.41.41,0,0,1-.07.26.23.23,0,0,1-.19.07h-.08l-.08,0a1.93,1.93,0,0,1-.34.11,2.29,2.29,0,0,1-1.3-.27A.54.54,0,0,1,70,79a.59.59,0,0,1,.14-.38.8.8,0,0,1,.4-.27,3.34,3.34,0,0,1,.7-.14,1.37,1.37,0,0,0,.35-.08.12.12,0,0,0,.11-.11s0-.06-.08-.09a.85.85,0,0,0-.47-.1.66.66,0,0,0-.28,0,1.19,1.19,0,0,0-.26.11A.25.25,0,0,1,70.44,78.17Z" fill="#3f9f3a"/>
            <path d="M63.75,77.18a.41.41,0,0,1-.26-.07.27.27,0,0,1-.08-.19.25.25,0,0,1,.08-.18.35.35,0,0,1,.26-.07h1.42a.35.35,0,0,1,.26.07.23.23,0,0,1,.08.18.27.27,0,0,1-.08.19.41.41,0,0,1-.26.07h-.62v1.47a.74.74,0,0,0,0,.21.32.32,0,0,0,.09.17.6.6,0,0,0,.21.14.67.67,0,0,0,.28.06,1.33,1.33,0,0,0,.59-.16v-.5a.35.35,0,0,1,.07-.26.25.25,0,0,1,.18-.08.27.27,0,0,1,.19.08.41.41,0,0,1,.07.26v.83a2.62,2.62,0,0,1-1.09.34,1.2,1.2,0,0,1-.59-.15,1.09,1.09,0,0,1-.43-.42.9.9,0,0,1-.09-.46V77.18Z" fill="#3f9f3a"/>
            <path d="M60.91,79.67a.41.41,0,0,1-.26-.07.27.27,0,0,1-.08-.19.25.25,0,0,1,.08-.18.35.35,0,0,1,.26-.07H61v-1a.67.67,0,0,1,.26-.56,1.12,1.12,0,0,1,.73-.21,2.16,2.16,0,0,1,.36,0,2.33,2.33,0,0,1,.38.08.62.62,0,0,1,.19.07l.06.07a.21.21,0,0,1,0,.11.26.26,0,0,1-.07.19.22.22,0,0,1-.17.07h-.21a2.8,2.8,0,0,0-.58-.09.83.83,0,0,0-.38.07.25.25,0,0,0-.09.19v.12H62a1.39,1.39,0,0,1,.9.27.79.79,0,0,1,.32.6.62.62,0,0,1-.25.47,1,1,0,0,1-.67.22,2.81,2.81,0,0,1-.41,0,1.5,1.5,0,0,1-.42-.15v.12Zm.6-.69a1.53,1.53,0,0,0,.41.19,1.14,1.14,0,0,0,.41.07.57.57,0,0,0,.34-.08.14.14,0,0,0,.07-.11.25.25,0,0,0-.14-.2,1,1,0,0,0-.53-.15,2.6,2.6,0,0,0-.56.06Z" fill="#3f9f3a"/>
            <path d="M59.47,77.93a.57.57,0,0,1-.26,0,.24.24,0,0,1-.12-.21.21.21,0,0,1,.08-.19.37.37,0,0,1,.25-.07h.68a.41.41,0,0,1,.26.07.23.23,0,0,1,.08.18.21.21,0,0,1-.08.19.41.41,0,0,1-.26.07H60l-.85,1.74h-.52L57.78,78h-.09a.41.41,0,0,1-.26-.07.25.25,0,0,1-.08-.18.27.27,0,0,1,.08-.19.41.41,0,0,1,.26-.07h.7a.41.41,0,0,1,.26.07.25.25,0,0,1,.08.18.23.23,0,0,1-.13.22h-.26l.55,1.12Z" fill="#3f9f3a"/>
            <path d="M54.84,79.67a.42.42,0,0,1-.27-.07.26.26,0,0,1-.07-.19.24.24,0,0,1,.07-.18.42.42,0,0,1,.27-.07h.08v-1a.67.67,0,0,1,.26-.56,1.16,1.16,0,0,1,.74-.21,2,2,0,0,1,.35,0,2.33,2.33,0,0,1,.38.08.44.44,0,0,1,.19.07.23.23,0,0,1,.07.07.21.21,0,0,1,0,.11.26.26,0,0,1-.07.19.22.22,0,0,1-.17.07h-.21a2.8,2.8,0,0,0-.58-.09.79.79,0,0,0-.37.07.23.23,0,0,0-.1.19v.12h.53a1.39,1.39,0,0,1,.9.27.79.79,0,0,1,.32.6.62.62,0,0,1-.25.47,1,1,0,0,1-.66.22,2.94,2.94,0,0,1-.42,0,1.5,1.5,0,0,1-.42-.15v.12Zm.59-.69a2.17,2.17,0,0,0,.41.19,1.14,1.14,0,0,0,.41.07.57.57,0,0,0,.34-.08.12.12,0,0,0,.07-.11.25.25,0,0,0-.14-.2A.91.91,0,0,0,56,78.7a2.6,2.6,0,0,0-.56.06Z" fill="#3f9f3a"/>
            <path d="M52.87,78.52a3.26,3.26,0,0,0-1,1.15h-.29a.41.41,0,0,1-.26-.07.27.27,0,0,1-.08-.19.26.26,0,0,1,.11-.21.57.57,0,0,1,.26,0c.13-.2.23-.35.3-.44a3,3,0,0,1,.35-.36,1.1,1.1,0,0,1-.42-.35.76.76,0,0,1-.14-.43A.83.83,0,0,1,52,77a1.19,1.19,0,0,1,.83-.27H54a.41.41,0,0,1,.26.07.24.24,0,0,1,.07.18.26.26,0,0,1-.07.19.48.48,0,0,1-.26.07h-.08v2H54a.41.41,0,0,1,.26.07.24.24,0,0,1,.07.18.26.26,0,0,1-.07.19.48.48,0,0,1-.26.07h-.77a.41.41,0,0,1-.26-.07.21.21,0,0,1-.08-.19.23.23,0,0,1,.08-.18.35.35,0,0,1,.26-.07h.18v-.64Zm.5-1.34h-.58a.71.71,0,0,0-.45.12.34.34,0,0,0-.15.26.3.3,0,0,0,.08.2.77.77,0,0,0,.31.19A1.21,1.21,0,0,0,53,78h.4Z" fill="#3f9f3a"/>
            <path d="M49.42,77.42a.41.41,0,0,1,.26.07.25.25,0,0,1,.08.18.27.27,0,0,1-.08.19.41.41,0,0,1-.26.07h-.18v1a2.18,2.18,0,0,0,.43.22,1,1,0,0,0,.33.06.34.34,0,0,0,.24-.07.3.3,0,0,0,.08-.24V77.42h.59a.42.42,0,0,1,.27.07.24.24,0,0,1,.07.18.26.26,0,0,1-.07.19.42.42,0,0,1-.27.07h-.08V79a.73.73,0,0,1-.08.33.81.81,0,0,1-.72.4h-.38a1.56,1.56,0,0,1-.41-.15v.12h-.48a.41.41,0,0,1-.26-.07.21.21,0,0,1-.08-.19.24.24,0,0,1,.07-.18.34.34,0,0,1,.24-.07V77.42Z" fill="#3f9f3a"/>
            <path d="M46.13,78.17a.22.22,0,0,1-.16,0,.26.26,0,0,1-.21-.11.45.45,0,0,1,0-.23v-.12a.35.35,0,0,1,.07-.26.21.21,0,0,1,.17-.08h.16a1.12,1.12,0,0,1,.31-.1h.34a1.35,1.35,0,0,1,.82.25.56.56,0,0,1,.23.45.57.57,0,0,1-.21.45,1.64,1.64,0,0,1-.81.25,1.74,1.74,0,0,0-.55.11c-.08,0-.13.09-.13.16s0,.08.09.11a2.36,2.36,0,0,0,.92.11.76.76,0,0,0,.28-.15.27.27,0,0,1,.1-.17.21.21,0,0,1,.15,0,.26.26,0,0,1,.19.07.48.48,0,0,1,.07.26v.18a.48.48,0,0,1-.07.26.26.26,0,0,1-.19.07h-.09l-.08,0a1.35,1.35,0,0,1-.34.11,2.29,2.29,0,0,1-1.3-.27.54.54,0,0,1-.24-.45.59.59,0,0,1,.14-.38.8.8,0,0,1,.4-.27,3.34,3.34,0,0,1,.7-.14,1.55,1.55,0,0,0,.36-.08.11.11,0,0,0,.1-.11s0-.06-.08-.09a.91.91,0,0,0-.46-.1.71.71,0,0,0-.29,0,1.19,1.19,0,0,0-.26.11A.24.24,0,0,1,46.13,78.17Z" fill="#3f9f3a"/>
            <path d="M44.85,76.46a.35.35,0,0,1,.26.07.25.25,0,0,1,.08.18.27.27,0,0,1-.08.19.41.41,0,0,1-.26.07h-.09v2.19a.53.53,0,0,1,.25,0,.24.24,0,0,1,.12.21.26.26,0,0,1-.07.19.48.48,0,0,1-.26.07h-.58a.42.42,0,0,1-.22,0,.27.27,0,0,1-.08-.19A.24.24,0,0,1,44,79.2a.53.53,0,0,1,.25,0v-1a1.35,1.35,0,0,0-.35-.28.59.59,0,0,0-.29-.07.49.49,0,0,0-.35.11.33.33,0,0,0-.09.27v.92a.57.57,0,0,1,.26,0,.23.23,0,0,1,.11.21.26.26,0,0,1-.07.19.48.48,0,0,1-.26.07h-.58a.41.41,0,0,1-.26-.07.27.27,0,0,1-.08-.19.24.24,0,0,1,.12-.21.53.53,0,0,1,.25,0v-1a.8.8,0,0,1,.48-.77,1.27,1.27,0,0,1,.47-.09,1.13,1.13,0,0,1,.32,0,1.3,1.3,0,0,1,.32.14v-1Z" fill="#3f9f3a"/>
            <path d="M37.43,78.24a1.13,1.13,0,0,1,0-.26v-.81a.27.27,0,0,0,0-.15h-.13a.26.26,0,0,1-.17-.09.22.22,0,0,1-.07-.17.25.25,0,0,1,.08-.18.27.27,0,0,1,.19-.08.68.68,0,0,1,.66.67V78a.2.2,0,0,0,0,.15.29.29,0,0,1,.14,0,.38.38,0,0,1,.17.08.23.23,0,0,1,.06.18.27.27,0,0,1-.06.17.23.23,0,0,1-.17.08.2.2,0,0,0-.15.06.17.17,0,0,0,0,.14v.9a.6.6,0,0,1-.08.29.73.73,0,0,1-.26.29.62.62,0,0,1-.32.09.27.27,0,0,1-.19-.08.24.24,0,0,1-.08-.2.24.24,0,0,1,.07-.18.38.38,0,0,1,.17-.08.16.16,0,0,0,.18-.14v-.86a1.61,1.61,0,0,1,0-.31.76.76,0,0,1,.12-.19A.56.56,0,0,1,37.43,78.24Z" fill="#3f9f3a"/>
            <path d="M101.71,85.63a1.21,1.21,0,0,1-.38.06,1.34,1.34,0,0,1-.82-.27,1,1,0,0,1-.43-.83,1.1,1.1,0,0,1,.37-.81,1.26,1.26,0,0,1,.88-.35,1.32,1.32,0,0,1,.39.06,1.27,1.27,0,0,1,.37.18V83.5h.59a.35.35,0,0,1,.26.07.23.23,0,0,1,.08.18.18.18,0,0,1-.08.18.35.35,0,0,1-.26.07h-.08v2.29h.08a.41.41,0,0,1,.26.07.21.21,0,0,1,.08.19.23.23,0,0,1-.08.18.35.35,0,0,1-.26.07h-.89a.35.35,0,0,1-.26-.07.23.23,0,0,1-.08-.18.21.21,0,0,1,.08-.19.41.41,0,0,1,.26-.07h.3v-.83A1.08,1.08,0,0,1,101.71,85.63ZM100.8,85a.76.76,0,0,0,.54.19.75.75,0,0,0,.53-.19.51.51,0,0,0,.22-.39.67.67,0,0,0-.15-.38.71.71,0,0,0-.6-.28.75.75,0,0,0-.67.38.84.84,0,0,0-.08.27A.53.53,0,0,0,100.8,85Z" fill="#fff"/>
            <path d="M98,83.5a.35.35,0,0,1,.26.07.24.24,0,0,1,.07.18.21.21,0,0,1-.07.18A.35.35,0,0,1,98,84h-.19v1a2.58,2.58,0,0,0,.44.22,1,1,0,0,0,.33.06.31.31,0,0,0,.24-.08A.32.32,0,0,0,98.9,85V83.5h.59a.35.35,0,0,1,.26.07.24.24,0,0,1,0,.36.35.35,0,0,1-.26.07H99.4v1.09a.67.67,0,0,1-.07.34.81.81,0,0,1-.29.29.86.86,0,0,1-.44.1,1.15,1.15,0,0,1-.37,0,3.45,3.45,0,0,1-.42-.14v.11h-.48a.35.35,0,0,1-.26-.07.25.25,0,0,1-.08-.18.23.23,0,0,1,.08-.18.34.34,0,0,1,.24-.07V83.5Z" fill="#fff"/>
            <path d="M96.62,82.54a.35.35,0,0,1,.26.07.23.23,0,0,1,.08.18.25.25,0,0,1-.08.18.35.35,0,0,1-.26.07h-.09v2.2h.09a.41.41,0,0,1,.26.07.23.23,0,0,1,.08.18.25.25,0,0,1-.08.18.35.35,0,0,1-.26.07H96v-.12a1.14,1.14,0,0,1-.36.15,1.28,1.28,0,0,1-.39,0,1.25,1.25,0,0,1-.92-.33,1.07,1.07,0,0,1-.35-.82,1.22,1.22,0,0,1,.37-.88,1.19,1.19,0,0,1,.89-.36,1.32,1.32,0,0,1,.39.06,1.27,1.27,0,0,1,.37.18V82.54Zm-1.91,2.6a1,1,0,0,0,1.12,0,.58.58,0,0,0,.19-.46.75.75,0,0,0-.22-.53.7.7,0,0,0-.53-.21.72.72,0,0,0-.54.21.73.73,0,0,0-.22.54.56.56,0,0,0,.2.45Z" fill="#fff"/>
            <path d="M93,82.54a.35.35,0,0,1,.26.07.23.23,0,0,1,.08.18.25.25,0,0,1-.08.18A.39.39,0,0,1,93,83h-.41v2.2h.61a.35.35,0,0,1,.26.07.23.23,0,0,1,.08.18.25.25,0,0,1-.08.18.35.35,0,0,1-.26.07H91.47a.41.41,0,0,1-.26-.07.24.24,0,0,1-.07-.18.21.21,0,0,1,.07-.18.41.41,0,0,1,.26-.07h.61V82.5Z" fill="#fff"/>
            <path d="M90,83.5a.35.35,0,0,1,.26.07.24.24,0,0,1,0,.36A.35.35,0,0,1,90,84h-.41v1.24h.61a.35.35,0,0,1,.26.07.23.23,0,0,1,.08.18.25.25,0,0,1-.08.18.35.35,0,0,1-.26.07H88.48a.35.35,0,0,1-.26-.07.25.25,0,0,1-.08-.18.23.23,0,0,1,.08-.18.35.35,0,0,1,.26-.07h.61V83.5Zm-.24-1V83h-.6V82.5Z" fill="#fff"/>
            <path d="M85.81,83.47a2.12,2.12,0,0,1,1.39.36,1.19,1.19,0,0,1,.36.89,1.07,1.07,0,0,1-.45.9,1.49,1.49,0,0,1-.92.25,1.82,1.82,0,0,1-1-.23.41.41,0,0,1-.23-.32.25.25,0,0,1,.08-.18.24.24,0,0,1,.18-.07.34.34,0,0,1,.19.09.79.79,0,0,0,.23.14,2.22,2.22,0,0,0,.51.06,1.13,1.13,0,0,0,.69-.17.58.58,0,0,0,.21-.47.67.67,0,0,0-.22-.53.75.75,0,0,0-.57-.21,1,1,0,0,0-.51.12.28.28,0,0,0-.15.2.3.3,0,0,1-.08.18.27.27,0,0,1-.17.06.21.21,0,0,1-.19-.08.41.41,0,0,1-.07-.26v-.32a.41.41,0,0,1,.07-.26.25.25,0,0,1,.18-.08.25.25,0,0,1,.19.09A1.56,1.56,0,0,1,85.81,83.47Z" fill="#fff"/>
            <path d="M79.56,84.24a.23.23,0,0,1-.16.06.24.24,0,0,1-.22-.12.41.41,0,0,1,0-.22v-.12a.35.35,0,0,1,.07-.26.21.21,0,0,1,.17-.08h.08l.09.06a1.15,1.15,0,0,1,.31-.11,1.82,1.82,0,0,1,.33,0,1.23,1.23,0,0,1,.82.25.56.56,0,0,1,.23.45.6.6,0,0,1-.21.45,1.45,1.45,0,0,1-.81.24,2,2,0,0,0-.54.11.18.18,0,0,0-.13.16.14.14,0,0,0,.09.12,1.12,1.12,0,0,0,.54.11,1.15,1.15,0,0,0,.37,0,.76.76,0,0,0,.28-.15A.4.4,0,0,1,81,85a.19.19,0,0,1,.15,0,.27.27,0,0,1,.19.08.41.41,0,0,1,.07.26v.17a.41.41,0,0,1-.07.26.27.27,0,0,1-.19.08H81a2,2,0,0,1-.34.12H80.2a1.35,1.35,0,0,1-.89-.26.56.56,0,0,1-.24-.46.59.59,0,0,1,.14-.38.84.84,0,0,1,.4-.27,5.57,5.57,0,0,1,.71-.14,1.36,1.36,0,0,0,.35-.07c.07,0,.1-.08.1-.11a.09.09,0,0,0-.07-.1,1,1,0,0,0-.47-.09,1.08,1.08,0,0,0-.55.15A.25.25,0,0,1,79.56,84.24Z" fill="#fff"/>
            <path d="M76.34,84a.35.35,0,0,1-.26-.07.24.24,0,0,1,0-.36.35.35,0,0,1,.26-.07h.94V83a.35.35,0,0,1,.07-.26.25.25,0,0,1,.18-.08.27.27,0,0,1,.19.08.41.41,0,0,1,.07.26v.46H78a.35.35,0,0,1,.26.07.24.24,0,0,1,0,.36A.36.36,0,0,1,78,84h-.18v1.12a.65.65,0,0,1-.24.5,1,1,0,0,1-.71.2,3.11,3.11,0,0,1-.6-.09,1.23,1.23,0,0,1-.48-.22.21.21,0,0,1-.08-.17.29.29,0,0,1,.07-.18.24.24,0,0,1,.18-.07.6.6,0,0,1,.19.06,1.62,1.62,0,0,0,.72.17.67.67,0,0,0,.37-.08.26.26,0,0,0,.07-.22V84Z" fill="#fff"/>
            <path d="M73.07,85.74a.35.35,0,0,1-.26-.07.23.23,0,0,1-.08-.18.18.18,0,0,1,.08-.18.35.35,0,0,1,.26-.07h.08v-1a.71.71,0,0,1,.26-.56,1.29,1.29,0,0,1,.74-.2h.35l.38.08.19.07a.27.27,0,0,1,.07.08.21.21,0,0,1,0,.11.26.26,0,0,1-.07.19.28.28,0,0,1-.17.07h-.21a2.8,2.8,0,0,0-.58-.09.67.67,0,0,0-.37.07.22.22,0,0,0-.1.18v.13a2.35,2.35,0,0,1,.53,0,1.39,1.39,0,0,1,.9.27.77.77,0,0,1,.32.59.61.61,0,0,1-.25.48,1,1,0,0,1-.66.22h-.42a1.92,1.92,0,0,1-.42-.16v.12Zm.59-.69a2.22,2.22,0,0,0,.41.2,1.23,1.23,0,0,0,.42.07.62.62,0,0,0,.33-.08.14.14,0,0,0,.07-.12.27.27,0,0,0-.14-.19.91.91,0,0,0-.53-.15,5.23,5.23,0,0,0-.56,0Z" fill="#fff"/>
            <path d="M70.27,84a.42.42,0,0,1-.27-.07.21.21,0,0,1-.07-.18.24.24,0,0,1,.07-.18.42.42,0,0,1,.27-.07h.93V83a.41.41,0,0,1,.07-.26.25.25,0,0,1,.18-.08.27.27,0,0,1,.19.08.35.35,0,0,1,.07.26v.46h.18a.35.35,0,0,1,.26.07.24.24,0,0,1,0,.36.35.35,0,0,1-.26.07h-.18v1.12a.65.65,0,0,1-.24.5,1,1,0,0,1-.71.2,3.11,3.11,0,0,1-.6-.09,1.23,1.23,0,0,1-.48-.22.22.22,0,0,1-.07-.17.24.24,0,0,1,.07-.18.22.22,0,0,1,.17-.07.66.66,0,0,1,.2.06,1.58,1.58,0,0,0,.71.17.73.73,0,0,0,.38-.08A.29.29,0,0,0,71.2,85V84Z" fill="#fff"/>
            <path d="M68.7,83.5a.35.35,0,0,1,.26.07.24.24,0,0,1,0,.36.35.35,0,0,1-.26.07h-.41v1.24h.61a.35.35,0,0,1,.26.07.18.18,0,0,1,.08.18.23.23,0,0,1-.08.18.35.35,0,0,1-.26.07H67.18a.35.35,0,0,1-.26-.07.25.25,0,0,1-.08-.18.23.23,0,0,1,.08-.18.35.35,0,0,1,.26-.07h.61V83.5Zm-.24-1V83h-.6V82.5Z" fill="#fff"/>
            <path d="M64.54,83.47a1.28,1.28,0,0,1,.39,0,1.33,1.33,0,0,1,.95.36,1.19,1.19,0,0,1,.36.89,1.07,1.07,0,0,1-.45.9,1.49,1.49,0,0,1-.92.25,1.82,1.82,0,0,1-1-.23.41.41,0,0,1-.23-.32.25.25,0,0,1,.08-.18.24.24,0,0,1,.18-.07.34.34,0,0,1,.19.09.79.79,0,0,0,.23.14,2.22,2.22,0,0,0,.51.06,1.13,1.13,0,0,0,.69-.17.58.58,0,0,0,.21-.47.67.67,0,0,0-.22-.53.75.75,0,0,0-.57-.21,1,1,0,0,0-.51.12.28.28,0,0,0-.15.2.3.3,0,0,1-.08.18.27.27,0,0,1-.17.06.21.21,0,0,1-.19-.08.41.41,0,0,1-.07-.26v-.32a.41.41,0,0,1,.07-.26.25.25,0,0,1,.18-.08.25.25,0,0,1,.19.09A1.26,1.26,0,0,1,64.54,83.47Z" fill="#fff"/>
            <path d="M59.47,84a.57.57,0,0,1-.26,0,.24.24,0,0,1-.12-.22.23.23,0,0,1,.08-.18.32.32,0,0,1,.25-.07h.68a.35.35,0,0,1,.26.07.23.23,0,0,1,.08.18.18.18,0,0,1-.08.18.35.35,0,0,1-.26.07H60l-.85,1.74h-.52L57.81,84h-.09a.35.35,0,0,1-.26-.07.24.24,0,0,1,0-.36.35.35,0,0,1,.26-.07h.7a.35.35,0,0,1,.26.07.23.23,0,0,1,.08.18.25.25,0,0,1-.13.22.57.57,0,0,1-.26,0l.55,1.13Z" fill="#fff"/>
            <path d="M54.73,84.06a1.2,1.2,0,0,1,.49-.46,1.35,1.35,0,0,1,1.32,0,1.12,1.12,0,0,1,.48.46,1.16,1.16,0,0,1,.17.6,1,1,0,0,1-.16.57,1.13,1.13,0,0,1-.49.43,1.37,1.37,0,0,1-.66.16,1.44,1.44,0,0,1-.67-.16,1.25,1.25,0,0,1-.48-.43,1.14,1.14,0,0,1-.16-.57A1.25,1.25,0,0,1,54.73,84.06Zm.58,1a.88.88,0,0,0,1.14,0,.58.58,0,0,0,.23-.44.63.63,0,0,0-.23-.51.76.76,0,0,0-.57-.22.8.8,0,0,0-.63.27.66.66,0,0,0-.17.45.61.61,0,0,0,.23.5Z" fill="#fff"/>
            <path d="M53.51,83.5a.35.35,0,0,1,.26.07.24.24,0,0,1,0,.36.35.35,0,0,1-.26.07H53.1v1.24h.61a.35.35,0,0,1,.26.07.23.23,0,0,1,.08.18.25.25,0,0,1-.08.18.35.35,0,0,1-.26.07H52a.35.35,0,0,1-.26-.07.23.23,0,0,1-.08-.18.18.18,0,0,1,.08-.18.35.35,0,0,1,.26-.07h.61V83.5Zm-.24-1V83h-.61V82.5Z" fill="#fff"/>
            <path d="M49.24,82.54a.35.35,0,0,1,.26.07.23.23,0,0,1,.08.18.25.25,0,0,1-.08.18.35.35,0,0,1-.26.07h-.09v.63a1.46,1.46,0,0,1,.38-.18,1.24,1.24,0,0,1,1.57.77,1.14,1.14,0,0,1,.07.41,1.06,1.06,0,0,1-.34.82,1.29,1.29,0,0,1-.92.33,1.34,1.34,0,0,1-.4,0,1.14,1.14,0,0,1-.36-.15v.12h-.59a.35.35,0,0,1-.26-.07.25.25,0,0,1-.08-.18.23.23,0,0,1,.08-.18.35.35,0,0,1,.26-.07h.08v-2.7Zm.11,2.6a1,1,0,0,0,1.12,0,.61.61,0,0,0,.2-.46.75.75,0,0,0-.22-.53.8.8,0,0,0-1.08,0,.77.77,0,0,0-.22.54A.59.59,0,0,0,49.35,85.14Z" fill="#fff"/>
            <path d="M45,83.5a.41.41,0,0,1,.26.07.27.27,0,0,1,0,.36A.35.35,0,0,1,45,84v1.24a.34.34,0,0,1,.24.07.21.21,0,0,1,.07.18.24.24,0,0,1-.07.18.41.41,0,0,1-.26.07h-.46a.35.35,0,0,1-.26-.07.25.25,0,0,1-.08-.18.23.23,0,0,1,.08-.18.32.32,0,0,1,.23-.07v-1a1,1,0,0,0-.2-.22h-.18A.14.14,0,0,0,44,84a.22.22,0,0,0,0,.16v1.6h-.48a.35.35,0,0,1-.26-.07.24.24,0,0,1,0-.36.32.32,0,0,1,.23-.07v-1a1.2,1.2,0,0,0-.22-.23.22.22,0,0,0-.16,0A.15.15,0,0,0,43,84a.43.43,0,0,0,0,.16v1.6H42.5a.35.35,0,0,1-.26-.07.25.25,0,0,1-.08-.18.23.23,0,0,1,.08-.18.34.34,0,0,1,.24-.07V84.1a.65.65,0,0,1,.23-.52.68.68,0,0,1,.45-.15.66.66,0,0,1,.28,0,1,1,0,0,1,.27.17.68.68,0,0,1,.21-.17.41.41,0,0,1,.22,0,.45.45,0,0,1,.23,0,.72.72,0,0,1,.22.17v-.1Z" fill="#fff"/>
            <path d="M39.64,85.74a.35.35,0,0,1-.26-.07.25.25,0,0,1-.08-.18.23.23,0,0,1,.08-.18.35.35,0,0,1,.26-.07h.09v-1a.71.71,0,0,1,.26-.56,1.26,1.26,0,0,1,.73-.2h.36l.38.08.19.07a.27.27,0,0,1,.07.08.21.21,0,0,1,0,.11.26.26,0,0,1-.07.19.28.28,0,0,1-.17.07h-.21a2.8,2.8,0,0,0-.58-.09.72.72,0,0,0-.38.07.21.21,0,0,0-.09.18v.13a2.35,2.35,0,0,1,.53,0,1.39,1.39,0,0,1,.9.27.78.78,0,0,1,.32.59.61.61,0,0,1-.25.48,1,1,0,0,1-.67.22h-.41a1.52,1.52,0,0,1-.42-.16v.12Zm.6-.69a1.56,1.56,0,0,0,.41.2,1.14,1.14,0,0,0,.41.07.57.57,0,0,0,.34-.08.14.14,0,0,0,.07-.12.27.27,0,0,0-.14-.19,1,1,0,0,0-.53-.15,5.23,5.23,0,0,0-.56,0Z" fill="#fff"/>
            <path d="M38.32,83.5a.35.35,0,0,1,.26.07.24.24,0,0,1,0,.36.35.35,0,0,1-.26.07h-.41v1.24h.61a.35.35,0,0,1,.26.07.23.23,0,0,1,.08.18.25.25,0,0,1-.08.18.35.35,0,0,1-.26.07H36.8a.42.42,0,0,1-.27-.07.24.24,0,0,1-.07-.18.21.21,0,0,1,.07-.18.42.42,0,0,1,.27-.07h.6V83.5Zm-.24-1V83h-.61V82.5Z" fill="#fff"/>
            <path d="M35.61,83.5a.35.35,0,0,1,.26.07.23.23,0,0,1,.08.18.25.25,0,0,1-.08.18.32.32,0,0,1-.23.07v1.24a.53.53,0,0,1,.25,0,.25.25,0,0,1,0,.35.12.12,0,0,1,0,0,.35.35,0,0,1-.26.07h-.58a.41.41,0,0,1-.26-.07.26.26,0,0,1,0-.37l0,0a.53.53,0,0,1,.25,0v-.95A1.3,1.3,0,0,0,34.7,84a.63.63,0,0,0-.3-.07.48.48,0,0,0-.35.1.3.3,0,0,0-.09.24v1a.34.34,0,0,1,.24.07.21.21,0,0,1,.07.18.23.23,0,0,1-.08.18.35.35,0,0,1-.26.07h-.45a.35.35,0,0,1-.26-.07.23.23,0,0,1-.08-.18.21.21,0,0,1,.07-.18.34.34,0,0,1,.24-.07v-1a.83.83,0,0,1,.21-.58.89.89,0,0,1,.71-.28,1.13,1.13,0,0,1,.36.06,1,1,0,0,1,.31.18V83.5Z" fill="#fff"/>
            <path d="M31.62,85.36a3.94,3.94,0,0,1-.32.73,1.22,1.22,0,0,1-.26.38.23.23,0,0,1-.16.06.24.24,0,0,1-.18-.07.25.25,0,0,1-.08-.18.27.27,0,0,1,.06-.17,3.63,3.63,0,0,0,.39-.82,2.59,2.59,0,0,0,0-1.56,4.11,4.11,0,0,0-.39-.82.27.27,0,0,1-.06-.17.21.21,0,0,1,.08-.17.25.25,0,0,1,.18-.08.22.22,0,0,1,.17.07,1.36,1.36,0,0,1,.24.35,4.8,4.8,0,0,1,.33.73,2.83,2.83,0,0,1,.14.87A2.7,2.7,0,0,1,31.62,85.36Z" fill="#fff"/>
            <path d="M28.89,85.77a1.41,1.41,0,0,1-.41,0,1.32,1.32,0,0,1-.89-.3.74.74,0,0,1-.27-.6.86.86,0,0,1,.14-.47.87.87,0,0,1,.35-.28,3,3,0,0,1,.6-.17,3.57,3.57,0,0,0,.47-.11.45.45,0,0,0,.19-.14.29.29,0,0,0,.07-.18A.37.37,0,0,0,29,83.3a.67.67,0,0,0-.43-.12,1,1,0,0,0-.34.06.65.65,0,0,0-.21.16.4.4,0,0,0-.07.18.38.38,0,0,1-.08.17.25.25,0,0,1-.17,0,.24.24,0,0,1-.18-.07.48.48,0,0,1-.07-.26V83a.37.37,0,0,1,.07-.25.23.23,0,0,1,.18-.08.25.25,0,0,1,.2.09,1.2,1.2,0,0,1,.31-.13,1.09,1.09,0,0,1,.36,0,1.14,1.14,0,0,1,.79.27.82.82,0,0,1-.18,1.37,1.94,1.94,0,0,1-.62.19l-.45.1a.38.38,0,0,0-.21.14.22.22,0,0,0-.07.17.27.27,0,0,0,.14.24.89.89,0,0,0,.55.16,1.1,1.1,0,0,0,.4-.08.63.63,0,0,0,.26-.16.39.39,0,0,0,.06-.15.31.31,0,0,1,.1-.15.19.19,0,0,1,.15,0,.23.23,0,0,1,.18.08.35.35,0,0,1,.07.26v.34a.35.35,0,0,1-.07.26.23.23,0,0,1-.18.08.17.17,0,0,1-.1,0,.27.27,0,0,1-.11-.1A2.74,2.74,0,0,1,28.89,85.77Z" fill="#fd703d"/>
            <path d="M24.69,84a.35.35,0,0,1-.26-.07.24.24,0,0,1,0-.36.35.35,0,0,1,.26-.07h.94V83a.35.35,0,0,1,.07-.26.23.23,0,0,1,.18-.08.25.25,0,0,1,.18.08.35.35,0,0,1,.07.26v.46h.19a.41.41,0,0,1,.26.07.24.24,0,0,1,.07.18.21.21,0,0,1-.07.18.41.41,0,0,1-.26.07h-.19v1.12a.66.66,0,0,1-.23.5,1.07,1.07,0,0,1-.71.2,2.49,2.49,0,0,1-.6-.09,1.23,1.23,0,0,1-.48-.22A.21.21,0,0,1,24,85.3a.24.24,0,0,1,.07-.18.22.22,0,0,1,.17-.07.66.66,0,0,1,.2.06,1.62,1.62,0,0,0,.72.17.67.67,0,0,0,.37-.08.29.29,0,0,0,.07-.22V84Z" fill="#fd703d"/>
            <path d="M23.26,83.5a.35.35,0,0,1,.26.07.24.24,0,0,1,0,.36.35.35,0,0,1-.26.07h-.19v1.24h.31a.41.41,0,0,1,.26.07.21.21,0,0,1,.07.18.24.24,0,0,1-.07.18.41.41,0,0,1-.26.07H21.85a.42.42,0,0,1-.27-.07.24.24,0,0,1-.07-.18.21.21,0,0,1,.07-.18.42.42,0,0,1,.27-.07h.72v-.77a4.09,4.09,0,0,0-.53-.4.7.7,0,0,0-.32-.13.31.31,0,0,0-.18.09.35.35,0,0,1-.2.1.28.28,0,0,1-.26-.26.35.35,0,0,1,.16-.26.75.75,0,0,1,.48-.18.81.81,0,0,1,.34.08,2.62,2.62,0,0,1,.51.3V83.5Z" fill="#fd703d"/>
            <path d="M20.09,83.5a.35.35,0,0,1,.26.07.24.24,0,0,1,0,.36.41.41,0,0,1-.26.07h-.41v1.24h.61a.35.35,0,0,1,.26.07.23.23,0,0,1,.08.18.25.25,0,0,1-.08.18.35.35,0,0,1-.26.07H18.56a.41.41,0,0,1-.26-.07.24.24,0,0,1-.07-.18.21.21,0,0,1,.07-.18.41.41,0,0,1,.26-.07h.61V83.5Zm-.24-1V83h-.61V82.5Z" fill="#fd703d"/>
            <path d="M17.38,83.5a.35.35,0,0,1,.26.07.23.23,0,0,1,.08.18.25.25,0,0,1-.08.18.32.32,0,0,1-.23.07v1.24a.53.53,0,0,1,.25,0,.25.25,0,0,1,.05.35l-.05,0a.35.35,0,0,1-.26.07h-.58a.35.35,0,0,1-.26-.07.26.26,0,0,1,0-.37l0,0a.53.53,0,0,1,.25,0v-.95a1.3,1.3,0,0,0-.34-.28.63.63,0,0,0-.3-.07.48.48,0,0,0-.35.1.3.3,0,0,0-.09.24v1a.34.34,0,0,1,.24.07.21.21,0,0,1,.07.18.23.23,0,0,1-.08.18.35.35,0,0,1-.26.07h-.45a.35.35,0,0,1-.26-.07.23.23,0,0,1-.08-.18.21.21,0,0,1,.07-.18.34.34,0,0,1,.24-.07v-1a.83.83,0,0,1,.21-.58.89.89,0,0,1,.71-.28,1.13,1.13,0,0,1,.36.06,1,1,0,0,1,.31.18V83.5Z" fill="#fd703d"/>
            <path d="M13.12,83.48a1.15,1.15,0,0,1,.37-.06,1.17,1.17,0,0,1,.86.35,1.2,1.2,0,0,1,0,1.7,1.17,1.17,0,0,1-.86.35,1.13,1.13,0,0,1-.36-.06,1.5,1.5,0,0,1-.34-.16v.25a.42.42,0,0,0,.13.32.48.48,0,0,0,.36.12h.56a.41.41,0,0,1,.26.07.27.27,0,0,1,.08.19.25.25,0,0,1-.08.18.35.35,0,0,1-.26.07h-.58a1.07,1.07,0,0,1-.52-.14,1,1,0,0,1-.34-.35.93.93,0,0,1-.12-.46V84H12.2a.35.35,0,0,1-.26-.07.18.18,0,0,1-.08-.18.23.23,0,0,1,.08-.18.35.35,0,0,1,.26-.07h.59v.15A1.29,1.29,0,0,1,13.12,83.48ZM13,85.11a.72.72,0,0,0,1,0,.69.69,0,0,0,.21-.49.63.63,0,0,0-.21-.48.69.69,0,0,0-1,0l0,0a.63.63,0,0,0-.21.48A.69.69,0,0,0,13,85.11Z" fill="#fd703d"/>
            <path d="M9.76,83.05a.34.34,0,0,1-.26,0,.23.23,0,0,1-.08-.18.21.21,0,0,1,.08-.19.41.41,0,0,1,.26-.07h.81v4H9.75a.35.35,0,0,1-.26-.07.24.24,0,0,1,0-.36.35.35,0,0,1,.26-.07h.31v-3Z" fill="#fd703d"/>
            <path d="M7.82,86a.35.35,0,0,1,.26.07.18.18,0,0,1,.08.18.23.23,0,0,1-.08.18.35.35,0,0,1-.26.07H7v-4h.82a.48.48,0,0,1,.26.07.26.26,0,0,1,.07.19.24.24,0,0,1-.07.18.41.41,0,0,1-.26.07H7.51v3Z" fill="#fd703d"/>
            <path d="M.14,85.74a.35.35,0,0,1-.26-.07.24.24,0,0,1-.07-.18.21.21,0,0,1,.07-.18.35.35,0,0,1,.26-.07H.23v-1a.71.71,0,0,1,.26-.56,1.26,1.26,0,0,1,.73-.2h.36l.38.08.19.07a.27.27,0,0,1,.07.08.21.21,0,0,1,0,.11.26.26,0,0,1-.07.19.28.28,0,0,1-.17.07H1.77A2.8,2.8,0,0,0,1.19,84a.72.72,0,0,0-.38.07.21.21,0,0,0-.09.18v.13a2.35,2.35,0,0,1,.53,0,1.39,1.39,0,0,1,.9.27.78.78,0,0,1,.32.59.61.61,0,0,1-.25.48,1,1,0,0,1-.66.22H1.14a1.52,1.52,0,0,1-.42-.16v.12Zm.6-.69a1.56,1.56,0,0,0,.41.2,1.14,1.14,0,0,0,.41.07.57.57,0,0,0,.34-.08A.14.14,0,0,0,2,85.12a.27.27,0,0,0-.14-.19,1,1,0,0,0-.53-.15,5.23,5.23,0,0,0-.56,0Z" fill="#fd703d"/>
            <path d="M98.78,91.84a2.19,2.19,0,0,1-1.31-.29.78.78,0,0,1-.26-.61.7.7,0,0,1,.14-.46.74.74,0,0,1,.34-.29,3.13,3.13,0,0,1,.6-.16,4.21,4.21,0,0,0,.48-.12.5.5,0,0,0,.19-.13.3.3,0,0,0,0-.42l0,0a.66.66,0,0,0-.43-.13.64.64,0,0,0-.33.07.54.54,0,0,0-.22.15.67.67,0,0,0-.07.18.24.24,0,0,1-.24.23.23.23,0,0,1-.18-.08.35.35,0,0,1-.07-.26v-.38a.35.35,0,0,1,.07-.26.23.23,0,0,1,.18-.08.35.35,0,0,1,.2.1,1,1,0,0,1,.3-.13,1.09,1.09,0,0,1,.36,0,1.14,1.14,0,0,1,.79.27.81.81,0,0,1,.31.63.75.75,0,0,1-.13.43.82.82,0,0,1-.33.31,2.28,2.28,0,0,1-.63.18,3.15,3.15,0,0,0-.44.11.5.5,0,0,0-.22.13.29.29,0,0,0-.07.18.32.32,0,0,0,.14.24,1,1,0,0,0,.56.16,1.1,1.1,0,0,0,.4-.08.82.82,0,0,0,.25-.16.41.41,0,0,0,.07-.15.42.42,0,0,1,.09-.16.19.19,0,0,1,.15,0,.26.26,0,0,1,.19.07.42.42,0,0,1,.07.27v.34a.48.48,0,0,1-.07.26.26.26,0,0,1-.19.07h-.1l-.11-.1A1.26,1.26,0,0,1,98.78,91.84Z" fill="#3f9f3a"/>
            <path d="M96,92.37h.51a.35.35,0,0,1,.26.07.25.25,0,0,1,.08.18.27.27,0,0,1-.08.19.41.41,0,0,1-.26.07H95.4a.41.41,0,0,1-.26-.07.26.26,0,0,1-.07-.19.23.23,0,0,1,.11-.21.53.53,0,0,1,.25,0l-1.16-2.29A.31.31,0,0,1,94,90a.27.27,0,0,1-.06-.17.26.26,0,0,1,.07-.19.48.48,0,0,1,.26-.07h.48a.41.41,0,0,1,.26.07.27.27,0,0,1,.08.19A.26.26,0,0,1,95,90a.34.34,0,0,1-.24.07l.59,1.16.6-1.16a.34.34,0,0,1-.24-.07.23.23,0,0,1-.08-.18.21.21,0,0,1,.08-.19.41.41,0,0,1,.26-.07h.46a.41.41,0,0,1,.26.07.27.27,0,0,1,.08.19.22.22,0,0,1-.07.17.3.3,0,0,1-.18.08l-.88,1.72Z" fill="#3f9f3a"/>
            <path d="M91.71,90.32a.24.24,0,0,1-.16.05.27.27,0,0,1-.22-.11.41.41,0,0,1,0-.22v-.13a.41.41,0,0,1,.07-.26.25.25,0,0,1,.18-.08h.16a1.6,1.6,0,0,1,.31-.1,1.93,1.93,0,0,1,.34,0,1.31,1.31,0,0,1,.81.24.53.53,0,0,1,.23.46.57.57,0,0,1-.2.44,1.49,1.49,0,0,1-.82.25,1.68,1.68,0,0,0-.54.11c-.09,0-.13.09-.13.16s0,.08.09.11a1,1,0,0,0,.54.11,1.21,1.21,0,0,0,.38,0A.76.76,0,0,0,93,91.2a.28.28,0,0,1,.09-.17.22.22,0,0,1,.16,0,.23.23,0,0,1,.18.08.35.35,0,0,1,.07.26v.17a.35.35,0,0,1-.07.26.27.27,0,0,1-.19.08h-.16a1.42,1.42,0,0,1-.35.11,1.34,1.34,0,0,1-.4,0,1.48,1.48,0,0,1-.89-.26.57.57,0,0,1-.14-.79l0,0a.8.8,0,0,1,.4-.27,4.13,4.13,0,0,1,.7-.14,1.37,1.37,0,0,0,.35-.08.12.12,0,0,0,.11-.11s0-.06-.08-.09a1,1,0,0,0-.47-.1H92.1a1.23,1.23,0,0,0-.26.12A.26.26,0,0,1,91.71,90.32Z" fill="#3f9f3a"/>
            <path d="M88.5,90.08a.42.42,0,0,1-.27-.07.24.24,0,0,1-.07-.18.26.26,0,0,1,.07-.19.42.42,0,0,1,.27-.07h.93v-.45a.41.41,0,0,1,.07-.26.23.23,0,0,1,.18-.08.21.21,0,0,1,.19.08.35.35,0,0,1,.07.26v.45h.18a.41.41,0,0,1,.26.07.21.21,0,0,1,.08.19.23.23,0,0,1-.08.18.35.35,0,0,1-.26.07h-.18V91.2a.65.65,0,0,1-.24.5,1,1,0,0,1-.7.2,2.11,2.11,0,0,1-.61-.1,1.09,1.09,0,0,1-.48-.21.22.22,0,0,1-.07-.17.24.24,0,0,1,.07-.18.21.21,0,0,1,.17-.08.48.48,0,0,1,.2.07,1.61,1.61,0,0,0,.72.16.59.59,0,0,0,.37-.08.26.26,0,0,0,.06-.21v-1Z" fill="#3f9f3a"/>
            <path d="M85,90.74a1,1,0,0,1,.08-.44,1.2,1.2,0,0,1,.29-.45,1.18,1.18,0,0,1,.39-.23,1.22,1.22,0,0,1,.56-.11,1.33,1.33,0,0,1,.91.33,1.08,1.08,0,0,1,.4.87,1.15,1.15,0,0,1-.37.85,1.35,1.35,0,0,1-1,.34,3.65,3.65,0,0,1-.74-.08,1.4,1.4,0,0,1-.48-.18.21.21,0,0,1-.08-.17.29.29,0,0,1,.07-.18.28.28,0,0,1,.17-.07h.27a3.17,3.17,0,0,0,.75.12,1.06,1.06,0,0,0,.55-.12.79.79,0,0,0,.28-.32H85Zm2.06-.29a.8.8,0,0,0-.3-.33,1,1,0,0,0-.9,0,.8.8,0,0,0-.3.33Z" fill="#3f9f3a"/>
            <path d="M84.5,89.57a.48.48,0,0,1,.26.07.26.26,0,0,1,.07.19.24.24,0,0,1-.07.18.34.34,0,0,1-.24.07v1.23a.34.34,0,0,1,.24.07.24.24,0,0,1,.07.18.26.26,0,0,1-.07.19.48.48,0,0,1-.26.07H84a.41.41,0,0,1-.26-.07.25.25,0,0,1-.08-.18.27.27,0,0,1,.08-.19.39.39,0,0,1,.23-.07v-1a1,1,0,0,0-.2-.22.3.3,0,0,0-.18-.06.15.15,0,0,0-.13,0,.22.22,0,0,0,0,.16v1.6H83a.41.41,0,0,1-.26-.07.23.23,0,0,1-.08-.18.21.21,0,0,1,.08-.19.39.39,0,0,1,.23-.07v-1a1.2,1.2,0,0,0-.22-.23h-.16a.15.15,0,0,0-.13,0,.22.22,0,0,0,0,.16v1.6H82a.41.41,0,0,1-.26-.07.25.25,0,0,1-.08-.18.27.27,0,0,1,.08-.19A.39.39,0,0,1,82,91.3V90.18a.62.62,0,0,1,.24-.52.77.77,0,0,1,.73-.1,1.2,1.2,0,0,1,.27.16.65.65,0,0,1,.21-.16.43.43,0,0,1,.22-.06.45.45,0,0,1,.23,0,.72.72,0,0,1,.22.17v-.15Z" fill="#3f9f3a"/>
            <path d="M79.91,91.32a.37.37,0,0,1,.28-.09.41.41,0,0,1,.28.09.37.37,0,0,1,.1.24.35.35,0,0,1-.1.24.37.37,0,0,1-.28.1.36.36,0,0,1-.28-.1.31.31,0,0,1-.1-.24A.35.35,0,0,1,79.91,91.32Z" fill="#3f9f3a"/>
            <path d="M76,90.14a1.12,1.12,0,0,1,.48-.46,1.42,1.42,0,0,1,.67-.17,1.37,1.37,0,0,1,.66.16,1.21,1.21,0,0,1,.48.47,1.12,1.12,0,0,1,.17.59,1.21,1.21,0,0,1-.16.58,1.28,1.28,0,0,1-.49.43,1.37,1.37,0,0,1-.66.16,1.44,1.44,0,0,1-.67-.16A1.2,1.2,0,0,1,76,91.3a1.1,1.1,0,0,1-.16-.56A1.15,1.15,0,0,1,76,90.14Zm.58,1a.9.9,0,0,0,1.14,0,.6.6,0,0,0,.23-.45.66.66,0,0,0-.23-.51.85.85,0,0,0-1.2.06.67.67,0,0,0-.18.45.58.58,0,0,0,.24.5Z" fill="#3f9f3a"/>
            <path d="M73.73,89.57a.41.41,0,0,1,.26.07.27.27,0,0,1,.08.19A.28.28,0,0,1,74,90a.35.35,0,0,1-.26.07h-.18v1a2.18,2.18,0,0,0,.43.22,1,1,0,0,0,.33.06.27.27,0,0,0,.32-.21.17.17,0,0,0,0-.1V89.57h.59a.41.41,0,0,1,.26.07.27.27,0,0,1,.08.19.25.25,0,0,1-.08.18.35.35,0,0,1-.26.07h-.08v1.09a.62.62,0,0,1-.08.33.81.81,0,0,1-.29.29.92.92,0,0,1-.43.11,1.58,1.58,0,0,1-.38-.05,1.56,1.56,0,0,1-.41-.15v.12h-.49a.41.41,0,0,1-.26-.07.24.24,0,0,1-.07-.18.26.26,0,0,1,.07-.19.4.4,0,0,1,.24-.07V89.57Z" fill="#3f9f3a"/>
            <path d="M70.27,90.08A.38.38,0,0,1,70,90a.24.24,0,0,1-.07-.18.26.26,0,0,1,.07-.19.42.42,0,0,1,.27-.07h.93v-.45a.41.41,0,0,1,.07-.26.23.23,0,0,1,.18-.08.21.21,0,0,1,.19.08.35.35,0,0,1,.07.26v.45h.18a.41.41,0,0,1,.26.07.27.27,0,0,1,.08.19.25.25,0,0,1-.08.18.35.35,0,0,1-.26.07h-.18V91.2a.65.65,0,0,1-.24.5,1.07,1.07,0,0,1-.71.2,2.43,2.43,0,0,1-.6-.1,1.09,1.09,0,0,1-.48-.21.22.22,0,0,1-.07-.17.24.24,0,0,1,.07-.18.21.21,0,0,1,.17-.08.48.48,0,0,1,.2.07,1.57,1.57,0,0,0,.71.16.56.56,0,0,0,.38-.08.26.26,0,0,0,.06-.21v-1Z" fill="#3f9f3a"/>
            <path d="M67.75,91.32a.48.48,0,0,1,.56,0,.35.35,0,0,1,.1.24.31.31,0,0,1-.1.24.45.45,0,0,1-.56,0,.35.35,0,0,1-.1-.24A.37.37,0,0,1,67.75,91.32Z" fill="#3f9f3a"/>
            <path d="M65.25,91.71a1.31,1.31,0,0,1-1.2-.22,1,1,0,0,1-.43-.82,1.05,1.05,0,0,1,.37-.81,1.2,1.2,0,0,1,.88-.35,1.32,1.32,0,0,1,.39.06,1.27,1.27,0,0,1,.37.18v-.18h.59a.41.41,0,0,1,.26.07.21.21,0,0,1,.08.19.23.23,0,0,1-.08.18.35.35,0,0,1-.26.07h-.08v2.29h.08a.35.35,0,0,1,.26.07.23.23,0,0,1,.08.18.21.21,0,0,1-.08.19.41.41,0,0,1-.26.07h-.89a.42.42,0,0,1-.27-.07.26.26,0,0,1-.07-.19.24.24,0,0,1,.07-.18.42.42,0,0,1,.27-.07h.3v-.83A1.84,1.84,0,0,1,65.25,91.71Zm-.91-.64a.76.76,0,0,0,.54.19.75.75,0,0,0,.53-.19.53.53,0,0,0,.22-.4.61.61,0,0,0-.15-.37.7.7,0,0,0-.6-.29.84.84,0,0,0-.41.11.77.77,0,0,0-.26.28.5.5,0,0,0-.08.27A.57.57,0,0,0,64.34,91.07Z" fill="#3f9f3a"/>
            <path d="M62.76,89.57a.41.41,0,0,1,.26.07.27.27,0,0,1,.08.19A.23.23,0,0,1,63,90a.35.35,0,0,1-.26.07h-.19V91.3h.31a.41.41,0,0,1,.26.07.24.24,0,0,1,.07.18.26.26,0,0,1-.07.19.48.48,0,0,1-.26.07H61.33a.42.42,0,0,1-.27-.07.24.24,0,0,1-.07-.18.26.26,0,0,1,.07-.19.42.42,0,0,1,.27-.07h.72v-.76a4.09,4.09,0,0,0-.53-.4A.71.71,0,0,0,61.2,90a.32.32,0,0,0-.18.1.34.34,0,0,1-.2.09.24.24,0,0,1-.18-.07.27.27,0,0,1-.08-.19.33.33,0,0,1,.16-.25.75.75,0,0,1,.48-.18.8.8,0,0,1,.34.07,3.3,3.3,0,0,1,.51.31v-.32Z" fill="#3f9f3a"/>
            <path d="M59.59,89.57a.41.41,0,0,1,.26.07.27.27,0,0,1,.08.19.25.25,0,0,1-.08.18.41.41,0,0,1-.26.07h-.41v1.23h.61a.35.35,0,0,1,.26.07.25.25,0,0,1,.08.18.27.27,0,0,1-.08.19.41.41,0,0,1-.26.07H58.06a.48.48,0,0,1-.26-.07.24.24,0,0,1-.07-.18.26.26,0,0,1,.07-.19.41.41,0,0,1,.26-.07h.61V89.57Zm-.24-1v.54h-.61v-.54Z" fill="#3f9f3a"/>
            <path d="M56.88,89.57a.41.41,0,0,1,.26.07.27.27,0,0,1,.08.19.25.25,0,0,1-.08.18.34.34,0,0,1-.24.07v1.23a.57.57,0,0,1,.26,0,.24.24,0,0,1,.12.21.27.27,0,0,1-.08.19.41.41,0,0,1-.26.07h-.58a.41.41,0,0,1-.26-.07.25.25,0,0,1,0-.35l.06,0a.53.53,0,0,1,.25,0v-.94a1.58,1.58,0,0,0-.34-.29.78.78,0,0,0-.3-.07.55.55,0,0,0-.35.1.3.3,0,0,0-.09.24v1a.34.34,0,0,1,.24.07.24.24,0,0,1,.07.18.21.21,0,0,1-.08.19.41.41,0,0,1-.26.07h-.45a.42.42,0,0,1-.27-.07.24.24,0,0,1-.07-.18.26.26,0,0,1,.07-.19.34.34,0,0,1,.24-.07v-.94a.79.79,0,0,1,.21-.58.89.89,0,0,1,.71-.28,1.13,1.13,0,0,1,.36.06.94.94,0,0,1,.31.17v-.17Z" fill="#3f9f3a"/>
            <path d="M52,90.08a.41.41,0,0,1-.26-.07.24.24,0,0,1-.07-.18.26.26,0,0,1,.07-.19.48.48,0,0,1,.26-.07h1v-.45a.35.35,0,0,1,.07-.26.23.23,0,0,1,.18-.08.21.21,0,0,1,.19.08.41.41,0,0,1,.07.26v.45h.18a.41.41,0,0,1,.26.07.27.27,0,0,1,.08.19A.25.25,0,0,1,54,90a.35.35,0,0,1-.26.07h-.18V91.2a.65.65,0,0,1-.24.5,1.07,1.07,0,0,1-.71.2,2.43,2.43,0,0,1-.6-.1,1.09,1.09,0,0,1-.48-.21.23.23,0,0,1-.08-.17.25.25,0,0,1,.08-.18.21.21,0,0,1,.17-.08.48.48,0,0,1,.2.07,1.57,1.57,0,0,0,.71.16.54.54,0,0,0,.37-.08A.47.47,0,0,0,53,91.1v-1Z" fill="#3f9f3a"/>
            <path d="M50.47,88.61a.41.41,0,0,1,.26.07.25.25,0,0,1,.08.18.27.27,0,0,1-.08.19.41.41,0,0,1-.26.07h-.41v2.19h.61a.35.35,0,0,1,.26.07.25.25,0,0,1,.08.18.27.27,0,0,1-.08.19.41.41,0,0,1-.26.07H49a.41.41,0,0,1-.26-.07.23.23,0,0,1-.08-.18.21.21,0,0,1,.08-.19.35.35,0,0,1,.26-.07h.6v-2.7Z" fill="#3f9f3a"/>
            <path d="M47.76,89.57a.42.42,0,0,1,.27.07.26.26,0,0,1,.07.19A.23.23,0,0,1,48,90a.34.34,0,0,1-.24.07V91.3a.53.53,0,0,1,.25,0,.24.24,0,0,1,.12.21.26.26,0,0,1-.07.19.42.42,0,0,1-.27.07h-.57A.41.41,0,0,1,47,91.7a.25.25,0,0,1-.08-.18A.24.24,0,0,1,47,91.3a.53.53,0,0,1,.25,0v-.94a1.32,1.32,0,0,0-.33-.29.67.67,0,0,0-.31-.07.55.55,0,0,0-.35.1.3.3,0,0,0-.09.24v1a.34.34,0,0,1,.24.07.25.25,0,0,1,.08.18.27.27,0,0,1-.08.19.41.41,0,0,1-.26.07h-.46a.41.41,0,0,1-.26-.07.25.25,0,0,1-.08-.18.27.27,0,0,1,.08-.19.34.34,0,0,1,.24-.07V90.4a.82.82,0,0,1,.2-.58,1,1,0,0,1,.72-.28,1.13,1.13,0,0,1,.36.06.9.9,0,0,1,.3.17V89.6Z" fill="#3f9f3a"/>
            <path d="M43.78,91.44a4.64,4.64,0,0,1-.32.72,1.7,1.7,0,0,1-.27.39.23.23,0,0,1-.16.06.29.29,0,0,1-.18-.07.24.24,0,0,1-.07-.18.27.27,0,0,1,.06-.17,4.71,4.71,0,0,0,.38-.82,2.41,2.41,0,0,0,0-1.56,4.07,4.07,0,0,0-.38-.82.35.35,0,0,1-.06-.17.24.24,0,0,1,.23-.25h0a.27.27,0,0,1,.17.06,2.16,2.16,0,0,1,.24.35,4.8,4.8,0,0,1,.33.73,2.89,2.89,0,0,1,.14.88A2.74,2.74,0,0,1,43.78,91.44Z" fill="#3f9f3a"/>
            <path d="M41.81,88.7l-.76,1.22a.18.18,0,0,1-.14.1.21.21,0,0,1-.11,0,.17.17,0,0,1,0-.1v-.1l.44-1.08Zm-1.06,0L40,89.92c0,.07-.08.1-.13.1a.21.21,0,0,1-.11,0,.17.17,0,0,1,0-.1v-.1l.44-1.08Z" fill="#ef4c4d"/>
            <path d="M37.13,90.67v.64h.18a.42.42,0,0,1,.27.07.26.26,0,0,1,.07.19.24.24,0,0,1-.07.18.42.42,0,0,1-.27.07h-.76a.42.42,0,0,1-.27-.07.26.26,0,0,1-.07-.19.23.23,0,0,1,.08-.18.35.35,0,0,1,.26-.07h.07v-2h-.07a.42.42,0,0,1-.27-.07.26.26,0,0,1-.07-.19.24.24,0,0,1,.07-.18.42.42,0,0,1,.27-.07h1.14a1.19,1.19,0,0,1,.83.27.83.83,0,0,1,.3.64.77.77,0,0,1-.14.44,1.26,1.26,0,0,1-.42.34,2.38,2.38,0,0,1,.35.36c.07.1.18.24.3.44a.57.57,0,0,1,.26,0,.26.26,0,0,1,0,.37l0,0a.41.41,0,0,1-.26.07h-.29a3.26,3.26,0,0,0-1-1.15Zm0-.5h.4a1.34,1.34,0,0,0,.39-.07.63.63,0,0,0,.31-.19.27.27,0,0,0,.08-.19.33.33,0,0,0-.15-.27.71.71,0,0,0-.45-.12h-.58Z" fill="#ef4c4d"/>
            <path d="M32.13,89.5a.57.57,0,0,0-.34-.08h-.44a.82.82,0,0,1-.61-.16.65.65,0,0,1-.14-.44.27.27,0,0,1,.08-.19.23.23,0,0,1,.18-.08.27.27,0,0,1,.19.08.29.29,0,0,1,.07.22V89h.64a1,1,0,0,1,.59.15.83.83,0,0,1,.32.4,2.8,2.8,0,0,1,.11,1,1.8,1.8,0,0,1-.14.76,1.07,1.07,0,0,1-.43.44,1.35,1.35,0,0,1-.68.17,1.26,1.26,0,0,1-.89-.33,1.05,1.05,0,0,1-.36-.8A1.15,1.15,0,0,1,30.6,90a1.11,1.11,0,0,1,.86-.33,1.19,1.19,0,0,1,.75.23A.54.54,0,0,0,32.13,89.5Zm0,.79a.65.65,0,0,0-.54-.21.69.69,0,0,0-.53.2.66.66,0,0,0,0,.92h0a.8.8,0,0,0,1.06,0,.66.66,0,0,0,.19-.46.68.68,0,0,0-.19-.45Z" fill="#ef4c4d"/>
            <path d="M28.78,89.83a.22.22,0,0,1,.09-.2.63.63,0,0,1,.33-.06h.33a.66.66,0,0,1,.34.06.22.22,0,0,1,.08.2c0,.17-.11.25-.34.25l-.82,1.48.1.18c.09.16.18.24.25.24h0a.58.58,0,0,1,0-.32.2.2,0,0,1,.19-.09.24.24,0,0,1,.21.08.59.59,0,0,1,.06.32v.27a.33.33,0,0,1,0,.14.5.5,0,0,1-.2.08,1.5,1.5,0,0,1-.3,0,.86.86,0,0,1-.7-.53L27.34,90c-.22,0-.33-.08-.33-.25a.22.22,0,0,1,.09-.2.66.66,0,0,1,.34-.06h.31a.63.63,0,0,1,.33.06.22.22,0,0,1,.09.2c0,.14-.08.22-.25.25l.53,1L29,90C28.86,90.05,28.78,90,28.78,89.83Z" fill="#ef4c4d"/>
            <path d="M24.66,92c0,.25-.09.38-.26.38a.2.2,0,0,1-.19-.09.63.63,0,0,1-.06-.33v-.27a1.13,1.13,0,0,1,0-.26.17.17,0,0,1,.09-.11.49.49,0,0,1,.24,0V90.08c-.23,0-.35-.08-.35-.25a.22.22,0,0,1,.09-.2.63.63,0,0,1,.33-.06h1.56a.63.63,0,0,1,.33.06.22.22,0,0,1,.09.2c0,.17-.12.25-.35.25h-.07v.64a.47.47,0,0,0,.28.59.48.48,0,0,0,.29,0h.15V92a.91.91,0,0,1,0,.33q0,.09-.21.09a.21.21,0,0,1-.19-.09.56.56,0,0,1-.06-.31v-.2H24.66ZM25,90v1.23h.78a1,1,0,0,1-.15-.59V90Z" fill="#ef4c4d"/>
            <path d="M22.7,89.83a.22.22,0,0,1,.09-.2.66.66,0,0,1,.34-.06h.32a.66.66,0,0,1,.34.06.22.22,0,0,1,.09.2c0,.17-.12.25-.34.25l-.82,1.48.1.18q.13.24.24.24h0a.7.7,0,0,1,.05-.32.21.21,0,0,1,.19-.09c.11,0,.18,0,.21.08a.59.59,0,0,1,.06.32v.27a.17.17,0,0,1,0,.14.5.5,0,0,1-.2.08,1.5,1.5,0,0,1-.3,0c-.27,0-.5-.18-.7-.53L21.31,90C21.1,90,21,90,21,89.79a.22.22,0,0,1,.09-.2.63.63,0,0,1,.33-.06h.31a.66.66,0,0,1,.34.06.22.22,0,0,1,.08.2c0,.14-.08.22-.25.25l.54,1L23,90C22.79,90.05,22.7,90,22.7,89.83Z" fill="#ef4c4d"/>
            <path d="M15.14,89.33a.42.42,0,0,1-.27-.07.26.26,0,0,1-.07-.19.24.24,0,0,1,.07-.18.42.42,0,0,1,.27-.07h1.41a.42.42,0,0,1,.27.07.24.24,0,0,1,.07.18.26.26,0,0,1-.07.19.42.42,0,0,1-.27.07h-.61V90.8A.66.66,0,0,0,16,91a.59.59,0,0,0,.1.17.38.38,0,0,0,.21.14.52.52,0,0,0,.27.07,1.43,1.43,0,0,0,.6-.17v-.5a.35.35,0,0,1,.07-.26.24.24,0,0,1,.36,0,.35.35,0,0,1,.07.26v.84a2.72,2.72,0,0,1-1.08.33,1.2,1.2,0,0,1-.59-.15,1,1,0,0,1-.43-.42.91.91,0,0,1-.1-.46V89.33Z" fill="#ef4c4d"/>
            <path d="M12.3,91.82a.41.41,0,0,1-.26-.07.23.23,0,0,1-.08-.18.21.21,0,0,1,.08-.19.35.35,0,0,1,.26-.07h.08v-1a.67.67,0,0,1,.26-.56,1.15,1.15,0,0,1,.74-.2h.35l.38.08.19.07a.23.23,0,0,1,.07.07.21.21,0,0,1,0,.11.26.26,0,0,1-.07.19.22.22,0,0,1-.17.07h-.21a2.8,2.8,0,0,0-.58-.09.67.67,0,0,0-.37.08.2.2,0,0,0-.1.18v.12a4.69,4.69,0,0,1,.53,0,1.34,1.34,0,0,1,.9.28.74.74,0,0,1,.33.59.65.65,0,0,1-.26.48,1,1,0,0,1-.66.21,1.94,1.94,0,0,1-.84-.2v.12Zm.59-.69a1.77,1.77,0,0,0,.83.27.58.58,0,0,0,.34-.09.13.13,0,0,0,.06-.11c0-.07,0-.13-.14-.2a.91.91,0,0,0-.53-.15,2.6,2.6,0,0,0-.56.06Z" fill="#ef4c4d"/>
            <path d="M10.86,90.08a.62.62,0,0,1-.27,0,.24.24,0,0,1-.12-.21.27.27,0,0,1,.08-.19.41.41,0,0,1,.26-.07h.68a.41.41,0,0,1,.26.07.27.27,0,0,1,.08.19.25.25,0,0,1-.08.18.35.35,0,0,1-.26.07h-.07l-.85,1.74H10l-.85-1.74H9.07a.35.35,0,0,1-.26-.07.25.25,0,0,1-.08-.18.27.27,0,0,1,.08-.19.41.41,0,0,1,.26-.07h.69a.41.41,0,0,1,.26.07.21.21,0,0,1,.08.19.25.25,0,0,1-.12.22.57.57,0,0,1-.26,0l.54,1.12Z" fill="#ef4c4d"/>
            <path d="M6.22,91.82A.41.41,0,0,1,6,91.75a.25.25,0,0,1-.08-.18A.27.27,0,0,1,6,91.38a.35.35,0,0,1,.26-.07h.09v-1a.67.67,0,0,1,.26-.56,1.11,1.11,0,0,1,.73-.2h.35l.39.08.18.07a.23.23,0,0,1,.07.07.21.21,0,0,1,0,.11.26.26,0,0,1-.07.19.24.24,0,0,1-.18.07h-.2a2.9,2.9,0,0,0-.59-.09.67.67,0,0,0-.37.08.22.22,0,0,0-.1.18v.12a4.86,4.86,0,0,1,.54,0,1.3,1.3,0,0,1,.89.28.74.74,0,0,1,.33.59.65.65,0,0,1-.26.48,1,1,0,0,1-.66.21,2,2,0,0,1-.42,0,1.5,1.5,0,0,1-.42-.15v.12Zm.59-.69a1.89,1.89,0,0,0,.83.27A.52.52,0,0,0,8,91.31a.12.12,0,0,0,.07-.11c0-.07,0-.13-.14-.2a1,1,0,0,0-.53-.15,2.76,2.76,0,0,0-.57.06Z" fill="#ef4c4d"/>
            <path d="M3.17,90.15H5.29v.46H3.17Z" fill="#ef4c4d"/>
            <path d="M.65,91.31H.73c.23,0,.34.09.34.25s-.11.26-.34.26H.11c-.22,0-.34-.09-.34-.26a.21.21,0,0,1,.09-.19.49.49,0,0,1,.29-.06V90.08a.24.24,0,0,1-.27-.25c0-.15.11-.26.34-.26h2c.23,0,.34.09.34.26s-.09.24-.27.25v1.23a.49.49,0,0,1,.29.06.21.21,0,0,1,.09.19c0,.17-.12.26-.34.26H1.71c-.23,0-.34-.09-.34-.26s.11-.25.34-.25h.08V90.08H.65Z" fill="#ef4c4d"/>
            <path d="M101.7,96.86a1.61,1.61,0,0,1,0,.31V98a.2.2,0,0,0,0,.15.17.17,0,0,0,.14,0,.26.26,0,0,1,.17.09.22.22,0,0,1,.07.17.25.25,0,0,1-.08.18.27.27,0,0,1-.19.08.63.63,0,0,1-.46-.2.67.67,0,0,1-.2-.48V97.1a.19.19,0,0,0,0-.15.33.33,0,0,0-.14,0,.21.21,0,0,1-.17-.08.27.27,0,0,1-.06-.17.23.23,0,0,1,.06-.18.21.21,0,0,1,.17-.08.16.16,0,0,0,.19-.1.31.31,0,0,0,0-.1v-.85a.59.59,0,0,1,.07-.29.75.75,0,0,1,.27-.29.62.62,0,0,1,.32-.09.27.27,0,0,1,.19.08.25.25,0,0,1,.08.18.22.22,0,0,1-.07.17.21.21,0,0,1-.17.08.2.2,0,0,0-.14.06.17.17,0,0,0,0,.14v.81a1.13,1.13,0,0,1,0,.26.82.82,0,0,1-.12.2A.48.48,0,0,1,101.7,96.86Z" fill="#fff"/>
            <path d="M104.74,102.94a1.61,1.61,0,0,1,0,.31v.8a.19.19,0,0,0,0,.15h.14a.3.3,0,0,1,.17.08.28.28,0,0,1,.07.17.27.27,0,0,1-.08.19.26.26,0,0,1-.19.07.68.68,0,0,1-.66-.67v-.89a.22.22,0,0,0,0-.16h-.14a.26.26,0,0,1,0-.52.2.2,0,0,0,.15,0,.38.38,0,0,0,0-.15v-.84a.67.67,0,0,1,.34-.58.62.62,0,0,1,.32-.09.26.26,0,0,1,.19.07.27.27,0,0,1,.08.19.28.28,0,0,1-.07.17.3.3,0,0,1-.17.08h-.14a.2.2,0,0,0,0,.15v.8a.57.57,0,0,1,0,.26.56.56,0,0,1-.11.2A.51.51,0,0,1,104.74,102.94Z" fill="#3f9f3a"/>
            <path d="M101.22,101a.2.2,0,0,1,.09-.13.24.24,0,0,1,.3,0,.2.2,0,0,1,.09.13,1.61,1.61,0,0,1,0,.31v3a1.61,1.61,0,0,1,0,.31.2.2,0,0,1-.09.13.24.24,0,0,1-.3,0,.2.2,0,0,1-.09-.13,1.61,1.61,0,0,1,0-.31v-3A1.61,1.61,0,0,1,101.22,101Z" fill="#fff"/>
          </g>
        </g>
      </g>
      <g opacity="0.3">
        <g clip-path="url(#5382a104-b6d6-486b-bea1-9ed42812faa8)">
          <g>
            <path d="M39.29,82.63v3.56c0,.57.8,1,1.14.67L51.37,75.18a.44.44,0,0,0,.11-.29V71.33c0-.57-.79-1-1.13-.67l-11,11.68A.43.43,0,0,0,39.29,82.63Z" fill="#fff" opacity="0.82" style="isolation: isolate"/>
            <path d="M89.3,82.79l-.11,3.42c0,.55.72,1,1.06.6l10.91-11.68a.45.45,0,0,0,.12-.29l.1-3.42c0-.55-.72-1-1.06-.6L89.41,82.5A.44.44,0,0,0,89.3,82.79Z" fill="#fff" opacity="0.82" style="isolation: isolate"/>
            <path d="M39.6,76.64l-.56,3a.47.47,0,0,0,.39.54.5.5,0,0,0,.43-.16L50.77,68.34a.59.59,0,0,0,.14-.27l.56-3a.47.47,0,0,0-.83-.38L39.73,76.37A.46.46,0,0,0,39.6,76.64Z" fill="#fff" opacity="0.82" style="isolation: isolate"/>
            <path d="M26.92,103.2l-.56,3a.47.47,0,0,0,.83.37L38.1,94.91a.59.59,0,0,0,.14-.27l.56-3a.47.47,0,0,0-.83-.38L27.06,102.94A.51.51,0,0,0,26.92,103.2Z" fill="#fff" opacity="0.82" style="isolation: isolate"/>
            <path d="M76.94,103.14l-.56,3a.47.47,0,0,0,.39.54.5.5,0,0,0,.43-.16L88.12,94.84a.57.57,0,0,0,.13-.27l.56-3a.47.47,0,0,0-.83-.38L77.07,102.87A.57.57,0,0,0,76.94,103.14Z" fill="#fff" opacity="0.82" style="isolation: isolate"/>
            <path d="M89.7,76.84,89,79.75c-.1.47.44.7.78.33l10.91-11.67a.59.59,0,0,0,.14-.27l.66-2.91c.1-.47-.44-.7-.78-.33L89.84,76.58A.51.51,0,0,0,89.7,76.84Z" fill="#fff" opacity="0.82" style="isolation: isolate"/>
          </g>
        </g>
      </g>
      <path d="M110.17,71h0c-1.86-.38-6.94-1.41-9.78-1.83a77.3,77.3,0,0,0-10.85-.87h-.1a54.62,54.62,0,0,0-10.67,1C75.33,70,72,71,68.54,71.72a31.14,31.14,0,0,1-5.69.68,31.14,31.14,0,0,1-5.69-.68C53.72,71,50.37,70,46.93,69.3a54.62,54.62,0,0,0-10.67-1h-.1a77.3,77.3,0,0,0-10.85.87c-2.84.42-7.92,1.45-9.78,1.83h0c.19,1.46.42,2.94.66,4.38,1,5.94,2.14,11.26,2.27,11.88a20.59,20.59,0,0,0,9.76,13.35,20.09,20.09,0,0,0,9.48,2.57h1.41A20.22,20.22,0,0,0,47.46,101a19.89,19.89,0,0,0,4.23-2.94,21,21,0,0,0,5-6.8,27,27,0,0,0,1.88-7.06c.3-1.9.85-4.13,2.5-5.33a3.06,3.06,0,0,1,3.66,0c1.65,1.2,2.2,3.43,2.5,5.33a27,27,0,0,0,1.88,7.06,21,21,0,0,0,5,6.8A19.89,19.89,0,0,0,78.34,101a20.23,20.23,0,0,0,8.35,2.15H88.1a20.09,20.09,0,0,0,9.48-2.57,20.59,20.59,0,0,0,9.76-13.35c.14-.62,1.3-5.94,2.27-11.88.24-1.44.47-2.92.66-4.38ZM70.1,79.2c-.21-4.28,10.57-6.73,20.13-6.71,7.43,0,14.1,1.56,14.26,4.89C104.85,85,102.27,99,87.85,99.66,79.9,100,70.81,94.06,70.1,79.2ZM21.21,77.38c.16-3.33,6.83-4.86,14.26-4.89,9.56,0,20.34,2.43,20.13,6.71-.71,14.86-9.8,20.8-17.75,20.46C23.43,99,20.85,85,21.21,77.38Z" fill="#24ad87"/>
    </g>
  </g>
</svg>
