<svg xmlns="http://www.w3.org/2000/svg" viewBox="0 0 624.33 420.23"><defs><style>.cls-1{fill:#e3e8f6;}.cls-2{fill:#1e1e1e;}.cls-3{fill:#5a5c7a;}.cls-4{fill:#8291b8;}.cls-5{fill:#40ab47;}.cls-6{fill:#fff;}.cls-7{fill:#fd7341;}.cls-8{fill:#f14f4c;}.cls-9{fill:#39b4ea;}</style></defs><title>Ресурс 1</title><g id="Слой_2" data-name="Слой 2"><g id="BACKGROUND"><rect class="cls-1" x="51.19" width="523.45" height="330.76" rx="21.74" ry="21.74"/><path class="cls-2" d="M168.75-91.88H457.09a16.74,16.74,0,0,1,16.74,16.74v481a16.74,16.74,0,0,1-16.74,16.74H168.75A16.75,16.75,0,0,1,152,405.9v-481A16.74,16.74,0,0,1,168.75-91.88Z" transform="translate(478.3 -147.54) rotate(90)"/><rect class="cls-3" x="169.88" y="-74" width="286.08" height="478.77" transform="translate(478.3 -147.54) rotate(90)"/><path class="cls-1" d="M623.55,397.89l-67.91-67.22-243.47.09-243.48-.09L.78,397.89A23,23,0,0,0,7,420.23H617.29A23,23,0,0,0,623.55,397.89Z"/><path class="cls-4" d="M623.55,397.89l-2.19-2.17a21.94,21.94,0,0,1-4.07,5.3H7A21.94,21.94,0,0,1,3,395.72L.78,397.89A23,23,0,0,0,7,420.23H617.29A23,23,0,0,0,623.55,397.89Z"/><polygon class="cls-3" points="561.11 375.45 62.15 375.45 95.51 338.61 528.05 338.61 561.11 375.45"/><path class="cls-1" d="M358.38,408H264.73a6.14,6.14,0,0,1-6.12-6.13h0a6.14,6.14,0,0,1,6.12-6.13h93.65a6.15,6.15,0,0,1,6.13,6.13h0A6.15,6.15,0,0,1,358.38,408Z"/><rect class="cls-5" x="98.64" y="45.03" width="89.02" height="6.64" rx="3.32" ry="3.32"/><rect class="cls-5" x="98.64" y="78.47" width="89.02" height="6.64" rx="3.32" ry="3.32"/><rect class="cls-6" x="196.42" y="78.47" width="105.31" height="6.64" rx="3.32" ry="3.32"/><rect class="cls-6" x="98.64" y="61.75" width="93.76" height="6.64" rx="3.32" ry="3.32"/><rect class="cls-7" x="201.16" y="61.75" width="53.04" height="6.64" rx="3.32" ry="3.32"/><rect class="cls-5" x="98.64" y="162.06" width="150.39" height="6.64" rx="3.32" ry="3.32"/><rect class="cls-5" x="98.64" y="262.37" width="150.39" height="6.64" rx="3.32" ry="3.32"/><rect class="cls-8" x="196.42" y="178.78" width="76.87" height="6.64" rx="3.32" ry="3.32"/><rect class="cls-6" x="98.64" y="145.34" width="112.73" height="6.64" rx="3.32" ry="3.32"/><rect class="cls-7" x="220.13" y="145.34" width="53.04" height="6.64" rx="3.32" ry="3.32"/><rect class="cls-9" x="98.64" y="95.19" width="130.61" height="6.64" rx="3.32" ry="3.32"/><rect class="cls-7" x="98.64" y="128.63" width="89.02" height="6.64" rx="3.32" ry="3.32"/><rect class="cls-6" x="291.42" y="111.91" width="105.31" height="6.64" rx="3.32" ry="3.32"/><rect class="cls-6" x="98.64" y="111.91" width="122.21" height="6.64" rx="3.32" ry="3.32"/><rect class="cls-6" x="229.61" y="111.91" width="53.04" height="6.64" rx="3.32" ry="3.32"/><rect class="cls-6" x="230.08" y="279.09" width="105.31" height="6.64" rx="3.32" ry="3.32"/><rect class="cls-6" x="98.64" y="279.09" width="122.21" height="6.64" rx="3.32" ry="3.32"/><rect class="cls-7" x="98.64" y="178.78" width="89.02" height="6.64" rx="3.32" ry="3.32"/><rect class="cls-5" x="98.64" y="212.22" width="89.02" height="6.64" rx="3.32" ry="3.32"/><rect class="cls-8" x="238.02" y="228.94" width="105.31" height="6.64" rx="3.32" ry="3.32"/><rect class="cls-6" x="98.64" y="195.5" width="93.76" height="6.64" rx="3.32" ry="3.32"/><rect class="cls-7" x="196.42" y="212.22" width="53.04" height="6.64" rx="3.32" ry="3.32"/><rect class="cls-9" x="98.64" y="228.94" width="130.61" height="6.64" rx="3.32" ry="3.32"/><rect class="cls-6" x="98.64" y="245.66" width="122.21" height="6.64" rx="3.32" ry="3.32"/><rect class="cls-7" x="229.61" y="245.66" width="53.04" height="6.64" rx="3.32" ry="3.32"/></g></g></svg>