<svg xmlns="http://www.w3.org/2000/svg" viewBox="0 0 251.69 180.46"><defs><style>.cls-1{isolation:isolate;}.cls-2{fill:#c6cfe1;}.cls-3{fill:#e3eaf8;}.cls-12,.cls-4{fill:#aeb8d2;}.cls-5{fill:#c8ccd9;}.cls-6{fill:#7e8499;}.cls-7{fill:#595c7c;}.cls-8{fill:#7d93bc;}.cls-9{fill:#eef1f9;}.cls-10{fill:#4f51a8;}.cls-11{fill:#00c3ff;}.cls-12{opacity:0.75;mix-blend-mode:multiply;}.cls-13{fill:#f1464f;}</style></defs><title>Ресурс 1</title><g class="cls-1"><g id="Слой_2" data-name="Слой 2"><g id="Слой_1-2" data-name="Слой 1"><rect class="cls-2" x="61.78" y="8.08" width="32.67" height="12.52"/><path class="cls-3" d="M94.46,8.06a20.6,20.6,0,0,0-32.69,0Z"/><rect class="cls-4" x="67.6" y="8.08" width="2.87" height="12.53"/><rect class="cls-4" x="85.76" y="8.08" width="2.87" height="12.53"/><rect class="cls-4" x="76.68" y="8.08" width="2.87" height="12.53"/><path class="cls-5" d="M78.12,8.07H94.46A20.55,20.55,0,0,0,78.12,0Z"/><rect class="cls-3" x="166.38" y="39.1" width="49.41" height="8.5" rx="4.25" ry="4.25"/><rect class="cls-3" x="166.38" y="159.04" width="49.41" height="8.5" rx="4.25" ry="4.25"/><rect class="cls-3" x="181.53" y="69.09" width="59.62" height="8.5" rx="4.25" ry="4.25"/><rect class="cls-3" x="181.53" y="129.06" width="59.62" height="8.5" rx="4.25" ry="4.25"/><rect class="cls-3" x="185.98" y="99.07" width="65.71" height="8.5" rx="4.25" ry="4.25"/><rect class="cls-6" x="67.6" y="20.6" width="21.03" height="5.03"/><rect class="cls-2" x="120.14" y="30.34" width="13.92" height="12.08" transform="translate(43.85 -66.32) rotate(35)"/><rect class="cls-4" x="126.13" y="32.23" width="7.34" height="12.08" transform="matrix(0.82, 0.57, -0.57, 0.82, 45.42, -67.53)"/><rect class="cls-3" x="25.09" y="30.34" width="13.92" height="12.08" transform="translate(79.16 47.8) rotate(145)"/><rect class="cls-2" x="25.68" y="32.23" width="7.34" height="12.08" transform="translate(75.34 52.78) rotate(145)"/><path class="cls-3" d="M22.88,47.1a78.12,78.12,0,0,0,0,110.48L133.35,47.1A78.11,78.11,0,0,0,22.88,47.1Z"/><path class="cls-7" d="M133.35,157.58a78.12,78.12,0,0,0,0-110.48L22.88,157.58A78.12,78.12,0,0,0,133.35,157.58Z"/><circle class="cls-8" cx="78.12" cy="102.34" r="68.83"/><circle class="cls-9" cx="78.12" cy="102.34" r="62.24"/><rect class="cls-10" x="119.88" y="100.32" width="12.23" height="4.03" rx="2.02" ry="2.02"/><rect class="cls-10" x="24.13" y="100.32" width="12.23" height="4.03" rx="2.02" ry="2.02"/><rect class="cls-10" x="72" y="52.45" width="12.23" height="4.03" rx="2.02" ry="2.02" transform="translate(23.65 132.58) rotate(-90)"/><rect class="cls-10" x="72" y="148.2" width="12.23" height="4.03" rx="2.02" ry="2.02" transform="translate(-72.1 228.33) rotate(-90)"/><rect class="cls-11" x="38.15" y="66.47" width="12.23" height="4.03" rx="2.02" ry="2.02" transform="translate(27.14 148.21) rotate(-135)"/><rect class="cls-11" x="105.86" y="134.18" width="12.23" height="4.03" rx="2.02" ry="2.02" transform="translate(94.84 311.67) rotate(-135)"/><rect class="cls-11" x="105.86" y="66.47" width="12.23" height="4.03" rx="2.02" ry="2.02" transform="translate(-15.63 99.23) rotate(-45)"/><rect class="cls-11" x="38.15" y="134.18" width="12.23" height="4.03" rx="2.02" ry="2.02" transform="translate(-83.34 71.19) rotate(-45)"/><path class="cls-12" d="M22.69,111.33A59.33,59.33,0,0,1,133,81,59.2,59.2,0,1,0,27,133.61,59.16,59.16,0,0,1,22.69,111.33Z"/><path class="cls-13" d="M46.44,103.75l1.41-1.41-1.41-1.41V93.65l1.41-1.41,1.42,1.41v7.28l-1.42,1.41,1.42,1.41V111l-1.42,1.41L46.44,111Zm3.08-13.17H57L58.42,92,57,93.4H49.52L48.11,92Zm0,20.7H57l1.41,1.41L57,114.1H49.49l-1.38-1.41Zm7.74-7.53,1.41-1.41L57.26,101V93.65l1.41-1.41,1.42,1.41v7.28l-1.42,1.41,1.42,1.41V111l-1.42,1.41L57.26,111Z"/><path class="cls-13" d="M62.91,103.75l1.41-1.41-1.41-1.41V93.65l1.41-1.41,1.41,1.41v7.28l-1.41,1.41,1.41,1.41V111l-1.41,1.41L62.91,111ZM66,90.58h7.5L74.89,92,73.48,93.4H66L64.57,92Zm0,20.7h7.5l1.41,1.41-1.41,1.41H66l-1.38-1.41Zm7.75-7.53,1.41-1.41L73.73,101V93.65l1.41-1.41,1.41,1.41v7.28l-1.41,1.41,1.41,1.41V111l-1.41,1.41L73.73,111Z"/><path class="cls-13" d="M80.78,100l1.41,1.41v1.88l-1.41,1.41-1.41-1.41V101.4Zm0,14.11-1.41-1.41v-1.88l1.41-1.42,1.41,1.42v1.88Z"/><path class="cls-13" d="M85,103.75l1.41-1.41L85,100.93V93.65l1.41-1.41,1.41,1.41v7.28l-1.41,1.41,1.41,1.41V111l-1.41,1.41L85,111Zm3.07-13.17h7.49L97,92,95.58,93.4H88.09L86.68,92Zm0,20.7h7.49L97,112.69l-1.42,1.41H88.06l-1.38-1.41Zm7.75-7.53,1.41-1.41L95.84,101V93.65l1.41-1.41,1.41,1.41v7.28l-1.41,1.41,1.41,1.41V111l-1.41,1.41L95.84,111Z"/><polyline class="cls-13" points="109.79 103.75 109.79 112.69 108.38 114.1 106.97 112.69 106.97 103.75 108.38 102.34"/><polyline class="cls-13" points="109.79 91.99 109.79 100.93 108.38 102.34 106.97 100.93 106.97 91.99 108.38 90.58"/></g></g></g></svg>