<svg xmlns="http://www.w3.org/2000/svg" xmlns:xlink="http://www.w3.org/1999/xlink" viewBox="0 0 286.67 134.92"><defs><style>.cls-1{fill:#eef1f9;}.cls-2{fill:#aeb8d2;}.cls-3{fill:url(#Безымянный_градиент_37);}.cls-4{fill:url(#Безымянный_градиент_37-2);}.cls-5{fill:url(#Безымянный_градиент_37-3);}.cls-6{fill:url(#Безымянный_градиент_37-4);}.cls-7{fill:#e1320d;}.cls-8{fill:#596271;}.cls-9{fill:#4e5561;}.cls-10{fill:#c6cfe1;}.cls-11{fill:#8e96a8;}.cls-12{fill:#00c3ff;}.cls-13{fill:#4f51a8;}.cls-14{fill:#ff5050;}.cls-15{fill:#a8a8a8;}</style><linearGradient id="Безымянный_градиент_37" x1="-327.97" y1="-718.88" x2="-273.08" y2="-718.88" gradientTransform="translate(406.3 796.55)" gradientUnits="userSpaceOnUse"><stop offset="0" stop-color="#f96a2b"/><stop offset="1" stop-color="#fd3b15"/></linearGradient><linearGradient id="Безымянный_градиент_37-2" x1="-322.02" y1="-729.41" x2="-279.03" y2="-729.41" gradientTransform="translate(415.87 802.7)" xlink:href="#Безымянный_градиент_37"/><linearGradient id="Безымянный_градиент_37-3" x1="-326.12" y1="874.34" x2="-271.23" y2="874.34" gradientTransform="matrix(1, 0, 0, -1, 343.58, 981.89)" xlink:href="#Безымянный_градиент_37"/><linearGradient id="Безымянный_градиент_37-4" x1="-320.17" y1="863.82" x2="-277.18" y2="863.82" gradientTransform="matrix(1, 0, 0, -1, 334.01, 975.74)" xlink:href="#Безымянный_градиент_37"/></defs><title>Ресурс 1</title><g id="Слой_2" data-name="Слой 2"><g id="Слой_1-2" data-name="Слой 1"><path class="cls-1" d="M23.85,119.88l-2-4.47a1.42,1.42,0,0,1,.7-1.88L124,65.06a1.42,1.42,0,0,1,1.88.7l2,4.47a1.42,1.42,0,0,1-.69,1.88L25.73,120.58A1.43,1.43,0,0,1,23.85,119.88Z"/><path class="cls-2" d="M127.93,70.23l-1-2.23L22.83,117.65l1,2.23a1.43,1.43,0,0,0,1.88.7L127.24,72.11A1.42,1.42,0,0,0,127.93,70.23Z"/><rect class="cls-3" x="78.33" y="70.74" width="54.89" height="13.85" rx="1.42" ry="1.42" transform="translate(132.4 -50.83) rotate(65.42)"/><rect class="cls-4" x="93.85" y="67.86" width="43" height="10.85" rx="1.11" ry="1.11" transform="translate(134.01 -62.09) rotate(65.42)"/><rect class="cls-5" x="17.47" y="100.62" width="54.89" height="13.85" rx="1.42" ry="1.42" transform="translate(124.03 21.97) rotate(65.42)"/><rect class="cls-6" x="13.84" y="106.5" width="43" height="10.85" rx="1.11" ry="1.11" transform="translate(122.42 33.23) rotate(65.42)"/><rect class="cls-7" x="91.67" y="73.08" width="43" height="2.41" transform="translate(133.64 -59.53) rotate(65.42)"/><rect class="cls-7" x="16.02" y="109.72" width="43" height="2.41" transform="translate(122.78 30.67) rotate(65.42)"/><path class="cls-8" d="M153.27,126.06l16.86-25.84a3.86,3.86,0,0,1,6.48,0l16.85,25.84a3.87,3.87,0,0,1-3.24,6h-33.7A3.88,3.88,0,0,1,153.27,126.06Z"/><path class="cls-9" d="M173.06,115.25a16.73,16.73,0,0,0,10.79-3.93l-7.24-11.1a3.86,3.86,0,0,0-6.48,0l-7.45,11.42A16.63,16.63,0,0,0,173.06,115.25Z"/><path class="cls-10" d="M77.49,120.57a3,3,0,0,1-.78-5.9l190.36-51a3,3,0,0,1,1.55,5.8l-190.35,51A3,3,0,0,1,77.49,120.57Z"/><path class="cls-11" d="M74.64,118.48a3,3,0,0,0,3.63,2l190.35-51a3,3,0,0,0,2.14-3.54Z"/><path class="cls-12" d="M256,26.63,198.73,42l-.78-2.9L255.2,23.74a10.55,10.55,0,0,0-5.47-20.38L192.47,18.75l-.77-2.9L249,.47a13.54,13.54,0,1,1,7,26.16Z"/><path class="cls-2" d="M197.94,47.41a14.33,14.33,0,0,0,7.44,27.68l78.09-21A26.18,26.18,0,0,1,276,26.42Z"/><path class="cls-1" d="M284,54a25.79,25.79,0,0,1-8.74-19.5L204.79,53.4a14.29,14.29,0,0,0-8.65,21.05,14.2,14.2,0,0,0,9.24.64Z"/><path class="cls-2" d="M249.75,3.36a10.55,10.55,0,0,1,5.47,20.37L198.85,38.88a19.27,19.27,0,0,0-5.47-20.38Z"/><path class="cls-1" d="M198.37,39a18.93,18.93,0,0,0-1.63-15.64L247.6,9.7a10.51,10.51,0,0,1,13.27,10.22,10.44,10.44,0,0,1-5.65,3.81Z"/><path class="cls-13" d="M286.67,58.42l-80,21.5a19.33,19.33,0,0,1-10-37.34l80-21.5,1.3,4.83-80,21.5a14.33,14.33,0,0,0,7.44,27.68l80-21.49Z"/><polygon class="cls-14" points="234.43 7.47 238.62 23.09 242.81 19.37 248.3 20.49 244.1 4.88 234.43 7.47"/><path class="cls-15" d="M7.86,94.25a1,1,0,0,1-1-.83c-2.11-12.24,7.84-18.25,8-18.31a1,1,0,0,1,1,1.72,15.85,15.85,0,0,0-7,16.25A1,1,0,0,1,8,94.23Z"/><path class="cls-15" d="M1,86.3H.94A1,1,0,0,1,0,85.24c.43-7.47,4.35-10.06,4.51-10.16A1,1,0,0,1,5.6,76.76c-.15.1-3.23,2.23-3.6,8.6A1,1,0,0,1,1,86.3Z"/></g></g></svg>