<svg xmlns="http://www.w3.org/2000/svg" xmlns:xlink="http://www.w3.org/1999/xlink" viewBox="0 0 305.7 211.85"><defs><style>.cls-1{fill:#4f51a8;}.cls-2{fill:url(#Безымянный_градиент_53);}.cls-3{fill:#aeb8d2;}.cls-4{fill:#8f97aa;}.cls-5{fill:url(#Безымянный_градиент_50);}.cls-6{fill:#c6cfe1;}.cls-7{fill:url(#Безымянный_градиент_54);}.cls-8{fill:#868ace;}.cls-9{fill:#474b93;}.cls-10{fill:#eef1f9;}.cls-11{fill:url(#Безымянный_градиент_37);}.cls-12{fill:url(#Безымянный_градиент_37-2);}.cls-13{fill:#e1320d;}.cls-14{fill:url(#Безымянный_градиент_37-3);}.cls-15{fill:url(#Безымянный_градиент_37-4);}</style><linearGradient id="Безымянный_градиент_53" x1="1" y1="72.17" x2="287.5" y2="72.17" gradientUnits="userSpaceOnUse"><stop offset="0" stop-color="#c6cfe1"/><stop offset="0.5" stop-color="#797abd"/><stop offset="1" stop-color="#fd3b15"/></linearGradient><linearGradient id="Безымянный_градиент_50" x1="32.48" y1="196.33" x2="57.92" y2="196.33" gradientUnits="userSpaceOnUse"><stop offset="0" stop-color="#8f97aa"/><stop offset="1" stop-color="#6c727f"/></linearGradient><linearGradient id="Безымянный_градиент_54" x1="158.31" y1="139.74" x2="158.31" y2="211.85" gradientUnits="userSpaceOnUse"><stop offset="0.23" stop-color="#797abd"/><stop offset="1" stop-color="#4f51a8"/></linearGradient><linearGradient id="Безымянный_градиент_37" x1="250.81" y1="89.5" x2="305.7" y2="89.5" gradientUnits="userSpaceOnUse"><stop offset="0" stop-color="#f96a2b"/><stop offset="1" stop-color="#fd3b15"/></linearGradient><linearGradient id="Безымянный_градиент_37-2" x1="256.76" y1="78.97" x2="299.75" y2="78.97" xlink:href="#Безымянный_градиент_37"/><linearGradient id="Безымянный_градиент_37-3" x1="250.81" y1="289.06" x2="305.7" y2="289.06" gradientTransform="matrix(1, 0, 0, -1, 0, 474.53)" xlink:href="#Безымянный_градиент_37"/><linearGradient id="Безымянный_градиент_37-4" x1="256.76" y1="278.53" x2="299.75" y2="278.53" gradientTransform="matrix(1, 0, 0, -1, 0, 474.53)" xlink:href="#Безымянный_градиент_37"/></defs><title>Ресурс 2</title><g id="Слой_2" data-name="Слой 2"><g id="Слой_1-2" data-name="Слой 1"><path class="cls-1" d="M147.33,162.53c2.45,2.44,6.67,6.25,11.48,6.25,4.6,0,8.65-3.67,11.14-5.92a25.88,25.88,0,0,0-22.62-.33Z"/><path class="cls-2" d="M280.25,0a7.24,7.24,0,0,0-6.12,11.13c-34.78,33.17-77.39,58.1-116.45,76.16A7.24,7.24,0,0,0,145,92.08a6.15,6.15,0,0,0,.06.87c-13.76,6-26.91,11.11-38.89,15.41a685.12,685.12,0,0,1-91.24,25.9,7.27,7.27,0,1,0,.56,3,688.72,688.72,0,0,0,91.64-26c12-4.3,25.14-9.42,38.9-15.4a7.25,7.25,0,0,0,13.47-3.72,7.45,7.45,0,0,0-.33-2.17c39.25-18.18,82.06-43.25,117.05-76.63a7.25,7.25,0,1,0,4-13.28Z"/><path class="cls-3" d="M47.62,186a10.3,10.3,0,0,0-9.4,6.12H19.7a10.29,10.29,0,1,0,0,8.34H38.22A10.29,10.29,0,1,0,47.62,186Z"/><path class="cls-4" d="M57.6,193.79a10.28,10.28,0,0,1-20,0,10.25,10.25,0,0,0-.32,2.5,9.82,9.82,0,0,0,.06,1.09H20.52a9.93,9.93,0,0,0-.26-3.59,10.28,10.28,0,0,1-19.94,0,10.29,10.29,0,0,0,19.5,6.39v.28h18.4a10.28,10.28,0,0,0,19.38-6.67Z"/><path class="cls-5" d="M57.82,194.94c0-.12,0-.24-.07-.36,0-.27-.09-.55-.16-.82h0q0,.42,0,.87a12.64,12.64,0,0,1-.11,1.52l-12.61-7.67.09-.09c.1-.14.2-.27.29-.42a9.91,9.91,0,0,0,.85-1.85l-.42.08a9.55,9.55,0,0,1-2.2,1.43l-.67-.4h0A10.47,10.47,0,0,0,41,188.44h0a10.24,10.24,0,0,0-2.76,3.68H32.48a10.3,10.3,0,0,0,7.9,0,4.51,4.51,0,0,1,4.09.29l5,3c4.72,2.86,3.41,10.18-2,11l-.13,0h0c.31,0,.62.08.93.1h0a10.41,10.41,0,0,0,2-.31h0c.31-.08.62-.18.92-.28h0c.29-.11.58-.23.86-.36l0,0a8.83,8.83,0,0,0,.8-.43l.07,0c.24-.14.48-.3.72-.47l.1-.07.64-.51.12-.12.56-.53.15-.17c.16-.18.32-.36.47-.55l.17-.22c.13-.18.27-.36.39-.55l.18-.29.31-.53c.06-.12.11-.25.17-.37s.17-.33.24-.51.11-.29.16-.44.12-.32.17-.48.09-.35.13-.53.08-.29.11-.44.07-.43.1-.64,0-.24,0-.36a8.87,8.87,0,0,0,0-2.29S57.82,195,57.82,194.94Z"/><path class="cls-6" d="M73.69,191.4a10.31,10.31,0,0,0-11.22.37l-15.85-9.58a10.3,10.3,0,1,0-4.31,7.13l15.85,9.59a10.29,10.29,0,1,0,15.53-7.51Z"/><path class="cls-3" d="M78.19,203.23a10.28,10.28,0,0,1-17.07-10.32,10.1,10.1,0,0,0-1.56,2c-.19.32-.36.64-.52,1l-14.43-8.72a9.62,9.62,0,0,0,.61-.91,10,10,0,0,0,1-2.3,10.27,10.27,0,0,1-17.06-10.32,10.15,10.15,0,0,0-1.57,2,10.29,10.29,0,0,0,14.94,13.59l-.14.23,15.75,9.53a10.29,10.29,0,0,0,19,6.62A10,10,0,0,0,78.19,203.23Z"/><path class="cls-7" d="M181.07,173.66a9.9,9.9,0,0,1-1.08-6s2-14.45,2-15.06c0-7.11-10.59-12.86-23.66-12.86-8.17,0-15.37,2.24-19.62,5.67-2.55,2.05-4,4.52-4,7.19,0,.26.38,3.18.81,6.37.54,4.11,1.17,8.69,1.17,8.69a9.78,9.78,0,0,1-1,5.94,25.88,25.88,0,1,0,45.49.06Zm-8.55-18.13v2.15c0,4.92-6.14,8.9-13.71,8.9s-13.7-4-13.7-8.9v-2.15h0a6.76,6.76,0,0,1,6.75-6.74h13.91a6.76,6.76,0,0,1,6.75,6.74Z"/><path class="cls-8" d="M138.17,187.47a1.5,1.5,0,0,1-1.5-1.5,18.4,18.4,0,0,1,5.55-13.23,1.5,1.5,0,1,1,2.1,2.14A15.44,15.44,0,0,0,139.67,186,1.5,1.5,0,0,1,138.17,187.47Z"/><path class="cls-9" d="M146.56,192a9.41,9.41,0,0,1,3.38-3.59,23.56,23.56,0,0,0,3-2.37,3.49,3.49,0,0,0,1.05-2.44,2.69,2.69,0,0,0-.6-1.79,2.43,2.43,0,0,0-3.79.42,5.7,5.7,0,0,0-.37,2.09H146a8.28,8.28,0,0,1,.79-3.51,4.9,4.9,0,0,1,4.75-2.54,6,6,0,0,1,4.29,1.49,5.16,5.16,0,0,1,1.6,4,5.36,5.36,0,0,1-1.13,3.35,11.12,11.12,0,0,1-2.43,2.17l-1.34.95c-.83.59-1.41,1-1.72,1.29a3.81,3.81,0,0,0-.77.92h7.41v2.94H145.78A8,8,0,0,1,146.56,192Z"/><path class="cls-9" d="M169.54,180.49a16.83,16.83,0,0,1,0,13,5.69,5.69,0,0,1-9.11,0,16.71,16.71,0,0,1,0-13,5.68,5.68,0,0,1,9.11,0Zm-6.53,11a1.94,1.94,0,0,0,2,1.56,1.9,1.9,0,0,0,2-1.56,21.87,21.87,0,0,0,0-9,1.88,1.88,0,0,0-2-1.48,1.92,1.92,0,0,0-2,1.48,21.43,21.43,0,0,0,0,9Z"/><rect class="cls-10" x="274.38" y="66.25" width="7.75" height="143.5" rx="1.42" ry="1.42"/><path class="cls-3" d="M280.71,66.25h-2.45v143.5h2.45a1.43,1.43,0,0,0,1.42-1.42V67.67A1.43,1.43,0,0,0,280.71,66.25Z"/><rect class="cls-11" x="250.81" y="82.57" width="54.89" height="13.85" rx="1.42" ry="1.42"/><rect class="cls-12" x="256.76" y="73.54" width="43" height="10.85" rx="1.11" ry="1.11"/><rect class="cls-13" x="256.76" y="80.16" width="43" height="2.41"/><rect class="cls-14" x="250.81" y="178.54" width="54.89" height="13.85" rx="1.42" ry="1.42"/><rect class="cls-15" x="256.76" y="190.57" width="43" height="10.85" rx="1.11" ry="1.11"/><rect class="cls-13" x="256.76" y="192.4" width="43" height="2.41"/></g></g></svg>