<svg xmlns="http://www.w3.org/2000/svg" xmlns:xlink="http://www.w3.org/1999/xlink" viewBox="0 0 189.33 248.58"><defs><style>.cls-1,.cls-12{fill:none;}.cls-2{fill:#c74146;}.cls-3{fill:#eef1f9;}.cls-4{fill:#d6deec;}.cls-5{fill:#00c3ff;}.cls-6{fill:#ff5050;}.cls-7{fill:#ffef82;}.cls-8{fill:#797abd;}.cls-9{fill:#fff;}.cls-10{fill:#7979bc;}.cls-11{fill:#563c97;}.cls-12{stroke:#fff;stroke-linecap:round;stroke-linejoin:round;}.cls-13{clip-path:url(#clip-path);}.cls-14{clip-path:url(#clip-path-2);}.cls-15{clip-path:url(#clip-path-3);}.cls-16{clip-path:url(#clip-path-4);}.cls-17{clip-path:url(#clip-path-5);}.cls-18{clip-path:url(#clip-path-6);}</style><clipPath id="clip-path"><rect class="cls-1" x="101.03" y="94.52" width="8.67" height="8.49"/></clipPath><clipPath id="clip-path-2"><rect class="cls-1" x="30.19" y="67.05" width="6.81" height="6.67"/></clipPath><clipPath id="clip-path-3"><rect class="cls-1" x="38.32" y="67.05" width="6.81" height="6.67"/></clipPath><clipPath id="clip-path-4"><rect class="cls-1" x="46.44" y="67.05" width="6.81" height="6.67"/></clipPath><clipPath id="clip-path-5"><rect class="cls-1" x="54.57" y="67.05" width="6.81" height="6.67"/></clipPath><clipPath id="clip-path-6"><rect class="cls-1" x="62.69" y="67.05" width="6.81" height="6.67"/></clipPath></defs><title>Ресурс 1</title><g id="Слой_2" data-name="Слой 2"><g id="Слой_1-2" data-name="Слой 1"><polygon class="cls-2" points="72.87 248.58 60.57 248.58 65.07 238.46 60.57 228.33 72.87 228.33 72.87 248.58"/><polygon class="cls-2" points="120.21 248.58 132.51 248.58 128.01 238.46 132.51 228.33 120.21 228.33 120.21 248.58"/><rect class="cls-3" y="48.42" width="189.33" height="134.33" rx="8.5" ry="8.5"/><circle class="cls-4" cx="178.5" cy="115.58" r="4.86"/><rect class="cls-5" x="21.67" y="58.85" width="146" height="113.46"/><path class="cls-6" d="M98,224H95V204.31a11.16,11.16,0,0,1,11.14-11.14h10.15a8.15,8.15,0,1,0,0-16.29H80.35a11.15,11.15,0,0,1,0-22.3h62.93a8.15,8.15,0,1,0,0-16.29H40.55a11.15,11.15,0,1,1,0-22.29h76.08a8.15,8.15,0,1,0,0-16.29H93.14a11.15,11.15,0,1,1,0-22.29h35.54a8.15,8.15,0,0,0,0-16.3H79.52a11.15,11.15,0,0,1,0-22.29h9.94a8.15,8.15,0,0,0,8.15-8.14V25.58h3v5.11A11.16,11.16,0,0,1,89.46,41.83H79.52a8.15,8.15,0,0,0,0,16.29h49.16a11.15,11.15,0,0,1,0,22.3H93.14a8.15,8.15,0,1,0,0,16.29h23.49a11.15,11.15,0,1,1,0,22.29H40.55a8.15,8.15,0,1,0,0,16.29H143.28a11.15,11.15,0,1,1,0,22.29H80.35a8.15,8.15,0,0,0,0,16.3h35.92a11.15,11.15,0,1,1,0,22.29H106.12A8.15,8.15,0,0,0,98,204.31Z"/><circle class="cls-7" cx="98.47" cy="13.52" r="13.52"/><circle class="cls-8" cx="110.56" cy="59.65" r="13.52"/><circle class="cls-7" cx="103.48" cy="156.09" r="13.52"/><circle class="cls-9" cx="105.36" cy="98.27" r="7.3"/><circle class="cls-10" cx="111.1" cy="194.73" r="7.3"/><circle class="cls-11" cx="79.87" cy="137.01" r="7.3"/><circle class="cls-6" cx="56.43" cy="117.42" r="14.51"/><rect class="cls-6" x="72.87" y="223.83" width="47.35" height="20.25"/><polygon class="cls-12" points="110.22 67.97 100.8 57.36 105.8 52.6 114.63 52.6 119.63 57.36 110.22 67.97"/><line class="cls-12" x1="100.8" y1="57.36" x2="119.63" y2="57.36"/><polyline class="cls-12" points="110.22 67.97 106.3 57.36 108.8 52.6"/><polyline class="cls-12" points="110.22 67.97 114.13 57.36 111.63 52.6"/><g class="cls-13"><path class="cls-6" d="M105.32,102.84a11.87,11.87,0,0,0,4-4.37A2.67,2.67,0,0,0,108,94.85a2.37,2.37,0,0,0-2.72.87,2.35,2.35,0,0,0-2.72-.87,2.67,2.67,0,0,0-1.31,3.62,11.94,11.94,0,0,0,4,4.37Z"/></g><g class="cls-14"><path class="cls-9" d="M33.56,73.58a9.46,9.46,0,0,0,3.17-3.43,2.1,2.1,0,0,0-1-2.84,1.86,1.86,0,0,0-2.14.68,1.83,1.83,0,0,0-2.13-.68,2.1,2.1,0,0,0-1,2.84,9.5,9.5,0,0,0,3.16,3.43Z"/></g><g class="cls-15"><path class="cls-9" d="M41.69,73.58a9.5,9.5,0,0,0,3.16-3.43,2.09,2.09,0,0,0-1-2.84,1.85,1.85,0,0,0-2.13.68,1.85,1.85,0,0,0-2.14-.68,2.09,2.09,0,0,0-1,2.84,9.31,9.31,0,0,0,3.16,3.43Z"/></g><g class="cls-16"><path class="cls-9" d="M49.81,73.58A9.46,9.46,0,0,0,53,70.15a2.1,2.1,0,0,0-1-2.84,1.86,1.86,0,0,0-2.14.68,1.83,1.83,0,0,0-2.13-.68,2.09,2.09,0,0,0-1,2.84,9.5,9.5,0,0,0,3.16,3.43Z"/></g><g class="cls-17"><path class="cls-9" d="M57.93,73.58a9.46,9.46,0,0,0,3.17-3.43,2.09,2.09,0,0,0-1-2.84,1.87,1.87,0,0,0-2.14.68,1.83,1.83,0,0,0-2.13-.68,2.1,2.1,0,0,0-1,2.84,9.5,9.5,0,0,0,3.16,3.43Z"/></g><g class="cls-18"><path class="cls-7" d="M66.06,73.58a9.55,9.55,0,0,0,3.17-3.43,2.1,2.1,0,0,0-1-2.84,1.86,1.86,0,0,0-2.14.68,1.84,1.84,0,0,0-2.13-.68,2.09,2.09,0,0,0-1,2.84,9.41,9.41,0,0,0,3.16,3.43Z"/></g><path class="cls-6" d="M109.58,155.84a2,2,0,0,0,.49-1.32,1.72,1.72,0,0,0-1.7-1.7h-2.46l.07-.21.1-.2.09-.16a4.24,4.24,0,0,0,.24-.49,3.51,3.51,0,0,0,.17-.54,2.52,2.52,0,0,0,.09-.67c0-.14,0-.26,0-.34s0-.23,0-.4a3,3,0,0,0-.11-.45,1.69,1.69,0,0,0-.21-.39,1.23,1.23,0,0,0-.36-.36,1.87,1.87,0,0,0-.53-.23,2.34,2.34,0,0,0-.73-.1.56.56,0,0,0-.4.17,1.55,1.55,0,0,0-.3.44,2.75,2.75,0,0,0-.17.47c0,.13-.07.31-.11.54s-.1.42-.12.53a3.07,3.07,0,0,1-.16.43,1.38,1.38,0,0,1-.27.43,11.33,11.33,0,0,0-.9,1.06c-.29.38-.58.73-.89,1.07s-.53.51-.67.52a.66.66,0,0,0-.39.19.55.55,0,0,0-.16.38v5.68a.54.54,0,0,0,.17.39.64.64,0,0,0,.4.18,5.7,5.7,0,0,1,1.4.39l1.07.35c.26.08.61.16,1.07.25a6.84,6.84,0,0,0,1.28.14h1.14a2.2,2.2,0,0,0,1.75-.69,2.11,2.11,0,0,0,.43-1.6,1.76,1.76,0,0,0,.48-.84,1.8,1.8,0,0,0,0-1,1.85,1.85,0,0,0,.38-1.22,2.07,2.07,0,0,0-.13-.67Z"/><path class="cls-6" d="M99,154H96.46a.58.58,0,0,0-.57.57v5.67a.58.58,0,0,0,.57.57H99a.58.58,0,0,0,.57-.57v-5.67A.58.58,0,0,0,99,154Zm-1,5.51a.57.57,0,0,1-.8-.8.56.56,0,0,1,.8,0,.56.56,0,0,1,0,.8Z"/><path class="cls-6" d="M100.39,16a.54.54,0,0,1-.17.39.53.53,0,0,1-.38.16H97.1a.57.57,0,0,1-.39-.16.53.53,0,0,1-.16-.39V14.62H90.79v4.11a1.37,1.37,0,0,0,1.37,1.37h12.62a1.29,1.29,0,0,0,1-.4,1.32,1.32,0,0,0,.41-1V14.62h-5.76Z"/><rect class="cls-6" x="97.37" y="14.62" width="2.19" height="1.1"/><path class="cls-6" d="M105.74,9.53a1.33,1.33,0,0,0-1-.4h-3V7.76a.78.78,0,0,0-.24-.58.8.8,0,0,0-.58-.24H96a.82.82,0,0,0-.83.82V9.13h-3a1.35,1.35,0,0,0-1,.4,1.33,1.33,0,0,0-.4,1v3.29h15.36V10.5a1.34,1.34,0,0,0-.41-1Zm-5.08-.4H96.27V8h4.39Z"/><path class="cls-9" d="M111.55,194.14a.42.42,0,0,1-.32-.13.4.4,0,0,1-.13-.31v-2.52h-2.52a.44.44,0,0,0-.44.44v6.23a.44.44,0,0,0,.44.44h5a.44.44,0,0,0,.32-.13.43.43,0,0,0,.12-.31v-3.71Zm1.33,2.82a.12.12,0,0,1,0,.1.16.16,0,0,1-.11.05h-3.26a.16.16,0,0,1-.11-.05.15.15,0,0,1,0-.1v-.3a.14.14,0,0,1,.15-.15h3.26a.21.21,0,0,1,.11,0,.15.15,0,0,1,0,.11Zm0-1.19a.14.14,0,0,1,0,.11.15.15,0,0,1-.11,0h-3.26a.15.15,0,0,1-.11,0,.18.18,0,0,1,0-.11v-.29a.18.18,0,0,1,0-.11.15.15,0,0,1,.11,0h3.26a.15.15,0,0,1,.11,0,.14.14,0,0,1,0,.11Z"/><path class="cls-9" d="M113.75,192.94l-1.44-1.45a1.21,1.21,0,0,0-.62-.3v2.36h2.36a1.1,1.1,0,0,0-.3-.61Z"/><g id="_" data-name="{"><path class="cls-9" d="M78,137.67a.71.71,0,0,1,.25.2,1,1,0,0,1,.14.32,1.86,1.86,0,0,1,0,.42v1.06a2.54,2.54,0,0,0,.11.78,1.82,1.82,0,0,0,.37.68,2.45,2.45,0,0,0,.69.56,4.27,4.27,0,0,0,1,.39l.36-.91a1.06,1.06,0,0,1-.37-.23,1,1,0,0,1-.23-.34,1.43,1.43,0,0,1-.12-.43,4,4,0,0,1,0-.5v-1.06a1.68,1.68,0,0,0-.27-.93,1.83,1.83,0,0,0-.88-.68,1.82,1.82,0,0,0,.88-.67,1.68,1.68,0,0,0,.27-.93v-1.06a4,4,0,0,1,0-.5,1.5,1.5,0,0,1,.12-.44,1.27,1.27,0,0,1,.23-.34,1,1,0,0,1,.37-.22l-.36-.91a4.27,4.27,0,0,0-1,.39,2.45,2.45,0,0,0-.69.56,1.68,1.68,0,0,0-.37.68,2.54,2.54,0,0,0-.11.78v1.06a1.35,1.35,0,0,1-.19.74.67.67,0,0,1-.6.28v1.18A.73.73,0,0,1,78,137.67Z"/></g><path class="cls-9" d="M67,116.45a9.65,9.65,0,0,0-3.38-6.06,11.49,11.49,0,0,0-14.42,0,9.7,9.7,0,0,0-3.36,6.09,6.65,6.65,0,0,0-.11,1.14,6.21,6.21,0,0,0,1.58,4.23,9.13,9.13,0,0,0,4.45,2.64v.43a1.86,1.86,0,0,0,.54,1.35,2.1,2.1,0,0,0,1.35.6,1.68,1.68,0,0,0,1.24-.29,2.3,2.3,0,0,0,1.4.46,2.24,2.24,0,0,0,1.33-.43,1.64,1.64,0,0,0,1.17.26,2.18,2.18,0,0,0,1.35-.62,1.76,1.76,0,0,0,.55-1.33v-.32a9.32,9.32,0,0,0,4.79-2.7,6.16,6.16,0,0,0,1.64-4.28,5.82,5.82,0,0,0-.12-1.14ZM54,119.22a2.65,2.65,0,0,1-4.13,0,3.75,3.75,0,0,1,0-4.8,2.65,2.65,0,0,1,4.13,0,3.78,3.78,0,0,1,0,4.8Zm2.5,3.8a1.37,1.37,0,0,1-1.06-.37.8.8,0,0,1-.2-.57A1.74,1.74,0,0,1,55.6,121a1.13,1.13,0,0,1,.82-.53c.27,0,.52.19.76.59a2.23,2.23,0,0,1,.36,1.14c0,.55-.36.82-1.09.82Zm6.33-3.8a2.65,2.65,0,0,1-2.08,1,2.59,2.59,0,0,1-2.05-1,3.81,3.81,0,0,1,0-4.8,2.59,2.59,0,0,1,2.05-1,2.65,2.65,0,0,1,2.08,1,3.81,3.81,0,0,1,0,4.8Z"/><path d="M54,119.22a2.65,2.65,0,0,1-4.13,0,3.75,3.75,0,0,1,0-4.8,2.65,2.65,0,0,1,4.13,0,3.78,3.78,0,0,1,0,4.8Zm2.5,3.8a1.37,1.37,0,0,1-1.06-.37.8.8,0,0,1-.2-.57A1.74,1.74,0,0,1,55.6,121a1.13,1.13,0,0,1,.82-.53c.27,0,.52.19.76.59a2.23,2.23,0,0,1,.36,1.14c0,.55-.36.82-1.09.82Zm6.33-3.8a2.65,2.65,0,0,1-2.08,1,2.59,2.59,0,0,1-2.05-1,3.81,3.81,0,0,1,0-4.8,2.59,2.59,0,0,1,2.05-1,2.65,2.65,0,0,1,2.08,1,3.81,3.81,0,0,1,0,4.8Z"/><path class="cls-9" d="M86.48,231.32l-1.35.47a2.62,2.62,0,0,0-.63-1.13,1.5,1.5,0,0,0-1.06-.36,1.22,1.22,0,0,0-1.3,1.22,1,1,0,0,0,.38.83,6,6,0,0,0,1.52.75,8.21,8.21,0,0,1,1.5.71,2.57,2.57,0,0,1,1.18,2.2,2.81,2.81,0,0,1-.85,2.05,3.23,3.23,0,0,1-2.39.85,3.09,3.09,0,0,1-3.27-2.67l1.41-.4a1.89,1.89,0,0,0,1.93,1.76,1.58,1.58,0,0,0,1.16-.39,1.36,1.36,0,0,0,.4-1,1.23,1.23,0,0,0-.28-.79,3.3,3.3,0,0,0-1.35-.78,11.72,11.72,0,0,1-1.66-.73A2.45,2.45,0,0,1,81,233a2.51,2.51,0,0,1-.36-1.34,2.58,2.58,0,0,1,.79-1.92A2.93,2.93,0,0,1,83.5,229,2.84,2.84,0,0,1,86.48,231.32Z"/><path class="cls-9" d="M87.16,229.18H93v1.35H90.86v8.2H89.28v-8.2H87.16Z"/><path class="cls-9" d="M95.14,229.18h1.77l2.57,9.55h-1.6l-.6-2.39h-2.8l-.6,2.39h-1.5ZM97,235.1l-1.1-4.38-1.08,4.38Z"/><path class="cls-9" d="M100.43,229.18h2.88a3.25,3.25,0,0,1,2.3.71,2.69,2.69,0,0,1,.74,2,2.59,2.59,0,0,1-1.46,2.5l1.81,4.31H105l-1.49-4H102v4h-1.58Zm1.58,1.23v3.11h1.21a1.5,1.5,0,0,0,1.2-.45,1.75,1.75,0,0,0,.38-1.17c0-1-.52-1.49-1.56-1.49Z"/><path class="cls-9" d="M107,229.18h5.83v1.35h-2.13v8.2h-1.58v-8.2H107Z"/></g></g></svg>