<svg xmlns="http://www.w3.org/2000/svg" xmlns:xlink="http://www.w3.org/1999/xlink"  width="250px" height="55.56px" viewBox="0 0 250 55.56">
  <defs>
    <linearGradient id="linearGradient-1" x1="25.43" y1="0.68" x2="25.43" y2="55.79" gradientUnits="userSpaceOnUse">
      <stop offset="0" stop-color="#f48f41"/>
      <stop offset="1" stop-color="#f05e2d"/>
    </linearGradient>
    <linearGradient id="linearGradient-2" x1="207.57" y1="12.76" x2="207.57" y2="42.79" xlink:href="#linearGradient-1"/>
  </defs>
  <path fill="url(#linearGradient-1)" d="M45.72,45.43,30.57,54.18a10.31,10.31,0,0,1-10.28,0L5.14,45.43A10.28,10.28,0,0,1,0,36.53V19a10.27,10.27,0,0,1,5.14-8.9L20.29,1.38a10.26,10.26,0,0,1,10.28,0l15.15,8.75A10.27,10.27,0,0,1,50.86,19v17.5A10.28,10.28,0,0,1,45.72,45.43Z"/>
  <path fill="#fff" d="M29.77,45.61A9.59,9.59,0,0,1,26.41,45a12,12,0,0,1-1.73-.79,8.52,8.52,0,0,1-2.44-1.95,6.55,6.55,0,0,1-1.3-2.4,9.5,9.5,0,0,1-.39-2.74v-3.7a4.6,4.6,0,0,0-.66-2.62,2.36,2.36,0,0,0-2.11-1V25.71a2.36,2.36,0,0,0,2.11-1,4.59,4.59,0,0,0,.66-2.61v-3.7a9.5,9.5,0,0,1,.39-2.74,6.67,6.67,0,0,1,1.3-2.41,8.87,8.87,0,0,1,2.44-1.95,12,12,0,0,1,1.73-.78A9.59,9.59,0,0,1,29.77,10h.54v4.14a2.86,2.86,0,0,0-1.26.25,2.31,2.31,0,0,0-.86.72,3.54,3.54,0,0,0-.36.7,7.74,7.74,0,0,0-.2.89c0,.33-.08.67-.1,1v.44c0,.1,0,.21,0,.31v3.7a5.88,5.88,0,0,1-1,3.3,6.45,6.45,0,0,1-3.1,2.35h0a6.39,6.39,0,0,1,3.1,2.35,5.83,5.83,0,0,1,1,3.3v3.7c0,.1,0,.2,0,.3v.44c0,.35.06.69.1,1a7.29,7.29,0,0,0,.2.89,3.29,3.29,0,0,0,.36.7,2.31,2.31,0,0,0,.86.72,2.86,2.86,0,0,0,1.26.26v4.14Z"/>
  <path fill="#fff" d="M81.51,28c0-9.53,4.85-15.24,14.33-15.24S110,18.47,110,27.59s-4.77,15.2-14.46,15.2C86.07,42.79,81.51,37.08,81.51,28Zm19.67-.37c0-5-1.72-7.55-5.34-7.55s-5.54,2.75-5.54,7.64c0,5.21,1.93,7.76,5.5,7.76S101.18,32.89,101.18,27.63Z"/>
  <path fill="#fff" d="M113.17,13.26h11.75c11.7,0,14.7,6.45,14.7,14.58,0,8-3.24,14.46-14.7,14.46H113.17Zm12.65,21.93c3.49,0,5-3,5-7.39s-1.35-7.44-5.09-7.44h-3.86V35.19Z"/>
  <path fill="#fff" d="M166.92,42.2A15.59,15.59,0,0,1,162.37,35H151.56V31.21h10a28.31,28.31,0,0,1-.18-3.25,25.39,25.39,0,0,1,.26-3.65H151.56V20.53h11a16.93,16.93,0,0,1,3.78-6.26c.34-.35.7-.69,1.08-1H142.81v29h24.24Z"/>
  <path fill="url(#linearGradient-2)" d="M198.06,42.3V32.48l-10-19.22h9.33l4.93,11.5,4.76-11.5h9.45l-9.9,19.14v9.9Zm43.56,0-.37-17L236.4,36.79h-5.79L225.8,25.37l-.37,16.93H217l1.32-29H228l5.47,13.31L239,13.26h9.74l1.31,29Zm-60.09-7h-.7c-3.57,0-6.94-1.39-6.94-7.27,0-6.08,3.41-7.56,7.48-7.56a35.17,35.17,0,0,1,7.12.85L185.22,15l-1.07-2.06c-1.23-.1-2.6-.17-4-.17-9.66,0-15,5.92-15,15.2,0,10.68,6.33,14.83,15.16,14.83A36,36,0,0,0,190,41.4V30h-8.42Z"/>
  <path fill="#fff" d="M78.63,34.72a37.91,37.91,0,0,1-4.76.39c-4,0-7.38-1.44-7.47-7.33.09-5.89,3.46-7.33,7.47-7.33a37.52,37.52,0,0,1,4.85.4,16.69,16.69,0,0,1,3.73-6.69A35.07,35.07,0,0,0,76.7,13s-2.15-.21-3.28-.23H71.94l-.44,0-.54,0h-.07c-7.82.58-13.24,4.86-13.24,14.75V28c0,9.89,5.42,14.18,13.24,14.76H71l.54,0,.44,0h1.48c1.13,0,3.28-.24,3.28-.24a35.8,35.8,0,0,0,5.6-1.11A16.19,16.19,0,0,1,78.63,34.72Z"/>
</svg>
