<svg xmlns="http://www.w3.org/2000/svg" viewBox="0 0 116.5 90.61">
  <path d="M21.2,90.11v-6a3.57,3.57,0,0,0-3.31-3.8,3.38,3.38,0,0,0-.45,0A3.68,3.68,0,0,0,14.08,82a3.54,3.54,0,0,0-3.16-1.7,3.14,3.14,0,0,0-2.8,1.42V80.55H6v9.56h2.1V84.85a2.23,2.23,0,0,1,1.91-2.52,2,2,0,0,1,.43,0c1.38,0,2.08.9,2.08,2.52v5.32h2.1v-5.3a2.24,2.24,0,0,1,1.93-2.52,1.88,1.88,0,0,1,.41,0c1.42,0,2.1.9,2.1,2.52v5.32Zm31.07-9.56H48.85v-2.9h-2.1v2.9h-1.9v1.9h1.94v4.4c0,2.22.86,3.54,3.32,3.54a4.88,4.88,0,0,0,2.6-.74l-.6-1.78a3.86,3.86,0,0,1-1.84.54c-1,0-1.38-.64-1.38-1.6V82.45h3.4ZM70,80.31a2.82,2.82,0,0,0-2.52,1.4V80.55H65.43v9.56h2.08V84.75c0-1.58.68-2.46,2-2.46a3.44,3.44,0,0,1,1.3.24l.64-2A4.44,4.44,0,0,0,70,80.27Zm-26.82,1a7.13,7.13,0,0,0-3.9-1c-2.42,0-4,1.16-4,3.06,0,1.56,1.16,2.52,3.3,2.82l1,.14c1.14.16,1.68.46,1.68,1,0,.74-.76,1.16-2.18,1.16a5.08,5.08,0,0,1-3.18-1l-1,1.62a6.87,6.87,0,0,0,4.14,1.24c2.76,0,4.36-1.3,4.36-3.12s-1.26-2.56-3.34-2.86l-1-.14c-.9-.12-1.62-.3-1.62-.94s.68-1.12,1.82-1.12a6.23,6.23,0,0,1,3,.82Zm55.71-1a2.82,2.82,0,0,0-2.52,1.4V80.55H94.32v9.56H96.4V84.75c0-1.58.68-2.46,2-2.46a3.44,3.44,0,0,1,1.3.24l.64-2a4.44,4.44,0,0,0-1.48-.26Zm-26.8,5a4.83,4.83,0,0,0,4.65,5h.45a5,5,0,0,0,3.44-1.14l-1-1.68a4.2,4.2,0,0,1-2.5.86,3.07,3.07,0,0,1,0-6.12,4.2,4.2,0,0,1,2.5.86l1-1.68a5,5,0,0,0-3.44-1.14,4.83,4.83,0,0,0-5.1,4.55,3.38,3.38,0,0,0,0,.45Zm19.48,0V80.55H89.5v1.16a3.66,3.66,0,0,0-3-1.4,5,5,0,0,0,0,10,3.66,3.66,0,0,0,3-1.4v1.16h2.08Zm-7.74,0a2.82,2.82,0,1,1,0,.23A1.77,1.77,0,0,1,83.84,85.31Zm-25.1-5a5,5,0,0,0,.14,10h0a5.85,5.85,0,0,0,4-1.3l-1-1.54a4.55,4.55,0,0,1-2.78,1,2.65,2.65,0,0,1-2.86-2.34h7.1v-.8c0-3-1.86-5-4.54-5Zm0,1.86a2.38,2.38,0,0,1,2.42,2.32h-5a2.46,2.46,0,0,1,2.54-2.32Zm52.11,3.16V76.71h-2v5a3.66,3.66,0,0,0-3-1.4,5,5,0,0,0,0,10,3.66,3.66,0,0,0,3-1.4v1.16h2Zm3.47,3.39a1,1,0,0,1,.38.07,1.27,1.27,0,0,1,.31.2,1.25,1.25,0,0,1,.21.3,1,1,0,0,1,0,.74,1.25,1.25,0,0,1-.21.3,1,1,0,0,1-.31.2,1,1,0,0,1-1.28-.5,1,1,0,0,1,0-.74,1,1,0,0,1,.21-.3,1.1,1.1,0,0,1,.31-.2,1.14,1.14,0,0,1,.41-.07Zm0,1.69a.75.75,0,0,0,.29-.06.87.87,0,0,0,.23-.16.74.74,0,0,0,0-1,.87.87,0,0,0-.23-.16.75.75,0,0,0-.29-.06A.72.72,0,0,0,114,89a.67.67,0,0,0-.24.16.74.74,0,0,0,0,1,.67.67,0,0,0,.24.16.87.87,0,0,0,.32.06Zm.06-1.19a.42.42,0,0,1,.26.08.27.27,0,0,1,.09.21.29.29,0,0,1-.07.18.36.36,0,0,1-.21.09l.29.33h-.23l-.27-.33h-.09v.33H114v-.88Zm-.22.17v.24h.22a.24.24,0,0,0,.12,0,.14.14,0,0,0,0-.09.14.14,0,0,0,0-.09.24.24,0,0,0-.12,0Zm-11-4.06a2.82,2.82,0,1,1,0,.23A1.77,1.77,0,0,1,103.16,85.33Zm-70.23,0V80.55H30.85v1.16a3.66,3.66,0,0,0-3-1.4,5,5,0,1,0,0,10,3.66,3.66,0,0,0,3-1.4v1.16h2.08Zm-7.74,0a2.64,2.64,0,1,1,0,.25,2.09,2.09,0,0,1,0-.25Z" fill="#fff"/>
  <rect x="42.5" y="7.7" width="31.5" height="56.61" fill="#ff5f00"/>
  <path d="M44.5,36A35.91,35.91,0,0,1,58.25,7.7a36,36,0,1,0,0,56.61A35.92,35.92,0,0,1,44.5,36Z" fill="#eb001b"/>
  <path d="M116.5,36a36,36,0,0,1-58.25,28.3,36,36,0,0,0,6.06-50.55A36.57,36.57,0,0,0,58.25,7.7,36,36,0,0,1,116.5,36Z" fill="#f79e1b"/>
  <path d="M113.06,58.31V57.15h.47v-.24h-1.19v.24h.51v1.16Zm2.31,0v-1.4H115l-.42,1-.42-1h-.32v1.4h.26V57.26l.39.91h.27l.39-.91v1.06Z" fill="#f79e1b"/>
</svg>
