<svg width="144" height="32" viewBox="0 0 144 32" fill="none" xmlns="http://www.w3.org/2000/svg">
<path d="M46.8275 16.1082C46.8275 10.6246 49.6415 7.37769 55.053 7.37769C60.4645 7.37769 63.1342 10.6246 63.1342 15.8918C63.1342 21.159 60.4645 24.6223 54.8365 24.6223C49.425 24.6223 46.8275 21.3754 46.8275 16.1082ZM58.0834 15.8918C58.0834 13.0056 57.0733 11.5626 55.053 11.5626C53.0327 11.5626 51.8782 13.15 51.8782 15.9639C51.8782 18.9222 52.9605 20.4374 55.053 20.4374C57.1454 20.4374 58.0834 18.9222 58.0834 15.8918Z" fill="white"/>
<path d="M65.0101 7.66626H71.7204C78.4306 7.66626 80.1623 11.3461 80.1623 16.036C80.1623 20.726 78.2863 24.3337 71.7204 24.3337H65.0101V7.66626ZM72.2976 20.2209C74.3179 20.2209 75.1837 18.4893 75.1837 15.9639C75.1837 13.4385 74.3901 11.7068 72.2976 11.7068H69.9887V20.2209H72.2976Z" fill="white"/>
<path d="M95.8917 24.2615C94.6651 23.1792 93.7271 21.7362 93.2942 20.1488H87.089V17.9842H92.8613C92.7892 17.3348 92.717 16.7576 92.7892 16.1082C92.7892 15.3867 92.8613 14.7373 92.9335 14.0158H87.1612V11.8512H93.5107C93.9436 10.4802 94.6651 9.25363 95.6753 8.24349C95.8918 8.02703 96.1082 7.81057 96.3247 7.66626H82.1826V24.3337H95.9639L95.8917 24.2615Z" fill="white"/>
<path d="M113.786 24.3338V18.7059L108.014 7.66641H113.353L116.167 14.3045L118.909 7.66641H124.32L118.62 18.6337V24.3338H113.786ZM138.751 24.3338L138.534 14.521L135.72 21.1591H132.401L129.66 14.5931L129.443 24.3338H124.609L125.33 7.66641H130.958L134.061 15.3147L137.164 7.66641H142.864L143.585 24.3338H138.751ZM104.262 20.2932H103.829C101.808 20.2932 99.8602 19.4996 99.8602 16.1083C99.8602 12.645 101.808 11.7791 104.189 11.7791C105.56 11.7791 106.859 11.9956 108.23 12.2842L106.354 8.67656L105.777 7.5221C105.055 7.44995 104.262 7.44995 103.468 7.44995C97.9121 7.44995 94.8095 10.8412 94.8095 16.1805C94.8095 22.3135 98.4172 24.6946 103.54 24.6946C105.416 24.6946 107.292 24.406 109.168 23.9009V17.335H104.334V20.2932H104.262Z" fill="url(#paint0_linear)"/>
<path d="M45.168 20.0045C44.23 20.1488 43.3642 20.221 42.4262 20.2931C40.1173 20.2931 38.1691 19.4994 38.1691 16.1082C38.1691 12.717 40.1894 11.9233 42.4262 11.9233C43.3642 11.9233 44.3022 11.9955 45.2402 12.1398C45.6731 10.6967 46.3946 9.39796 47.4048 8.31566C46.3225 8.02705 45.2402 7.81059 44.0857 7.66628C44.0857 7.66628 42.8591 7.52197 42.2097 7.52197H41.3439H41.0553H40.7667H40.6945C36.221 7.88274 33.1184 10.336 33.1184 15.9639V16.1804C33.1184 21.8805 36.221 24.3337 40.6945 24.6945H40.7667H41.0553H42.1376C42.787 24.6945 44.0136 24.5502 44.0136 24.5502C45.0959 24.4058 46.1782 24.2615 47.2605 23.9729C46.2503 22.7463 45.5288 21.4476 45.168 20.0045Z" fill="white"/>
<path d="M26.2638 26.1375L17.5333 31.1883C15.7294 32.2706 13.4927 32.2706 11.6167 31.1883L2.88613 26.1375C1.15445 25.0552 0 23.1071 0 21.0147V10.9853C0 8.8929 1.15445 6.94476 2.95829 5.86246L11.6888 0.811725C13.4927 -0.270575 15.8016 -0.270575 17.6054 0.811725L26.336 5.86246C28.1398 6.94476 29.2942 8.8929 29.2942 10.9853V21.0147C29.2221 23.1071 28.0676 25.0552 26.2638 26.1375Z" fill="url(#paint1_linear)"/>
<path d="M17.1004 26.2097C16.451 26.2097 15.8016 26.1375 15.1522 25.8489C14.7914 25.7046 14.5028 25.5603 14.1421 25.416C13.637 25.1274 13.1319 24.7666 12.7712 24.3337C12.4104 23.9008 12.1939 23.4678 12.0496 22.9628C11.9053 22.4577 11.8332 21.9526 11.8332 21.3754V19.283C11.8332 18.7779 11.761 18.2007 11.4724 17.7677C11.1838 17.407 10.7509 17.1905 10.2458 17.1905V14.8094C10.7509 14.8816 11.1838 14.6651 11.4724 14.2322C11.761 13.7993 11.9053 13.2942 11.8332 12.717V10.6246C11.8332 10.1195 11.9053 9.54226 12.0496 9.03718C12.1939 8.53211 12.4104 8.02704 12.7712 7.66627C13.2041 7.23335 13.637 6.80043 14.2142 6.51182C14.5028 6.36751 14.8636 6.2232 15.2244 6.0789C15.8016 5.86244 16.451 5.79028 17.1004 5.79028H17.389V8.17134C17.1725 8.17134 16.8839 8.2435 16.6674 8.31565C16.451 8.3878 16.3067 8.53211 16.1624 8.74857C16.0902 8.89288 16.0181 9.03718 15.9459 9.18149C15.8737 9.3258 15.8737 9.54226 15.8737 9.68656C15.8737 9.90302 15.8016 10.0473 15.8016 10.2638V10.4802V12.7892C15.8016 13.4385 15.5851 14.0879 15.2244 14.6651C14.7914 15.3145 14.1421 15.7474 13.4205 16.0361C14.1421 16.3247 14.7914 16.7576 15.2244 17.407C15.5851 17.9842 15.8016 18.6336 15.8016 19.283V21.5919V21.8805C15.8016 22.0969 15.8016 22.3134 15.8737 22.4577C15.8737 22.602 15.9459 22.8185 15.9459 22.9628C16.0181 23.1071 16.0902 23.2514 16.1624 23.3957C16.3067 23.54 16.451 23.6843 16.6674 23.8286C16.8839 23.9008 17.1725 23.9729 17.389 23.9729V26.354H17.1004V26.2097Z" fill="white"/>
<defs>
<linearGradient id="paint0_linear" x1="119.197" y1="7.41503" x2="119.197" y2="24.6597" gradientUnits="userSpaceOnUse">
<stop stop-color="#F28F41"/>
<stop offset="1" stop-color="#EB5E30"/>
</linearGradient>
<linearGradient id="paint1_linear" x1="14.6471" y1="0.47412" x2="14.6471" y2="32.1274" gradientUnits="userSpaceOnUse">
<stop stop-color="#F28F41"/>
<stop offset="1" stop-color="#EB5E30"/>
</linearGradient>
</defs>
</svg>
