<svg width="42" height="15" viewBox="0 0 42 15" fill="none" xmlns="http://www.w3.org/2000/svg">
<path d="M15.9709 0.718794L10.466 13.8118H6.86408L4.14563 3.36452C4.00971 2.75397 3.80583 2.48261 3.3301 2.21125C2.51456 1.80422 1.15534 1.32935 0 1.12583L0.0679601 0.718794H5.84466C6.59223 0.718794 7.27185 1.19367 7.40777 2.07558L8.83495 9.67356L12.3689 0.786632H15.9709V0.718794ZM30.0388 9.53789C30.0388 6.07809 25.2816 5.87457 25.2816 4.38211C25.2816 3.90724 25.7573 3.43236 26.7087 3.29668C27.1845 3.22884 28.5437 3.161 30.0388 3.90723L30.6505 1.12583C29.835 0.854471 28.8155 0.515274 27.4563 0.515274C24.1262 0.515274 21.7476 2.27909 21.7476 4.85698C21.7476 6.75648 23.4466 7.77407 24.7379 8.38462C26.0291 8.99517 26.5049 9.40221 26.5049 10.0128C26.5049 10.8947 25.4854 11.3017 24.466 11.3017C22.767 11.3017 21.7476 10.8268 21 10.4876L20.3884 13.3369C21.2039 13.6761 22.6311 14.0153 24.1262 14.0153C27.6602 14.0153 29.9709 12.2515 30.0388 9.53789ZM38.8738 13.8118H42L39.2816 0.718794H36.3592C35.6796 0.718794 35.1359 1.12583 34.932 1.66854L29.835 13.8118H33.3689L34.0485 11.8444H38.3981L38.8738 13.8118ZM35.068 9.19869L36.835 4.31427L37.8544 9.19869H35.068ZM20.7961 0.718794L18.0097 13.8118H14.6117L17.3981 0.718794H20.7961Z" fill="white"/>
</svg>
