<svg viewBox="0 0 470 80" fill="none" xmlns="http://www.w3.org/2000/svg"><path d="M33.067 19.093L16.533 9.547 0 19.093V9.547L16.533 0l16.534 9.547v9.546z" fill="#A435F0"/><path d="M0 27.093h8.667v21.04c0 5.44 4.053 8.08 7.866 8.08 3.84 0 7.867-2.72 7.867-8.16v-20.96h8.667V48.64c0 5.013-1.574 8.88-4.72 11.52-3.147 2.64-7.094 3.947-11.867 3.947-4.8 0-8.72-1.28-11.813-3.947C1.6 57.52.027 53.787.027 48.853v-21.76H0zM107.946 53.253a12.993 12.993 0 01-9.013 3.467c-6.213 0-10.373-3.547-10.853-9.013h27.973s.187-1.76.187-3.44c0-5.147-1.654-9.44-5.014-12.96-3.28-3.494-7.573-5.227-12.8-5.227-5.52 0-10.026 1.707-13.6 5.227-3.493 3.493-5.306 8.08-5.306 13.813v.293c0 5.654 1.786 10.16 5.306 13.52 3.494 3.36 8.16 5.094 13.814 5.094 6.586 0 11.813-2.587 15.733-7.067l-6.427-3.707zM91.493 35.68c2-1.52 4.427-2.32 6.933-2.293a9.241 9.241 0 016.374 2.373c1.706 1.44 2.64 3.2 2.72 5.227h-19.2c.266-2.107 1.306-3.867 3.173-5.307zM195.12 68.88C191.6 77.173 187.92 80 182.294 80H178.4v-7.68h3.147c1.947 0 3.733-.72 5.467-4.693l1.706-3.974-14.826-36.56h8.8L193.2 53.44 204 27.093h8.8c.027 0-14.08 33.254-17.68 41.787zM66.773 13.28v17.067c-2.826-2.534-7.253-4.054-11.52-4.054-5.093 0-9.386 1.787-12.88 5.44-3.44 3.574-5.146 8.027-5.146 13.387 0 5.36 1.706 9.813 5.146 13.44 3.494 3.573 7.814 5.36 12.88 5.36 5.867 0 9.574-2.293 11.52-4.107v3.334h8.587V13.28h-8.587zm-2.56 39.733c-2.08 2.08-4.72 3.147-7.813 3.147a10.425 10.425 0 01-7.653-3.147c-2-2.08-3.014-4.72-3.014-7.866 0-3.147 1.014-5.787 3.014-7.867 2-2.08 4.773-3.2 7.653-3.147 3.067 0 5.733 1.067 7.813 3.147 2.16 2.08 3.227 4.72 3.227 7.867 0 3.146-1.093 5.786-3.227 7.866zM160.533 26.373c-6.533 0-9.92 2.72-12.24 5.307-.933-1.76-3.546-5.307-9.653-5.307-5.173 0-8.213 2.614-9.733 4.48v-3.76H120.4v36.054h8.507v-20.72c0-4.854 3.013-8.374 7.013-8.374 4.08 0 6.453 3.067 6.453 8.027V63.2h8.507V42.427c0-4.934 2.933-8.374 7.147-8.374 4.08 0 6.453 3.067 6.453 8.027V63.2h8.587V40.88c0-9.44-5.04-14.507-12.534-14.507z" fill="#000"/><path d="M245.6 26.267c-6.027 0-9.84 3.386-11.52 6.773V11.76h-4.72v51.413h4.693v-5.92c2.08 4.294 6.4 6.827 11.68 6.827 9.307 0 15.094-7.2 15.094-18.773 0-11.76-5.84-19.04-15.227-19.04zm-.693 33.706c-6.987 0-11.014-5.386-11.014-14.773 0-9.44 3.947-14.827 10.854-14.827 7.093 0 11.146 5.387 11.146 14.774.027 9.413-4 14.826-10.986 14.826zM277.547 64.08c-3.787 0-6.907-1.2-8.96-3.493-2.24-2.48-3.2-5.76-3.2-10.907V27.147h4.693v20.586c0 4.96.667 7.867 2.213 9.68 1.387 1.547 3.44 2.294 6.294 2.294 4.613 0 10.026-2.934 10.026-11.147V27.147h4.694V63.2h-4.694v-5.36c-1.466 3.093-5.066 6.24-11.066 6.24zM312.026 64.08c-7.626 0-12.773-4.053-14.853-7.52l-.053-.107 3.813-2.72.08.107c2.453 3.947 6.56 6.107 11.547 6.107 5.546-.08 8.746-2.427 8.746-6.48 0-3.92-3.226-5.014-7.413-6.054l-4.96-1.2c-6.293-1.493-10.187-3.653-10.187-9.76 0-6.106 5.067-10.213 12.614-10.213 6.773 0 10.88 3.227 13.12 5.92l.08.107-3.6 3.04-.08-.107a11.64 11.64 0 00-9.6-4.907c-4.854 0-7.76 2.107-7.76 5.654 0 3.76 2.48 5.013 7.04 6.026l4.746 1.12c5.6 1.254 10.774 3.36 10.774 10.054 0 6.666-5.387 10.853-14.054 10.933zM335.173 63.173h-4.693v-36.08h4.693v36.08zm0-43.786h-4.693V11.76h4.693v7.627zM370.347 63.173h-4.693V43.787c0-5.52-.347-8.88-2.214-10.88-1.36-1.52-3.493-2.294-6.293-2.294-3.014 0-5.44.96-7.2 2.88-1.894 1.947-2.987 4.96-2.987 8.267v21.413h-4.693v-36.08h4.693v5.44c1.44-3.013 5.12-6.266 11.227-6.266 3.813 0 6.907 1.2 8.96 3.493 2.24 2.56 3.2 4.933 3.2 13.013v20.4zM404.027 51.867l-.053.133c-1.414 2.96-4.827 7.893-11.921 7.893-5.786 0-11.973-3.626-11.973-13.786v-.4h27.227v-.72c0-11.547-6.053-18.72-15.787-18.72-9.6 0-16.293 7.653-16.293 18.64 0 12 6.24 19.173 16.666 19.173 8.934 0 13.467-5.307 15.681-9.787l.053-.106-3.6-2.32zM391.52 30.213c5.147 0 10.64 4.08 10.693 11.627h-22c.667-7.173 4.96-11.627 11.307-11.627zM424.827 64.08c-7.627 0-12.774-4.053-14.854-7.52l-.053-.107 3.813-2.72.08.107c2.454 3.947 6.56 6.107 11.547 6.107 5.547-.08 8.747-2.427 8.747-6.48 0-3.92-3.227-5.014-7.414-6.054l-4.96-1.2c-6.293-1.493-10.186-3.653-10.186-9.76 0-6.106 5.066-10.213 12.613-10.213 6.773 0 10.88 3.227 13.12 5.92l.08.107-3.6 3.04-.08-.107a11.638 11.638 0 00-9.6-4.907c-4.853 0-7.76 2.107-7.76 5.654 0 3.76 2.48 5.013 7.04 6.026l4.747 1.12c5.6 1.254 10.773 3.36 10.773 10.054-.027 6.666-5.413 10.853-14.053 10.933zM455.813 64.08c-7.626 0-12.773-4.053-14.853-7.52l-.053-.107 3.813-2.72.08.107c2.453 3.947 6.56 6.107 11.547 6.107 5.546-.08 8.746-2.427 8.746-6.48 0-3.92-3.226-5.014-7.413-6.054l-4.96-1.2c-6.293-1.493-10.187-3.653-10.187-9.76 0-6.106 5.067-10.213 12.614-10.213 6.773 0 10.88 3.227 13.12 5.92l.08.107-3.6 3.04-.08-.107a11.64 11.64 0 00-9.6-4.907c-4.854 0-7.76 2.107-7.76 5.654 0 3.76 2.48 5.013 7.04 6.026l4.746 1.12c5.6 1.254 10.774 3.36 10.774 10.054 0 6.666-5.387 10.853-14.054 10.933z" fill="#A435F0"/></svg>
