<?xml version="1.0" encoding="utf-8"?>
<!-- Generator: Adobe Illustrator 18.1.0, SVG Export Plug-In . SVG Version: 6.00 Build 0)  -->
<svg version="1.1" id="Layer_2" xmlns="http://www.w3.org/2000/svg" xmlns:xlink="http://www.w3.org/1999/xlink" x="0px" y="0px"
	 viewBox="0 0 619.2 173.8" enable-background="new 0 0 619.2 173.8" xml:space="preserve">
<g>
	<path fill="#3D3D3E" d="M222.2,107.4c0-2.2,0.5-4.1,1.5-5.9c1-1.8,2.4-3.3,4.2-4.6c1.8-1.3,4-2.3,6.5-3c2.5-0.7,5.3-1.1,8.3-1.1
		c2.6,0,5.3,0.2,8,0.7c2.7,0.5,5.1,1.1,7.2,2v-4.9c0-4.7-1.3-8.4-4-11.1c-2.6-2.7-6.2-4.1-10.8-4.1c-2.4,0-4.9,0.5-7.6,1.5
		c-2.7,1-5.4,2.5-8.1,4.4l-1.8-3.2c6.3-4.2,12.3-6.3,18-6.3c5.9,0,10.6,1.7,13.9,5.1c3.4,3.4,5.1,8.1,5.1,14.1V115
		c0,1.6,0.5,2.4,1.5,2.4v4.1c-0.2,0.1-0.5,0.1-0.7,0.1c-0.2,0-0.5,0-0.7,0c-1.2,0-2.2-0.4-3-1.3c-0.7-0.8-1.2-1.8-1.3-3v-4
		c-2.3,2.9-5.2,5.2-8.7,6.7c-3.5,1.6-7.3,2.3-11.4,2.3c-2.3,0-4.4-0.4-6.3-1.2c-1.9-0.8-3.7-1.8-5.1-3.2c-1.5-1.3-2.6-2.9-3.4-4.8
		C222.6,111.4,222.2,109.5,222.2,107.4z M226.7,107.1c0,1.6,0.3,3.2,0.9,4.6c0.6,1.4,1.5,2.7,2.6,3.7c1.1,1,2.5,1.9,4,2.5
		c1.5,0.6,3.2,0.9,4.9,0.9c3.7,0,7-0.7,10.1-2.1c3.1-1.4,5.4-3.2,7-5.5c1-1.3,1.5-2.6,1.5-3.8v-8.7c-2.3-0.9-4.6-1.6-7.1-2
		c-2.5-0.4-5-0.6-7.6-0.6c-2.5,0-4.7,0.3-6.7,0.8c-2,0.5-3.7,1.3-5.2,2.2c-1.4,0.9-2.6,2.1-3.3,3.4
		C227.1,103.9,226.7,105.4,226.7,107.1z"/>
	<path fill="#3D3D3E" d="M271.1,96.8c0-3.5,0.6-6.7,1.8-9.8c1.2-3.1,2.9-5.7,5-8c2.1-2.3,4.7-4,7.6-5.4c3-1.3,6.2-2,9.7-2
		c4.4,0,8.4,1,11.8,3c3.4,2,6,4.8,7.6,8.4l-4.6,1.5c-1.4-2.7-3.5-4.8-6.2-6.3c-2.7-1.5-5.6-2.3-8.8-2.3c-2.7,0-5.2,0.5-7.5,1.6
		c-2.3,1.1-4.3,2.5-6.1,4.4c-1.7,1.9-3.1,4.1-4.1,6.6c-1,2.5-1.5,5.3-1.5,8.2s0.5,5.7,1.6,8.3c1,2.6,2.4,4.9,4.2,6.8
		c1.7,1.9,3.8,3.4,6.1,4.5c2.3,1.1,4.8,1.7,7.5,1.7c1.7,0,3.4-0.2,5-0.7c1.7-0.5,3.2-1.1,4.6-2c1.4-0.8,2.6-1.8,3.7-2.9
		c1-1.1,1.7-2.2,2.1-3.4l4.6,1.3c-0.6,1.7-1.6,3.3-2.9,4.8c-1.3,1.5-2.8,2.8-4.6,3.9c-1.8,1.1-3.7,1.9-5.8,2.5
		c-2.1,0.6-4.3,0.9-6.6,0.9c-3.5,0-6.7-0.7-9.6-2c-2.9-1.4-5.5-3.2-7.7-5.5c-2.2-2.3-3.9-5.1-5.1-8.1
		C271.8,103.6,271.1,100.3,271.1,96.8z"/>
	<path fill="#3D3D3E" d="M320.3,96.8c0-3.5,0.6-6.7,1.8-9.8c1.2-3.1,2.9-5.7,5-8c2.1-2.3,4.7-4,7.6-5.4c3-1.3,6.2-2,9.7-2
		c4.4,0,8.4,1,11.8,3c3.4,2,6,4.8,7.6,8.4l-4.6,1.5c-1.4-2.7-3.5-4.8-6.2-6.3c-2.7-1.5-5.6-2.3-8.8-2.3c-2.7,0-5.2,0.5-7.5,1.6
		c-2.3,1.1-4.3,2.5-6.1,4.4c-1.7,1.9-3.1,4.1-4.1,6.6c-1,2.5-1.5,5.3-1.5,8.2s0.5,5.7,1.6,8.3c1,2.6,2.4,4.9,4.2,6.8
		c1.7,1.9,3.8,3.4,6.1,4.5c2.3,1.1,4.8,1.7,7.5,1.7c1.7,0,3.4-0.2,5-0.7c1.7-0.5,3.2-1.1,4.6-2c1.4-0.8,2.6-1.8,3.7-2.9
		c1-1.1,1.7-2.2,2.1-3.4l4.6,1.3c-0.6,1.7-1.6,3.3-2.9,4.8c-1.3,1.5-2.8,2.8-4.6,3.9c-1.8,1.1-3.7,1.9-5.8,2.5
		c-2.1,0.6-4.3,0.9-6.6,0.9c-3.5,0-6.7-0.7-9.6-2c-2.9-1.4-5.5-3.2-7.7-5.5c-2.2-2.3-3.9-5.1-5.1-8.1
		C320.9,103.6,320.3,100.3,320.3,96.8z"/>
	<path fill="#3D3D3E" d="M372.3,100.8V72.5h4.7v27.6c0,12,4.1,18.1,12.3,18.1c2.1,0,4.1-0.4,6.1-1.1c1.9-0.7,3.8-1.7,5.5-3
		c1.7-1.3,3.2-2.8,4.5-4.6c1.3-1.8,2.3-3.8,3.1-6V72.5h4.7v42.4c0,1.6,0.7,2.3,2,2.3v4.2c-0.3,0.1-0.6,0.1-0.8,0.1
		c-0.2,0-0.4,0-0.6,0c-1.3,0-2.4-0.4-3.4-1.2c-1-0.8-1.5-1.8-1.5-3.2v-7.4c-2.1,4-5.1,7-8.8,9.2c-3.7,2.2-7.8,3.3-12.1,3.3
		C377.5,122.4,372.3,115.2,372.3,100.8z"/>
	<path fill="#3D3D3E" d="M421.5,115l2.3-3.2c2.6,2.4,5.4,4.2,8.2,5.3c2.8,1.1,5.9,1.7,9.3,1.7c4.3,0,7.7-0.9,10.3-2.7
		c2.6-1.8,3.9-4.3,3.9-7.5c0-1.5-0.3-2.8-1-3.8c-0.7-1-1.6-1.9-3-2.6c-1.3-0.7-3-1.4-4.9-1.9c-2-0.5-4.2-1.2-6.8-1.9
		c-2.7-0.7-5.1-1.4-7.1-2c-2.1-0.6-3.8-1.3-5.1-2.2c-1.3-0.9-2.3-2-3-3.2c-0.7-1.3-1-2.9-1-4.8c0-2.4,0.5-4.6,1.4-6.4
		c0.9-1.8,2.2-3.3,3.9-4.5c1.7-1.2,3.6-2.1,5.8-2.7c2.2-0.6,4.5-0.9,6.9-0.9c3.8,0,7.2,0.6,10.2,1.9c2.9,1.3,5.2,2.9,6.9,4.9
		l-2.7,2.5c-1.6-1.9-3.7-3.3-6.4-4.2c-2.6-0.9-5.4-1.4-8.3-1.4c-1.8,0-3.5,0.2-5.1,0.6c-1.6,0.4-3,1-4.2,1.8
		c-1.2,0.8-2.1,1.9-2.8,3.2c-0.7,1.3-1,2.8-1,4.6c0,1.4,0.2,2.6,0.7,3.5c0.5,0.9,1.2,1.6,2.3,2.3c1,0.6,2.4,1.2,4,1.6
		c1.6,0.4,3.6,1,5.9,1.6c3,0.8,5.7,1.6,8.2,2.2s4.4,1.5,6,2.5c1.6,1,2.8,2.2,3.6,3.6c0.8,1.4,1.3,3.2,1.3,5.3
		c0,4.4-1.7,7.9-5.1,10.5c-3.4,2.6-8,3.9-13.7,3.9c-3.8,0-7.4-0.6-10.8-1.9C427.1,119.4,424.1,117.5,421.5,115z"/>
	<path fill="#3D3D3E" d="M465.5,97.1c0-3.5,0.6-6.7,1.8-9.8c1.2-3.1,2.9-5.8,5-8.1c2.1-2.3,4.7-4.1,7.6-5.5c2.9-1.4,6.1-2,9.5-2
		c3.4,0,6.6,0.7,9.4,2c2.9,1.4,5.4,3.2,7.6,5.5c2.2,2.3,3.9,5,5.1,8.1c1.2,3.1,1.8,6.4,1.8,9.8c0,3.4-0.6,6.6-1.8,9.7
		c-1.2,3.1-2.9,5.8-5,8.1c-2.1,2.3-4.7,4.2-7.6,5.5c-2.9,1.3-6.1,2-9.5,2c-3.5,0-6.7-0.7-9.6-2c-2.9-1.4-5.4-3.2-7.6-5.5
		c-2.1-2.3-3.8-5-5-8.1C466.1,103.7,465.5,100.5,465.5,97.1z M470.2,97.3c0,2.9,0.5,5.6,1.5,8.1c1,2.5,2.4,4.7,4.1,6.6
		c1.7,1.9,3.8,3.4,6.1,4.4c2.3,1.1,4.8,1.6,7.4,1.6c2.6,0,5.1-0.5,7.5-1.6c2.3-1.1,4.4-2.6,6.1-4.5c1.7-1.9,3.1-4.2,4.1-6.7
		c1-2.5,1.5-5.3,1.5-8.2c0-2.9-0.5-5.6-1.5-8.1c-1-2.6-2.4-4.8-4.1-6.7c-1.7-1.9-3.8-3.4-6.1-4.5c-2.3-1.1-4.8-1.7-7.4-1.7
		c-2.6,0-5.1,0.6-7.4,1.7c-2.3,1.1-4.3,2.6-6.1,4.6c-1.7,1.9-3.1,4.2-4.2,6.8C470.7,91.7,470.2,94.4,470.2,97.3z"/>
	<path fill="#3D3D3E" d="M517.7,76.4v-3.9h6.9v-1.6c0-6,1.2-10.7,3.7-14.1c2.5-3.4,5.8-5,10.2-5c1.9,0,3.7,0.3,5.5,0.8
		c1.8,0.6,3.2,1.3,4.4,2.3l-1.7,3.4c-0.9-0.7-2-1.3-3.3-1.7c-1.3-0.4-2.6-0.6-4-0.6c-3.2,0-5.7,1.3-7.4,3.8
		c-1.7,2.5-2.6,6.2-2.6,11.1v1.7h13.9v3.9h-13.9v45.2h-4.7V76.4H517.7z"/>
	<path fill="#3D3D3E" d="M545.2,76.4v-3.9h6.9V55.7h4.7v16.8h11.4v3.9h-11.4v35.9c0,1.8,0.6,3.2,1.9,4.1c1.3,0.9,2.7,1.4,4.2,1.4
		c1.9,0,3.6-0.3,5-1c1.4-0.7,2.3-1.1,2.6-1.3l1.4,3.7c-0.2,0.1-0.7,0.3-1.3,0.7c-0.6,0.3-1.4,0.7-2.3,1c-0.9,0.3-1.9,0.6-3.1,0.8
		c-1.1,0.2-2.3,0.4-3.7,0.4c-1.3,0-2.6-0.2-3.7-0.6c-1.2-0.4-2.2-0.9-3.1-1.7c-0.9-0.8-1.6-1.7-2.1-2.7c-0.5-1.1-0.8-2.3-0.8-3.8
		v-37H545.2z"/>
	<g>
		<path fill="#3D3D3E" d="M564.9,57.6c0-0.8,0.1-1.6,0.4-2.3s0.7-1.3,1.2-1.8c0.5-0.5,1.1-0.9,1.9-1.2c0.7-0.3,1.5-0.4,2.3-0.4
			c0.8,0,1.6,0.1,2.3,0.4c0.7,0.3,1.3,0.7,1.9,1.2c0.5,0.5,0.9,1.1,1.2,1.8s0.4,1.5,0.4,2.3c0,0.8-0.1,1.6-0.4,2.3s-0.7,1.3-1.2,1.8
			c-0.5,0.5-1.1,0.9-1.9,1.2c-0.7,0.3-1.5,0.4-2.3,0.4c-0.9,0-1.6-0.1-2.3-0.4c-0.7-0.3-1.3-0.7-1.9-1.2c-0.5-0.5-0.9-1.1-1.2-1.8
			S564.9,58.4,564.9,57.6z M565.5,57.6c0,0.8,0.1,1.4,0.4,2.1c0.3,0.6,0.6,1.2,1.1,1.7c0.5,0.5,1,0.8,1.7,1.1
			c0.6,0.3,1.4,0.4,2.1,0.4c0.7,0,1.4-0.1,2.1-0.4c0.6-0.3,1.2-0.6,1.7-1.1c0.5-0.5,0.9-1,1.1-1.6c0.3-0.6,0.4-1.4,0.4-2.1
			c0-0.7-0.1-1.4-0.4-2.1c-0.3-0.6-0.6-1.2-1.1-1.7s-1-0.8-1.7-1.1c-0.6-0.3-1.3-0.4-2.1-0.4c-0.8,0-1.5,0.1-2.1,0.4
			c-0.6,0.3-1.2,0.6-1.7,1.1s-0.8,1-1.1,1.7C565.6,56.1,565.5,56.8,565.5,57.6z M568.4,61.2v-7.3h3c0.3,0,0.6,0.1,0.9,0.2
			c0.3,0.1,0.5,0.3,0.7,0.5c0.2,0.2,0.3,0.5,0.4,0.8c0.1,0.3,0.2,0.6,0.2,0.8c0,0.5-0.2,1-0.5,1.4c-0.3,0.4-0.7,0.7-1.2,0.7l1.8,2.8
			h-0.9l-1.7-2.7h-1.9v2.7H568.4z M569.2,57.8h2.2c0.4,0,0.8-0.1,1-0.4c0.2-0.3,0.3-0.7,0.3-1.1c0-0.4-0.1-0.8-0.4-1.1
			c-0.3-0.3-0.6-0.4-1-0.4h-2.1V57.8z"/>
	</g>
	<g>
		<path fill-rule="evenodd" clip-rule="evenodd" fill="#F47D48" d="M146.3,112c-1.2-1.5-50-63.9-51.7-66c-1.6-2.1-1.2-2.7-0.9-3
			c0.6-0.7,1.5-0.6,5-0.6c2.1,0,22.9-0.1,25.1-0.1c4.5,0,5.2,0.4,5.7,0.5c0.5,0.2,1.7,1.2,2.6,2.2c0.5,0.6,44.2,52.9,44.6,53.4
			c0.5,0.6,1.2,1.6,1.8,2.5c0.5,0.9,0.6,2.1-0.2,2.6c-0.5,0.3-24.7,10.3-25.4,10.5c-0.7,0.3-2,0.8-3,0.6
			C149.4,114.6,147.9,113.9,146.3,112"/>
		<path fill-rule="evenodd" clip-rule="evenodd" fill="#F19F53" d="M171,110.8l1.8,0.3c0,0,5.8,1.1,6.4,1.3c0.6,0.1,1.1,0.6,1.1,0.8
			c0,0.5-0.3,0.7-0.8,1c-0.4,0.3-26.6,16.4-27.1,16.7c-0.5,0.3-1.1,0.6-2.5,0.8c-2.6,0.5-7.5-0.9-9.1-1.2
			c-1.5-0.3-65.8-14.6-66.3-14.8c-0.6-0.2-1-0.2-1-0.8c-0.1-0.9,1.3-1.2,2.4-1.6c1.1-0.4,31.3-11.3,32.4-11.8
			c1.1-0.5,2.4-0.6,3.1-0.6c0.7,0,4.9,0.6,6.8,0.9c1.9,0.3,7.3,1.1,7.3,1.1l12.3,15.9c2.1,2.5,3.5,3.5,5.3,3.6
			c0.9,0.1,1.9-0.2,2.6-0.5C146.2,121.7,171,110.8,171,110.8"/>
		<path fill-rule="evenodd" clip-rule="evenodd" fill="#67BAAF" d="M100.8,71.8c0,0,10.6,13.6,10.7,13.7c0.1,0.2,0.2,0.4,0.4,0.5
			v0.2c-0.4,0.3-19.3,17.8-19.4,17.9l-19.9,7.3c0,0-0.6,0.2-0.9,0.4c-0.3,0.2-0.7,0.6-0.6,1.5c0,0.3,0.1,4.9,0.2,6
			c-0.1,0.1,0,0-0.1,0.1c0,0-24.5,7.8-24.7,7.8c-1.2,0.4-3.5,1.2-3.8,1c-0.5-0.4,0.1-1,0.4-1.4c0.3-0.4,50.5-49.8,52.4-51.8
			C98.2,72.1,100.8,71.8,100.8,71.8"/>
	</g>
</g>
</svg>
